<svg width="1602" height="479" fill="none" xmlns="http://www.w3.org/2000/svg"><rect x="1226.65" y="57.282" width="374.848" height="364.436" rx="9.5" fill="#F5F5F4" stroke="#9A9A9A"/><rect x="410.634" y="57.282" width="374.848" height="364.436" rx="9.5" fill="#F5F5F4" stroke="#9A9A9A"/><rect x="819.143" y="57.782" width="373.848" height="363.436" rx="9" fill="#FCFCFC" stroke="#BFBFBF" stroke-width="2" stroke-dasharray="10 10"/><rect x="2.625" y="57.282" width="374.848" height="364.436" rx="9.5" fill="#F5F5F4" stroke="#9A9A9A"/><path d="M3.106 67.769c0-5.523 4.477-10 10-10h66.481v212.308c0 73.201 75.334 151.363 75.334 151.363H13.106c-5.523 0-10-4.477-10-10V67.769zM411.12 67.769c0-5.523 4.478-10 10-10h40.088v212.308c0 73.201 49.336 151.363 49.336 151.363H421.12c-5.522 0-10-4.477-10-10V67.769zM1227.41 67.769c0-5.523 4.48-10 10-10h20.6v212.308c0 73.201 30.15 151.363 30.15 151.363h-50.75c-5.52 0-10-4.477-10-10V67.769z" fill="#E8E8E8"/><rect x="172.742" y="73.376" width="115.062" height="16.988" rx="8.494" fill="#fff" stroke="#9A9A9A"/><rect x="20.749" y="73.376" width="42.881" height="16.988" rx="8.494" fill="#fff" stroke="#9A9A9A"/><rect x="300.25" y="73.376" width="42.881" height="16.988" rx="8.494" fill="#fff" stroke="#9A9A9A"/><rect x="18.33" y="147.22" width="324.801" height="46.336" rx="4.5" fill="#fff" stroke="#9A9A9A"/><rect x="25.519" y="237.16" width="321.428" height="142.902" rx="4.5" fill="#fff" stroke="#9A9A9A"/><rect x="42.69" y="250.414" width="147.813" height="16.988" rx="1.5" fill="#EEE" stroke="#9A9A9A"/><rect x="41.736" y="275.976" width="80.084" height="16.041" rx="1.5" fill="#EEE" stroke="#9A9A9A"/><rect x="42.69" y="351.714" width="106.794" height="16.041" rx="1.5" fill="#EEE" stroke="#9A9A9A"/><rect x="20.749" y="114.085" width="109.656" height="23.615" rx="4.5" fill="#fff" stroke="#9A9A9A"/><rect x="580.75" y="73.376" width="115.062" height="16.988" rx="8.494" fill="#fff" stroke="#9A9A9A"/><rect x="428.758" y="73.376" width="42.881" height="16.988" rx="8.494" fill="#fff" stroke="#9A9A9A"/><rect x="708.259" y="73.376" width="42.881" height="16.988" rx="8.494" fill="#fff" stroke="#9A9A9A"/><rect x="426.339" y="147.22" width="324.801" height="46.336" rx="4.5" fill="#fff" stroke="#9A9A9A"/><rect x="843.666" y="120.596" width="324.801" height="43.804" rx="4.5" fill="#fff" stroke="#BFBFBF" stroke-dasharray="5 5"/><rect x="843.666" y="345.962" width="324.801" height="43.804" rx="4.5" fill="#fff" stroke="#BFBFBF" stroke-dasharray="5 5"/><rect x="433.528" y="237.16" width="146.223" height="70.951" rx="4.5" fill="#fff" stroke="#9A9A9A"/><rect x="433.528" y="324.259" width="146.223" height="70.951" rx="4.5" fill="#fff" stroke="#9A9A9A"/><rect x="604.918" y="237.16" width="146.223" height="70.951" rx="4.5" fill="#fff" stroke="#9A9A9A"/><rect x="428.758" y="114.085" width="109.656" height="23.615" rx="4.5" fill="#fff" stroke="#9A9A9A"/><rect x="846.085" y="89.234" width="109.656" height="22.298" rx="4.5" fill="#fff" stroke="#BFBFBF" stroke-dasharray="5 5"/><rect x="846.085" y="308.327" width="322.382" height="22.298" rx="4.5" fill="#fff" stroke="#BFBFBF" stroke-dasharray="5 5"/><rect x="846.085" y="276.964" width="67.103" height="22.298" rx="4.5" fill="#fff" stroke="#BFBFBF" stroke-dasharray="5 5"/><rect x="1396.77" y="73.376" width="115.062" height="16.988" rx="8.494" fill="#fff" stroke="#9A9A9A"/><rect x="1244.78" y="73.376" width="42.881" height="16.988" rx="8.494" fill="#fff" stroke="#9A9A9A"/><rect x="1524.28" y="73.376" width="42.881" height="16.988" rx="8.494" fill="#fff" stroke="#9A9A9A"/><rect x="1242.36" y="147.22" width="203.264" height="46.336" rx="4.5" fill="#fff" stroke="#9A9A9A"/><rect x="1245.95" y="217.279" width="199.67" height="142.902" rx="4.5" fill="#fff" stroke="#9A9A9A"/><rect x="1263.44" y="230.532" width="150.527" height="16.988" rx="1.5" fill="#EEE" stroke="#9A9A9A"/><rect x="1262.46" y="256.094" width="81.563" height="16.041" rx="1.5" fill="#EEE" stroke="#9A9A9A"/><rect x="1263.44" y="331.832" width="108.76" height="16.041" rx="1.5" fill="#EEE" stroke="#9A9A9A"/><rect x="1244.78" y="114.085" width="109.656" height="23.615" rx="4.5" fill="#fff" stroke="#9A9A9A"/></svg>
