<svg width="830" height="510" fill="none" xmlns="http://www.w3.org/2000/svg"><path d="M413.2 408.094c0 .967.784 1.75 1.75 1.75h1.085a1.75 1.75 0 001.75-1.75v-99a1.75 1.75 0 00-1.75-1.75h-1.085a1.75 1.75 0 00-1.75 1.75v99zM413.2 101.906c0-.967.784-1.75 1.75-1.75h1.085c.966 0 1.75.783 1.75 1.75v98.271a1.75 1.75 0 01-1.75 1.75h-1.085a1.75 1.75 0 01-1.75-1.75v-98.271z" fill="#484848" stroke="#A5A5A5" stroke-width=".5"/><rect x="372.582" y="199.906" width="84.836" height="110.189" rx="10" fill="#393939"/><path d="M323.221 255.537a.538.538 0 010-1.074h48.574a.536.536 0 110 1.074h-48.574zM506.779 255.537a.538.538 0 000-1.074h-48.574a.536.536 0 100 1.074h48.574zM268.957 255.537a.537.537 0 010-1.074h48.574a.537.537 0 010 1.074h-48.574zM561.043 255.537a.537.537 0 000-1.074h-48.574a.537.537 0 000 1.074h48.574z" fill="#484848" stroke="#A5A5A5" stroke-width=".5"/><circle cx="415.492" cy="91.696" r="21.318" fill="#393939" stroke="#A5A5A5" stroke-width="3.5"/><circle cx="318.318" cy="255" r="9.318" transform="rotate(-90 318.318 255)" fill="#fff" stroke="#393939" stroke-width="4.5"/><circle r="9.318" transform="matrix(0 -1 -1 0 511.682 255)" fill="#fff" stroke="#393939" stroke-width="4.5"/><circle cx="277.179" cy="255" r="10.818" transform="rotate(-90 277.179 255)" fill="#393939" stroke="#fff" stroke-width="1.5"/><circle r="10.818" transform="matrix(0 -1 -1 0 552.821 255)" fill="#393939" stroke="#fff" stroke-width="1.5"/><circle cx="202.32" cy="149.906" r="2.876" transform="rotate(-90 202.32 149.906)" fill="#484848" stroke="#A5A5A5" stroke-width="1.5"/><circle r="2.876" transform="matrix(0 -1 -1 0 627.68 149.906)" fill="#484848" stroke="#A5A5A5" stroke-width="1.5"/><circle r="2.876" transform="matrix(0 1 1 0 202.32 360.094)" fill="#484848" stroke="#A5A5A5" stroke-width="1.5"/><circle cx="627.68" cy="360.094" r="2.876" transform="rotate(90 627.68 360.094)" fill="#484848" stroke="#A5A5A5" stroke-width="1.5"/><circle cx="111.379" cy="149.906" r="2.876" transform="rotate(-90 111.379 149.906)" fill="#484848" stroke="#A5A5A5" stroke-width="1.5"/><circle r="2.876" transform="matrix(0 -1 -1 0 718.621 149.906)" fill="#484848" stroke="#A5A5A5" stroke-width="1.5"/><circle r="2.876" transform="matrix(0 1 1 0 111.379 360.094)" fill="#484848" stroke="#A5A5A5" stroke-width="1.5"/><circle cx="718.621" cy="360.094" r="2.876" transform="rotate(90 718.621 360.094)" fill="#484848" stroke="#A5A5A5" stroke-width="1.5"/><circle r="21.318" transform="matrix(1 0 0 -1 415.492 418.304)" fill="#393939" stroke="#A5A5A5" stroke-width="3.5"/><path d="M372.582 220.673h-94.977v-70.767h-71.69M457.418 220.673h94.977v-70.767h71.69M372.582 289.327h-94.977v70.767h-71.69M457.418 289.327h94.977v70.767h71.69" stroke="#393939" stroke-width="2"/><path d="M279.23 220.673h-94.977v-70.767h-69.61M550.77 220.673h94.977v-70.767h69.61M279.23 289.327h-94.977v70.767h-69.61M550.77 289.327h94.977v70.767h69.61" stroke="#393939" stroke-width="2"/><rect x="262.121" y="212.797" width="55.675" height="55.016" rx="4.5" transform="rotate(180 262.121 212.797)" fill="#fff" stroke="#393939"/><rect x=".5" y="-.5" width="55.675" height="55.016" rx="4.5" transform="matrix(1 0 0 -1 567.379 212.297)" fill="#fff" stroke="#393939"/><rect x="262.121" y="352.219" width="55.675" height="55.016" rx="4.5" transform="rotate(180 262.121 352.219)" fill="#fff" stroke="#393939"/><rect x=".5" y="-.5" width="55.675" height="55.016" rx="4.5" transform="matrix(1 0 0 -1 567.379 351.719)" fill="#fff" stroke="#393939"/><rect x="170.488" y="212.809" width="55.675" height="55.016" rx="4.5" transform="rotate(180 170.488 212.809)" fill="#fff" stroke="#393939"/><rect x=".5" y="-.5" width="55.675" height="55.016" rx="4.5" transform="matrix(1 0 0 -1 659.011 212.309)" fill="#fff" stroke="#393939"/><rect x="170.488" y="352.207" width="55.675" height="55.016" rx="4.5" transform="rotate(180 170.488 352.207)" fill="#fff" stroke="#393939"/><rect x=".5" y="-.5" width="55.675" height="55.016" rx="4.5" transform="matrix(1 0 0 -1 659.011 351.707)" fill="#fff" stroke="#393939"/><path d="M219.101 212.309h-8.157a4 4 0 01-4-4v-46.087a4 4 0 014-4h4.796c-.8 21.476-.112 33.259 3.361 54.087zM610.898 212.309h8.158a4 4 0 004-4v-46.087a4 4 0 00-4-4h-4.796c.8 21.476.112 33.259-3.362 54.087zM219.101 351.731h-8.157a4 4 0 01-4-4v-46.088a4 4 0 014-4h4.796c-.8 21.476-.112 33.259 3.361 54.088zM610.898 351.731h8.158a4 4 0 004-4v-46.088a4 4 0 00-4-4h-4.796c.8 21.476.112 33.259-3.362 54.088zM127.469 212.307h-8.464a4 4 0 01-4-4v-46.031a4 4 0 014-4h5.017c-.82 21.453-.114 33.224 3.447 54.031zM702.531 212.307h8.464a4 4 0 004-4v-46.031a4 4 0 00-4-4h-5.017c.82 21.453.114 33.224-3.447 54.031zM127.469 351.704h-8.464a4 4 0 01-4-4v-46.031a4 4 0 014-4h5.017c-.82 21.454-.114 33.224 3.447 54.031zM702.531 351.704h8.464a4 4 0 004-4v-46.031a4 4 0 00-4-4h-5.017c.82 21.454.114 33.224-3.447 54.031z" fill="#F8F8F8"/><rect x="255.184" y="173.448" width="41.8" height="11.248" rx="1.85" transform="rotate(180 255.184 173.448)" fill="#393939" stroke="#9A9A9A" stroke-width=".3"/><rect x=".15" y="-.15" width="41.8" height="11.248" rx="1.85" transform="matrix(1 0 0 -1 574.666 173.298)" fill="#393939" stroke="#9A9A9A" stroke-width=".3"/><rect x="255.184" y="312.87" width="41.8" height="11.248" rx="1.85" transform="rotate(180 255.184 312.87)" fill="#8C8C8C" stroke="#9A9A9A" stroke-width=".3"/><rect x=".15" y="-.15" width="41.8" height="11.248" rx="1.85" transform="matrix(1 0 0 -1 574.666 312.72)" fill="#393939" stroke="#9A9A9A" stroke-width=".3"/><rect x="163.551" y="173.461" width="41.8" height="11.248" rx="1.85" transform="rotate(180 163.551 173.461)" fill="#393939" stroke="#9A9A9A" stroke-width=".3"/><rect x=".15" y="-.15" width="41.8" height="11.248" rx="1.85" transform="matrix(1 0 0 -1 666.299 173.311)" fill="#393939" stroke="#9A9A9A" stroke-width=".3"/><rect x="163.551" y="312.858" width="41.8" height="11.248" rx="1.85" transform="rotate(180 163.551 312.858)" fill="#8C8C8C" stroke="#9A9A9A" stroke-width=".3"/><rect x=".15" y="-.15" width="41.8" height="11.248" rx="1.85" transform="matrix(1 0 0 -1 666.299 312.708)" fill="#393939" stroke="#9A9A9A" stroke-width=".3"/><rect x="213.383" y="191.186" width="14.101" height="15.516" rx="1.85" transform="rotate(-90 213.383 191.186)" fill="#EEE" stroke="#9A9A9A" stroke-width=".3"/><rect x="-.15" y="-.15" width="14.101" height="15.516" rx="1.85" transform="matrix(0 -1 -1 0 616.466 191.036)" fill="#EEE" stroke="#9A9A9A" stroke-width=".3"/><rect x="213.383" y="330.608" width="14.101" height="15.516" rx="1.85" transform="rotate(-90 213.383 330.608)" fill="#EEE" stroke="#9A9A9A" stroke-width=".3"/><rect x="-.15" y="-.15" width="14.101" height="15.516" rx="1.85" transform="matrix(0 -1 -1 0 616.466 330.458)" fill="#EEE" stroke="#9A9A9A" stroke-width=".3"/><rect x="121.751" y="191.198" width="14.101" height="15.516" rx="1.85" transform="rotate(-90 121.751 191.198)" fill="#EEE" stroke="#9A9A9A" stroke-width=".3"/><rect x="-.15" y="-.15" width="14.101" height="15.516" rx="1.85" transform="matrix(0 -1 -1 0 708.099 191.048)" fill="#EEE" stroke="#9A9A9A" stroke-width=".3"/><rect x="121.751" y="330.596" width="14.101" height="15.516" rx="1.85" transform="rotate(-90 121.751 330.596)" fill="#EEE" stroke="#9A9A9A" stroke-width=".3"/><rect x="-.15" y="-.15" width="14.101" height="15.516" rx="1.85" transform="matrix(0 -1 -1 0 708.099 330.446)" fill="#EEE" stroke="#9A9A9A" stroke-width=".3"/><rect x="239.667" y="191.186" width="14.101" height="15.516" rx="1.85" transform="rotate(-90 239.667 191.186)" fill="#EEE" stroke="#9A9A9A" stroke-width=".3"/><rect x="-.15" y="-.15" width="14.101" height="15.516" rx="1.85" transform="matrix(0 -1 -1 0 590.183 191.036)" fill="#EEE" stroke="#9A9A9A" stroke-width=".3"/><rect x="239.667" y="330.608" width="14.101" height="15.516" rx="1.85" transform="rotate(-90 239.667 330.608)" fill="#EEE" stroke="#9A9A9A" stroke-width=".3"/><rect x="-.15" y="-.15" width="14.101" height="15.516" rx="1.85" transform="matrix(0 -1 -1 0 590.183 330.458)" fill="#EEE" stroke="#9A9A9A" stroke-width=".3"/><rect x="148.035" y="191.198" width="14.101" height="15.516" rx="1.85" transform="rotate(-90 148.035 191.198)" fill="#EEE" stroke="#9A9A9A" stroke-width=".3"/><rect x="-.15" y="-.15" width="14.101" height="15.516" rx="1.85" transform="matrix(0 -1 -1 0 681.815 191.048)" fill="#EEE" stroke="#9A9A9A" stroke-width=".3"/><rect x="148.035" y="330.596" width="14.101" height="15.516" rx="1.85" transform="rotate(-90 148.035 330.596)" fill="#EEE" stroke="#9A9A9A" stroke-width=".3"/><rect x="-.15" y="-.15" width="14.101" height="15.516" rx="1.85" transform="matrix(0 -1 -1 0 681.815 330.446)" fill="#EEE" stroke="#9A9A9A" stroke-width=".3"/><path stroke="#EEE" stroke-linecap="round" d="M247.211 175.69v-1.153M582.789 175.69v-1.153M247.211 315.112v-1.154M582.789 315.112v-1.153M155.578 175.702v-1.153M674.422 175.702v-1.153M155.578 315.1v-1.154M674.422 315.1v-1.153M247.211 193.608v-1.154M582.789 193.608v-1.153M247.211 333.029v-1.153M582.789 333.029v-1.153M155.578 193.62v-1.154M674.422 193.62v-1.153M155.578 333.017v-1.153M674.422 333.017v-1.153M220.642 193.608v-1.154M609.358 193.608v-1.153M220.642 333.029v-1.153M609.358 333.029v-1.153M129.009 193.62v-1.154M700.991 193.62v-1.153M129.009 333.017v-1.153M700.991 333.017v-1.153M220.642 175.69v-1.153M609.358 175.69v-1.153M220.642 315.112v-1.154M609.358 315.112v-1.153M129.009 175.702v-1.153M700.991 175.702v-1.153M129.009 315.1v-1.154M700.991 315.1v-1.153M230.934 184.735h6.699M599.066 184.735h-6.698M230.934 324.157h6.699M599.066 324.157h-6.698M139.302 184.747H146M690.698 184.747H684M139.302 324.145H146M690.698 324.145H684"/><rect x="255.183" y="208.389" width="41.8" height="13.587" rx="1.85" transform="rotate(180 255.183 208.389)" fill="#EEE" stroke="#9A9A9A" stroke-width=".3"/><rect x=".15" y="-.15" width="41.8" height="13.587" rx="1.85" transform="matrix(1 0 0 -1 574.667 208.239)" fill="#EEE" stroke="#9A9A9A" stroke-width=".3"/><rect x="255.183" y="347.811" width="41.8" height="13.587" rx="1.85" transform="rotate(180 255.183 347.811)" fill="#EEE" stroke="#9A9A9A" stroke-width=".3"/><rect x=".15" y="-.15" width="41.8" height="13.587" rx="1.85" transform="matrix(1 0 0 -1 574.667 347.661)" fill="#EEE" stroke="#9A9A9A" stroke-width=".3"/><rect x="163.551" y="208.401" width="41.8" height="13.587" rx="1.85" transform="rotate(180 163.551 208.401)" fill="#EEE" stroke="#9A9A9A" stroke-width=".3"/><rect x=".15" y="-.15" width="41.8" height="13.587" rx="1.85" transform="matrix(1 0 0 -1 666.299 208.251)" fill="#EEE" stroke="#9A9A9A" stroke-width=".3"/><rect x="163.551" y="347.798" width="41.8" height="13.587" rx="1.85" transform="rotate(180 163.551 347.798)" fill="#EEE" stroke="#9A9A9A" stroke-width=".3"/><rect x=".15" y="-.15" width="41.8" height="13.587" rx="1.85" transform="matrix(1 0 0 -1 666.299 347.648)" fill="#EEE" stroke="#9A9A9A" stroke-width=".3"/><rect x="251.791" y="170.455" width="10.233" height="1.032" rx=".516" transform="rotate(180 251.791 170.455)" fill="#fff"/><rect width="10.233" height="1.032" rx=".516" transform="matrix(1 0 0 -1 578.208 170.455)" fill="#fff"/><rect x="251.791" y="309.876" width="10.233" height="1.032" rx=".516" transform="rotate(180 251.791 309.876)" fill="#fff"/><rect width="10.233" height="1.032" rx=".516" transform="matrix(1 0 0 -1 578.208 309.876)" fill="#fff"/><rect x="160.159" y="170.467" width="10.233" height="1.032" rx=".516" transform="rotate(180 160.159 170.467)" fill="#fff"/><rect width="10.233" height="1.032" rx=".516" transform="matrix(1 0 0 -1 669.841 170.467)" fill="#fff"/><rect x="160.159" y="309.864" width="10.233" height="1.032" rx=".516" transform="rotate(180 160.159 309.864)" fill="#fff"/><rect width="10.233" height="1.032" rx=".516" transform="matrix(1 0 0 -1 669.841 309.864)" fill="#fff"/><rect x="251.791" y="168.392" width="6.14" height="1.032" rx=".516" transform="rotate(180 251.791 168.392)" fill="#fff"/><rect width="6.14" height="1.032" rx=".516" transform="matrix(1 0 0 -1 578.208 168.392)" fill="#fff"/><rect x="251.791" y="307.813" width="6.14" height="1.032" rx=".516" transform="rotate(180 251.791 307.813)" fill="#fff"/><rect width="6.14" height="1.032" rx=".516" transform="matrix(1 0 0 -1 578.208 307.813)" fill="#fff"/><rect x="160.159" y="168.404" width="6.14" height="1.032" rx=".516" transform="rotate(180 160.159 168.404)" fill="#fff"/><rect width="6.14" height="1.032" rx=".516" transform="matrix(1 0 0 -1 669.841 168.404)" fill="#fff"/><rect x="160.159" y="307.801" width="6.14" height="1.032" rx=".516" transform="rotate(180 160.159 307.801)" fill="#fff"/><rect width="6.14" height="1.032" rx=".516" transform="matrix(1 0 0 -1 669.841 307.801)" fill="#fff"/><rect x="251.791" y="202.163" width="6.14" height="1.032" rx=".516" transform="rotate(180 251.791 202.163)" fill="#fff"/><rect width="6.14" height="1.032" rx=".516" transform="matrix(1 0 0 -1 578.208 202.163)" fill="#fff"/><rect x="251.791" y="341.584" width="6.14" height="1.032" rx=".516" transform="rotate(180 251.791 341.584)" fill="#fff"/><rect width="6.14" height="1.032" rx=".516" transform="matrix(1 0 0 -1 578.208 341.584)" fill="#fff"/><rect x="160.159" y="202.175" width="6.14" height="1.032" rx=".516" transform="rotate(180 160.159 202.175)" fill="#fff"/><rect width="6.14" height="1.032" rx=".516" transform="matrix(1 0 0 -1 669.841 202.175)" fill="#fff"/><rect x="160.159" y="341.572" width="6.14" height="1.032" rx=".516" transform="rotate(180 160.159 341.572)" fill="#fff"/><rect width="6.14" height="1.032" rx=".516" transform="matrix(1 0 0 -1 669.841 341.572)" fill="#fff"/><rect x="251.791" y="166.225" width="14.326" height="1.032" rx=".516" transform="rotate(180 251.791 166.225)" fill="#fff"/><rect width="14.326" height="1.032" rx=".516" transform="matrix(1 0 0 -1 578.208 166.225)" fill="#fff"/><rect x="251.791" y="305.647" width="14.326" height="1.032" rx=".516" transform="rotate(180 251.791 305.647)" fill="#fff"/><rect width="14.326" height="1.032" rx=".516" transform="matrix(1 0 0 -1 578.208 305.647)" fill="#fff"/><rect x="160.159" y="166.238" width="14.326" height="1.032" rx=".516" transform="rotate(180 160.159 166.238)" fill="#fff"/><rect width="14.326" height="1.032" rx=".516" transform="matrix(1 0 0 -1 669.841 166.238)" fill="#fff"/><rect x="160.159" y="305.635" width="14.326" height="1.032" rx=".516" transform="rotate(180 160.159 305.635)" fill="#fff"/><rect width="14.326" height="1.032" rx=".516" transform="matrix(1 0 0 -1 669.841 305.635)" fill="#fff"/><rect x="251.791" y="199.997" width="14.326" height="1.032" rx=".516" transform="rotate(180 251.791 199.997)" fill="#fff"/><rect width="14.326" height="1.032" rx=".516" transform="matrix(1 0 0 -1 578.208 199.997)" fill="#fff"/><rect x="251.791" y="339.418" width="14.326" height="1.032" rx=".516" transform="rotate(180 251.791 339.418)" fill="#fff"/><rect width="14.326" height="1.032" rx=".516" transform="matrix(1 0 0 -1 578.208 339.418)" fill="#fff"/><rect x="160.159" y="200.009" width="14.326" height="1.032" rx=".516" transform="rotate(180 160.159 200.009)" fill="#fff"/><rect width="14.326" height="1.032" rx=".516" transform="matrix(1 0 0 -1 669.841 200.009)" fill="#fff"/><rect x="160.159" y="339.406" width="14.326" height="1.032" rx=".516" transform="rotate(180 160.159 339.406)" fill="#fff"/><rect width="14.326" height="1.032" rx=".516" transform="matrix(1 0 0 -1 669.841 339.406)" fill="#fff"/></svg>
