<svg width="624" height="510" fill="none" xmlns="http://www.w3.org/2000/svg"><rect x="225.154" y="141.664" width="173.691" height="226.646" rx="10" fill="#393939"/><rect x="115.009" y="154.373" width="74.136" height="90.023" rx="5" fill="#F5F5F4"/><rect width="74.136" height="90.023" rx="5" transform="matrix(-1 0 0 1 508.991 154.373)" fill="#F5F5F4"/><rect x="21.809" y="215.8" width="74.136" height="90.023" rx="5" fill="#F5F5F4"/><rect width="74.136" height="90.023" rx="5" transform="matrix(-1 0 0 1 602.192 215.8)" fill="#F5F5F4"/><rect x="116.068" y="264.519" width="74.136" height="91.082" rx="5" fill="#F5F5F4"/><rect width="74.136" height="91.082" rx="5" transform="matrix(-1 0 0 1 507.932 264.519)" fill="#F5F5F4"/><rect x="265.4" y="387.97" width="37.951" height="46.48" rx="5" fill="#EEE"/><rect x="318.531" y="387.97" width="37.951" height="46.48" rx="5" fill="#F5F5F4"/><rect x="267.518" y="76" width="34.711" height="42.737" rx="5" fill="#F5F5F4"/><rect x="318.593" y="76" width="34.711" height="42.737" rx="5" fill="#F5F5F4"/><rect x="270.695" y="80.236" width="8.473" height="1.059" rx=".53" fill="#fff"/><rect x="122.422" y="220.037" width="20.123" height="3.177" rx="1.589" fill="#fff"/><rect width="20.123" height="3.177" rx="1.589" transform="matrix(-1 0 0 1 501.578 220.037)" fill="#fff"/><rect x="29.222" y="281.464" width="20.123" height="3.177" rx="1.589" fill="#fff"/><rect x="136.191" y="281.464" width="33.891" height="2.118" rx="1.059" fill="#fff"/><rect width="33.891" height="2.118" rx="1.059" transform="matrix(-1 0 0 1 487.809 281.464)" fill="#fff"/><rect x="270.695" y="422.323" width="18.005" height="1.059" rx=".53" fill="#fff"/><rect x="323.65" y="395.846" width="10.591" height="1.059" rx=".53" fill="#fff"/><rect x="323.65" y="80.236" width="9.532" height="1.059" rx=".53" fill="#fff"/><rect x="270.695" y="82.355" width="4.236" height="1.059" rx=".53" fill="#fff"/><rect x="122.422" y="226.391" width="11.65" height="2.118" rx="1.059" fill="#fff"/><rect width="11.65" height="2.118" rx="1.059" transform="matrix(-1 0 0 1 501.578 226.391)" fill="#fff"/><rect x="29.222" y="287.819" width="11.65" height="2.118" rx="1.059" fill="#fff"/><rect x="136.191" y="287.819" width="19.064" height="2.118" rx="1.059" fill="#fff"/><rect width="19.064" height="2.118" rx="1.059" transform="matrix(-1 0 0 1 487.809 287.819)" fill="#fff"/><rect x="270.695" y="424.442" width="10.591" height="1.059" rx=".53" fill="#fff"/><rect x="323.65" y="397.964" width="6.355" height="1.059" rx=".53" fill="#fff"/><rect x="323.65" y="82.355" width="5.295" height="1.059" rx=".53" fill="#fff"/><rect x="270.695" y="84.473" width="12.709" height="1.059" rx=".53" fill="#fff"/><rect x="136.191" y="292.055" width="47.659" height="4.236" rx="2.118" fill="#fff"/><rect width="47.659" height="4.236" rx="2.118" transform="matrix(-1 0 0 1 487.809 292.055)" fill="#fff"/><rect x="270.695" y="427.619" width="24.359" height="3.177" rx="1.589" fill="#fff"/><rect x="323.65" y="401.142" width="14.827" height="1.059" rx=".53" fill="#fff"/><rect x="323.65" y="84.473" width="12.709" height="1.059" rx=".53" fill="#fff"/><rect x="122.422" y="161.787" width="59.309" height="6.355" rx="2.5" fill="#fff"/><rect width="59.309" height="6.355" rx="2.5" transform="matrix(-1 0 0 1 501.578 161.787)" fill="#fff"/><rect x="29.222" y="222.155" width="59.309" height="7.414" rx="2.5" fill="#fff"/><rect width="59.309" height="7.414" rx="2.5" transform="matrix(-1 0 0 1 594.778 222.155)" fill="#fff"/><rect x="269.636" y="392.669" width="29.655" height="5.295" rx="2.5" fill="#fff"/><rect x="269.636" y="399.023" width="29.655" height="3.177" rx="1.589" fill="#fff"/><rect x="123.482" y="279.346" width="5.295" height="67.782" rx="2.5" fill="#fff"/><rect width="5.295" height="67.782" rx="2.5" transform="matrix(-1 0 0 1 500.519 279.346)" fill="#fff"/><rect x="82.177" y="235.923" width="5.295" height="56.132" rx="2.5" fill="#fff"/><rect x="270.695" y="91.886" width="12.709" height="8.473" rx="2" fill="#fff"/><rect x="323.65" y="91.886" width="25.418" height="20.123" rx="2" fill="#fff"/><rect x="323.65" y="407.496" width="27.536" height="20.123" rx="2" fill="#fff"/><rect x="270.695" y="103.536" width="12.709" height="8.473" rx="2" fill="#fff"/><rect x="285.523" y="91.886" width="12.709" height="8.473" rx="2" fill="#fff"/><rect x="285.523" y="103.536" width="12.709" height="8.473" rx="2" fill="#fff"/><path stroke="#EEE" d="M225.154 207.828h-34.95"/><path transform="matrix(1 0 0 -1 398.846 207.328)" stroke="#EEE" d="M0-.5h34.95"/><path stroke="#EEE" d="M115.009 230.068H95.945"/><path transform="matrix(1 0 0 -1 508.991 229.568)" stroke="#EEE" d="M0-.5h19.064"/><path stroke="#EEE" d="M115.009 278.787H95.945"/><path transform="matrix(1 0 0 -1 508.991 278.287)" stroke="#EEE" d="M0-.5h19.064"/><path stroke="#EEE" d="M283.964 138.487v-22.241M283.964 388.432V368.31M336.918 138.487v-19.064M337.977 388.432V368.31M224.095 304.205h-34.95"/><path transform="matrix(1 0 0 -1 399.905 303.705)" stroke="#EEE" d="M0-.5h34.95"/><path fill="#CECECE" d="M254.809 374.664h1.059v3.177h-1.059zM218.8 207.328v1.059h-4.236v-1.059zM111.831 229.568v1.059h-2.118v-1.059zM512.169 229.568v1.059h2.118v-1.059zM111.831 278.287v1.059h-2.118v-1.059zM512.169 278.287v1.059h2.118v-1.059zM225.154 303.705v2.118h-10.591v-2.118zM337.418 371.487h1.059v5.295h-1.059zM337.418 383.137h1.059v4.236h-1.059z"/><path fill="#CECECE" d="M337.418 374.664h1.059v2.118h-1.059zM337.418 376.782h1.059v1.059h-1.059z"/><rect x="247.395" y="211.564" width="36.009" height="8.473" rx="4.236" fill="#fff"/><rect x="290.818" y="211.564" width="15.886" height="8.473" rx="4.236" fill="#fff"/><rect x="313.059" y="211.564" width="62.486" height="8.473" rx="4.236" fill="#fff"/><rect x="247.395" y="195.677" width="62.486" height="8.473" rx="4.236" fill="#fff"/><rect x="247.395" y="162.846" width="131.328" height="8.473" rx="4.236" fill="#fff"/><rect x="247.395" y="180.85" width="16.945" height="8.473" rx="4.236" fill="#fff"/><rect x="268.577" y="180.85" width="16.945" height="8.473" rx="4.236" fill="#fff"/><rect x="290.818" y="180.85" width="16.945" height="8.473" rx="4.236" fill="#fff"/><rect x="313.059" y="180.85" width="16.945" height="8.473" rx="4.236" fill="#fff"/><rect x="335.3" y="180.85" width="16.945" height="8.473" rx="4.236" fill="#fff"/><rect x="357.541" y="180.85" width="16.945" height="8.473" rx="4.236" fill="#fff"/><rect x="313.059" y="195.677" width="62.486" height="8.473" rx="4.236" fill="#fff"/><rect x="250" y="235" width="58" height="33" rx="3" fill="#fff"/><rect x="250" y="312" width="58" height="34" rx="3" fill="#fff"/><rect x="250" y="273" width="58" height="34" rx="3" fill="#fff"/><rect x="317" y="235" width="59" height="33" rx="3" fill="#fff"/><rect x="317" y="312" width="59" height="34" rx="3" fill="#fff"/><rect x="317" y="273" width="59" height="34" rx="3" fill="#fff"/><rect x="442" y="172" width="29" height="6" rx="2.5" fill="#fff"/><rect x="440" y="344" width="35" height="2" rx="1" fill="#fff"/><rect x="535" y="235" width="35" height="2" rx="1" fill="#fff"/><rect x="535" y="273" width="35" height="2" rx="1" fill="#fff"/><rect x="535" y="239" width="20" height="2" rx="1" fill="#fff"/><rect x="535" y="278" width="20" height="2" rx="1" fill="#fff"/><rect x="535" y="244" width="48" height="3" rx="1.5" fill="#fff"/><rect x="535" y="283" width="48" height="2" rx="1" fill="#fff"/><rect x="535" y="290" width="51" height="6" rx="2.5" fill="#fff"/></svg>
