<svg width="624" height="510" viewBox="0 0 624 510" fill="none" xmlns="http://www.w3.org/2000/svg">
<rect x="230" y="161" width="164" height="188" rx="10" fill="#393939"/>
<g filter="url(#filter0_d)">
<rect x="81" y="182" width="60" height="65" rx="5" fill="#EEEEEE"/>
</g>
<g filter="url(#filter1_d)">
<rect x="483" y="182" width="60" height="65" rx="5" fill="#EEEEEE"/>
</g>
<g filter="url(#filter2_d)">
<rect x="81" y="263" width="60" height="65" rx="5" fill="#EEEEEE"/>
</g>
<g filter="url(#filter3_d)">
<rect x="483" y="263" width="60" height="65" rx="5" fill="#EEEEEE"/>
</g>
<g filter="url(#filter4_d)">
<rect x="229" y="415" width="60" height="65" rx="5" fill="#EEEEEE"/>
</g>
<g filter="url(#filter5_d)">
<rect x="335" y="415" width="60" height="65" rx="5" fill="#EEEEEE"/>
</g>
<g filter="url(#filter6_d)">
<rect x="229" y="21" width="60" height="65" rx="5" fill="#EEEEEE"/>
</g>
<g filter="url(#filter7_d)">
<rect x="335" y="21" width="60" height="65" rx="5" fill="#EEEEEE"/>
</g>
<rect x="234" y="26" width="16" height="2" rx="1" fill="white"/>
<rect x="87" y="230" width="16" height="2" rx="1" fill="white"/>
<rect x="97" y="275" width="28" height="2" rx="1" fill="white"/>
<rect x="237" y="463" width="28" height="2" rx="1" fill="white"/>
<rect x="491" y="312" width="16" height="2" rx="1" fill="white"/>
<rect x="344" y="425" width="16" height="2" rx="1" fill="white"/>
<rect x="344" y="26" width="16" height="2" rx="1" fill="white"/>
<rect x="489" y="189" width="33" height="2" rx="1" fill="white"/>
<rect x="489" y="221" width="33" height="2" rx="1" fill="white"/>
<rect x="234" y="30" width="9" height="2" rx="1" fill="white"/>
<rect x="87" y="234" width="9" height="2" rx="1" fill="white"/>
<rect x="97" y="279" width="16" height="2" rx="1" fill="white"/>
<rect x="237" y="467" width="16" height="2" rx="1" fill="white"/>
<rect x="491" y="316" width="9" height="2" rx="1" fill="white"/>
<rect x="344" y="429" width="9" height="2" rx="1" fill="white"/>
<rect x="344" y="30" width="9" height="2" rx="1" fill="white"/>
<rect x="489" y="193" width="18" height="2" rx="1" fill="white"/>
<rect x="489" y="225" width="18" height="2" rx="1" fill="white"/>
<rect x="234" y="34" width="22" height="2" rx="1" fill="white"/>
<rect x="87" y="238" width="22" height="2" rx="1" fill="white"/>
<rect x="97" y="283" width="39" height="2" rx="1" fill="white"/>
<rect x="237" y="471" width="39" height="2" rx="1" fill="white"/>
<rect x="491" y="320" width="22" height="2" rx="1" fill="white"/>
<rect x="344" y="433" width="22" height="2" rx="1" fill="white"/>
<rect x="344" y="34" width="22" height="2" rx="1" fill="white"/>
<rect x="489" y="197" width="45" height="2" rx="1" fill="white"/>
<rect x="489" y="229" width="45" height="2" rx="1" fill="white"/>
<rect x="87" y="187" width="48" height="5" rx="2.5" fill="white"/>
<rect x="235" y="423" width="48" height="5" rx="2.5" fill="white"/>
<rect x="235" y="431" width="48" height="5" rx="2.5" fill="white"/>
<rect x="87" y="273" width="4" height="49" rx="2" fill="white"/>
<rect x="489" y="235" width="48" height="5" rx="2.5" fill="white"/>
<rect x="489" y="209" width="48" height="5" rx="2.5" fill="white"/>
<rect x="234" y="46" width="22" height="13" rx="2" fill="white"/>
<rect x="344" y="46" width="43" height="30" rx="2" fill="white"/>
<rect x="344" y="441" width="43" height="30" rx="2" fill="white"/>
<rect x="234" y="63" width="22" height="13" rx="2" fill="white"/>
<rect x="261" y="46" width="22" height="13" rx="2" fill="white"/>
<rect x="261" y="63" width="22" height="13" rx="2" fill="white"/>
<line x1="230" y1="215.5" x2="141" y2="215.5" stroke="#EEEEEE"/>
<line x1="483" y1="215.5" x2="394" y2="215.5" stroke="#EEEEEE"/>
<line x1="258.5" y1="161" x2="258.5" y2="86" stroke="#EEEEEE"/>
<line x1="258.5" y1="415" x2="258.5" y2="348" stroke="#EEEEEE"/>
<line x1="364.5" y1="161" x2="364.5" y2="86" stroke="#EEEEEE"/>
<line x1="364.5" y1="415" x2="364.5" y2="348" stroke="#EEEEEE"/>
<line x1="229" y1="296.5" x2="141" y2="296.5" stroke="#EEEEEE"/>
<line x1="482" y1="296.5" x2="394" y2="296.5" stroke="#EEEEEE"/>
<rect x="258" y="96" width="1" height="2" fill="#CECECE"/>
<rect x="258" y="357" width="1" height="2" fill="#CECECE"/>
<rect x="258" y="111" width="1" height="9" fill="#CECECE"/>
<rect x="258" y="370" width="1" height="8" fill="#CECECE"/>
<rect x="153" y="215" width="1" height="9" transform="rotate(90 153 215)" fill="#CECECE"/>
<rect x="406" y="215" width="1" height="9" transform="rotate(90 406 215)" fill="#CECECE"/>
<rect x="189" y="215" width="1" height="20" transform="rotate(90 189 215)" fill="#CECECE"/>
<rect x="442" y="215" width="1" height="20" transform="rotate(90 442 215)" fill="#CECECE"/>
<rect x="224" y="215" width="1" height="4" transform="rotate(90 224 215)" fill="#CECECE"/>
<rect x="477" y="215" width="1" height="4" transform="rotate(90 477 215)" fill="#CECECE"/>
<rect x="152" y="296" width="1" height="4" transform="rotate(90 152 296)" fill="#CECECE"/>
<rect x="405" y="296" width="1" height="4" transform="rotate(90 405 296)" fill="#CECECE"/>
<rect x="179" y="296" width="1" height="4" transform="rotate(90 179 296)" fill="#CECECE"/>
<rect x="432" y="296" width="1" height="4" transform="rotate(90 432 296)" fill="#CECECE"/>
<rect x="185" y="296" width="1" height="4" transform="rotate(90 185 296)" fill="#CECECE"/>
<rect x="438" y="296" width="1" height="4" transform="rotate(90 438 296)" fill="#CECECE"/>
<rect x="191" y="296" width="1" height="4" transform="rotate(90 191 296)" fill="#CECECE"/>
<rect x="444" y="296" width="1" height="4" transform="rotate(90 444 296)" fill="#CECECE"/>
<rect x="230" y="296" width="1" height="10" transform="rotate(90 230 296)" fill="#CECECE"/>
<rect x="483" y="296" width="1" height="10" transform="rotate(90 483 296)" fill="#CECECE"/>
<rect x="364" y="96" width="1" height="9" fill="#CECECE"/>
<rect x="364" y="357" width="1" height="8" fill="#CECECE"/>
<rect x="364" y="148" width="1" height="9" fill="#CECECE"/>
<rect x="364" y="403" width="1" height="8" fill="#CECECE"/>
<rect x="364" y="109" width="1" height="4" fill="#CECECE"/>
<rect x="364" y="369" width="1" height="3" fill="#CECECE"/>
<rect x="364" y="115" width="1" height="4" fill="#CECECE"/>
<rect x="364" y="374" width="1" height="3" fill="#CECECE"/>
<rect x="364" y="121" width="1" height="4" fill="#CECECE"/>
<rect x="364" y="379" width="1" height="4" fill="#CECECE"/>
<rect x="258" y="130" width="1" height="4" fill="#CECECE"/>
<rect x="258" y="387" width="1" height="4" fill="#CECECE"/>
<rect x="258" y="136" width="1" height="4" fill="#CECECE"/>
<rect x="258" y="393" width="1" height="3" fill="#CECECE"/>
<rect x="258" y="142" width="1" height="4" fill="#CECECE"/>
<rect x="258" y="398" width="1" height="4" fill="#CECECE"/>
<rect x="251" y="219" width="34" height="7" rx="3.5" fill="white"/>
<rect x="292" y="219" width="15" height="7" rx="3.5" fill="white"/>
<rect x="313" y="219" width="59" height="7" rx="3.5" fill="white"/>
<rect x="251" y="206" width="59" height="7" rx="3.5" fill="white"/>
<rect x="251" y="178" width="124" height="7" rx="3.5" fill="white"/>
<rect x="251" y="193" width="16" height="7" rx="3.5" fill="white"/>
<rect x="271" y="193" width="16" height="7" rx="3.5" fill="white"/>
<rect x="292" y="193" width="16" height="7" rx="3.5" fill="white"/>
<rect x="313" y="193" width="16" height="7" rx="3.5" fill="white"/>
<rect x="334" y="193" width="16" height="7" rx="3.5" fill="white"/>
<rect x="355" y="193" width="16" height="7" rx="3.5" fill="white"/>
<rect x="313" y="206" width="59" height="7" rx="3.5" fill="white"/>
<rect x="253" y="238" width="55" height="28" rx="3" fill="white"/>
<rect x="253" y="303" width="55" height="28" rx="3" fill="white"/>
<rect x="253" y="270" width="55" height="28" rx="3" fill="white"/>
<rect x="317" y="238" width="55" height="28" rx="3" fill="white"/>
<rect x="317" y="303" width="55" height="28" rx="3" fill="white"/>
<rect x="317" y="270" width="55" height="28" rx="3" fill="white"/>
<defs>
<filter id="filter0_d" x="65" y="170" width="92" height="97" filterUnits="userSpaceOnUse" color-interpolation-filters="sRGB">
<feFlood flood-opacity="0" result="BackgroundImageFix"/>
<feColorMatrix in="SourceAlpha" type="matrix" values="0 0 0 0 0 0 0 0 0 0 0 0 0 0 0 0 0 0 127 0"/>
<feOffset dy="4"/>
<feGaussianBlur stdDeviation="8"/>
<feColorMatrix type="matrix" values="0 0 0 0 0 0 0 0 0 0 0 0 0 0 0 0 0 0 0.06 0"/>
<feBlend mode="normal" in2="BackgroundImageFix" result="effect1_dropShadow"/>
<feBlend mode="normal" in="SourceGraphic" in2="effect1_dropShadow" result="shape"/>
</filter>
<filter id="filter1_d" x="467" y="170" width="92" height="97" filterUnits="userSpaceOnUse" color-interpolation-filters="sRGB">
<feFlood flood-opacity="0" result="BackgroundImageFix"/>
<feColorMatrix in="SourceAlpha" type="matrix" values="0 0 0 0 0 0 0 0 0 0 0 0 0 0 0 0 0 0 127 0"/>
<feOffset dy="4"/>
<feGaussianBlur stdDeviation="8"/>
<feColorMatrix type="matrix" values="0 0 0 0 0 0 0 0 0 0 0 0 0 0 0 0 0 0 0.06 0"/>
<feBlend mode="normal" in2="BackgroundImageFix" result="effect1_dropShadow"/>
<feBlend mode="normal" in="SourceGraphic" in2="effect1_dropShadow" result="shape"/>
</filter>
<filter id="filter2_d" x="65" y="251" width="92" height="97" filterUnits="userSpaceOnUse" color-interpolation-filters="sRGB">
<feFlood flood-opacity="0" result="BackgroundImageFix"/>
<feColorMatrix in="SourceAlpha" type="matrix" values="0 0 0 0 0 0 0 0 0 0 0 0 0 0 0 0 0 0 127 0"/>
<feOffset dy="4"/>
<feGaussianBlur stdDeviation="8"/>
<feColorMatrix type="matrix" values="0 0 0 0 0 0 0 0 0 0 0 0 0 0 0 0 0 0 0.06 0"/>
<feBlend mode="normal" in2="BackgroundImageFix" result="effect1_dropShadow"/>
<feBlend mode="normal" in="SourceGraphic" in2="effect1_dropShadow" result="shape"/>
</filter>
<filter id="filter3_d" x="467" y="251" width="92" height="97" filterUnits="userSpaceOnUse" color-interpolation-filters="sRGB">
<feFlood flood-opacity="0" result="BackgroundImageFix"/>
<feColorMatrix in="SourceAlpha" type="matrix" values="0 0 0 0 0 0 0 0 0 0 0 0 0 0 0 0 0 0 127 0"/>
<feOffset dy="4"/>
<feGaussianBlur stdDeviation="8"/>
<feColorMatrix type="matrix" values="0 0 0 0 0 0 0 0 0 0 0 0 0 0 0 0 0 0 0.06 0"/>
<feBlend mode="normal" in2="BackgroundImageFix" result="effect1_dropShadow"/>
<feBlend mode="normal" in="SourceGraphic" in2="effect1_dropShadow" result="shape"/>
</filter>
<filter id="filter4_d" x="213" y="403" width="92" height="97" filterUnits="userSpaceOnUse" color-interpolation-filters="sRGB">
<feFlood flood-opacity="0" result="BackgroundImageFix"/>
<feColorMatrix in="SourceAlpha" type="matrix" values="0 0 0 0 0 0 0 0 0 0 0 0 0 0 0 0 0 0 127 0"/>
<feOffset dy="4"/>
<feGaussianBlur stdDeviation="8"/>
<feColorMatrix type="matrix" values="0 0 0 0 0 0 0 0 0 0 0 0 0 0 0 0 0 0 0.06 0"/>
<feBlend mode="normal" in2="BackgroundImageFix" result="effect1_dropShadow"/>
<feBlend mode="normal" in="SourceGraphic" in2="effect1_dropShadow" result="shape"/>
</filter>
<filter id="filter5_d" x="319" y="403" width="92" height="97" filterUnits="userSpaceOnUse" color-interpolation-filters="sRGB">
<feFlood flood-opacity="0" result="BackgroundImageFix"/>
<feColorMatrix in="SourceAlpha" type="matrix" values="0 0 0 0 0 0 0 0 0 0 0 0 0 0 0 0 0 0 127 0"/>
<feOffset dy="4"/>
<feGaussianBlur stdDeviation="8"/>
<feColorMatrix type="matrix" values="0 0 0 0 0 0 0 0 0 0 0 0 0 0 0 0 0 0 0.06 0"/>
<feBlend mode="normal" in2="BackgroundImageFix" result="effect1_dropShadow"/>
<feBlend mode="normal" in="SourceGraphic" in2="effect1_dropShadow" result="shape"/>
</filter>
<filter id="filter6_d" x="213" y="9" width="92" height="97" filterUnits="userSpaceOnUse" color-interpolation-filters="sRGB">
<feFlood flood-opacity="0" result="BackgroundImageFix"/>
<feColorMatrix in="SourceAlpha" type="matrix" values="0 0 0 0 0 0 0 0 0 0 0 0 0 0 0 0 0 0 127 0"/>
<feOffset dy="4"/>
<feGaussianBlur stdDeviation="8"/>
<feColorMatrix type="matrix" values="0 0 0 0 0 0 0 0 0 0 0 0 0 0 0 0 0 0 0.06 0"/>
<feBlend mode="normal" in2="BackgroundImageFix" result="effect1_dropShadow"/>
<feBlend mode="normal" in="SourceGraphic" in2="effect1_dropShadow" result="shape"/>
</filter>
<filter id="filter7_d" x="319" y="9" width="92" height="97" filterUnits="userSpaceOnUse" color-interpolation-filters="sRGB">
<feFlood flood-opacity="0" result="BackgroundImageFix"/>
<feColorMatrix in="SourceAlpha" type="matrix" values="0 0 0 0 0 0 0 0 0 0 0 0 0 0 0 0 0 0 127 0"/>
<feOffset dy="4"/>
<feGaussianBlur stdDeviation="8"/>
<feColorMatrix type="matrix" values="0 0 0 0 0 0 0 0 0 0 0 0 0 0 0 0 0 0 0.06 0"/>
<feBlend mode="normal" in2="BackgroundImageFix" result="effect1_dropShadow"/>
<feBlend mode="normal" in="SourceGraphic" in2="effect1_dropShadow" result="shape"/>
</filter>
</defs>
</svg>
