<svg width="624" height="510" viewBox="0 0 624 510" fill="none" xmlns="http://www.w3.org/2000/svg">
<rect x="225.154" y="141.664" width="173.691" height="226.646" rx="10" fill="#393939"/>
<rect x="115.009" y="154.373" width="74.1365" height="90.0229" rx="5" fill="#F5F5F4"/>
<rect width="74.1365" height="90.0229" rx="5" transform="matrix(-1 0 0 1 508.991 154.373)" fill="#F5F5F4"/>
<rect x="21.8086" y="215.8" width="74.1365" height="90.0229" rx="5" fill="#F5F5F4"/>
<rect width="74.1365" height="90.0229" rx="5" transform="matrix(-1 0 0 1 602.192 215.8)" fill="#F5F5F4"/>
<rect x="116.068" y="264.519" width="74.1365" height="91.082" rx="5" fill="#F5F5F4"/>
<rect width="74.1365" height="91.082" rx="5" transform="matrix(-1 0 0 1 507.932 264.519)" fill="#F5F5F4"/>
<rect x="265.4" y="387.97" width="37.9508" height="46.4802" rx="5" fill="#EEEEEE"/>
<rect x="318.531" y="387.97" width="37.9508" height="46.4802" rx="5" fill="#F5F5F4"/>
<rect x="267.518" y="76" width="34.7113" height="42.7375" rx="5" fill="#F5F5F4"/>
<rect x="318.593" y="76" width="34.7113" height="42.7375" rx="5" fill="#F5F5F4"/>
<rect x="270.695" y="80.2363" width="8.47274" height="1.05909" rx="0.529546" fill="white"/>
<rect x="122.422" y="220.037" width="20.1228" height="3.17728" rx="1.58864" fill="white"/>
<rect width="20.1228" height="3.17728" rx="1.58864" transform="matrix(-1 0 0 1 501.578 220.037)" fill="white"/>
<rect x="29.2223" y="281.464" width="20.1228" height="3.17728" rx="1.58864" fill="white"/>
<rect x="136.191" y="281.464" width="33.891" height="2.11819" rx="1.05909" fill="white"/>
<rect width="33.891" height="2.11819" rx="1.05909" transform="matrix(-1 0 0 1 487.809 281.464)" fill="white"/>
<rect x="270.695" y="422.323" width="18.0046" height="1.05909" rx="0.529546" fill="white"/>
<rect x="323.65" y="395.846" width="10.5909" height="1.05909" rx="0.529546" fill="white"/>
<rect x="323.65" y="80.2363" width="9.53184" height="1.05909" rx="0.529546" fill="white"/>
<rect x="270.695" y="82.3545" width="4.23637" height="1.05909" rx="0.529546" fill="white"/>
<rect x="122.422" y="226.391" width="11.65" height="2.11819" rx="1.05909" fill="white"/>
<rect width="11.65" height="2.11819" rx="1.05909" transform="matrix(-1 0 0 1 501.578 226.391)" fill="white"/>
<rect x="29.2223" y="287.819" width="11.65" height="2.11819" rx="1.05909" fill="white"/>
<rect x="136.191" y="287.819" width="19.0637" height="2.11819" rx="1.05909" fill="white"/>
<rect width="19.0637" height="2.11819" rx="1.05909" transform="matrix(-1 0 0 1 487.809 287.819)" fill="white"/>
<rect x="270.695" y="424.442" width="10.5909" height="1.05909" rx="0.529546" fill="white"/>
<rect x="323.65" y="397.964" width="6.35456" height="1.05909" rx="0.529546" fill="white"/>
<rect x="323.65" y="82.3545" width="5.29546" height="1.05909" rx="0.529546" fill="white"/>
<rect x="270.695" y="84.4727" width="12.7091" height="1.05909" rx="0.529546" fill="white"/>
<rect x="136.191" y="292.055" width="47.6592" height="4.23637" rx="2.11819" fill="white"/>
<rect width="47.6592" height="4.23637" rx="2.11819" transform="matrix(-1 0 0 1 487.809 292.055)" fill="white"/>
<rect x="270.695" y="427.619" width="24.3591" height="3.17728" rx="1.58864" fill="white"/>
<rect x="323.65" y="401.142" width="14.8273" height="1.05909" rx="0.529546" fill="white"/>
<rect x="323.65" y="84.4727" width="12.7091" height="1.05909" rx="0.529546" fill="white"/>
<rect x="122.422" y="161.787" width="59.3092" height="6.35456" rx="2.5" fill="white"/>
<rect width="59.3092" height="6.35456" rx="2.5" transform="matrix(-1 0 0 1 501.578 161.787)" fill="white"/>
<rect x="29.2223" y="222.155" width="59.3092" height="7.41365" rx="2.5" fill="white"/>
<rect width="59.3092" height="7.41365" rx="2.5" transform="matrix(-1 0 0 1 594.778 222.155)" fill="white"/>
<rect x="269.636" y="392.669" width="29.6546" height="5.29546" rx="2.5" fill="white"/>
<rect x="269.636" y="399.023" width="29.6546" height="3.17728" rx="1.58864" fill="white"/>
<rect x="123.482" y="279.346" width="5.29546" height="67.7819" rx="2.5" fill="white"/>
<rect width="5.29546" height="67.7819" rx="2.5" transform="matrix(-1 0 0 1 500.519 279.346)" fill="white"/>
<rect x="82.1769" y="235.923" width="5.29546" height="56.1319" rx="2.5" fill="white"/>
<rect x="270.695" y="91.8865" width="12.7091" height="8.47274" rx="2" fill="white"/>
<rect x="323.65" y="91.8865" width="25.4182" height="20.1228" rx="2" fill="white"/>
<rect x="323.65" y="407.496" width="27.5364" height="20.1228" rx="2" fill="white"/>
<rect x="270.695" y="103.536" width="12.7091" height="8.47274" rx="2" fill="white"/>
<rect x="285.523" y="91.8865" width="12.7091" height="8.47274" rx="2" fill="white"/>
<rect x="285.523" y="103.536" width="12.7091" height="8.47274" rx="2" fill="white"/>
<line x1="225.154" y1="207.828" x2="190.204" y2="207.828" stroke="#EEEEEE"/>
<line y1="-0.5" x2="34.9501" y2="-0.5" transform="matrix(1 -9.91397e-08 -7.70906e-08 -1 398.846 207.328)" stroke="#EEEEEE"/>
<line x1="115.009" y1="230.068" x2="95.9451" y2="230.068" stroke="#EEEEEE"/>
<line y1="-0.5" x2="19.0637" y2="-0.5" transform="matrix(1 -9.7968e-08 -7.80126e-08 -1 508.991 229.568)" stroke="#EEEEEE"/>
<line x1="115.009" y1="278.787" x2="95.9451" y2="278.787" stroke="#EEEEEE"/>
<line y1="-0.5" x2="19.0637" y2="-0.5" transform="matrix(1 -9.91397e-08 -7.70906e-08 -1 508.991 278.287)" stroke="#EEEEEE"/>
<line x1="283.964" y1="138.487" x2="283.964" y2="116.246" stroke="#EEEEEE"/>
<line x1="283.964" y1="388.432" x2="283.964" y2="368.31" stroke="#EEEEEE"/>
<line x1="336.918" y1="138.487" x2="336.918" y2="119.423" stroke="#EEEEEE"/>
<line x1="337.977" y1="388.432" x2="337.977" y2="368.31" stroke="#EEEEEE"/>
<line x1="224.095" y1="304.205" x2="189.145" y2="304.205" stroke="#EEEEEE"/>
<line y1="-0.5" x2="34.9501" y2="-0.5" transform="matrix(1 -9.90701e-08 -7.70365e-08 -1 399.905 303.705)" stroke="#EEEEEE"/>
<rect x="254.809" y="374.664" width="1.05909" height="3.17728" fill="#CECECE"/>
<rect x="218.8" y="207.328" width="1.05909" height="4.23637" transform="rotate(90 218.8 207.328)" fill="#CECECE"/>
<rect x="111.831" y="229.568" width="1.05909" height="2.11819" transform="rotate(90 111.831 229.568)" fill="#CECECE"/>
<rect width="1.05909" height="2.11819" transform="matrix(3.90063e-08 1 1 -4.8984e-08 512.169 229.568)" fill="#CECECE"/>
<rect x="111.831" y="278.287" width="1.05909" height="2.11819" transform="rotate(90 111.831 278.287)" fill="#CECECE"/>
<rect width="1.05909" height="2.11819" transform="matrix(3.85453e-08 1 1 -4.95698e-08 512.169 278.287)" fill="#CECECE"/>
<rect x="225.154" y="303.705" width="2.11819" height="10.5909" transform="rotate(90 225.154 303.705)" fill="#CECECE"/>
<rect x="337.418" y="371.487" width="1.05909" height="5.29546" fill="#CECECE"/>
<rect x="337.418" y="383.137" width="1.05909" height="4.23637" fill="#CECECE"/>
<rect x="337.418" y="374.664" width="1.05909" height="2.11819" fill="#CECECE"/>
<rect x="337.418" y="376.782" width="1.05909" height="1.05909" fill="#CECECE"/>
<rect x="247.395" y="211.564" width="36.0092" height="8.47274" rx="4.23637" fill="white"/>
<rect x="290.818" y="211.564" width="15.8864" height="8.47274" rx="4.23637" fill="white"/>
<rect x="313.059" y="211.564" width="62.4865" height="8.47274" rx="4.23637" fill="white"/>
<rect x="247.395" y="195.677" width="62.4865" height="8.47274" rx="4.23637" fill="white"/>
<rect x="247.395" y="162.846" width="131.328" height="8.47274" rx="4.23637" fill="white"/>
<rect x="247.395" y="180.85" width="16.9455" height="8.47274" rx="4.23637" fill="white"/>
<rect x="268.577" y="180.85" width="16.9455" height="8.47274" rx="4.23637" fill="white"/>
<rect x="290.818" y="180.85" width="16.9455" height="8.47274" rx="4.23637" fill="white"/>
<rect x="313.059" y="180.85" width="16.9455" height="8.47274" rx="4.23637" fill="white"/>
<rect x="335.3" y="180.85" width="16.9455" height="8.47274" rx="4.23637" fill="white"/>
<rect x="357.541" y="180.85" width="16.9455" height="8.47274" rx="4.23637" fill="white"/>
<rect x="313.059" y="195.677" width="62.4865" height="8.47274" rx="4.23637" fill="white"/>
<rect x="250" y="235" width="58" height="33" rx="3" fill="white"/>
<rect x="250" y="312" width="58" height="34" rx="3" fill="white"/>
<rect x="250" y="273" width="58" height="34" rx="3" fill="white"/>
<rect x="317" y="235" width="59" height="33" rx="3" fill="white"/>
<rect x="317" y="312" width="59" height="34" rx="3" fill="white"/>
<rect x="317" y="273" width="59" height="34" rx="3" fill="white"/>
<rect x="442" y="172" width="29" height="6" rx="2.5" fill="white"/>
<rect x="440" y="344" width="35" height="2" rx="1" fill="white"/>
<rect x="535" y="235" width="35" height="2" rx="1" fill="white"/>
<rect x="535" y="273" width="35" height="2" rx="1" fill="white"/>
<rect x="535" y="239" width="20" height="2" rx="1" fill="white"/>
<rect x="535" y="278" width="20" height="2" rx="1" fill="white"/>
<rect x="535" y="244" width="48" height="3" rx="1.5" fill="white"/>
<rect x="535" y="283" width="48" height="2" rx="1" fill="white"/>
<rect x="535" y="290" width="51" height="6" rx="2.5" fill="white"/>
</svg>
