<svg width="896" height="242" fill="none" xmlns="http://www.w3.org/2000/svg"><path d="M181.615 116.726c0 49.046 39.76 88.806 88.807 88.806 49.046 0 88.807-39.76 88.807-88.806" stroke="url(#prefix__paint0_linear)" stroke-width="7"/><path d="M181.614 116.726c0-49.047-39.76-88.807-88.807-88.807C43.76 27.919 4 67.679 4 116.726" stroke="url(#prefix__paint1_linear)" stroke-width="7"/><path d="M181.614 115.829c0 49.542-39.76 89.703-88.807 89.703C43.76 205.532 4 165.371 4 115.829" stroke="url(#prefix__paint2_linear)" stroke-width="7"/><path d="M536.842 116.726c0-49.047-39.76-88.807-88.807-88.807-49.046 0-88.806 39.76-88.806 88.807" stroke="url(#prefix__paint3_linear)" stroke-width="7"/><path d="M714.457 116.726c0-49.047 39.76-88.807 88.806-88.807 49.047 0 88.807 39.76 88.807 88.807" stroke="url(#prefix__paint4_linear)" stroke-width="7"/><path d="M536.843 116.726c0 49.046 39.76 88.806 88.807 88.806 49.047 0 88.807-39.76 88.807-88.806" stroke="url(#prefix__paint5_linear)" stroke-width="7"/><path d="M714.457 115.829c0 49.542 39.76 89.703 88.806 89.703 49.047 0 88.807-40.161 88.807-89.703" stroke="url(#prefix__paint6_linear)" stroke-width="7"/><path d="M536.842 115.829c0 49.542-39.76 89.703-88.807 89.703-49.046 0-88.806-40.161-88.806-89.703" stroke="url(#prefix__paint7_linear)" stroke-width="7"/><path d="M714.457 116.726c0-49.047-39.76-88.807-88.806-88.807-49.047 0-88.807 39.76-88.807 88.807" stroke="url(#prefix__paint8_linear)" stroke-width="7"/><g filter="url(#prefix__filter0_d)"><circle cx="92.807" cy="205.532" r="13.918" fill="url(#prefix__paint9_linear)"/></g><g filter="url(#prefix__filter1_d)"><circle cx="448.034" cy="205.532" r="13.918" fill="url(#prefix__paint10_linear)"/></g><g filter="url(#prefix__filter2_d)"><circle cx="625.649" cy="27.918" r="13.918" fill="url(#prefix__paint11_linear)"/></g><g filter="url(#prefix__filter3_d)"><circle cx="803.264" cy="205.532" r="13.918" fill="url(#prefix__paint12_linear)"/></g><path d="M181.615 116.726c0-49.047 39.76-88.807 88.807-88.807 49.046 0 88.807 39.76 88.807 88.807" stroke="url(#prefix__paint13_linear)" stroke-width="7"/><g filter="url(#prefix__filter4_d)"><circle cx="270.42" cy="27.918" r="13.918" fill="url(#prefix__paint14_linear)"/></g><path d="M68.602 119.114c0-.952.215-1.806.644-2.562a4.68 4.68 0 011.75-1.792 4.886 4.886 0 012.478-.644c1.064 0 1.993.257 2.786.77.793.513 1.372 1.241 1.736 2.184H76.47c-.27-.588-.663-1.041-1.176-1.358-.504-.317-1.11-.476-1.82-.476-.681 0-1.293.159-1.834.476-.541.317-.966.77-1.274 1.358-.308.579-.462 1.26-.462 2.044 0 .775.154 1.456.462 2.044a3.335 3.335 0 001.274 1.344 3.562 3.562 0 001.834.476c.71 0 1.316-.154 1.82-.462.513-.317.905-.77 1.176-1.358h1.526c-.364.933-.943 1.657-1.736 2.17-.793.504-1.722.756-2.786.756-.905 0-1.731-.21-2.478-.63a4.706 4.706 0 01-1.75-1.778c-.43-.756-.644-1.61-.644-2.562zm13.796 5.012a3.963 3.963 0 01-1.96-.49 3.566 3.566 0 01-1.371-1.386c-.327-.607-.49-1.307-.49-2.1 0-.784.168-1.475.504-2.072a3.503 3.503 0 011.4-1.386c.588-.327 1.246-.49 1.974-.49s1.386.163 1.974.49a3.44 3.44 0 011.385 1.372c.346.597.519 1.293.519 2.086 0 .793-.178 1.493-.532 2.1a3.61 3.61 0 01-1.415 1.386c-.597.327-1.26.49-1.987.49zm0-1.12c.458 0 .887-.107 1.288-.322a2.41 2.41 0 00.966-.966c.252-.429.379-.952.379-1.568 0-.616-.122-1.139-.365-1.568-.242-.429-.56-.747-.951-.952a2.606 2.606 0 00-1.275-.322c-.466 0-.895.107-1.287.322-.383.205-.691.523-.925.952-.233.429-.35.952-.35 1.568 0 .625.112 1.153.337 1.582.233.429.54.751.923.966.383.205.803.308 1.26.308zm6.044-9.366V124h-1.274v-10.36h1.273zm2.605 0V124h-1.274v-10.36h1.274zm8.331 6.23c0 .243-.014.499-.042.77h-6.132c.047.756.303 1.349.77 1.778.476.42 1.05.63 1.722.63.55 0 1.008-.126 1.372-.378.374-.261.635-.607.784-1.036h1.372a3.335 3.335 0 01-1.232 1.806c-.616.457-1.381.686-2.296.686-.728 0-1.381-.163-1.96-.49a3.497 3.497 0 01-1.344-1.386c-.326-.607-.49-1.307-.49-2.1 0-.793.159-1.489.476-2.086a3.308 3.308 0 011.33-1.372c.579-.327 1.242-.49 1.988-.49.728 0 1.372.159 1.932.476.56.317.99.756 1.288 1.316.308.551.462 1.176.462 1.876zm-1.316-.266c0-.485-.107-.901-.322-1.246a2.023 2.023 0 00-.882-.798 2.626 2.626 0 00-1.218-.28c-.644 0-1.195.205-1.652.616-.448.411-.704.98-.77 1.708h4.844zm1.682.546c0-.793.159-1.484.476-2.072a3.43 3.43 0 011.316-1.386c.569-.327 1.218-.49 1.946-.49.942 0 1.717.229 2.324.686.616.457 1.022 1.092 1.218 1.904h-1.372a1.963 1.963 0 00-.77-1.106c-.374-.271-.84-.406-1.4-.406-.728 0-1.316.252-1.764.756-.448.495-.672 1.199-.672 2.114 0 .924.224 1.638.672 2.142.448.504 1.036.756 1.764.756.56 0 1.026-.131 1.4-.392.373-.261.63-.635.77-1.12h1.372c-.206.784-.616 1.414-1.232 1.89-.616.467-1.386.7-2.31.7-.728 0-1.377-.163-1.946-.49a3.43 3.43 0 01-1.316-1.386c-.317-.597-.476-1.297-.476-2.1zm9.694-2.772v4.522c0 .373.079.639.238.798.158.149.434.224.826.224h.938V124h-1.148c-.71 0-1.242-.163-1.596-.49-.355-.327-.532-.863-.532-1.61v-4.522h-.994v-1.05h.994v-1.932h1.274v1.932h2.002v1.05h-2.002zM251.846 121.83h-4.256l-.784 2.17h-1.344l3.528-9.702h1.47l3.514 9.702h-1.344l-.784-2.17zm-.364-1.036l-1.764-4.928-1.764 4.928h3.528zm6.928-4.606c.933 0 1.689.285 2.268.854.578.56.868 1.372.868 2.436V124h-1.26v-4.34c0-.765-.192-1.349-.574-1.75-.383-.411-.906-.616-1.568-.616-.672 0-1.209.21-1.61.63-.392.42-.588 1.031-.588 1.834V124h-1.274v-7.672h1.274v1.092a2.538 2.538 0 011.022-.91 3.228 3.228 0 011.442-.322zm3.901 3.948c0-.784.158-1.47.476-2.058a3.458 3.458 0 011.302-1.386c.56-.327 1.18-.49 1.862-.49.672 0 1.255.145 1.75.434.494.289.863.653 1.106 1.092v-1.4h1.288V124h-1.288v-1.428c-.252.448-.63.821-1.134 1.12-.495.289-1.074.434-1.736.434a3.474 3.474 0 01-1.848-.504 3.528 3.528 0 01-1.302-1.414c-.318-.607-.476-1.297-.476-2.072zm6.496.014c0-.579-.117-1.083-.35-1.512a2.418 2.418 0 00-.952-.98 2.5 2.5 0 00-1.302-.35c-.476 0-.91.112-1.302.336a2.438 2.438 0 00-.938.98c-.234.429-.35.933-.35 1.512 0 .588.116 1.101.35 1.54.233.429.546.761.938.994.392.224.826.336 1.302.336.476 0 .91-.112 1.302-.336.401-.233.718-.565.952-.994.233-.439.35-.947.35-1.526zm3.875-6.51V124h-1.274v-10.36h1.274zm7.939 2.688l-4.62 11.284h-1.316l1.512-3.696-3.094-7.588h1.414l2.408 6.216 2.38-6.216h1.316zm3.157 7.798c-.588 0-1.116-.098-1.582-.294-.467-.205-.836-.485-1.106-.84a2.267 2.267 0 01-.448-1.246h1.316c.037.383.214.695.532.938.326.243.751.364 1.274.364.485 0 .868-.107 1.148-.322.28-.215.42-.485.42-.812a.788.788 0 00-.448-.742c-.299-.168-.761-.331-1.386-.49a11.369 11.369 0 01-1.4-.448 2.652 2.652 0 01-.924-.686c-.252-.308-.378-.709-.378-1.204 0-.392.116-.751.35-1.078.233-.327.564-.583.994-.77.429-.196.919-.294 1.47-.294.849 0 1.535.215 2.058.644.522.429.802 1.017.84 1.764h-1.274a1.31 1.31 0 00-.49-.966c-.29-.243-.682-.364-1.176-.364-.458 0-.822.098-1.092.294-.271.196-.406.453-.406.77a.88.88 0 00.238.63c.168.159.373.289.616.392.252.093.597.201 1.036.322.55.149.998.299 1.344.448.345.14.639.355.882.644.252.289.382.667.392 1.134 0 .42-.117.798-.35 1.134-.234.336-.565.602-.994.798-.42.187-.906.28-1.456.28zm10.758-4.256c0 .243-.014.499-.042.77h-6.132c.047.756.303 1.349.77 1.778.476.42 1.05.63 1.722.63.551 0 1.008-.126 1.372-.378.373-.261.635-.607.784-1.036h1.372a3.332 3.332 0 01-1.232 1.806c-.616.457-1.381.686-2.296.686-.728 0-1.381-.163-1.96-.49a3.503 3.503 0 01-1.344-1.386c-.327-.607-.49-1.307-.49-2.1 0-.793.159-1.489.476-2.086a3.309 3.309 0 011.33-1.372c.579-.327 1.241-.49 1.988-.49.728 0 1.372.159 1.932.476.56.317.989.756 1.288 1.316.308.551.462 1.176.462 1.876zm-1.316-.266c0-.485-.107-.901-.322-1.246a2.026 2.026 0 00-.882-.798 2.626 2.626 0 00-1.218-.28c-.644 0-1.195.205-1.652.616-.448.411-.705.98-.77 1.708h4.844zM432.602 117.098c0 .812-.28 1.489-.84 2.03-.551.532-1.395.798-2.534.798h-1.876V124h-1.274v-9.758h3.15c1.101 0 1.937.266 2.506.798.579.532.868 1.218.868 2.058zm-3.374 1.778c.709 0 1.232-.154 1.568-.462.336-.308.504-.747.504-1.316 0-1.204-.691-1.806-2.072-1.806h-1.876v3.584h1.876zm10.921-2.548V124h-1.274v-1.134c-.242.392-.583.7-1.022.924a3.142 3.142 0 01-1.428.322 3.49 3.49 0 01-1.61-.364 2.784 2.784 0 01-1.134-1.12c-.27-.495-.406-1.097-.406-1.806v-4.494h1.26v4.326c0 .756.192 1.339.574 1.75.383.401.906.602 1.568.602.682 0 1.218-.21 1.61-.63.392-.42.588-1.031.588-1.834v-4.214h1.274zm2.585 1.428a3.017 3.017 0 011.148-1.12c.504-.289 1.079-.434 1.723-.434.69 0 1.311.163 1.862.49.55.327.984.789 1.302 1.386.317.588.475 1.274.475 2.058 0 .775-.158 1.465-.475 2.072a3.507 3.507 0 01-3.164 1.918c-.663 0-1.247-.145-1.751-.434-.494-.289-.868-.658-1.12-1.106V124h-1.274v-10.36h1.274v4.116zm5.208 2.38c0-.579-.116-1.083-.349-1.512a2.418 2.418 0 00-.952-.98 2.581 2.581 0 00-1.303-.336c-.466 0-.9.117-1.302.35a2.51 2.51 0 00-.952.994c-.233.429-.35.929-.35 1.498 0 .579.117 1.087.35 1.526.243.429.56.761.952.994.402.224.836.336 1.302.336.476 0 .911-.112 1.303-.336.401-.233.718-.565.952-.994.233-.439.349-.952.349-1.54zm3.413-6.496V124h-1.274v-10.36h1.274zm1.99 1.442a.837.837 0 01-.616-.252.837.837 0 01-.252-.616c0-.243.084-.448.252-.616a.837.837 0 01.616-.252c.233 0 .429.084.588.252a.837.837 0 01.252.616.837.837 0 01-.252.616.778.778 0 01-.588.252zm.616 1.246V124h-1.274v-7.672h1.274zm4.047 7.798a4.052 4.052 0 01-1.582-.294c-.467-.205-.835-.485-1.106-.84a2.267 2.267 0 01-.448-1.246h1.316c.037.383.215.695.532.938.327.243.751.364 1.274.364.485 0 .868-.107 1.148-.322.28-.215.42-.485.42-.812a.786.786 0 00-.448-.742c-.299-.168-.761-.331-1.386-.49a11.425 11.425 0 01-1.4-.448 2.652 2.652 0 01-.924-.686c-.252-.308-.378-.709-.378-1.204 0-.392.117-.751.35-1.078.233-.327.565-.583.994-.77.429-.196.919-.294 1.47-.294.849 0 1.535.215 2.058.644.523.429.803 1.017.84 1.764h-1.274a1.307 1.307 0 00-.49-.966c-.289-.243-.681-.364-1.176-.364-.457 0-.821.098-1.092.294-.271.196-.406.453-.406.77a.88.88 0 00.238.63c.168.159.373.289.616.392.252.093.597.201 1.036.322.551.149.999.299 1.344.448.345.14.639.355.882.644.252.289.383.667.392 1.134 0 .42-.117.798-.35 1.134-.233.336-.565.602-.994.798-.42.187-.905.28-1.456.28zm7.567-7.938a3.25 3.25 0 011.568.378c.466.243.83.611 1.092 1.106.27.495.406 1.097.406 1.806V124h-1.26v-4.34c0-.765-.192-1.349-.574-1.75-.383-.411-.906-.616-1.568-.616-.672 0-1.209.21-1.61.63-.392.42-.588 1.031-.588 1.834V124h-1.274v-10.36h1.274v3.78a2.52 2.52 0 011.036-.91 3.416 3.416 0 011.498-.322zM599.352 114.242V124h-1.274v-9.758h1.274zm5.069 1.946c.934 0 1.69.285 2.268.854.579.56.868 1.372.868 2.436V124h-1.26v-4.34c0-.765-.191-1.349-.574-1.75-.382-.411-.905-.616-1.568-.616-.672 0-1.208.21-1.61.63-.392.42-.588 1.031-.588 1.834V124h-1.274v-7.672h1.274v1.092a2.545 2.545 0 011.022-.91c.439-.215.92-.322 1.442-.322zm5.931 1.19v4.522c0 .373.08.639.238.798.159.149.434.224.826.224h.938V124h-1.148c-.709 0-1.241-.163-1.596-.49-.354-.327-.532-.863-.532-1.61v-4.522h-.994v-1.05h.994v-1.932h1.274v1.932h2.002v1.05h-2.002zm9.706 2.492c0 .243-.014.499-.042.77h-6.132c.047.756.303 1.349.77 1.778.476.42 1.05.63 1.722.63.551 0 1.008-.126 1.372-.378.373-.261.635-.607.784-1.036h1.372a3.332 3.332 0 01-1.232 1.806c-.616.457-1.381.686-2.296.686-.728 0-1.381-.163-1.96-.49a3.503 3.503 0 01-1.344-1.386c-.327-.607-.49-1.307-.49-2.1 0-.793.159-1.489.476-2.086a3.309 3.309 0 011.33-1.372c.579-.327 1.241-.49 1.988-.49.728 0 1.372.159 1.932.476.56.317.989.756 1.288 1.316.308.551.462 1.176.462 1.876zm-1.316-.266c0-.485-.107-.901-.322-1.246a2.026 2.026 0 00-.882-.798 2.626 2.626 0 00-1.218-.28c-.644 0-1.195.205-1.652.616-.448.411-.705.98-.77 1.708h4.844zm5.322-3.402c.662 0 1.241.145 1.736.434.504.289.877.653 1.12 1.092v-1.4h1.288v7.84c0 .7-.15 1.321-.448 1.862a3.17 3.17 0 01-1.288 1.288c-.551.308-1.195.462-1.932.462-1.008 0-1.848-.238-2.52-.714a2.79 2.79 0 01-1.19-1.946h1.26c.14.467.429.84.868 1.12.438.289.966.434 1.582.434.7 0 1.269-.219 1.708-.658.448-.439.672-1.055.672-1.848v-1.61c-.252.448-.626.821-1.12 1.12-.495.299-1.074.448-1.736.448a3.548 3.548 0 01-1.862-.504 3.528 3.528 0 01-1.302-1.414c-.318-.607-.476-1.297-.476-2.072 0-.784.158-1.47.476-2.058a3.458 3.458 0 011.302-1.386c.56-.327 1.18-.49 1.862-.49zm2.856 3.948c0-.579-.117-1.083-.35-1.512a2.418 2.418 0 00-.952-.98 2.5 2.5 0 00-1.302-.35c-.476 0-.91.112-1.302.336a2.438 2.438 0 00-.938.98c-.234.429-.35.933-.35 1.512 0 .588.116 1.101.35 1.54.233.429.546.761.938.994.392.224.826.336 1.302.336.476 0 .91-.112 1.302-.336.401-.233.718-.565.952-.994.233-.439.35-.947.35-1.526zm3.875-2.576c.224-.439.541-.779.952-1.022.42-.243.928-.364 1.526-.364v1.316h-.336c-1.428 0-2.142.775-2.142 2.324V124h-1.274v-7.672h1.274v1.246zm2.632 2.562c0-.784.159-1.47.476-2.058a3.471 3.471 0 011.302-1.386 3.625 3.625 0 011.862-.49c.672 0 1.256.145 1.75.434.495.289.864.653 1.106 1.092v-1.4h1.288V124h-1.288v-1.428c-.252.448-.63.821-1.134 1.12-.494.289-1.073.434-1.736.434a3.48 3.48 0 01-1.848-.504 3.542 3.542 0 01-1.302-1.414c-.317-.607-.476-1.297-.476-2.072zm6.496.014c0-.579-.116-1.083-.35-1.512a2.405 2.405 0 00-.952-.98 2.5 2.5 0 00-1.302-.35c-.476 0-.91.112-1.302.336a2.444 2.444 0 00-.938.98c-.233.429-.35.933-.35 1.512 0 .588.117 1.101.35 1.54.234.429.546.761.938.994.392.224.826.336 1.302.336.476 0 .91-.112 1.302-.336.402-.233.719-.565.952-.994.234-.439.35-.947.35-1.526zm4.155-2.772v4.522c0 .373.08.639.238.798.159.149.434.224.826.224h.938V124h-1.148c-.709 0-1.241-.163-1.596-.49-.354-.327-.532-.863-.532-1.61v-4.522h-.994v-1.05h.994v-1.932h1.274v1.932h2.002v1.05h-2.002zm9.706 2.492c0 .243-.014.499-.042.77h-6.132c.046.756.303 1.349.77 1.778.476.42 1.05.63 1.722.63.55 0 1.008-.126 1.372-.378.373-.261.634-.607.784-1.036h1.372a3.338 3.338 0 01-1.232 1.806c-.616.457-1.382.686-2.296.686-.728 0-1.382-.163-1.96-.49a3.49 3.49 0 01-1.344-1.386c-.327-.607-.49-1.307-.49-2.1 0-.793.158-1.489.476-2.086a3.303 3.303 0 011.33-1.372c.578-.327 1.241-.49 1.988-.49.728 0 1.372.159 1.932.476.56.317.989.756 1.288 1.316.308.551.462 1.176.462 1.876zm-1.316-.266c0-.485-.108-.901-.322-1.246a2.026 2.026 0 00-.882-.798 2.626 2.626 0 00-1.218-.28c-.644 0-1.195.205-1.652.616-.448.411-.705.98-.77 1.708h4.844zM790.216 124l-2.324-3.99h-1.54V124h-1.274v-9.758h3.15c.737 0 1.358.126 1.862.378.513.252.896.593 1.148 1.022.252.429.378.919.378 1.47 0 .672-.196 1.265-.588 1.778-.383.513-.961.854-1.736 1.022l2.45 4.088h-1.526zm-3.864-5.012h1.876c.691 0 1.209-.168 1.554-.504.345-.345.518-.803.518-1.372 0-.579-.173-1.027-.518-1.344-.336-.317-.854-.476-1.554-.476h-1.876v3.696zm13.404.882c0 .243-.014.499-.042.77h-6.132c.046.756.303 1.349.77 1.778.476.42 1.05.63 1.722.63.55 0 1.008-.126 1.372-.378.373-.261.634-.607.784-1.036h1.372a3.338 3.338 0 01-1.232 1.806c-.616.457-1.382.686-2.296.686-.728 0-1.382-.163-1.96-.49a3.49 3.49 0 01-1.344-1.386c-.327-.607-.49-1.307-.49-2.1 0-.793.158-1.489.476-2.086a3.303 3.303 0 011.33-1.372c.578-.327 1.241-.49 1.988-.49.728 0 1.372.159 1.932.476.56.317.989.756 1.288 1.316.308.551.462 1.176.462 1.876zm-1.316-.266c0-.485-.108-.901-.322-1.246a2.026 2.026 0 00-.882-.798 2.626 2.626 0 00-1.218-.28c-.644 0-1.195.205-1.652.616-.448.411-.705.98-.77 1.708h4.844zm8.961-3.276V124h-1.274v-1.134c-.242.392-.583.7-1.022.924a3.142 3.142 0 01-1.428.322 3.49 3.49 0 01-1.61-.364 2.784 2.784 0 01-1.134-1.12c-.27-.495-.406-1.097-.406-1.806v-4.494h1.26v4.326c0 .756.192 1.339.574 1.75.383.401.906.602 1.568.602.682 0 1.218-.21 1.61-.63.392-.42.588-1.031.588-1.834v-4.214h1.274zm4.027 7.798a4.052 4.052 0 01-1.582-.294c-.466-.205-.835-.485-1.106-.84a2.275 2.275 0 01-.448-1.246h1.316c.038.383.215.695.532.938.327.243.752.364 1.274.364.486 0 .868-.107 1.148-.322.28-.215.42-.485.42-.812a.786.786 0 00-.448-.742c-.298-.168-.76-.331-1.386-.49a11.425 11.425 0 01-1.4-.448 2.67 2.67 0 01-.924-.686c-.252-.308-.378-.709-.378-1.204 0-.392.117-.751.35-1.078.234-.327.565-.583.994-.77.43-.196.92-.294 1.47-.294.85 0 1.536.215 2.058.644.523.429.803 1.017.84 1.764h-1.274a1.307 1.307 0 00-.49-.966c-.289-.243-.681-.364-1.176-.364-.457 0-.821.098-1.092.294-.27.196-.406.453-.406.77 0 .252.08.462.238.63.168.159.374.289.616.392.252.093.598.201 1.036.322.551.149.999.299 1.344.448.346.14.64.355.882.644.252.289.383.667.392 1.134 0 .42-.116.798-.35 1.134-.233.336-.564.602-.994.798-.42.187-.905.28-1.456.28zm10.759-4.256c0 .243-.014.499-.042.77h-6.132c.046.756.303 1.349.77 1.778.476.42 1.05.63 1.722.63.55 0 1.008-.126 1.372-.378.373-.261.634-.607.784-1.036h1.372a3.338 3.338 0 01-1.232 1.806c-.616.457-1.382.686-2.296.686-.728 0-1.382-.163-1.96-.49a3.49 3.49 0 01-1.344-1.386c-.327-.607-.49-1.307-.49-2.1 0-.793.158-1.489.476-2.086a3.303 3.303 0 011.33-1.372c.578-.327 1.241-.49 1.988-.49.728 0 1.372.159 1.932.476.56.317.989.756 1.288 1.316.308.551.462 1.176.462 1.876zm-1.316-.266c0-.485-.108-.901-.322-1.246a2.026 2.026 0 00-.882-.798 2.626 2.626 0 00-1.218-.28c-.644 0-1.195.205-1.652.616-.448.411-.705.98-.77 1.708h4.844z" fill="#D4D4D8"/><defs><linearGradient id="prefix__paint0_linear" x1="359.229" y1="116.451" x2="181.229" y2="116.451" gradientUnits="userSpaceOnUse"><stop stop-color="#6E6B6B" stop-opacity="0"/><stop offset=".479" stop-color="#383838"/><stop offset="1" stop-color="#6E6B6B" stop-opacity="0"/></linearGradient><linearGradient id="prefix__paint1_linear" x1="4" y1="117" x2="182" y2="117" gradientUnits="userSpaceOnUse"><stop stop-color="#868686"/><stop offset="1" stop-color="#6E6B6B" stop-opacity="0"/></linearGradient><linearGradient id="prefix__paint2_linear" x1="182" y1="116" x2="2.53" y2="119.518" gradientUnits="userSpaceOnUse"><stop stop-color="#fff"/><stop offset=".5" stop-color="#E34747"/><stop offset="1" stop-color="#868686"/></linearGradient><linearGradient id="prefix__paint3_linear" x1="359.229" y1="117" x2="537.229" y2="117" gradientUnits="userSpaceOnUse"><stop stop-color="#6E6B6B" stop-opacity="0"/><stop offset=".479" stop-color="#383838"/><stop offset="1" stop-color="#6E6B6B" stop-opacity="0"/></linearGradient><linearGradient id="prefix__paint4_linear" x1="892.07" y1="117" x2="714.07" y2="117" gradientUnits="userSpaceOnUse"><stop stop-color="#868686"/><stop offset="1" stop-color="#6E6B6B" stop-opacity="0"/></linearGradient><linearGradient id="prefix__paint5_linear" x1="714.457" y1="116.451" x2="536.457" y2="116.451" gradientUnits="userSpaceOnUse"><stop stop-color="#6E6B6B" stop-opacity="0"/><stop offset=".479" stop-color="#383838"/><stop offset="1" stop-color="#6E6B6B" stop-opacity="0"/></linearGradient><linearGradient id="prefix__paint6_linear" x1="714.07" y1="116" x2="893.541" y2="119.518" gradientUnits="userSpaceOnUse"><stop stop-color="#fff"/><stop offset=".5" stop-color="#E34747"/><stop offset="1" stop-color="#868686"/></linearGradient><linearGradient id="prefix__paint7_linear" x1="537.229" y1="116" x2="357.758" y2="119.518" gradientUnits="userSpaceOnUse"><stop offset=".24" stop-color="#fff"/><stop offset=".5" stop-color="#E34747"/><stop offset=".771" stop-color="#fff"/></linearGradient><linearGradient id="prefix__paint8_linear" x1="714.844" y1="116.556" x2="535.375" y2="113.002" gradientUnits="userSpaceOnUse"><stop offset=".24" stop-color="#fff"/><stop offset=".5" stop-color="#E34747"/><stop offset=".771" stop-color="#fff"/></linearGradient><linearGradient id="prefix__paint9_linear" x1="92.807" y1="191.614" x2="100.254" y2="222.526" gradientUnits="userSpaceOnUse"><stop stop-color="#FB5353"/><stop offset="1" stop-color="#BD3131" stop-opacity=".97"/></linearGradient><linearGradient id="prefix__paint10_linear" x1="448.034" y1="191.614" x2="455.48" y2="222.526" gradientUnits="userSpaceOnUse"><stop stop-color="#FB5353"/><stop offset="1" stop-color="#BD3131" stop-opacity=".97"/></linearGradient><linearGradient id="prefix__paint11_linear" x1="625.649" y1="14" x2="633.095" y2="44.912" gradientUnits="userSpaceOnUse"><stop stop-color="#FB5353"/><stop offset="1" stop-color="#BD3131" stop-opacity=".97"/></linearGradient><linearGradient id="prefix__paint12_linear" x1="803.264" y1="191.614" x2="810.711" y2="222.526" gradientUnits="userSpaceOnUse"><stop stop-color="#FB5353"/><stop offset="1" stop-color="#BD3131" stop-opacity=".97"/></linearGradient><linearGradient id="prefix__paint13_linear" x1="181.229" y1="116.556" x2="360.697" y2="113.002" gradientUnits="userSpaceOnUse"><stop offset=".24" stop-color="#fff"/><stop offset=".5" stop-color="#E34747"/><stop offset=".771" stop-color="#fff"/></linearGradient><linearGradient id="prefix__paint14_linear" x1="270.42" y1="14" x2="277.867" y2="44.912" gradientUnits="userSpaceOnUse"><stop stop-color="#FB5353"/><stop offset="1" stop-color="#BD3131" stop-opacity=".97"/></linearGradient><filter id="prefix__filter0_d" x="60.889" y="177.614" width="63.837" height="63.837" filterUnits="userSpaceOnUse" color-interpolation-filters="sRGB"><feFlood flood-opacity="0" result="BackgroundImageFix"/><feColorMatrix in="SourceAlpha" values="0 0 0 0 0 0 0 0 0 0 0 0 0 0 0 0 0 0 127 0" result="hardAlpha"/><feOffset dy="4"/><feGaussianBlur stdDeviation="9"/><feColorMatrix values="0 0 0 0 0.921569 0 0 0 0 0.294118 0 0 0 0 0.294118 0 0 0 0.5 0"/><feBlend in2="BackgroundImageFix" result="effect1_dropShadow"/><feBlend in="SourceGraphic" in2="effect1_dropShadow" result="shape"/></filter><filter id="prefix__filter1_d" x="416.115" y="177.614" width="63.837" height="63.837" filterUnits="userSpaceOnUse" color-interpolation-filters="sRGB"><feFlood flood-opacity="0" result="BackgroundImageFix"/><feColorMatrix in="SourceAlpha" values="0 0 0 0 0 0 0 0 0 0 0 0 0 0 0 0 0 0 127 0" result="hardAlpha"/><feOffset dy="4"/><feGaussianBlur stdDeviation="9"/><feColorMatrix values="0 0 0 0 0.921569 0 0 0 0 0.294118 0 0 0 0 0.294118 0 0 0 0.5 0"/><feBlend in2="BackgroundImageFix" result="effect1_dropShadow"/><feBlend in="SourceGraphic" in2="effect1_dropShadow" result="shape"/></filter><filter id="prefix__filter2_d" x="593.73" y="0" width="63.837" height="63.837" filterUnits="userSpaceOnUse" color-interpolation-filters="sRGB"><feFlood flood-opacity="0" result="BackgroundImageFix"/><feColorMatrix in="SourceAlpha" values="0 0 0 0 0 0 0 0 0 0 0 0 0 0 0 0 0 0 127 0" result="hardAlpha"/><feOffset dy="4"/><feGaussianBlur stdDeviation="9"/><feColorMatrix values="0 0 0 0 0.921569 0 0 0 0 0.294118 0 0 0 0 0.294118 0 0 0 0.5 0"/><feBlend in2="BackgroundImageFix" result="effect1_dropShadow"/><feBlend in="SourceGraphic" in2="effect1_dropShadow" result="shape"/></filter><filter id="prefix__filter3_d" x="771.346" y="177.614" width="63.837" height="63.837" filterUnits="userSpaceOnUse" color-interpolation-filters="sRGB"><feFlood flood-opacity="0" result="BackgroundImageFix"/><feColorMatrix in="SourceAlpha" values="0 0 0 0 0 0 0 0 0 0 0 0 0 0 0 0 0 0 127 0" result="hardAlpha"/><feOffset dy="4"/><feGaussianBlur stdDeviation="9"/><feColorMatrix values="0 0 0 0 0.921569 0 0 0 0 0.294118 0 0 0 0 0.294118 0 0 0 0.5 0"/><feBlend in2="BackgroundImageFix" result="effect1_dropShadow"/><feBlend in="SourceGraphic" in2="effect1_dropShadow" result="shape"/></filter><filter id="prefix__filter4_d" x="238.502" y="0" width="63.837" height="63.837" filterUnits="userSpaceOnUse" color-interpolation-filters="sRGB"><feFlood flood-opacity="0" result="BackgroundImageFix"/><feColorMatrix in="SourceAlpha" values="0 0 0 0 0 0 0 0 0 0 0 0 0 0 0 0 0 0 127 0" result="hardAlpha"/><feOffset dy="4"/><feGaussianBlur stdDeviation="9"/><feColorMatrix values="0 0 0 0 0.921569 0 0 0 0 0.294118 0 0 0 0 0.294118 0 0 0 0.5 0"/><feBlend in2="BackgroundImageFix" result="effect1_dropShadow"/><feBlend in="SourceGraphic" in2="effect1_dropShadow" result="shape"/></filter></defs></svg>
