<svg width="830" height="510" viewBox="0 0 830 510" fill="none" xmlns="http://www.w3.org/2000/svg">
<rect width="830" height="510" fill="#F5F5F4"/>
<rect x="203.437" y="126.693" width="85.7757" height="114.518" rx="4.65" fill="white" stroke="#9A9A9A" stroke-width="0.7"/>
<rect x="621.562" y="126.693" width="85.7757" height="114.518" rx="4.65" fill="white" stroke="#9A9A9A" stroke-width="0.7"/>
<rect width="86.4757" height="115.218" rx="5" transform="matrix(-1 0 0 1 390.374 126.343)" fill="#393939"/>
<path d="M316.329 126.343H308.898C306.137 126.343 303.898 128.582 303.898 131.343V236.562C303.898 239.323 306.137 241.562 308.898 241.562H330.197C330.197 241.562 317.735 216.003 316.329 193.396C314.872 169.988 316.329 126.343 316.329 126.343Z" fill="#313131"/>
<rect x="97.8997" y="195.404" width="94.8104" height="108.568" rx="4.65" fill="white" stroke="#9A9A9A" stroke-width="0.7"/>
<rect x="403.68" y="260.874" width="94.8104" height="117.017" rx="4.65" fill="white" stroke="#9A9A9A" stroke-width="0.7"/>
<rect x="513.079" y="195.404" width="94.8104" height="108.568" rx="4.65" fill="white" stroke="#9A9A9A" stroke-width="0.7"/>
<rect x="201.082" y="260.874" width="85.7757" height="115.918" rx="4.65" fill="white" stroke="#9A9A9A" stroke-width="0.7"/>
<rect x="619.208" y="260.874" width="85.7757" height="115.918" rx="4.65" fill="white" stroke="#9A9A9A" stroke-width="0.7"/>
<rect x="-0.35" y="0.35" width="87.0109" height="115.918" rx="4.65" transform="matrix(-1 0 0 1 389.674 260.524)" fill="white" stroke="#9A9A9A" stroke-width="0.7"/>
<rect x="97.8997" y="126.132" width="39.096" height="55.7167" rx="4.65" fill="white" stroke="#9A9A9A" stroke-width="0.7"/>
<rect x="153.614" y="126.132" width="39.096" height="55.7167" rx="4.65" fill="white" stroke="#9A9A9A" stroke-width="0.7"/>
<rect x="403.76" y="127.418" width="39.096" height="55.7167" rx="4.65" fill="white" stroke="#9A9A9A" stroke-width="0.7"/>
<rect x="459.475" y="127.418" width="39.096" height="55.7167" rx="4.65" fill="white" stroke="#9A9A9A" stroke-width="0.7"/>
<rect x="97.8997" y="316.949" width="37.9458" height="59.8426" rx="4.65" fill="white" stroke="#9A9A9A" stroke-width="0.7"/>
<rect x="152.856" y="316.949" width="39.8537" height="59.8426" rx="4.65" fill="white" stroke="#9A9A9A" stroke-width="0.7"/>
<rect x="403.76" y="188.581" width="37.9458" height="52.6302" rx="4.65" fill="white" stroke="#9A9A9A" stroke-width="0.7"/>
<rect x="458.717" y="188.581" width="39.8537" height="52.6302" rx="4.65" fill="white" stroke="#9A9A9A" stroke-width="0.7"/>
<rect x="513.229" y="317.099" width="37.6458" height="59.5426" rx="4.5" fill="white" stroke="#9A9A9A"/>
<rect x="568.036" y="316.949" width="39.8537" height="59.8426" rx="4.65" fill="white" stroke="#9A9A9A" stroke-width="0.7"/>
<rect x="513.079" y="124.956" width="37.9458" height="59.8426" rx="4.65" fill="white" stroke="#9A9A9A" stroke-width="0.7"/>
<rect x="568.036" y="124.956" width="39.8537" height="59.8426" rx="4.65" fill="white" stroke="#9A9A9A" stroke-width="0.7"/>
<rect x="104.767" y="341.779" width="8.40897" height="1.08515" rx="0.542576" fill="#EEEEEE" stroke="#9A9A9A" stroke-width="0.3"/>
<rect x="410.628" y="210.43" width="8.40897" height="0.920141" rx="0.460071" fill="#EEEEEE" stroke="#9A9A9A" stroke-width="0.3"/>
<rect x="519.947" y="341.779" width="8.40897" height="1.08515" rx="0.542576" fill="#EEEEEE" stroke="#9A9A9A" stroke-width="0.3"/>
<rect x="519.947" y="149.787" width="8.40897" height="1.08515" rx="0.542576" fill="#EEEEEE" stroke="#9A9A9A" stroke-width="0.3"/>
<rect x="211.884" y="210.535" width="23.172" height="3.76653" rx="1.85" fill="#EEEEEE" stroke="#9A9A9A" stroke-width="0.3"/>
<rect x="630.01" y="210.535" width="23.172" height="3.76653" rx="1.85" fill="#EEEEEE" stroke="#9A9A9A" stroke-width="0.3"/>
<rect x="-0.15" y="0.15" width="63.0948" height="3.25715" rx="1.62858" transform="matrix(-1 0 0 1 378.232 211.292)" fill="white" stroke="#A5A5A5" stroke-width="0.3"/>
<rect x="-0.15" y="0.15" width="23.2051" height="3.25715" rx="1.62858" transform="matrix(-1 0 0 1 338.342 217.672)" fill="white" stroke="#A5A5A5" stroke-width="0.3"/>
<rect x="107.251" y="274.905" width="25.6242" height="3.55651" rx="1.77826" fill="#EEEEEE" stroke="#9A9A9A" stroke-width="0.3"/>
<rect x="413.031" y="346.538" width="25.6242" height="3.85473" rx="1.85" fill="#EEEEEE" stroke="#9A9A9A" stroke-width="0.3"/>
<rect x="522.431" y="274.905" width="25.6242" height="3.55651" rx="1.77826" fill="#EEEEEE" stroke="#9A9A9A" stroke-width="0.3"/>
<rect x="224.354" y="282.37" width="39.2318" height="2.41204" rx="1.20602" fill="#EEEEEE" stroke="#9A9A9A" stroke-width="0.3"/>
<rect x="642.479" y="282.37" width="39.2318" height="2.41204" rx="1.20602" fill="#EEEEEE" stroke="#9A9A9A" stroke-width="0.3"/>
<rect x="-0.15" y="0.15" width="39.7964" height="2.41204" rx="1.20602" transform="matrix(-1 0 0 1 366.267 282.22)" fill="#EEEEEE" stroke="#9A9A9A" stroke-width="0.3"/>
<rect x="106.578" y="152.06" width="17.1306" height="0.886822" rx="0.443411" fill="#EEEEEE" stroke="#9A9A9A" stroke-width="0.3"/>
<rect x="412.438" y="153.346" width="17.1306" height="0.886822" rx="0.443411" fill="#EEEEEE" stroke="#9A9A9A" stroke-width="0.3"/>
<rect x="158.782" y="135.492" width="10.8059" height="0.985504" rx="0.492752" fill="#EEEEEE" stroke="#9A9A9A" stroke-width="0.3"/>
<rect x="464.643" y="136.778" width="10.8059" height="0.985504" rx="0.492752" fill="#EEEEEE" stroke="#9A9A9A" stroke-width="0.3"/>
<rect x="157.519" y="323.164" width="9.98131" height="0.886822" rx="0.443411" fill="#EEEEEE" stroke="#9A9A9A" stroke-width="0.3"/>
<rect x="463.38" y="194.032" width="9.98131" height="0.745437" rx="0.372719" fill="#EEEEEE" stroke="#9A9A9A" stroke-width="0.3"/>
<rect x="572.699" y="323.164" width="9.98131" height="0.886822" rx="0.443411" fill="#EEEEEE" stroke="#9A9A9A" stroke-width="0.3"/>
<rect x="572.699" y="131.171" width="9.98131" height="0.886822" rx="0.443411" fill="#EEEEEE" stroke="#9A9A9A" stroke-width="0.3"/>
<rect x="104.767" y="344.55" width="4.05449" height="1.08515" rx="0.542576" fill="#EEEEEE" stroke="#9A9A9A" stroke-width="0.3"/>
<rect x="410.628" y="212.87" width="4.05449" height="0.920141" rx="0.460071" fill="#EEEEEE" stroke="#9A9A9A" stroke-width="0.3"/>
<rect x="511.503" y="344.55" width="4.05449" height="1.08515" rx="0.542576" fill="#EEEEEE" stroke="#9A9A9A" stroke-width="0.3"/>
<rect x="511.503" y="152.557" width="4.05449" height="1.08515" rx="0.542576" fill="#EEEEEE" stroke="#9A9A9A" stroke-width="0.3"/>
<rect x="211.884" y="218.668" width="13.289" height="2.41102" rx="1.20551" fill="#EEEEEE" stroke="#9A9A9A" stroke-width="0.3"/>
<rect x="630.01" y="218.668" width="13.289" height="2.41102" rx="1.20551" fill="#EEEEEE" stroke="#9A9A9A" stroke-width="0.3"/>
<rect x="224.354" y="290.506" width="21.9366" height="2.41204" rx="1.20602" fill="#EEEEEE" stroke="#9A9A9A" stroke-width="0.3"/>
<rect x="642.479" y="290.506" width="21.9366" height="2.41204" rx="1.20602" fill="#EEEEEE" stroke="#9A9A9A" stroke-width="0.3"/>
<rect x="-0.15" y="0.15" width="22.2542" height="2.41204" rx="1.20602" transform="matrix(-1 0 0 1 366.267 290.356)" fill="#EEEEEE" stroke="#9A9A9A" stroke-width="0.3"/>
<rect x="106.578" y="154.434" width="9.95331" height="0.886822" rx="0.443411" fill="#EEEEEE" stroke="#9A9A9A" stroke-width="0.3"/>
<rect x="412.438" y="155.719" width="9.95331" height="0.886822" rx="0.443411" fill="#EEEEEE" stroke="#9A9A9A" stroke-width="0.3"/>
<rect x="158.782" y="138.063" width="6.36351" height="0.985504" rx="0.492752" fill="#EEEEEE" stroke="#9A9A9A" stroke-width="0.3"/>
<rect x="464.643" y="139.349" width="6.36351" height="0.985504" rx="0.492752" fill="#EEEEEE" stroke="#9A9A9A" stroke-width="0.3"/>
<rect x="157.519" y="325.537" width="5.41184" height="0.886822" rx="0.443411" fill="#EEEEEE" stroke="#9A9A9A" stroke-width="0.3"/>
<rect x="463.38" y="196.123" width="5.41184" height="0.745437" rx="0.372719" fill="#EEEEEE" stroke="#9A9A9A" stroke-width="0.3"/>
<rect x="572.699" y="325.537" width="5.41184" height="0.886822" rx="0.443411" fill="#EEEEEE" stroke="#9A9A9A" stroke-width="0.3"/>
<rect x="572.699" y="133.545" width="5.41184" height="0.886822" rx="0.443411" fill="#EEEEEE" stroke="#9A9A9A" stroke-width="0.3"/>
<rect x="104.767" y="347.32" width="12.7635" height="1.08515" rx="0.542576" fill="#EEEEEE" stroke="#9A9A9A" stroke-width="0.3"/>
<rect x="410.628" y="215.311" width="12.7635" height="0.920141" rx="0.460071" fill="#EEEEEE" stroke="#9A9A9A" stroke-width="0.3"/>
<rect x="519.947" y="347.32" width="12.7635" height="1.08515" rx="0.542576" fill="#EEEEEE" stroke="#9A9A9A" stroke-width="0.3"/>
<rect x="519.947" y="155.327" width="12.7635" height="1.08515" rx="0.542576" fill="#EEEEEE" stroke="#9A9A9A" stroke-width="0.3"/>
<rect x="224.354" y="295.931" width="55.2915" height="5.12407" rx="1.85" fill="#EEEEEE" stroke="#9A9A9A" stroke-width="0.3"/>
<rect x="642.479" y="295.931" width="55.2915" height="5.12407" rx="1.85" fill="#EEEEEE" stroke="#9A9A9A" stroke-width="0.3"/>
<rect x="-0.15" y="0.15" width="56.0856" height="5.12407" rx="1.85" transform="matrix(-1 0 0 1 366.267 295.78)" fill="#EEEEEE" stroke="#9A9A9A" stroke-width="0.3"/>
<rect x="106.578" y="157.994" width="23.2826" height="3.26047" rx="1.63023" fill="#EEEEEE" stroke="#9A9A9A" stroke-width="0.3"/>
<rect x="412.438" y="159.28" width="23.2826" height="3.26047" rx="1.63023" fill="#EEEEEE" stroke="#9A9A9A" stroke-width="0.3"/>
<rect x="158.782" y="141.92" width="15.2482" height="0.985504" rx="0.492752" fill="#EEEEEE" stroke="#9A9A9A" stroke-width="0.3"/>
<rect x="464.643" y="143.205" width="15.2482" height="0.985504" rx="0.492752" fill="#EEEEEE" stroke="#9A9A9A" stroke-width="0.3"/>
<rect x="157.519" y="327.911" width="13.4084" height="0.886822" rx="0.443411" fill="#EEEEEE" stroke="#9A9A9A" stroke-width="0.3"/>
<rect x="463.38" y="198.214" width="13.4084" height="0.745437" rx="0.372719" fill="#EEEEEE" stroke="#9A9A9A" stroke-width="0.3"/>
<rect x="572.699" y="327.911" width="13.4084" height="0.886822" rx="0.443411" fill="#EEEEEE" stroke="#9A9A9A" stroke-width="0.3"/>
<rect x="572.699" y="135.918" width="13.4084" height="0.886822" rx="0.443411" fill="#EEEEEE" stroke="#9A9A9A" stroke-width="0.3"/>
<rect x="211.884" y="135.982" width="68.8806" height="7.83305" rx="1.85" fill="#EEEEEE" stroke="#9A9A9A" stroke-width="0.3"/>
<rect x="630.01" y="135.982" width="68.8806" height="7.83305" rx="1.85" fill="#EEEEEE" stroke="#9A9A9A" stroke-width="0.3"/>
<rect x="-0.15" y="0.15" width="53.7507" height="3.33457" rx="1.66729" transform="matrix(-1 0 0 1 368.888 142.135)" fill="white" stroke="#A5A5A5" stroke-width="0.3"/>
<rect x="-0.15" y="0.15" width="23.2051" height="3.33457" rx="1.66729" transform="matrix(-1 0 0 1 338.342 147.779)" fill="white" stroke="#A5A5A5" stroke-width="0.3"/>
<rect x="-0.15" y="0.15" width="37.9108" height="3.33457" rx="1.66729" transform="matrix(-1 0 0 1 353.048 153.692)" fill="white" stroke="#A5A5A5" stroke-width="0.3"/>
<rect x="-0.15" y="0.15" width="8.12229" height="3.33457" rx="1.66729" transform="matrix(-1 0 0 1 323.26 159.485)" fill="white" stroke="#A5A5A5" stroke-width="0.3"/>
<rect x="107.251" y="202.917" width="76.1083" height="8.69853" rx="1.85" fill="#EEEEEE" stroke="#9A9A9A" stroke-width="0.3"/>
<rect x="413.031" y="268.983" width="76.1083" height="9.39438" rx="1.85" fill="#EEEEEE" stroke="#9A9A9A" stroke-width="0.3"/>
<rect x="522.431" y="202.917" width="76.1083" height="8.69853" rx="1.85" fill="#EEEEEE" stroke="#9A9A9A" stroke-width="0.3"/>
<rect x="102.142" y="131.636" width="30.7964" height="6.12752" rx="1.85" fill="#EEEEEE" stroke="#9A9A9A" stroke-width="0.3"/>
<rect x="408.003" y="132.921" width="30.7964" height="6.12752" rx="1.85" fill="#EEEEEE" stroke="#9A9A9A" stroke-width="0.3"/>
<rect x="102.142" y="139.349" width="30.7964" height="3.55651" rx="1.77826" fill="#EEEEEE" stroke="#9A9A9A" stroke-width="0.3"/>
<rect x="408.003" y="140.634" width="30.7964" height="3.55651" rx="1.77826" fill="#EEEEEE" stroke="#9A9A9A" stroke-width="0.3"/>
<rect x="209.529" y="279.658" width="5.87684" height="86.4852" rx="1.85" fill="#EEEEEE" stroke="#9A9A9A" stroke-width="0.3"/>
<rect x="627.655" y="279.658" width="5.87684" height="86.4852" rx="1.85" fill="#EEEEEE" stroke="#9A9A9A" stroke-width="0.3"/>
<rect x="-0.15" y="0.15" width="5.96506" height="86.4851" rx="1.85" transform="matrix(-1 0 0 1 381.303 279.509)" fill="#EEEEEE" stroke="#9A9A9A" stroke-width="0.3"/>
<rect x="175.472" y="219.629" width="6.52217" height="67.8317" rx="1.85" fill="#EEEEEE" stroke="#9A9A9A" stroke-width="0.3"/>
<rect x="481.253" y="286.987" width="6.52217" height="73.1003" rx="1.85" fill="#EEEEEE" stroke="#9A9A9A" stroke-width="0.3"/>
<rect x="590.652" y="219.629" width="6.52217" height="67.8317" rx="1.85" fill="#EEEEEE" stroke="#9A9A9A" stroke-width="0.3"/>
<rect x="102.047" y="357.017" width="29.2625" height="10.7812" rx="1.85" fill="#EEEEEE" stroke="#9A9A9A" stroke-width="0.3"/>
<rect x="407.908" y="223.852" width="29.2625" height="9.46113" rx="1.85" fill="#EEEEEE" stroke="#9A9A9A" stroke-width="0.3"/>
<rect x="517.227" y="357.017" width="29.2625" height="10.7812" rx="1.85" fill="#EEEEEE" stroke="#9A9A9A" stroke-width="0.3"/>
<rect x="517.227" y="165.024" width="29.2625" height="10.7812" rx="1.85" fill="#EEEEEE" stroke="#9A9A9A" stroke-width="0.3"/>
<rect x="158.085" y="343.674" width="29.3965" height="24.1246" rx="1.85" fill="#EEEEEE" stroke="#9A9A9A" stroke-width="0.3"/>
<rect x="463.946" y="212.099" width="29.3965" height="21.2149" rx="1.85" fill="#EEEEEE" stroke="#9A9A9A" stroke-width="0.3"/>
<rect x="573.265" y="343.674" width="29.3965" height="24.1246" rx="1.85" fill="#EEEEEE" stroke="#9A9A9A" stroke-width="0.3"/>
<rect x="573.265" y="151.681" width="29.3965" height="24.1246" rx="1.85" fill="#EEEEEE" stroke="#9A9A9A" stroke-width="0.3"/>
<rect x="158.782" y="149.633" width="28.5752" height="24.1246" rx="1.85" fill="#EEEEEE" stroke="#9A9A9A" stroke-width="0.3"/>
<rect x="464.643" y="150.918" width="28.5752" height="24.1246" rx="1.85" fill="#EEEEEE" stroke="#9A9A9A" stroke-width="0.3"/>
<rect x="102.047" y="324.236" width="13.8497" height="11.7026" rx="1.85" fill="#EEEEEE" stroke="#9A9A9A" stroke-width="0.3"/>
<rect x="407.908" y="194.976" width="13.8497" height="10.2728" rx="1.85" fill="#EEEEEE" stroke="#9A9A9A" stroke-width="0.3"/>
<rect x="517.227" y="324.236" width="13.8497" height="11.7026" rx="1.85" fill="#EEEEEE" stroke="#9A9A9A" stroke-width="0.3"/>
<rect x="517.227" y="132.243" width="13.8497" height="11.7026" rx="1.85" fill="#EEEEEE" stroke="#9A9A9A" stroke-width="0.3"/>
<rect x="118.922" y="324.236" width="13.8497" height="11.7026" rx="1.85" fill="#EEEEEE" stroke="#9A9A9A" stroke-width="0.3"/>
<rect x="424.782" y="194.976" width="13.8497" height="10.2728" rx="1.85" fill="#EEEEEE" stroke="#9A9A9A" stroke-width="0.3"/>
<rect x="534.102" y="324.236" width="13.8497" height="11.7026" rx="1.85" fill="#EEEEEE" stroke="#9A9A9A" stroke-width="0.3"/>
<rect x="534.102" y="132.243" width="13.8497" height="11.7026" rx="1.85" fill="#EEEEEE" stroke="#9A9A9A" stroke-width="0.3"/>
<rect x="309.927" y="362.439" width="41.1085" height="2.26072" rx="1.13036" fill="#EEEEEE" stroke="#9A9A9A" stroke-width="0.3"/>
</svg>
