<svg width="624" height="510" viewBox="0 0 624 510" fill="none" xmlns="http://www.w3.org/2000/svg">
<rect x="196" y="116" width="232" height="278" rx="10" fill="#393939"/>
<rect x="220" y="142" width="183" height="49" rx="10" fill="#484848"/>
<rect x="220" y="260" width="183" height="49" rx="10" fill="#484848"/>
<rect x="220" y="319" width="183" height="49" rx="10" fill="#484848"/>
<rect x="220" y="201" width="183" height="49" rx="10" fill="#484848"/>
<path d="M196 165H162L162 153L128 153" stroke="#EEEEEE" stroke-width="2"/>
<path d="M428 346H462L462 358L496 358" stroke="#EEEEEE" stroke-width="2"/>
<path d="M128 357L162 357L162 346L196 346" stroke="#EEEEEE" stroke-width="2"/>
<path d="M496 154L462 154L462 165L428 165" stroke="#EEEEEE" stroke-width="2"/>
<path d="M128.5 255H196" stroke="#EEEEEE" stroke-width="2"/>
<path d="M495.5 256H428" stroke="#EEEEEE" stroke-width="2"/>
<path d="M42 153.5L17.5 153.5L17 255L17.5 357.5L42 357.5" stroke="#EEEEEE" stroke-width="3"/>
<path d="M582 357.5L606.5 357.5L607 256L606.5 153.5L582 153.5" stroke="#EEEEEE" stroke-width="3"/>
<line x1="255.5" y1="89" x2="255.5" y2="116" stroke="#EEEEEE" stroke-width="3"/>
<line x1="312.5" y1="89" x2="312.5" y2="116" stroke="#EEEEEE" stroke-width="3"/>
<line x1="370.5" y1="89" x2="370.5" y2="116" stroke="#EEEEEE" stroke-width="3"/>
<line x1="17.5" y1="169" x2="17.5" y2="174" stroke="#8C8C8C" stroke-width="3"/>
<line x1="606.5" y1="342" x2="606.5" y2="337" stroke="#8C8C8C" stroke-width="3"/>
<line x1="17.5" y1="155" x2="17.5" y2="160" stroke="#8C8C8C" stroke-width="3"/>
<line x1="606.5" y1="356" x2="606.5" y2="351" stroke="#8C8C8C" stroke-width="3"/>
<line x1="42" y1="153.5" x2="37" y2="153.5" stroke="#8C8C8C" stroke-width="3"/>
<line x1="582" y1="357.5" x2="587" y2="357.5" stroke="#8C8C8C" stroke-width="3"/>
<line x1="17.5" y1="193" x2="17.5" y2="214" stroke="#8C8C8C" stroke-width="3"/>
<line x1="606.5" y1="318" x2="606.5" y2="297" stroke="#8C8C8C" stroke-width="3"/>
<line x1="132" y1="153" x2="128" y2="153" stroke="#8C8C8C" stroke-width="2"/>
<line x1="492" y1="358" x2="496" y2="358" stroke="#8C8C8C" stroke-width="2"/>
<line x1="157" y1="153" x2="146" y2="153" stroke="#8C8C8C" stroke-width="2"/>
<line x1="467" y1="358" x2="478" y2="358" stroke="#8C8C8C" stroke-width="2"/>
<line x1="255.5" y1="98" x2="255.5" y2="91" stroke="#8C8C8C" stroke-width="3"/>
<line x1="370.5" y1="94" x2="370.5" y2="91" stroke="#8C8C8C" stroke-width="3"/>
<line x1="370.5" y1="104" x2="370.5" y2="101" stroke="#8C8C8C" stroke-width="3"/>
<line x1="370.5" y1="113" x2="370.5" y2="110" stroke="#8C8C8C" stroke-width="3"/>
<line x1="255.5" y1="106" x2="255.5" y2="99" stroke="#8C8C8C" stroke-width="3"/>
<line x1="312.5" y1="92" x2="312.5" y2="91" stroke="#8C8C8C" stroke-width="3"/>
<line x1="312.5" y1="101" x2="312.5" y2="100" stroke="#8C8C8C" stroke-width="3"/>
<line x1="312.5" y1="103" x2="312.5" y2="102" stroke="#8C8C8C" stroke-width="3"/>
<line x1="312.5" y1="105" x2="312.5" y2="104" stroke="#8C8C8C" stroke-width="3"/>
<line x1="312.5" y1="112" x2="312.5" y2="111" stroke="#8C8C8C" stroke-width="3"/>
<line x1="312.5" y1="114" x2="312.5" y2="113" stroke="#8C8C8C" stroke-width="3"/>
<line x1="312.5" y1="97" x2="312.5" y2="96" stroke="#8C8C8C" stroke-width="3"/>
<line x1="255.5" y1="114" x2="255.5" y2="107" stroke="#8C8C8C" stroke-width="3"/>
<line x1="255.5" y1="395" x2="255.5" y2="422" stroke="#EEEEEE" stroke-width="3"/>
<line x1="312.5" y1="395" x2="312.5" y2="422" stroke="#EEEEEE" stroke-width="3"/>
<line x1="370.5" y1="395" x2="370.5" y2="422" stroke="#EEEEEE" stroke-width="3"/>
<line x1="255.5" y1="404" x2="255.5" y2="397" stroke="#8C8C8C" stroke-width="3"/>
<line x1="370.5" y1="400" x2="370.5" y2="397" stroke="#8C8C8C" stroke-width="3"/>
<line x1="370.5" y1="410" x2="370.5" y2="407" stroke="#8C8C8C" stroke-width="3"/>
<line x1="370.5" y1="419" x2="370.5" y2="416" stroke="#8C8C8C" stroke-width="3"/>
<line x1="255.5" y1="412" x2="255.5" y2="405" stroke="#8C8C8C" stroke-width="3"/>
<line x1="312.5" y1="407" x2="312.5" y2="406" stroke="#8C8C8C" stroke-width="3"/>
<line x1="312.5" y1="409" x2="312.5" y2="408" stroke="#8C8C8C" stroke-width="3"/>
<line x1="312.5" y1="411" x2="312.5" y2="410" stroke="#8C8C8C" stroke-width="3"/>
<line x1="312.5" y1="418" x2="312.5" y2="417" stroke="#8C8C8C" stroke-width="3"/>
<line x1="312.5" y1="420" x2="312.5" y2="419" stroke="#8C8C8C" stroke-width="3"/>
<line x1="312.5" y1="403" x2="312.5" y2="402" stroke="#8C8C8C" stroke-width="3"/>
<line x1="255.5" y1="420" x2="255.5" y2="413" stroke="#8C8C8C" stroke-width="3"/>
<line x1="146" y1="255" x2="135" y2="255" stroke="#8C8C8C" stroke-width="2"/>
<line x1="478" y1="256" x2="489" y2="256" stroke="#8C8C8C" stroke-width="2"/>
<line x1="143" y1="357" x2="132" y2="357" stroke="#8C8C8C" stroke-width="2"/>
<line x1="481" y1="154" x2="492" y2="154" stroke="#8C8C8C" stroke-width="2"/>
<line x1="168" y1="346" x2="165" y2="346" stroke="#8C8C8C" stroke-width="2"/>
<line x1="456" y1="165" x2="459" y2="165" stroke="#8C8C8C" stroke-width="2"/>
<line x1="172" y1="346" x2="169" y2="346" stroke="#8C8C8C" stroke-width="2"/>
<line x1="452" y1="165" x2="455" y2="165" stroke="#8C8C8C" stroke-width="2"/>
<line x1="178" y1="346" x2="175" y2="346" stroke="#8C8C8C" stroke-width="2"/>
<line x1="446" y1="165" x2="449" y2="165" stroke="#8C8C8C" stroke-width="2"/>
<line x1="182" y1="346" x2="179" y2="346" stroke="#8C8C8C" stroke-width="2"/>
<line x1="442" y1="165" x2="445" y2="165" stroke="#8C8C8C" stroke-width="2"/>
<line x1="194" y1="346" x2="187" y2="346" stroke="#393939" stroke-width="2"/>
<line x1="430" y1="165" x2="437" y2="165" stroke="#8C8C8C" stroke-width="2"/>
<line x1="188" y1="255" x2="160" y2="255" stroke="#8C8C8C" stroke-width="2"/>
<line x1="436" y1="256" x2="464" y2="256" stroke="#8C8C8C" stroke-width="2"/>
<line x1="162" y1="156" x2="162" y2="155" stroke="#8C8C8C" stroke-width="2"/>
<line x1="462" y1="355" x2="462" y2="356" stroke="#8C8C8C" stroke-width="2"/>
<line x1="162" y1="161" x2="162" y2="158" stroke="#8C8C8C" stroke-width="2"/>
<line x1="462" y1="350" x2="462" y2="353" stroke="#8C8C8C" stroke-width="2"/>
<line x1="170" y1="165" x2="167" y2="165" stroke="#8C8C8C" stroke-width="2"/>
<line x1="454" y1="346" x2="457" y2="346" stroke="#8C8C8C" stroke-width="2"/>
<line x1="180" y1="165" x2="173" y2="165" stroke="#8C8C8C" stroke-width="2"/>
<line x1="444" y1="346" x2="451" y2="346" stroke="#8C8C8C" stroke-width="2"/>
<line x1="17.5" y1="244" x2="17.5" y2="254" stroke="#8C8C8C" stroke-width="3"/>
<line x1="606.5" y1="267" x2="606.5" y2="257" stroke="#8C8C8C" stroke-width="3"/>
<line x1="17.5" y1="349" x2="17.5" y2="359" stroke="#8C8C8C" stroke-width="3"/>
<line x1="606.5" y1="162" x2="606.5" y2="152" stroke="#8C8C8C" stroke-width="3"/>
<line x1="17" y1="357.5" x2="22" y2="357.5" stroke="#8C8C8C" stroke-width="3"/>
<line x1="607" y1="153.5" x2="602" y2="153.5" stroke="#8C8C8C" stroke-width="3"/>
<line x1="17.5" y1="286" x2="17.5" y2="292" stroke="#8C8C8C" stroke-width="3"/>
<line x1="606.5" y1="225" x2="606.5" y2="219" stroke="#8C8C8C" stroke-width="3"/>
<line x1="17.5" y1="295" x2="17.5" y2="301" stroke="#8C8C8C" stroke-width="3"/>
<line x1="606.5" y1="216" x2="606.5" y2="210" stroke="#8C8C8C" stroke-width="3"/>
<line x1="17.5" y1="305" x2="17.5" y2="311" stroke="#8C8C8C" stroke-width="3"/>
<line x1="606.5" y1="206" x2="606.5" y2="200" stroke="#8C8C8C" stroke-width="3"/>
<g filter="url(#filter0_d)">
<rect x="42" y="110" width="86" height="85" rx="5" fill="white"/>
</g>
<rect x="52.76" y="172.658" width="61.8836" height="15.5236" rx="4" stroke="#EEEEEE" stroke-width="2"/>
<rect x="61.0764" y="178.535" width="10.8691" height="4.65818" rx="2.32909" fill="#EEEEEE"/>
<rect x="77.269" y="178.535" width="10.6473" height="4.65818" rx="2.32909" fill="#EEEEEE"/>
<rect x="94.5708" y="178.535" width="10.8691" height="4.65818" rx="2.32909" fill="#EEEEEE"/>
<rect x="51.76" y="143.709" width="27.0618" height="20.6291" rx="5" fill="#8C8C8C"/>
<rect x="54.4219" y="146.149" width="14.64" height="2.21818" rx="1.10909" fill="white"/>
<rect x="54.4219" y="149.255" width="8.87273" height="2.21818" rx="1.10909" fill="white"/>
<rect x="54.4219" y="159.902" width="20.4073" height="1.99636" rx="0.998182" fill="white"/>
<line x1="66.1255" y1="166.504" x2="66.1255" y2="169.493" stroke="#EEEEEE" stroke-width="3" stroke-linecap="round"/>
<line x1="84.7583" y1="140.107" x2="84.7583" y2="169.493" stroke="#EEEEEE" stroke-width="3" stroke-linecap="round"/>
<line x1="103" y1="140" x2="103" y2="169" stroke="#EEEEEE" stroke-width="3" stroke-linecap="round"/>
<rect x="52" y="116" width="63.8836" height="21.0727" rx="5" fill="#EEEEEE"/>
<rect x="58.4329" y="121.102" width="15.5273" height="2.21818" rx="1.10909" fill="white"/>
<rect x="58.4329" y="125.538" width="9.31636" height="2.21818" rx="1.10909" fill="white"/>
<rect x="58.4329" y="130.196" width="21.7382" height="2.21818" rx="1.10909" fill="white"/>
<g filter="url(#filter1_d)">
<rect x="582" y="401" width="86" height="85" rx="5" transform="rotate(180 582 401)" fill="white"/>
</g>
<rect x="571.24" y="338.342" width="61.8836" height="15.5236" rx="4" transform="rotate(180 571.24 338.342)" stroke="#EEEEEE" stroke-width="2"/>
<rect x="562.924" y="332.465" width="10.8691" height="4.65818" rx="2.32909" transform="rotate(180 562.924 332.465)" fill="#EEEEEE"/>
<rect x="546.731" y="332.465" width="10.6473" height="4.65818" rx="2.32909" transform="rotate(180 546.731 332.465)" fill="#EEEEEE"/>
<rect x="529.429" y="332.465" width="10.8691" height="4.65818" rx="2.32909" transform="rotate(180 529.429 332.465)" fill="#EEEEEE"/>
<rect x="572.24" y="367.291" width="27.0618" height="20.6291" rx="5" transform="rotate(180 572.24 367.291)" fill="#8C8C8C"/>
<rect x="569.578" y="364.851" width="14.64" height="2.21818" rx="1.10909" transform="rotate(180 569.578 364.851)" fill="white"/>
<rect x="569.578" y="361.745" width="8.87273" height="2.21818" rx="1.10909" transform="rotate(180 569.578 361.745)" fill="white"/>
<rect x="569.578" y="351.098" width="20.4073" height="1.99636" rx="0.998182" transform="rotate(180 569.578 351.098)" fill="white"/>
<line x1="557.875" y1="344.496" x2="557.875" y2="341.507" stroke="#EEEEEE" stroke-width="3" stroke-linecap="round"/>
<line x1="539.242" y1="370.893" x2="539.242" y2="341.507" stroke="#EEEEEE" stroke-width="3" stroke-linecap="round"/>
<line x1="521" y1="371" x2="521" y2="342" stroke="#EEEEEE" stroke-width="3" stroke-linecap="round"/>
<rect x="572" y="395" width="63.8836" height="21.0727" rx="5" transform="rotate(180 572 395)" fill="#EEEEEE"/>
<rect x="565.567" y="389.898" width="15.5273" height="2.21818" rx="1.10909" transform="rotate(180 565.567 389.898)" fill="white"/>
<rect x="565.567" y="385.462" width="9.31636" height="2.21818" rx="1.10909" transform="rotate(180 565.567 385.462)" fill="white"/>
<rect x="565.567" y="380.804" width="21.7382" height="2.21818" rx="1.10909" transform="rotate(180 565.567 380.804)" fill="white"/>
<g filter="url(#filter2_d)">
<rect x="42" y="316" width="86" height="85" rx="5" fill="white"/>
</g>
<rect x="51.76" y="377.658" width="63.8836" height="17.5236" rx="5" fill="#8C8C8C"/>
<rect x="52.76" y="350.709" width="25.0618" height="18.6291" rx="4" fill="#EEEEEE" stroke="#EEEEEE" stroke-width="2"/>
<rect x="114" y="351" width="19" height="22" rx="4" transform="rotate(90 114 351)" fill="#EEEEEE" stroke="#EEEEEE" stroke-width="2"/>
<rect x="54.4219" y="352.149" width="14.64" height="2.21818" rx="1.10909" fill="white"/>
<rect x="113" y="355" width="7" height="3" rx="1.5" transform="rotate(90 113 355)" fill="white"/>
<rect x="54.4219" y="355.255" width="8.87273" height="2.21818" rx="1.10909" fill="white"/>
<rect x="109" y="355" width="4" height="2" rx="1" transform="rotate(90 109 355)" fill="white"/>
<rect x="54.4219" y="365.902" width="20.4073" height="1.99636" rx="0.998182" fill="white"/>
<rect x="95" y="355" width="10" height="2" rx="1" transform="rotate(90 95 355)" fill="white"/>
<line x1="66.1255" y1="372.504" x2="66.1255" y2="375.493" stroke="#EEEEEE" stroke-width="3" stroke-linecap="round"/>
<line x1="88.5" y1="361.5" x2="81.5" y2="361.5" stroke="#EEEEEE" stroke-width="3" stroke-linecap="round"/>
<rect x="52" y="322" width="63.8836" height="21.0727" rx="5" fill="#EEEEEE"/>
<rect x="58.4329" y="327.102" width="15.5273" height="2.21818" rx="1.10909" fill="white"/>
<rect x="58.4329" y="381" width="15.5273" height="2.21818" rx="1.10909" fill="white"/>
<rect x="58.4329" y="331.538" width="9.31636" height="2.21818" rx="1.10909" fill="white"/>
<rect x="58.4329" y="385.436" width="9.31636" height="2.21818" rx="1.10909" fill="white"/>
<rect x="58.4329" y="336.196" width="21.7382" height="2.21818" rx="1.10909" fill="white"/>
<rect x="58.4329" y="390.095" width="21.7382" height="2.21818" rx="1.10909" fill="white"/>
<g filter="url(#filter3_d)">
<rect x="582" y="195" width="86" height="85" rx="5" transform="rotate(180 582 195)" fill="white"/>
</g>
<rect x="572.24" y="133.342" width="63.8836" height="17.5236" rx="5" transform="rotate(180 572.24 133.342)" fill="#8C8C8C"/>
<rect x="571.24" y="160.291" width="25.0618" height="18.6291" rx="4" transform="rotate(180 571.24 160.291)" fill="#EEEEEE" stroke="#EEEEEE" stroke-width="2"/>
<rect x="510" y="160" width="19" height="22" rx="4" transform="rotate(-90 510 160)" fill="#EEEEEE" stroke="#EEEEEE" stroke-width="2"/>
<rect x="569.578" y="158.851" width="14.64" height="2.21818" rx="1.10909" transform="rotate(180 569.578 158.851)" fill="white"/>
<rect x="511" y="156" width="7" height="3" rx="1.5" transform="rotate(-90 511 156)" fill="white"/>
<rect x="569.578" y="155.745" width="8.87273" height="2.21818" rx="1.10909" transform="rotate(180 569.578 155.745)" fill="white"/>
<rect x="515" y="156" width="4" height="2" rx="1" transform="rotate(-90 515 156)" fill="white"/>
<rect x="569.578" y="145.098" width="20.4073" height="1.99636" rx="0.998182" transform="rotate(180 569.578 145.098)" fill="white"/>
<rect x="529" y="156" width="10" height="2" rx="1" transform="rotate(-90 529 156)" fill="white"/>
<line x1="557.875" y1="138.496" x2="557.875" y2="135.507" stroke="#EEEEEE" stroke-width="3" stroke-linecap="round"/>
<line x1="535.5" y1="149.5" x2="542.5" y2="149.5" stroke="#EEEEEE" stroke-width="3" stroke-linecap="round"/>
<rect x="572" y="189" width="63.8836" height="21.0727" rx="5" transform="rotate(180 572 189)" fill="#EEEEEE"/>
<rect x="565.567" y="183.898" width="15.5273" height="2.21818" rx="1.10909" transform="rotate(180 565.567 183.898)" fill="white"/>
<rect x="565.567" y="130" width="15.5273" height="2.21818" rx="1.10909" transform="rotate(180 565.567 130)" fill="white"/>
<rect x="565.567" y="179.462" width="9.31636" height="2.21818" rx="1.10909" transform="rotate(180 565.567 179.462)" fill="white"/>
<rect x="565.567" y="125.564" width="9.31636" height="2.21818" rx="1.10909" transform="rotate(180 565.567 125.564)" fill="white"/>
<rect x="565.567" y="174.804" width="21.7382" height="2.21818" rx="1.10909" transform="rotate(180 565.567 174.804)" fill="white"/>
<rect x="565.567" y="120.905" width="21.7382" height="2.21818" rx="1.10909" transform="rotate(180 565.567 120.905)" fill="white"/>
<g filter="url(#filter4_d)">
<rect x="42" y="213" width="86" height="85" rx="5" fill="white"/>
</g>
<rect x="52.76" y="275.658" width="61.8836" height="15.5236" rx="4" stroke="#EEEEEE" stroke-width="2"/>
<rect x="61.0764" y="281.535" width="10.8691" height="4.65818" rx="2.32909" fill="#EEEEEE"/>
<rect x="77.269" y="281.535" width="10.6473" height="4.65818" rx="2.32909" fill="#EEEEEE"/>
<rect x="94.5708" y="281.535" width="10.8691" height="4.65818" rx="2.32909" fill="#8C8C8C"/>
<rect x="52.76" y="247.709" width="25.0618" height="18.6291" rx="4" fill="#EEEEEE" stroke="#EEEEEE" stroke-width="2"/>
<rect x="89.5818" y="247.709" width="25.0618" height="18.6291" rx="4" stroke="#EEEEEE" stroke-width="2"/>
<rect x="54.4219" y="249.149" width="14.64" height="2.21818" rx="1.10909" fill="white"/>
<rect x="54.4219" y="252.255" width="8.87273" height="2.21818" rx="1.10909" fill="white"/>
<rect x="54.4219" y="262.902" width="20.4073" height="1.99636" rx="0.998182" fill="white"/>
<line x1="66.1255" y1="269.504" x2="66.1255" y2="272.493" stroke="#EEEEEE" stroke-width="3" stroke-linecap="round"/>
<line x1="84.7583" y1="243.107" x2="84.7583" y2="272.493" stroke="#8C8C8C" stroke-width="3" stroke-linecap="round"/>
<line x1="102.947" y1="269.504" x2="102.947" y2="272.493" stroke="#EEEEEE" stroke-width="3" stroke-linecap="round"/>
<rect x="52" y="219" width="63.8836" height="21.0727" rx="5" fill="#EEEEEE"/>
<rect x="58.4329" y="224.102" width="15.5273" height="2.21818" rx="1.10909" fill="white"/>
<rect x="58.4329" y="228.538" width="9.31636" height="2.21818" rx="1.10909" fill="white"/>
<rect x="58.4329" y="233.196" width="21.7382" height="2.21818" rx="1.10909" fill="white"/>
<g filter="url(#filter5_d)">
<rect x="582" y="298" width="86" height="85" rx="5" transform="rotate(180 582 298)" fill="white"/>
</g>
<rect x="571.24" y="235.342" width="61.8836" height="15.5236" rx="4" transform="rotate(180 571.24 235.342)" stroke="#EEEEEE" stroke-width="2"/>
<rect x="562.924" y="229.465" width="10.8691" height="4.65818" rx="2.32909" transform="rotate(180 562.924 229.465)" fill="#EEEEEE"/>
<rect x="546.731" y="229.465" width="10.6473" height="4.65818" rx="2.32909" transform="rotate(180 546.731 229.465)" fill="#EEEEEE"/>
<rect x="529.429" y="229.465" width="10.8691" height="4.65818" rx="2.32909" transform="rotate(180 529.429 229.465)" fill="#8C8C8C"/>
<rect x="571.24" y="263.291" width="25.0618" height="18.6291" rx="4" transform="rotate(180 571.24 263.291)" fill="#EEEEEE" stroke="#EEEEEE" stroke-width="2"/>
<rect x="534.418" y="263.291" width="25.0618" height="18.6291" rx="4" transform="rotate(180 534.418 263.291)" stroke="#EEEEEE" stroke-width="2"/>
<rect x="569.578" y="261.851" width="14.64" height="2.21818" rx="1.10909" transform="rotate(180 569.578 261.851)" fill="white"/>
<rect x="569.578" y="258.745" width="8.87273" height="2.21818" rx="1.10909" transform="rotate(180 569.578 258.745)" fill="white"/>
<rect x="569.578" y="248.098" width="20.4073" height="1.99636" rx="0.998182" transform="rotate(180 569.578 248.098)" fill="white"/>
<line x1="557.875" y1="241.496" x2="557.875" y2="238.507" stroke="#EEEEEE" stroke-width="3" stroke-linecap="round"/>
<line x1="539.242" y1="267.893" x2="539.242" y2="238.507" stroke="#8C8C8C" stroke-width="3" stroke-linecap="round"/>
<line x1="521.053" y1="241.496" x2="521.053" y2="238.507" stroke="#EEEEEE" stroke-width="3" stroke-linecap="round"/>
<rect x="572" y="292" width="63.8836" height="21.0727" rx="5" transform="rotate(180 572 292)" fill="#EEEEEE"/>
<rect x="565.567" y="286.898" width="15.5273" height="2.21818" rx="1.10909" transform="rotate(180 565.567 286.898)" fill="white"/>
<rect x="565.567" y="282.462" width="9.31636" height="2.21818" rx="1.10909" transform="rotate(180 565.567 282.462)" fill="white"/>
<rect x="565.567" y="277.804" width="21.7382" height="2.21818" rx="1.10909" transform="rotate(180 565.567 277.804)" fill="white"/>
<line x1="85.5" y1="195" x2="85.5" y2="213" stroke="#EEEEEE" stroke-width="3"/>
<line x1="538.5" y1="316" x2="538.5" y2="298" stroke="#EEEEEE" stroke-width="3"/>
<line x1="85.5" y1="298" x2="85.5" y2="316" stroke="#EEEEEE" stroke-width="3"/>
<line x1="538.5" y1="213" x2="538.5" y2="195" stroke="#EEEEEE" stroke-width="3"/>
<line x1="312.5" y1="78.5" x2="312.5" y2="23.5" stroke="#8C8C8C" stroke-width="3" stroke-linecap="round"/>
<line x1="1.5" y1="-1.5" x2="56.5" y2="-1.5" transform="matrix(4.37114e-08 1 1 -4.37114e-08 314 431)" stroke="#8C8C8C" stroke-width="3" stroke-linecap="round"/>
<line x1="272.5" y1="78.5" x2="272.5" y2="31.5" stroke="#8C8C8C" stroke-width="3" stroke-linecap="round"/>
<line x1="1.5" y1="-1.5" x2="48.5" y2="-1.5" transform="matrix(4.37114e-08 1 1 -4.37114e-08 274 431)" stroke="#8C8C8C" stroke-width="3" stroke-linecap="round"/>
<line x1="352.5" y1="78.5" x2="352.5" y2="31.5" stroke="#8C8C8C" stroke-width="3" stroke-linecap="round"/>
<line x1="1.5" y1="-1.5" x2="48.5" y2="-1.5" transform="matrix(4.37114e-08 1 1 -4.37114e-08 354 431)" stroke="#8C8C8C" stroke-width="3" stroke-linecap="round"/>
<line x1="390.5" y1="78.5" x2="390.5" y2="41.5" stroke="#8C8C8C" stroke-width="3" stroke-linecap="round"/>
<line x1="1.5" y1="-1.5" x2="38.5" y2="-1.5" transform="matrix(4.37114e-08 1 1 -4.37114e-08 392 431)" stroke="#8C8C8C" stroke-width="3" stroke-linecap="round"/>
<line x1="234.5" y1="78.5" x2="234.5" y2="41.5" stroke="#8C8C8C" stroke-width="3" stroke-linecap="round"/>
<line x1="1.5" y1="-1.5" x2="38.5" y2="-1.5" transform="matrix(4.37114e-08 1 1 -4.37114e-08 236 431)" stroke="#8C8C8C" stroke-width="3" stroke-linecap="round"/>
<path d="M216 70H406V83C406 86.3137 403.314 89 400 89H222C218.686 89 216 86.3137 216 83V70Z" fill="white"/>
<path d="M216 441H406V428C406 424.686 403.314 422 400 422H222C218.686 422 216 424.686 216 428V441Z" fill="white"/>
<defs>
<filter id="filter0_d" x="29" y="99" width="112" height="111" filterUnits="userSpaceOnUse" color-interpolation-filters="sRGB">
<feFlood flood-opacity="0" result="BackgroundImageFix"/>
<feColorMatrix in="SourceAlpha" type="matrix" values="0 0 0 0 0 0 0 0 0 0 0 0 0 0 0 0 0 0 127 0"/>
<feOffset dy="2"/>
<feGaussianBlur stdDeviation="6.5"/>
<feColorMatrix type="matrix" values="0 0 0 0 0 0 0 0 0 0 0 0 0 0 0 0 0 0 0.07 0"/>
<feBlend mode="normal" in2="BackgroundImageFix" result="effect1_dropShadow"/>
<feBlend mode="normal" in="SourceGraphic" in2="effect1_dropShadow" result="shape"/>
</filter>
<filter id="filter1_d" x="483" y="305" width="112" height="111" filterUnits="userSpaceOnUse" color-interpolation-filters="sRGB">
<feFlood flood-opacity="0" result="BackgroundImageFix"/>
<feColorMatrix in="SourceAlpha" type="matrix" values="0 0 0 0 0 0 0 0 0 0 0 0 0 0 0 0 0 0 127 0"/>
<feOffset dy="2"/>
<feGaussianBlur stdDeviation="6.5"/>
<feColorMatrix type="matrix" values="0 0 0 0 0 0 0 0 0 0 0 0 0 0 0 0 0 0 0.07 0"/>
<feBlend mode="normal" in2="BackgroundImageFix" result="effect1_dropShadow"/>
<feBlend mode="normal" in="SourceGraphic" in2="effect1_dropShadow" result="shape"/>
</filter>
<filter id="filter2_d" x="29" y="305" width="112" height="111" filterUnits="userSpaceOnUse" color-interpolation-filters="sRGB">
<feFlood flood-opacity="0" result="BackgroundImageFix"/>
<feColorMatrix in="SourceAlpha" type="matrix" values="0 0 0 0 0 0 0 0 0 0 0 0 0 0 0 0 0 0 127 0"/>
<feOffset dy="2"/>
<feGaussianBlur stdDeviation="6.5"/>
<feColorMatrix type="matrix" values="0 0 0 0 0 0 0 0 0 0 0 0 0 0 0 0 0 0 0.07 0"/>
<feBlend mode="normal" in2="BackgroundImageFix" result="effect1_dropShadow"/>
<feBlend mode="normal" in="SourceGraphic" in2="effect1_dropShadow" result="shape"/>
</filter>
<filter id="filter3_d" x="483" y="99" width="112" height="111" filterUnits="userSpaceOnUse" color-interpolation-filters="sRGB">
<feFlood flood-opacity="0" result="BackgroundImageFix"/>
<feColorMatrix in="SourceAlpha" type="matrix" values="0 0 0 0 0 0 0 0 0 0 0 0 0 0 0 0 0 0 127 0"/>
<feOffset dy="2"/>
<feGaussianBlur stdDeviation="6.5"/>
<feColorMatrix type="matrix" values="0 0 0 0 0 0 0 0 0 0 0 0 0 0 0 0 0 0 0.07 0"/>
<feBlend mode="normal" in2="BackgroundImageFix" result="effect1_dropShadow"/>
<feBlend mode="normal" in="SourceGraphic" in2="effect1_dropShadow" result="shape"/>
</filter>
<filter id="filter4_d" x="29" y="202" width="112" height="111" filterUnits="userSpaceOnUse" color-interpolation-filters="sRGB">
<feFlood flood-opacity="0" result="BackgroundImageFix"/>
<feColorMatrix in="SourceAlpha" type="matrix" values="0 0 0 0 0 0 0 0 0 0 0 0 0 0 0 0 0 0 127 0"/>
<feOffset dy="2"/>
<feGaussianBlur stdDeviation="6.5"/>
<feColorMatrix type="matrix" values="0 0 0 0 0 0 0 0 0 0 0 0 0 0 0 0 0 0 0.07 0"/>
<feBlend mode="normal" in2="BackgroundImageFix" result="effect1_dropShadow"/>
<feBlend mode="normal" in="SourceGraphic" in2="effect1_dropShadow" result="shape"/>
</filter>
<filter id="filter5_d" x="483" y="202" width="112" height="111" filterUnits="userSpaceOnUse" color-interpolation-filters="sRGB">
<feFlood flood-opacity="0" result="BackgroundImageFix"/>
<feColorMatrix in="SourceAlpha" type="matrix" values="0 0 0 0 0 0 0 0 0 0 0 0 0 0 0 0 0 0 127 0"/>
<feOffset dy="2"/>
<feGaussianBlur stdDeviation="6.5"/>
<feColorMatrix type="matrix" values="0 0 0 0 0 0 0 0 0 0 0 0 0 0 0 0 0 0 0.07 0"/>
<feBlend mode="normal" in2="BackgroundImageFix" result="effect1_dropShadow"/>
<feBlend mode="normal" in="SourceGraphic" in2="effect1_dropShadow" result="shape"/>
</filter>
</defs>
</svg>
