<?xml version="1.0"?>
<svg xmlns="http://www.w3.org/2000/svg" xmlns:xlink="http://www.w3.org/1999/xlink" xmlns:svgjs="http://svgjs.com/svgjs" version="1.1" width="512" height="512" x="0" y="0" viewBox="0 0 512 512" style="enable-background:new 0 0 512 512" xml:space="preserve" class=""><g><linearGradient xmlns="http://www.w3.org/2000/svg" id="SVGID_1_" gradientUnits="userSpaceOnUse" x1="256" x2="256" y1="512" y2="0"><stop stop-opacity="1" stop-color="#a8a8a8" offset="0"/><stop stop-opacity="1" stop-color="#ffffff" offset="1"/></linearGradient><linearGradient xmlns="http://www.w3.org/2000/svg" id="SVGID_2_" gradientUnits="userSpaceOnUse" x1="256" x2="256" y1="398" y2="114"><stop stop-opacity="1" stop-color="#6b6b6b" offset="0"/><stop stop-opacity="1" stop-color="#6b6b6b" offset="1"/></linearGradient><g xmlns="http://www.w3.org/2000/svg"><g><circle cx="256" cy="256" fill="url(#SVGID_1_)" r="256" data-original="url(#SVGID_1_)" style=""/></g><g><g><path d="m398.118 114h-124.353c-4.91 0-8.882 3.97-8.882 8.875v26.625h-63.813c-3.679-10.308-13.446-17.75-25.011-17.75-14.694 0-26.647 11.943-26.647 26.625 0 11.555 7.448 21.314 17.765 24.99v72.635h-53.294c-4.91 0-8.882 3.97-8.882 8.875v88.75c0 4.905 3.973 8.875 8.882 8.875h124.353c4.91 0 8.882-3.97 8.882-8.875v-26.625h63.813c3.679 10.308 13.446 17.75 25.011 17.75 14.694 0 26.647-11.943 26.647-26.625 0-11.555-7.448-21.314-17.765-24.99v-37.135h17.765c5.761 0 10.022-5.393 8.622-11.024l-1.683-6.726h-67.173l-1.683 6.726c-1.401 5.636 2.865 11.024 8.622 11.024h17.765v37.135c-7.525 2.682-13.445 8.597-16.129 16.115h-63.813v-44.375c0-4.905-3.973-8.875-8.882-8.875h-53.294v-72.635c7.525-2.682 13.445-8.597 16.129-16.115h63.813v44.375c0 4.905 3.973 8.875 8.882 8.875h124.353c4.91 0 8.882-3.97 8.882-8.875v-88.75c0-4.905-3.973-8.875-8.882-8.875zm-188.473 266.25h-67.173l-1.683 6.726c-1.401 5.636 2.865 11.024 8.622 11.024h53.294c5.761 0 10.022-5.393 8.622-11.024z" fill="url(#SVGID_2_)" data-original="url(#SVGID_2_)" style=""/></g></g></g></g></svg>
