<svg width="830" height="510" fill="none" xmlns="http://www.w3.org/2000/svg"><path fill="#F5F5F4" d="M0 0h830v510H0z"/><rect x="718.547" y="434.24" width="104.942" height="103.71" rx="4.5" transform="rotate(180 718.547 434.24)" fill="#fff" stroke="#393939"/><rect x="111.453" y="76.76" width="104.942" height="103.71" rx="4.5" fill="#fff" stroke="#393939"/><rect x="706.513" y="392.914" width="32.737" height="24.813" rx="1.7" transform="rotate(180 706.513 392.914)" fill="#393939" stroke="#9A9A9A" stroke-width=".6"/><rect x="703.534" y="390.208" width="18.035" height="1.655" rx=".828" transform="rotate(180 703.534 390.208)" fill="#fff"/><rect x="703.534" y="387.891" width="10.93" height="1.655" rx=".828" transform="rotate(180 703.534 387.891)" fill="#fff"/><rect x="703.534" y="372.759" width="25.139" height="1.952" rx=".976" transform="rotate(180 703.534 372.759)" fill="#fff"/><path stroke="#EEE" stroke-linecap="round" d="M688.529 366.481v-6.378M141.47 144.518v6.378M665.576 398.999v-38.896M164.424 112.001v38.895M643.104 399.131V360.71M186.896 111.869v38.42"/><g filter="url(#prefix__filter0_i)"><rect x="302.297" y="122.447" width="225.101" height="264.874" rx="10" fill="#393939"/><rect x="320.312" y="247.562" width="189.071" height="22.021" rx="9.5" fill="#1D1D1D" stroke="#A5A5A5"/><rect x="320.312" y="149.676" width="189.071" height="22.021" rx="9.5" fill="#1D1D1D" stroke="#A5A5A5"/><rect x="320.312" y="340.892" width="189.071" height="22.021" rx="9.5" fill="#1D1D1D" stroke="#A5A5A5"/></g><path d="M637.942 433.533h-19.298c-2.21 0-4-1.79-4-4v-94.298a4 4 0 014-4h12.855c-1.533 40.618-.214 62.904 6.443 102.298z" fill="#F8F8F8"/><rect x="718.337" y="307.355" width="104.942" height="103.71" rx="4.5" transform="rotate(180 718.337 307.355)" fill="#fff" stroke="#393939"/><path d="M637.486 306.672h-19.298a4 4 0 01-4-4v-94.299a4 4 0 014-4h12.855c-1.533 40.619-.214 62.905 6.443 102.299z" fill="#F8F8F8"/><rect x="718.337" y="180.47" width="104.942" height="103.71" rx="4.5" transform="rotate(180 718.337 180.47)" fill="#fff" stroke="#393939"/><path d="M637.486 179.787h-19.298a4 4 0 01-4-4V81.489a4 4 0 014-4h12.855c-1.533 40.618-.214 62.904 6.443 102.298z" fill="#F8F8F8"/><rect x="704.915" y="106.462" width="78.097" height="20.987" rx="1.7" transform="rotate(180 704.915 106.462)" fill="#393939" stroke="#9A9A9A" stroke-width=".6"/><rect x="626.817" y="139.619" width="26.32" height="28.965" rx="1.7" transform="rotate(-90 626.817 139.619)" fill="#EEE" stroke="#9A9A9A" stroke-width=".6"/><rect x="675.949" y="139.619" width="26.32" height="28.965" rx="1.7" transform="rotate(-90 675.949 139.619)" fill="#fff" stroke="#9A9A9A" stroke-width=".6"/><path stroke="#EEE" stroke-linecap="round" d="M690.465 111.106v-3.025M690.465 144.599v-3.024M640.8 144.599v-3.024M640.8 111.106v-3.025M659.17 128.015h13.391"/><rect x="704.914" y="171.776" width="78.097" height="25.359" rx="1.7" transform="rotate(180 704.914 171.776)" fill="#EEE" stroke="#9A9A9A" stroke-width=".6"/><rect x="698.593" y="100.886" width="19.128" height="1.928" rx=".964" transform="rotate(180 698.593 100.886)" fill="#fff"/><rect x="698.593" y="164.014" width="19.128" height="1.928" rx=".964" transform="rotate(180 698.593 164.014)" fill="#8C8C8C"/><rect x="698.593" y="97.029" width="11.477" height="1.928" rx=".964" transform="rotate(180 698.593 97.029)" fill="#fff"/><rect x="698.593" y="160.157" width="11.477" height="1.928" rx=".964" transform="rotate(180 698.593 160.157)" fill="#8C8C8C"/><rect x="698.593" y="92.979" width="26.779" height="1.928" rx=".964" transform="rotate(180 698.593 92.98)" fill="#fff"/><rect x="698.593" y="156.108" width="26.779" height="1.928" rx=".964" transform="rotate(180 698.593 156.108)" fill="#8C8C8C"/><path d="M135.131 77.466h-19.298a4 4 0 00-4 4v94.299a4 4 0 004 4h12.856c-1.534-40.619-.215-62.904 6.442-102.299z" fill="#F8F8F8"/><rect x="111.663" y="203.645" width="104.942" height="103.71" rx="4.5" fill="#fff" stroke="#393939"/><path d="M135.482 204.328h-19.298a4 4 0 00-4 4v94.298a4 4 0 004 4h12.856c-1.533-40.618-.214-62.904 6.442-102.298z" fill="#F8F8F8"/><rect x="111.663" y="330.529" width="104.942" height="103.71" rx="4.5" fill="#fff" stroke="#393939"/><path d="M135.482 331.212h-19.298a4 4 0 00-4 4v94.299a4 4 0 004 4h12.856c-1.533-40.619-.214-62.905 6.442-102.299z" fill="#F8F8F8"/><rect x="125.085" y="404.538" width="78.097" height="20.987" rx="1.7" fill="#393939" stroke="#9A9A9A" stroke-width=".6"/><rect x="203.183" y="371.38" width="26.32" height="28.965" rx="1.7" transform="rotate(90 203.183 371.38)" fill="#EEE" stroke="#9A9A9A" stroke-width=".6"/><rect x="154.051" y="371.38" width="26.32" height="28.965" rx="1.7" transform="rotate(90 154.051 371.38)" fill="#EEE" stroke="#9A9A9A" stroke-width=".6"/><path stroke="#EEE" stroke-linecap="round" d="M139.535 399.893v3.025M139.535 366.4v3.025M189.2 366.4v3.025M189.2 399.893v3.025M170.829 382.985h-13.39"/><rect x="125.086" y="339.223" width="78.097" height="25.359" rx="1.7" fill="#EEE" stroke="#9A9A9A" stroke-width=".6"/><rect x="131.406" y="410.114" width="19.128" height="1.928" rx=".964" fill="#fff"/><rect x="131.406" y="346.986" width="19.128" height="1.928" rx=".964" fill="#8C8C8C"/><rect x="131.406" y="413.971" width="11.477" height="1.928" rx=".964" fill="#fff"/><rect x="131.406" y="350.843" width="11.477" height="1.928" rx=".964" fill="#8C8C8C"/><rect x="131.406" y="418.02" width="26.779" height="1.928" rx=".964" fill="#fff"/><rect x="131.406" y="354.892" width="26.779" height="1.928" rx=".964" fill="#8C8C8C"/><rect x="704.914" y="231.599" width="78.097" height="20.987" rx="1.7" transform="rotate(-180 704.914 231.599)" fill="#fff" stroke="#9A9A9A" stroke-width=".6"/><rect x="693.205" y="223.428" width="13.389" height="5.738" rx="2.869" transform="rotate(-180 693.205 223.428)" fill="#8C8C8C"/><rect x="672.424" y="223.428" width="13.116" height="5.738" rx="2.869" transform="rotate(-180 672.424 223.428)" fill="#8C8C8C"/><rect x="651.916" y="223.428" width="13.389" height="5.738" rx="2.869" transform="rotate(-180 651.916 223.428)" fill="#8C8C8C"/><rect x="704.851" y="266.029" width="32.737" height="24.813" rx="1.7" transform="rotate(-180 704.851 266.029)" fill="#393939" stroke="#9A9A9A" stroke-width=".6"/><rect x="659.554" y="266.029" width="32.737" height="24.813" rx="1.7" transform="rotate(-180 659.554 266.029)" fill="#fff" stroke="#9A9A9A" stroke-width=".6"/><rect x="701.771" y="263.323" width="16.271" height="1.634" rx=".817" transform="rotate(-180 701.771 263.323)" fill="#fff"/><rect x="701.771" y="261.036" width="9.861" height="1.634" rx=".817" transform="rotate(-180 701.771 261.036)" fill="#fff"/><rect x="701.771" y="245.728" width="23.375" height="1.805" rx=".903" transform="rotate(-180 701.771 245.728)" fill="#fff"/><path stroke="#EEE" stroke-linecap="round" d="M690.465 239.597v-6.378"/><path stroke="#8C8C8C" stroke-linecap="round" d="M665.913 272.114v-36.588"/><path stroke="#EEE" stroke-linecap="round" d="M645.104 239.597v-6.378"/><rect x="704.852" y="300.164" width="78.097" height="25.359" rx="1.7" transform="rotate(-180 704.852 300.164)" fill="#EEE" stroke="#9A9A9A" stroke-width=".6"/><rect x="698.593" y="291.991" width="19.128" height="1.767" rx=".884" transform="rotate(-180 698.593 291.991)" fill="#fff"/><rect x="698.593" y="288.456" width="11.477" height="1.767" rx=".884" transform="rotate(-180 698.593 288.456)" fill="#fff"/><rect x="698.593" y="284.745" width="26.779" height="1.767" rx=".884" transform="rotate(-180 698.593 284.745)" fill="#fff"/><rect x="125.085" y="279.4" width="78.097" height="20.987" rx="1.7" fill="#fff" stroke="#9A9A9A" stroke-width=".6"/><rect x="136.795" y="287.571" width="13.389" height="5.738" rx="2.869" fill="#8C8C8C"/><rect x="157.576" y="287.571" width="13.116" height="5.738" rx="2.869" fill="#8C8C8C"/><rect x="178.083" y="287.571" width="13.389" height="5.738" rx="2.869" fill="#8C8C8C"/><rect x="125.148" y="244.97" width="32.737" height="24.813" rx="1.7" fill="#EEE" stroke="#9A9A9A" stroke-width=".6"/><rect x="170.446" y="244.97" width="32.737" height="24.813" rx="1.7" fill="#fff" stroke="#9A9A9A" stroke-width=".6"/><rect x="128.229" y="247.676" width="16.271" height="1.634" rx=".817" fill="#8C8C8C"/><rect x="128.229" y="249.964" width="9.861" height="1.634" rx=".817" fill="#8C8C8C"/><rect x="128.229" y="265.272" width="23.375" height="1.805" rx=".903" fill="#8C8C8C"/><path stroke="#EEE" stroke-linecap="round" d="M139.535 271.403v6.377M164.086 238.885v36.588M184.895 271.403v6.377"/><rect x="125.148" y="210.836" width="78.097" height="25.359" rx="1.7" fill="#F5F5F4" stroke="#9A9A9A" stroke-width=".6"/><rect x="131.406" y="219.008" width="19.128" height="1.767" rx=".884" fill="#8C8C8C"/><rect x="131.406" y="222.543" width="11.477" height="1.767" rx=".884" fill="#8C8C8C"/><rect x="131.406" y="226.255" width="26.779" height="1.767" rx=".884" fill="#8C8C8C"/><path stroke="#9A9A9A" d="M666.598 330.029v-22.174M163.402 180.97v22.174M666.598 203.145v-22.174M163.402 307.855v22.174"/><rect x="706.218" y="427.048" width="78.097" height="25.359" rx="1.7" transform="rotate(180 706.218 427.048)" fill="#EEE" stroke="#9A9A9A" stroke-width=".6"/><rect x="123.782" y="83.951" width="78.097" height="25.359" rx="1.7" fill="#EEE" stroke="#9A9A9A" stroke-width=".6"/><rect x="698.594" y="419.207" width="19.128" height="1.898" rx=".949" transform="rotate(180 698.594 419.207)" fill="#8C8C8C"/><rect x="137.25" y="91.792" width="19.128" height="1.898" rx=".949" fill="#8C8C8C"/><rect x="698.594" y="415.412" width="11.477" height="1.898" rx=".949" transform="rotate(180 698.594 415.412)" fill="#8C8C8C"/><rect x="137.25" y="95.587" width="11.477" height="1.898" rx=".949" fill="#8C8C8C"/><rect x="698.594" y="411.427" width="26.779" height="1.898" rx=".949" transform="rotate(180 698.594 411.427)" fill="#8C8C8C"/><rect x="137.25" y="99.572" width="26.779" height="1.898" rx=".949" fill="#8C8C8C"/><rect x="706.513" y="357.066" width="78.612" height="19.569" rx="1.7" transform="rotate(180 706.513 357.066)" stroke="#9A9A9A" stroke-width=".6"/><rect x="123.486" y="153.934" width="78.612" height="19.569" rx="1.7" stroke="#9A9A9A" stroke-width=".6"/><rect x="695.337" y="350.313" width="13.389" height="5.738" rx="2.869" transform="rotate(180 695.337 350.313)" fill="#8C8C8C"/><rect x="134.663" y="160.687" width="13.389" height="5.738" rx="2.869" fill="#8C8C8C"/><rect x="675.389" y="350.313" width="13.116" height="5.738" rx="2.869" transform="rotate(180 675.389 350.313)" fill="#8C8C8C"/><rect x="154.61" y="160.687" width="13.116" height="5.738" rx="2.869" fill="#8C8C8C"/><rect x="654.076" y="350.313" width="13.389" height="5.738" rx="2.869" transform="rotate(180 654.076 350.313)" fill="#8C8C8C"/><rect x="175.924" y="160.687" width="13.389" height="5.738" rx="2.869" fill="#8C8C8C"/><path stroke="#393939" stroke-width="2" d="M319.964 162.019H217.105M612.895 107.762H215.356M612.895 399H215.356M612.895 162.019h-102.86M319.964 258.106H217.105"/><path stroke="#9A9A9A" stroke-width="2" d="M612.895 258.106h-102.86"/><path stroke="#393939" stroke-width="2" d="M319.964 351.313H217.105"/><path stroke="#393939" d="M612.895 350.813h-102.86"/><rect x="123.336" y="117.936" width="33.037" height="25.113" rx="1.85" fill="#393939" stroke="#8C8C8C" stroke-width=".3"/><rect x="126.465" y="120.792" width="18.035" height="1.655" rx=".828" fill="#fff"/><rect x="126.465" y="123.109" width="10.93" height="1.655" rx=".828" fill="#fff"/><rect x="126.465" y="138.24" width="25.139" height="1.952" rx=".976" fill="#fff"/><circle cx="334.372" cy="161.019" r="5.709" fill="#F5F5F4" stroke="#A5A5A5"/><circle cx="497.742" cy="161.019" r="5.709" fill="#F5F5F4" stroke="#A5A5A5"/><circle cx="333.373" cy="258.572" r="4.71" fill="#F5F5F4" stroke="#A5A5A5"/><circle cx="333.373" cy="351.61" r="4.71" fill="#F5F5F4" stroke="#A5A5A5"/><circle cx="496.743" cy="258.572" r="4.71" fill="#F5F5F4" stroke="#A5A5A5"/><circle cx="496.743" cy="351.61" r="4.71" fill="#F5F5F4" stroke="#A5A5A5"/><defs><filter id="prefix__filter0_i" x="302.297" y="122.447" width="226.101" height="265.874" filterUnits="userSpaceOnUse" color-interpolation-filters="sRGB"><feFlood flood-opacity="0" result="BackgroundImageFix"/><feBlend in="SourceGraphic" in2="BackgroundImageFix" result="shape"/><feColorMatrix in="SourceAlpha" values="0 0 0 0 0 0 0 0 0 0 0 0 0 0 0 0 0 0 127 0" result="hardAlpha"/><feOffset dx="4" dy="3"/><feGaussianBlur stdDeviation=".5"/><feComposite in2="hardAlpha" operator="arithmetic" k2="-1" k3="1"/><feColorMatrix values="0 0 0 0 0 0 0 0 0 0 0 0 0 0 0 0 0 0 0.25 0"/><feBlend in2="shape" result="effect1_innerShadow"/></filter></defs></svg>
