<svg width="634" height="177" viewBox="0 0 634 177" fill="none" xmlns="http://www.w3.org/2000/svg">
<g clip-path="url(#clip0)">
<path d="M128.476 88.5002C128.476 53.9874 100.498 26.0092 65.9847 26.0092C31.4718 26.0092 3.49365 53.9874 3.49365 88.5002" stroke="#ECECEC" stroke-width="7"/>
<path d="M128.476 88.5002C128.476 123.013 156.454 150.991 190.967 150.991C225.48 150.991 253.458 123.013 253.458 88.5002" stroke="#ECECEC" stroke-width="7"/>
<path d="M378.44 88.5002C378.44 53.9874 350.462 26.0092 315.949 26.0092C281.436 26.0092 253.458 53.9874 253.458 88.5002" stroke="#ECECEC" stroke-width="7"/>
<path d="M628.405 88.5002C628.405 53.9874 600.427 26.0092 565.914 26.0092C531.401 26.0092 503.423 53.9874 503.423 88.5002" stroke="#ECECEC" stroke-width="7"/>
<path d="M378.441 88.5002C378.441 123.013 406.419 150.991 440.932 150.991C475.444 150.991 503.423 123.013 503.423 88.5002" stroke="#ECECEC" stroke-width="7"/>
<path d="M165.858 91.6548H167.346L167.934 89.7828H171.342L171.936 91.6548H173.424L170.7 83.0148H168.582L165.858 91.6548ZM168.36 88.4328L169.626 84.4128L170.91 88.4328H168.36ZM174.497 91.6548H175.961V88.3248C175.961 87.8008 176.035 87.3968 176.183 87.1128C176.335 86.8248 176.527 86.6268 176.759 86.5188C176.995 86.4068 177.235 86.3508 177.479 86.3508C177.823 86.3508 178.097 86.4268 178.301 86.5788C178.505 86.7268 178.655 86.9168 178.751 87.1488C178.851 87.3768 178.915 87.6148 178.943 87.8628C178.975 88.1108 178.991 88.3348 178.991 88.5348V91.6548H180.455V88.0368C180.455 87.8848 180.441 87.6828 180.413 87.4308C180.389 87.1788 180.333 86.9128 180.245 86.6328C180.157 86.3528 180.021 86.0888 179.837 85.8408C179.653 85.5888 179.403 85.3848 179.087 85.2288C178.775 85.0688 178.381 84.9888 177.905 84.9888C177.437 84.9888 177.025 85.0708 176.669 85.2348C176.317 85.3948 176.023 85.6148 175.787 85.8948V85.1748H174.497V91.6548ZM183.833 91.8348C184.349 91.8348 184.787 91.7508 185.147 91.5828C185.511 91.4108 185.831 91.1448 186.107 90.7848V91.6548H187.373V87.6768C187.373 87.3968 187.361 87.1388 187.337 86.9028C187.313 86.6628 187.243 86.4288 187.127 86.2008C186.915 85.7728 186.589 85.4648 186.149 85.2768C185.713 85.0888 185.207 84.9948 184.631 84.9948C183.871 84.9948 183.265 85.1608 182.813 85.4928C182.361 85.8248 182.055 86.2648 181.895 86.8128L183.215 87.2268C183.323 86.8948 183.513 86.6608 183.785 86.5248C184.057 86.3888 184.339 86.3208 184.631 86.3208C185.071 86.3208 185.395 86.4108 185.603 86.5908C185.811 86.7668 185.929 87.0408 185.957 87.4128C185.389 87.4968 184.861 87.5788 184.373 87.6588C183.889 87.7348 183.477 87.8288 183.137 87.9408C182.625 88.1168 182.251 88.3668 182.015 88.6908C181.779 89.0108 181.661 89.4068 181.661 89.8788C181.661 90.2348 181.743 90.5608 181.907 90.8568C182.075 91.1528 182.321 91.3908 182.645 91.5708C182.969 91.7468 183.365 91.8348 183.833 91.8348ZM184.121 90.6828C183.781 90.6828 183.521 90.6048 183.341 90.4488C183.165 90.2928 183.077 90.0968 183.077 89.8608C183.077 89.6488 183.145 89.4768 183.281 89.3448C183.421 89.2128 183.615 89.1008 183.863 89.0088C184.091 88.9328 184.365 88.8668 184.685 88.8108C185.005 88.7508 185.423 88.6808 185.939 88.6008C185.935 88.7528 185.925 88.9228 185.909 89.1108C185.893 89.2948 185.855 89.4608 185.795 89.6088C185.747 89.7568 185.653 89.9148 185.513 90.0828C185.377 90.2508 185.193 90.3928 184.961 90.5088C184.729 90.6248 184.449 90.6828 184.121 90.6828ZM189.055 91.6548H190.501V82.8348H189.055V91.6548ZM193.15 94.5348H194.506L198.118 85.1748H196.672L194.914 89.8128L193.102 85.1748H191.596L194.218 91.6068L193.15 94.5348ZM198.413 91.6548H203.951V90.3888H200.675L204.095 85.3788V85.1748H198.761V86.4408H201.845L198.413 91.4568V91.6548ZM207.877 91.8348C208.501 91.8348 209.071 91.6748 209.587 91.3548C210.107 91.0308 210.491 90.5748 210.739 89.9868L209.311 89.5548C209.023 90.1708 208.517 90.4788 207.793 90.4788C207.301 90.4788 206.913 90.3368 206.629 90.0528C206.345 89.7648 206.175 89.3528 206.119 88.8168H210.811C210.867 88.0368 210.781 87.3608 210.553 86.7888C210.325 86.2168 209.975 85.7748 209.503 85.4628C209.035 85.1508 208.465 84.9948 207.793 84.9948C207.157 84.9948 206.597 85.1388 206.113 85.4268C205.629 85.7108 205.251 86.1148 204.979 86.6388C204.707 87.1628 204.571 87.7788 204.571 88.4868C204.571 89.1428 204.709 89.7228 204.985 90.2268C205.265 90.7308 205.653 91.1248 206.149 91.4088C206.645 91.6928 207.221 91.8348 207.877 91.8348ZM207.853 86.2608C208.301 86.2608 208.645 86.3788 208.885 86.6148C209.129 86.8468 209.283 87.2168 209.347 87.7248H206.155C206.327 86.7488 206.893 86.2608 207.853 86.2608Z" fill="#666666"/>
<path d="M414.811 91.6548H416.257V83.0148H414.811V91.6548ZM418.042 91.6548H419.506V88.3248C419.506 87.8008 419.58 87.3968 419.728 87.1128C419.88 86.8248 420.072 86.6268 420.304 86.5188C420.54 86.4068 420.78 86.3508 421.024 86.3508C421.368 86.3508 421.642 86.4268 421.846 86.5788C422.05 86.7268 422.2 86.9168 422.296 87.1488C422.396 87.3768 422.46 87.6148 422.488 87.8628C422.52 88.1108 422.536 88.3348 422.536 88.5348V91.6548H424V88.0368C424 87.8848 423.986 87.6828 423.958 87.4308C423.934 87.1788 423.878 86.9128 423.79 86.6328C423.702 86.3528 423.566 86.0888 423.382 85.8408C423.198 85.5888 422.948 85.3848 422.632 85.2288C422.32 85.0688 421.926 84.9888 421.45 84.9888C420.982 84.9888 420.57 85.0708 420.214 85.2348C419.862 85.3948 419.568 85.6148 419.332 85.8948V85.1748H418.042V91.6548ZM429.364 91.6548V90.4428C428.96 90.5028 428.6 90.5188 428.284 90.4908C427.968 90.4628 427.738 90.3288 427.594 90.0888C427.518 89.9648 427.476 89.8048 427.468 89.6088C427.464 89.4088 427.462 89.1808 427.462 88.9248V86.3088H429.364V85.1748H427.462V83.3748H426.022V85.1748H424.846V86.3088H426.022V89.0088C426.022 89.3808 426.026 89.7128 426.034 90.0048C426.042 90.2928 426.12 90.5768 426.268 90.8568C426.436 91.1648 426.682 91.3908 427.006 91.5348C427.33 91.6748 427.696 91.7488 428.104 91.7568C428.516 91.7688 428.936 91.7348 429.364 91.6548ZM433.375 91.8348C433.999 91.8348 434.569 91.6748 435.085 91.3548C435.605 91.0308 435.989 90.5748 436.237 89.9868L434.809 89.5548C434.521 90.1708 434.015 90.4788 433.291 90.4788C432.799 90.4788 432.411 90.3368 432.127 90.0528C431.843 89.7648 431.673 89.3528 431.617 88.8168H436.309C436.365 88.0368 436.279 87.3608 436.051 86.7888C435.823 86.2168 435.473 85.7748 435.001 85.4628C434.533 85.1508 433.963 84.9948 433.291 84.9948C432.655 84.9948 432.095 85.1388 431.611 85.4268C431.127 85.7108 430.749 86.1148 430.477 86.6388C430.205 87.1628 430.069 87.7788 430.069 88.4868C430.069 89.1428 430.207 89.7228 430.483 90.2268C430.763 90.7308 431.151 91.1248 431.647 91.4088C432.143 91.6928 432.719 91.8348 433.375 91.8348ZM433.351 86.2608C433.799 86.2608 434.143 86.3788 434.383 86.6148C434.627 86.8468 434.781 87.2168 434.845 87.7248H431.653C431.825 86.7488 432.391 86.2608 433.351 86.2608ZM440.246 91.8348C440.582 91.8348 440.888 91.7888 441.164 91.6968C441.444 91.6088 441.694 91.4848 441.914 91.3248V91.9428C441.922 92.4028 441.78 92.7508 441.488 92.9868C441.2 93.2228 440.83 93.3408 440.378 93.3408C440.122 93.3408 439.88 93.2828 439.652 93.1668C439.424 93.0508 439.25 92.8768 439.13 92.6448L437.798 93.3048C438.05 93.7448 438.406 94.0888 438.866 94.3368C439.33 94.5888 439.832 94.7148 440.372 94.7148C441.104 94.7148 441.732 94.5648 442.256 94.2648C442.784 93.9688 443.122 93.5068 443.27 92.8788C443.302 92.7348 443.324 92.5888 443.336 92.4408C443.352 92.2928 443.36 92.1348 443.36 91.9668V85.1748H442.094V85.6428C441.866 85.4348 441.602 85.2748 441.302 85.1628C441.002 85.0508 440.668 84.9948 440.3 84.9948C439.688 84.9948 439.156 85.1428 438.704 85.4388C438.256 85.7348 437.908 86.1408 437.66 86.6568C437.412 87.1728 437.288 87.7588 437.288 88.4148C437.288 89.0628 437.41 89.6448 437.654 90.1608C437.898 90.6768 438.242 91.0848 438.686 91.3848C439.13 91.6848 439.65 91.8348 440.246 91.8348ZM440.468 90.5388C440.092 90.5388 439.782 90.4448 439.538 90.2568C439.294 90.0648 439.112 89.8088 438.992 89.4888C438.876 89.1688 438.818 88.8108 438.818 88.4148C438.818 88.0228 438.878 87.6668 438.998 87.3468C439.122 87.0228 439.308 86.7668 439.556 86.5788C439.808 86.3868 440.128 86.2908 440.516 86.2908C441.068 86.2908 441.468 86.4868 441.716 86.8788C441.968 87.2708 442.094 87.7828 442.094 88.4148C442.094 89.0428 441.968 89.5548 441.716 89.9508C441.468 90.3428 441.052 90.5388 440.468 90.5388ZM445.043 91.6548H446.495V88.3608C446.495 87.9848 446.563 87.6508 446.699 87.3588C446.839 87.0668 447.057 86.8408 447.353 86.6808C447.553 86.5648 447.777 86.4968 448.025 86.4768C448.273 86.4528 448.495 86.4688 448.691 86.5248V85.1748C448.399 85.1308 448.099 85.1368 447.791 85.1928C447.483 85.2448 447.209 85.3528 446.969 85.5168C446.833 85.6008 446.711 85.7028 446.603 85.8228C446.495 85.9388 446.401 86.0688 446.321 86.2128V85.1748H445.043V91.6548ZM451.495 91.8348C452.011 91.8348 452.449 91.7508 452.809 91.5828C453.173 91.4108 453.493 91.1448 453.769 90.7848V91.6548H455.035V87.6768C455.035 87.3968 455.023 87.1388 454.999 86.9028C454.975 86.6628 454.905 86.4288 454.789 86.2008C454.577 85.7728 454.251 85.4648 453.811 85.2768C453.375 85.0888 452.869 84.9948 452.293 84.9948C451.533 84.9948 450.927 85.1608 450.475 85.4928C450.023 85.8248 449.717 86.2648 449.557 86.8128L450.877 87.2268C450.985 86.8948 451.175 86.6608 451.447 86.5248C451.719 86.3888 452.001 86.3208 452.293 86.3208C452.733 86.3208 453.057 86.4108 453.265 86.5908C453.473 86.7668 453.591 87.0408 453.619 87.4128C453.051 87.4968 452.523 87.5788 452.035 87.6588C451.551 87.7348 451.139 87.8288 450.799 87.9408C450.287 88.1168 449.913 88.3668 449.677 88.6908C449.441 89.0108 449.323 89.4068 449.323 89.8788C449.323 90.2348 449.405 90.5608 449.569 90.8568C449.737 91.1528 449.983 91.3908 450.307 91.5708C450.631 91.7468 451.027 91.8348 451.495 91.8348ZM451.783 90.6828C451.443 90.6828 451.183 90.6048 451.003 90.4488C450.827 90.2928 450.739 90.0968 450.739 89.8608C450.739 89.6488 450.807 89.4768 450.943 89.3448C451.083 89.2128 451.277 89.1008 451.525 89.0088C451.753 88.9328 452.027 88.8668 452.347 88.8108C452.667 88.7508 453.085 88.6808 453.601 88.6008C453.597 88.7528 453.587 88.9228 453.571 89.1108C453.555 89.2948 453.517 89.4608 453.457 89.6088C453.409 89.7568 453.315 89.9148 453.175 90.0828C453.039 90.2508 452.855 90.3928 452.623 90.5088C452.391 90.6248 452.111 90.6828 451.783 90.6828ZM460.395 91.6548V90.4428C459.991 90.5028 459.631 90.5188 459.315 90.4908C458.999 90.4628 458.769 90.3288 458.625 90.0888C458.549 89.9648 458.507 89.8048 458.499 89.6088C458.495 89.4088 458.493 89.1808 458.493 88.9248V86.3088H460.395V85.1748H458.493V83.3748H457.053V85.1748H455.877V86.3088H457.053V89.0088C457.053 89.3808 457.057 89.7128 457.065 90.0048C457.073 90.2928 457.151 90.5768 457.299 90.8568C457.467 91.1648 457.713 91.3908 458.037 91.5348C458.361 91.6748 458.727 91.7488 459.135 91.7568C459.547 91.7688 459.967 91.7348 460.395 91.6548ZM464.407 91.8348C465.031 91.8348 465.601 91.6748 466.117 91.3548C466.637 91.0308 467.021 90.5748 467.269 89.9868L465.841 89.5548C465.553 90.1708 465.047 90.4788 464.323 90.4788C463.831 90.4788 463.443 90.3368 463.159 90.0528C462.875 89.7648 462.705 89.3528 462.649 88.8168H467.341C467.397 88.0368 467.311 87.3608 467.083 86.7888C466.855 86.2168 466.505 85.7748 466.033 85.4628C465.565 85.1508 464.995 84.9948 464.323 84.9948C463.687 84.9948 463.127 85.1388 462.643 85.4268C462.159 85.7108 461.781 86.1148 461.509 86.6388C461.237 87.1628 461.101 87.7788 461.101 88.4868C461.101 89.1428 461.239 89.7228 461.515 90.2268C461.795 90.7308 462.183 91.1248 462.679 91.4088C463.175 91.6928 463.751 91.8348 464.407 91.8348ZM464.383 86.2608C464.831 86.2608 465.175 86.3788 465.415 86.6148C465.659 86.8468 465.813 87.2168 465.877 87.7248H462.685C462.857 86.7488 463.423 86.2608 464.383 86.2608Z" fill="#666666"/>
<path d="M546.099 91.6548H547.545V88.6368H549.597L551.061 91.6548H552.699L551.103 88.3788C551.595 88.1588 551.961 87.8248 552.201 87.3768C552.441 86.9288 552.561 86.4128 552.561 85.8288C552.561 85.1128 552.381 84.5028 552.021 83.9988C551.665 83.4908 551.111 83.1788 550.359 83.0628C550.247 83.0428 550.125 83.0308 549.993 83.0268C549.861 83.0188 549.753 83.0148 549.669 83.0148H546.099V91.6548ZM547.545 87.2868V84.3708H549.609C549.689 84.3708 549.779 84.3748 549.879 84.3828C549.979 84.3908 550.071 84.4048 550.155 84.4248C550.395 84.4848 550.583 84.5928 550.719 84.7488C550.859 84.9008 550.957 85.0728 551.013 85.2648C551.073 85.4568 551.103 85.6448 551.103 85.8288C551.103 86.0128 551.073 86.2008 551.013 86.3928C550.957 86.5848 550.859 86.7568 550.719 86.9088C550.583 87.0608 550.395 87.1668 550.155 87.2268C550.071 87.2508 549.979 87.2668 549.879 87.2748C549.779 87.2828 549.689 87.2868 549.609 87.2868H547.545ZM556.967 91.8348C557.591 91.8348 558.161 91.6748 558.677 91.3548C559.197 91.0308 559.581 90.5748 559.829 89.9868L558.401 89.5548C558.113 90.1708 557.607 90.4788 556.883 90.4788C556.391 90.4788 556.003 90.3368 555.719 90.0528C555.435 89.7648 555.265 89.3528 555.209 88.8168H559.901C559.957 88.0368 559.871 87.3608 559.643 86.7888C559.415 86.2168 559.065 85.7748 558.593 85.4628C558.125 85.1508 557.555 84.9948 556.883 84.9948C556.247 84.9948 555.687 85.1388 555.203 85.4268C554.719 85.7108 554.341 86.1148 554.069 86.6388C553.797 87.1628 553.661 87.7788 553.661 88.4868C553.661 89.1428 553.799 89.7228 554.075 90.2268C554.355 90.7308 554.743 91.1248 555.239 91.4088C555.735 91.6928 556.311 91.8348 556.967 91.8348ZM556.943 86.2608C557.391 86.2608 557.735 86.3788 557.975 86.6148C558.219 86.8468 558.373 87.2168 558.437 87.7248H555.245C555.417 86.7488 555.983 86.2608 556.943 86.2608ZM563.67 91.8408C564.138 91.8408 564.548 91.7608 564.9 91.6008C565.256 91.4368 565.552 91.2148 565.788 90.9348V91.6548H567.066V85.1748H565.614V88.5048C565.614 89.0288 565.538 89.4348 565.386 89.7228C565.238 90.0068 565.048 90.2048 564.816 90.3168C564.584 90.4248 564.344 90.4788 564.096 90.4788C563.752 90.4788 563.478 90.4048 563.274 90.2568C563.07 90.1048 562.918 89.9148 562.818 89.6868C562.722 89.4548 562.658 89.2148 562.626 88.9668C562.598 88.7188 562.584 88.4948 562.584 88.2948V85.1748H561.12V88.7928C561.12 88.9448 561.132 89.1468 561.156 89.3988C561.184 89.6508 561.242 89.9168 561.33 90.1968C561.418 90.4768 561.554 90.7428 561.738 90.9948C561.922 91.2428 562.17 91.4468 562.482 91.6068C562.798 91.7628 563.194 91.8408 563.67 91.8408ZM571.254 91.8348C572.09 91.8348 572.744 91.6488 573.216 91.2768C573.692 90.9048 573.93 90.3928 573.93 89.7408C573.93 89.2368 573.77 88.8408 573.45 88.5528C573.134 88.2648 572.588 88.0208 571.812 87.8208C571.308 87.6928 570.928 87.5848 570.672 87.4968C570.42 87.4088 570.252 87.3208 570.168 87.2328C570.084 87.1448 570.042 87.0388 570.042 86.9148C570.042 86.6988 570.146 86.5308 570.354 86.4108C570.562 86.2868 570.836 86.2328 571.176 86.2488C571.528 86.2688 571.81 86.3588 572.022 86.5188C572.238 86.6788 572.366 86.8968 572.406 87.1728L573.882 86.9088C573.802 86.3248 573.516 85.8608 573.024 85.5168C572.532 85.1688 571.908 84.9948 571.152 84.9948C570.38 84.9948 569.762 85.1748 569.298 85.5348C568.834 85.8948 568.602 86.3788 568.602 86.9868C568.602 87.4708 568.764 87.8528 569.088 88.1328C569.416 88.4128 569.986 88.6588 570.798 88.8708C571.286 88.9988 571.646 89.1068 571.878 89.1948C572.114 89.2788 572.268 89.3648 572.34 89.4528C572.412 89.5408 572.448 89.6588 572.448 89.8068C572.448 90.0468 572.352 90.2368 572.16 90.3768C571.968 90.5128 571.7 90.5808 571.356 90.5808C570.96 90.5808 570.63 90.4888 570.366 90.3048C570.106 90.1208 569.94 89.8688 569.868 89.5488L568.392 89.7768C568.5 90.4288 568.804 90.9348 569.304 91.2948C569.804 91.6548 570.454 91.8348 571.254 91.8348ZM578.19 91.8348C578.814 91.8348 579.384 91.6748 579.9 91.3548C580.42 91.0308 580.804 90.5748 581.052 89.9868L579.624 89.5548C579.336 90.1708 578.83 90.4788 578.106 90.4788C577.614 90.4788 577.226 90.3368 576.942 90.0528C576.658 89.7648 576.488 89.3528 576.432 88.8168H581.124C581.18 88.0368 581.094 87.3608 580.866 86.7888C580.638 86.2168 580.288 85.7748 579.816 85.4628C579.348 85.1508 578.778 84.9948 578.106 84.9948C577.47 84.9948 576.91 85.1388 576.426 85.4268C575.942 85.7108 575.564 86.1148 575.292 86.6388C575.02 87.1628 574.884 87.7788 574.884 88.4868C574.884 89.1428 575.022 89.7228 575.298 90.2268C575.578 90.7308 575.966 91.1248 576.462 91.4088C576.958 91.6928 577.534 91.8348 578.19 91.8348ZM578.166 86.2608C578.614 86.2608 578.958 86.3788 579.198 86.6148C579.442 86.8468 579.596 87.2168 579.66 87.7248H576.468C576.64 86.7488 577.206 86.2608 578.166 86.2608Z" fill="#666666"/>
<path d="M48.1957 91.8348C49.1877 91.8348 50.0157 91.5868 50.6797 91.0908C51.3477 90.5908 51.8157 89.9188 52.0837 89.0748L50.6257 88.6728C50.4577 89.2328 50.1717 89.6728 49.7677 89.9928C49.3637 90.3128 48.8397 90.4728 48.1957 90.4728C47.3277 90.4728 46.6737 90.1868 46.2337 89.6148C45.7977 89.0388 45.5797 88.2788 45.5797 87.3348C45.5837 86.3908 45.8037 85.6328 46.2397 85.0608C46.6757 84.4848 47.3277 84.1968 48.1957 84.1968C48.8397 84.1968 49.3637 84.3568 49.7677 84.6768C50.1717 84.9968 50.4577 85.4368 50.6257 85.9968L52.0837 85.5948C51.8157 84.7468 51.3477 84.0748 50.6797 83.5788C50.0157 83.0828 49.1877 82.8348 48.1957 82.8348C47.3357 82.8348 46.5957 83.0248 45.9757 83.4048C45.3597 83.7808 44.8857 84.3068 44.5537 84.9828C44.2257 85.6548 44.0617 86.4388 44.0617 87.3348C44.0617 88.2268 44.2257 89.0108 44.5537 89.6868C44.8857 90.3628 45.3597 90.8908 45.9757 91.2708C46.5957 91.6468 47.3357 91.8348 48.1957 91.8348ZM56.263 91.8348C56.911 91.8348 57.477 91.6908 57.961 91.4028C58.445 91.1108 58.821 90.7088 59.089 90.1968C59.361 89.6808 59.497 89.0868 59.497 88.4148C59.497 87.7468 59.363 87.1568 59.095 86.6448C58.827 86.1288 58.451 85.7248 57.967 85.4328C57.483 85.1408 56.915 84.9948 56.263 84.9948C55.627 84.9948 55.067 85.1388 54.583 85.4268C54.099 85.7148 53.721 86.1148 53.449 86.6268C53.177 87.1388 53.041 87.7348 53.041 88.4148C53.041 89.0828 53.173 89.6748 53.437 90.1908C53.705 90.7028 54.081 91.1048 54.565 91.3968C55.049 91.6888 55.615 91.8348 56.263 91.8348ZM56.263 90.4788C55.707 90.4788 55.285 90.2928 54.997 89.9208C54.713 89.5448 54.571 89.0428 54.571 88.4148C54.571 87.8028 54.707 87.3068 54.979 86.9268C55.255 86.5428 55.683 86.3508 56.263 86.3508C56.831 86.3508 57.257 86.5388 57.541 86.9148C57.825 87.2868 57.967 87.7868 57.967 88.4148C57.967 89.0228 57.825 89.5188 57.541 89.9028C57.261 90.2868 56.835 90.4788 56.263 90.4788ZM60.939 91.6548H62.385V82.8348H60.939V91.6548ZM64.3023 91.6548H65.7483V82.8348H64.3023V91.6548ZM70.4916 91.8348C71.1156 91.8348 71.6856 91.6748 72.2016 91.3548C72.7216 91.0308 73.1056 90.5748 73.3536 89.9868L71.9256 89.5548C71.6376 90.1708 71.1316 90.4788 70.4076 90.4788C69.9156 90.4788 69.5276 90.3368 69.2436 90.0528C68.9596 89.7648 68.7896 89.3528 68.7336 88.8168H73.4256C73.4816 88.0368 73.3956 87.3608 73.1676 86.7888C72.9396 86.2168 72.5896 85.7748 72.1176 85.4628C71.6496 85.1508 71.0796 84.9948 70.4076 84.9948C69.7716 84.9948 69.2116 85.1388 68.7276 85.4268C68.2436 85.7108 67.8656 86.1148 67.5936 86.6388C67.3216 87.1628 67.1856 87.7788 67.1856 88.4868C67.1856 89.1428 67.3236 89.7228 67.5996 90.2268C67.8796 90.7308 68.2676 91.1248 68.7636 91.4088C69.2596 91.6928 69.8356 91.8348 70.4916 91.8348ZM70.4676 86.2608C70.9156 86.2608 71.2596 86.3788 71.4996 86.6148C71.7436 86.8468 71.8976 87.2168 71.9616 87.7248H68.7696C68.9416 86.7488 69.5076 86.2608 70.4676 86.2608ZM77.5783 91.8348C78.3023 91.8348 78.9143 91.6588 79.4143 91.3068C79.9143 90.9508 80.2643 90.4428 80.4643 89.7828L78.9883 89.4528C78.8763 89.7848 78.7083 90.0388 78.4843 90.2148C78.2643 90.3908 77.9623 90.4788 77.5783 90.4788C77.0343 90.4788 76.6243 90.2888 76.3483 89.9088C76.0763 89.5288 75.9383 89.0308 75.9343 88.4148C75.9383 87.8188 76.0703 87.3268 76.3303 86.9388C76.5943 86.5468 77.0103 86.3508 77.5783 86.3508C77.9103 86.3508 78.2063 86.4488 78.4663 86.6448C78.7263 86.8368 78.9123 87.1068 79.0243 87.4548L80.4643 87.0648C80.3123 86.4248 79.9803 85.9208 79.4683 85.5528C78.9563 85.1808 78.3323 84.9948 77.5963 84.9948C76.9403 84.9948 76.3743 85.1428 75.8983 85.4388C75.4223 85.7308 75.0543 86.1348 74.7943 86.6508C74.5383 87.1628 74.4083 87.7508 74.4043 88.4148C74.4083 89.0668 74.5343 89.6508 74.7823 90.1668C75.0343 90.6828 75.3963 91.0908 75.8683 91.3908C76.3403 91.6868 76.9103 91.8348 77.5783 91.8348ZM85.4647 91.6548V90.4428C85.0607 90.5028 84.7007 90.5188 84.3847 90.4908C84.0687 90.4628 83.8387 90.3288 83.6947 90.0888C83.6187 89.9648 83.5767 89.8048 83.5687 89.6088C83.5647 89.4088 83.5627 89.1808 83.5627 88.9248V86.3088H85.4647V85.1748H83.5627V83.3748H82.1227V85.1748H80.9467V86.3088H82.1227V89.0088C82.1227 89.3808 82.1267 89.7128 82.1347 90.0048C82.1427 90.2928 82.2207 90.5768 82.3687 90.8568C82.5367 91.1648 82.7827 91.3908 83.1067 91.5348C83.4307 91.6748 83.7967 91.7488 84.2047 91.7568C84.6167 91.7688 85.0367 91.7348 85.4647 91.6548Z" fill="#666666"/>
<path d="M292.948 91.6548H294.394V88.6368H296.518C296.598 88.6368 296.704 88.6328 296.836 88.6248C296.972 88.6168 297.096 88.6048 297.208 88.5888C297.952 88.4728 298.504 88.1628 298.864 87.6588C299.228 87.1508 299.41 86.5408 299.41 85.8288C299.41 85.1128 299.23 84.5028 298.87 83.9988C298.514 83.4908 297.96 83.1788 297.208 83.0628C297.096 83.0428 296.974 83.0308 296.842 83.0268C296.71 83.0188 296.602 83.0148 296.518 83.0148H292.948V91.6548ZM294.394 87.2868V84.3708H296.458C296.538 84.3708 296.628 84.3748 296.728 84.3828C296.828 84.3908 296.92 84.4048 297.004 84.4248C297.244 84.4848 297.432 84.5928 297.568 84.7488C297.708 84.9008 297.806 85.0728 297.862 85.2648C297.922 85.4568 297.952 85.6448 297.952 85.8288C297.952 86.0128 297.922 86.2008 297.862 86.3928C297.806 86.5848 297.708 86.7568 297.568 86.9088C297.432 87.0608 297.244 87.1668 297.004 87.2268C296.92 87.2508 296.828 87.2668 296.728 87.2748C296.628 87.2828 296.538 87.2868 296.458 87.2868H294.394ZM303.042 91.8408C303.51 91.8408 303.92 91.7608 304.272 91.6008C304.628 91.4368 304.924 91.2148 305.16 90.9348V91.6548H306.438V85.1748H304.986V88.5048C304.986 89.0288 304.91 89.4348 304.758 89.7228C304.61 90.0068 304.42 90.2048 304.188 90.3168C303.956 90.4248 303.716 90.4788 303.468 90.4788C303.124 90.4788 302.85 90.4048 302.646 90.2568C302.442 90.1048 302.29 89.9148 302.19 89.6868C302.094 89.4548 302.03 89.2148 301.998 88.9668C301.97 88.7188 301.956 88.4948 301.956 88.2948V85.1748H300.492V88.7928C300.492 88.9448 300.504 89.1468 300.528 89.3988C300.556 89.6508 300.614 89.9168 300.702 90.1968C300.79 90.4768 300.926 90.7428 301.11 90.9948C301.294 91.2428 301.542 91.4468 301.854 91.6068C302.17 91.7628 302.566 91.8408 303.042 91.8408ZM308.111 91.6548H309.389V91.1748C309.621 91.3828 309.891 91.5448 310.199 91.6608C310.507 91.7768 310.853 91.8348 311.237 91.8348C311.837 91.8348 312.357 91.6848 312.797 91.3848C313.241 91.0848 313.585 90.6768 313.829 90.1608C314.073 89.6448 314.195 89.0628 314.195 88.4148C314.195 87.7588 314.071 87.1728 313.823 86.6568C313.579 86.1408 313.231 85.7348 312.779 85.4388C312.327 85.1428 311.795 84.9948 311.183 84.9948C310.859 84.9948 310.563 85.0388 310.295 85.1268C310.027 85.2108 309.785 85.3328 309.569 85.4928V83.0148H308.111V91.6548ZM311.015 90.5388C310.435 90.5388 310.019 90.3428 309.767 89.9508C309.515 89.5548 309.389 89.0428 309.389 88.4148C309.389 87.7828 309.513 87.2708 309.761 86.8788C310.013 86.4868 310.415 86.2908 310.967 86.2908C311.355 86.2908 311.673 86.3868 311.921 86.5788C312.173 86.7668 312.359 87.0228 312.479 87.3468C312.603 87.6668 312.665 88.0228 312.665 88.4148C312.665 88.8108 312.605 89.1688 312.485 89.4888C312.369 89.8088 312.189 90.0648 311.945 90.2568C311.701 90.4448 311.391 90.5388 311.015 90.5388ZM315.638 91.6548H317.084V82.8348H315.638V91.6548ZM319.001 84.1908H320.447V82.8648H319.001V84.1908ZM319.001 91.6548H320.447V85.1748H319.001V91.6548ZM324.747 91.8348C325.583 91.8348 326.237 91.6488 326.709 91.2768C327.185 90.9048 327.423 90.3928 327.423 89.7408C327.423 89.2368 327.263 88.8408 326.943 88.5528C326.627 88.2648 326.081 88.0208 325.305 87.8208C324.801 87.6928 324.421 87.5848 324.165 87.4968C323.913 87.4088 323.745 87.3208 323.661 87.2328C323.577 87.1448 323.535 87.0388 323.535 86.9148C323.535 86.6988 323.639 86.5308 323.847 86.4108C324.055 86.2868 324.329 86.2328 324.669 86.2488C325.021 86.2688 325.303 86.3588 325.515 86.5188C325.731 86.6788 325.859 86.8968 325.899 87.1728L327.375 86.9088C327.295 86.3248 327.009 85.8608 326.517 85.5168C326.025 85.1688 325.401 84.9948 324.645 84.9948C323.873 84.9948 323.255 85.1748 322.791 85.5348C322.327 85.8948 322.095 86.3788 322.095 86.9868C322.095 87.4708 322.257 87.8528 322.581 88.1328C322.909 88.4128 323.479 88.6588 324.291 88.8708C324.779 88.9988 325.139 89.1068 325.371 89.1948C325.607 89.2788 325.761 89.3648 325.833 89.4528C325.905 89.5408 325.941 89.6588 325.941 89.8068C325.941 90.0468 325.845 90.2368 325.653 90.3768C325.461 90.5128 325.193 90.5808 324.849 90.5808C324.453 90.5808 324.123 90.4888 323.859 90.3048C323.599 90.1208 323.433 89.8688 323.361 89.5488L321.885 89.7768C321.993 90.4288 322.297 90.9348 322.797 91.2948C323.297 91.6548 323.947 91.8348 324.747 91.8348ZM328.725 91.6548H330.189V88.3248C330.189 87.8008 330.263 87.3968 330.411 87.1128C330.563 86.8248 330.755 86.6268 330.987 86.5188C331.223 86.4068 331.463 86.3508 331.707 86.3508C332.051 86.3508 332.325 86.4268 332.529 86.5788C332.733 86.7268 332.883 86.9168 332.979 87.1488C333.079 87.3768 333.143 87.6148 333.171 87.8628C333.203 88.1108 333.219 88.3348 333.219 88.5348V91.6548H334.683V88.0368C334.683 87.8848 334.669 87.6828 334.641 87.4308C334.617 87.1788 334.561 86.9128 334.473 86.6328C334.385 86.3528 334.249 86.0888 334.065 85.8408C333.881 85.5888 333.631 85.3848 333.315 85.2288C333.003 85.0688 332.609 84.9888 332.133 84.9888C331.665 84.9888 331.253 85.0708 330.897 85.2348C330.545 85.3948 330.251 85.6148 330.015 85.8948V83.0148H328.725V91.6548Z" fill="#666666"/>
<path d="M128.476 87.8691C128.476 122.731 100.498 150.991 65.9847 150.991C31.4718 150.991 3.49365 122.731 3.49365 87.8691" stroke="url(#paint0_linear)" stroke-width="7"/>
<path d="M503.423 87.8691C503.423 122.731 531.401 150.991 565.914 150.991C600.427 150.991 628.405 122.731 628.405 87.8691" stroke="url(#paint1_linear)" stroke-width="7"/>
<path d="M128.476 88.5002C128.476 53.9874 156.454 26.0092 190.967 26.0092C225.48 26.0092 253.458 53.9874 253.458 88.5002" stroke="#393939" stroke-width="7"/>
<path d="M378.44 87.8691C378.44 122.731 350.462 150.991 315.949 150.991C281.436 150.991 253.458 122.731 253.458 87.8691" stroke="#393939" stroke-width="7"/>
<path d="M378.441 88.5002C378.441 53.9874 406.419 26.0092 440.932 26.0092C475.444 26.0092 503.423 53.9874 503.423 88.5002" stroke="#393939" stroke-width="7"/>
<g filter="url(#filter0_d)">
<circle cx="190.967" cy="26.0091" r="9.79401" fill="url(#paint2_linear)"/>
</g>
<g filter="url(#filter1_d)">
<circle cx="65.9849" cy="150.991" r="9.79401" fill="url(#paint3_linear)"/>
</g>
<g filter="url(#filter2_d)">
<circle cx="315.949" cy="150.991" r="9.79401" fill="url(#paint4_linear)"/>
</g>
<g filter="url(#filter3_d)">
<circle cx="440.931" cy="26.0091" r="9.79401" fill="url(#paint5_linear)"/>
</g>
<g filter="url(#filter4_d)">
<circle cx="565.914" cy="150.991" r="9.79401" fill="url(#paint6_linear)"/>
</g>
<rect x="273.568" y="71.5222" width="85.6452" height="33.7603" rx="16.8801" stroke="#EDEDED" stroke-width="2"/>
<rect x="148.145" y="71.5222" width="85.6452" height="33.7603" rx="16.8801" stroke="#EDEDED" stroke-width="2"/>
<rect x="23.1621" y="71.5222" width="85.6452" height="33.7603" rx="16.8801" stroke="#EDEDED" stroke-width="2"/>
<rect x="398.109" y="71.5222" width="85.6452" height="33.7603" rx="16.8801" stroke="#EDEDED" stroke-width="2"/>
<rect x="522.649" y="71.5222" width="85.6452" height="33.7603" rx="16.8801" stroke="#EDEDED" stroke-width="2"/>
</g>
<defs>
<filter id="filter0_d" x="163.173" y="2.21509" width="55.588" height="55.588" filterUnits="userSpaceOnUse" color-interpolation-filters="sRGB">
<feFlood flood-opacity="0" result="BackgroundImageFix"/>
<feColorMatrix in="SourceAlpha" type="matrix" values="0 0 0 0 0 0 0 0 0 0 0 0 0 0 0 0 0 0 127 0"/>
<feOffset dy="4"/>
<feGaussianBlur stdDeviation="9"/>
<feColorMatrix type="matrix" values="0 0 0 0 0.921569 0 0 0 0 0.294118 0 0 0 0 0.294118 0 0 0 0.5 0"/>
<feBlend mode="normal" in2="BackgroundImageFix" result="effect1_dropShadow"/>
<feBlend mode="normal" in="SourceGraphic" in2="effect1_dropShadow" result="shape"/>
</filter>
<filter id="filter1_d" x="38.1909" y="127.197" width="55.588" height="55.588" filterUnits="userSpaceOnUse" color-interpolation-filters="sRGB">
<feFlood flood-opacity="0" result="BackgroundImageFix"/>
<feColorMatrix in="SourceAlpha" type="matrix" values="0 0 0 0 0 0 0 0 0 0 0 0 0 0 0 0 0 0 127 0"/>
<feOffset dy="4"/>
<feGaussianBlur stdDeviation="9"/>
<feColorMatrix type="matrix" values="0 0 0 0 0.921569 0 0 0 0 0.294118 0 0 0 0 0.294118 0 0 0 0.5 0"/>
<feBlend mode="normal" in2="BackgroundImageFix" result="effect1_dropShadow"/>
<feBlend mode="normal" in="SourceGraphic" in2="effect1_dropShadow" result="shape"/>
</filter>
<filter id="filter2_d" x="288.155" y="127.197" width="55.588" height="55.588" filterUnits="userSpaceOnUse" color-interpolation-filters="sRGB">
<feFlood flood-opacity="0" result="BackgroundImageFix"/>
<feColorMatrix in="SourceAlpha" type="matrix" values="0 0 0 0 0 0 0 0 0 0 0 0 0 0 0 0 0 0 127 0"/>
<feOffset dy="4"/>
<feGaussianBlur stdDeviation="9"/>
<feColorMatrix type="matrix" values="0 0 0 0 0.921569 0 0 0 0 0.294118 0 0 0 0 0.294118 0 0 0 0.5 0"/>
<feBlend mode="normal" in2="BackgroundImageFix" result="effect1_dropShadow"/>
<feBlend mode="normal" in="SourceGraphic" in2="effect1_dropShadow" result="shape"/>
</filter>
<filter id="filter3_d" x="413.137" y="2.21509" width="55.588" height="55.588" filterUnits="userSpaceOnUse" color-interpolation-filters="sRGB">
<feFlood flood-opacity="0" result="BackgroundImageFix"/>
<feColorMatrix in="SourceAlpha" type="matrix" values="0 0 0 0 0 0 0 0 0 0 0 0 0 0 0 0 0 0 127 0"/>
<feOffset dy="4"/>
<feGaussianBlur stdDeviation="9"/>
<feColorMatrix type="matrix" values="0 0 0 0 0.921569 0 0 0 0 0.294118 0 0 0 0 0.294118 0 0 0 0.5 0"/>
<feBlend mode="normal" in2="BackgroundImageFix" result="effect1_dropShadow"/>
<feBlend mode="normal" in="SourceGraphic" in2="effect1_dropShadow" result="shape"/>
</filter>
<filter id="filter4_d" x="538.12" y="127.197" width="55.588" height="55.588" filterUnits="userSpaceOnUse" color-interpolation-filters="sRGB">
<feFlood flood-opacity="0" result="BackgroundImageFix"/>
<feColorMatrix in="SourceAlpha" type="matrix" values="0 0 0 0 0 0 0 0 0 0 0 0 0 0 0 0 0 0 127 0"/>
<feOffset dy="4"/>
<feGaussianBlur stdDeviation="9"/>
<feColorMatrix type="matrix" values="0 0 0 0 0.921569 0 0 0 0 0.294118 0 0 0 0 0.294118 0 0 0 0.5 0"/>
<feBlend mode="normal" in2="BackgroundImageFix" result="effect1_dropShadow"/>
<feBlend mode="normal" in="SourceGraphic" in2="effect1_dropShadow" result="shape"/>
</filter>
<linearGradient id="paint0_linear" x1="69.6092" y1="124.384" x2="3.18948" y2="88.4311" gradientUnits="userSpaceOnUse">
<stop stop-color="#393939"/>
<stop offset="1" stop-color="#ECECEC"/>
</linearGradient>
<linearGradient id="paint1_linear" x1="562.289" y1="124.384" x2="628.709" y2="88.4311" gradientUnits="userSpaceOnUse">
<stop stop-color="#393939"/>
<stop offset="1" stop-color="#ECECEC"/>
</linearGradient>
<linearGradient id="paint2_linear" x1="190.967" y1="16.2151" x2="196.207" y2="37.9673" gradientUnits="userSpaceOnUse">
<stop stop-color="#FB5353"/>
<stop offset="1" stop-color="#BD3131" stop-opacity="0.97"/>
</linearGradient>
<linearGradient id="paint3_linear" x1="65.9849" y1="141.197" x2="71.2249" y2="162.949" gradientUnits="userSpaceOnUse">
<stop stop-color="#FB5353"/>
<stop offset="1" stop-color="#BD3131" stop-opacity="0.97"/>
</linearGradient>
<linearGradient id="paint4_linear" x1="315.949" y1="141.197" x2="321.189" y2="162.949" gradientUnits="userSpaceOnUse">
<stop stop-color="#FB5353"/>
<stop offset="1" stop-color="#BD3131" stop-opacity="0.97"/>
</linearGradient>
<linearGradient id="paint5_linear" x1="440.931" y1="16.2151" x2="446.171" y2="37.9673" gradientUnits="userSpaceOnUse">
<stop stop-color="#FB5353"/>
<stop offset="1" stop-color="#BD3131" stop-opacity="0.97"/>
</linearGradient>
<linearGradient id="paint6_linear" x1="565.914" y1="141.197" x2="571.154" y2="162.949" gradientUnits="userSpaceOnUse">
<stop stop-color="#FB5353"/>
<stop offset="1" stop-color="#BD3131" stop-opacity="0.97"/>
</linearGradient>
<clipPath id="clip0">
<rect width="634" height="177" fill="white"/>
</clipPath>
</defs>
</svg>
