<svg width="624" height="510" viewBox="0 0 624 510" fill="none" xmlns="http://www.w3.org/2000/svg">
<g clip-path="url(#clip0)">
<g filter="url(#filter0_d)">
<rect x="98.6292" y="138.762" width="80.3008" height="97.5082" rx="5" fill="white"/>
</g>
<g filter="url(#filter1_d)">
<rect width="80.3008" height="97.5082" rx="5" transform="matrix(-1 0 0 1 525.371 138.762)" fill="white"/>
</g>
<g filter="url(#filter2_d)">
<rect x="-2.32043" y="205.297" width="80.3008" height="97.5082" rx="5" fill="white"/>
</g>
<g filter="url(#filter3_d)">
<rect width="80.3008" height="97.5082" rx="5" transform="matrix(-1 0 0 1 626.32 205.297)" fill="white"/>
</g>
<g filter="url(#filter4_d)">
<rect x="99.7764" y="258.066" width="80.3008" height="98.6553" rx="5" fill="white"/>
</g>
<g filter="url(#filter5_d)">
<rect width="80.3008" height="98.6553" rx="5" transform="matrix(-1 0 0 1 524.224 258.066)" fill="white"/>
</g>
<g filter="url(#filter6_d)">
<rect x="261.525" y="391.782" width="41.1064" height="50.345" rx="5" fill="white"/>
</g>
<g filter="url(#filter7_d)">
<rect x="319.074" y="391.782" width="41.1064" height="50.345" rx="5" fill="white"/>
</g>
<g filter="url(#filter8_d)">
<rect x="263.819" y="53.8728" width="37.5975" height="46.2911" rx="5" fill="white"/>
</g>
<g filter="url(#filter9_d)">
<rect x="319.142" y="53.8728" width="37.5975" height="46.2911" rx="5" fill="white"/>
</g>
<rect x="270.695" y="73.0114" width="8.47274" height="1.05909" rx="0.529546" fill="#EEEEEE"/>
<rect x="106.659" y="209.886" width="21.7959" height="3.44146" rx="1.72073" fill="#EEEEEE"/>
<rect width="21.7959" height="3.44146" rx="1.72073" transform="matrix(-1 0 0 1 517.341 209.886)" fill="#EEEEEE"/>
<rect x="5.70972" y="276.421" width="21.7959" height="3.44146" rx="1.72073" fill="#EEEEEE"/>
<rect x="121.572" y="276.421" width="36.709" height="2.29431" rx="1.14715" fill="#EEEEEE"/>
<rect width="36.709" height="2.29431" rx="1.14715" transform="matrix(-1 0 0 1 502.428 276.421)" fill="#EEEEEE"/>
<rect x="270.695" y="415.098" width="18.0046" height="1.05909" rx="0.529546" fill="#EEEEEE"/>
<rect x="324.619" y="400.313" width="11.4715" height="1.14715" rx="0.573577" fill="#EEEEEE"/>
<rect x="323.65" y="73.0114" width="9.53184" height="1.05909" rx="0.529546" fill="#EEEEEE"/>
<rect x="270.695" y="75.1295" width="4.23637" height="1.05909" rx="0.529546" fill="#EEEEEE"/>
<rect x="106.659" y="216.769" width="12.6187" height="2.29431" rx="1.14715" fill="#EEEEEE"/>
<rect width="12.6187" height="2.29431" rx="1.14715" transform="matrix(-1 0 0 1 517.341 216.769)" fill="#EEEEEE"/>
<rect x="121.572" y="283.304" width="20.6488" height="2.29431" rx="1.14715" fill="#EEEEEE"/>
<rect width="20.6488" height="2.29431" rx="1.14715" transform="matrix(-1 0 0 1 502.428 283.304)" fill="#EEEEEE"/>
<rect x="270.695" y="417.217" width="10.5909" height="1.05909" rx="0.529546" fill="#EEEEEE"/>
<rect x="324.619" y="402.608" width="6.88293" height="1.14715" rx="0.573577" fill="#EEEEEE"/>
<rect x="323.65" y="75.1295" width="5.29546" height="1.05909" rx="0.529546" fill="#EEEEEE"/>
<rect x="270.695" y="77.2477" width="12.7091" height="1.05909" rx="0.529546" fill="#EEEEEE"/>
<rect x="121.572" y="287.892" width="51.622" height="4.58862" rx="2.29431" fill="#EEEEEE"/>
<rect width="51.622" height="4.58862" rx="2.29431" transform="matrix(-1 0 0 1 502.428 287.892)" fill="#EEEEEE"/>
<rect x="270.695" y="420.394" width="24.3591" height="3.17728" rx="1.58864" fill="#EEEEEE"/>
<rect x="324.619" y="406.049" width="16.0602" height="1.14715" rx="0.573577" fill="#EEEEEE"/>
<rect x="323.65" y="77.2477" width="12.7091" height="1.05909" rx="0.529546" fill="#EEEEEE"/>
<rect x="106.659" y="146.792" width="64.2407" height="6.88293" rx="2.5" fill="#EEEEEE"/>
<rect width="64.2407" height="6.88293" rx="2.5" transform="matrix(-1 0 0 1 517.341 146.792)" fill="#EEEEEE"/>
<rect x="5.70972" y="212.18" width="64.2407" height="8.03008" rx="2.5" fill="#EEEEEE"/>
<rect width="64.2407" height="8.03008" rx="2.5" transform="matrix(-1 0 0 1 618.29 212.18)" fill="#EEEEEE"/>
<rect x="266.114" y="396.872" width="32.1203" height="5.73577" rx="2.5" fill="#EEEEEE"/>
<rect x="266.114" y="403.755" width="32.1203" height="3.44146" rx="1.72073" fill="#EEEEEE"/>
<rect x="107.806" y="274.126" width="5.73577" height="73.4179" rx="2.5" fill="#EEEEEE"/>
<rect width="5.73577" height="73.4179" rx="2.5" transform="matrix(-1 0 0 1 516.194 274.126)" fill="#EEEEEE"/>
<rect x="63.0673" y="227.093" width="5.73577" height="60.7992" rx="2.5" fill="#EEEEEE"/>
<rect x="270.695" y="84.6615" width="12.7091" height="8.47274" rx="2" fill="#EEEEEE"/>
<rect x="324.619" y="71.0802" width="27.5317" height="21.7959" rx="2" fill="#EEEEEE"/>
<rect x="324.619" y="412.932" width="29.826" height="21.7959" rx="2" fill="#EEEEEE"/>
<rect x="267.261" y="83.6987" width="13.7659" height="9.17724" rx="2" fill="#EEEEEE"/>
<rect x="285.523" y="84.6615" width="12.7091" height="8.47274" rx="2" fill="#EEEEEE"/>
<rect x="283.321" y="83.6987" width="13.7659" height="9.17724" rx="2" fill="#EEEEEE"/>
<line x1="217.933" y1="196.62" x2="180.077" y2="196.62" stroke="#EEEEEE"/>
<line y1="-0.5" x2="37.8561" y2="-0.5" transform="matrix(1 -9.91397e-08 -7.70906e-08 -1 406.067 196.12)" stroke="#EEEEEE"/>
<line x1="98.6292" y1="220.71" x2="77.9804" y2="220.71" stroke="#EEEEEE"/>
<line y1="-0.5" x2="20.6488" y2="-0.5" transform="matrix(1 -9.7968e-08 -7.80126e-08 -1 525.371 220.21)" stroke="#EEEEEE"/>
<line x1="98.6292" y1="273.479" x2="77.9804" y2="273.479" stroke="#EEEEEE"/>
<line y1="-0.5" x2="20.6488" y2="-0.5" transform="matrix(1 -9.91397e-08 -7.70906e-08 -1 525.371 272.979)" stroke="#EEEEEE"/>
<line x1="281.674" y1="121.555" x2="281.674" y2="97.4648" stroke="#EEEEEE"/>
<line x1="281.674" y1="392.283" x2="281.674" y2="370.488" stroke="#EEEEEE"/>
<line x1="339.032" y1="121.555" x2="339.032" y2="100.906" stroke="#EEEEEE"/>
<line x1="340.179" y1="392.283" x2="340.179" y2="370.488" stroke="#EEEEEE"/>
<line x1="216.786" y1="301.011" x2="178.93" y2="301.011" stroke="#EEEEEE"/>
<line y1="-0.5" x2="37.8561" y2="-0.5" transform="matrix(1 -9.90701e-08 -7.70365e-08 -1 407.214 300.511)" stroke="#EEEEEE"/>
<rect x="280.931" y="382.282" width="1.14715" height="3.44146" fill="#393939"/>
<rect x="211.05" y="196.12" width="1.14716" height="4.58862" transform="rotate(90 211.05 196.12)" fill="#393939"/>
<rect x="95.1877" y="220.21" width="1.14715" height="2.29431" transform="rotate(90 95.1877 220.21)" fill="#393939"/>
<rect x="194.191" y="300.511" width="1.14715" height="2.29431" transform="rotate(90 194.191 300.511)" fill="#393939"/>
<rect x="189.028" y="300.511" width="1.14715" height="2.29431" transform="rotate(90 189.028 300.511)" fill="#393939"/>
<rect x="89.4523" y="220.21" width="1.14707" height="5.16253" transform="rotate(90 89.4523 220.21)" fill="#393939"/>
<rect x="194.191" y="196.12" width="1.14707" height="5.16253" transform="rotate(90 194.191 196.12)" fill="#393939"/>
<rect width="1.14715" height="2.29431" transform="matrix(3.90063e-08 1 1 -4.8984e-08 528.812 220.21)" fill="#393939"/>
<rect width="1.14715" height="2.29431" transform="matrix(3.90063e-08 1 1 -4.8984e-08 433.691 196.12)" fill="#393939"/>
<rect width="1.14715" height="18.0221" transform="matrix(3.90063e-08 1 1 -4.8984e-08 408.12 196.12)" fill="#393939"/>
<rect width="1.14715" height="7.44585" transform="matrix(1 0 -9.97768e-09 -1 338.385 108.684)" fill="#393939"/>
<rect width="1.14715" height="7.44585" transform="matrix(1 0 -9.97768e-09 -1 281.027 122.983)" fill="#393939"/>
<rect width="1.14715" height="18.0221" transform="matrix(3.90063e-08 1 1 -4.8984e-08 417.964 300.767)" fill="#393939"/>
<rect x="95.1877" y="272.979" width="1.14715" height="2.29431" transform="rotate(90 95.1877 272.979)" fill="#393939"/>
<rect x="85.4369" y="272.979" width="1.14715" height="2.29431" transform="rotate(90 85.4369 272.979)" fill="#393939"/>
<rect width="1.14715" height="2.29431" transform="matrix(3.85453e-08 1 1 -4.95698e-08 528.812 272.979)" fill="#393939"/>
<rect x="217.766" y="300.831" width="1.08315" height="10.8315" transform="rotate(90 217.766 300.831)" fill="#393939"/>
<rect x="339.532" y="373.928" width="1.14715" height="5.73577" fill="#393939"/>
<rect x="339.532" y="386.548" width="1.14715" height="4.58862" fill="#393939"/>
<rect x="339.532" y="377.37" width="1.14715" height="2.29431" fill="#393939"/>
<rect x="339.532" y="379.665" width="1.14715" height="1.14715" fill="#393939"/>
<rect x="452.602" y="157.855" width="31.4113" height="6.49889" rx="2.5" fill="#EEEEEE"/>
<rect x="450.436" y="344.156" width="37.9102" height="2.1663" rx="1.08315" fill="#EEEEEE"/>
<rect x="553.335" y="226.093" width="37.9102" height="2.1663" rx="1.08315" fill="#EEEEEE"/>
<rect x="553.335" y="267.253" width="37.9102" height="2.1663" rx="1.08315" fill="#EEEEEE"/>
<rect x="553.335" y="230.426" width="21.663" height="2.1663" rx="1.08315" fill="#EEEEEE"/>
<rect x="553.335" y="272.669" width="21.663" height="2.1663" rx="1.08315" fill="#EEEEEE"/>
<rect x="553.335" y="235.842" width="51.9911" height="3.24945" rx="1.62472" fill="#EEEEEE"/>
<rect x="553.335" y="278.084" width="51.9911" height="2.1663" rx="1.08315" fill="#EEEEEE"/>
<rect x="553.335" y="285.666" width="55.2406" height="6.49889" rx="2.5" fill="#EEEEEE"/>
<rect x="217.933" y="121.555" width="188.133" height="254.668" rx="10" fill="#393939"/>
<rect x="238.443" y="156.422" width="146.031" height="39.1013" rx="5" fill="#484848"/>
<rect x="238.443" y="250.584" width="146.031" height="39.1013" rx="5" fill="#484848"/>
<rect x="238.443" y="297.666" width="146.031" height="39.1013" rx="5" fill="#484848"/>
<rect x="238.443" y="203.503" width="146.031" height="39.1013" rx="5" fill="#484848"/>
</g>
<defs>
<filter id="filter0_d" x="85.6292" y="127.762" width="106.301" height="123.508" filterUnits="userSpaceOnUse" color-interpolation-filters="sRGB">
<feFlood flood-opacity="0" result="BackgroundImageFix"/>
<feColorMatrix in="SourceAlpha" type="matrix" values="0 0 0 0 0 0 0 0 0 0 0 0 0 0 0 0 0 0 127 0"/>
<feOffset dy="2"/>
<feGaussianBlur stdDeviation="6.5"/>
<feColorMatrix type="matrix" values="0 0 0 0 0 0 0 0 0 0 0 0 0 0 0 0 0 0 0.07 0"/>
<feBlend mode="normal" in2="BackgroundImageFix" result="effect1_dropShadow"/>
<feBlend mode="normal" in="SourceGraphic" in2="effect1_dropShadow" result="shape"/>
</filter>
<filter id="filter1_d" x="432.07" y="127.762" width="106.301" height="123.508" filterUnits="userSpaceOnUse" color-interpolation-filters="sRGB">
<feFlood flood-opacity="0" result="BackgroundImageFix"/>
<feColorMatrix in="SourceAlpha" type="matrix" values="0 0 0 0 0 0 0 0 0 0 0 0 0 0 0 0 0 0 127 0"/>
<feOffset dy="2"/>
<feGaussianBlur stdDeviation="6.5"/>
<feColorMatrix type="matrix" values="0 0 0 0 0 0 0 0 0 0 0 0 0 0 0 0 0 0 0.07 0"/>
<feBlend mode="normal" in2="BackgroundImageFix" result="effect1_dropShadow"/>
<feBlend mode="normal" in="SourceGraphic" in2="effect1_dropShadow" result="shape"/>
</filter>
<filter id="filter2_d" x="-15.3204" y="194.297" width="106.301" height="123.508" filterUnits="userSpaceOnUse" color-interpolation-filters="sRGB">
<feFlood flood-opacity="0" result="BackgroundImageFix"/>
<feColorMatrix in="SourceAlpha" type="matrix" values="0 0 0 0 0 0 0 0 0 0 0 0 0 0 0 0 0 0 127 0"/>
<feOffset dy="2"/>
<feGaussianBlur stdDeviation="6.5"/>
<feColorMatrix type="matrix" values="0 0 0 0 0 0 0 0 0 0 0 0 0 0 0 0 0 0 0.07 0"/>
<feBlend mode="normal" in2="BackgroundImageFix" result="effect1_dropShadow"/>
<feBlend mode="normal" in="SourceGraphic" in2="effect1_dropShadow" result="shape"/>
</filter>
<filter id="filter3_d" x="533.02" y="194.297" width="106.301" height="123.508" filterUnits="userSpaceOnUse" color-interpolation-filters="sRGB">
<feFlood flood-opacity="0" result="BackgroundImageFix"/>
<feColorMatrix in="SourceAlpha" type="matrix" values="0 0 0 0 0 0 0 0 0 0 0 0 0 0 0 0 0 0 127 0"/>
<feOffset dy="2"/>
<feGaussianBlur stdDeviation="6.5"/>
<feColorMatrix type="matrix" values="0 0 0 0 0 0 0 0 0 0 0 0 0 0 0 0 0 0 0.07 0"/>
<feBlend mode="normal" in2="BackgroundImageFix" result="effect1_dropShadow"/>
<feBlend mode="normal" in="SourceGraphic" in2="effect1_dropShadow" result="shape"/>
</filter>
<filter id="filter4_d" x="86.7764" y="247.066" width="106.301" height="124.655" filterUnits="userSpaceOnUse" color-interpolation-filters="sRGB">
<feFlood flood-opacity="0" result="BackgroundImageFix"/>
<feColorMatrix in="SourceAlpha" type="matrix" values="0 0 0 0 0 0 0 0 0 0 0 0 0 0 0 0 0 0 127 0"/>
<feOffset dy="2"/>
<feGaussianBlur stdDeviation="6.5"/>
<feColorMatrix type="matrix" values="0 0 0 0 0 0 0 0 0 0 0 0 0 0 0 0 0 0 0.07 0"/>
<feBlend mode="normal" in2="BackgroundImageFix" result="effect1_dropShadow"/>
<feBlend mode="normal" in="SourceGraphic" in2="effect1_dropShadow" result="shape"/>
</filter>
<filter id="filter5_d" x="430.923" y="247.066" width="106.301" height="124.655" filterUnits="userSpaceOnUse" color-interpolation-filters="sRGB">
<feFlood flood-opacity="0" result="BackgroundImageFix"/>
<feColorMatrix in="SourceAlpha" type="matrix" values="0 0 0 0 0 0 0 0 0 0 0 0 0 0 0 0 0 0 127 0"/>
<feOffset dy="2"/>
<feGaussianBlur stdDeviation="6.5"/>
<feColorMatrix type="matrix" values="0 0 0 0 0 0 0 0 0 0 0 0 0 0 0 0 0 0 0.07 0"/>
<feBlend mode="normal" in2="BackgroundImageFix" result="effect1_dropShadow"/>
<feBlend mode="normal" in="SourceGraphic" in2="effect1_dropShadow" result="shape"/>
</filter>
<filter id="filter6_d" x="248.525" y="380.782" width="67.1064" height="76.345" filterUnits="userSpaceOnUse" color-interpolation-filters="sRGB">
<feFlood flood-opacity="0" result="BackgroundImageFix"/>
<feColorMatrix in="SourceAlpha" type="matrix" values="0 0 0 0 0 0 0 0 0 0 0 0 0 0 0 0 0 0 127 0"/>
<feOffset dy="2"/>
<feGaussianBlur stdDeviation="6.5"/>
<feColorMatrix type="matrix" values="0 0 0 0 0 0 0 0 0 0 0 0 0 0 0 0 0 0 0.07 0"/>
<feBlend mode="normal" in2="BackgroundImageFix" result="effect1_dropShadow"/>
<feBlend mode="normal" in="SourceGraphic" in2="effect1_dropShadow" result="shape"/>
</filter>
<filter id="filter7_d" x="306.074" y="380.782" width="67.1064" height="76.345" filterUnits="userSpaceOnUse" color-interpolation-filters="sRGB">
<feFlood flood-opacity="0" result="BackgroundImageFix"/>
<feColorMatrix in="SourceAlpha" type="matrix" values="0 0 0 0 0 0 0 0 0 0 0 0 0 0 0 0 0 0 127 0"/>
<feOffset dy="2"/>
<feGaussianBlur stdDeviation="6.5"/>
<feColorMatrix type="matrix" values="0 0 0 0 0 0 0 0 0 0 0 0 0 0 0 0 0 0 0.07 0"/>
<feBlend mode="normal" in2="BackgroundImageFix" result="effect1_dropShadow"/>
<feBlend mode="normal" in="SourceGraphic" in2="effect1_dropShadow" result="shape"/>
</filter>
<filter id="filter8_d" x="250.819" y="42.8728" width="63.5975" height="72.2911" filterUnits="userSpaceOnUse" color-interpolation-filters="sRGB">
<feFlood flood-opacity="0" result="BackgroundImageFix"/>
<feColorMatrix in="SourceAlpha" type="matrix" values="0 0 0 0 0 0 0 0 0 0 0 0 0 0 0 0 0 0 127 0"/>
<feOffset dy="2"/>
<feGaussianBlur stdDeviation="6.5"/>
<feColorMatrix type="matrix" values="0 0 0 0 0 0 0 0 0 0 0 0 0 0 0 0 0 0 0.07 0"/>
<feBlend mode="normal" in2="BackgroundImageFix" result="effect1_dropShadow"/>
<feBlend mode="normal" in="SourceGraphic" in2="effect1_dropShadow" result="shape"/>
</filter>
<filter id="filter9_d" x="306.142" y="42.8728" width="63.5975" height="72.2911" filterUnits="userSpaceOnUse" color-interpolation-filters="sRGB">
<feFlood flood-opacity="0" result="BackgroundImageFix"/>
<feColorMatrix in="SourceAlpha" type="matrix" values="0 0 0 0 0 0 0 0 0 0 0 0 0 0 0 0 0 0 127 0"/>
<feOffset dy="2"/>
<feGaussianBlur stdDeviation="6.5"/>
<feColorMatrix type="matrix" values="0 0 0 0 0 0 0 0 0 0 0 0 0 0 0 0 0 0 0.07 0"/>
<feBlend mode="normal" in2="BackgroundImageFix" result="effect1_dropShadow"/>
<feBlend mode="normal" in="SourceGraphic" in2="effect1_dropShadow" result="shape"/>
</filter>
<clipPath id="clip0">
<rect width="624" height="510" fill="white"/>
</clipPath>
</defs>
</svg>
