<svg width="624" height="510" viewBox="0 0 624 510" fill="none" xmlns="http://www.w3.org/2000/svg">
<g filter="url(#filter0_d)">
<rect x="37" y="30" width="389" height="400" rx="20" fill="white"/>
</g>
<rect x="37" y="461" width="194" height="20" rx="10" fill="#EEEEEE"/>
<rect x="248" y="461" width="48" height="20" rx="10" fill="#EEEEEE"/>
<rect x="313" y="461" width="48" height="20" rx="10" fill="#EEEEEE"/>
<rect x="378" y="461" width="48" height="20" rx="10" fill="#EEEEEE"/>
<g filter="url(#filter1_d)">
<rect x="461" y="179" width="126" height="95" rx="10" fill="#C4C4C4"/>
</g>
<g filter="url(#filter2_d)">
<rect x="461" y="299" width="126" height="95" rx="10" fill="white"/>
</g>
<rect x="474" y="190" width="68" height="10" rx="5" fill="white"/>
<rect x="474" y="310" width="68" height="10" rx="5" fill="#EEEEEE"/>
<rect x="474" y="205" width="40" height="10" rx="5" fill="white"/>
<rect x="474" y="325" width="40" height="10" rx="5" fill="#EEEEEE"/>
<rect x="474" y="253" width="94" height="11" rx="5.5" fill="white"/>
<rect x="474" y="373" width="94" height="11" rx="5.5" fill="#EEEEEE"/>
<rect x="82" y="327" width="286" height="77" rx="9" stroke="#EEEEEE" stroke-width="2"/>
<rect x="123" y="357" width="49" height="21" rx="10.5" fill="#EEEEEE"/>
<rect x="196" y="357" width="48" height="21" rx="10.5" fill="#EEEEEE"/>
<rect x="274" y="357" width="49" height="21" rx="10.5" fill="#EEEEEE"/>
<rect x="82" y="201" width="120" height="91" rx="9" fill="#EEEEEE" stroke="#EEEEEE" stroke-width="2"/>
<rect x="248" y="201" width="120" height="91" rx="9" stroke="#EEEEEE" stroke-width="2" stroke-dasharray="8 8"/>
<rect x="93" y="211" width="66" height="10" rx="5" fill="white"/>
<rect x="93" y="225" width="40" height="10" rx="5" fill="white"/>
<rect x="93" y="273" width="92" height="9" rx="4.5" fill="white"/>
<line x1="140.5" y1="297.5" x2="140.5" y2="321.5" stroke="#EEEEEE" stroke-width="3" stroke-linecap="round"/>
<line x1="224.5" y1="178.5" x2="224.5" y2="321.5" stroke="#EEEEEE" stroke-width="3" stroke-linecap="round"/>
<line x1="306.5" y1="297.5" x2="306.5" y2="321.5" stroke="#EEEEEE" stroke-width="3" stroke-linecap="round"/>
<rect x="82" y="78" width="286" height="93" rx="19" stroke="#393939" stroke-width="2" stroke-dasharray="6 6"/>
<rect x="113" y="56" width="288" height="95" rx="20" fill="#393939"/>
<rect x="142" y="79" width="70" height="10" rx="5" fill="white"/>
<rect x="142" y="99" width="42" height="10" rx="5" fill="white"/>
<rect x="142" y="120" width="98" height="10" rx="5" fill="white"/>
<defs>
<filter id="filter0_d" x="24" y="19" width="415" height="426" filterUnits="userSpaceOnUse" color-interpolation-filters="sRGB">
<feFlood flood-opacity="0" result="BackgroundImageFix"/>
<feColorMatrix in="SourceAlpha" type="matrix" values="0 0 0 0 0 0 0 0 0 0 0 0 0 0 0 0 0 0 127 0"/>
<feOffset dy="2"/>
<feGaussianBlur stdDeviation="6.5"/>
<feColorMatrix type="matrix" values="0 0 0 0 0 0 0 0 0 0 0 0 0 0 0 0 0 0 0.07 0"/>
<feBlend mode="normal" in2="BackgroundImageFix" result="effect1_dropShadow"/>
<feBlend mode="normal" in="SourceGraphic" in2="effect1_dropShadow" result="shape"/>
</filter>
<filter id="filter1_d" x="457" y="179" width="134" height="103" filterUnits="userSpaceOnUse" color-interpolation-filters="sRGB">
<feFlood flood-opacity="0" result="BackgroundImageFix"/>
<feColorMatrix in="SourceAlpha" type="matrix" values="0 0 0 0 0 0 0 0 0 0 0 0 0 0 0 0 0 0 127 0"/>
<feOffset dy="4"/>
<feGaussianBlur stdDeviation="2"/>
<feColorMatrix type="matrix" values="0 0 0 0 0 0 0 0 0 0 0 0 0 0 0 0 0 0 0.07 0"/>
<feBlend mode="normal" in2="BackgroundImageFix" result="effect1_dropShadow"/>
<feBlend mode="normal" in="SourceGraphic" in2="effect1_dropShadow" result="shape"/>
</filter>
<filter id="filter2_d" x="453" y="295" width="142" height="111" filterUnits="userSpaceOnUse" color-interpolation-filters="sRGB">
<feFlood flood-opacity="0" result="BackgroundImageFix"/>
<feColorMatrix in="SourceAlpha" type="matrix" values="0 0 0 0 0 0 0 0 0 0 0 0 0 0 0 0 0 0 127 0"/>
<feOffset dy="4"/>
<feGaussianBlur stdDeviation="4"/>
<feColorMatrix type="matrix" values="0 0 0 0 0 0 0 0 0 0 0 0 0 0 0 0 0 0 0.09 0"/>
<feBlend mode="normal" in2="BackgroundImageFix" result="effect1_dropShadow"/>
<feBlend mode="normal" in="SourceGraphic" in2="effect1_dropShadow" result="shape"/>
</filter>
</defs>
</svg>
