<?xml version="1.0"?>
<svg xmlns="http://www.w3.org/2000/svg" xmlns:xlink="http://www.w3.org/1999/xlink" xmlns:svgjs="http://svgjs.com/svgjs" version="1.1" width="512" height="512" x="0" y="0" viewBox="0 0 512 512" style="enable-background:new 0 0 512 512" xml:space="preserve" class=""><g><linearGradient xmlns="http://www.w3.org/2000/svg" id="SVGID_1_" gradientUnits="userSpaceOnUse" x1="256" x2="256" y1="512" y2="0"><stop stop-opacity="1" stop-color="#a8a8a8" offset="0"/><stop stop-opacity="1" stop-color="#ffffff" offset="1"/></linearGradient><linearGradient xmlns="http://www.w3.org/2000/svg" id="SVGID_2_" gradientUnits="userSpaceOnUse" x1="256" x2="256" y1="407" y2="105"><stop stop-opacity="1" stop-color="#6b6b6b" offset="1"/><stop stop-opacity="1" stop-color="#fd3a84" offset="1"/></linearGradient><g xmlns="http://www.w3.org/2000/svg"><g><circle cx="256" cy="256" fill="url(#SVGID_1_)" r="256" data-original="url(#SVGID_1_)" style=""/></g><g><g><path d="m193.824 255.243c0-4.934-3.973-8.927-8.882-8.927h-71.059c-4.91 0-8.882 3.993-8.882 8.927v26.781h88.824v-26.781zm204.294-8.927h-71.059c-4.91 0-8.882 3.993-8.882 8.927v26.781h88.823v-26.781c0-4.934-3.973-8.927-8.882-8.927zm-79.942 71.415h-37.166c-2.684-7.563-8.604-13.512-16.129-16.209v-19.95c-2.93.267-5.884.452-8.882.452s-5.953-.185-8.882-.452v19.95c-7.525 2.697-13.445 8.647-16.129 16.209h-37.166v-17.854h-88.822v98.196c0 4.934 3.973 8.927 8.882 8.927h71.059c4.91 0 8.882-3.993 8.882-8.927v-62.488h37.166c3.679 10.369 13.446 17.854 25.011 17.854s21.332-7.485 25.011-17.854h37.166v62.488c0 4.934 3.973 8.927 8.882 8.927h71.059c4.91 0 8.882-3.993 8.882-8.927v-98.196h-88.824zm-168.764 53.561c-4.905 0-8.882-3.997-8.882-8.927 0-4.931 3.977-8.927 8.882-8.927s8.882 3.996 8.882 8.927c0 4.93-3.977 8.927-8.882 8.927zm0-35.707c-4.905 0-8.882-3.997-8.882-8.927 0-4.931 3.977-8.927 8.882-8.927s8.882 3.996 8.882 8.927c0 4.93-3.977 8.927-8.882 8.927zm213.176-17.854c4.905 0 8.882 3.996 8.882 8.927 0 4.93-3.977 8.927-8.882 8.927s-8.882-3.997-8.882-8.927c0-4.931 3.977-8.927 8.882-8.927zm0 35.708c4.905 0 8.882 3.996 8.882 8.927 0 4.93-3.977 8.927-8.882 8.927s-8.882-3.997-8.882-8.927c0-4.931 3.977-8.927 8.882-8.927zm-106.588-101.116c6.601-15.18 14.878-38.337 16.919-59.568h-33.838c2.037 21.258 10.317 44.401 16.919 59.568zm79.043-77.422c-3.927-35.08-30.058-63.403-64.143-69.901 7.363 16.424 18.054 44.068 20.212 69.901zm-62.123 0c-2.037-21.258-10.318-44.401-16.92-59.568-6.601 15.179-14.878 38.336-16.918 59.568zm-31.82-69.901c-34.085 6.498-60.216 34.822-64.143 69.901h43.931c2.158-25.833 12.849-53.477 20.212-69.901zm93.943 87.755h-43.931c-2.158 25.834-12.849 53.477-20.212 69.901 34.085-6.498 60.216-34.821 64.143-69.901zm-93.943 69.901c-7.363-16.424-18.054-44.068-20.212-69.901h-43.931c3.927 35.08 30.058 63.403 64.143 69.901z" fill="url(#SVGID_2_)" data-original="url(#SVGID_2_)" style=""/></g></g></g></g></svg>
