<svg width="624" height="510" viewBox="0 0 624 510" fill="none" xmlns="http://www.w3.org/2000/svg">
<g clip-path="url(#clip0)">
<g filter="url(#filter0_d)">
<rect x="104.946" y="141.996" width="77.9237" height="94.6216" rx="5" fill="white"/>
</g>
<g filter="url(#filter1_d)">
<rect width="77.9237" height="94.6216" rx="5" transform="matrix(-1 0 0 1 519.054 141.996)" fill="white"/>
</g>
<g filter="url(#filter2_d)">
<rect x="6.98444" y="206.561" width="77.9237" height="94.6216" rx="5" fill="white"/>
</g>
<g filter="url(#filter3_d)">
<rect width="77.9237" height="94.6216" rx="5" transform="matrix(-1 0 0 1 617.016 206.561)" fill="white"/>
</g>
<g filter="url(#filter4_d)">
<rect x="106.059" y="257.768" width="77.9237" height="95.7348" rx="5" fill="white"/>
</g>
<g filter="url(#filter5_d)">
<rect width="77.9237" height="95.7348" rx="5" transform="matrix(-1 0 0 1 517.941 257.768)" fill="white"/>
</g>
<g filter="url(#filter6_d)">
<rect x="263.019" y="387.526" width="39.8895" height="48.8546" rx="5" fill="white"/>
</g>
<g filter="url(#filter7_d)">
<rect x="318.865" y="387.526" width="39.8895" height="48.8546" rx="5" fill="white"/>
</g>
<g filter="url(#filter8_d)">
<rect x="265.246" y="59.6195" width="36.4845" height="44.9207" rx="5" fill="white"/>
</g>
<g filter="url(#filter9_d)">
<rect x="318.93" y="59.6195" width="36.4845" height="44.9207" rx="5" fill="white"/>
</g>
<rect x="271.918" y="78.1915" width="8.22192" height="1.02774" rx="0.51387" fill="#EEEEEE"/>
<rect x="112.738" y="211.014" width="21.1507" height="3.33959" rx="1.66979" fill="#EEEEEE"/>
<rect width="21.1507" height="3.33959" rx="1.66979" transform="matrix(-1 0 0 1 511.262 211.014)" fill="#EEEEEE"/>
<rect x="14.7769" y="275.579" width="21.1507" height="3.33959" rx="1.66979" fill="#EEEEEE"/>
<rect x="127.21" y="275.579" width="35.6223" height="2.22639" rx="1.1132" fill="#EEEEEE"/>
<rect width="35.6223" height="2.22639" rx="1.1132" transform="matrix(-1 0 0 1 496.79 275.579)" fill="#EEEEEE"/>
<rect x="271.918" y="410.152" width="17.4716" height="1.02774" rx="0.51387" fill="#EEEEEE"/>
<rect x="324.245" y="395.804" width="11.132" height="1.1132" rx="0.556598" fill="#EEEEEE"/>
<rect x="323.305" y="78.1915" width="9.24967" height="1.02774" rx="0.51387" fill="#EEEEEE"/>
<rect x="271.918" y="80.2471" width="4.11096" height="1.02774" rx="0.51387" fill="#EEEEEE"/>
<rect x="112.738" y="217.693" width="12.2452" height="2.22639" rx="1.1132" fill="#EEEEEE"/>
<rect width="12.2452" height="2.22639" rx="1.1132" transform="matrix(-1 0 0 1 511.262 217.693)" fill="#EEEEEE"/>
<rect x="127.21" y="282.259" width="20.0375" height="2.22639" rx="1.1132" fill="#EEEEEE"/>
<rect width="20.0375" height="2.22639" rx="1.1132" transform="matrix(-1 0 0 1 496.79 282.259)" fill="#EEEEEE"/>
<rect x="271.918" y="412.207" width="10.2774" height="1.02774" rx="0.51387" fill="#EEEEEE"/>
<rect x="324.245" y="398.031" width="6.67917" height="1.1132" rx="0.556598" fill="#EEEEEE"/>
<rect x="323.305" y="80.2471" width="5.1387" height="1.02774" rx="0.51387" fill="#EEEEEE"/>
<rect x="271.918" y="82.3025" width="12.3329" height="1.02774" rx="0.51387" fill="#EEEEEE"/>
<rect x="127.21" y="286.711" width="50.0938" height="4.45278" rx="2.22639" fill="#EEEEEE"/>
<rect width="50.0938" height="4.45278" rx="2.22639" transform="matrix(-1 0 0 1 496.79 286.711)" fill="#EEEEEE"/>
<rect x="271.918" y="415.291" width="23.638" height="3.08322" rx="1.54161" fill="#EEEEEE"/>
<rect x="324.245" y="401.37" width="15.5847" height="1.1132" rx="0.556598" fill="#EEEEEE"/>
<rect x="323.305" y="82.3025" width="12.3329" height="1.02774" rx="0.51387" fill="#EEEEEE"/>
<rect x="112.738" y="149.788" width="62.3389" height="6.67917" rx="2.5" fill="#EEEEEE"/>
<rect width="62.3389" height="6.67917" rx="2.5" transform="matrix(-1 0 0 1 511.262 149.788)" fill="#EEEEEE"/>
<rect x="14.7769" y="213.24" width="62.3389" height="7.79237" rx="2.5" fill="#EEEEEE"/>
<rect width="62.3389" height="7.79237" rx="2.5" transform="matrix(-1 0 0 1 609.223 213.24)" fill="#EEEEEE"/>
<rect x="267.472" y="392.465" width="31.1695" height="5.56598" rx="2.5" fill="#EEEEEE"/>
<rect x="267.472" y="399.144" width="31.1695" height="3.33959" rx="1.66979" fill="#EEEEEE"/>
<rect x="113.851" y="273.353" width="5.56598" height="71.2445" rx="2.5" fill="#EEEEEE"/>
<rect width="5.56598" height="71.2445" rx="2.5" transform="matrix(-1 0 0 1 510.149 273.353)" fill="#EEEEEE"/>
<rect x="70.4365" y="227.712" width="5.56598" height="58.9994" rx="2.5" fill="#EEEEEE"/>
<rect x="271.918" y="89.4968" width="12.3329" height="8.22192" rx="2" fill="#EEEEEE"/>
<rect x="324.245" y="76.3176" width="26.7167" height="21.1507" rx="2" fill="#EEEEEE"/>
<rect x="324.245" y="408.05" width="28.9431" height="21.1507" rx="2" fill="#EEEEEE"/>
<rect x="268.585" y="88.5625" width="13.3583" height="8.90556" rx="2" fill="#EEEEEE"/>
<rect x="286.306" y="89.4968" width="12.3329" height="8.22192" rx="2" fill="#EEEEEE"/>
<rect x="284.17" y="88.5625" width="13.3583" height="8.90556" rx="2" fill="#EEEEEE"/>
<line x1="220.718" y1="198.156" x2="183.982" y2="198.156" stroke="#EEEEEE"/>
<line y1="-0.5" x2="36.7355" y2="-0.5" transform="matrix(1 -9.91397e-08 -7.70906e-08 -1 403.282 197.656)" stroke="#EEEEEE"/>
<line x1="104.946" y1="221.533" x2="84.9081" y2="221.533" stroke="#EEEEEE"/>
<line y1="-0.5" x2="20.0375" y2="-0.5" transform="matrix(1 -9.7968e-08 -7.80126e-08 -1 519.054 221.033)" stroke="#EEEEEE"/>
<line x1="104.946" y1="272.74" x2="84.9081" y2="272.74" stroke="#EEEEEE"/>
<line y1="-0.5" x2="20.0375" y2="-0.5" transform="matrix(1 -9.91397e-08 -7.70906e-08 -1 519.054 272.24)" stroke="#EEEEEE"/>
<line x1="282.557" y1="125.298" x2="282.557" y2="101.921" stroke="#EEEEEE"/>
<line x1="282.557" y1="388.012" x2="282.557" y2="366.861" stroke="#EEEEEE"/>
<line x1="338.217" y1="125.298" x2="338.217" y2="105.261" stroke="#EEEEEE"/>
<line x1="339.33" y1="388.012" x2="339.33" y2="366.861" stroke="#EEEEEE"/>
<line x1="219.605" y1="299.457" x2="182.869" y2="299.457" stroke="#EEEEEE"/>
<line y1="-0.5" x2="36.7355" y2="-0.5" transform="matrix(1 -9.90701e-08 -7.70365e-08 -1 404.395 298.957)" stroke="#EEEEEE"/>
<rect x="281.851" y="378.307" width="1.1132" height="3.33959" fill="#393939"/>
<rect x="214.039" y="197.656" width="1.1132" height="4.45278" transform="rotate(90 214.039 197.656)" fill="#393939"/>
<rect x="101.606" y="221.033" width="1.1132" height="2.22639" transform="rotate(90 101.606 221.033)" fill="#393939"/>
<rect x="197.678" y="298.957" width="1.1132" height="2.22639" transform="rotate(90 197.678 298.957)" fill="#393939"/>
<rect x="192.669" y="298.957" width="1.1132" height="2.22639" transform="rotate(90 192.669 298.957)" fill="#393939"/>
<rect x="96.0403" y="221.033" width="1.11312" height="5.0097" transform="rotate(90 96.0403 221.033)" fill="#393939"/>
<rect x="197.678" y="197.656" width="1.11312" height="5.0097" transform="rotate(90 197.678 197.656)" fill="#393939"/>
<rect width="1.1132" height="2.22639" transform="matrix(3.90063e-08 1 1 -4.8984e-08 522.394 221.033)" fill="#393939"/>
<rect width="1.1132" height="2.22639" transform="matrix(3.90063e-08 1 1 -4.8984e-08 430.089 197.656)" fill="#393939"/>
<rect width="1.1132" height="17.4886" transform="matrix(3.90063e-08 1 1 -4.8984e-08 405.274 197.656)" fill="#393939"/>
<rect width="1.11319" height="7.22543" transform="matrix(1 0 -9.97768e-09 -1 337.604 112.808)" fill="#393939"/>
<rect width="1.11319" height="7.22543" transform="matrix(1 0 -9.97768e-09 -1 281.944 126.684)" fill="#393939"/>
<rect width="1.1132" height="17.4886" transform="matrix(3.90063e-08 1 1 -4.8984e-08 414.827 299.205)" fill="#393939"/>
<rect x="101.606" y="272.24" width="1.1132" height="2.22639" transform="rotate(90 101.606 272.24)" fill="#393939"/>
<rect x="92.1439" y="272.24" width="1.1132" height="2.22639" transform="rotate(90 92.1439 272.24)" fill="#393939"/>
<rect width="1.1132" height="2.22639" transform="matrix(3.85453e-08 1 1 -4.95698e-08 522.394 272.24)" fill="#393939"/>
<rect x="220.556" y="299.267" width="1.05108" height="10.5108" transform="rotate(90 220.556 299.267)" fill="#393939"/>
<rect x="338.717" y="370.201" width="1.1132" height="5.56598" fill="#393939"/>
<rect x="338.717" y="382.446" width="1.1132" height="4.45278" fill="#393939"/>
<rect x="338.717" y="373.541" width="1.1132" height="2.22639" fill="#393939"/>
<rect x="338.717" y="375.767" width="1.1132" height="1.1132" fill="#393939"/>
<rect x="448.44" y="160.524" width="30.4814" height="6.3065" rx="2.5" fill="#EEEEEE"/>
<rect x="446.338" y="341.31" width="36.7879" height="2.10217" rx="1.05108" fill="#EEEEEE"/>
<rect x="546.19" y="226.742" width="36.7879" height="2.10217" rx="1.05108" fill="#EEEEEE"/>
<rect x="546.19" y="266.683" width="36.7879" height="2.10217" rx="1.05108" fill="#EEEEEE"/>
<rect x="546.19" y="230.946" width="21.0217" height="2.10217" rx="1.05108" fill="#EEEEEE"/>
<rect x="546.19" y="271.938" width="21.0217" height="2.10217" rx="1.05108" fill="#EEEEEE"/>
<rect x="546.19" y="236.201" width="50.452" height="3.15325" rx="1.57663" fill="#EEEEEE"/>
<rect x="546.19" y="277.194" width="50.452" height="2.10217" rx="1.05108" fill="#EEEEEE"/>
<rect x="546.19" y="284.551" width="53.6053" height="6.3065" rx="2.5" fill="#EEEEEE"/>
<rect x="220.718" y="125.298" width="182.564" height="247.129" rx="10" fill="#393939"/>
<rect x="240.62" y="159.133" width="141.708" height="37.9438" rx="5" fill="#484848"/>
<rect x="240.62" y="250.508" width="141.708" height="37.9438" rx="5" fill="#484848"/>
<rect x="240.62" y="296.195" width="141.708" height="37.9438" rx="5" fill="#484848"/>
<rect x="240.62" y="204.821" width="141.708" height="37.9438" rx="5" fill="#484848"/>
</g>
<defs>
<filter id="filter0_d" x="91.9456" y="130.996" width="103.924" height="120.622" filterUnits="userSpaceOnUse" color-interpolation-filters="sRGB">
<feFlood flood-opacity="0" result="BackgroundImageFix"/>
<feColorMatrix in="SourceAlpha" type="matrix" values="0 0 0 0 0 0 0 0 0 0 0 0 0 0 0 0 0 0 127 0"/>
<feOffset dy="2"/>
<feGaussianBlur stdDeviation="6.5"/>
<feColorMatrix type="matrix" values="0 0 0 0 0 0 0 0 0 0 0 0 0 0 0 0 0 0 0.07 0"/>
<feBlend mode="normal" in2="BackgroundImageFix" result="effect1_dropShadow"/>
<feBlend mode="normal" in="SourceGraphic" in2="effect1_dropShadow" result="shape"/>
</filter>
<filter id="filter1_d" x="428.13" y="130.996" width="103.924" height="120.622" filterUnits="userSpaceOnUse" color-interpolation-filters="sRGB">
<feFlood flood-opacity="0" result="BackgroundImageFix"/>
<feColorMatrix in="SourceAlpha" type="matrix" values="0 0 0 0 0 0 0 0 0 0 0 0 0 0 0 0 0 0 127 0"/>
<feOffset dy="2"/>
<feGaussianBlur stdDeviation="6.5"/>
<feColorMatrix type="matrix" values="0 0 0 0 0 0 0 0 0 0 0 0 0 0 0 0 0 0 0.07 0"/>
<feBlend mode="normal" in2="BackgroundImageFix" result="effect1_dropShadow"/>
<feBlend mode="normal" in="SourceGraphic" in2="effect1_dropShadow" result="shape"/>
</filter>
<filter id="filter2_d" x="-6.01556" y="195.561" width="103.924" height="120.622" filterUnits="userSpaceOnUse" color-interpolation-filters="sRGB">
<feFlood flood-opacity="0" result="BackgroundImageFix"/>
<feColorMatrix in="SourceAlpha" type="matrix" values="0 0 0 0 0 0 0 0 0 0 0 0 0 0 0 0 0 0 127 0"/>
<feOffset dy="2"/>
<feGaussianBlur stdDeviation="6.5"/>
<feColorMatrix type="matrix" values="0 0 0 0 0 0 0 0 0 0 0 0 0 0 0 0 0 0 0.07 0"/>
<feBlend mode="normal" in2="BackgroundImageFix" result="effect1_dropShadow"/>
<feBlend mode="normal" in="SourceGraphic" in2="effect1_dropShadow" result="shape"/>
</filter>
<filter id="filter3_d" x="526.092" y="195.561" width="103.924" height="120.622" filterUnits="userSpaceOnUse" color-interpolation-filters="sRGB">
<feFlood flood-opacity="0" result="BackgroundImageFix"/>
<feColorMatrix in="SourceAlpha" type="matrix" values="0 0 0 0 0 0 0 0 0 0 0 0 0 0 0 0 0 0 127 0"/>
<feOffset dy="2"/>
<feGaussianBlur stdDeviation="6.5"/>
<feColorMatrix type="matrix" values="0 0 0 0 0 0 0 0 0 0 0 0 0 0 0 0 0 0 0.07 0"/>
<feBlend mode="normal" in2="BackgroundImageFix" result="effect1_dropShadow"/>
<feBlend mode="normal" in="SourceGraphic" in2="effect1_dropShadow" result="shape"/>
</filter>
<filter id="filter4_d" x="93.0588" y="246.768" width="103.924" height="121.735" filterUnits="userSpaceOnUse" color-interpolation-filters="sRGB">
<feFlood flood-opacity="0" result="BackgroundImageFix"/>
<feColorMatrix in="SourceAlpha" type="matrix" values="0 0 0 0 0 0 0 0 0 0 0 0 0 0 0 0 0 0 127 0"/>
<feOffset dy="2"/>
<feGaussianBlur stdDeviation="6.5"/>
<feColorMatrix type="matrix" values="0 0 0 0 0 0 0 0 0 0 0 0 0 0 0 0 0 0 0.07 0"/>
<feBlend mode="normal" in2="BackgroundImageFix" result="effect1_dropShadow"/>
<feBlend mode="normal" in="SourceGraphic" in2="effect1_dropShadow" result="shape"/>
</filter>
<filter id="filter5_d" x="427.017" y="246.768" width="103.924" height="121.735" filterUnits="userSpaceOnUse" color-interpolation-filters="sRGB">
<feFlood flood-opacity="0" result="BackgroundImageFix"/>
<feColorMatrix in="SourceAlpha" type="matrix" values="0 0 0 0 0 0 0 0 0 0 0 0 0 0 0 0 0 0 127 0"/>
<feOffset dy="2"/>
<feGaussianBlur stdDeviation="6.5"/>
<feColorMatrix type="matrix" values="0 0 0 0 0 0 0 0 0 0 0 0 0 0 0 0 0 0 0.07 0"/>
<feBlend mode="normal" in2="BackgroundImageFix" result="effect1_dropShadow"/>
<feBlend mode="normal" in="SourceGraphic" in2="effect1_dropShadow" result="shape"/>
</filter>
<filter id="filter6_d" x="250.019" y="376.526" width="65.8895" height="74.8546" filterUnits="userSpaceOnUse" color-interpolation-filters="sRGB">
<feFlood flood-opacity="0" result="BackgroundImageFix"/>
<feColorMatrix in="SourceAlpha" type="matrix" values="0 0 0 0 0 0 0 0 0 0 0 0 0 0 0 0 0 0 127 0"/>
<feOffset dy="2"/>
<feGaussianBlur stdDeviation="6.5"/>
<feColorMatrix type="matrix" values="0 0 0 0 0 0 0 0 0 0 0 0 0 0 0 0 0 0 0.07 0"/>
<feBlend mode="normal" in2="BackgroundImageFix" result="effect1_dropShadow"/>
<feBlend mode="normal" in="SourceGraphic" in2="effect1_dropShadow" result="shape"/>
</filter>
<filter id="filter7_d" x="305.865" y="376.526" width="65.8895" height="74.8546" filterUnits="userSpaceOnUse" color-interpolation-filters="sRGB">
<feFlood flood-opacity="0" result="BackgroundImageFix"/>
<feColorMatrix in="SourceAlpha" type="matrix" values="0 0 0 0 0 0 0 0 0 0 0 0 0 0 0 0 0 0 127 0"/>
<feOffset dy="2"/>
<feGaussianBlur stdDeviation="6.5"/>
<feColorMatrix type="matrix" values="0 0 0 0 0 0 0 0 0 0 0 0 0 0 0 0 0 0 0.07 0"/>
<feBlend mode="normal" in2="BackgroundImageFix" result="effect1_dropShadow"/>
<feBlend mode="normal" in="SourceGraphic" in2="effect1_dropShadow" result="shape"/>
</filter>
<filter id="filter8_d" x="252.246" y="48.6195" width="62.4845" height="70.9207" filterUnits="userSpaceOnUse" color-interpolation-filters="sRGB">
<feFlood flood-opacity="0" result="BackgroundImageFix"/>
<feColorMatrix in="SourceAlpha" type="matrix" values="0 0 0 0 0 0 0 0 0 0 0 0 0 0 0 0 0 0 127 0"/>
<feOffset dy="2"/>
<feGaussianBlur stdDeviation="6.5"/>
<feColorMatrix type="matrix" values="0 0 0 0 0 0 0 0 0 0 0 0 0 0 0 0 0 0 0.07 0"/>
<feBlend mode="normal" in2="BackgroundImageFix" result="effect1_dropShadow"/>
<feBlend mode="normal" in="SourceGraphic" in2="effect1_dropShadow" result="shape"/>
</filter>
<filter id="filter9_d" x="305.93" y="48.6195" width="62.4845" height="70.9207" filterUnits="userSpaceOnUse" color-interpolation-filters="sRGB">
<feFlood flood-opacity="0" result="BackgroundImageFix"/>
<feColorMatrix in="SourceAlpha" type="matrix" values="0 0 0 0 0 0 0 0 0 0 0 0 0 0 0 0 0 0 127 0"/>
<feOffset dy="2"/>
<feGaussianBlur stdDeviation="6.5"/>
<feColorMatrix type="matrix" values="0 0 0 0 0 0 0 0 0 0 0 0 0 0 0 0 0 0 0.07 0"/>
<feBlend mode="normal" in2="BackgroundImageFix" result="effect1_dropShadow"/>
<feBlend mode="normal" in="SourceGraphic" in2="effect1_dropShadow" result="shape"/>
</filter>
<clipPath id="clip0">
<rect width="624" height="510" fill="white"/>
</clipPath>
</defs>
</svg>
