<svg width="634" height="178" viewBox="0 0 634 178" fill="none" xmlns="http://www.w3.org/2000/svg">
<g clip-path="url(#clip0)">
<path d="M128.476 88.9292C128.476 54.4163 100.498 26.4381 65.9847 26.4381C31.4718 26.4381 3.49365 54.4163 3.49365 88.9292" stroke="#ECECEC" stroke-width="7"/>
<path d="M128.476 88.9292C128.476 123.442 156.454 151.42 190.967 151.42C225.48 151.42 253.458 123.442 253.458 88.9292" stroke="#ECECEC" stroke-width="7"/>
<path d="M378.44 88.9292C378.44 54.4163 350.462 26.4381 315.949 26.4381C281.436 26.4381 253.458 54.4163 253.458 88.9292" stroke="#ECECEC" stroke-width="7"/>
<path d="M628.405 88.9292C628.405 54.4163 600.427 26.4381 565.914 26.4381C531.401 26.4381 503.423 54.4163 503.423 88.9292" stroke="#ECECEC" stroke-width="7"/>
<path d="M378.441 88.9292C378.441 123.442 406.419 151.42 440.932 151.42C475.445 151.42 503.423 123.442 503.423 88.9292" stroke="#ECECEC" stroke-width="7"/>
<path d="M165.859 92.0837H167.347L167.935 90.2117H171.343L171.937 92.0837H173.425L170.701 83.4437H168.583L165.859 92.0837ZM168.361 88.8617L169.627 84.8417L170.911 88.8617H168.361ZM174.497 92.0837H175.961V88.7537C175.961 88.2297 176.035 87.8257 176.183 87.5417C176.335 87.2537 176.527 87.0557 176.759 86.9477C176.995 86.8357 177.235 86.7797 177.479 86.7797C177.823 86.7797 178.097 86.8557 178.301 87.0077C178.505 87.1557 178.655 87.3457 178.751 87.5777C178.851 87.8057 178.915 88.0437 178.943 88.2917C178.975 88.5397 178.991 88.7637 178.991 88.9637V92.0837H180.455V88.4657C180.455 88.3137 180.441 88.1117 180.413 87.8597C180.389 87.6077 180.333 87.3417 180.245 87.0617C180.157 86.7817 180.021 86.5177 179.837 86.2697C179.653 86.0177 179.403 85.8137 179.087 85.6577C178.775 85.4977 178.381 85.4177 177.905 85.4177C177.437 85.4177 177.025 85.4997 176.669 85.6637C176.317 85.8237 176.023 86.0437 175.787 86.3237V85.6037H174.497V92.0837ZM183.833 92.2637C184.349 92.2637 184.787 92.1797 185.147 92.0117C185.511 91.8397 185.831 91.5737 186.107 91.2137V92.0837H187.373V88.1057C187.373 87.8257 187.361 87.5677 187.337 87.3317C187.313 87.0917 187.243 86.8577 187.127 86.6297C186.915 86.2017 186.589 85.8937 186.149 85.7057C185.713 85.5177 185.207 85.4237 184.631 85.4237C183.871 85.4237 183.265 85.5897 182.813 85.9217C182.361 86.2537 182.055 86.6937 181.895 87.2417L183.215 87.6557C183.323 87.3237 183.513 87.0897 183.785 86.9537C184.057 86.8177 184.339 86.7497 184.631 86.7497C185.071 86.7497 185.395 86.8397 185.603 87.0197C185.811 87.1957 185.929 87.4697 185.957 87.8417C185.389 87.9257 184.861 88.0077 184.373 88.0877C183.889 88.1637 183.477 88.2577 183.137 88.3697C182.625 88.5457 182.251 88.7957 182.015 89.1197C181.779 89.4397 181.661 89.8357 181.661 90.3077C181.661 90.6637 181.743 90.9897 181.907 91.2857C182.075 91.5817 182.321 91.8197 182.645 91.9997C182.969 92.1757 183.365 92.2637 183.833 92.2637ZM184.121 91.1117C183.781 91.1117 183.521 91.0337 183.341 90.8777C183.165 90.7217 183.077 90.5257 183.077 90.2897C183.077 90.0777 183.145 89.9057 183.281 89.7737C183.421 89.6417 183.615 89.5297 183.863 89.4377C184.091 89.3617 184.365 89.2957 184.685 89.2397C185.005 89.1797 185.423 89.1097 185.939 89.0297C185.935 89.1817 185.925 89.3517 185.909 89.5397C185.893 89.7237 185.855 89.8897 185.795 90.0377C185.747 90.1857 185.653 90.3437 185.513 90.5117C185.377 90.6797 185.193 90.8217 184.961 90.9377C184.729 91.0537 184.449 91.1117 184.121 91.1117ZM189.055 92.0837H190.501V83.2637H189.055V92.0837ZM193.15 94.9637H194.506L198.118 85.6037H196.672L194.914 90.2417L193.102 85.6037H191.596L194.218 92.0357L193.15 94.9637ZM201.515 92.2637C202.351 92.2637 203.005 92.0777 203.477 91.7057C203.953 91.3337 204.191 90.8217 204.191 90.1697C204.191 89.6657 204.031 89.2697 203.711 88.9817C203.395 88.6937 202.849 88.4497 202.073 88.2497C201.569 88.1217 201.189 88.0137 200.933 87.9257C200.681 87.8377 200.513 87.7497 200.429 87.6617C200.345 87.5737 200.303 87.4677 200.303 87.3437C200.303 87.1277 200.407 86.9597 200.615 86.8397C200.823 86.7157 201.097 86.6617 201.437 86.6777C201.789 86.6977 202.071 86.7877 202.283 86.9477C202.499 87.1077 202.627 87.3257 202.667 87.6017L204.143 87.3377C204.063 86.7537 203.777 86.2897 203.285 85.9457C202.793 85.5977 202.169 85.4237 201.413 85.4237C200.641 85.4237 200.023 85.6037 199.559 85.9637C199.095 86.3237 198.863 86.8077 198.863 87.4157C198.863 87.8997 199.025 88.2817 199.349 88.5617C199.677 88.8417 200.247 89.0877 201.059 89.2997C201.547 89.4277 201.907 89.5357 202.139 89.6237C202.375 89.7077 202.529 89.7937 202.601 89.8817C202.673 89.9697 202.709 90.0877 202.709 90.2357C202.709 90.4757 202.613 90.6657 202.421 90.8057C202.229 90.9417 201.961 91.0097 201.617 91.0097C201.221 91.0097 200.891 90.9177 200.627 90.7337C200.367 90.5497 200.201 90.2977 200.129 89.9777L198.653 90.2057C198.761 90.8577 199.065 91.3637 199.565 91.7237C200.065 92.0837 200.715 92.2637 201.515 92.2637ZM208.451 92.2637C209.075 92.2637 209.645 92.1037 210.161 91.7837C210.681 91.4597 211.065 91.0037 211.313 90.4157L209.885 89.9837C209.597 90.5997 209.091 90.9077 208.367 90.9077C207.875 90.9077 207.487 90.7657 207.203 90.4817C206.919 90.1937 206.749 89.7817 206.693 89.2457H211.385C211.441 88.4657 211.355 87.7897 211.127 87.2177C210.899 86.6457 210.549 86.2037 210.077 85.8917C209.609 85.5797 209.039 85.4237 208.367 85.4237C207.731 85.4237 207.171 85.5677 206.687 85.8557C206.203 86.1397 205.825 86.5437 205.553 87.0677C205.281 87.5917 205.145 88.2077 205.145 88.9157C205.145 89.5717 205.283 90.1517 205.559 90.6557C205.839 91.1597 206.227 91.5537 206.723 91.8377C207.219 92.1217 207.795 92.2637 208.451 92.2637ZM208.427 86.6897C208.875 86.6897 209.219 86.8077 209.459 87.0437C209.703 87.2757 209.857 87.6457 209.921 88.1537H206.729C206.901 87.1777 207.467 86.6897 208.427 86.6897Z" fill="#666666"/>
<path d="M414.811 92.0837H416.257V83.4437H414.811V92.0837ZM418.042 92.0837H419.506V88.7537C419.506 88.2297 419.58 87.8257 419.728 87.5417C419.88 87.2537 420.072 87.0557 420.304 86.9477C420.54 86.8357 420.78 86.7797 421.024 86.7797C421.368 86.7797 421.642 86.8557 421.846 87.0077C422.05 87.1557 422.2 87.3457 422.296 87.5777C422.396 87.8057 422.46 88.0437 422.488 88.2917C422.52 88.5397 422.536 88.7637 422.536 88.9637V92.0837H424V88.4657C424 88.3137 423.986 88.1117 423.958 87.8597C423.934 87.6077 423.878 87.3417 423.79 87.0617C423.702 86.7817 423.566 86.5177 423.382 86.2697C423.198 86.0177 422.948 85.8137 422.632 85.6577C422.32 85.4977 421.926 85.4177 421.45 85.4177C420.982 85.4177 420.57 85.4997 420.214 85.6637C419.862 85.8237 419.568 86.0437 419.332 86.3237V85.6037H418.042V92.0837ZM429.364 92.0837V90.8717C428.96 90.9317 428.6 90.9477 428.284 90.9197C427.968 90.8917 427.738 90.7577 427.594 90.5177C427.518 90.3937 427.476 90.2337 427.468 90.0377C427.464 89.8377 427.462 89.6097 427.462 89.3537V86.7377H429.364V85.6037H427.462V83.8037H426.022V85.6037H424.846V86.7377H426.022V89.4377C426.022 89.8097 426.026 90.1417 426.034 90.4337C426.042 90.7217 426.12 91.0057 426.268 91.2857C426.436 91.5937 426.682 91.8197 427.006 91.9637C427.33 92.1037 427.696 92.1777 428.104 92.1857C428.516 92.1977 428.936 92.1637 429.364 92.0837ZM433.375 92.2637C433.999 92.2637 434.569 92.1037 435.085 91.7837C435.605 91.4597 435.989 91.0037 436.237 90.4157L434.809 89.9837C434.521 90.5997 434.015 90.9077 433.291 90.9077C432.799 90.9077 432.411 90.7657 432.127 90.4817C431.843 90.1937 431.673 89.7817 431.617 89.2457H436.309C436.365 88.4657 436.279 87.7897 436.051 87.2177C435.823 86.6457 435.473 86.2037 435.001 85.8917C434.533 85.5797 433.963 85.4237 433.291 85.4237C432.655 85.4237 432.095 85.5677 431.611 85.8557C431.127 86.1397 430.749 86.5437 430.477 87.0677C430.205 87.5917 430.069 88.2077 430.069 88.9157C430.069 89.5717 430.207 90.1517 430.483 90.6557C430.763 91.1597 431.151 91.5537 431.647 91.8377C432.143 92.1217 432.719 92.2637 433.375 92.2637ZM433.351 86.6897C433.799 86.6897 434.143 86.8077 434.383 87.0437C434.627 87.2757 434.781 87.6457 434.845 88.1537H431.653C431.825 87.1777 432.391 86.6897 433.351 86.6897ZM440.246 92.2637C440.582 92.2637 440.888 92.2177 441.164 92.1257C441.444 92.0377 441.694 91.9137 441.914 91.7537V92.3717C441.922 92.8317 441.78 93.1797 441.488 93.4157C441.2 93.6517 440.83 93.7697 440.378 93.7697C440.122 93.7697 439.88 93.7117 439.652 93.5957C439.424 93.4797 439.25 93.3057 439.13 93.0737L437.798 93.7337C438.05 94.1737 438.406 94.5177 438.866 94.7657C439.33 95.0177 439.832 95.1437 440.372 95.1437C441.104 95.1437 441.732 94.9937 442.256 94.6937C442.784 94.3977 443.122 93.9357 443.27 93.3077C443.302 93.1637 443.324 93.0177 443.336 92.8697C443.352 92.7217 443.36 92.5637 443.36 92.3957V85.6037H442.094V86.0717C441.866 85.8637 441.602 85.7037 441.302 85.5917C441.002 85.4797 440.668 85.4237 440.3 85.4237C439.688 85.4237 439.156 85.5717 438.704 85.8677C438.256 86.1637 437.908 86.5697 437.66 87.0857C437.412 87.6017 437.288 88.1877 437.288 88.8437C437.288 89.4917 437.41 90.0737 437.654 90.5897C437.898 91.1057 438.242 91.5137 438.686 91.8137C439.13 92.1137 439.65 92.2637 440.246 92.2637ZM440.468 90.9677C440.092 90.9677 439.782 90.8737 439.538 90.6857C439.294 90.4937 439.112 90.2377 438.992 89.9177C438.876 89.5977 438.818 89.2397 438.818 88.8437C438.818 88.4517 438.878 88.0957 438.998 87.7757C439.122 87.4517 439.308 87.1957 439.556 87.0077C439.808 86.8157 440.128 86.7197 440.516 86.7197C441.068 86.7197 441.468 86.9157 441.716 87.3077C441.968 87.6997 442.094 88.2117 442.094 88.8437C442.094 89.4717 441.968 89.9837 441.716 90.3797C441.468 90.7717 441.052 90.9677 440.468 90.9677ZM445.043 92.0837H446.495V88.7897C446.495 88.4137 446.563 88.0797 446.699 87.7877C446.839 87.4957 447.057 87.2697 447.353 87.1097C447.553 86.9937 447.777 86.9257 448.025 86.9057C448.273 86.8817 448.495 86.8977 448.691 86.9537V85.6037C448.399 85.5597 448.099 85.5657 447.791 85.6217C447.483 85.6737 447.209 85.7817 446.969 85.9457C446.833 86.0297 446.711 86.1317 446.603 86.2517C446.495 86.3677 446.401 86.4977 446.321 86.6417V85.6037H445.043V92.0837ZM451.495 92.2637C452.011 92.2637 452.449 92.1797 452.809 92.0117C453.173 91.8397 453.493 91.5737 453.769 91.2137V92.0837H455.035V88.1057C455.035 87.8257 455.023 87.5677 454.999 87.3317C454.975 87.0917 454.905 86.8577 454.789 86.6297C454.577 86.2017 454.251 85.8937 453.811 85.7057C453.375 85.5177 452.869 85.4237 452.293 85.4237C451.533 85.4237 450.927 85.5897 450.475 85.9217C450.023 86.2537 449.717 86.6937 449.557 87.2417L450.877 87.6557C450.985 87.3237 451.175 87.0897 451.447 86.9537C451.719 86.8177 452.001 86.7497 452.293 86.7497C452.733 86.7497 453.057 86.8397 453.265 87.0197C453.473 87.1957 453.591 87.4697 453.619 87.8417C453.051 87.9257 452.523 88.0077 452.035 88.0877C451.551 88.1637 451.139 88.2577 450.799 88.3697C450.287 88.5457 449.913 88.7957 449.677 89.1197C449.441 89.4397 449.323 89.8357 449.323 90.3077C449.323 90.6637 449.405 90.9897 449.569 91.2857C449.737 91.5817 449.983 91.8197 450.307 91.9997C450.631 92.1757 451.027 92.2637 451.495 92.2637ZM451.783 91.1117C451.443 91.1117 451.183 91.0337 451.003 90.8777C450.827 90.7217 450.739 90.5257 450.739 90.2897C450.739 90.0777 450.807 89.9057 450.943 89.7737C451.083 89.6417 451.277 89.5297 451.525 89.4377C451.753 89.3617 452.027 89.2957 452.347 89.2397C452.667 89.1797 453.085 89.1097 453.601 89.0297C453.597 89.1817 453.587 89.3517 453.571 89.5397C453.555 89.7237 453.517 89.8897 453.457 90.0377C453.409 90.1857 453.315 90.3437 453.175 90.5117C453.039 90.6797 452.855 90.8217 452.623 90.9377C452.391 91.0537 452.111 91.1117 451.783 91.1117ZM460.395 92.0837V90.8717C459.991 90.9317 459.631 90.9477 459.315 90.9197C458.999 90.8917 458.769 90.7577 458.625 90.5177C458.549 90.3937 458.507 90.2337 458.499 90.0377C458.495 89.8377 458.493 89.6097 458.493 89.3537V86.7377H460.395V85.6037H458.493V83.8037H457.053V85.6037H455.877V86.7377H457.053V89.4377C457.053 89.8097 457.057 90.1417 457.065 90.4337C457.073 90.7217 457.151 91.0057 457.299 91.2857C457.467 91.5937 457.713 91.8197 458.037 91.9637C458.361 92.1037 458.727 92.1777 459.135 92.1857C459.547 92.1977 459.967 92.1637 460.395 92.0837ZM464.407 92.2637C465.031 92.2637 465.601 92.1037 466.117 91.7837C466.637 91.4597 467.021 91.0037 467.269 90.4157L465.841 89.9837C465.553 90.5997 465.047 90.9077 464.323 90.9077C463.831 90.9077 463.443 90.7657 463.159 90.4817C462.875 90.1937 462.705 89.7817 462.649 89.2457H467.341C467.397 88.4657 467.311 87.7897 467.083 87.2177C466.855 86.6457 466.505 86.2037 466.033 85.8917C465.565 85.5797 464.995 85.4237 464.323 85.4237C463.687 85.4237 463.127 85.5677 462.643 85.8557C462.159 86.1397 461.781 86.5437 461.509 87.0677C461.237 87.5917 461.101 88.2077 461.101 88.9157C461.101 89.5717 461.239 90.1517 461.515 90.6557C461.795 91.1597 462.183 91.5537 462.679 91.8377C463.175 92.1217 463.751 92.2637 464.407 92.2637ZM464.383 86.6897C464.831 86.6897 465.175 86.8077 465.415 87.0437C465.659 87.2757 465.813 87.6457 465.877 88.1537H462.685C462.857 87.1777 463.423 86.6897 464.383 86.6897Z" fill="#666666"/>
<path d="M546.099 92.0837H547.545V89.0657H549.597L551.061 92.0837H552.699L551.103 88.8077C551.595 88.5877 551.961 88.2537 552.201 87.8057C552.441 87.3577 552.561 86.8417 552.561 86.2577C552.561 85.5417 552.381 84.9317 552.021 84.4277C551.665 83.9197 551.111 83.6077 550.359 83.4917C550.247 83.4717 550.125 83.4597 549.993 83.4557C549.861 83.4477 549.753 83.4437 549.669 83.4437H546.099V92.0837ZM547.545 87.7157V84.7997H549.609C549.689 84.7997 549.779 84.8037 549.879 84.8117C549.979 84.8197 550.071 84.8337 550.155 84.8537C550.395 84.9137 550.583 85.0217 550.719 85.1777C550.859 85.3297 550.957 85.5017 551.013 85.6937C551.073 85.8857 551.103 86.0737 551.103 86.2577C551.103 86.4417 551.073 86.6297 551.013 86.8217C550.957 87.0137 550.859 87.1857 550.719 87.3377C550.583 87.4897 550.395 87.5957 550.155 87.6557C550.071 87.6797 549.979 87.6957 549.879 87.7037C549.779 87.7117 549.689 87.7157 549.609 87.7157H547.545ZM556.967 92.2637C557.591 92.2637 558.161 92.1037 558.677 91.7837C559.197 91.4597 559.581 91.0037 559.829 90.4157L558.401 89.9837C558.113 90.5997 557.607 90.9077 556.883 90.9077C556.391 90.9077 556.003 90.7657 555.719 90.4817C555.435 90.1937 555.265 89.7817 555.209 89.2457H559.901C559.957 88.4657 559.871 87.7897 559.643 87.2177C559.415 86.6457 559.065 86.2037 558.593 85.8917C558.125 85.5797 557.555 85.4237 556.883 85.4237C556.247 85.4237 555.687 85.5677 555.203 85.8557C554.719 86.1397 554.341 86.5437 554.069 87.0677C553.797 87.5917 553.661 88.2077 553.661 88.9157C553.661 89.5717 553.799 90.1517 554.075 90.6557C554.355 91.1597 554.743 91.5537 555.239 91.8377C555.735 92.1217 556.311 92.2637 556.967 92.2637ZM556.943 86.6897C557.391 86.6897 557.735 86.8077 557.975 87.0437C558.219 87.2757 558.373 87.6457 558.437 88.1537H555.245C555.417 87.1777 555.983 86.6897 556.943 86.6897ZM563.67 92.2697C564.138 92.2697 564.548 92.1897 564.9 92.0297C565.256 91.8657 565.552 91.6437 565.788 91.3637V92.0837H567.066V85.6037H565.614V88.9337C565.614 89.4577 565.538 89.8637 565.386 90.1517C565.238 90.4357 565.048 90.6337 564.816 90.7457C564.584 90.8537 564.344 90.9077 564.096 90.9077C563.752 90.9077 563.478 90.8337 563.274 90.6857C563.07 90.5337 562.918 90.3437 562.818 90.1157C562.722 89.8837 562.658 89.6437 562.626 89.3957C562.598 89.1477 562.584 88.9237 562.584 88.7237V85.6037H561.12V89.2217C561.12 89.3737 561.132 89.5757 561.156 89.8277C561.184 90.0797 561.242 90.3457 561.33 90.6257C561.418 90.9057 561.554 91.1717 561.738 91.4237C561.922 91.6717 562.17 91.8757 562.482 92.0357C562.798 92.1917 563.194 92.2697 563.67 92.2697ZM571.254 92.2637C572.09 92.2637 572.744 92.0777 573.216 91.7057C573.692 91.3337 573.93 90.8217 573.93 90.1697C573.93 89.6657 573.77 89.2697 573.45 88.9817C573.134 88.6937 572.588 88.4497 571.812 88.2497C571.308 88.1217 570.928 88.0137 570.672 87.9257C570.42 87.8377 570.252 87.7497 570.168 87.6617C570.084 87.5737 570.042 87.4677 570.042 87.3437C570.042 87.1277 570.146 86.9597 570.354 86.8397C570.562 86.7157 570.836 86.6617 571.176 86.6777C571.528 86.6977 571.81 86.7877 572.022 86.9477C572.238 87.1077 572.366 87.3257 572.406 87.6017L573.882 87.3377C573.802 86.7537 573.516 86.2897 573.024 85.9457C572.532 85.5977 571.908 85.4237 571.152 85.4237C570.38 85.4237 569.762 85.6037 569.298 85.9637C568.834 86.3237 568.602 86.8077 568.602 87.4157C568.602 87.8997 568.764 88.2817 569.088 88.5617C569.416 88.8417 569.986 89.0877 570.798 89.2997C571.286 89.4277 571.646 89.5357 571.878 89.6237C572.114 89.7077 572.268 89.7937 572.34 89.8817C572.412 89.9697 572.448 90.0877 572.448 90.2357C572.448 90.4757 572.352 90.6657 572.16 90.8057C571.968 90.9417 571.7 91.0097 571.356 91.0097C570.96 91.0097 570.63 90.9177 570.366 90.7337C570.106 90.5497 569.94 90.2977 569.868 89.9777L568.392 90.2057C568.5 90.8577 568.804 91.3637 569.304 91.7237C569.804 92.0837 570.454 92.2637 571.254 92.2637ZM578.19 92.2637C578.814 92.2637 579.384 92.1037 579.9 91.7837C580.42 91.4597 580.804 91.0037 581.052 90.4157L579.624 89.9837C579.336 90.5997 578.83 90.9077 578.106 90.9077C577.614 90.9077 577.226 90.7657 576.942 90.4817C576.658 90.1937 576.488 89.7817 576.432 89.2457H581.124C581.18 88.4657 581.094 87.7897 580.866 87.2177C580.638 86.6457 580.288 86.2037 579.816 85.8917C579.348 85.5797 578.778 85.4237 578.106 85.4237C577.47 85.4237 576.91 85.5677 576.426 85.8557C575.942 86.1397 575.564 86.5437 575.292 87.0677C575.02 87.5917 574.884 88.2077 574.884 88.9157C574.884 89.5717 575.022 90.1517 575.298 90.6557C575.578 91.1597 575.966 91.5537 576.462 91.8377C576.958 92.1217 577.534 92.2637 578.19 92.2637ZM578.166 86.6897C578.614 86.6897 578.958 86.8077 579.198 87.0437C579.442 87.2757 579.596 87.6457 579.66 88.1537H576.468C576.64 87.1777 577.206 86.6897 578.166 86.6897Z" fill="#666666"/>
<path d="M48.1959 92.2637C49.1879 92.2637 50.0159 92.0157 50.6799 91.5197C51.3479 91.0197 51.8159 90.3477 52.0839 89.5037L50.6259 89.1017C50.4579 89.6617 50.1719 90.1017 49.7679 90.4217C49.3639 90.7417 48.8399 90.9017 48.1959 90.9017C47.3279 90.9017 46.6739 90.6157 46.2339 90.0437C45.7979 89.4677 45.5799 88.7077 45.5799 87.7637C45.5839 86.8197 45.8039 86.0617 46.2399 85.4897C46.6759 84.9137 47.3279 84.6257 48.1959 84.6257C48.8399 84.6257 49.3639 84.7857 49.7679 85.1057C50.1719 85.4257 50.4579 85.8657 50.6259 86.4257L52.0839 86.0237C51.8159 85.1757 51.3479 84.5037 50.6799 84.0077C50.0159 83.5117 49.1879 83.2637 48.1959 83.2637C47.3359 83.2637 46.5959 83.4537 45.9759 83.8337C45.3599 84.2097 44.8859 84.7357 44.5539 85.4117C44.2259 86.0837 44.0619 86.8677 44.0619 87.7637C44.0619 88.6557 44.2259 89.4397 44.5539 90.1157C44.8859 90.7917 45.3599 91.3197 45.9759 91.6997C46.5959 92.0757 47.3359 92.2637 48.1959 92.2637ZM56.2633 92.2637C56.9113 92.2637 57.4773 92.1197 57.9613 91.8317C58.4453 91.5397 58.8213 91.1377 59.0893 90.6257C59.3613 90.1097 59.4973 89.5157 59.4973 88.8437C59.4973 88.1757 59.3633 87.5857 59.0953 87.0737C58.8273 86.5577 58.4513 86.1537 57.9673 85.8617C57.4833 85.5697 56.9153 85.4237 56.2633 85.4237C55.6273 85.4237 55.0673 85.5677 54.5833 85.8557C54.0993 86.1437 53.7213 86.5437 53.4493 87.0557C53.1773 87.5677 53.0413 88.1637 53.0413 88.8437C53.0413 89.5117 53.1733 90.1037 53.4373 90.6197C53.7053 91.1317 54.0813 91.5337 54.5653 91.8257C55.0493 92.1177 55.6153 92.2637 56.2633 92.2637ZM56.2633 90.9077C55.7073 90.9077 55.2853 90.7217 54.9973 90.3497C54.7133 89.9737 54.5713 89.4717 54.5713 88.8437C54.5713 88.2317 54.7073 87.7357 54.9793 87.3557C55.2553 86.9717 55.6833 86.7797 56.2633 86.7797C56.8313 86.7797 57.2573 86.9677 57.5413 87.3437C57.8253 87.7157 57.9673 88.2157 57.9673 88.8437C57.9673 89.4517 57.8253 89.9477 57.5413 90.3317C57.2613 90.7157 56.8353 90.9077 56.2633 90.9077ZM60.9392 92.0837H62.3852V83.2637H60.9392V92.0837ZM64.3025 92.0837H65.7485V83.2637H64.3025V92.0837ZM70.4918 92.2637C71.1158 92.2637 71.6858 92.1037 72.2018 91.7837C72.7218 91.4597 73.1058 91.0037 73.3538 90.4157L71.9258 89.9837C71.6378 90.5997 71.1318 90.9077 70.4078 90.9077C69.9158 90.9077 69.5278 90.7657 69.2438 90.4817C68.9598 90.1937 68.7898 89.7817 68.7338 89.2457H73.4258C73.4818 88.4657 73.3958 87.7897 73.1678 87.2177C72.9398 86.6457 72.5898 86.2037 72.1178 85.8917C71.6498 85.5797 71.0798 85.4237 70.4078 85.4237C69.7718 85.4237 69.2118 85.5677 68.7278 85.8557C68.2438 86.1397 67.8658 86.5437 67.5938 87.0677C67.3218 87.5917 67.1858 88.2077 67.1858 88.9157C67.1858 89.5717 67.3238 90.1517 67.5998 90.6557C67.8798 91.1597 68.2678 91.5537 68.7638 91.8377C69.2598 92.1217 69.8358 92.2637 70.4918 92.2637ZM70.4678 86.6897C70.9158 86.6897 71.2598 86.8077 71.4998 87.0437C71.7438 87.2757 71.8978 87.6457 71.9618 88.1537H68.7698C68.9418 87.1777 69.5078 86.6897 70.4678 86.6897ZM77.5786 92.2637C78.3026 92.2637 78.9146 92.0877 79.4146 91.7357C79.9146 91.3797 80.2646 90.8717 80.4646 90.2117L78.9886 89.8817C78.8766 90.2137 78.7086 90.4677 78.4846 90.6437C78.2646 90.8197 77.9626 90.9077 77.5786 90.9077C77.0346 90.9077 76.6246 90.7177 76.3486 90.3377C76.0766 89.9577 75.9386 89.4597 75.9346 88.8437C75.9386 88.2477 76.0706 87.7557 76.3306 87.3677C76.5946 86.9757 77.0106 86.7797 77.5786 86.7797C77.9106 86.7797 78.2066 86.8777 78.4666 87.0737C78.7266 87.2657 78.9126 87.5357 79.0246 87.8837L80.4646 87.4937C80.3126 86.8537 79.9806 86.3497 79.4686 85.9817C78.9566 85.6097 78.3326 85.4237 77.5966 85.4237C76.9406 85.4237 76.3746 85.5717 75.8986 85.8677C75.4226 86.1597 75.0546 86.5637 74.7946 87.0797C74.5386 87.5917 74.4086 88.1797 74.4046 88.8437C74.4086 89.4957 74.5346 90.0797 74.7826 90.5957C75.0346 91.1117 75.3966 91.5197 75.8686 91.8197C76.3406 92.1157 76.9106 92.2637 77.5786 92.2637ZM85.4649 92.0837V90.8717C85.0609 90.9317 84.7009 90.9477 84.3849 90.9197C84.0689 90.8917 83.8389 90.7577 83.6949 90.5177C83.6189 90.3937 83.5769 90.2337 83.5689 90.0377C83.5649 89.8377 83.5629 89.6097 83.5629 89.3537V86.7377H85.4649V85.6037H83.5629V83.8037H82.1229V85.6037H80.9469V86.7377H82.1229V89.4377C82.1229 89.8097 82.1269 90.1417 82.1349 90.4337C82.1429 90.7217 82.2209 91.0057 82.3689 91.2857C82.5369 91.5937 82.7829 91.8197 83.1069 91.9637C83.4309 92.1037 83.7969 92.1777 84.2049 92.1857C84.6169 92.1977 85.0369 92.1637 85.4649 92.0837Z" fill="#666666"/>
<path d="M292.948 92.0837H294.394V89.0657H296.518C296.598 89.0657 296.704 89.0617 296.836 89.0537C296.972 89.0457 297.096 89.0337 297.208 89.0177C297.952 88.9017 298.504 88.5917 298.864 88.0877C299.228 87.5797 299.41 86.9697 299.41 86.2577C299.41 85.5417 299.23 84.9317 298.87 84.4277C298.514 83.9197 297.96 83.6077 297.208 83.4917C297.096 83.4717 296.974 83.4597 296.842 83.4557C296.71 83.4477 296.602 83.4437 296.518 83.4437H292.948V92.0837ZM294.394 87.7157V84.7997H296.458C296.538 84.7997 296.628 84.8037 296.728 84.8117C296.828 84.8197 296.92 84.8337 297.004 84.8537C297.244 84.9137 297.432 85.0217 297.568 85.1777C297.708 85.3297 297.806 85.5017 297.862 85.6937C297.922 85.8857 297.952 86.0737 297.952 86.2577C297.952 86.4417 297.922 86.6297 297.862 86.8217C297.806 87.0137 297.708 87.1857 297.568 87.3377C297.432 87.4897 297.244 87.5957 297.004 87.6557C296.92 87.6797 296.828 87.6957 296.728 87.7037C296.628 87.7117 296.538 87.7157 296.458 87.7157H294.394ZM303.042 92.2697C303.51 92.2697 303.92 92.1897 304.272 92.0297C304.628 91.8657 304.924 91.6437 305.16 91.3637V92.0837H306.438V85.6037H304.986V88.9337C304.986 89.4577 304.91 89.8637 304.758 90.1517C304.61 90.4357 304.42 90.6337 304.188 90.7457C303.956 90.8537 303.716 90.9077 303.468 90.9077C303.124 90.9077 302.85 90.8337 302.646 90.6857C302.442 90.5337 302.29 90.3437 302.19 90.1157C302.094 89.8837 302.03 89.6437 301.998 89.3957C301.97 89.1477 301.956 88.9237 301.956 88.7237V85.6037H300.492V89.2217C300.492 89.3737 300.504 89.5757 300.528 89.8277C300.556 90.0797 300.614 90.3457 300.702 90.6257C300.79 90.9057 300.926 91.1717 301.11 91.4237C301.294 91.6717 301.542 91.8757 301.854 92.0357C302.17 92.1917 302.566 92.2697 303.042 92.2697ZM308.112 92.0837H309.39V91.6037C309.622 91.8117 309.892 91.9737 310.2 92.0897C310.508 92.2057 310.854 92.2637 311.238 92.2637C311.838 92.2637 312.358 92.1137 312.798 91.8137C313.242 91.5137 313.586 91.1057 313.83 90.5897C314.074 90.0737 314.196 89.4917 314.196 88.8437C314.196 88.1877 314.072 87.6017 313.824 87.0857C313.58 86.5697 313.232 86.1637 312.78 85.8677C312.328 85.5717 311.796 85.4237 311.184 85.4237C310.86 85.4237 310.564 85.4677 310.296 85.5557C310.028 85.6397 309.786 85.7617 309.57 85.9217V83.4437H308.112V92.0837ZM311.016 90.9677C310.436 90.9677 310.02 90.7717 309.768 90.3797C309.516 89.9837 309.39 89.4717 309.39 88.8437C309.39 88.2117 309.514 87.6997 309.762 87.3077C310.014 86.9157 310.416 86.7197 310.968 86.7197C311.356 86.7197 311.674 86.8157 311.922 87.0077C312.174 87.1957 312.36 87.4517 312.48 87.7757C312.604 88.0957 312.666 88.4517 312.666 88.8437C312.666 89.2397 312.606 89.5977 312.486 89.9177C312.37 90.2377 312.19 90.4937 311.946 90.6857C311.702 90.8737 311.392 90.9677 311.016 90.9677ZM315.638 92.0837H317.084V83.2637H315.638V92.0837ZM319.002 84.6197H320.448V83.2937H319.002V84.6197ZM319.002 92.0837H320.448V85.6037H319.002V92.0837ZM324.747 92.2637C325.583 92.2637 326.237 92.0777 326.709 91.7057C327.185 91.3337 327.423 90.8217 327.423 90.1697C327.423 89.6657 327.263 89.2697 326.943 88.9817C326.627 88.6937 326.081 88.4497 325.305 88.2497C324.801 88.1217 324.421 88.0137 324.165 87.9257C323.913 87.8377 323.745 87.7497 323.661 87.6617C323.577 87.5737 323.535 87.4677 323.535 87.3437C323.535 87.1277 323.639 86.9597 323.847 86.8397C324.055 86.7157 324.329 86.6617 324.669 86.6777C325.021 86.6977 325.303 86.7877 325.515 86.9477C325.731 87.1077 325.859 87.3257 325.899 87.6017L327.375 87.3377C327.295 86.7537 327.009 86.2897 326.517 85.9457C326.025 85.5977 325.401 85.4237 324.645 85.4237C323.873 85.4237 323.255 85.6037 322.791 85.9637C322.327 86.3237 322.095 86.8077 322.095 87.4157C322.095 87.8997 322.257 88.2817 322.581 88.5617C322.909 88.8417 323.479 89.0877 324.291 89.2997C324.779 89.4277 325.139 89.5357 325.371 89.6237C325.607 89.7077 325.761 89.7937 325.833 89.8817C325.905 89.9697 325.941 90.0877 325.941 90.2357C325.941 90.4757 325.845 90.6657 325.653 90.8057C325.461 90.9417 325.193 91.0097 324.849 91.0097C324.453 91.0097 324.123 90.9177 323.859 90.7337C323.599 90.5497 323.433 90.2977 323.361 89.9777L321.885 90.2057C321.993 90.8577 322.297 91.3637 322.797 91.7237C323.297 92.0837 323.947 92.2637 324.747 92.2637ZM328.725 92.0837H330.189V88.7537C330.189 88.2297 330.263 87.8257 330.411 87.5417C330.563 87.2537 330.755 87.0557 330.987 86.9477C331.223 86.8357 331.463 86.7797 331.707 86.7797C332.051 86.7797 332.325 86.8557 332.529 87.0077C332.733 87.1557 332.883 87.3457 332.979 87.5777C333.079 87.8057 333.143 88.0437 333.171 88.2917C333.203 88.5397 333.219 88.7637 333.219 88.9637V92.0837H334.683V88.4657C334.683 88.3137 334.669 88.1117 334.641 87.8597C334.617 87.6077 334.561 87.3417 334.473 87.0617C334.385 86.7817 334.249 86.5177 334.065 86.2697C333.881 86.0177 333.631 85.8137 333.315 85.6577C333.003 85.4977 332.609 85.4177 332.133 85.4177C331.665 85.4177 331.253 85.4997 330.897 85.6637C330.545 85.8237 330.251 86.0437 330.015 86.3237V83.4437H328.725V92.0837Z" fill="#666666"/>
<path d="M128.476 88.2981C128.476 123.16 100.498 151.42 65.9847 151.42C31.4718 151.42 3.49365 123.16 3.49365 88.2981" stroke="url(#paint0_linear)" stroke-width="7"/>
<path d="M503.423 88.2981C503.423 123.16 531.401 151.42 565.914 151.42C600.427 151.42 628.405 123.16 628.405 88.2981" stroke="url(#paint1_linear)" stroke-width="7"/>
<path d="M128.476 88.9292C128.476 54.4163 156.454 26.4381 190.967 26.4381C225.48 26.4381 253.458 54.4163 253.458 88.9292" stroke="#393939" stroke-width="7"/>
<path d="M378.44 88.2981C378.44 123.16 350.462 151.42 315.949 151.42C281.436 151.42 253.458 123.16 253.458 88.2981" stroke="#393939" stroke-width="7"/>
<path d="M378.441 88.9292C378.441 54.4163 406.419 26.4381 440.932 26.4381C475.445 26.4381 503.423 54.4163 503.423 88.9292" stroke="#393939" stroke-width="7"/>
<g filter="url(#filter0_d)">
<circle cx="190.967" cy="26.4381" r="9.79401" fill="url(#paint2_linear)"/>
</g>
<g filter="url(#filter1_d)">
<circle cx="65.9849" cy="151.42" r="9.79401" fill="url(#paint3_linear)"/>
</g>
<g filter="url(#filter2_d)">
<circle cx="315.949" cy="151.42" r="9.79401" fill="url(#paint4_linear)"/>
</g>
<g filter="url(#filter3_d)">
<circle cx="440.932" cy="26.4381" r="9.79401" fill="url(#paint5_linear)"/>
</g>
<g filter="url(#filter4_d)">
<circle cx="565.914" cy="151.42" r="9.79401" fill="url(#paint6_linear)"/>
</g>
<rect x="273.568" y="71.9512" width="85.6452" height="33.7603" rx="16.8801" stroke="#EDEDED" stroke-width="2"/>
<rect x="148.145" y="71.9512" width="85.6452" height="33.7603" rx="16.8801" stroke="#EDEDED" stroke-width="2"/>
<rect x="23.1621" y="71.9512" width="85.6452" height="33.7603" rx="16.8801" stroke="#EDEDED" stroke-width="2"/>
<rect x="398.109" y="71.9512" width="85.6452" height="33.7603" rx="16.8801" stroke="#EDEDED" stroke-width="2"/>
<rect x="522.649" y="71.9512" width="85.6452" height="33.7603" rx="16.8801" stroke="#EDEDED" stroke-width="2"/>
</g>
<defs>
<filter id="filter0_d" x="163.173" y="2.64404" width="55.588" height="55.588" filterUnits="userSpaceOnUse" color-interpolation-filters="sRGB">
<feFlood flood-opacity="0" result="BackgroundImageFix"/>
<feColorMatrix in="SourceAlpha" type="matrix" values="0 0 0 0 0 0 0 0 0 0 0 0 0 0 0 0 0 0 127 0"/>
<feOffset dy="4"/>
<feGaussianBlur stdDeviation="9"/>
<feColorMatrix type="matrix" values="0 0 0 0 0.921569 0 0 0 0 0.294118 0 0 0 0 0.294118 0 0 0 0.5 0"/>
<feBlend mode="normal" in2="BackgroundImageFix" result="effect1_dropShadow"/>
<feBlend mode="normal" in="SourceGraphic" in2="effect1_dropShadow" result="shape"/>
</filter>
<filter id="filter1_d" x="38.1909" y="127.626" width="55.588" height="55.588" filterUnits="userSpaceOnUse" color-interpolation-filters="sRGB">
<feFlood flood-opacity="0" result="BackgroundImageFix"/>
<feColorMatrix in="SourceAlpha" type="matrix" values="0 0 0 0 0 0 0 0 0 0 0 0 0 0 0 0 0 0 127 0"/>
<feOffset dy="4"/>
<feGaussianBlur stdDeviation="9"/>
<feColorMatrix type="matrix" values="0 0 0 0 0.921569 0 0 0 0 0.294118 0 0 0 0 0.294118 0 0 0 0.5 0"/>
<feBlend mode="normal" in2="BackgroundImageFix" result="effect1_dropShadow"/>
<feBlend mode="normal" in="SourceGraphic" in2="effect1_dropShadow" result="shape"/>
</filter>
<filter id="filter2_d" x="288.155" y="127.626" width="55.588" height="55.588" filterUnits="userSpaceOnUse" color-interpolation-filters="sRGB">
<feFlood flood-opacity="0" result="BackgroundImageFix"/>
<feColorMatrix in="SourceAlpha" type="matrix" values="0 0 0 0 0 0 0 0 0 0 0 0 0 0 0 0 0 0 127 0"/>
<feOffset dy="4"/>
<feGaussianBlur stdDeviation="9"/>
<feColorMatrix type="matrix" values="0 0 0 0 0.921569 0 0 0 0 0.294118 0 0 0 0 0.294118 0 0 0 0.5 0"/>
<feBlend mode="normal" in2="BackgroundImageFix" result="effect1_dropShadow"/>
<feBlend mode="normal" in="SourceGraphic" in2="effect1_dropShadow" result="shape"/>
</filter>
<filter id="filter3_d" x="413.138" y="2.64404" width="55.588" height="55.588" filterUnits="userSpaceOnUse" color-interpolation-filters="sRGB">
<feFlood flood-opacity="0" result="BackgroundImageFix"/>
<feColorMatrix in="SourceAlpha" type="matrix" values="0 0 0 0 0 0 0 0 0 0 0 0 0 0 0 0 0 0 127 0"/>
<feOffset dy="4"/>
<feGaussianBlur stdDeviation="9"/>
<feColorMatrix type="matrix" values="0 0 0 0 0.921569 0 0 0 0 0.294118 0 0 0 0 0.294118 0 0 0 0.5 0"/>
<feBlend mode="normal" in2="BackgroundImageFix" result="effect1_dropShadow"/>
<feBlend mode="normal" in="SourceGraphic" in2="effect1_dropShadow" result="shape"/>
</filter>
<filter id="filter4_d" x="538.12" y="127.626" width="55.588" height="55.588" filterUnits="userSpaceOnUse" color-interpolation-filters="sRGB">
<feFlood flood-opacity="0" result="BackgroundImageFix"/>
<feColorMatrix in="SourceAlpha" type="matrix" values="0 0 0 0 0 0 0 0 0 0 0 0 0 0 0 0 0 0 127 0"/>
<feOffset dy="4"/>
<feGaussianBlur stdDeviation="9"/>
<feColorMatrix type="matrix" values="0 0 0 0 0.921569 0 0 0 0 0.294118 0 0 0 0 0.294118 0 0 0 0.5 0"/>
<feBlend mode="normal" in2="BackgroundImageFix" result="effect1_dropShadow"/>
<feBlend mode="normal" in="SourceGraphic" in2="effect1_dropShadow" result="shape"/>
</filter>
<linearGradient id="paint0_linear" x1="69.6092" y1="124.813" x2="3.18948" y2="88.86" gradientUnits="userSpaceOnUse">
<stop stop-color="#393939"/>
<stop offset="1" stop-color="#ECECEC"/>
</linearGradient>
<linearGradient id="paint1_linear" x1="562.289" y1="124.813" x2="628.709" y2="88.86" gradientUnits="userSpaceOnUse">
<stop stop-color="#393939"/>
<stop offset="1" stop-color="#ECECEC"/>
</linearGradient>
<linearGradient id="paint2_linear" x1="190.967" y1="16.644" x2="196.207" y2="38.3962" gradientUnits="userSpaceOnUse">
<stop stop-color="#FB5353"/>
<stop offset="1" stop-color="#BD3131" stop-opacity="0.97"/>
</linearGradient>
<linearGradient id="paint3_linear" x1="65.9849" y1="141.626" x2="71.2249" y2="163.378" gradientUnits="userSpaceOnUse">
<stop stop-color="#FB5353"/>
<stop offset="1" stop-color="#BD3131" stop-opacity="0.97"/>
</linearGradient>
<linearGradient id="paint4_linear" x1="315.949" y1="141.626" x2="321.189" y2="163.378" gradientUnits="userSpaceOnUse">
<stop stop-color="#FB5353"/>
<stop offset="1" stop-color="#BD3131" stop-opacity="0.97"/>
</linearGradient>
<linearGradient id="paint5_linear" x1="440.932" y1="16.644" x2="446.172" y2="38.3962" gradientUnits="userSpaceOnUse">
<stop stop-color="#FB5353"/>
<stop offset="1" stop-color="#BD3131" stop-opacity="0.97"/>
</linearGradient>
<linearGradient id="paint6_linear" x1="565.914" y1="141.626" x2="571.154" y2="163.378" gradientUnits="userSpaceOnUse">
<stop stop-color="#FB5353"/>
<stop offset="1" stop-color="#BD3131" stop-opacity="0.97"/>
</linearGradient>
<clipPath id="clip0">
<rect width="634" height="177" fill="white" transform="translate(0 0.428955)"/>
</clipPath>
</defs>
</svg>
