<svg width="830" height="510" fill="none" xmlns="http://www.w3.org/2000/svg"><path fill="#F5F5F4" d="M0 0h830v510H0z"/><rect x="180.838" y="104.766" width="100.936" height="134.717" rx="4.65" fill="#fff" stroke="#8C8C8C" stroke-width=".7"/><rect x="672.265" y="104.766" width="100.936" height="134.717" rx="4.65" fill="#fff" stroke="#8C8C8C" stroke-width=".7"/><rect x="296.818" y="104.766" width="100.936" height="134.717" rx="4.65" fill="#fff" stroke="#8C8C8C" stroke-width=".7"/><rect x="56.8" y="185.522" width="111.554" height="127.723" rx="4.65" fill="#fff" stroke="#8C8C8C" stroke-width=".7"/><rect x="416.186" y="262.469" width="111.554" height="137.654" rx="4.65" fill="#fff" stroke="#8C8C8C" stroke-width=".7"/><rect x="544.764" y="185.522" width="111.554" height="127.723" rx="4.65" fill="#fff" stroke="#8C8C8C" stroke-width=".7"/><rect x="178.071" y="262.469" width="100.936" height="136.362" rx="4.65" fill="#fff" stroke="#8C8C8C" stroke-width=".7"/><rect x="669.497" y="262.469" width="100.936" height="136.362" rx="4.65" fill="#fff" stroke="#8C8C8C" stroke-width=".7"/><rect x="-.35" y=".35" width="102.387" height="136.362" rx="4.65" transform="matrix(-1 0 0 1 399.908 262.119)" fill="#fff" stroke="#8C8C8C" stroke-width=".7"/><rect x="56.8" y="104.106" width="46.072" height="65.607" rx="4.65" fill="#fff" stroke="#8C8C8C" stroke-width=".7"/><rect x="122.281" y="104.106" width="46.072" height="65.607" rx="4.65" fill="#fff" stroke="#8C8C8C" stroke-width=".7"/><rect x="416.28" y="105.617" width="46.072" height="65.607" rx="4.65" fill="#fff" stroke="#8C8C8C" stroke-width=".7"/><rect x="481.762" y="105.617" width="46.072" height="65.607" rx="4.65" fill="#fff" stroke="#8C8C8C" stroke-width=".7"/><rect x="56.8" y="328.375" width="44.721" height="70.456" rx="4.65" fill="#fff" stroke="#8C8C8C" stroke-width=".7"/><rect x="121.391" y="328.375" width="46.963" height="70.456" rx="4.65" fill="#fff" stroke="#8C8C8C" stroke-width=".7"/><rect x="416.28" y="177.503" width="44.721" height="61.98" rx="4.65" fill="#fff" stroke="#8C8C8C" stroke-width=".7"/><rect x="480.871" y="177.503" width="46.963" height="61.98" rx="4.65" fill="#fff" stroke="#8C8C8C" stroke-width=".7"/><rect x="544.914" y="328.525" width="44.421" height="70.156" rx="4.5" fill="#fff" stroke="#8C8C8C"/><rect x="609.355" y="328.375" width="46.963" height="70.456" rx="4.65" fill="#fff" stroke="#8C8C8C" stroke-width=".7"/><rect x="544.764" y="102.724" width="44.721" height="70.456" rx="4.65" fill="#fff" stroke="#8C8C8C" stroke-width=".7"/><rect x="609.355" y="102.724" width="46.963" height="70.456" rx="4.65" fill="#fff" stroke="#8C8C8C" stroke-width=".7"/><rect x="64.906" y="357.593" width="9.936" height="1.328" rx=".664" fill="#EEE" stroke="#8C8C8C" stroke-width=".3"/><rect x="424.387" y="203.217" width="9.936" height="1.134" rx=".567" fill="#EEE" stroke="#8C8C8C" stroke-width=".3"/><rect x="552.87" y="357.593" width="9.936" height="1.328" rx=".664" fill="#EEE" stroke="#8C8C8C" stroke-width=".3"/><rect x="552.87" y="131.942" width="9.936" height="1.328" rx=".664" fill="#EEE" stroke="#8C8C8C" stroke-width=".3"/><rect x="190.952" y="203.491" width="26.987" height="4.179" rx="1.7" fill="#EEE" stroke="#8C8C8C" stroke-width=".6"/><rect x="682.228" y="203.341" width="27.287" height="4.479" rx="1.85" fill="#EEE" stroke="#8C8C8C" stroke-width=".3"/><rect x="306.782" y="203.341" width="27.287" height="4.479" rx="1.85" fill="#EEE" stroke="#8C8C8C" stroke-width=".3"/><rect x="67.975" y="279.146" width="29.869" height="3.933" rx="1.7" fill="#EEE" stroke="#8C8C8C" stroke-width=".6"/><rect x="427.361" y="363.336" width="29.869" height="4.283" rx="1.7" fill="#EEE" stroke="#8C8C8C" stroke-width=".6"/><rect x="555.94" y="279.146" width="29.869" height="3.933" rx="1.7" fill="#EEE" stroke="#8C8C8C" stroke-width=".6"/><rect x="205.607" y="287.919" width="45.862" height="2.587" rx="1.294" fill="#EEE" stroke="#8C8C8C" stroke-width=".6"/><rect x="697.034" y="287.919" width="45.862" height="2.587" rx="1.294" fill="#EEE" stroke="#8C8C8C" stroke-width=".6"/><rect x="-.3" y=".3" width="46.526" height="2.587" rx="1.294" transform="matrix(-1 0 0 1 372.027 287.619)" fill="#EEE" stroke="#8C8C8C" stroke-width=".6"/><rect x="67.184" y="134.765" width="19.886" height=".795" rx=".397" fill="#EEE" stroke="#8C8C8C" stroke-width=".6"/><rect x="426.515" y="136.126" width="20.186" height="1.095" rx=".547" fill="#EEE" stroke="#8C8C8C" stroke-width=".3"/><rect x="128.54" y="115.292" width="12.453" height=".911" rx=".455" fill="#EEE" stroke="#8C8C8C" stroke-width=".6"/><rect x="487.871" y="116.653" width="12.753" height="1.211" rx=".605" fill="#EEE" stroke="#8C8C8C" stroke-width=".3"/><rect x="127.056" y="335.864" width="11.484" height=".795" rx=".397" fill="#EEE" stroke="#8C8C8C" stroke-width=".6"/><rect x="486.387" y="183.945" width="11.784" height=".929" rx=".464" fill="#EEE" stroke="#8C8C8C" stroke-width=".3"/><rect x="614.87" y="335.714" width="11.784" height="1.095" rx=".547" fill="#EEE" stroke="#8C8C8C" stroke-width=".3"/><rect x="614.87" y="110.063" width="11.784" height="1.095" rx=".547" fill="#EEE" stroke="#8C8C8C" stroke-width=".3"/><rect x="64.906" y="360.849" width="4.818" height="1.328" rx=".664" fill="#EEE" stroke="#8C8C8C" stroke-width=".3"/><rect x="424.387" y="206.085" width="4.818" height="1.134" rx=".567" fill="#EEE" stroke="#8C8C8C" stroke-width=".3"/><rect x="542.947" y="360.849" width="4.818" height="1.328" rx=".664" fill="#EEE" stroke="#8C8C8C" stroke-width=".3"/><rect x="542.947" y="135.198" width="4.818" height="1.328" rx=".664" fill="#EEE" stroke="#8C8C8C" stroke-width=".3"/><rect x="190.952" y="213.049" width="15.371" height="2.586" rx="1.293" fill="#EEE" stroke="#8C8C8C" stroke-width=".6"/><rect x="682.228" y="212.899" width="15.671" height="2.886" rx="1.443" fill="#EEE" stroke="#8C8C8C" stroke-width=".3"/><rect x="306.782" y="212.899" width="15.671" height="2.886" rx="1.443" fill="#EEE" stroke="#8C8C8C" stroke-width=".3"/><rect x="205.607" y="297.482" width="25.535" height="2.587" rx="1.294" fill="#EEE" stroke="#8C8C8C" stroke-width=".6"/><rect x="697.034" y="297.482" width="25.535" height="2.587" rx="1.294" fill="#EEE" stroke="#8C8C8C" stroke-width=".6"/><rect x="-.3" y=".3" width="25.908" height="2.587" rx="1.294" transform="matrix(-1 0 0 1 372.027 297.182)" fill="#EEE" stroke="#8C8C8C" stroke-width=".6"/><rect x="67.184" y="137.555" width="11.451" height=".795" rx=".397" fill="#EEE" stroke="#8C8C8C" stroke-width=".6"/><rect x="426.515" y="138.916" width="11.751" height="1.095" rx=".547" fill="#EEE" stroke="#8C8C8C" stroke-width=".3"/><rect x="128.54" y="118.314" width="7.232" height=".911" rx=".455" fill="#EEE" stroke="#8C8C8C" stroke-width=".6"/><rect x="487.871" y="119.675" width="7.532" height="1.211" rx=".605" fill="#EEE" stroke="#8C8C8C" stroke-width=".3"/><rect x="126.906" y="338.504" width="6.413" height="1.095" rx=".547" fill="#EEE" stroke="#8C8C8C" stroke-width=".3"/><rect x="486.387" y="186.402" width="6.413" height=".929" rx=".464" fill="#EEE" stroke="#8C8C8C" stroke-width=".3"/><rect x="614.87" y="338.504" width="6.413" height="1.095" rx=".547" fill="#EEE" stroke="#8C8C8C" stroke-width=".3"/><rect x="614.87" y="112.853" width="6.413" height="1.095" rx=".547" fill="#EEE" stroke="#8C8C8C" stroke-width=".3"/><rect x="64.906" y="364.106" width="15.054" height="1.328" rx=".664" fill="#EEE" stroke="#8C8C8C" stroke-width=".3"/><rect x="424.387" y="208.954" width="15.054" height="1.134" rx=".567" fill="#EEE" stroke="#8C8C8C" stroke-width=".3"/><rect x="552.87" y="364.106" width="15.054" height="1.328" rx=".664" fill="#EEE" stroke="#8C8C8C" stroke-width=".3"/><rect x="552.87" y="138.455" width="15.054" height="1.328" rx=".664" fill="#EEE" stroke="#8C8C8C" stroke-width=".3"/><rect x="205.607" y="303.857" width="64.737" height="5.775" rx="1.7" fill="#EEE" stroke="#8C8C8C" stroke-width=".6"/><rect x="697.034" y="303.857" width="64.737" height="5.775" rx="1.7" fill="#EEE" stroke="#8C8C8C" stroke-width=".6"/><rect x="-.3" y=".3" width="65.67" height="5.775" rx="1.7" transform="matrix(-1 0 0 1 372.027 303.556)" fill="#EEE" stroke="#8C8C8C" stroke-width=".6"/><rect x="67.184" y="141.739" width="27.117" height="3.585" rx="1.7" fill="#EEE" stroke="#8C8C8C" stroke-width=".6"/><rect x="426.515" y="143.1" width="27.417" height="3.885" rx="1.85" fill="#EEE" stroke="#8C8C8C" stroke-width=".3"/><rect x="128.54" y="122.846" width="17.674" height=".911" rx=".455" fill="#EEE" stroke="#8C8C8C" stroke-width=".6"/><rect x="487.871" y="124.207" width="17.974" height="1.211" rx=".605" fill="#EEE" stroke="#8C8C8C" stroke-width=".3"/><rect x="126.906" y="341.294" width="15.812" height="1.095" rx=".547" fill="#EEE" stroke="#8C8C8C" stroke-width=".3"/><rect x="486.387" y="188.859" width="15.812" height=".929" rx=".464" fill="#EEE" stroke="#8C8C8C" stroke-width=".3"/><rect x="614.87" y="341.294" width="15.812" height="1.095" rx=".547" fill="#EEE" stroke="#8C8C8C" stroke-width=".3"/><rect x="614.87" y="115.643" width="15.812" height="1.095" rx=".547" fill="#EEE" stroke="#8C8C8C" stroke-width=".3"/><rect x="190.952" y="115.868" width="80.709" height="8.959" rx="1.7" fill="#EEE" stroke="#8C8C8C" stroke-width=".6"/><rect x="682.378" y="115.868" width="80.709" height="8.959" rx="1.7" fill="#EEE" stroke="#8C8C8C" stroke-width=".6"/><rect x="306.932" y="115.868" width="80.709" height="8.959" rx="1.7" fill="#EEE" stroke="#8C8C8C" stroke-width=".6"/><rect x="67.975" y="194.537" width="89.203" height="9.976" rx="1.7" fill="#EEE" stroke="#8C8C8C" stroke-width=".6"/><rect x="427.211" y="272.035" width="89.503" height="11.094" rx="1.85" fill="#EEE" stroke="#8C8C8C" stroke-width=".3"/><rect x="555.94" y="194.537" width="89.203" height="9.976" rx="1.7" fill="#EEE" stroke="#8C8C8C" stroke-width=".6"/><rect x="61.971" y="110.76" width="35.948" height="6.954" rx="1.7" fill="#EEE" stroke="#8C8C8C" stroke-width=".6"/><rect x="421.451" y="112.27" width="35.948" height="6.954" rx="1.7" fill="#EEE" stroke="#8C8C8C" stroke-width=".6"/><rect x="61.971" y="119.825" width="35.948" height="3.933" rx="1.7" fill="#EEE" stroke="#8C8C8C" stroke-width=".6"/><rect x="421.451" y="121.336" width="35.948" height="3.933" rx="1.7" fill="#EEE" stroke="#8C8C8C" stroke-width=".6"/><rect x="188.184" y="284.732" width="6.66" height="101.399" rx="1.7" fill="#EEE" stroke="#8C8C8C" stroke-width=".6"/><rect x="679.611" y="284.732" width="6.66" height="101.399" rx="1.7" fill="#EEE" stroke="#8C8C8C" stroke-width=".6"/><rect x="-.3" y=".3" width="6.763" height="101.399" rx="1.7" transform="matrix(-1 0 0 1 389.7 284.432)" fill="#EEE" stroke="#8C8C8C" stroke-width=".6"/><rect x="148.157" y="214.179" width="7.418" height="79.476" rx="1.7" fill="#EEE" stroke="#8C8C8C" stroke-width=".6"/><rect x="507.542" y="293.346" width="7.418" height="85.668" rx="1.7" fill="#EEE" stroke="#8C8C8C" stroke-width=".6"/><rect x="636.121" y="214.179" width="7.418" height="79.476" rx="1.7" fill="#EEE" stroke="#8C8C8C" stroke-width=".6"/><rect x="61.859" y="375.652" width="34.145" height="12.424" rx="1.7" fill="#EEE" stroke="#8C8C8C" stroke-width=".6"/><rect x="421.34" y="219.143" width="34.145" height="10.872" rx="1.7" fill="#EEE" stroke="#8C8C8C" stroke-width=".6"/><rect x="549.823" y="375.652" width="34.145" height="12.424" rx="1.7" fill="#EEE" stroke="#8C8C8C" stroke-width=".6"/><rect x="549.823" y="150.001" width="34.145" height="12.424" rx="1.7" fill="#EEE" stroke="#8C8C8C" stroke-width=".6"/><rect x="127.721" y="359.97" width="34.303" height="28.106" rx="1.7" fill="#EEE" stroke="#8C8C8C" stroke-width=".6"/><rect x="487.202" y="205.328" width="34.303" height="24.687" rx="1.7" fill="#EEE" stroke="#8C8C8C" stroke-width=".6"/><rect x="615.685" y="359.97" width="34.303" height="28.106" rx="1.7" fill="#EEE" stroke="#8C8C8C" stroke-width=".6"/><rect x="615.685" y="134.319" width="34.303" height="28.106" rx="1.7" fill="#EEE" stroke="#8C8C8C" stroke-width=".6"/><rect x="128.54" y="131.912" width="33.337" height="28.106" rx="1.7" fill="#EEE" stroke="#8C8C8C" stroke-width=".6"/><rect x="488.021" y="133.422" width="33.337" height="28.106" rx="1.7" fill="#EEE" stroke="#8C8C8C" stroke-width=".6"/><rect x="61.859" y="337.124" width="16.03" height="13.507" rx="1.7" fill="#EEE" stroke="#8C8C8C" stroke-width=".6"/><rect x="421.34" y="185.204" width="16.03" height="11.826" rx="1.7" fill="#EEE" stroke="#8C8C8C" stroke-width=".6"/><rect x="549.823" y="337.124" width="16.03" height="13.507" rx="1.7" fill="#EEE" stroke="#8C8C8C" stroke-width=".6"/><rect x="549.823" y="111.473" width="16.03" height="13.507" rx="1.7" fill="#EEE" stroke="#8C8C8C" stroke-width=".6"/><rect x="81.692" y="337.124" width="16.03" height="13.507" rx="1.7" fill="#EEE" stroke="#8C8C8C" stroke-width=".6"/><rect x="441.173" y="185.204" width="16.03" height="11.826" rx="1.7" fill="#EEE" stroke="#8C8C8C" stroke-width=".6"/><rect x="569.657" y="337.124" width="16.03" height="13.507" rx="1.7" fill="#EEE" stroke="#8C8C8C" stroke-width=".6"/><rect x="569.657" y="111.473" width="16.03" height="13.507" rx="1.7" fill="#EEE" stroke="#8C8C8C" stroke-width=".6"/><rect x="306.182" y="382.024" width="48.068" height="2.41" rx="1.205" fill="#EEE" stroke="#8C8C8C" stroke-width=".6"/><g filter="url(#prefix__prefix__prefix__prefix__filter0_d)"><rect width="101.415" height="135.122" rx="5" transform="matrix(-1 0 0 1 310.062 186.866)" fill="#393939"/></g><rect x="-.15" y=".15" width="74.046" height="3.872" rx="1.936" transform="matrix(-1 0 0 1 295.874 235.743)" fill="#fff" stroke="#A5A5A5" stroke-width=".3"/><rect x="-.15" y=".15" width="74.046" height="3.872" rx="1.936" transform="matrix(-1 0 0 1 295.874 252.455)" fill="#fff" stroke="#A5A5A5" stroke-width=".3"/><rect x="-.15" y=".15" width="27.266" height="3.872" rx="1.936" transform="matrix(-1 0 0 1 249.093 243.225)" fill="#fff" stroke="#A5A5A5" stroke-width=".3"/><rect x="-.15" y=".15" width="27.266" height="3.872" rx="1.936" transform="matrix(-1 0 0 1 249.093 259.937)" fill="#fff" stroke="#A5A5A5" stroke-width=".3"/><rect x="-.15" y=".15" width="63.088" height="3.962" rx="1.981" transform="matrix(-1 0 0 1 284.916 205.387)" fill="#fff" stroke="#A5A5A5" stroke-width=".3"/><rect x="-.15" y=".15" width="27.266" height="3.962" rx="1.981" transform="matrix(-1 0 0 1 249.093 212.005)" fill="#fff" stroke="#A5A5A5" stroke-width=".3"/><rect x="-.15" y=".15" width="44.512" height="3.962" rx="1.981" transform="matrix(-1 0 0 1 266.339 218.94)" fill="#fff" stroke="#A5A5A5" stroke-width=".3"/><rect x="-.15" y=".15" width="9.577" height="3.962" rx="1.981" transform="matrix(-1 0 0 1 231.405 225.734)" fill="#fff" stroke="#A5A5A5" stroke-width=".3"/><g filter="url(#prefix__prefix__prefix__prefix__filter1_d)"><rect width="152.794" height="203.58" rx="5" transform="matrix(-1 0 0 1 481.412 152.638)" fill="#393939"/></g><rect x="-.15" y=".15" width="95.203" height="6.122" rx="3.061" transform="matrix(-1 0 0 1 443.678 176.675)" fill="#fff" stroke="#A5A5A5" stroke-width=".3"/><rect x="-.15" y=".15" width="41.231" height="6.122" rx="3.061" transform="matrix(-1 0 0 1 389.707 186.646)" fill="#fff" stroke="#A5A5A5" stroke-width=".3"/><rect x="-.15" y=".15" width="41.231" height="6.122" rx="3.061" transform="matrix(-1 0 0 1 389.707 221.193)" fill="#fff" stroke="#A5A5A5" stroke-width=".3"/><rect x="-.15" y=".15" width="66.008" height="6.122" rx="3.061" transform="matrix(-1 0 0 1 414.484 318.417)" fill="#fff" stroke="#A5A5A5" stroke-width=".3"/><rect x="-.15" y=".15" width="67.215" height="6.122" rx="3.061" transform="matrix(-1 0 0 1 415.691 197.095)" fill="#fff" stroke="#A5A5A5" stroke-width=".3"/><rect x="-.15" y=".15" width="67.215" height="6.122" rx="3.061" transform="matrix(-1 0 0 1 415.691 231.642)" fill="#fff" stroke="#A5A5A5" stroke-width=".3"/><rect x="-.15" y=".15" width="107.493" height="6.122" rx="3.061" transform="matrix(-1 0 0 1 455.969 328.866)" fill="#fff" stroke="#A5A5A5" stroke-width=".3"/><rect x="-.15" y=".15" width="14.581" height="6.122" rx="3.061" transform="matrix(-1 0 0 1 363.057 207.33)" fill="#fff" stroke="#A5A5A5" stroke-width=".3"/><g filter="url(#prefix__prefix__prefix__prefix__filter2_d)"><rect width="96.804" height="128.979" rx="5" transform="matrix(-1 0 0 1 596.95 189.938)" fill="#393939"/></g><rect x="-.15" y=".15" width="70.666" height="3.682" rx="1.841" transform="matrix(-1 0 0 1 583.394 300.313)" fill="#fff" stroke="#A5A5A5" stroke-width=".3"/><rect x="-.15" y=".15" width="26.012" height="3.682" rx="1.841" transform="matrix(-1 0 0 1 538.74 233.356)" fill="#fff" stroke="#A5A5A5" stroke-width=".3"/><rect x="-.15" y=".15" width="60.206" height="3.769" rx="1.884" transform="matrix(-1 0 0 1 572.934 207.616)" fill="#fff" stroke="#A5A5A5" stroke-width=".3"/><rect x="-.15" y=".15" width="26.012" height="3.769" rx="1.884" transform="matrix(-1 0 0 1 538.74 213.934)" fill="#fff" stroke="#A5A5A5" stroke-width=".3"/><rect x="-.15" y=".15" width="42.474" height="3.769" rx="1.884" transform="matrix(-1 0 0 1 555.202 220.553)" fill="#fff" stroke="#A5A5A5" stroke-width=".3"/><rect x="-.15" y=".15" width="9.128" height="3.769" rx="1.884" transform="matrix(-1 0 0 1 521.856 227.038)" fill="#fff" stroke="#A5A5A5" stroke-width=".3"/><defs><filter id="prefix__prefix__prefix__prefix__filter0_d" x="194.647" y="186.866" width="125.415" height="159.122" filterUnits="userSpaceOnUse" color-interpolation-filters="sRGB"><feFlood flood-opacity="0" result="BackgroundImageFix"/><feColorMatrix in="SourceAlpha" values="0 0 0 0 0 0 0 0 0 0 0 0 0 0 0 0 0 0 127 0"/><feMorphology radius="3" operator="dilate" in="SourceAlpha" result="effect1_dropShadow"/><feOffset dx="-2" dy="12"/><feGaussianBlur stdDeviation="4.5"/><feColorMatrix values="0 0 0 0 0 0 0 0 0 0 0 0 0 0 0 0 0 0 0.25 0"/><feBlend in2="BackgroundImageFix" result="effect1_dropShadow"/><feBlend in="SourceGraphic" in2="effect1_dropShadow" result="shape"/></filter><filter id="prefix__prefix__prefix__prefix__filter1_d" x="314.617" y="152.638" width="176.794" height="227.58" filterUnits="userSpaceOnUse" color-interpolation-filters="sRGB"><feFlood flood-opacity="0" result="BackgroundImageFix"/><feColorMatrix in="SourceAlpha" values="0 0 0 0 0 0 0 0 0 0 0 0 0 0 0 0 0 0 127 0"/><feMorphology radius="3" operator="dilate" in="SourceAlpha" result="effect1_dropShadow"/><feOffset dx="-2" dy="12"/><feGaussianBlur stdDeviation="4.5"/><feColorMatrix values="0 0 0 0 0 0 0 0 0 0 0 0 0 0 0 0 0 0 0.25 0"/><feBlend in2="BackgroundImageFix" result="effect1_dropShadow"/><feBlend in="SourceGraphic" in2="effect1_dropShadow" result="shape"/></filter><filter id="prefix__prefix__prefix__prefix__filter2_d" x="486.146" y="189.938" width="120.804" height="152.979" filterUnits="userSpaceOnUse" color-interpolation-filters="sRGB"><feFlood flood-opacity="0" result="BackgroundImageFix"/><feColorMatrix in="SourceAlpha" values="0 0 0 0 0 0 0 0 0 0 0 0 0 0 0 0 0 0 127 0"/><feMorphology radius="3" operator="dilate" in="SourceAlpha" result="effect1_dropShadow"/><feOffset dx="-2" dy="12"/><feGaussianBlur stdDeviation="4.5"/><feColorMatrix values="0 0 0 0 0 0 0 0 0 0 0 0 0 0 0 0 0 0 0.25 0"/><feBlend in2="BackgroundImageFix" result="effect1_dropShadow"/><feBlend in="SourceGraphic" in2="effect1_dropShadow" result="shape"/></filter></defs></svg>
