<svg width="634" height="178" viewBox="0 0 634 178" fill="none" xmlns="http://www.w3.org/2000/svg">
<g clip-path="url(#clip0_68_90)">
<path d="M128.476 88.9292C128.476 54.4163 100.498 26.4381 65.9847 26.4381C31.4718 26.4381 3.49365 54.4163 3.49365 88.9292" stroke="#ECECEC" stroke-width="7"/>
<path d="M128.476 88.9292C128.476 123.442 156.454 151.42 190.967 151.42C225.48 151.42 253.458 123.442 253.458 88.9292" stroke="#ECECEC" stroke-width="7"/>
<path d="M378.44 88.9292C378.44 54.4163 350.462 26.4381 315.949 26.4381C281.436 26.4381 253.458 54.4163 253.458 88.9292" stroke="#ECECEC" stroke-width="7"/>
<path d="M628.405 88.9292C628.405 54.4163 600.427 26.4381 565.914 26.4381C531.401 26.4381 503.423 54.4163 503.423 88.9292" stroke="#ECECEC" stroke-width="7"/>
<path d="M378.441 88.9292C378.441 123.442 406.419 151.42 440.932 151.42C475.445 151.42 503.423 123.442 503.423 88.9292" stroke="#ECECEC" stroke-width="7"/>
<path d="M165.859 92.0837L168.583 83.4437H170.701L173.425 92.0837H171.937L169.465 84.3317H169.789L167.347 92.0837H165.859ZM167.377 90.2117V88.8617H171.913V90.2117H167.377ZM178.991 92.0837V88.9637C178.991 88.7597 178.977 88.5337 178.949 88.2857C178.921 88.0377 178.855 87.7997 178.751 87.5717C178.651 87.3397 178.499 87.1497 178.295 87.0017C178.095 86.8537 177.823 86.7797 177.479 86.7797C177.295 86.7797 177.113 86.8097 176.933 86.8697C176.753 86.9297 176.589 87.0337 176.441 87.1817C176.297 87.3257 176.181 87.5257 176.093 87.7817C176.005 88.0337 175.961 88.3577 175.961 88.7537L175.103 88.3877C175.103 87.8357 175.209 87.3357 175.421 86.8877C175.637 86.4397 175.953 86.0837 176.369 85.8197C176.785 85.5517 177.297 85.4177 177.905 85.4177C178.385 85.4177 178.781 85.4977 179.093 85.6577C179.405 85.8177 179.653 86.0217 179.837 86.2697C180.021 86.5177 180.157 86.7817 180.245 87.0617C180.333 87.3417 180.389 87.6077 180.413 87.8597C180.441 88.1077 180.455 88.3097 180.455 88.4657V92.0837H178.991ZM174.497 92.0837V85.6037H175.787V87.6137H175.961V92.0837H174.497ZM183.833 92.2637C183.365 92.2637 182.969 92.1757 182.645 91.9997C182.321 91.8197 182.075 91.5817 181.907 91.2857C181.743 90.9897 181.661 90.6637 181.661 90.3077C181.661 89.9957 181.713 89.7157 181.817 89.4677C181.921 89.2157 182.081 88.9997 182.297 88.8197C182.513 88.6357 182.793 88.4857 183.137 88.3697C183.397 88.2857 183.701 88.2097 184.049 88.1417C184.401 88.0737 184.781 88.0117 185.189 87.9557C185.601 87.8957 186.031 87.8317 186.479 87.7637L185.963 88.0577C185.967 87.6097 185.867 87.2797 185.663 87.0677C185.459 86.8557 185.115 86.7497 184.631 86.7497C184.339 86.7497 184.057 86.8177 183.785 86.9537C183.513 87.0897 183.323 87.3237 183.215 87.6557L181.895 87.2417C182.055 86.6937 182.359 86.2537 182.807 85.9217C183.259 85.5897 183.867 85.4237 184.631 85.4237C185.207 85.4237 185.713 85.5177 186.149 85.7057C186.589 85.8937 186.915 86.2017 187.127 86.6297C187.243 86.8577 187.313 87.0917 187.337 87.3317C187.361 87.5677 187.373 87.8257 187.373 88.1057V92.0837H186.107V90.6797L186.317 90.9077C186.025 91.3757 185.683 91.7197 185.291 91.9397C184.903 92.1557 184.417 92.2637 183.833 92.2637ZM184.121 91.1117C184.449 91.1117 184.729 91.0537 184.961 90.9377C185.193 90.8217 185.377 90.6797 185.513 90.5117C185.653 90.3437 185.747 90.1857 185.795 90.0377C185.871 89.8537 185.913 89.6437 185.921 89.4077C185.933 89.1677 185.939 88.9737 185.939 88.8257L186.383 88.9577C185.947 89.0257 185.573 89.0857 185.261 89.1377C184.949 89.1897 184.681 89.2397 184.457 89.2877C184.233 89.3317 184.035 89.3817 183.863 89.4377C183.695 89.4977 183.553 89.5677 183.437 89.6477C183.321 89.7277 183.231 89.8197 183.167 89.9237C183.107 90.0277 183.077 90.1497 183.077 90.2897C183.077 90.4497 183.117 90.5917 183.197 90.7157C183.277 90.8357 183.393 90.9317 183.545 91.0037C183.701 91.0757 183.893 91.1117 184.121 91.1117ZM189.055 92.0837V83.2637H190.501V92.0837H189.055ZM193.15 94.9637L194.398 91.5377L194.422 92.5457L191.596 85.6037H193.102L195.106 90.7397H194.722L196.672 85.6037H198.118L194.506 94.9637H193.15ZM201.515 92.2637C200.715 92.2637 200.065 92.0837 199.565 91.7237C199.065 91.3637 198.761 90.8577 198.653 90.2057L200.129 89.9777C200.205 90.2977 200.373 90.5497 200.633 90.7337C200.893 90.9177 201.221 91.0097 201.617 91.0097C201.965 91.0097 202.233 90.9417 202.421 90.8057C202.613 90.6657 202.709 90.4757 202.709 90.2357C202.709 90.0877 202.673 89.9697 202.601 89.8817C202.533 89.7897 202.381 89.7017 202.145 89.6177C201.909 89.5337 201.547 89.4277 201.059 89.2997C200.515 89.1557 200.083 89.0017 199.763 88.8377C199.443 88.6697 199.213 88.4717 199.073 88.2437C198.933 88.0157 198.863 87.7397 198.863 87.4157C198.863 87.0117 198.969 86.6597 199.181 86.3597C199.393 86.0597 199.689 85.8297 200.069 85.6697C200.449 85.5057 200.897 85.4237 201.413 85.4237C201.917 85.4237 202.363 85.5017 202.751 85.6577C203.143 85.8137 203.459 86.0357 203.699 86.3237C203.939 86.6117 204.087 86.9497 204.143 87.3377L202.667 87.6017C202.631 87.3257 202.505 87.1077 202.289 86.9477C202.077 86.7877 201.793 86.6977 201.437 86.6777C201.097 86.6577 200.823 86.7097 200.615 86.8337C200.407 86.9537 200.303 87.1237 200.303 87.3437C200.303 87.4677 200.345 87.5737 200.429 87.6617C200.513 87.7497 200.681 87.8377 200.933 87.9257C201.189 88.0137 201.569 88.1217 202.073 88.2497C202.589 88.3817 203.001 88.5337 203.309 88.7057C203.621 88.8737 203.845 89.0757 203.981 89.3117C204.121 89.5477 204.191 89.8337 204.191 90.1697C204.191 90.8217 203.953 91.3337 203.477 91.7057C203.005 92.0777 202.351 92.2637 201.515 92.2637ZM208.451 92.2637C207.795 92.2637 207.219 92.1217 206.723 91.8377C206.227 91.5537 205.839 91.1597 205.559 90.6557C205.283 90.1517 205.145 89.5717 205.145 88.9157C205.145 88.2077 205.281 87.5937 205.553 87.0737C205.825 86.5497 206.203 86.1437 206.687 85.8557C207.171 85.5677 207.731 85.4237 208.367 85.4237C209.039 85.4237 209.609 85.5817 210.077 85.8977C210.549 86.2097 210.899 86.6517 211.127 87.2237C211.355 87.7957 211.441 88.4697 211.385 89.2457H209.951V88.7177C209.947 88.0137 209.823 87.4997 209.579 87.1757C209.335 86.8517 208.951 86.6897 208.427 86.6897C207.835 86.6897 207.395 86.8737 207.107 87.2417C206.819 87.6057 206.675 88.1397 206.675 88.8437C206.675 89.4997 206.819 90.0077 207.107 90.3677C207.395 90.7277 207.815 90.9077 208.367 90.9077C208.723 90.9077 209.029 90.8297 209.285 90.6737C209.545 90.5137 209.745 90.2837 209.885 89.9837L211.313 90.4157C211.065 90.9997 210.681 91.4537 210.161 91.7777C209.645 92.1017 209.075 92.2637 208.451 92.2637ZM206.219 89.2457V88.1537H210.677V89.2457H206.219Z" fill="#2D2D2D"/>
<path d="M414.811 92.0837V83.4437H416.257V92.0837H414.811ZM422.536 92.0837V88.9637C422.536 88.7597 422.522 88.5337 422.494 88.2857C422.466 88.0377 422.4 87.7997 422.296 87.5717C422.196 87.3397 422.044 87.1497 421.84 87.0017C421.64 86.8537 421.368 86.7797 421.024 86.7797C420.84 86.7797 420.658 86.8097 420.478 86.8697C420.298 86.9297 420.134 87.0337 419.986 87.1817C419.842 87.3257 419.726 87.5257 419.638 87.7817C419.55 88.0337 419.506 88.3577 419.506 88.7537L418.648 88.3877C418.648 87.8357 418.754 87.3357 418.966 86.8877C419.182 86.4397 419.498 86.0837 419.914 85.8197C420.33 85.5517 420.842 85.4177 421.45 85.4177C421.93 85.4177 422.326 85.4977 422.638 85.6577C422.95 85.8177 423.198 86.0217 423.382 86.2697C423.566 86.5177 423.702 86.7817 423.79 87.0617C423.878 87.3417 423.934 87.6077 423.958 87.8597C423.986 88.1077 424 88.3097 424 88.4657V92.0837H422.536ZM418.042 92.0837V85.6037H419.332V87.6137H419.506V92.0837H418.042ZM429.364 92.0837C428.936 92.1637 428.516 92.1977 428.104 92.1857C427.696 92.1777 427.33 92.1037 427.006 91.9637C426.682 91.8197 426.436 91.5937 426.268 91.2857C426.12 91.0057 426.042 90.7197 426.034 90.4277C426.026 90.1357 426.022 89.8057 426.022 89.4377V83.8037H427.462V89.3537C427.462 89.6137 427.464 89.8417 427.468 90.0377C427.476 90.2337 427.518 90.3937 427.594 90.5177C427.738 90.7577 427.968 90.8917 428.284 90.9197C428.6 90.9477 428.96 90.9317 429.364 90.8717V92.0837ZM424.846 86.7377V85.6037H429.364V86.7377H424.846ZM433.375 92.2637C432.719 92.2637 432.143 92.1217 431.647 91.8377C431.151 91.5537 430.763 91.1597 430.483 90.6557C430.207 90.1517 430.069 89.5717 430.069 88.9157C430.069 88.2077 430.205 87.5937 430.477 87.0737C430.749 86.5497 431.127 86.1437 431.611 85.8557C432.095 85.5677 432.655 85.4237 433.291 85.4237C433.963 85.4237 434.533 85.5817 435.001 85.8977C435.473 86.2097 435.823 86.6517 436.051 87.2237C436.279 87.7957 436.365 88.4697 436.309 89.2457H434.875V88.7177C434.871 88.0137 434.747 87.4997 434.503 87.1757C434.259 86.8517 433.875 86.6897 433.351 86.6897C432.759 86.6897 432.319 86.8737 432.031 87.2417C431.743 87.6057 431.599 88.1397 431.599 88.8437C431.599 89.4997 431.743 90.0077 432.031 90.3677C432.319 90.7277 432.739 90.9077 433.291 90.9077C433.647 90.9077 433.953 90.8297 434.209 90.6737C434.469 90.5137 434.669 90.2837 434.809 89.9837L436.237 90.4157C435.989 90.9997 435.605 91.4537 435.085 91.7777C434.569 92.1017 433.999 92.2637 433.375 92.2637ZM431.143 89.2457V88.1537H435.601V89.2457H431.143ZM440.372 95.1437C440.012 95.1437 439.666 95.0877 439.334 94.9757C439.006 94.8637 438.71 94.7017 438.446 94.4897C438.182 94.2817 437.966 94.0297 437.798 93.7337L439.13 93.0737C439.254 93.3097 439.428 93.4837 439.652 93.5957C439.88 93.7117 440.122 93.7697 440.378 93.7697C440.678 93.7697 440.946 93.7157 441.182 93.6077C441.418 93.5037 441.6 93.3477 441.728 93.1397C441.86 92.9357 441.922 92.6797 441.914 92.3717V90.5297H442.094V85.6037H443.36V92.3957C443.36 92.5597 443.352 92.7157 443.336 92.8637C443.324 93.0157 443.302 93.1637 443.27 93.3077C443.174 93.7277 442.99 94.0717 442.718 94.3397C442.446 94.6117 442.108 94.8137 441.704 94.9457C441.304 95.0777 440.86 95.1437 440.372 95.1437ZM440.246 92.2637C439.65 92.2637 439.13 92.1137 438.686 91.8137C438.242 91.5137 437.898 91.1057 437.654 90.5897C437.41 90.0737 437.288 89.4917 437.288 88.8437C437.288 88.1877 437.41 87.6037 437.654 87.0917C437.902 86.5757 438.252 86.1697 438.704 85.8737C439.156 85.5737 439.688 85.4237 440.3 85.4237C440.916 85.4237 441.432 85.5737 441.848 85.8737C442.268 86.1697 442.586 86.5757 442.802 87.0917C443.018 87.6077 443.126 88.1917 443.126 88.8437C443.126 89.4877 443.018 90.0697 442.802 90.5897C442.586 91.1057 442.264 91.5137 441.836 91.8137C441.408 92.1137 440.878 92.2637 440.246 92.2637ZM440.468 90.9677C440.856 90.9677 441.168 90.8797 441.404 90.7037C441.644 90.5237 441.818 90.2737 441.926 89.9537C442.038 89.6337 442.094 89.2637 442.094 88.8437C442.094 88.4197 442.038 88.0497 441.926 87.7337C441.818 87.4137 441.648 87.1657 441.416 86.9897C441.184 86.8097 440.884 86.7197 440.516 86.7197C440.128 86.7197 439.808 86.8157 439.556 87.0077C439.304 87.1957 439.118 87.4517 438.998 87.7757C438.878 88.0957 438.818 88.4517 438.818 88.8437C438.818 89.2397 438.876 89.5997 438.992 89.9237C439.112 90.2437 439.294 90.4977 439.538 90.6857C439.782 90.8737 440.092 90.9677 440.468 90.9677ZM445.043 92.0837V85.6037H446.321V87.1817L446.165 86.9777C446.245 86.7617 446.351 86.5657 446.483 86.3897C446.619 86.2097 446.781 86.0617 446.969 85.9457C447.129 85.8377 447.305 85.7537 447.497 85.6937C447.693 85.6297 447.893 85.5917 448.097 85.5797C448.301 85.5637 448.499 85.5717 448.691 85.6037V86.9537C448.499 86.8977 448.277 86.8797 448.025 86.8997C447.777 86.9197 447.553 86.9897 447.353 87.1097C447.153 87.2177 446.989 87.3557 446.861 87.5237C446.737 87.6917 446.645 87.8837 446.585 88.0997C446.525 88.3117 446.495 88.5417 446.495 88.7897V92.0837H445.043ZM451.495 92.2637C451.027 92.2637 450.631 92.1757 450.307 91.9997C449.983 91.8197 449.737 91.5817 449.569 91.2857C449.405 90.9897 449.323 90.6637 449.323 90.3077C449.323 89.9957 449.375 89.7157 449.479 89.4677C449.583 89.2157 449.743 88.9997 449.959 88.8197C450.175 88.6357 450.455 88.4857 450.799 88.3697C451.059 88.2857 451.363 88.2097 451.711 88.1417C452.063 88.0737 452.443 88.0117 452.851 87.9557C453.263 87.8957 453.693 87.8317 454.141 87.7637L453.625 88.0577C453.629 87.6097 453.529 87.2797 453.325 87.0677C453.121 86.8557 452.777 86.7497 452.293 86.7497C452.001 86.7497 451.719 86.8177 451.447 86.9537C451.175 87.0897 450.985 87.3237 450.877 87.6557L449.557 87.2417C449.717 86.6937 450.021 86.2537 450.469 85.9217C450.921 85.5897 451.529 85.4237 452.293 85.4237C452.869 85.4237 453.375 85.5177 453.811 85.7057C454.251 85.8937 454.577 86.2017 454.789 86.6297C454.905 86.8577 454.975 87.0917 454.999 87.3317C455.023 87.5677 455.035 87.8257 455.035 88.1057V92.0837H453.769V90.6797L453.979 90.9077C453.687 91.3757 453.345 91.7197 452.953 91.9397C452.565 92.1557 452.079 92.2637 451.495 92.2637ZM451.783 91.1117C452.111 91.1117 452.391 91.0537 452.623 90.9377C452.855 90.8217 453.039 90.6797 453.175 90.5117C453.315 90.3437 453.409 90.1857 453.457 90.0377C453.533 89.8537 453.575 89.6437 453.583 89.4077C453.595 89.1677 453.601 88.9737 453.601 88.8257L454.045 88.9577C453.609 89.0257 453.235 89.0857 452.923 89.1377C452.611 89.1897 452.343 89.2397 452.119 89.2877C451.895 89.3317 451.697 89.3817 451.525 89.4377C451.357 89.4977 451.215 89.5677 451.099 89.6477C450.983 89.7277 450.893 89.8197 450.829 89.9237C450.769 90.0277 450.739 90.1497 450.739 90.2897C450.739 90.4497 450.779 90.5917 450.859 90.7157C450.939 90.8357 451.055 90.9317 451.207 91.0037C451.363 91.0757 451.555 91.1117 451.783 91.1117ZM460.395 92.0837C459.967 92.1637 459.547 92.1977 459.135 92.1857C458.727 92.1777 458.361 92.1037 458.037 91.9637C457.713 91.8197 457.467 91.5937 457.299 91.2857C457.151 91.0057 457.073 90.7197 457.065 90.4277C457.057 90.1357 457.053 89.8057 457.053 89.4377V83.8037H458.493V89.3537C458.493 89.6137 458.495 89.8417 458.499 90.0377C458.507 90.2337 458.549 90.3937 458.625 90.5177C458.769 90.7577 458.999 90.8917 459.315 90.9197C459.631 90.9477 459.991 90.9317 460.395 90.8717V92.0837ZM455.877 86.7377V85.6037H460.395V86.7377H455.877ZM464.407 92.2637C463.751 92.2637 463.175 92.1217 462.679 91.8377C462.183 91.5537 461.795 91.1597 461.515 90.6557C461.239 90.1517 461.101 89.5717 461.101 88.9157C461.101 88.2077 461.237 87.5937 461.509 87.0737C461.781 86.5497 462.159 86.1437 462.643 85.8557C463.127 85.5677 463.687 85.4237 464.323 85.4237C464.995 85.4237 465.565 85.5817 466.033 85.8977C466.505 86.2097 466.855 86.6517 467.083 87.2237C467.311 87.7957 467.397 88.4697 467.341 89.2457H465.907V88.7177C465.903 88.0137 465.779 87.4997 465.535 87.1757C465.291 86.8517 464.907 86.6897 464.383 86.6897C463.791 86.6897 463.351 86.8737 463.063 87.2417C462.775 87.6057 462.631 88.1397 462.631 88.8437C462.631 89.4997 462.775 90.0077 463.063 90.3677C463.351 90.7277 463.771 90.9077 464.323 90.9077C464.679 90.9077 464.985 90.8297 465.241 90.6737C465.501 90.5137 465.701 90.2837 465.841 89.9837L467.269 90.4157C467.021 90.9997 466.637 91.4537 466.117 91.7777C465.601 92.1017 465.031 92.2637 464.407 92.2637ZM462.175 89.2457V88.1537H466.633V89.2457H462.175Z" fill="#2D2D2D"/>
<path d="M546.099 92.0837V83.4437H549.669C549.753 83.4437 549.861 83.4477 549.993 83.4557C550.125 83.4597 550.247 83.4717 550.359 83.4917C550.859 83.5677 551.271 83.7337 551.595 83.9897C551.923 84.2457 552.165 84.5697 552.321 84.9617C552.481 85.3497 552.561 85.7817 552.561 86.2577C552.561 86.9617 552.383 87.5677 552.027 88.0757C551.671 88.5797 551.125 88.8917 550.389 89.0117L549.771 89.0657H547.545V92.0837H546.099ZM551.061 92.0837L549.357 88.5677L550.827 88.2437L552.699 92.0837H551.061ZM547.545 87.7157H549.609C549.689 87.7157 549.779 87.7117 549.879 87.7037C549.979 87.6957 550.071 87.6797 550.155 87.6557C550.395 87.5957 550.583 87.4897 550.719 87.3377C550.859 87.1857 550.957 87.0137 551.013 86.8217C551.073 86.6297 551.103 86.4417 551.103 86.2577C551.103 86.0737 551.073 85.8857 551.013 85.6937C550.957 85.4977 550.859 85.3237 550.719 85.1717C550.583 85.0197 550.395 84.9137 550.155 84.8537C550.071 84.8297 549.979 84.8157 549.879 84.8117C549.779 84.8037 549.689 84.7997 549.609 84.7997H547.545V87.7157ZM556.967 92.2637C556.311 92.2637 555.735 92.1217 555.239 91.8377C554.743 91.5537 554.355 91.1597 554.075 90.6557C553.799 90.1517 553.661 89.5717 553.661 88.9157C553.661 88.2077 553.797 87.5937 554.069 87.0737C554.341 86.5497 554.719 86.1437 555.203 85.8557C555.687 85.5677 556.247 85.4237 556.883 85.4237C557.555 85.4237 558.125 85.5817 558.593 85.8977C559.065 86.2097 559.415 86.6517 559.643 87.2237C559.871 87.7957 559.957 88.4697 559.901 89.2457H558.467V88.7177C558.463 88.0137 558.339 87.4997 558.095 87.1757C557.851 86.8517 557.467 86.6897 556.943 86.6897C556.351 86.6897 555.911 86.8737 555.623 87.2417C555.335 87.6057 555.191 88.1397 555.191 88.8437C555.191 89.4997 555.335 90.0077 555.623 90.3677C555.911 90.7277 556.331 90.9077 556.883 90.9077C557.239 90.9077 557.545 90.8297 557.801 90.6737C558.061 90.5137 558.261 90.2837 558.401 89.9837L559.829 90.4157C559.581 90.9997 559.197 91.4537 558.677 91.7777C558.161 92.1017 557.591 92.2637 556.967 92.2637ZM554.735 89.2457V88.1537H559.193V89.2457H554.735ZM563.67 92.2697C563.19 92.2697 562.794 92.1897 562.482 92.0297C562.17 91.8697 561.922 91.6657 561.738 91.4177C561.554 91.1697 561.418 90.9057 561.33 90.6257C561.242 90.3457 561.184 90.0817 561.156 89.8337C561.132 89.5817 561.12 89.3777 561.12 89.2217V85.6037H562.584V88.7237C562.584 88.9237 562.598 89.1497 562.626 89.4017C562.654 89.6497 562.718 89.8897 562.818 90.1217C562.922 90.3497 563.074 90.5377 563.274 90.6857C563.478 90.8337 563.752 90.9077 564.096 90.9077C564.28 90.9077 564.462 90.8777 564.642 90.8177C564.822 90.7577 564.984 90.6557 565.128 90.5117C565.276 90.3637 565.394 90.1617 565.482 89.9057C565.57 89.6497 565.614 89.3257 565.614 88.9337L566.472 89.2997C566.472 89.8517 566.364 90.3517 566.148 90.7997C565.936 91.2477 565.622 91.6057 565.206 91.8737C564.79 92.1377 564.278 92.2697 563.67 92.2697ZM565.788 92.0837V90.0737H565.614V85.6037H567.066V92.0837H565.788ZM571.254 92.2637C570.454 92.2637 569.804 92.0837 569.304 91.7237C568.804 91.3637 568.5 90.8577 568.392 90.2057L569.868 89.9777C569.944 90.2977 570.112 90.5497 570.372 90.7337C570.632 90.9177 570.96 91.0097 571.356 91.0097C571.704 91.0097 571.972 90.9417 572.16 90.8057C572.352 90.6657 572.448 90.4757 572.448 90.2357C572.448 90.0877 572.412 89.9697 572.34 89.8817C572.272 89.7897 572.12 89.7017 571.884 89.6177C571.648 89.5337 571.286 89.4277 570.798 89.2997C570.254 89.1557 569.822 89.0017 569.502 88.8377C569.182 88.6697 568.952 88.4717 568.812 88.2437C568.672 88.0157 568.602 87.7397 568.602 87.4157C568.602 87.0117 568.708 86.6597 568.92 86.3597C569.132 86.0597 569.428 85.8297 569.808 85.6697C570.188 85.5057 570.636 85.4237 571.152 85.4237C571.656 85.4237 572.102 85.5017 572.49 85.6577C572.882 85.8137 573.198 86.0357 573.438 86.3237C573.678 86.6117 573.826 86.9497 573.882 87.3377L572.406 87.6017C572.37 87.3257 572.244 87.1077 572.028 86.9477C571.816 86.7877 571.532 86.6977 571.176 86.6777C570.836 86.6577 570.562 86.7097 570.354 86.8337C570.146 86.9537 570.042 87.1237 570.042 87.3437C570.042 87.4677 570.084 87.5737 570.168 87.6617C570.252 87.7497 570.42 87.8377 570.672 87.9257C570.928 88.0137 571.308 88.1217 571.812 88.2497C572.328 88.3817 572.74 88.5337 573.048 88.7057C573.36 88.8737 573.584 89.0757 573.72 89.3117C573.86 89.5477 573.93 89.8337 573.93 90.1697C573.93 90.8217 573.692 91.3337 573.216 91.7057C572.744 92.0777 572.09 92.2637 571.254 92.2637ZM578.19 92.2637C577.534 92.2637 576.958 92.1217 576.462 91.8377C575.966 91.5537 575.578 91.1597 575.298 90.6557C575.022 90.1517 574.884 89.5717 574.884 88.9157C574.884 88.2077 575.02 87.5937 575.292 87.0737C575.564 86.5497 575.942 86.1437 576.426 85.8557C576.91 85.5677 577.47 85.4237 578.106 85.4237C578.778 85.4237 579.348 85.5817 579.816 85.8977C580.288 86.2097 580.638 86.6517 580.866 87.2237C581.094 87.7957 581.18 88.4697 581.124 89.2457H579.69V88.7177C579.686 88.0137 579.562 87.4997 579.318 87.1757C579.074 86.8517 578.69 86.6897 578.166 86.6897C577.574 86.6897 577.134 86.8737 576.846 87.2417C576.558 87.6057 576.414 88.1397 576.414 88.8437C576.414 89.4997 576.558 90.0077 576.846 90.3677C577.134 90.7277 577.554 90.9077 578.106 90.9077C578.462 90.9077 578.768 90.8297 579.024 90.6737C579.284 90.5137 579.484 90.2837 579.624 89.9837L581.052 90.4157C580.804 90.9997 580.42 91.4537 579.9 91.7777C579.384 92.1017 578.814 92.2637 578.19 92.2637ZM575.958 89.2457V88.1537H580.416V89.2457H575.958Z" fill="#2D2D2D"/>
<path d="M48.1959 92.2637C47.3319 92.2637 46.5919 92.0757 45.9759 91.6997C45.3599 91.3197 44.8859 90.7917 44.5539 90.1157C44.2259 89.4397 44.0619 88.6557 44.0619 87.7637C44.0619 86.8717 44.2259 86.0877 44.5539 85.4117C44.8859 84.7357 45.3599 84.2097 45.9759 83.8337C46.5919 83.4537 47.3319 83.2637 48.1959 83.2637C49.1919 83.2637 50.0219 83.5137 50.6859 84.0137C51.3499 84.5097 51.8159 85.1797 52.0839 86.0237L50.6259 86.4257C50.4579 85.8617 50.1719 85.4217 49.7679 85.1057C49.3639 84.7857 48.8399 84.6257 48.1959 84.6257C47.6159 84.6257 47.1319 84.7557 46.7439 85.0157C46.3599 85.2757 46.0699 85.6417 45.8739 86.1137C45.6819 86.5817 45.5839 87.1317 45.5799 87.7637C45.5799 88.3957 45.6759 88.9477 45.8679 89.4197C46.0639 89.8877 46.3559 90.2517 46.7439 90.5117C47.1319 90.7717 47.6159 90.9017 48.1959 90.9017C48.8399 90.9017 49.3639 90.7417 49.7679 90.4217C50.1719 90.1017 50.4579 89.6617 50.6259 89.1017L52.0839 89.5037C51.8159 90.3477 51.3499 91.0197 50.6859 91.5197C50.0219 92.0157 49.1919 92.2637 48.1959 92.2637ZM56.2633 92.2637C55.6153 92.2637 55.0493 92.1177 54.5653 91.8257C54.0813 91.5337 53.7053 91.1317 53.4373 90.6197C53.1733 90.1037 53.0413 89.5117 53.0413 88.8437C53.0413 88.1637 53.1773 87.5677 53.4493 87.0557C53.7213 86.5437 54.0993 86.1437 54.5833 85.8557C55.0673 85.5677 55.6273 85.4237 56.2633 85.4237C56.9153 85.4237 57.4833 85.5697 57.9673 85.8617C58.4513 86.1537 58.8273 86.5577 59.0953 87.0737C59.3633 87.5857 59.4973 88.1757 59.4973 88.8437C59.4973 89.5157 59.3613 90.1097 59.0893 90.6257C58.8213 91.1377 58.4453 91.5397 57.9613 91.8317C57.4773 92.1197 56.9113 92.2637 56.2633 92.2637ZM56.2633 90.9077C56.8393 90.9077 57.2673 90.7157 57.5473 90.3317C57.8273 89.9477 57.9673 89.4517 57.9673 88.8437C57.9673 88.2157 57.8253 87.7157 57.5413 87.3437C57.2573 86.9677 56.8313 86.7797 56.2633 86.7797C55.8753 86.7797 55.5553 86.8677 55.3033 87.0437C55.0553 87.2157 54.8713 87.4577 54.7513 87.7697C54.6313 88.0777 54.5713 88.4357 54.5713 88.8437C54.5713 89.4717 54.7133 89.9737 54.9973 90.3497C55.2853 90.7217 55.7073 90.9077 56.2633 90.9077ZM60.9392 92.0837V83.2637H62.3852V92.0837H60.9392ZM64.3025 92.0837V83.2637H65.7485V92.0837H64.3025ZM70.4918 92.2637C69.8358 92.2637 69.2598 92.1217 68.7638 91.8377C68.2678 91.5537 67.8798 91.1597 67.5998 90.6557C67.3238 90.1517 67.1858 89.5717 67.1858 88.9157C67.1858 88.2077 67.3218 87.5937 67.5938 87.0737C67.8658 86.5497 68.2438 86.1437 68.7278 85.8557C69.2118 85.5677 69.7718 85.4237 70.4078 85.4237C71.0798 85.4237 71.6498 85.5817 72.1178 85.8977C72.5898 86.2097 72.9398 86.6517 73.1678 87.2237C73.3958 87.7957 73.4818 88.4697 73.4258 89.2457H71.9918V88.7177C71.9878 88.0137 71.8638 87.4997 71.6198 87.1757C71.3758 86.8517 70.9918 86.6897 70.4678 86.6897C69.8758 86.6897 69.4358 86.8737 69.1478 87.2417C68.8598 87.6057 68.7158 88.1397 68.7158 88.8437C68.7158 89.4997 68.8598 90.0077 69.1478 90.3677C69.4358 90.7277 69.8558 90.9077 70.4078 90.9077C70.7638 90.9077 71.0698 90.8297 71.3258 90.6737C71.5858 90.5137 71.7858 90.2837 71.9258 89.9837L73.3538 90.4157C73.1058 90.9997 72.7218 91.4537 72.2018 91.7777C71.6858 92.1017 71.1158 92.2637 70.4918 92.2637ZM68.2598 89.2457V88.1537H72.7178V89.2457H68.2598ZM77.5786 92.2637C76.9106 92.2637 76.3406 92.1157 75.8686 91.8197C75.3966 91.5197 75.0346 91.1117 74.7826 90.5957C74.5346 90.0797 74.4086 89.4957 74.4046 88.8437C74.4086 88.1797 74.5386 87.5917 74.7946 87.0797C75.0546 86.5637 75.4226 86.1597 75.8986 85.8677C76.3746 85.5717 76.9406 85.4237 77.5966 85.4237C78.3326 85.4237 78.9546 85.6097 79.4626 85.9817C79.9746 86.3497 80.3086 86.8537 80.4646 87.4937L79.0246 87.8837C78.9126 87.5357 78.7266 87.2657 78.4666 87.0737C78.2066 86.8777 77.9106 86.7797 77.5786 86.7797C77.2026 86.7797 76.8926 86.8697 76.6486 87.0497C76.4046 87.2257 76.2246 87.4697 76.1086 87.7817C75.9926 88.0937 75.9346 88.4477 75.9346 88.8437C75.9346 89.4597 76.0726 89.9577 76.3486 90.3377C76.6246 90.7177 77.0346 90.9077 77.5786 90.9077C77.9626 90.9077 78.2646 90.8197 78.4846 90.6437C78.7086 90.4677 78.8766 90.2137 78.9886 89.8817L80.4646 90.2117C80.2646 90.8717 79.9146 91.3797 79.4146 91.7357C78.9146 92.0877 78.3026 92.2637 77.5786 92.2637ZM85.4649 92.0837C85.0369 92.1637 84.6169 92.1977 84.2049 92.1857C83.7969 92.1777 83.4309 92.1037 83.1069 91.9637C82.7829 91.8197 82.5369 91.5937 82.3689 91.2857C82.2209 91.0057 82.1429 90.7197 82.1349 90.4277C82.1269 90.1357 82.1229 89.8057 82.1229 89.4377V83.8037H83.5629V89.3537C83.5629 89.6137 83.5649 89.8417 83.5689 90.0377C83.5769 90.2337 83.6189 90.3937 83.6949 90.5177C83.8389 90.7577 84.0689 90.8917 84.3849 90.9197C84.7009 90.9477 85.0609 90.9317 85.4649 90.8717V92.0837ZM80.9469 86.7377V85.6037H85.4649V86.7377H80.9469Z" fill="#2D2D2D"/>
<path d="M295.84 92.0837V83.4437H299.41C299.494 83.4437 299.602 83.4477 299.734 83.4557C299.866 83.4597 299.988 83.4717 300.1 83.4917C300.6 83.5677 301.012 83.7337 301.336 83.9897C301.664 84.2457 301.906 84.5697 302.062 84.9617C302.222 85.3497 302.302 85.7817 302.302 86.2577C302.302 86.7297 302.222 87.1617 302.062 87.5537C301.902 87.9417 301.658 88.2637 301.33 88.5197C301.006 88.7757 300.596 88.9417 300.1 89.0177C299.988 89.0337 299.864 89.0457 299.728 89.0537C299.596 89.0617 299.49 89.0657 299.41 89.0657H297.286V92.0837H295.84ZM297.286 87.7157H299.35C299.43 87.7157 299.52 87.7117 299.62 87.7037C299.72 87.6957 299.812 87.6797 299.896 87.6557C300.136 87.5957 300.324 87.4897 300.46 87.3377C300.6 87.1857 300.698 87.0137 300.754 86.8217C300.814 86.6297 300.844 86.4417 300.844 86.2577C300.844 86.0737 300.814 85.8857 300.754 85.6937C300.698 85.4977 300.6 85.3237 300.46 85.1717C300.324 85.0197 300.136 84.9137 299.896 84.8537C299.812 84.8297 299.72 84.8157 299.62 84.8117C299.52 84.8037 299.43 84.7997 299.35 84.7997H297.286V87.7157ZM305.934 92.2697C305.454 92.2697 305.058 92.1897 304.746 92.0297C304.434 91.8697 304.186 91.6657 304.002 91.4177C303.818 91.1697 303.682 90.9057 303.594 90.6257C303.506 90.3457 303.448 90.0817 303.42 89.8337C303.396 89.5817 303.384 89.3777 303.384 89.2217V85.6037H304.848V88.7237C304.848 88.9237 304.862 89.1497 304.89 89.4017C304.918 89.6497 304.982 89.8897 305.082 90.1217C305.186 90.3497 305.338 90.5377 305.538 90.6857C305.742 90.8337 306.016 90.9077 306.36 90.9077C306.544 90.9077 306.726 90.8777 306.906 90.8177C307.086 90.7577 307.248 90.6557 307.392 90.5117C307.54 90.3637 307.658 90.1617 307.746 89.9057C307.834 89.6497 307.878 89.3257 307.878 88.9337L308.736 89.2997C308.736 89.8517 308.628 90.3517 308.412 90.7997C308.2 91.2477 307.886 91.6057 307.47 91.8737C307.054 92.1377 306.542 92.2697 305.934 92.2697ZM308.052 92.0837V90.0737H307.878V85.6037H309.33V92.0837H308.052ZM314.13 92.2637C313.498 92.2637 312.968 92.1137 312.54 91.8137C312.112 91.5137 311.79 91.1057 311.574 90.5897C311.358 90.0697 311.25 89.4877 311.25 88.8437C311.25 88.1917 311.358 87.6077 311.574 87.0917C311.79 86.5757 312.106 86.1697 312.522 85.8737C312.942 85.5737 313.46 85.4237 314.076 85.4237C314.688 85.4237 315.218 85.5737 315.666 85.8737C316.118 86.1697 316.468 86.5757 316.716 87.0917C316.964 87.6037 317.088 88.1877 317.088 88.8437C317.088 89.4917 316.966 90.0737 316.722 90.5897C316.478 91.1057 316.134 91.5137 315.69 91.8137C315.246 92.1137 314.726 92.2637 314.13 92.2637ZM311.004 92.0837V83.4437H312.462V87.5357H312.282V92.0837H311.004ZM313.908 90.9677C314.284 90.9677 314.594 90.8737 314.838 90.6857C315.082 90.4977 315.262 90.2437 315.378 89.9237C315.498 89.5997 315.558 89.2397 315.558 88.8437C315.558 88.4517 315.498 88.0957 315.378 87.7757C315.258 87.4517 315.072 87.1957 314.82 87.0077C314.568 86.8157 314.248 86.7197 313.86 86.7197C313.492 86.7197 313.192 86.8097 312.96 86.9897C312.728 87.1657 312.556 87.4137 312.444 87.7337C312.336 88.0497 312.282 88.4197 312.282 88.8437C312.282 89.2637 312.336 89.6337 312.444 89.9537C312.556 90.2737 312.73 90.5237 312.966 90.7037C313.206 90.8797 313.52 90.9677 313.908 90.9677ZM318.53 92.0837V83.2637H319.976V92.0837H318.53ZM321.894 84.6197V83.2937H323.34V84.6197H321.894ZM321.894 92.0837V85.6037H323.34V92.0837H321.894ZM327.639 92.2637C326.839 92.2637 326.189 92.0837 325.689 91.7237C325.189 91.3637 324.885 90.8577 324.777 90.2057L326.253 89.9777C326.329 90.2977 326.497 90.5497 326.757 90.7337C327.017 90.9177 327.345 91.0097 327.741 91.0097C328.089 91.0097 328.357 90.9417 328.545 90.8057C328.737 90.6657 328.833 90.4757 328.833 90.2357C328.833 90.0877 328.797 89.9697 328.725 89.8817C328.657 89.7897 328.505 89.7017 328.269 89.6177C328.033 89.5337 327.671 89.4277 327.183 89.2997C326.639 89.1557 326.207 89.0017 325.887 88.8377C325.567 88.6697 325.337 88.4717 325.197 88.2437C325.057 88.0157 324.987 87.7397 324.987 87.4157C324.987 87.0117 325.093 86.6597 325.305 86.3597C325.517 86.0597 325.813 85.8297 326.193 85.6697C326.573 85.5057 327.021 85.4237 327.537 85.4237C328.041 85.4237 328.487 85.5017 328.875 85.6577C329.267 85.8137 329.583 86.0357 329.823 86.3237C330.063 86.6117 330.211 86.9497 330.267 87.3377L328.791 87.6017C328.755 87.3257 328.629 87.1077 328.413 86.9477C328.201 86.7877 327.917 86.6977 327.561 86.6777C327.221 86.6577 326.947 86.7097 326.739 86.8337C326.531 86.9537 326.427 87.1237 326.427 87.3437C326.427 87.4677 326.469 87.5737 326.553 87.6617C326.637 87.7497 326.805 87.8377 327.057 87.9257C327.313 88.0137 327.693 88.1217 328.197 88.2497C328.713 88.3817 329.125 88.5337 329.433 88.7057C329.745 88.8737 329.969 89.0757 330.105 89.3117C330.245 89.5477 330.315 89.8337 330.315 90.1697C330.315 90.8217 330.077 91.3337 329.601 91.7057C329.129 92.0777 328.475 92.2637 327.639 92.2637ZM336.111 92.0837V88.9637C336.111 88.7597 336.097 88.5337 336.069 88.2857C336.041 88.0377 335.975 87.7997 335.871 87.5717C335.771 87.3397 335.619 87.1497 335.415 87.0017C335.215 86.8537 334.943 86.7797 334.599 86.7797C334.415 86.7797 334.233 86.8097 334.053 86.8697C333.873 86.9297 333.709 87.0337 333.561 87.1817C333.417 87.3257 333.301 87.5257 333.213 87.7817C333.125 88.0337 333.081 88.3577 333.081 88.7537L332.223 88.3877C332.223 87.8357 332.329 87.3357 332.541 86.8877C332.757 86.4397 333.073 86.0837 333.489 85.8197C333.905 85.5517 334.417 85.4177 335.025 85.4177C335.505 85.4177 335.901 85.4977 336.213 85.6577C336.525 85.8177 336.773 86.0217 336.957 86.2697C337.141 86.5177 337.277 86.7817 337.365 87.0617C337.453 87.3417 337.509 87.6077 337.533 87.8597C337.561 88.1077 337.575 88.3097 337.575 88.4657V92.0837H336.111ZM331.617 92.0837V83.4437H332.907V87.9917H333.081V92.0837H331.617Z" fill="#2D2D2D"/>
<path d="M128.476 88.2981C128.476 123.16 100.498 151.42 65.9847 151.42C31.4718 151.42 3.49365 123.16 3.49365 88.2981" stroke="url(#paint0_linear_68_90)" stroke-width="7"/>
<path d="M503.423 88.2981C503.423 123.16 531.401 151.42 565.914 151.42C600.427 151.42 628.405 123.16 628.405 88.2981" stroke="url(#paint1_linear_68_90)" stroke-width="7"/>
<path d="M128.476 88.9292C128.476 54.4163 156.454 26.4381 190.967 26.4381C225.48 26.4381 253.458 54.4163 253.458 88.9292" stroke="#393939" stroke-width="7"/>
<path d="M378.44 88.2981C378.44 123.16 350.462 151.42 315.949 151.42C281.436 151.42 253.458 123.16 253.458 88.2981" stroke="#393939" stroke-width="7"/>
<path d="M378.441 88.9292C378.441 54.4163 406.419 26.4381 440.932 26.4381C475.445 26.4381 503.423 54.4163 503.423 88.9292" stroke="#393939" stroke-width="7"/>
<g filter="url(#filter0_d_68_90)">
<circle cx="190.967" cy="26.4381" r="9.79401" fill="url(#paint2_linear_68_90)"/>
</g>
<g filter="url(#filter1_d_68_90)">
<circle cx="65.9849" cy="151.42" r="9.79401" fill="url(#paint3_linear_68_90)"/>
</g>
<g filter="url(#filter2_d_68_90)">
<circle cx="315.949" cy="151.42" r="9.79401" fill="url(#paint4_linear_68_90)"/>
</g>
<g filter="url(#filter3_d_68_90)">
<circle cx="440.932" cy="26.4381" r="9.79401" fill="url(#paint5_linear_68_90)"/>
</g>
<g filter="url(#filter4_d_68_90)">
<circle cx="565.914" cy="151.42" r="9.79401" fill="url(#paint6_linear_68_90)"/>
</g>
<rect x="273.568" y="71.9512" width="85.6452" height="33.7603" rx="16.8801" stroke="#EDEDED" stroke-width="2"/>
<rect x="148.145" y="71.9512" width="85.6452" height="33.7603" rx="16.8801" stroke="#EDEDED" stroke-width="2"/>
<rect x="23.1621" y="71.9512" width="85.6452" height="33.7603" rx="16.8801" stroke="#EDEDED" stroke-width="2"/>
<rect x="398.109" y="71.9512" width="85.6452" height="33.7603" rx="16.8801" stroke="#EDEDED" stroke-width="2"/>
<rect x="522.649" y="71.9512" width="85.6452" height="33.7603" rx="16.8801" stroke="#EDEDED" stroke-width="2"/>
</g>
<defs>
<filter id="filter0_d_68_90" x="163.173" y="2.64404" width="55.588" height="55.5881" filterUnits="userSpaceOnUse" color-interpolation-filters="sRGB">
<feFlood flood-opacity="0" result="BackgroundImageFix"/>
<feColorMatrix in="SourceAlpha" type="matrix" values="0 0 0 0 0 0 0 0 0 0 0 0 0 0 0 0 0 0 127 0" result="hardAlpha"/>
<feOffset dy="4"/>
<feGaussianBlur stdDeviation="9"/>
<feColorMatrix type="matrix" values="0 0 0 0 0.921569 0 0 0 0 0.294118 0 0 0 0 0.294118 0 0 0 0.5 0"/>
<feBlend mode="normal" in2="BackgroundImageFix" result="effect1_dropShadow_68_90"/>
<feBlend mode="normal" in="SourceGraphic" in2="effect1_dropShadow_68_90" result="shape"/>
</filter>
<filter id="filter1_d_68_90" x="38.1909" y="127.626" width="55.588" height="55.5881" filterUnits="userSpaceOnUse" color-interpolation-filters="sRGB">
<feFlood flood-opacity="0" result="BackgroundImageFix"/>
<feColorMatrix in="SourceAlpha" type="matrix" values="0 0 0 0 0 0 0 0 0 0 0 0 0 0 0 0 0 0 127 0" result="hardAlpha"/>
<feOffset dy="4"/>
<feGaussianBlur stdDeviation="9"/>
<feColorMatrix type="matrix" values="0 0 0 0 0.921569 0 0 0 0 0.294118 0 0 0 0 0.294118 0 0 0 0.5 0"/>
<feBlend mode="normal" in2="BackgroundImageFix" result="effect1_dropShadow_68_90"/>
<feBlend mode="normal" in="SourceGraphic" in2="effect1_dropShadow_68_90" result="shape"/>
</filter>
<filter id="filter2_d_68_90" x="288.155" y="127.626" width="55.588" height="55.5881" filterUnits="userSpaceOnUse" color-interpolation-filters="sRGB">
<feFlood flood-opacity="0" result="BackgroundImageFix"/>
<feColorMatrix in="SourceAlpha" type="matrix" values="0 0 0 0 0 0 0 0 0 0 0 0 0 0 0 0 0 0 127 0" result="hardAlpha"/>
<feOffset dy="4"/>
<feGaussianBlur stdDeviation="9"/>
<feColorMatrix type="matrix" values="0 0 0 0 0.921569 0 0 0 0 0.294118 0 0 0 0 0.294118 0 0 0 0.5 0"/>
<feBlend mode="normal" in2="BackgroundImageFix" result="effect1_dropShadow_68_90"/>
<feBlend mode="normal" in="SourceGraphic" in2="effect1_dropShadow_68_90" result="shape"/>
</filter>
<filter id="filter3_d_68_90" x="413.138" y="2.64404" width="55.588" height="55.5881" filterUnits="userSpaceOnUse" color-interpolation-filters="sRGB">
<feFlood flood-opacity="0" result="BackgroundImageFix"/>
<feColorMatrix in="SourceAlpha" type="matrix" values="0 0 0 0 0 0 0 0 0 0 0 0 0 0 0 0 0 0 127 0" result="hardAlpha"/>
<feOffset dy="4"/>
<feGaussianBlur stdDeviation="9"/>
<feColorMatrix type="matrix" values="0 0 0 0 0.921569 0 0 0 0 0.294118 0 0 0 0 0.294118 0 0 0 0.5 0"/>
<feBlend mode="normal" in2="BackgroundImageFix" result="effect1_dropShadow_68_90"/>
<feBlend mode="normal" in="SourceGraphic" in2="effect1_dropShadow_68_90" result="shape"/>
</filter>
<filter id="filter4_d_68_90" x="538.12" y="127.626" width="55.588" height="55.5881" filterUnits="userSpaceOnUse" color-interpolation-filters="sRGB">
<feFlood flood-opacity="0" result="BackgroundImageFix"/>
<feColorMatrix in="SourceAlpha" type="matrix" values="0 0 0 0 0 0 0 0 0 0 0 0 0 0 0 0 0 0 127 0" result="hardAlpha"/>
<feOffset dy="4"/>
<feGaussianBlur stdDeviation="9"/>
<feColorMatrix type="matrix" values="0 0 0 0 0.921569 0 0 0 0 0.294118 0 0 0 0 0.294118 0 0 0 0.5 0"/>
<feBlend mode="normal" in2="BackgroundImageFix" result="effect1_dropShadow_68_90"/>
<feBlend mode="normal" in="SourceGraphic" in2="effect1_dropShadow_68_90" result="shape"/>
</filter>
<linearGradient id="paint0_linear_68_90" x1="69.6092" y1="124.813" x2="3.18948" y2="88.86" gradientUnits="userSpaceOnUse">
<stop stop-color="#393939"/>
<stop offset="1" stop-color="#ECECEC"/>
</linearGradient>
<linearGradient id="paint1_linear_68_90" x1="562.289" y1="124.813" x2="628.709" y2="88.86" gradientUnits="userSpaceOnUse">
<stop stop-color="#393939"/>
<stop offset="1" stop-color="#ECECEC"/>
</linearGradient>
<linearGradient id="paint2_linear_68_90" x1="190.967" y1="16.644" x2="196.207" y2="38.3962" gradientUnits="userSpaceOnUse">
<stop stop-color="#FB5353"/>
<stop offset="1" stop-color="#BD3131" stop-opacity="0.97"/>
</linearGradient>
<linearGradient id="paint3_linear_68_90" x1="65.9849" y1="141.626" x2="71.2249" y2="163.378" gradientUnits="userSpaceOnUse">
<stop stop-color="#FB5353"/>
<stop offset="1" stop-color="#BD3131" stop-opacity="0.97"/>
</linearGradient>
<linearGradient id="paint4_linear_68_90" x1="315.949" y1="141.626" x2="321.189" y2="163.378" gradientUnits="userSpaceOnUse">
<stop stop-color="#FB5353"/>
<stop offset="1" stop-color="#BD3131" stop-opacity="0.97"/>
</linearGradient>
<linearGradient id="paint5_linear_68_90" x1="440.932" y1="16.644" x2="446.172" y2="38.3962" gradientUnits="userSpaceOnUse">
<stop stop-color="#FB5353"/>
<stop offset="1" stop-color="#BD3131" stop-opacity="0.97"/>
</linearGradient>
<linearGradient id="paint6_linear_68_90" x1="565.914" y1="141.626" x2="571.154" y2="163.378" gradientUnits="userSpaceOnUse">
<stop stop-color="#FB5353"/>
<stop offset="1" stop-color="#BD3131" stop-opacity="0.97"/>
</linearGradient>
<clipPath id="clip0_68_90">
<rect width="634" height="177" fill="white" transform="translate(0 0.428955)"/>
</clipPath>
</defs>
</svg>
