<svg width="392" height="210" viewBox="0 0 392 210" fill="none" xmlns="http://www.w3.org/2000/svg">
<rect width="392" height="210" fill="#F5F5F4"/>
<rect x="87.8646" y="47.5112" width="25.1248" height="25.1248" rx="12.5624" fill="#393939" stroke="#DCDCDC" stroke-width="2"/>
<rect x="105.76" y="138.232" width="7.28019" height="7.28019" rx="3.64009" fill="#393939" stroke="#DCDCDC" stroke-width="0.579495"/>
<rect x="189.842" y="39.4543" width="7.28019" height="7.28019" rx="3.64009" fill="#393939" stroke="#DCDCDC" stroke-width="0.579495"/>
<rect x="275.271" y="131.283" width="7.28019" height="7.28019" rx="3.64009" fill="#393939" stroke="#DCDCDC" stroke-width="0.579495"/>
<rect x="169.471" y="110.763" width="34.1985" height="34.1985" rx="17.0993" fill="#393939" stroke="#DCDCDC" stroke-width="2.72229"/>
<rect x="251.993" y="44.4554" width="23.8721" height="23.8721" rx="11.9361" fill="#393939" stroke="#DCDCDC" stroke-width="2.72229"/>
<rect x="80.9055" y="40.5522" width="39.043" height="39.043" rx="19.5215" stroke="#F1F1F1" stroke-width="2"/>
<rect x="103.743" y="136.216" width="11.3131" height="11.3131" rx="5.65655" stroke="#F1F1F1" stroke-width="0.579495"/>
<rect x="187.825" y="37.4377" width="11.3131" height="11.3131" rx="5.65655" stroke="#F1F1F1" stroke-width="0.579495"/>
<rect x="273.255" y="129.267" width="11.3131" height="11.3131" rx="5.65655" stroke="#F1F1F1" stroke-width="0.579495"/>
<rect x="159.998" y="101.291" width="53.1431" height="53.1431" rx="26.5716" stroke="#F1F1F1" stroke-width="2.72229"/>
<rect x="245.17" y="37.6326" width="37.5181" height="37.5181" rx="18.759" stroke="#F1F1F1" stroke-width="2.72229"/>
<rect x="61.571" y="21.2178" width="77.7119" height="77.7119" rx="38.8559" stroke="#F1F1F1" stroke-width="2"/>
<rect x="98.1411" y="130.613" width="22.5178" height="22.5178" rx="11.2589" stroke="#F1F1F1" stroke-width="0.579495"/>
<rect x="182.223" y="31.8352" width="22.5178" height="22.5178" rx="11.2589" stroke="#F1F1F1" stroke-width="0.579495"/>
<rect x="267.652" y="123.664" width="22.5178" height="22.5178" rx="11.2589" stroke="#F1F1F1" stroke-width="0.579495"/>
<rect x="133.681" y="74.9739" width="105.777" height="105.777" rx="52.8885" stroke="#F1F1F1" stroke-width="2.72229"/>
<rect x="226.214" y="18.6766" width="75.4308" height="75.4308" rx="37.7154" stroke="#F1F1F1" stroke-width="2.72229"/>
<line y1="-0.563543" x2="13.9181" y2="-0.563543" transform="matrix(-4.37114e-08 -1 -1 4.37114e-08 99.884 85.8096)" stroke="#DCDCDC" stroke-width="1.12709"/>
<line y1="-0.163285" x2="4.0329" y2="-0.163285" transform="matrix(-4.37114e-08 -1 -1 4.37114e-08 109.243 149.329)" stroke="#DCDCDC" stroke-width="0.32657"/>
<line y1="-0.163285" x2="4.0329" y2="-0.163285" transform="matrix(-4.37114e-08 -1 -1 4.37114e-08 193.325 50.5513)" stroke="#DCDCDC" stroke-width="0.32657"/>
<line y1="-0.163285" x2="4.0329" y2="-0.163285" transform="matrix(-4.37114e-08 -1 -1 4.37114e-08 278.754 142.38)" stroke="#DCDCDC" stroke-width="0.32657"/>
<line y1="-0.767063" x2="18.9445" y2="-0.767063" transform="matrix(-4.37114e-08 -1 -1 4.37114e-08 185.831 162.893)" stroke="#DCDCDC" stroke-width="1.53413"/>
<line y1="-0.767063" x2="13.6459" y2="-0.767063" transform="matrix(-4.37114e-08 -1 -1 4.37114e-08 263.397 81.6245)" stroke="#DCDCDC" stroke-width="1.53413"/>
<line y1="-0.563543" x2="13.9181" y2="-0.563543" transform="matrix(1 0 0 -1 72.9465 59.5303)" stroke="#DCDCDC" stroke-width="1.12709"/>
<line y1="-0.163285" x2="4.0329" y2="-0.163285" transform="matrix(1 0 0 -1 101.437 141.714)" stroke="#DCDCDC" stroke-width="0.32657"/>
<line y1="-0.163285" x2="4.0329" y2="-0.163285" transform="matrix(1 0 0 -1 185.519 42.9365)" stroke="#DCDCDC" stroke-width="0.32657"/>
<line y1="-0.163285" x2="4.0329" y2="-0.163285" transform="matrix(1 0 0 -1 270.949 134.766)" stroke="#DCDCDC" stroke-width="0.32657"/>
<line y1="-0.767063" x2="18.9445" y2="-0.767063" transform="matrix(1 0 0 -1 149.165 127.123)" stroke="#DCDCDC" stroke-width="1.53413"/>
<line y1="-0.767063" x2="13.6459" y2="-0.767063" transform="matrix(1 0 0 -1 236.986 55.8589)" stroke="#DCDCDC" stroke-width="1.53413"/>
<line y1="-0.563543" x2="13.9181" y2="-0.563543" transform="matrix(-1 -8.74228e-08 -8.74228e-08 1 127.908 60.6167)" stroke="#DCDCDC" stroke-width="1.12709"/>
<line y1="-0.163285" x2="4.0329" y2="-0.163285" transform="matrix(-1 -8.74228e-08 -8.74228e-08 1 117.363 142.029)" stroke="#DCDCDC" stroke-width="0.32657"/>
<line y1="-0.163285" x2="4.0329" y2="-0.163285" transform="matrix(-1 -8.74228e-08 -8.74228e-08 1 201.445 43.2515)" stroke="#DCDCDC" stroke-width="0.32657"/>
<line y1="-0.163285" x2="4.0329" y2="-0.163285" transform="matrix(-1 -8.74228e-08 -8.74228e-08 1 286.874 135.081)" stroke="#DCDCDC" stroke-width="0.32657"/>
<line y1="-0.767063" x2="18.9445" y2="-0.767063" transform="matrix(-1 -8.74228e-08 -8.74228e-08 1 223.975 128.602)" stroke="#DCDCDC" stroke-width="1.53413"/>
<line y1="-0.767063" x2="13.6459" y2="-0.767063" transform="matrix(-1 -8.74228e-08 -8.74228e-08 1 290.873 56.9243)" stroke="#DCDCDC" stroke-width="1.53413"/>
<line y1="-0.563543" x2="13.9181" y2="-0.563543" transform="matrix(-4.37114e-08 1 1 4.37114e-08 100.97 32.5933)" stroke="#DCDCDC" stroke-width="1.12709"/>
<line y1="-0.163285" x2="4.0329" y2="-0.163285" transform="matrix(-4.37114e-08 1 1 4.37114e-08 109.557 133.909)" stroke="#DCDCDC" stroke-width="0.32657"/>
<line y1="-0.163285" x2="4.0329" y2="-0.163285" transform="matrix(-4.37114e-08 1 1 4.37114e-08 193.639 35.1313)" stroke="#DCDCDC" stroke-width="0.32657"/>
<line y1="-0.163285" x2="4.0329" y2="-0.163285" transform="matrix(-4.37114e-08 1 1 4.37114e-08 279.068 126.96)" stroke="#DCDCDC" stroke-width="0.32657"/>
<line y1="-0.767063" x2="18.9445" y2="-0.767063" transform="matrix(-4.37114e-08 1 1 4.37114e-08 187.309 90.4575)" stroke="#DCDCDC" stroke-width="1.53413"/>
<line y1="-0.767063" x2="13.6459" y2="-0.767063" transform="matrix(-4.37114e-08 1 1 4.37114e-08 264.462 29.4487)" stroke="#DCDCDC" stroke-width="1.53413"/>
<circle r="3.11785" transform="matrix(4.37114e-08 -1 -1 -4.37114e-08 100.427 85.9924)" fill="white" stroke="#A5A5A5" stroke-width="1.12709"/>
<circle r="0.903434" transform="matrix(4.37114e-08 -1 -1 -4.37114e-08 109.4 149.382)" fill="white" stroke="#A5A5A5" stroke-width="0.32657"/>
<circle r="0.903434" transform="matrix(4.37114e-08 -1 -1 -4.37114e-08 193.482 50.6042)" fill="white" stroke="#A5A5A5" stroke-width="0.32657"/>
<circle r="0.903434" transform="matrix(4.37114e-08 -1 -1 -4.37114e-08 278.911 142.433)" fill="white" stroke="#A5A5A5" stroke-width="0.32657"/>
<circle r="4.24384" transform="matrix(4.37114e-08 -1 -1 -4.37114e-08 186.57 163.141)" fill="white" stroke="#A5A5A5" stroke-width="1.53413"/>
<circle r="2.84234" transform="matrix(4.37114e-08 -1 -1 -4.37114e-08 263.93 81.8037)" fill="white" stroke="#A5A5A5" stroke-width="1.53413"/>
<circle r="3.11785" transform="matrix(1 8.74228e-08 8.74228e-08 -1 72.7637 60.0735)" fill="white" stroke="#A5A5A5" stroke-width="1.12709"/>
<circle r="0.903434" transform="matrix(1 8.74228e-08 8.74228e-08 -1 101.384 141.872)" fill="white" stroke="#A5A5A5" stroke-width="0.32657"/>
<circle r="0.903434" transform="matrix(1 8.74228e-08 8.74228e-08 -1 185.466 43.0939)" fill="white" stroke="#A5A5A5" stroke-width="0.32657"/>
<circle r="0.903434" transform="matrix(1 8.74228e-08 8.74228e-08 -1 270.896 134.923)" fill="white" stroke="#A5A5A5" stroke-width="0.32657"/>
<circle r="4.24384" transform="matrix(1 8.74228e-08 8.74228e-08 -1 148.916 127.862)" fill="white" stroke="#A5A5A5" stroke-width="1.53413"/>
<circle r="2.84234" transform="matrix(1 8.74228e-08 8.74228e-08 -1 236.807 56.3916)" fill="white" stroke="#A5A5A5" stroke-width="1.53413"/>
<circle r="3.11785" transform="matrix(-1 -1.74846e-07 -1.74846e-07 1 128.09 60.0735)" fill="white" stroke="#A5A5A5" stroke-width="1.12709"/>
<circle r="0.903434" transform="matrix(-1 -1.74846e-07 -1.74846e-07 1 117.416 141.872)" fill="white" stroke="#A5A5A5" stroke-width="0.32657"/>
<circle r="0.903434" transform="matrix(-1 -1.74846e-07 -1.74846e-07 1 201.498 43.0941)" fill="white" stroke="#A5A5A5" stroke-width="0.32657"/>
<circle r="0.903434" transform="matrix(-1 -1.74846e-07 -1.74846e-07 1 286.927 134.923)" fill="white" stroke="#A5A5A5" stroke-width="0.32657"/>
<circle r="4.24384" transform="matrix(-1 -1.74846e-07 -1.74846e-07 1 224.224 127.862)" fill="white" stroke="#A5A5A5" stroke-width="1.53413"/>
<circle r="2.84234" transform="matrix(-1 -1.74846e-07 -1.74846e-07 1 291.052 56.3916)" fill="white" stroke="#A5A5A5" stroke-width="1.53413"/>
<circle r="3.11785" transform="matrix(-1.31134e-07 1 1 1.31134e-07 100.427 32.4104)" fill="white" stroke="#A5A5A5" stroke-width="1.12709"/>
<circle r="0.903434" transform="matrix(-1.31134e-07 1 1 1.31134e-07 109.4 133.856)" fill="white" stroke="#A5A5A5" stroke-width="0.32657"/>
<circle r="0.903434" transform="matrix(-1.31134e-07 1 1 1.31134e-07 193.482 35.0784)" fill="white" stroke="#A5A5A5" stroke-width="0.32657"/>
<circle r="0.903434" transform="matrix(-1.31134e-07 1 1 1.31134e-07 278.911 126.908)" fill="white" stroke="#A5A5A5" stroke-width="0.32657"/>
<circle r="4.24384" transform="matrix(-1.31134e-07 1 1 1.31134e-07 186.57 90.2087)" fill="white" stroke="#A5A5A5" stroke-width="1.53413"/>
<circle r="2.84234" transform="matrix(-1.31134e-07 1 1 1.31134e-07 263.93 29.2696)" fill="white" stroke="#A5A5A5" stroke-width="1.53413"/>
</svg>
