<svg width="392" height="210" fill="none" xmlns="http://www.w3.org/2000/svg"><path fill="#F5F5F4" d="M0 0h392v210H0z"/><rect x="87.865" y="47.511" width="25.125" height="25.125" rx="12.562" fill="#393939" stroke="#DCDCDC" stroke-width="2"/><rect x="105.76" y="138.232" width="7.28" height="7.28" rx="3.64" fill="#393939" stroke="#DCDCDC" stroke-width=".579"/><rect x="189.842" y="39.454" width="7.28" height="7.28" rx="3.64" fill="#393939" stroke="#DCDCDC" stroke-width=".579"/><rect x="275.271" y="131.283" width="7.28" height="7.28" rx="3.64" fill="#393939" stroke="#DCDCDC" stroke-width=".579"/><rect x="169.471" y="110.763" width="34.199" height="34.199" rx="17.099" fill="#393939" stroke="#DCDCDC" stroke-width="2.722"/><rect x="251.993" y="44.455" width="23.872" height="23.872" rx="11.936" fill="#393939" stroke="#DCDCDC" stroke-width="2.722"/><rect x="80.906" y="40.552" width="39.043" height="39.043" rx="19.521" stroke="#F1F1F1" stroke-width="2"/><rect x="103.743" y="136.216" width="11.313" height="11.313" rx="5.657" stroke="#F1F1F1" stroke-width=".579"/><rect x="187.825" y="37.438" width="11.313" height="11.313" rx="5.657" stroke="#F1F1F1" stroke-width=".579"/><rect x="273.255" y="129.267" width="11.313" height="11.313" rx="5.657" stroke="#F1F1F1" stroke-width=".579"/><rect x="159.998" y="101.291" width="53.143" height="53.143" rx="26.572" stroke="#F1F1F1" stroke-width="2.722"/><rect x="245.17" y="37.633" width="37.518" height="37.518" rx="18.759" stroke="#F1F1F1" stroke-width="2.722"/><rect x="61.571" y="21.218" width="77.712" height="77.712" rx="38.856" stroke="#F1F1F1" stroke-width="2"/><rect x="98.141" y="130.613" width="22.518" height="22.518" rx="11.259" stroke="#F1F1F1" stroke-width=".579"/><rect x="182.223" y="31.835" width="22.518" height="22.518" rx="11.259" stroke="#F1F1F1" stroke-width=".579"/><rect x="267.652" y="123.664" width="22.518" height="22.518" rx="11.259" stroke="#F1F1F1" stroke-width=".579"/><rect x="133.681" y="74.974" width="105.777" height="105.777" rx="52.889" stroke="#F1F1F1" stroke-width="2.722"/><rect x="226.214" y="18.677" width="75.431" height="75.431" rx="37.715" stroke="#F1F1F1" stroke-width="2.722"/><path stroke="#DCDCDC" stroke-width="1.127" d="M100.448 85.81V71.892"/><path stroke="#DCDCDC" stroke-width=".327" d="M109.406 149.329v-4.033M193.488 50.551v-4.033M278.917 142.38v-4.033"/><path stroke="#DCDCDC" stroke-width="1.534" d="M186.598 162.893v-18.945M264.164 81.624V67.978"/><path stroke="#DCDCDC" stroke-width="1.127" d="M72.947 60.094h13.917"/><path stroke="#DCDCDC" stroke-width=".327" d="M101.437 141.877h4.033M185.519 43.1h4.033M270.949 134.929h4.033"/><path stroke="#DCDCDC" stroke-width="1.534" d="M149.165 127.89h18.945M236.986 56.626h13.646"/><path stroke="#DCDCDC" stroke-width="1.127" d="M127.908 60.053H113.99"/><path stroke="#DCDCDC" stroke-width=".327" d="M117.363 141.866h-4.033M201.445 43.089h-4.033M286.874 134.918h-4.033"/><path stroke="#DCDCDC" stroke-width="1.534" d="M223.975 127.835H205.03M290.873 56.157h-13.646"/><path stroke="#DCDCDC" stroke-width="1.127" d="M100.406 32.593v13.918"/><path stroke="#DCDCDC" stroke-width=".327" d="M109.394 133.909v4.033M193.476 35.131v4.033M278.905 126.96v4.033"/><path stroke="#DCDCDC" stroke-width="1.534" d="M186.542 90.457v18.945M263.695 29.449v13.646"/><circle r="3.118" transform="matrix(0 -1 -1 0 100.427 85.992)" fill="#fff" stroke="#A5A5A5" stroke-width="1.127"/><circle r=".903" transform="matrix(0 -1 -1 0 109.4 149.382)" fill="#fff" stroke="#A5A5A5" stroke-width=".327"/><circle r=".903" transform="matrix(0 -1 -1 0 193.482 50.604)" fill="#fff" stroke="#A5A5A5" stroke-width=".327"/><circle r=".903" transform="matrix(0 -1 -1 0 278.911 142.433)" fill="#fff" stroke="#A5A5A5" stroke-width=".327"/><circle r="4.244" transform="matrix(0 -1 -1 0 186.57 163.141)" fill="#fff" stroke="#A5A5A5" stroke-width="1.534"/><circle r="2.842" transform="matrix(0 -1 -1 0 263.93 81.804)" fill="#fff" stroke="#A5A5A5" stroke-width="1.534"/><circle r="3.118" transform="matrix(1 0 0 -1 72.764 60.074)" fill="#fff" stroke="#A5A5A5" stroke-width="1.127"/><circle r=".903" transform="matrix(1 0 0 -1 101.384 141.872)" fill="#fff" stroke="#A5A5A5" stroke-width=".327"/><circle r=".903" transform="matrix(1 0 0 -1 185.466 43.094)" fill="#fff" stroke="#A5A5A5" stroke-width=".327"/><circle r=".903" transform="matrix(1 0 0 -1 270.896 134.923)" fill="#fff" stroke="#A5A5A5" stroke-width=".327"/><circle r="4.244" transform="matrix(1 0 0 -1 148.916 127.862)" fill="#fff" stroke="#A5A5A5" stroke-width="1.534"/><circle r="2.842" transform="matrix(1 0 0 -1 236.807 56.392)" fill="#fff" stroke="#A5A5A5" stroke-width="1.534"/><circle r="3.118" transform="matrix(-1 0 0 1 128.09 60.074)" fill="#fff" stroke="#A5A5A5" stroke-width="1.127"/><circle r=".903" transform="matrix(-1 0 0 1 117.416 141.872)" fill="#fff" stroke="#A5A5A5" stroke-width=".327"/><circle r=".903" transform="matrix(-1 0 0 1 201.498 43.094)" fill="#fff" stroke="#A5A5A5" stroke-width=".327"/><circle r=".903" transform="matrix(-1 0 0 1 286.927 134.923)" fill="#fff" stroke="#A5A5A5" stroke-width=".327"/><circle r="4.244" transform="matrix(-1 0 0 1 224.224 127.862)" fill="#fff" stroke="#A5A5A5" stroke-width="1.534"/><circle r="2.842" transform="matrix(-1 0 0 1 291.052 56.392)" fill="#fff" stroke="#A5A5A5" stroke-width="1.534"/><circle r="3.118" transform="matrix(0 1 1 0 100.427 32.41)" fill="#fff" stroke="#A5A5A5" stroke-width="1.127"/><circle r=".903" transform="matrix(0 1 1 0 109.4 133.856)" fill="#fff" stroke="#A5A5A5" stroke-width=".327"/><circle r=".903" transform="matrix(0 1 1 0 193.482 35.078)" fill="#fff" stroke="#A5A5A5" stroke-width=".327"/><circle r=".903" transform="matrix(0 1 1 0 278.911 126.908)" fill="#fff" stroke="#A5A5A5" stroke-width=".327"/><circle r="4.244" transform="matrix(0 1 1 0 186.57 90.209)" fill="#fff" stroke="#A5A5A5" stroke-width="1.534"/><circle r="2.842" transform="matrix(0 1 1 0 263.93 29.27)" fill="#fff" stroke="#A5A5A5" stroke-width="1.534"/></svg>
