<?xml version="1.0"?>
<svg xmlns="http://www.w3.org/2000/svg" xmlns:xlink="http://www.w3.org/1999/xlink" xmlns:svgjs="http://svgjs.com/svgjs" version="1.1" width="512" height="512" x="0" y="0" viewBox="0 0 512 512" style="enable-background:new 0 0 512 512" xml:space="preserve" class=""><g><linearGradient xmlns="http://www.w3.org/2000/svg" id="SVGID_1_" gradientUnits="userSpaceOnUse" x1="256" x2="256" y1="512" y2="0"><stop stop-opacity="1" stop-color="#a8a8a8" offset="0"/><stop stop-opacity="1" stop-color="#ffffff" offset="0.9864864864864865"/><stop stop-opacity="1" stop-color="#ffffff" offset="1"/></linearGradient><linearGradient xmlns="http://www.w3.org/2000/svg" id="SVGID_2_" gradientUnits="userSpaceOnUse" x1="256" x2="256" y1="407" y2="105"><stop stop-opacity="1" stop-color="#6b6b6b" offset="0"/><stop stop-opacity="1" stop-color="#6b6b6b" offset="1"/></linearGradient><g xmlns="http://www.w3.org/2000/svg"><g><circle cx="256" cy="256" fill="url(#SVGID_1_)" r="256" data-original="url(#SVGID_1_)" style=""/></g><g><g><path d="m211.588 273.765v8.882h8.882c4.91 0 8.882 3.973 8.882 8.882v8.882h53.294v-8.882c0-4.91 3.973-8.882 8.882-8.882h8.882v-8.882c0-4.91 3.973-8.882 8.882-8.882h8.882v-53.294h-17.765v26.647c0 4.91-3.973 8.882-8.882 8.882s-8.882-3.973-8.882-8.882v-26.647h-17.765v26.647c0 4.91-3.973 8.882-8.882 8.882s-8.882-3.973-8.882-8.882v-26.647h-17.765v26.647c0 4.91-3.973 8.882-8.882 8.882s-8.882-3.973-8.882-8.882v-26.647h-17.765v53.294h8.882c4.911-.001 8.884 3.972 8.884 8.882zm-53.294 79.941h195.412v-195.412h-195.412zm17.765-151c0-4.91 3.973-8.883 8.882-8.883h142.118c4.91 0 8.882 3.973 8.882 8.883v71.059c0 4.91-3.973 8.882-8.882 8.882h-8.882v8.882c0 4.91-3.973 8.882-8.882 8.882h-8.882v8.882c0 4.91-3.973 8.882-8.882 8.882h-71.059c-4.91 0-8.882-3.973-8.882-8.882v-8.882h-8.882c-4.909 0-8.882-3.973-8.882-8.882v-8.882h-8.882c-4.91 0-8.882-3.973-8.882-8.882v-71.059zm222.059-97.706h-284.236c-4.91 0-8.882 3.973-8.882 8.882v284.235c0 4.91 3.973 8.882 8.882 8.882h284.235c4.91 0 8.882-3.973 8.882-8.882v-284.235c.001-4.909-3.972-8.882-8.881-8.882zm-26.647 257.588c0 4.91-3.973 8.882-8.882 8.882h-213.177c-4.91 0-8.882-3.973-8.882-8.882v-213.176c0-4.91 3.973-8.882 8.882-8.882h213.177c4.91 0 8.882 3.973 8.882 8.882z" fill="url(#SVGID_2_)" data-original="url(#SVGID_2_)" style=""/></g></g></g></g></svg>
