<svg width="500" height="500" viewBox="0 0 500 500" fill="none" xmlns="http://www.w3.org/2000/svg">
<path opacity="0.5" d="M414.985 166.276C415.97 159.448 411.234 153.114 404.405 152.129C397.577 151.144 391.244 155.881 390.258 162.709C389.273 169.537 394.01 175.87 400.838 176.856C407.666 177.841 414 173.104 414.985 166.276Z" fill="#737373"/>
<path d="M408.467 170.34C411.699 167.107 411.699 161.867 408.467 158.634C405.234 155.402 399.994 155.402 396.762 158.634C393.529 161.867 393.529 167.107 396.762 170.34C399.994 173.572 405.234 173.572 408.467 170.34Z" fill="#C22B2B"/>
<path opacity="0.5" d="M288.683 356.028C289.783 349.218 285.154 342.805 278.344 341.704C271.534 340.603 265.121 345.232 264.02 352.043C262.919 358.853 267.548 365.266 274.358 366.367C281.169 367.467 287.582 362.839 288.683 356.028Z" fill="#737373"/>
<path d="M284.434 355.963C285.481 351.514 282.722 347.058 278.272 346.011C273.823 344.964 269.367 347.722 268.32 352.172C267.273 356.622 270.031 361.077 274.481 362.124C278.931 363.171 283.387 360.413 284.434 355.963Z" fill="#737373"/>
<path opacity="0.5" d="M305.717 156.003C307.26 146.45 300.766 137.456 291.213 135.914C281.661 134.372 272.667 140.866 271.125 150.419C269.582 159.971 276.076 168.965 285.629 170.507C295.181 172.049 304.175 165.556 305.717 156.003Z" fill="#737373"/>
<path d="M299.867 155.126C300.925 148.807 296.659 142.828 290.34 141.77C284.021 140.713 278.042 144.978 276.984 151.297C275.927 157.616 280.192 163.596 286.511 164.653C292.83 165.711 298.81 161.445 299.867 155.126Z" fill="#8C0808"/>
<path opacity="0.5" d="M190.954 425.378C200.63 425.378 208.475 417.534 208.475 407.858C208.475 398.182 200.63 390.338 190.954 390.338C181.278 390.338 173.434 398.182 173.434 407.858C173.434 417.534 181.278 425.378 190.954 425.378Z" fill="#737373"/>
<path d="M190.954 419.459C197.361 419.459 202.555 414.265 202.555 407.858C202.555 401.451 197.361 396.257 190.954 396.257C184.547 396.257 179.354 401.451 179.354 407.858C179.354 414.265 184.547 419.459 190.954 419.459Z" fill="#737373"/>
<path opacity="0.5" d="M118.255 310.535C125.154 310.535 130.746 304.942 130.746 298.043C130.746 291.145 125.154 285.552 118.255 285.552C111.356 285.552 105.764 291.145 105.764 298.043C105.764 304.942 111.356 310.535 118.255 310.535Z" fill="#737373"/>
<path d="M118.255 306.32C122.826 306.32 126.532 302.614 126.532 298.043C126.532 293.472 122.826 289.766 118.255 289.766C113.684 289.766 109.978 293.472 109.978 298.043C109.978 302.614 113.684 306.32 118.255 306.32Z" fill="#D62424"/>
<path opacity="0.5" d="M115.702 145.443C122.601 145.443 128.194 139.851 128.194 132.952C128.194 126.053 122.601 120.461 115.702 120.461C108.804 120.461 103.211 126.053 103.211 132.952C103.211 139.851 108.804 145.443 115.702 145.443Z" fill="#737373"/>
<path d="M115.702 141.229C120.274 141.229 123.979 137.523 123.979 132.952C123.979 128.381 120.274 124.675 115.702 124.675C111.131 124.675 107.426 128.381 107.426 132.952C107.426 137.523 111.131 141.229 115.702 141.229Z" fill="white"/>
<path opacity="0.5" d="M394.323 343.175C399.812 343.175 404.262 338.725 404.262 333.236C404.262 327.747 399.812 323.297 394.323 323.297C388.834 323.297 384.385 327.747 384.385 333.236C384.385 338.725 388.834 343.175 394.323 343.175Z" fill="#737373"/>
<path d="M400.906 333.236C400.906 334.538 400.52 335.811 399.796 336.893C399.073 337.976 398.045 338.819 396.842 339.317C395.639 339.816 394.316 339.946 393.039 339.692C391.762 339.438 390.589 338.811 389.669 337.891C388.748 336.97 388.121 335.797 387.867 334.52C387.613 333.243 387.744 331.92 388.242 330.717C388.74 329.514 389.584 328.486 390.666 327.763C391.749 327.04 393.021 326.654 394.323 326.654C396.069 326.654 397.743 327.347 398.978 328.582C400.212 329.816 400.906 331.49 400.906 333.236V333.236Z" fill="#737373"/>
<path opacity="0.5" d="M88.5148 175.748C88.5148 177.05 88.1288 178.323 87.4055 179.405C86.6822 180.488 85.6542 181.331 84.4514 181.829C83.2486 182.328 81.9252 182.458 80.6483 182.204C79.3714 181.95 78.1986 181.323 77.278 180.403C76.3575 179.482 75.7305 178.309 75.4766 177.032C75.2226 175.755 75.3529 174.432 75.8511 173.229C76.3493 172.026 77.193 170.998 78.2755 170.275C79.358 169.552 80.6306 169.166 81.9324 169.166C83.6782 169.166 85.3525 169.859 86.5869 171.094C87.8213 172.328 88.5148 174.002 88.5148 175.748V175.748Z" fill="#737373"/>
<path d="M81.9324 180.104C84.338 180.104 86.2881 178.154 86.2881 175.748C86.2881 173.343 84.338 171.393 81.9324 171.393C79.5269 171.393 77.5768 173.343 77.5768 175.748C77.5768 178.154 79.5269 180.104 81.9324 180.104Z" fill="#737373"/>
<path opacity="0.5" d="M392.824 272.898C392.826 274.202 392.442 275.478 391.718 276.564C390.995 277.649 389.966 278.496 388.762 278.997C387.557 279.498 386.231 279.63 384.951 279.377C383.672 279.123 382.496 278.496 381.573 277.575C380.65 276.653 380.021 275.478 379.765 274.199C379.51 272.92 379.64 271.593 380.139 270.388C380.637 269.183 381.482 268.152 382.567 267.427C383.651 266.702 384.927 266.315 386.231 266.315C387.096 266.314 387.953 266.483 388.753 266.813C389.553 267.144 390.28 267.628 390.893 268.24C391.505 268.851 391.991 269.577 392.322 270.376C392.654 271.176 392.824 272.032 392.824 272.898V272.898Z" fill="#737373"/>
<path d="M390.598 272.898C390.598 273.757 390.343 274.597 389.865 275.312C389.388 276.026 388.709 276.583 387.915 276.912C387.122 277.241 386.248 277.327 385.405 277.159C384.562 276.991 383.788 276.578 383.181 275.97C382.573 275.362 382.159 274.588 381.991 273.745C381.824 272.903 381.91 272.029 382.239 271.235C382.568 270.441 383.124 269.763 383.839 269.285C384.553 268.808 385.393 268.553 386.253 268.553C387.405 268.553 388.51 269.011 389.325 269.826C390.14 270.64 390.598 271.745 390.598 272.898Z" fill="#737373"/>
<path opacity="0.5" d="M305.939 288.257C309.575 288.257 312.522 285.31 312.522 281.674C312.522 278.039 309.575 275.092 305.939 275.092C302.304 275.092 299.357 278.039 299.357 281.674C299.357 285.31 302.304 288.257 305.939 288.257Z" fill="#737373"/>
<path d="M305.939 286.03C308.345 286.03 310.295 284.08 310.295 281.674C310.295 279.269 308.345 277.319 305.939 277.319C303.534 277.319 301.584 279.269 301.584 281.674C301.584 284.08 303.534 286.03 305.939 286.03Z" fill="#737373"/>
<path opacity="0.5" d="M114.432 363.031C114.432 364.332 114.045 365.605 113.322 366.688C112.599 367.77 111.571 368.614 110.368 369.112C109.165 369.61 107.842 369.74 106.565 369.486C105.288 369.232 104.115 368.606 103.195 367.685C102.274 366.764 101.647 365.592 101.393 364.315C101.139 363.038 101.27 361.714 101.768 360.512C102.266 359.309 103.11 358.281 104.192 357.557C105.275 356.834 106.547 356.448 107.849 356.448C109.595 356.448 111.269 357.142 112.504 358.376C113.738 359.611 114.432 361.285 114.432 363.031Z" fill="#737373"/>
<path d="M112.205 363.031C112.205 363.89 111.95 364.73 111.473 365.444C110.995 366.159 110.317 366.716 109.523 367.045C108.729 367.373 107.855 367.459 107.012 367.292C106.17 367.124 105.395 366.71 104.788 366.103C104.18 365.495 103.766 364.721 103.599 363.878C103.431 363.035 103.517 362.162 103.846 361.368C104.175 360.574 104.732 359.895 105.446 359.418C106.161 358.941 107.001 358.686 107.86 358.686C109.012 358.686 110.117 359.144 110.932 359.958C111.747 360.773 112.205 361.878 112.205 363.031Z" fill="#737373"/>
<path opacity="0.5" d="M248.849 105.677C248.846 106.979 248.459 108.25 247.734 109.331C247.009 110.412 245.981 111.254 244.778 111.751C243.575 112.248 242.252 112.376 240.975 112.121C239.699 111.866 238.527 111.238 237.608 110.317C236.689 109.396 236.063 108.223 235.81 106.947C235.556 105.67 235.687 104.347 236.186 103.145C236.685 101.943 237.528 100.916 238.61 100.193C239.693 99.47 240.965 99.0842 242.266 99.0842C243.132 99.0842 243.988 99.2548 244.788 99.5863C245.587 99.9178 246.313 100.404 246.925 101.016C247.536 101.628 248.021 102.355 248.351 103.155C248.681 103.955 248.85 104.812 248.849 105.677V105.677Z" fill="#737373"/>
<path d="M246.633 105.677C246.633 106.537 246.378 107.377 245.901 108.091C245.423 108.806 244.745 109.363 243.951 109.692C243.157 110.02 242.283 110.106 241.44 109.939C240.598 109.771 239.823 109.357 239.216 108.75C238.608 108.142 238.194 107.368 238.027 106.525C237.859 105.682 237.945 104.809 238.274 104.015C238.603 103.221 239.16 102.542 239.874 102.065C240.589 101.587 241.429 101.333 242.288 101.333C243.44 101.333 244.545 101.79 245.36 102.605C246.175 103.42 246.633 104.525 246.633 105.677Z" fill="#737373"/>
<path opacity="0.5" d="M308.166 75.101C308.166 76.4028 307.78 77.6754 307.057 78.7579C306.333 79.8404 305.305 80.6841 304.103 81.1823C302.9 81.6805 301.576 81.8108 300.299 81.5568C299.023 81.3029 297.85 80.6759 296.929 79.7554C296.009 78.8348 295.382 77.662 295.128 76.3851C294.874 75.1083 295.004 73.7848 295.502 72.582C296 71.3792 296.844 70.3512 297.927 69.6279C299.009 68.9046 300.282 68.5186 301.584 68.5186C303.329 68.5186 305.004 69.2121 306.238 70.4465C307.472 71.6809 308.166 73.3552 308.166 75.101Z" fill="#737373"/>
<path d="M305.939 75.101C305.939 75.9603 305.684 76.8003 305.207 77.5148C304.73 78.2293 304.051 78.7862 303.257 79.1151C302.463 79.4439 301.59 79.5299 300.747 79.3623C299.904 79.1947 299.13 78.7809 298.522 78.1732C297.915 77.5656 297.501 76.7914 297.333 75.9486C297.165 75.1058 297.251 74.2322 297.58 73.4383C297.909 72.6444 298.466 71.9658 299.181 71.4884C299.895 71.011 300.735 70.7562 301.594 70.7562C302.747 70.7562 303.852 71.2139 304.667 72.0288C305.481 72.8436 305.939 73.9487 305.939 75.101Z" fill="#D24D4D"/>
<path d="M361.444 187.696C361.446 188.307 361.267 188.904 360.929 189.413C360.592 189.922 360.111 190.319 359.547 190.554C358.984 190.789 358.363 190.852 357.764 190.734C357.165 190.616 356.614 190.323 356.182 189.892C355.749 189.461 355.454 188.912 355.334 188.313C355.215 187.714 355.275 187.094 355.508 186.529C355.741 185.965 356.137 185.482 356.644 185.143C357.152 184.804 357.749 184.622 358.359 184.622C359.175 184.622 359.958 184.946 360.537 185.522C361.115 186.098 361.441 186.88 361.444 187.696V187.696Z" fill="#737373"/>
<path d="M151.949 363.031C151.949 363.641 151.768 364.237 151.429 364.744C151.09 365.252 150.608 365.647 150.045 365.881C149.481 366.114 148.861 366.175 148.262 366.056C147.664 365.937 147.114 365.643 146.683 365.212C146.251 364.78 145.958 364.231 145.838 363.632C145.719 363.034 145.781 362.414 146.014 361.85C146.248 361.286 146.643 360.805 147.15 360.466C147.657 360.127 148.254 359.946 148.864 359.946C149.682 359.946 150.467 360.271 151.045 360.849C151.624 361.428 151.949 362.212 151.949 363.031V363.031Z" fill="#737373"/>
<path d="M148.864 105.677C148.864 106.288 148.683 106.885 148.343 107.392C148.004 107.9 147.522 108.295 146.957 108.528C146.393 108.762 145.772 108.822 145.173 108.702C144.575 108.582 144.025 108.287 143.594 107.855C143.163 107.422 142.87 106.872 142.752 106.273C142.635 105.673 142.697 105.053 142.932 104.489C143.167 103.926 143.565 103.445 144.073 103.107C144.582 102.77 145.179 102.591 145.79 102.593C146.195 102.593 146.595 102.673 146.969 102.828C147.343 102.983 147.682 103.21 147.968 103.497C148.253 103.783 148.479 104.124 148.633 104.498C148.787 104.872 148.865 105.273 148.864 105.677V105.677Z" fill="#737373"/>
<path d="M107.849 220.282C107.849 220.892 107.668 221.489 107.329 221.996C106.99 222.503 106.509 222.899 105.945 223.132C105.381 223.366 104.761 223.427 104.163 223.308C103.564 223.189 103.014 222.895 102.583 222.464C102.152 222.032 101.858 221.483 101.739 220.884C101.62 220.286 101.681 219.665 101.914 219.102C102.148 218.538 102.543 218.056 103.051 217.717C103.558 217.378 104.154 217.198 104.764 217.198C105.582 217.198 106.367 217.523 106.946 218.101C107.524 218.68 107.849 219.464 107.849 220.282V220.282Z" fill="#737373"/>
<path d="M436.642 250.587C436.644 251.198 436.465 251.795 436.127 252.304C435.789 252.813 435.308 253.21 434.745 253.445C434.181 253.68 433.561 253.743 432.962 253.625C432.362 253.507 431.812 253.214 431.379 252.783C430.947 252.352 430.652 251.803 430.532 251.204C430.412 250.605 430.473 249.984 430.706 249.42C430.939 248.856 431.334 248.373 431.842 248.034C432.349 247.695 432.946 247.513 433.557 247.513C434.373 247.513 435.156 247.837 435.734 248.413C436.312 248.989 436.639 249.771 436.642 250.587V250.587Z" fill="#737373"/>
<path d="M178.702 266.609C178.702 267.219 178.521 267.816 178.181 268.324C177.842 268.831 177.359 269.227 176.795 269.46C176.231 269.693 175.61 269.753 175.011 269.633C174.413 269.513 173.863 269.219 173.432 268.786C173.001 268.354 172.708 267.803 172.59 267.204C172.472 266.605 172.535 265.984 172.77 265.421C173.005 264.857 173.402 264.376 173.911 264.038C174.42 263.701 175.017 263.522 175.628 263.524C176.444 263.527 177.226 263.853 177.802 264.431C178.378 265.009 178.702 265.792 178.702 266.609Z" fill="#737373"/>
<path d="M66.0848 282.706C67.7885 282.706 69.1696 281.325 69.1696 279.621C69.1696 277.918 67.7885 276.537 66.0848 276.537C64.3811 276.537 63 277.918 63 279.621C63 281.325 64.3811 282.706 66.0848 282.706Z" fill="#737373"/>
<path d="M364.529 393.727C364.529 394.337 364.348 394.933 364.009 395.44C363.67 395.948 363.188 396.343 362.625 396.577C362.061 396.81 361.441 396.871 360.842 396.752C360.244 396.633 359.694 396.339 359.263 395.908C358.831 395.476 358.538 394.927 358.418 394.328C358.299 393.73 358.361 393.11 358.594 392.546C358.828 391.982 359.223 391.501 359.73 391.162C360.237 390.823 360.834 390.642 361.444 390.642C362.262 390.642 363.047 390.967 363.625 391.545C364.204 392.124 364.529 392.908 364.529 393.727V393.727Z" fill="#737373"/>
<path d="M253.02 318.257C253.02 318.868 252.839 319.464 252.5 319.971C252.161 320.479 251.679 320.874 251.115 321.107C250.552 321.341 249.931 321.402 249.333 321.283C248.735 321.164 248.185 320.87 247.754 320.439C247.322 320.007 247.028 319.458 246.909 318.859C246.79 318.261 246.851 317.641 247.085 317.077C247.318 316.513 247.714 316.031 248.221 315.693C248.728 315.354 249.325 315.173 249.935 315.173C250.753 315.173 251.538 315.498 252.116 316.076C252.695 316.655 253.02 317.439 253.02 318.257V318.257Z" fill="#737373"/>
<path d="M246.817 432.819C246.817 433.429 246.637 434.025 246.298 434.533C245.959 435.04 245.477 435.435 244.913 435.669C244.349 435.902 243.729 435.963 243.131 435.844C242.532 435.725 241.983 435.432 241.551 435C241.12 434.569 240.826 434.019 240.707 433.421C240.588 432.822 240.649 432.202 240.883 431.638C241.116 431.075 241.512 430.593 242.019 430.254C242.526 429.915 243.123 429.734 243.733 429.734C244.551 429.734 245.335 430.059 245.914 430.638C246.492 431.216 246.817 432.001 246.817 432.819V432.819Z" fill="#737373"/>
<path d="M217.001 161.399C217.003 162.01 216.824 162.608 216.487 163.116C216.149 163.625 215.668 164.022 215.104 164.257C214.541 164.492 213.92 164.555 213.321 164.437C212.722 164.319 212.172 164.026 211.739 163.595C211.307 163.164 211.012 162.615 210.892 162.016C210.772 161.417 210.832 160.797 211.065 160.232C211.299 159.668 211.694 159.186 212.201 158.846C212.709 158.507 213.306 158.326 213.916 158.326C214.733 158.326 215.516 158.649 216.094 159.225C216.672 159.801 216.998 160.583 217.001 161.399V161.399Z" fill="#737373"/>
<path d="M217.979 67.0848C217.979 67.6954 217.798 68.2922 217.458 68.7998C217.119 69.3073 216.636 69.7027 216.072 69.9358C215.508 70.169 214.887 70.2294 214.288 70.1095C213.69 69.9896 213.14 69.6947 212.709 69.2622C212.278 68.8297 211.985 68.2791 211.867 67.68C211.749 67.0808 211.812 66.4603 212.047 65.8968C212.282 65.3333 212.679 64.8523 213.188 64.5146C213.697 64.177 214.294 63.9979 214.905 64C215.31 64 215.71 64.0799 216.084 64.235C216.457 64.3902 216.797 64.6176 217.082 64.9042C217.368 65.1908 217.594 65.5309 217.748 65.9051C217.902 66.2793 217.98 66.6802 217.979 67.0848V67.0848Z" fill="#737373"/>
<path d="M359.923 115.334C359.936 115.947 359.766 116.549 359.435 117.065C359.104 117.581 358.627 117.986 358.065 118.23C357.502 118.473 356.88 118.544 356.278 118.432C355.675 118.321 355.119 118.032 354.681 117.603C354.243 117.175 353.943 116.625 353.819 116.025C353.694 115.425 353.751 114.801 353.983 114.234C354.214 113.667 354.609 113.181 355.118 112.839C355.627 112.497 356.226 112.314 356.838 112.314C357.645 112.314 358.42 112.63 358.997 113.195C359.574 113.759 359.906 114.527 359.923 115.334V115.334Z" fill="#737373"/>
<path d="M190.932 408.032L190.856 407.945L148.766 363.117L65.9436 279.676V279.589L81.7912 175.672L115.561 132.876L145.725 105.569L214.97 66.9002L215.046 67.0088L242.397 105.591L288.462 153.036L356.893 115.171L356.969 115.247L402.741 164.452L433.709 250.609V250.663L394.464 333.356H394.399L276.427 354.189L190.932 408.032ZM66.226 279.589L148.983 362.933L190.998 407.684L276.373 353.928L394.258 333.106L433.437 250.555L402.513 164.528L356.817 115.508L288.386 153.372L288.31 153.307L242.168 105.797L214.861 67.2586L145.855 105.797L115.8 133.061L82.0628 175.802L66.226 279.589Z" fill="#737373"/>
<path d="M361.498 393.9L361.39 393.846L276.286 354.167L249.859 318.377L175.704 266.826L148.897 363.411L148.745 363.085L118.114 298.054L104.623 220.261L145.725 105.515H145.844L232.132 125.349L242.19 105.569H242.288L356.98 115.247V115.366L357.794 154.111L402.644 164.387V164.647L357.968 160.237L358.544 187.762L306.254 281.511L386.416 272.746V272.876L394.464 333.258L361.498 393.9ZM276.46 353.95L361.39 393.542L394.193 333.204L386.122 273.072L305.744 281.859L305.874 281.631L358.272 187.685L357.697 160.205L288.451 153.362L213.732 161.584L213.84 161.367L232.045 125.577L145.877 105.797L104.906 220.293L118.385 298.054L148.799 362.694L175.508 266.435L175.671 266.554L250 318.171L276.46 353.95ZM357.925 159.933L400.504 164.137L357.805 154.361L357.925 159.933ZM232.273 125.62L214.155 161.193L288.408 153.025L357.642 159.868L357.523 154.252L232.273 125.62ZM232.404 125.37L357.534 154.024L356.719 115.464L242.397 105.797L232.404 125.37Z" fill="#737373"/>
<path d="M356.763 115.442L301.508 75.2096L301.66 74.9924L356.925 115.225L356.763 115.442Z" fill="#737373"/>
<path d="M243.722 432.971L190.976 407.988L190.009 408.075L190.672 407.836L107.708 363.128L65.9871 279.741L65.4874 279.556L66.0088 279.502L104.612 220.271L81.7478 175.737L81.8782 175.683L152.861 144.65L145.584 105.384L145.866 105.623L179.397 132.952L214.221 117.745L214.753 66.9002H214.905L302.051 74.9706L301.638 75.177L242.331 105.797L214.503 117.952L214.047 161.682L213.83 161.508L179.364 133.267L153.165 144.715L175.78 266.685H175.639L66.6822 279.697L118.298 297.913L249.902 318.116L305.994 281.479L306.07 281.609L341.241 352.57L394.215 333.138L397.473 267.782L386.296 273.072L386.177 272.833L397.419 267.532L399.591 222.455L358.077 187.696L358.251 187.599L402.72 164.278L399.895 222.27L433.796 250.62L433.611 250.718L397.723 267.641L394.464 333.312H394.378L341.338 352.777L361.65 393.792H361.477L243.722 432.971ZM191.476 407.988L243.744 432.721L360.325 393.998L191.476 407.988ZM107.958 362.976L190.965 407.76L340.958 352.723L305.896 281.87L250 318.399H249.946L118.266 298.195L66.3564 279.871L107.958 362.976ZM341.078 352.962L191.943 407.684L361.238 393.64L341.078 352.962ZM82.1171 175.911L104.927 220.391V220.456L66.3564 279.458L175.465 266.489L152.916 144.9L82.1171 175.911ZM399.895 222.618L397.723 267.347L433.329 250.555L399.895 222.618ZM358.62 187.729L399.646 222.02L402.47 164.68L358.62 187.729ZM179.647 133.191L213.786 161.117L214.231 118.071L179.647 133.191ZM145.975 106.036L153.111 144.509L179.115 133.147L145.975 106.036ZM215.024 67.2478L214.503 117.68L242.201 105.569L301.095 75.2205L215.024 67.2478Z" fill="#737373"/>
<path d="M288.531 153.024L288.293 153.156L308.05 188.652L308.287 188.52L288.531 153.024Z" fill="#737373"/>
<path d="M394.302 333.464L370.59 316.541L370.742 316.324L394.454 333.247L394.302 333.464Z" fill="#737373"/>
<path d="M201.127 356.421L191.789 407.605L192.056 407.653L201.394 356.469L201.127 356.421Z" fill="#737373"/>
<path d="M233.935 356.307H168.752V356.579H233.935V356.307Z" fill="#737373"/>
<path d="M333.442 198.254C333.445 202.102 332.314 205.865 330.188 209.072C328.063 212.28 325.038 214.789 321.494 216.285L313.89 198.254H333.442Z" fill="#737373"/>
<path d="M311.359 196.918L319.017 214.938C318.42 215.177 317.822 215.405 317.214 215.59C314.285 216.504 311.182 216.715 308.156 216.207C305.13 215.699 302.265 214.486 299.795 212.666C297.325 210.846 295.317 208.47 293.935 205.731C292.554 202.991 291.836 199.965 291.84 196.896C291.842 194.923 292.139 192.96 292.72 191.074C293.662 188.048 295.326 185.296 297.569 183.056C299.811 180.815 302.564 179.154 305.592 178.214C308.046 177.445 310.627 177.168 313.188 177.399C315.75 177.63 318.24 178.363 320.518 179.558C322.795 180.753 324.814 182.385 326.46 184.361C328.105 186.337 329.345 188.618 330.107 191.074C330.683 192.962 330.98 194.923 330.987 196.896L311.359 196.918Z" fill="#737373"/>
<path d="M311.359 196.918L319.017 214.938C318.42 215.177 317.822 215.405 317.214 215.59C313.429 216.763 309.377 216.763 305.592 215.59C302.385 214.582 299.493 212.764 297.194 210.313C294.895 207.861 293.267 204.858 292.466 201.593C291.666 198.329 291.721 194.913 292.626 191.676C293.53 188.439 295.254 185.49 297.631 183.113C300.007 180.737 302.956 179.013 306.194 178.108C309.431 177.204 312.846 177.149 316.111 177.949C319.375 178.749 322.378 180.378 324.83 182.677C327.281 184.976 329.099 187.868 330.107 191.074C330.683 192.962 330.98 194.923 330.987 196.896L311.359 196.918Z" fill="#A6A6A6"/>
<path d="M311.37 196.918L298.607 211.756C296.128 209.616 294.226 206.889 293.076 203.823C291.925 200.757 291.563 197.451 292.023 194.209C292.483 190.967 293.749 187.893 295.707 185.267C297.664 182.642 300.249 180.551 303.225 179.185C306.201 177.819 309.472 177.222 312.739 177.449C316.006 177.677 319.163 178.721 321.921 180.486C324.679 182.251 326.949 184.681 328.524 187.552C330.098 190.423 330.927 193.644 330.933 196.918H311.37Z" fill="#7F959F"/>
<path d="M343.381 297.652H339.101V319.398H343.381V297.652Z" fill="#737373"/>
<path d="M350.734 301.269H346.454V319.409H350.734V301.269Z" fill="#737373"/>
<path d="M358.099 307.863H353.819V319.409H358.099V307.863Z" fill="#737373"/>
<path d="M365.452 300.954H361.172V319.409H365.452V300.954Z" fill="#737373"/>
<path d="M372.806 303.985H368.526V319.409H372.806V303.985Z" fill="#737373"/>
<path d="M380.159 294.622H375.88V319.398H380.159V294.622Z" fill="#737373"/>
<path d="M336.624 293.112V299.683V306.255V319.409L336.516 319.3C346.911 319.3 357.306 319.3 367.7 319.3H376.39L384.091 319.365H376.39H367.7C357.306 319.365 346.911 319.365 336.516 319.365H336.407V319.268V306.114V299.542L336.624 293.112Z" fill="#A6A6A6"/>
<path d="M335.679 294.622C336.299 294.463 336.949 294.463 337.569 294.622C336.949 294.781 336.299 294.781 335.679 294.622V294.622Z" fill="#A6A6A6"/>
<path d="M335.679 297.229C335.989 297.151 336.306 297.111 336.624 297.109C336.943 297.106 337.261 297.146 337.569 297.229C336.949 297.388 336.299 297.388 335.679 297.229Z" fill="#A6A6A6"/>
<path d="M335.679 299.836C336.299 299.676 336.949 299.676 337.569 299.836C336.951 300.01 336.297 300.01 335.679 299.836V299.836Z" fill="#A6A6A6"/>
<path d="M335.679 302.453C336.297 302.279 336.951 302.279 337.569 302.453C336.949 302.612 336.299 302.612 335.679 302.453Z" fill="#A6A6A6"/>
<path d="M335.679 305.06C336.299 304.901 336.949 304.901 337.569 305.06C336.949 305.219 336.299 305.219 335.679 305.06V305.06Z" fill="#A6A6A6"/>
<path d="M335.679 307.667C336.299 307.508 336.949 307.508 337.569 307.667C336.949 307.826 336.299 307.826 335.679 307.667Z" fill="#A6A6A6"/>
<path d="M335.679 310.274C335.989 310.197 336.306 310.157 336.624 310.154C336.944 310.146 337.262 310.186 337.569 310.274C336.949 310.433 336.299 310.433 335.679 310.274Z" fill="#A6A6A6"/>
<path d="M335.679 312.881C336.299 312.722 336.949 312.722 337.569 312.881C336.951 313.055 336.297 313.055 335.679 312.881V312.881Z" fill="#A6A6A6"/>
<path d="M335.679 315.498C336.297 315.324 336.951 315.324 337.569 315.498C336.949 315.658 336.299 315.658 335.679 315.498Z" fill="#A6A6A6"/>
<path d="M180.364 356.448C180.359 359.261 179.331 361.976 177.472 364.087C175.614 366.198 173.05 367.561 170.261 367.922C167.472 368.282 164.646 367.617 162.311 366.048C159.976 364.48 158.292 362.116 157.571 359.397C156.851 356.678 157.143 353.79 158.395 351.271C159.646 348.752 161.771 346.774 164.373 345.706C166.975 344.638 169.877 344.553 172.537 345.466C175.197 346.379 177.435 348.229 178.832 350.67C179.838 352.429 180.366 354.421 180.364 356.448V356.448Z" fill="#DBDBDB"/>
<path d="M178.832 350.67L168.752 356.448V344.837C170.797 344.836 172.806 345.375 174.576 346.4C176.345 347.424 177.814 348.897 178.832 350.67V350.67Z" fill="#737373"/>
<path d="M176.696 357.751C177.404 353.375 174.431 349.253 170.055 348.544C165.679 347.835 161.557 350.808 160.848 355.185C160.139 359.561 163.112 363.683 167.488 364.392C171.865 365.1 175.987 362.127 176.696 357.751Z" fill="white"/>
<path d="M172.098 354.656H165.418V355.601H172.098V354.656Z" fill="#263238"/>
<path d="M173.749 357.285H163.756V358.23H173.749V357.285Z" fill="#A6A6A6"/>
<path d="M212.841 356.448C212.842 357.016 212.798 357.582 212.711 358.143C212.263 361.095 210.688 363.758 208.317 365.573C205.946 367.388 202.964 368.213 199.998 367.874C197.031 367.536 194.312 366.06 192.411 363.758C190.51 361.455 189.575 358.505 189.804 355.528C190.033 352.551 191.408 349.779 193.638 347.795C195.869 345.81 198.783 344.768 201.766 344.887C204.749 345.006 207.57 346.277 209.636 348.433C211.701 350.589 212.85 353.462 212.841 356.448V356.448Z" fill="#DBDBDB"/>
<path d="M212.841 356.448C212.842 357.016 212.798 357.582 212.711 358.143L201.23 356.448V344.837C202.755 344.834 204.267 345.132 205.677 345.715C207.087 346.297 208.368 347.152 209.447 348.231C210.525 349.31 211.381 350.591 211.963 352.001C212.546 353.411 212.844 354.923 212.841 356.448V356.448Z" fill="#737373"/>
<path d="M209.055 358.29C210.07 353.975 207.395 349.653 203.08 348.638C198.764 347.623 194.443 350.298 193.428 354.613C192.412 358.929 195.088 363.25 199.403 364.265C203.718 365.281 208.04 362.606 209.055 358.29Z" fill="white"/>
<path d="M204.575 354.656H197.895V355.601H204.575V354.656Z" fill="#263238"/>
<path d="M206.226 357.285H196.233V358.23H206.226V357.285Z" fill="#A6A6A6"/>
<path d="M245.547 356.448C245.548 359.269 244.524 361.995 242.664 364.117C240.804 366.238 238.236 367.611 235.439 367.978C232.642 368.346 229.807 367.684 227.462 366.115C225.117 364.546 223.423 362.178 222.695 359.453C221.968 356.727 222.256 353.829 223.508 351.301C224.759 348.772 226.887 346.785 229.495 345.71C232.104 344.635 235.014 344.545 237.684 345.458C240.353 346.37 242.6 348.223 244.004 350.67C245.015 352.428 245.546 354.42 245.547 356.448V356.448Z" fill="#DBDBDB"/>
<path d="M245.547 356.448C245.552 358.801 244.843 361.099 243.512 363.039C242.181 364.979 240.292 366.469 238.095 367.31L233.935 356.448V344.837C237.014 344.84 239.966 346.064 242.143 348.241C244.319 350.418 245.544 353.37 245.547 356.448V356.448Z" fill="#737373"/>
<path d="M241.962 356.448C241.962 358.036 241.491 359.588 240.609 360.908C239.727 362.228 238.474 363.257 237.007 363.864C235.54 364.472 233.926 364.631 232.369 364.321C230.812 364.011 229.382 363.247 228.259 362.124C227.137 361.002 226.372 359.571 226.062 358.014C225.753 356.457 225.912 354.843 226.519 353.376C227.127 351.91 228.156 350.656 229.476 349.774C230.796 348.892 232.348 348.421 233.935 348.421C236.064 348.421 238.106 349.267 239.611 350.772C241.116 352.278 241.962 354.319 241.962 356.448Z" fill="white"/>
<path d="M237.27 354.656H230.59V355.601H237.27V354.656Z" fill="#263238"/>
<path d="M238.932 357.285H228.939V358.23H238.932V357.285Z" fill="#A6A6A6"/>
<path d="M143.748 199.731H148.288V170.285H143.748V199.731Z" fill="#EBEBEB"/>
<path d="M143.748 199.731H148.288V177.356H143.748V199.731Z" fill="#737373"/>
<path d="M136.905 199.731H141.445V170.285H136.905V199.731Z" fill="#EBEBEB"/>
<path d="M136.905 199.731H141.445V180.343H136.905V199.731Z" fill="#7F959F"/>
<path d="M130.073 199.731H134.613V170.285H130.073V199.731Z" fill="#EBEBEB"/>
<path d="M130.073 199.731H134.613V190.77H130.073V199.731Z" fill="#737373"/>
<path d="M123.241 199.731H127.781V170.285H123.241V199.731Z" fill="#EBEBEB"/>
<path d="M123.241 199.721H127.781V175.14H123.241V199.721Z" fill="#7F959F"/>
<path d="M116.419 199.731H120.96V170.285H116.419V199.731Z" fill="#EBEBEB"/>
<path d="M116.419 199.731H120.96V173.196H116.419V199.731Z" fill="#737373"/>
<path d="M109.587 199.731H114.127V170.285H109.587V199.731Z" fill="#EBEBEB"/>
<path d="M109.587 199.731H114.127V182.917H109.587V199.731Z" fill="#7F959F"/>
<path d="M106.557 170.274L106.622 177.638L106.676 185.003L106.72 199.731L106.557 199.569L117.744 199.558L128.932 199.579L140.12 199.634L151.308 199.731L140.12 199.829L128.932 199.884L117.744 199.894H106.557H106.394V199.731L106.448 185.003L106.491 177.638L106.557 170.274Z" fill="#EBEBEB"/>
<path d="M105.905 170.274C106.125 170.218 106.351 170.189 106.578 170.187C106.805 170.188 107.032 170.217 107.252 170.274C107.034 170.34 106.806 170.37 106.578 170.361C106.351 170.369 106.123 170.34 105.905 170.274V170.274Z" fill="#EBEBEB"/>
<path d="M105.905 173.196C106.141 173.147 106.381 173.129 106.622 173.141C106.849 173.143 107.075 173.172 107.295 173.228C107.077 173.295 106.85 173.324 106.622 173.315C106.378 173.318 106.135 173.278 105.905 173.196V173.196Z" fill="#EBEBEB"/>
<path d="M105.905 176.117C106.124 176.057 106.351 176.027 106.578 176.031C106.806 176.027 107.033 176.056 107.252 176.117C107.033 176.179 106.806 176.208 106.578 176.204C106.351 176.208 106.124 176.178 105.905 176.117V176.117Z" fill="#EBEBEB"/>
<path d="M105.905 179.039C106.124 178.978 106.351 178.949 106.578 178.952C106.806 178.948 107.033 178.978 107.252 179.039C107.033 179.101 106.806 179.13 106.578 179.126C106.351 179.129 106.124 179.1 105.905 179.039V179.039Z" fill="#EBEBEB"/>
<path d="M105.905 181.961C106.136 181.881 106.378 181.837 106.622 181.831C106.849 181.827 107.076 181.856 107.295 181.918C107.076 181.979 106.849 182.009 106.622 182.005C106.382 182.026 106.14 182.012 105.905 181.961V181.961Z" fill="#EBEBEB"/>
<path d="M105.905 184.883C106.123 184.817 106.351 184.788 106.578 184.796C106.806 184.787 107.034 184.816 107.252 184.883C107.032 184.939 106.805 184.969 106.578 184.97C106.351 184.968 106.125 184.939 105.905 184.883V184.883Z" fill="#EBEBEB"/>
<path d="M105.905 187.805C106.123 187.739 106.351 187.709 106.578 187.718C106.806 187.709 107.034 187.738 107.252 187.805C107.032 187.861 106.805 187.89 106.578 187.892C106.351 187.89 106.125 187.861 105.905 187.805V187.805Z" fill="#EBEBEB"/>
<path d="M105.905 190.716C106.125 190.66 106.351 190.631 106.578 190.629C106.805 190.631 107.032 190.66 107.252 190.716C107.034 190.783 106.806 190.812 106.578 190.803C106.351 190.811 106.123 190.782 105.905 190.716V190.716Z" fill="#EBEBEB"/>
<path d="M105.905 193.638C106.125 193.582 106.351 193.553 106.578 193.551C106.805 193.552 107.032 193.582 107.252 193.638C107.034 193.705 106.806 193.734 106.578 193.725C106.351 193.733 106.123 193.704 105.905 193.638V193.638Z" fill="#EBEBEB"/>
<path d="M105.905 196.56C106.124 196.499 106.351 196.47 106.578 196.473C106.806 196.469 107.033 196.498 107.252 196.56C107.033 196.621 106.806 196.651 106.578 196.647C106.351 196.65 106.124 196.621 105.905 196.56Z" fill="#EBEBEB"/>
<path d="M437 216.014H406.652V231.709H437V216.014Z" fill="#737373"/>
<path d="M433.492 219.62H410.138V220.261H433.492V219.62Z" fill="white"/>
<path d="M433.492 222.237H410.138V222.878H433.492V222.237Z" fill="white"/>
<path d="M433.492 224.855H410.138V225.496H433.492V224.855Z" fill="white"/>
<path d="M433.492 227.462H410.138V228.103H433.492V227.462Z" fill="white"/>
<path d="M111.26 324.394H80.9114V340.09H111.26V324.394Z" fill="#737373"/>
<path d="M107.762 328.001H84.409V328.641H107.762V328.001Z" fill="white"/>
<path d="M107.762 330.618H84.409V331.259H107.762V330.618Z" fill="white"/>
<path d="M107.762 333.225H84.409V333.866H107.762V333.225Z" fill="white"/>
<path d="M107.762 335.843H84.409V336.484H107.762V335.843Z" fill="white"/>
<path d="M228.993 115.019H198.645V130.714H228.993V115.019Z" fill="#737373"/>
<path d="M225.495 118.625H202.142V119.266H225.495V118.625Z" fill="white"/>
<path d="M225.495 121.243H202.142V121.884H225.495V121.243Z" fill="white"/>
<path d="M225.495 123.86H202.142V124.501H225.495V123.86Z" fill="white"/>
<path d="M225.495 126.478H202.142V127.119H225.495V126.478Z" fill="white"/>
<path d="M288.832 396.8H258.483V412.496H288.832V396.8Z" fill="#737373"/>
<path d="M285.334 400.418H261.981V401.058H285.334V400.418Z" fill="white"/>
<path d="M285.334 403.024H261.981V403.665H285.334V403.024Z" fill="white"/>
<path d="M285.334 405.642H261.981V406.283H285.334V405.642Z" fill="white"/>
<path d="M285.334 408.26H261.981V408.901H285.334V408.26Z" fill="white"/>
</svg>
