<svg width="744" height="652" viewBox="0 0 744 652" fill="none" xmlns="http://www.w3.org/2000/svg">
<g clip-path="url(#clip0)">
<line x1="373.5" y1="271" x2="373.5" y2="368" stroke="#FF5454" stroke-width="3" stroke-dasharray="6 6"/>
<path d="M401 254C418.855 296.486 420.461 340.979 401 385" stroke="#FF5454" stroke-width="3" stroke-dasharray="6 6"/>
<path d="M344 254C326.145 296.486 324.539 340.979 344 385" stroke="#FF5454" stroke-width="3" stroke-dasharray="6 6"/>
<path d="M402.844 914.245C396.185 915.02 389.448 915.544 382.644 915.805L382.606 914.806C379.253 914.935 375.884 915 372.5 915C369.116 915 365.747 914.935 362.394 914.806L362.356 915.805C355.552 915.544 348.815 915.02 342.156 914.245L342.272 913.251C335.544 912.468 328.896 911.426 322.337 910.136L322.144 911.117C315.477 909.806 308.902 908.239 302.43 906.428L302.699 905.465C296.192 903.644 289.789 901.574 283.501 899.267L283.157 900.206C276.79 897.87 270.541 895.291 264.421 892.482L264.838 891.573C258.706 888.758 252.704 885.709 246.844 882.439L246.356 883.313C240.445 880.014 234.678 876.492 229.065 872.756L229.619 871.924C224.009 868.189 218.555 864.242 213.267 860.092L212.65 860.879C207.332 856.705 202.182 852.327 197.213 847.758L197.89 847.022C192.935 842.466 188.161 837.719 183.578 832.793L182.846 833.474C178.246 828.529 173.839 823.405 169.637 818.112L170.42 817.49C166.239 812.225 162.262 806.792 158.499 801.204L157.669 801.763C153.902 796.169 150.35 790.42 147.023 784.527L147.894 784.035C144.594 778.189 141.518 772.202 138.676 766.084L137.769 766.505C134.932 760.396 132.328 754.159 129.968 747.803L130.906 747.455C128.575 741.174 126.483 734.778 124.643 728.278L123.68 728.55C121.849 722.083 120.265 715.511 118.939 708.848L119.92 708.653C118.615 702.097 117.561 695.451 116.769 688.726L115.776 688.843C114.991 682.184 114.461 675.448 114.197 668.644L115.196 668.605C115.066 665.253 115 661.884 115 658.5C115 655.116 115.066 651.747 115.196 648.395L114.197 648.356C114.461 641.552 114.991 634.816 115.776 628.157L116.769 628.274C117.561 621.549 118.615 614.903 119.92 608.347L118.939 608.152C120.265 601.489 121.849 594.917 123.68 588.45L124.643 588.722C126.483 582.221 128.575 575.826 130.906 569.545L129.968 569.197C132.328 562.841 134.932 556.603 137.769 550.495L138.676 550.916C141.518 544.798 144.594 538.811 147.894 532.965L147.023 532.473C150.35 526.58 153.902 520.831 157.669 515.237L158.499 515.796C162.262 510.208 166.239 504.775 170.42 499.51L169.637 498.888C173.839 493.595 178.246 488.471 182.846 483.526L183.578 484.207C188.161 479.281 192.935 474.534 197.89 469.978L197.213 469.242C202.182 464.672 207.332 460.295 212.65 456.121L213.268 456.908C218.555 452.758 224.009 448.81 229.619 445.076L229.065 444.244C234.678 440.508 240.445 436.986 246.356 433.687L246.844 434.561C252.704 431.291 258.706 428.242 264.838 425.427L264.421 424.518C270.541 421.709 276.79 419.13 283.157 416.794L283.501 417.733C289.789 415.426 296.192 413.356 302.699 411.535L302.43 410.572C308.902 408.761 315.477 407.194 322.144 405.883L322.337 406.864C328.896 405.574 335.544 404.532 342.272 403.749L342.156 402.755C348.815 401.98 355.552 401.456 362.356 401.195L362.394 402.194C365.747 402.065 369.116 402 372.5 402C375.884 402 379.253 402.065 382.606 402.194L382.644 401.195C389.448 401.456 396.185 401.98 402.844 402.755L402.728 403.749C409.456 404.532 416.104 405.574 422.663 406.864L422.856 405.883C429.523 407.194 436.098 408.761 442.57 410.572L442.301 411.535C448.808 413.356 455.211 415.426 461.499 417.733L461.843 416.794C468.21 419.13 474.459 421.709 480.579 424.518L480.162 425.427C486.294 428.242 492.296 431.291 498.156 434.561L498.644 433.687C504.555 436.986 510.322 440.508 515.935 444.244L515.381 445.076C520.991 448.81 526.445 452.758 531.732 456.908L532.35 456.121C537.668 460.295 542.818 464.672 547.787 469.242L547.11 469.978C552.065 474.534 556.839 479.281 561.422 484.207L562.154 483.526C566.754 488.471 571.161 493.595 575.363 498.888L574.58 499.51C578.761 504.775 582.738 510.208 586.501 515.796L587.331 515.237C591.098 520.831 594.65 526.58 597.977 532.473L597.106 532.965C600.406 538.811 603.482 544.798 606.324 550.916L607.231 550.495C610.068 556.603 612.672 562.841 615.032 569.197L614.094 569.545C616.425 575.826 618.517 582.221 620.357 588.722L621.32 588.45C623.151 594.917 624.735 601.489 626.061 608.152L625.08 608.347C626.385 614.903 627.439 621.549 628.231 628.274L629.224 628.157C630.009 634.816 630.538 641.552 630.803 648.356L629.804 648.395C629.934 651.747 630 655.116 630 658.5C630 661.884 629.934 665.253 629.804 668.605L630.803 668.644C630.538 675.448 630.009 682.184 629.224 688.843L628.231 688.726C627.439 695.451 626.385 702.097 625.08 708.653L626.061 708.848C624.735 715.511 623.151 722.083 621.32 728.55L620.357 728.278C618.517 734.778 616.425 741.174 614.094 747.455L615.032 747.803C612.672 754.159 610.068 760.396 607.231 766.505L606.324 766.084C603.482 772.202 600.406 778.189 597.106 784.035L597.977 784.527C594.65 790.42 591.098 796.169 587.331 801.763L586.501 801.204C582.738 806.792 578.761 812.225 574.58 817.49L575.363 818.112C571.161 823.405 566.754 828.529 562.154 833.474L561.422 832.793C556.839 837.719 552.065 842.466 547.11 847.022L547.787 847.758C542.818 852.327 537.668 856.705 532.35 860.879L531.732 860.092C526.445 864.242 520.991 868.189 515.381 871.924L515.935 872.756C510.322 876.492 504.555 880.014 498.644 883.313L498.156 882.439C492.296 885.709 486.294 888.758 480.162 891.573L480.579 892.482C474.459 895.291 468.21 897.87 461.843 900.206L461.499 899.267C455.211 901.574 448.808 903.644 442.301 905.465L442.57 906.428C436.098 908.239 429.523 909.806 422.856 911.117L422.663 910.136C416.104 911.426 409.456 912.468 402.728 913.251L402.844 914.245Z" stroke="#CECECE" stroke-width="2" stroke-dasharray="20 20"/>
<path d="M402.844 -274.245C396.185 -275.02 389.448 -275.544 382.644 -275.805L382.606 -274.806C379.253 -274.935 375.884 -275 372.5 -275C369.116 -275 365.747 -274.935 362.394 -274.806L362.356 -275.805C355.552 -275.544 348.815 -275.02 342.156 -274.245L342.272 -273.251C335.544 -272.468 328.896 -271.426 322.337 -270.136L322.144 -271.117C315.477 -269.806 308.902 -268.239 302.43 -266.428L302.699 -265.465C296.192 -263.644 289.789 -261.574 283.501 -259.267L283.157 -260.206C276.79 -257.87 270.541 -255.291 264.421 -252.482L264.838 -251.573C258.706 -248.758 252.704 -245.709 246.844 -242.439L246.356 -243.313C240.445 -240.014 234.678 -236.492 229.065 -232.756L229.619 -231.924C224.009 -228.19 218.555 -224.242 213.268 -220.092L212.65 -220.879C207.332 -216.705 202.182 -212.328 197.213 -207.758L197.89 -207.022C192.935 -202.466 188.161 -197.719 183.578 -192.793L182.846 -193.474C178.246 -188.529 173.839 -183.405 169.637 -178.112L170.42 -177.49C166.239 -172.225 162.262 -166.792 158.499 -161.204L157.669 -161.763C153.902 -156.169 150.35 -150.42 147.024 -144.527L147.894 -144.035C144.594 -138.189 141.518 -132.202 138.676 -126.084L137.769 -126.505C134.932 -120.397 132.328 -114.159 129.968 -107.803L130.906 -107.455C128.575 -101.174 126.483 -94.7785 124.643 -88.2779L123.68 -88.5503C121.849 -82.0826 120.265 -75.5115 118.939 -68.8479L119.92 -68.6527C118.615 -62.0969 117.561 -55.451 116.769 -48.7255L115.776 -48.8426C114.991 -42.184 114.461 -35.4478 114.197 -28.6439L115.196 -28.605C115.066 -25.2528 115 -21.8841 115 -18.5C115 -15.1159 115.066 -11.7472 115.196 -8.39504L114.197 -8.35618C114.461 -1.55222 114.991 5.184 115.776 11.8425L116.769 11.7255C117.561 18.451 118.615 25.0968 119.92 31.6527L118.939 31.8478C120.265 38.5114 121.849 45.0825 123.68 51.5503L124.643 51.2778C126.483 57.7785 128.575 64.1744 130.906 70.4545L129.968 70.8025C132.328 77.1585 134.932 83.3965 137.769 89.5049L138.676 89.0837C141.518 95.2017 144.594 101.189 147.894 107.035L147.023 107.527C150.35 113.42 153.902 119.169 157.669 124.762L158.499 124.204C162.262 129.792 166.239 135.225 170.42 140.49L169.637 141.112C173.839 146.405 178.246 151.529 182.846 156.474L183.578 155.793C188.161 160.719 192.935 165.466 197.89 170.022L197.213 170.758C202.182 175.327 207.332 179.705 212.65 183.879L213.268 183.092C218.555 187.242 224.009 191.189 229.619 194.924L229.065 195.756C234.678 199.492 240.445 203.014 246.356 206.313L246.844 205.439C252.704 208.709 258.706 211.758 264.838 214.573L264.421 215.482C270.541 218.291 276.79 220.87 283.157 223.206L283.501 222.267C289.789 224.574 296.192 226.644 302.699 228.465L302.43 229.428C308.902 231.239 315.477 232.806 322.144 234.117L322.337 233.136C328.896 234.426 335.544 235.468 342.272 236.251L342.156 237.245C348.815 238.02 355.552 238.544 362.356 238.805L362.394 237.806C365.747 237.935 369.116 238 372.5 238C375.884 238 379.253 237.935 382.606 237.806L382.644 238.805C389.448 238.544 396.185 238.02 402.844 237.245L402.728 236.251C409.456 235.468 416.104 234.426 422.663 233.136L422.856 234.117C429.523 232.806 436.098 231.239 442.57 229.428L442.301 228.465C448.808 226.644 455.211 224.574 461.499 222.267L461.843 223.206C468.21 220.87 474.459 218.291 480.579 215.482L480.162 214.573C486.294 211.758 492.296 208.709 498.156 205.439L498.644 206.313C504.555 203.014 510.322 199.492 515.935 195.756L515.381 194.924C520.991 191.189 526.445 187.242 531.732 183.092L532.35 183.879C537.668 179.705 542.818 175.327 547.787 170.758L547.11 170.022C552.065 165.466 556.839 160.719 561.422 155.793L562.154 156.474C566.754 151.529 571.161 146.405 575.363 141.112L574.58 140.49C578.761 135.225 582.738 129.792 586.501 124.204L587.331 124.763C591.098 119.169 594.65 113.42 597.977 107.527L597.106 107.035C600.406 101.189 603.482 95.2017 606.324 89.0837L607.231 89.505C610.068 83.3965 612.672 77.1586 615.032 70.8025L614.094 70.4545C616.425 64.1744 618.517 57.7785 620.357 51.2779L621.32 51.5503C623.151 45.0825 624.735 38.5115 626.061 31.8479L625.08 31.6527C626.385 25.0968 627.439 18.451 628.231 11.7255L629.224 11.8426C630.009 5.18404 630.539 -1.5522 630.803 -8.35616L629.804 -8.395C629.934 -11.7472 630 -15.1159 630 -18.5C630 -21.8841 629.934 -25.2528 629.804 -28.605L630.803 -28.6438C630.539 -35.4478 630.009 -42.184 629.224 -48.8426L628.231 -48.7255C627.439 -55.451 626.385 -62.0968 625.08 -68.6527L626.061 -68.8478C624.735 -75.5114 623.151 -82.0825 621.32 -88.5503L620.357 -88.2778C618.517 -94.7785 616.425 -101.174 614.094 -107.455L615.032 -107.803C612.672 -114.159 610.068 -120.396 607.231 -126.505L606.324 -126.084C603.482 -132.202 600.406 -138.189 597.106 -144.035L597.977 -144.527C594.65 -150.42 591.098 -156.169 587.331 -161.763L586.501 -161.204C582.738 -166.792 578.761 -172.225 574.58 -177.49L575.363 -178.112C571.161 -183.405 566.754 -188.529 562.155 -193.474L561.422 -192.793C556.839 -197.719 552.065 -202.466 547.11 -207.022L547.787 -207.758C542.818 -212.327 537.668 -216.705 532.35 -220.879L531.733 -220.092C526.445 -224.242 520.991 -228.189 515.381 -231.924L515.935 -232.756C510.322 -236.492 504.555 -240.014 498.644 -243.313L498.156 -242.439C492.296 -245.709 486.294 -248.758 480.162 -251.573L480.579 -252.482C474.459 -255.291 468.21 -257.87 461.843 -260.206L461.499 -259.267C455.211 -261.574 448.808 -263.644 442.301 -265.465L442.57 -266.428C436.098 -268.239 429.523 -269.806 422.856 -271.117L422.663 -270.136C416.104 -271.426 409.456 -272.468 402.728 -273.251L402.844 -274.245Z" stroke="#CECECE" stroke-width="2" stroke-dasharray="20 20"/>
<path d="M403.34 -173.021C396.649 -174.332 389.808 -175.224 382.844 -175.67L382.78 -174.672C379.382 -174.89 375.954 -175 372.5 -175C369.046 -175 365.618 -174.89 362.22 -174.672L362.156 -175.67C355.192 -175.224 348.351 -174.332 341.66 -173.021L341.853 -172.039C335.067 -170.709 328.438 -168.947 321.996 -166.781L321.677 -167.729C315.101 -165.518 308.718 -162.89 302.56 -159.877L303 -158.978C296.821 -155.954 290.87 -152.539 285.18 -148.766L284.627 -149.599C278.868 -145.78 273.374 -141.595 268.18 -137.079L268.836 -136.325C263.662 -131.826 258.787 -126.997 254.244 -121.87L253.495 -122.533C248.927 -117.377 244.693 -111.922 240.826 -106.201L241.655 -105.641C237.829 -99.9805 234.365 -94.0582 231.297 -87.907L230.402 -88.3534C227.34 -82.2147 224.669 -75.8493 222.422 -69.2893L223.368 -68.9652C221.164 -62.5335 219.37 -55.9135 218.016 -49.1358L217.036 -49.3317C215.7 -42.645 214.791 -35.8059 214.336 -28.8435L215.334 -28.7784C215.113 -25.3808 215 -21.9536 215 -18.5C215 -15.0465 215.113 -11.6192 215.334 -8.22166L214.336 -8.15655C214.791 -1.19417 215.7 5.64493 217.036 12.3316L218.016 12.1358C219.37 18.9134 221.164 25.5334 223.368 31.9651L222.422 32.2892C224.669 38.8493 227.34 45.2147 230.402 51.3533L231.297 50.907C234.365 57.0582 237.829 62.9804 241.655 68.6408L240.826 69.2008C244.693 74.9219 248.927 80.3772 253.495 85.5332L254.244 84.87C258.787 89.9971 263.662 94.8264 268.836 99.3247L268.18 100.079C273.374 104.595 278.868 108.78 284.627 112.599L285.18 111.766C290.87 115.539 296.82 118.954 303 121.978L302.56 122.876C308.718 125.89 315.101 128.518 321.677 130.729L321.996 129.781C328.438 131.947 335.067 133.709 341.853 135.039L341.66 136.02C348.351 137.332 355.192 138.224 362.156 138.67L362.22 137.672C365.618 137.89 369.046 138 372.5 138C375.954 138 379.382 137.89 382.78 137.672L382.844 138.67C389.808 138.224 396.649 137.332 403.34 136.021L403.147 135.039C409.933 133.709 416.562 131.947 423.004 129.781L423.323 130.729C429.899 128.518 436.282 125.89 442.44 122.877L442 121.978C448.179 118.954 454.13 115.539 459.82 111.766L460.373 112.599C466.132 108.78 471.626 104.595 476.82 100.079L476.164 99.3248C481.338 94.8265 486.213 89.9971 490.756 84.87L491.505 85.5332C496.073 80.3772 500.307 74.922 504.174 69.2008L503.345 68.6409C507.171 62.9804 510.635 57.0582 513.703 50.907L514.598 51.3534C517.66 45.2147 520.331 38.8493 522.578 32.2893L521.632 31.9652C523.836 25.5334 525.63 18.9134 526.984 12.1358L527.964 12.3317C529.3 5.64497 530.209 -1.19412 530.664 -8.15651L529.666 -8.22162C529.887 -11.6192 530 -15.0465 530 -18.5C530 -21.9535 529.887 -25.3808 529.666 -28.7784L530.664 -28.8434C530.209 -35.8058 529.3 -42.6449 527.964 -49.3316L526.984 -49.1358C525.63 -55.9134 523.836 -62.5334 521.632 -68.9651L522.578 -69.2892C520.331 -75.8493 517.66 -82.2147 514.598 -88.3533L513.703 -87.907C510.635 -94.0582 507.171 -99.9804 503.345 -105.641L504.174 -106.201C500.307 -111.922 496.073 -117.377 491.505 -122.533L490.756 -121.87C486.213 -126.997 481.338 -131.826 476.164 -136.325L476.82 -137.079C471.626 -141.595 466.132 -145.78 460.373 -149.599L459.82 -148.766C454.13 -152.539 448.18 -155.954 442 -158.978L442.44 -159.876C436.282 -162.89 429.899 -165.518 423.323 -167.729L423.004 -166.781C416.562 -168.947 409.933 -170.709 403.147 -172.039L403.34 -173.021Z" stroke="#CECECE" stroke-width="2" stroke-dasharray="20 20"/>
<circle r="37.5" transform="matrix(4.37114e-08 -1 -1 -4.37114e-08 568.5 149.5)" fill="#393939"/>
<circle r="37.5" transform="matrix(4.37114e-08 -1 -1 -4.37114e-08 176.5 149.5)" fill="#393939"/>
<circle cx="568.5" cy="490.5" r="37.5" transform="rotate(90 568.5 490.5)" fill="#393939"/>
<circle cx="176.5" cy="490.5" r="37.5" transform="rotate(90 176.5 490.5)" fill="#393939"/>
<path d="M775.293 225.477C768.738 223.519 761.916 222.17 754.895 221.496L754.799 222.492C751.411 222.166 747.975 222 744.5 222C741.025 222 737.589 222.166 734.201 222.492L734.105 221.496C727.084 222.17 720.262 223.519 713.707 225.477L713.993 226.435C707.34 228.422 700.965 231.043 694.938 234.226L694.471 233.341C688.303 236.599 682.496 240.44 677.126 244.79L677.756 245.567C672.406 249.9 667.495 254.744 663.096 260.022L662.328 259.382C657.896 264.701 653.98 270.457 650.655 276.576L651.534 277.053C648.276 283.05 645.593 289.399 643.556 296.026L642.6 295.732C640.589 302.277 639.203 309.091 638.51 316.107L639.505 316.205C639.171 319.592 639 323.026 639 326.5C639 329.974 639.171 333.408 639.505 336.795L638.51 336.893C639.203 343.909 640.589 350.723 642.6 357.268L643.556 356.974C645.593 363.601 648.276 369.95 651.534 375.947L650.655 376.424C653.98 382.543 657.896 388.299 662.328 393.618L663.096 392.978C667.495 398.256 672.406 403.1 677.756 407.433L677.126 408.21C682.496 412.56 688.303 416.401 694.471 419.659L694.938 418.774C700.965 421.957 707.34 424.578 713.993 426.565L713.707 427.523C720.262 429.481 727.084 430.83 734.105 431.504L734.201 430.508C737.589 430.834 741.025 431 744.5 431C747.975 431 751.411 430.834 754.799 430.508L754.895 431.504C761.916 430.83 768.738 429.481 775.293 427.523L775.007 426.565C781.66 424.578 788.035 421.957 794.062 418.774L794.529 419.659C800.697 416.401 806.504 412.56 811.874 408.21L811.244 407.433C816.594 403.1 821.505 398.256 825.904 392.978L826.672 393.618C831.104 388.299 835.02 382.543 838.345 376.424L837.466 375.947C840.724 369.95 843.407 363.601 845.444 356.974L846.4 357.268C848.411 350.723 849.797 343.909 850.49 336.893L849.495 336.795C849.829 333.408 850 329.974 850 326.5C850 323.026 849.829 319.592 849.495 316.205L850.49 316.107C849.797 309.091 848.411 302.277 846.4 295.732L845.444 296.026C843.407 289.399 840.724 283.05 837.466 277.053L838.345 276.576C835.02 270.457 831.104 264.701 826.672 259.382L825.904 260.022C821.505 254.744 816.594 249.9 811.244 245.567L811.874 244.79C806.504 240.44 800.697 236.599 794.529 233.341L794.062 234.226C788.035 231.043 781.66 228.422 775.007 226.435L775.293 225.477Z" stroke="#CECECE" stroke-width="2" stroke-dasharray="20 20"/>
<path d="M31.2931 225.477C24.7378 223.519 17.9159 222.17 10.8946 221.496L10.799 222.492C7.41065 222.166 3.97509 222 0.500009 222C-2.97507 222 -6.41064 222.166 -9.79902 222.492L-9.89454 221.496C-16.9159 222.17 -23.7378 223.519 -30.2931 225.477L-30.0069 226.435C-36.6596 228.422 -43.0352 231.043 -49.0623 234.226L-49.5293 233.341C-55.6974 236.599 -61.5039 240.44 -66.8738 244.79L-66.2443 245.567C-71.5936 249.9 -76.5053 254.744 -80.9038 260.022L-81.672 259.382C-86.1043 264.701 -90.0204 270.457 -93.3445 276.576L-92.4658 277.053C-95.7237 283.05 -98.4073 289.399 -100.444 296.026L-101.4 295.732C-103.411 302.277 -104.797 309.091 -105.49 316.107L-104.495 316.205C-104.829 319.592 -105 323.026 -105 326.5C-105 329.974 -104.829 333.408 -104.495 336.795L-105.49 336.893C-104.797 343.909 -103.411 350.723 -101.4 357.268L-100.444 356.974C-98.4073 363.601 -95.7237 369.95 -92.4658 375.947L-93.3445 376.424C-90.0204 382.543 -86.1043 388.299 -81.672 393.618L-80.9038 392.978C-76.5053 398.256 -71.5936 403.1 -66.2443 407.433L-66.8738 408.21C-61.504 412.56 -55.6974 416.401 -49.5293 419.659L-49.0623 418.774C-43.0352 421.957 -36.6596 424.578 -30.0069 426.565L-30.2931 427.523C-23.7378 429.481 -16.9159 430.83 -9.89455 431.504L-9.79903 430.508C-6.41064 430.834 -2.97508 431 0.5 431C3.97508 431 7.41064 430.834 10.799 430.508L10.8945 431.504C17.9159 430.83 24.7378 429.481 31.2931 427.523L31.0069 426.565C37.6596 424.578 44.0352 421.957 50.0623 418.774L50.5293 419.659C56.6974 416.401 62.504 412.56 67.8738 408.21L67.2443 407.433C72.5936 403.1 77.5053 398.256 81.9038 392.978L82.6721 393.618C87.1043 388.299 91.0204 382.543 94.3445 376.424L93.4658 375.947C96.7237 369.95 99.4073 363.601 101.444 356.974L102.4 357.268C104.411 350.723 105.797 343.909 106.49 336.893L105.495 336.795C105.829 333.408 106 329.974 106 326.5C106 323.026 105.829 319.592 105.495 316.205L106.49 316.107C105.797 309.091 104.411 302.277 102.4 295.732L101.444 296.026C99.4073 289.399 96.7237 283.05 93.4658 277.053L94.3445 276.576C91.0204 270.457 87.1043 264.701 82.672 259.382L81.9038 260.022C77.5053 254.744 72.5936 249.9 67.2443 245.567L67.8738 244.79C62.5039 240.44 56.6974 236.599 50.5293 233.341L50.0623 234.226C44.0352 231.043 37.6596 228.422 31.0069 226.435L31.2931 225.477Z" stroke="#CECECE" stroke-width="2" stroke-dasharray="20 20"/>
<path d="M403.34 497.979C396.649 496.668 389.808 495.776 382.844 495.33L382.78 496.328C379.382 496.11 375.954 496 372.5 496C369.046 496 365.618 496.11 362.22 496.328L362.156 495.33C355.192 495.776 348.351 496.668 341.66 497.979L341.853 498.961C335.067 500.291 328.438 502.053 321.996 504.219L321.677 503.271C315.101 505.482 308.718 508.11 302.56 511.123L303 512.022C296.821 515.046 290.87 518.461 285.18 522.234L284.627 521.401C278.868 525.22 273.374 529.405 268.18 533.921L268.836 534.675C263.662 539.174 258.787 544.003 254.244 549.13L253.495 548.467C248.927 553.623 244.693 559.078 240.826 564.799L241.655 565.359C237.829 571.02 234.365 576.942 231.297 583.093L230.402 582.647C227.34 588.785 224.669 595.151 222.422 601.711L223.368 602.035C221.164 608.467 219.37 615.087 218.016 621.864L217.036 621.668C215.7 628.355 214.791 635.194 214.336 642.156L215.334 642.222C215.113 645.619 215 649.046 215 652.5C215 655.954 215.113 659.381 215.334 662.778L214.336 662.843C214.791 669.806 215.7 676.645 217.036 683.332L218.016 683.136C219.37 689.913 221.164 696.533 223.368 702.965L222.422 703.289C224.669 709.849 227.34 716.215 230.402 722.353L231.297 721.907C234.365 728.058 237.829 733.98 241.655 739.641L240.826 740.201C244.693 745.922 248.927 751.377 253.495 756.533L254.244 755.87C258.787 760.997 263.662 765.826 268.836 770.325L268.18 771.079C273.374 775.595 278.868 779.78 284.627 783.599L285.18 782.766C290.87 786.539 296.82 789.954 303 792.978L302.56 793.876C308.718 796.89 315.101 799.518 321.677 801.729L321.996 800.781C328.438 802.947 335.067 804.709 341.853 806.039L341.66 807.02C348.351 808.332 355.192 809.224 362.156 809.67L362.22 808.672C365.618 808.89 369.046 809 372.5 809C375.954 809 379.382 808.89 382.78 808.672L382.844 809.67C389.808 809.224 396.649 808.332 403.34 807.021L403.147 806.039C409.933 804.709 416.562 802.947 423.004 800.781L423.323 801.729C429.899 799.518 436.282 796.89 442.44 793.877L442 792.978C448.179 789.954 454.13 786.539 459.82 782.766L460.373 783.599C466.132 779.78 471.626 775.595 476.82 771.079L476.164 770.325C481.338 765.826 486.213 760.997 490.756 755.87L491.505 756.533C496.073 751.377 500.307 745.922 504.174 740.201L503.345 739.641C507.171 733.98 510.635 728.058 513.703 721.907L514.598 722.353C517.66 716.215 520.331 709.849 522.578 703.289L521.632 702.965C523.836 696.533 525.63 689.913 526.984 683.136L527.964 683.332C529.3 676.645 530.209 669.806 530.664 662.843L529.666 662.778C529.887 659.381 530 655.954 530 652.5C530 649.046 529.887 645.619 529.666 642.222L530.664 642.157C530.209 635.194 529.3 628.355 527.964 621.668L526.984 621.864C525.63 615.087 523.836 608.467 521.632 602.035L522.578 601.711C520.331 595.151 517.66 588.785 514.598 582.647L513.703 583.093C510.635 576.942 507.171 571.02 503.345 565.359L504.174 564.799C500.307 559.078 496.073 553.623 491.505 548.467L490.756 549.13C486.213 544.003 481.338 539.174 476.164 534.675L476.82 533.921C471.626 529.405 466.132 525.22 460.373 521.401L459.82 522.234C454.13 518.461 448.18 515.046 442 512.022L442.44 511.124C436.282 508.11 429.899 505.482 423.323 503.271L423.004 504.219C416.562 502.053 409.933 500.291 403.147 498.961L403.34 497.979Z" stroke="#CECECE" stroke-width="2" stroke-dasharray="20 20"/>
<ellipse cx="372.5" cy="400.5" rx="36.5" ry="37.5" transform="rotate(90 372.5 400.5)" fill="url(#paint0_linear)"/>
<ellipse cx="372.5" cy="239" rx="36.5" ry="37.5" transform="rotate(90 372.5 239)" fill="url(#paint1_linear)"/>
</g>
<defs>
<linearGradient id="paint0_linear" x1="372.5" y1="363" x2="372.5" y2="438" gradientUnits="userSpaceOnUse">
<stop offset="0.536458" stop-color="#FF5454"/>
<stop offset="1" stop-color="#BA4F4F"/>
</linearGradient>
<linearGradient id="paint1_linear" x1="372.5" y1="201.5" x2="372.5" y2="276.5" gradientUnits="userSpaceOnUse">
<stop offset="0.536458" stop-color="#FF5454"/>
<stop offset="1" stop-color="#BA4F4F"/>
</linearGradient>
<clipPath id="clip0">
<rect width="652" height="744" fill="white" transform="translate(744) rotate(90)"/>
</clipPath>
</defs>
</svg>
