<svg width="526" height="804" viewBox="0 0 526 804" fill="none" xmlns="http://www.w3.org/2000/svg">
<g clip-path="url(#clip0)">
<circle cy="260" r="192" stroke="#CECECE" stroke-width="2" stroke-dasharray="8 8"/>
<circle cx="480" cy="453" r="192" stroke="#CECECE" stroke-width="2" stroke-dasharray="8 8"/>
<circle cx="415" cy="-50" r="192" stroke="#CECECE" stroke-width="2" stroke-dasharray="8 8"/>
<circle cx="70" cy="748" r="192" stroke="#CECECE" stroke-width="2" stroke-dasharray="8 8"/>
<circle cx="194" cy="236" r="28" fill="url(#paint0_linear)"/>
<circle cx="291" cy="481" r="28" fill="url(#paint1_linear)"/>
<circle cx="443" cy="143" r="28" fill="url(#paint2_linear)"/>
<circle cx="291" cy="96" r="28" fill="url(#paint3_linear)"/>
<circle cx="138" cy="124" r="28" fill="url(#paint4_linear)"/>
<circle cx="166" cy="348" r="28" fill="url(#paint5_linear)"/>
<circle cx="250" cy="674" r="28" fill="url(#paint6_linear)"/>
<circle cx="178" cy="590" r="28" fill="url(#paint7_linear)"/>
<circle cx="347" cy="320" r="28" fill="url(#paint8_linear)"/>
<circle cx="75" cy="555" r="28" fill="url(#paint9_linear)"/>
<circle cx="375" cy="618" r="28" fill="url(#paint10_linear)"/>
</g>
<defs>
<linearGradient id="paint0_linear" x1="194" y1="208" x2="194" y2="264" gradientUnits="userSpaceOnUse">
<stop stop-color="#FF5454"/>
<stop offset="1" stop-color="#BA4F4F" stop-opacity="0.74"/>
</linearGradient>
<linearGradient id="paint1_linear" x1="291" y1="453" x2="291" y2="509" gradientUnits="userSpaceOnUse">
<stop stop-color="#FF5454"/>
<stop offset="1" stop-color="#BA4F4F" stop-opacity="0.74"/>
</linearGradient>
<linearGradient id="paint2_linear" x1="443" y1="115" x2="443" y2="171" gradientUnits="userSpaceOnUse">
<stop stop-color="#FF5454"/>
<stop offset="1" stop-color="#BA4F4F" stop-opacity="0.74"/>
</linearGradient>
<linearGradient id="paint3_linear" x1="291" y1="68" x2="291" y2="124" gradientUnits="userSpaceOnUse">
<stop stop-color="#FF5454"/>
<stop offset="1" stop-color="#BA4F4F" stop-opacity="0.74"/>
</linearGradient>
<linearGradient id="paint4_linear" x1="138" y1="96" x2="138" y2="152" gradientUnits="userSpaceOnUse">
<stop stop-color="#FF5454"/>
<stop offset="1" stop-color="#BA4F4F" stop-opacity="0.74"/>
</linearGradient>
<linearGradient id="paint5_linear" x1="166" y1="320" x2="166" y2="376" gradientUnits="userSpaceOnUse">
<stop stop-color="#FF5454"/>
<stop offset="1" stop-color="#BA4F4F" stop-opacity="0.74"/>
</linearGradient>
<linearGradient id="paint6_linear" x1="250" y1="646" x2="250" y2="702" gradientUnits="userSpaceOnUse">
<stop stop-color="#FF5454"/>
<stop offset="1" stop-color="#BA4F4F" stop-opacity="0.74"/>
</linearGradient>
<linearGradient id="paint7_linear" x1="178" y1="562" x2="178" y2="618" gradientUnits="userSpaceOnUse">
<stop stop-color="#FF5454"/>
<stop offset="1" stop-color="#BA4F4F" stop-opacity="0.74"/>
</linearGradient>
<linearGradient id="paint8_linear" x1="347" y1="292" x2="347" y2="348" gradientUnits="userSpaceOnUse">
<stop stop-color="#FF5454"/>
<stop offset="1" stop-color="#BA4F4F" stop-opacity="0.74"/>
</linearGradient>
<linearGradient id="paint9_linear" x1="75" y1="527" x2="75" y2="583" gradientUnits="userSpaceOnUse">
<stop stop-color="#FF5454"/>
<stop offset="1" stop-color="#BA4F4F" stop-opacity="0.74"/>
</linearGradient>
<linearGradient id="paint10_linear" x1="375" y1="590" x2="375" y2="646" gradientUnits="userSpaceOnUse">
<stop stop-color="#FF5454"/>
<stop offset="1" stop-color="#BA4F4F" stop-opacity="0.74"/>
</linearGradient>
<clipPath id="clip0">
<rect width="526" height="804" fill="white"/>
</clipPath>
</defs>
</svg>
