<svg width="500" height="500" viewBox="0 0 500 500" fill="none" xmlns="http://www.w3.org/2000/svg">
<g clip-path="url(#clip0)">
<path d="M110.588 125.005C120.372 125.005 128.304 117.073 128.304 107.288C128.304 97.5038 120.372 89.5719 110.588 89.5719C100.803 89.5719 92.8712 97.5038 92.8712 107.288C92.8712 117.073 100.803 125.005 110.588 125.005Z" fill="white" stroke="white" stroke-width="0.5" stroke-miterlimit="10"/>
<path d="M116.466 106.083H104.921C103.837 106.083 102.797 106.514 102.031 107.28C101.264 108.047 100.834 109.086 100.834 110.17V119.94C103.657 122.14 107.14 123.322 110.719 123.295C114.298 123.269 117.763 122.035 120.553 119.794V110.252C120.564 109.708 120.466 109.168 120.266 108.663C120.065 108.157 119.766 107.697 119.385 107.309C119.004 106.921 118.55 106.612 118.049 106.402C117.548 106.192 117.01 106.083 116.466 106.083V106.083Z" fill="#EB5757"/>
<path d="M110.49 104.308C113.736 104.308 116.368 101.676 116.368 98.43C116.368 95.1835 113.736 92.5516 110.49 92.5516C107.243 92.5516 104.612 95.1835 104.612 98.43C104.612 101.676 107.243 104.308 110.49 104.308Z" fill="#EB5757"/>
<path d="M160.499 429.976C164.059 420.862 159.558 410.588 150.444 407.027C141.33 403.467 131.056 407.968 127.495 417.082C123.935 426.196 128.436 436.47 137.55 440.031C146.664 443.591 156.938 439.09 160.499 429.976Z" fill="white" stroke="white" stroke-width="0.5" stroke-miterlimit="10"/>
<path d="M149.88 422.341H138.318C137.239 422.341 136.203 422.77 135.44 423.533C134.676 424.297 134.247 425.332 134.247 426.412V436.1C137.068 438.298 140.548 439.48 144.124 439.453C147.7 439.427 151.163 438.194 153.95 435.954V426.412C153.95 425.332 153.522 424.297 152.758 423.533C151.995 422.77 150.959 422.341 149.88 422.341Z" fill="#EB5757"/>
<path d="M143.904 420.55C145.066 420.55 146.203 420.205 147.169 419.559C148.136 418.913 148.89 417.995 149.334 416.921C149.779 415.847 149.896 414.665 149.669 413.525C149.442 412.384 148.882 411.337 148.06 410.515C147.238 409.693 146.191 409.133 145.05 408.906C143.91 408.679 142.728 408.796 141.654 409.241C140.58 409.685 139.662 410.439 139.016 411.406C138.37 412.372 138.025 413.509 138.025 414.671C138.025 415.443 138.177 416.208 138.473 416.921C138.768 417.634 139.201 418.282 139.747 418.828C140.293 419.374 140.941 419.807 141.654 420.102C142.367 420.398 143.132 420.55 143.904 420.55V420.55Z" fill="#EB5757"/>
<path d="M375.373 375.373C444.477 306.269 444.477 194.229 375.373 125.124C306.269 56.0201 194.229 56.0201 125.124 125.124C56.0201 194.229 56.0201 306.269 125.124 375.373C194.229 444.477 306.269 444.477 375.373 375.373Z" fill="white"/>
<path opacity="0.18" d="M375.373 375.373C444.477 306.269 444.477 194.229 375.373 125.124C306.269 56.0201 194.229 56.0201 125.124 125.124C56.0201 194.229 56.0201 306.269 125.124 375.373C194.229 444.477 306.269 444.477 375.373 375.373Z" fill="black"/>
<path opacity="0.86" d="M250.251 325.845C212.162 325.842 175.089 313.553 144.539 290.804C113.99 268.054 91.5928 236.058 80.675 199.567C72.8006 225.978 71.2043 253.863 76.0131 281C80.8219 308.138 91.9031 333.777 108.373 355.874C124.844 377.971 146.248 395.916 170.88 408.278C195.512 420.64 222.691 427.077 250.251 427.077C277.811 427.077 304.99 420.64 329.622 408.278C354.255 395.916 375.659 377.971 392.129 355.874C408.599 333.777 419.68 308.138 424.489 281C429.298 253.863 427.702 225.978 419.827 199.567C408.907 236.056 386.51 268.051 355.961 290.8C325.411 313.549 288.34 325.839 250.251 325.845V325.845Z" fill="white"/>
<path d="M243.884 168.335L260.689 175.89L265.297 183.446L272.869 186.393L273.699 194.372L270.768 198.997L264.89 200.25L252.286 195.203V193.574L259.418 190.643L256.894 181.818L245.496 177.616L240.465 170.908L243.884 168.335ZM349.727 362.352L336.293 356.897L319.863 351.019H306.836L294.705 348.495L281.255 351.442L273.699 351.85H269.075L260.265 356.897L251.863 360.252L240.465 353.12L243.396 341.363L236.263 338.416H227.861L226.607 334.638L227.438 327.082L224.507 322.881L218.628 323.712L217 327.913L209.868 328.336L203.566 320.813L200.993 310.701L207.295 298.945L219.475 299.775L222.829 302.722H227.877L234.179 298.945L239.634 300.573L247.19 313.6L250.137 313.193L249.29 303.52L246.782 298.489L247.613 290.51L263.147 283.785L265.248 268.25L271.973 262.795L277.428 253.139L281.629 252.292L291.285 245.991L291.709 242.636L284.983 243.06L283.73 239.689H279.154L272.022 241.317L275.376 235.862L290.031 231.661L293.386 227.883L299.264 237.116L303.058 240.91L308.937 239.282L306.413 233.827L297.587 227.525L287.507 216.127L277.005 208.978L266.925 207.35L261.894 202.318L255.168 200.69L254.338 202.318L253.491 214.499L255.12 218.7L251.472 232.166L243.07 225.441L244.34 219.563L235.514 215.362L231.737 210.753L233.837 200.25L246.017 191.425L246.864 181.345L242.239 181.769L239.292 177.991L238.038 171.689L235.091 171.266L233.463 177.991L228.854 178.838L226.754 164.183L223.383 162.082L217.505 159.558L210.763 162.864L219.149 170.859L220.778 177.991L205.667 166.593L195.164 155.194L194.333 143.796L183.407 140.441L174.94 146.075C172.904 147.311 170.8 148.431 168.638 149.43C165.323 150.22 161.954 150.764 158.559 151.058L156.93 158.207L147.274 158.63L148.121 163.238L163.655 165.762L171.634 174.588V189.243L167.01 202.27L167.856 216.127L156.1 236.709L153.576 267.355L157.354 285.006L162.809 298.44L169.11 299.287L167.01 292.561L163.655 287.514L161.555 278.281L165.333 277.434L171.211 292.561L175.428 306.158V317.084L183.407 326.74L197.737 337.097L219.573 342.975L226.298 349.277L231.329 355.986L238.885 360.61L248.134 363.134L257.367 362.711C257.367 362.711 256.943 366.912 256.943 369.012C256.943 371.113 251.065 378.245 251.065 378.245L246.457 386.647L249.811 395.88L259.044 399.674L272.071 413.108L277.949 415.632V421.917L278.682 424.865C311.352 419.581 341.875 405.208 366.759 383.391L366.987 380.346L378.386 359.763L372.931 355.986L349.727 362.352ZM393.415 196.473L388.791 188.494L382.912 179.245L381.284 166.658L388.839 167.911L389.263 163.71L383.792 163.287L388.416 161.186L393.464 158.255V154.054L388.416 147.329L387.341 138.292C362.922 108.42 329.416 87.3384 291.918 78.2534C254.42 69.1683 214.981 72.5765 179.597 87.9596L189.286 94.815L183.407 102.387L175.428 104.015L174.582 115.414L171.227 116.667L167.026 121.292L167.449 128.847L174.582 129.694L171.683 136.81H178.815L190.995 121.276L192.265 114.567L204.022 113.72L206.953 108.672L219.133 107.418L220.403 100.286L229.213 99.8628C229.213 99.8628 235.514 96.5085 236.784 96.5085C239.209 97.031 241.592 97.7275 243.917 98.5927L250.218 103.641H259.028L266.599 99.0161L276.256 99.8628C277.645 100.766 279.231 101.325 280.88 101.491C282.981 101.491 289.266 98.5439 289.266 98.5439L301.446 106.116L306.494 109.893V116.195L312.796 117.026L314.896 113.248L320.351 115.772L319.928 119.126L307.324 122.497L314.473 131.73L329.584 140.132L335.886 148.534L345.135 149.365L347.235 145.163L350.59 144.333L339.663 135.931L332.889 135.182L338.344 133.553L333.297 126.421L340.445 125.998L349.678 131.029L351.778 141.109L356.403 146.58L360.181 158.76L369.413 165.469V179.326L379.086 185.628L378.662 190.252L377.392 195.707L379.916 203.263L380.763 207.057L387.895 208.311L391.266 201.162L393.415 196.473ZM398.87 154.136V156.546L396.77 163.254L398.023 169.133L402.648 170.761V178.74L397.6 176.639L396.395 199.404L391.363 208.653L394.718 220.409L400.173 225.441V248.124L405.628 265.759L411.522 279.209L421.178 281.717L424.533 273.314L425.901 272.256C426.809 264.958 427.266 257.611 427.268 250.257C427.302 216.152 417.431 182.77 398.854 154.168L398.87 154.136ZM301.837 151.465L274.155 139.285L261.975 139.709L259.028 147.687L253.996 142.232L244.763 144.333L243.917 158.19L251.472 163.645L256.927 155.666L263.229 161.968L276.256 173.366L278.779 185.546L289.689 199.404L307.324 196.473L306.917 190.171L303.14 183.023L302.293 166.234L306.494 159.086L301.837 151.465ZM324.52 160.714L318.218 159.086L312.763 163.71L315.694 175.89H321.165L324.52 160.714ZM363.6 168.693L349.303 161.235L346.356 156.204L343.002 157.457L345.933 165.86L348.456 176.786L354.758 179.294L356.012 177.665L352.234 171.364L363.16 175.565L363.6 168.693ZM240.969 320.292L239.341 321.921L251.944 325.698L256.976 331.577L264.971 332.423L267.902 327.799L258.246 326.171L240.969 320.292ZM278.421 328.271L269.596 330.795L270.866 334.149H281.776L283.876 330.795L280.098 331.218L278.421 328.271Z" fill="#393939"/>
<path opacity="0.65" d="M250.251 325.845C212.162 325.842 175.089 313.553 144.539 290.804C113.99 268.054 91.5928 236.058 80.675 199.567C72.8006 225.978 71.2043 253.863 76.0131 281C80.8219 308.138 91.9031 333.777 108.373 355.874C124.844 377.971 146.248 395.916 170.88 408.278C195.512 420.64 222.691 427.077 250.251 427.077C277.811 427.077 304.99 420.64 329.622 408.278C354.255 395.916 375.659 377.971 392.129 355.874C408.599 333.777 419.68 308.138 424.489 281C429.298 253.863 427.702 225.978 419.827 199.567C408.907 236.056 386.51 268.051 355.961 290.8C325.411 313.549 288.34 325.839 250.251 325.845V325.845Z" fill="white"/>
<path d="M243.884 168.335L260.689 175.89L265.297 183.446L272.869 186.393L273.699 194.372L270.768 198.997L264.89 200.25L252.286 195.203V193.574L259.418 190.643L256.894 181.818L245.496 177.616L240.465 170.908L243.884 168.335ZM349.727 362.352L336.293 356.897L319.863 351.019H306.836L294.705 348.495L281.255 351.442L273.699 351.85H269.075L260.265 356.897L251.863 360.252L240.465 353.12L243.396 341.363L236.263 338.416H227.861L226.607 334.638L227.438 327.082L224.507 322.881L218.628 323.712L217 327.913L209.868 328.336L203.566 320.813L200.993 310.701L207.295 298.945L219.475 299.775L222.829 302.722H227.877L234.179 298.945L239.634 300.573L247.19 313.6L250.137 313.193L249.29 303.52L246.782 298.489L247.613 290.51L263.147 283.785L265.248 268.25L271.973 262.795L277.428 253.139L281.629 252.292L291.285 245.991L291.709 242.636L284.983 243.06L283.73 239.689H279.154L272.022 241.317L275.376 235.862L290.031 231.661L293.386 227.883L299.264 237.116L303.058 240.91L308.937 239.282L306.413 233.827L297.587 227.525L287.507 216.127L277.005 208.978L266.925 207.35L261.894 202.318L255.168 200.69L254.338 202.318L253.491 214.499L255.12 218.7L251.472 232.166L243.07 225.441L244.34 219.563L235.514 215.362L231.737 210.753L233.837 200.25L246.017 191.425L246.864 181.345L242.239 181.769L239.292 177.991L238.038 171.689L235.091 171.266L233.463 177.991L228.854 178.838L226.754 164.183L223.383 162.082L217.505 159.558L210.763 162.864L219.149 170.859L220.778 177.991L205.667 166.593L195.164 155.194L194.333 143.796L183.407 140.441L174.94 146.075C172.904 147.311 170.8 148.431 168.638 149.43C165.323 150.22 161.954 150.764 158.559 151.058L156.93 158.207L147.274 158.63L148.121 163.238L163.655 165.762L171.634 174.588V189.243L167.01 202.27L167.856 216.127L156.1 236.709L153.576 267.355L157.354 285.006L162.809 298.44L169.11 299.287L167.01 292.561L163.655 287.514L161.555 278.281L165.333 277.434L171.211 292.561L175.428 306.158V317.084L183.407 326.74L197.737 337.097L219.573 342.975L226.298 349.277L231.329 355.986L238.885 360.61L248.134 363.134L257.367 362.711C257.367 362.711 256.943 366.912 256.943 369.012C256.943 371.113 251.065 378.245 251.065 378.245L246.457 386.647L249.811 395.88L259.044 399.674L272.071 413.108L277.949 415.632V421.917L278.682 424.865C311.352 419.581 341.875 405.208 366.759 383.391L366.987 380.346L378.386 359.763L372.931 355.986L349.727 362.352ZM393.415 196.473L388.791 188.494L382.912 179.245L381.284 166.658L388.839 167.911L389.263 163.71L383.792 163.287L388.416 161.186L393.464 158.255V154.054L388.416 147.329L387.341 138.292C362.922 108.42 329.416 87.3384 291.918 78.2534C254.42 69.1683 214.981 72.5765 179.597 87.9596L189.286 94.815L183.407 102.387L175.428 104.015L174.582 115.414L171.227 116.667L167.026 121.292L167.449 128.847L174.582 129.694L171.683 136.81H178.815L190.995 121.276L192.265 114.567L204.022 113.72L206.953 108.672L219.133 107.418L220.403 100.286L229.213 99.8628C229.213 99.8628 235.514 96.5085 236.784 96.5085C239.209 97.031 241.592 97.7275 243.917 98.5927L250.218 103.641H259.028L266.599 99.0161L276.256 99.8628C277.645 100.766 279.231 101.325 280.88 101.491C282.981 101.491 289.266 98.5439 289.266 98.5439L301.446 106.116L306.494 109.893V116.195L312.796 117.026L314.896 113.248L320.351 115.772L319.928 119.126L307.324 122.497L314.473 131.73L329.584 140.132L335.886 148.534L345.135 149.365L347.235 145.163L350.59 144.333L339.663 135.931L332.889 135.182L338.344 133.553L333.297 126.421L340.445 125.998L349.678 131.029L351.778 141.109L356.403 146.58L360.181 158.76L369.413 165.469V179.326L379.086 185.628L378.662 190.252L377.392 195.707L379.916 203.263L380.763 207.057L387.895 208.311L391.266 201.162L393.415 196.473ZM398.87 154.136V156.546L396.77 163.254L398.023 169.133L402.648 170.761V178.74L397.6 176.639L396.395 199.404L391.363 208.653L394.718 220.409L400.173 225.441V248.124L405.628 265.759L411.522 279.209L421.178 281.717L424.533 273.314L425.901 272.256C426.809 264.958 427.266 257.611 427.268 250.257C427.302 216.152 417.431 182.77 398.854 154.168L398.87 154.136ZM301.837 151.465L274.155 139.285L261.975 139.709L259.028 147.687L253.996 142.232L244.763 144.333L243.917 158.19L251.472 163.645L256.927 155.666L263.229 161.968L276.256 173.366L278.779 185.546L289.689 199.404L307.324 196.473L306.917 190.171L303.14 183.023L302.293 166.234L306.494 159.086L301.837 151.465ZM324.52 160.714L318.218 159.086L312.763 163.71L315.694 175.89H321.165L324.52 160.714ZM363.6 168.693L349.303 161.235L346.356 156.204L343.002 157.457L345.933 165.86L348.456 176.786L354.758 179.294L356.012 177.665L352.234 171.364L363.16 175.565L363.6 168.693ZM240.969 320.292L239.341 321.921L251.944 325.698L256.976 331.577L264.971 332.423L267.902 327.799L258.246 326.171L240.969 320.292ZM278.421 328.271L269.596 330.795L270.866 334.149H281.776L283.876 330.795L280.098 331.218L278.421 328.271Z" stroke="#263238" stroke-miterlimit="10"/>
<path d="M375.373 375.373C444.477 306.269 444.477 194.229 375.373 125.124C306.269 56.0201 194.229 56.0201 125.124 125.124C56.0201 194.229 56.0201 306.269 125.124 375.373C194.229 444.477 306.269 444.477 375.373 375.373Z" stroke="#263238" stroke-miterlimit="10"/>
<path d="M471.926 178.037C481.583 176.464 488.137 167.36 486.564 157.703C484.991 148.045 475.887 141.492 466.23 143.064C456.573 144.637 450.019 153.741 451.592 163.398C453.165 173.056 462.268 179.609 471.926 178.037Z" fill="white" stroke="white" stroke-width="0.5" stroke-miterlimit="10"/>
<path d="M474.947 159.363H463.385C462.849 159.363 462.319 159.469 461.824 159.674C461.329 159.88 460.879 160.181 460.501 160.561C460.123 160.941 459.823 161.391 459.62 161.887C459.416 162.383 459.312 162.914 459.314 163.45V173.139C462.135 175.337 465.615 176.518 469.191 176.492C472.767 176.465 476.23 175.232 479.017 172.992V163.45C479.02 162.914 478.916 162.383 478.712 161.887C478.509 161.391 478.209 160.941 477.831 160.561C477.453 160.181 477.003 159.88 476.508 159.674C476.013 159.469 475.483 159.363 474.947 159.363V159.363Z" fill="#EB5757"/>
<path d="M468.97 157.572C470.133 157.572 471.27 157.227 472.236 156.581C473.203 155.935 473.956 155.017 474.401 153.943C474.846 152.869 474.963 151.687 474.736 150.546C474.509 149.406 473.949 148.359 473.127 147.537C472.305 146.715 471.257 146.155 470.117 145.928C468.977 145.701 467.795 145.817 466.721 146.262C465.647 146.707 464.729 147.461 464.083 148.427C463.437 149.394 463.092 150.531 463.092 151.693C463.092 152.465 463.244 153.23 463.54 153.943C463.835 154.656 464.268 155.304 464.814 155.85C465.36 156.396 466.008 156.829 466.721 157.124C467.434 157.42 468.198 157.572 468.97 157.572V157.572Z" fill="#EB5757"/>
<path d="M344.223 107.174C354.007 107.174 361.939 99.2425 361.939 89.458C361.939 79.6735 354.007 71.7416 344.223 71.7416C334.438 71.7416 326.506 79.6735 326.506 89.458C326.506 99.2425 334.438 107.174 344.223 107.174Z" fill="white" stroke="white" stroke-width="0.5" stroke-miterlimit="10"/>
<path d="M350.085 88.2528H338.54C337.467 88.2699 336.444 88.7081 335.692 89.4727C334.939 90.2374 334.518 91.2672 334.518 92.34V102.11C337.341 104.31 340.824 105.492 344.403 105.465C347.982 105.438 351.447 104.205 354.237 101.964V92.34C354.237 91.7977 354.129 91.2609 353.92 90.7607C353.71 90.2605 353.404 89.8071 353.017 89.4267C352.631 89.0463 352.172 88.7466 351.669 88.5451C351.166 88.3435 350.627 88.2442 350.085 88.2528V88.2528Z" fill="#EB5757"/>
<path d="M344.109 86.4616C347.355 86.4616 349.987 83.8298 349.987 80.5833C349.987 77.3368 347.355 74.705 344.109 74.705C340.862 74.705 338.231 77.3368 338.231 80.5833C338.231 83.8298 340.862 86.4616 344.109 86.4616Z" fill="#EB5757"/>
<path d="M26.5615 214.692C36.2188 213.119 42.7725 204.015 41.1997 194.358C39.627 184.7 30.5232 178.147 20.8659 179.719C11.2086 181.292 4.65488 190.396 6.22766 200.053C7.80045 209.711 16.9042 216.264 26.5615 214.692Z" fill="white" stroke="white" stroke-width="0.5" stroke-miterlimit="10"/>
<path d="M29.5936 196H18.0323C17.4964 196 16.9657 196.106 16.4707 196.312C15.9757 196.518 15.5262 196.819 15.148 197.199C14.7698 197.578 14.4703 198.029 14.2666 198.525C14.063 199.021 13.9593 199.552 13.9615 200.088V209.776C16.7822 211.974 20.2624 213.156 23.8384 213.129C27.4144 213.103 30.8767 211.87 33.6645 209.63V200.088C33.6666 199.552 33.5629 199.021 33.3593 198.525C33.1556 198.029 32.8561 197.578 32.4779 197.199C32.0997 196.819 31.6502 196.518 31.1552 196.312C30.6602 196.106 30.1296 196 29.5936 196V196Z" fill="#EB5757"/>
<path d="M23.6177 194.21C24.7803 194.21 25.9169 193.865 26.8835 193.219C27.8502 192.573 28.6037 191.655 29.0486 190.581C29.4935 189.507 29.6099 188.325 29.3831 187.184C29.1563 186.044 28.5964 184.997 27.7743 184.175C26.9522 183.353 25.9048 182.793 24.7645 182.566C23.6242 182.339 22.4423 182.455 21.3682 182.9C20.2941 183.345 19.376 184.099 18.7301 185.065C18.0841 186.032 17.7394 187.169 17.7394 188.331C17.7394 189.89 18.3587 191.385 19.4611 192.488C20.5635 193.59 22.0587 194.21 23.6177 194.21Z" fill="#EB5757"/>
<path d="M37.9762 326.224C47.6334 324.651 54.1872 315.547 52.6144 305.89C51.0416 296.233 41.9379 289.679 32.2806 291.252C22.6233 292.824 16.0695 301.928 17.6423 311.585C19.2151 321.243 28.3189 327.796 37.9762 326.224Z" fill="white" stroke="white" stroke-width="0.5" stroke-miterlimit="10"/>
<path d="M40.992 307.542H29.4308C28.8948 307.542 28.3641 307.648 27.8691 307.854C27.3742 308.06 26.9247 308.361 26.5465 308.741C26.1682 309.12 25.8687 309.571 25.6651 310.067C25.4615 310.563 25.3578 311.094 25.3599 311.63V321.318C28.1806 323.516 31.6609 324.698 35.2369 324.671C38.8129 324.645 42.2752 323.412 45.0629 321.172V311.63C45.0651 311.094 44.9613 310.563 44.7577 310.067C44.5541 309.571 44.2546 309.12 43.8763 308.741C43.4981 308.361 43.0486 308.06 42.5536 307.854C42.0587 307.648 41.528 307.542 40.992 307.542V307.542Z" fill="#EB5757"/>
<path d="M35.016 305.751C36.1787 305.751 37.3152 305.407 38.2819 304.761C39.2485 304.115 40.002 303.197 40.4469 302.123C40.8918 301.048 41.0082 299.866 40.7814 298.726C40.5546 297.586 39.9947 296.538 39.1726 295.716C38.3505 294.894 37.3031 294.334 36.1628 294.108C35.0226 293.881 33.8406 293.997 32.7665 294.442C31.6924 294.887 30.7743 295.64 30.1284 296.607C29.4825 297.574 29.1377 298.71 29.1377 299.873C29.1377 301.432 29.757 302.927 30.8594 304.03C31.9618 305.132 33.457 305.751 35.016 305.751V305.751Z" fill="#EB5757"/>
<path d="M123.849 225.661C127.433 216.557 122.958 206.271 113.854 202.686C104.75 199.102 94.4636 203.576 90.8791 212.681C87.2947 221.785 91.7694 232.071 100.874 235.656C109.978 239.24 120.264 234.765 123.849 225.661Z" fill="white" stroke="white" stroke-width="0.5" stroke-miterlimit="10"/>
<path d="M113.242 217.983H101.664C100.584 217.983 99.549 218.412 98.7856 219.175C98.0222 219.939 97.5933 220.974 97.5933 222.054V231.824C100.414 234.022 103.894 235.204 107.47 235.177C111.046 235.151 114.509 233.917 117.296 231.678V222.135C117.307 221.595 117.21 221.059 117.012 220.556C116.813 220.054 116.516 219.596 116.139 219.21C115.761 218.823 115.311 218.516 114.814 218.305C114.316 218.095 113.782 217.985 113.242 217.983V217.983Z" fill="#EB5757"/>
<path d="M107.266 216.192C108.429 216.192 109.565 215.847 110.532 215.202C111.498 214.556 112.252 213.638 112.697 212.563C113.142 211.489 113.258 210.307 113.031 209.167C112.804 208.027 112.245 206.979 111.423 206.157C110.6 205.335 109.553 204.775 108.413 204.549C107.272 204.322 106.09 204.438 105.016 204.883C103.942 205.328 103.024 206.081 102.378 207.048C101.732 208.015 101.388 209.151 101.388 210.314C101.388 211.086 101.54 211.85 101.835 212.563C102.13 213.277 102.563 213.925 103.109 214.47C103.655 215.016 104.303 215.449 105.016 215.745C105.73 216.04 106.494 216.192 107.266 216.192Z" fill="#EB5757"/>
<path d="M224.23 410.714C234.014 410.714 241.946 402.782 241.946 392.998C241.946 383.213 234.014 375.281 224.23 375.281C214.445 375.281 206.514 383.213 206.514 392.998C206.514 402.782 214.445 410.714 224.23 410.714Z" fill="white" stroke="white" stroke-width="0.5" stroke-miterlimit="10"/>
<path d="M230.108 391.809H218.563C217.479 391.809 216.44 392.24 215.673 393.006C214.907 393.773 214.476 394.812 214.476 395.896V405.585C217.299 407.785 220.783 408.967 224.361 408.94C227.94 408.914 231.405 407.68 234.195 405.439V395.896C234.195 394.812 233.765 393.773 232.998 393.006C232.232 392.24 231.192 391.809 230.108 391.809Z" fill="#EB5757"/>
<path d="M224.132 390.018C227.379 390.018 230.011 387.386 230.011 384.14C230.011 380.893 227.379 378.262 224.132 378.262C220.886 378.262 218.254 380.893 218.254 384.14C218.254 387.386 220.886 390.018 224.132 390.018Z" fill="#EB5757"/>
<path d="M351.615 444.78C361.4 444.78 369.332 436.848 369.332 427.063C369.332 417.279 361.4 409.347 351.615 409.347C341.831 409.347 333.899 417.279 333.899 427.063C333.899 436.848 341.831 444.78 351.615 444.78Z" fill="white" stroke="white" stroke-width="0.5" stroke-miterlimit="10"/>
<path d="M357.478 425.874H345.916C344.835 425.874 343.798 426.303 343.032 427.066C342.266 427.829 341.833 428.864 341.829 429.945V439.715C344.652 441.915 348.135 443.097 351.714 443.07C355.293 443.044 358.758 441.81 361.548 439.569V429.913C361.54 428.839 361.107 427.812 360.345 427.055C359.582 426.299 358.552 425.874 357.478 425.874V425.874Z" fill="#EB5757"/>
<path d="M351.502 424.083C354.748 424.083 357.38 421.451 357.38 418.205C357.38 414.958 354.748 412.326 351.502 412.326C348.255 412.326 345.623 414.958 345.623 418.205C345.623 421.451 348.255 424.083 351.502 424.083Z" fill="#EB5757"/>
<path d="M457.812 331.123C461.188 321.939 456.479 311.758 447.295 308.382C438.111 305.007 427.93 309.716 424.555 318.9C421.179 328.084 425.888 338.265 435.072 341.64C444.256 345.016 454.437 340.307 457.812 331.123Z" fill="white" stroke="white" stroke-width="0.5" stroke-miterlimit="10"/>
<path d="M447.053 323.826H435.475C434.396 323.826 433.36 324.255 432.597 325.018C431.833 325.782 431.405 326.817 431.405 327.897V337.667C434.225 339.865 437.706 341.046 441.282 341.02C444.858 340.993 448.32 339.76 451.108 337.52V327.978C451.118 327.438 451.022 326.901 450.823 326.399C450.624 325.897 450.327 325.439 449.95 325.053C449.573 324.666 449.122 324.359 448.625 324.148C448.127 323.937 447.593 323.828 447.053 323.826V323.826Z" fill="#EB5757"/>
<path d="M441.077 322.035C442.24 322.035 443.376 321.69 444.343 321.044C445.31 320.398 446.063 319.48 446.508 318.406C446.953 317.332 447.069 316.15 446.842 315.009C446.616 313.869 446.056 312.822 445.234 312C444.412 311.178 443.364 310.618 442.224 310.391C441.084 310.164 439.902 310.281 438.828 310.725C437.753 311.17 436.835 311.924 436.189 312.89C435.543 313.857 435.199 314.994 435.199 316.156C435.199 317.715 435.818 319.211 436.921 320.313C438.023 321.415 439.518 322.035 441.077 322.035Z" fill="#EB5757"/>
<path d="M405.937 165.534C430.949 185.807 445.783 211.128 445.783 238.452C445.783 305.214 357.575 359.373 248.753 359.373C139.93 359.373 51.7228 305.23 51.7228 238.452C51.7228 209.239 68.6087 182.453 96.714 161.545" stroke="white" stroke-width="0.5" stroke-miterlimit="10"/>
<path d="M135.859 115.234C153.592 86.1685 178.522 66.7911 208.06 62.476C277.461 52.478 346.03 130.004 361.239 235.634C376.448 341.265 332.531 434.993 263.147 444.991C231.557 449.534 200.13 435.954 173.833 409.835" stroke="white" stroke-width="0.5" stroke-miterlimit="10"/>
<path d="M402.329 371.509C425.39 333.758 368.39 256.915 275.015 199.873C181.64 142.832 87.2495 127.194 64.1884 164.945C41.1273 202.696 98.1278 279.539 191.503 336.58C284.878 393.621 379.268 409.26 402.329 371.509Z" stroke="white" stroke-width="0.5" stroke-miterlimit="10"/>
<path d="M289.52 327.709C385.343 269.173 444.329 191.117 421.268 153.366C398.206 115.615 301.832 132.466 206.009 191.002C110.185 249.539 51.2002 327.595 74.2614 365.346C97.3225 403.096 193.697 386.246 289.52 327.709Z" stroke="white" stroke-width="0.5" stroke-miterlimit="10"/>
<path d="M331.375 138.439C331.375 137.794 331.184 137.165 330.826 136.629C330.469 136.094 329.96 135.676 329.365 135.43C328.77 135.183 328.115 135.119 327.483 135.244C326.851 135.37 326.271 135.68 325.816 136.136C325.36 136.591 325.05 137.171 324.924 137.803C324.799 138.435 324.863 139.09 325.11 139.685C325.356 140.28 325.774 140.789 326.309 141.146C326.845 141.504 327.474 141.695 328.119 141.695C328.982 141.695 329.811 141.352 330.421 140.741C331.032 140.131 331.375 139.302 331.375 138.439Z" fill="white" stroke="white" stroke-width="0.5" stroke-miterlimit="10"/>
<path d="M367.199 271.751C367.199 271.107 367.008 270.478 366.65 269.942C366.292 269.406 365.784 268.989 365.189 268.743C364.593 268.496 363.939 268.432 363.307 268.557C362.675 268.683 362.095 268.993 361.639 269.448C361.184 269.904 360.874 270.484 360.748 271.116C360.622 271.748 360.687 272.403 360.933 272.998C361.18 273.593 361.597 274.101 362.133 274.459C362.668 274.817 363.298 275.008 363.942 275.008C364.806 275.008 365.634 274.665 366.245 274.054C366.856 273.443 367.199 272.615 367.199 271.751Z" fill="white" stroke="white" stroke-width="0.5" stroke-miterlimit="10"/>
<path d="M360.034 339.474C360.034 338.83 359.843 338.2 359.485 337.665C359.127 337.129 358.619 336.712 358.024 336.465C357.429 336.219 356.774 336.154 356.142 336.28C355.51 336.406 354.93 336.716 354.475 337.171C354.019 337.627 353.709 338.207 353.583 338.839C353.458 339.471 353.522 340.125 353.769 340.721C354.015 341.316 354.433 341.824 354.968 342.182C355.504 342.54 356.133 342.731 356.777 342.731C357.641 342.731 358.47 342.388 359.08 341.777C359.691 341.166 360.034 340.338 360.034 339.474Z" fill="white" stroke="white" stroke-width="0.5" stroke-miterlimit="10"/>
<path d="M339.256 391.06C339.256 390.416 339.065 389.787 338.707 389.251C338.35 388.715 337.841 388.298 337.246 388.051C336.651 387.805 335.996 387.741 335.364 387.866C334.733 387.992 334.152 388.302 333.697 388.757C333.241 389.213 332.931 389.793 332.805 390.425C332.68 391.057 332.744 391.711 332.991 392.307C333.237 392.902 333.655 393.41 334.19 393.768C334.726 394.126 335.356 394.317 336 394.317C336.863 394.317 337.692 393.974 338.302 393.363C338.913 392.752 339.256 391.924 339.256 391.06Z" fill="white" stroke="white" stroke-width="0.5" stroke-miterlimit="10"/>
<path d="M401.28 317.557C401.28 316.913 401.089 316.283 400.731 315.748C400.373 315.212 399.865 314.795 399.27 314.548C398.675 314.302 398.02 314.237 397.388 314.363C396.756 314.488 396.176 314.799 395.721 315.254C395.265 315.709 394.955 316.29 394.829 316.922C394.704 317.553 394.768 318.208 395.015 318.803C395.261 319.398 395.679 319.907 396.214 320.265C396.75 320.623 397.379 320.814 398.023 320.814C398.887 320.814 399.716 320.47 400.326 319.86C400.937 319.249 401.28 318.421 401.28 317.557Z" fill="white" stroke="white" stroke-width="0.5" stroke-miterlimit="10"/>
<path d="M233.919 358.461C233.919 357.817 233.728 357.187 233.37 356.651C233.012 356.116 232.503 355.699 231.908 355.452C231.313 355.206 230.658 355.141 230.027 355.267C229.395 355.392 228.814 355.703 228.359 356.158C227.904 356.613 227.593 357.194 227.468 357.825C227.342 358.457 227.407 359.112 227.653 359.707C227.9 360.302 228.317 360.811 228.853 361.169C229.388 361.526 230.018 361.717 230.662 361.717C231.526 361.717 232.354 361.374 232.965 360.764C233.575 360.153 233.919 359.325 233.919 358.461Z" fill="white" stroke="white" stroke-width="0.5" stroke-miterlimit="10"/>
<path d="M85.5924 304.367C85.5924 303.723 85.4014 303.093 85.0435 302.558C84.6857 302.022 84.1771 301.605 83.582 301.358C82.9869 301.112 82.3321 301.047 81.7003 301.173C81.0686 301.298 80.4883 301.609 80.0329 302.064C79.5774 302.52 79.2672 303.1 79.1416 303.732C79.0159 304.363 79.0804 305.018 79.3269 305.613C79.5734 306.208 79.9908 306.717 80.5264 307.075C81.0619 307.433 81.6916 307.624 82.3357 307.624C83.1994 307.624 84.0278 307.28 84.6385 306.67C85.2493 306.059 85.5924 305.231 85.5924 304.367Z" fill="white" stroke="white" stroke-width="0.5" stroke-miterlimit="10"/>
<path d="M110.669 270.677C110.669 270.033 110.478 269.403 110.12 268.867C109.762 268.332 109.254 267.914 108.659 267.668C108.064 267.421 107.409 267.357 106.777 267.482C106.145 267.608 105.565 267.918 105.109 268.374C104.654 268.829 104.344 269.41 104.218 270.041C104.093 270.673 104.157 271.328 104.404 271.923C104.65 272.518 105.067 273.027 105.603 273.384C106.139 273.742 106.768 273.933 107.412 273.933C108.276 273.933 109.104 273.59 109.715 272.979C110.326 272.369 110.669 271.54 110.669 270.677Z" fill="white" stroke="white" stroke-width="0.5" stroke-miterlimit="10"/>
<path d="M234.277 176.46C234.277 175.816 234.086 175.187 233.728 174.651C233.37 174.116 232.862 173.698 232.267 173.452C231.671 173.205 231.017 173.141 230.385 173.266C229.753 173.392 229.173 173.702 228.717 174.158C228.262 174.613 227.952 175.193 227.826 175.825C227.7 176.457 227.765 177.112 228.011 177.707C228.258 178.302 228.675 178.81 229.211 179.168C229.746 179.526 230.376 179.717 231.02 179.717C231.884 179.717 232.712 179.374 233.323 178.763C233.934 178.153 234.277 177.324 234.277 176.46Z" fill="white" stroke="white" stroke-width="0.5" stroke-miterlimit="10"/>
<path d="M427.741 184.7C427.741 184.056 427.55 183.426 427.192 182.89C426.834 182.355 426.325 181.938 425.73 181.691C425.135 181.445 424.48 181.38 423.849 181.506C423.217 181.631 422.637 181.942 422.181 182.397C421.726 182.852 421.416 183.433 421.29 184.064C421.164 184.696 421.229 185.351 421.475 185.946C421.722 186.541 422.139 187.05 422.675 187.408C423.21 187.766 423.84 187.957 424.484 187.957C425.348 187.957 426.176 187.613 426.787 187.003C427.398 186.392 427.741 185.564 427.741 184.7Z" fill="white" stroke="white" stroke-width="0.5" stroke-miterlimit="10"/>
<path d="M65.1729 200.462C65.1729 199.818 64.9819 199.189 64.6241 198.653C64.2662 198.117 63.7576 197.7 63.1625 197.453C62.5674 197.207 61.9126 197.142 61.2809 197.268C60.6491 197.394 60.0689 197.704 59.6134 198.159C59.1579 198.615 58.8478 199.195 58.7221 199.827C58.5965 200.459 58.661 201.113 58.9075 201.709C59.1539 202.304 59.5714 202.812 60.1069 203.17C60.6425 203.528 61.2721 203.719 61.9162 203.719C62.78 203.719 63.6083 203.376 64.2191 202.765C64.8298 202.154 65.1729 201.326 65.1729 200.462Z" fill="white" stroke="white" stroke-width="0.5" stroke-miterlimit="10"/>
<path d="M427.708 183.413L453.306 169.638" stroke="white" stroke-width="0.5" stroke-miterlimit="10"/>
<path d="M58.7247 200.462L41.4316 197.206" stroke="white" stroke-width="0.5" stroke-miterlimit="10"/>
<path d="M107.445 267.452V236.888" stroke="white" stroke-width="0.5" stroke-miterlimit="10"/>
<path d="M79.1442 304.367L52.8301 308.747" stroke="white" stroke-width="0.5" stroke-miterlimit="10"/>
<path d="M229.962 361.636L227.552 375.803" stroke="white" stroke-width="0.5" stroke-miterlimit="10"/>
<path d="M337.254 394.17L344.793 410.584" stroke="white" stroke-width="0.5" stroke-miterlimit="10"/>
<path d="M401.231 317.622L423.116 322.312" stroke="white" stroke-width="0.5" stroke-miterlimit="10"/>
<path d="M354.205 337.113L332.955 316.661" stroke="white" stroke-width="0.5" stroke-miterlimit="10"/>
<path d="M329.454 135.54L339.142 106.735" stroke="white" stroke-width="0.5" stroke-miterlimit="10"/>
<path d="M123.451 120.445L127.555 123.523" stroke="white" stroke-width="0.5" stroke-miterlimit="10"/>
<path d="M154.748 409.249L159.357 403.094" stroke="white" stroke-width="0.5" stroke-miterlimit="10"/>
<path d="M336.447 310.898C339.896 301.741 335.269 291.522 326.113 288.073C316.956 284.624 306.738 289.251 303.289 298.408C299.84 307.564 304.466 317.783 313.623 321.232C322.779 324.681 332.998 320.054 336.447 310.898Z" fill="white" stroke="white" stroke-width="0.5" stroke-miterlimit="10"/>
<path d="M325.741 303.471H314.18C313.1 303.471 312.065 303.9 311.301 304.664C310.538 305.427 310.109 306.463 310.109 307.542V317.312C312.93 319.511 316.41 320.692 319.986 320.665C323.562 320.639 327.024 319.406 329.812 317.166V307.624C329.823 307.082 329.725 306.544 329.526 306.041C329.326 305.538 329.028 305.079 328.649 304.692C328.27 304.306 327.817 303.999 327.318 303.789C326.819 303.579 326.282 303.471 325.741 303.471V303.471Z" fill="#EB5757"/>
<path d="M319.765 301.68C320.928 301.68 322.064 301.336 323.031 300.69C323.998 300.044 324.751 299.126 325.196 298.052C325.641 296.978 325.757 295.796 325.53 294.655C325.304 293.515 324.744 292.468 323.922 291.646C323.1 290.823 322.052 290.264 320.912 290.037C319.772 289.81 318.59 289.926 317.516 290.371C316.441 290.816 315.523 291.57 314.877 292.536C314.231 293.503 313.887 294.64 313.887 295.802C313.887 297.361 314.506 298.856 315.608 299.959C316.711 301.061 318.206 301.68 319.765 301.68V301.68Z" fill="#EB5757"/>
<path d="M376.371 227.02C379.796 217.854 375.142 207.648 365.977 204.223C356.811 200.798 346.605 205.451 343.18 214.617C339.755 223.782 344.408 233.989 353.574 237.414C362.739 240.839 372.946 236.185 376.371 227.02Z" fill="white" stroke="white" stroke-width="0.5" stroke-miterlimit="10"/>
<path d="M365.635 219.612H354.058C352.978 219.612 351.943 220.04 351.179 220.804C350.416 221.567 349.987 222.603 349.987 223.682V233.453C352.808 235.651 356.288 236.832 359.864 236.806C363.44 236.779 366.902 235.546 369.69 233.306V223.764C369.701 223.224 369.604 222.687 369.405 222.185C369.207 221.682 368.91 221.225 368.533 220.838C368.155 220.452 367.705 220.144 367.207 219.934C366.71 219.723 366.176 219.614 365.635 219.612V219.612Z" fill="#EB5757"/>
<path d="M359.66 217.821C360.822 217.821 361.959 217.476 362.925 216.83C363.892 216.184 364.646 215.266 365.09 214.192C365.535 213.118 365.652 211.936 365.425 210.796C365.198 209.655 364.638 208.608 363.816 207.786C362.994 206.964 361.947 206.404 360.806 206.177C359.666 205.95 358.484 206.067 357.41 206.511C356.336 206.956 355.418 207.71 354.772 208.676C354.126 209.643 353.781 210.78 353.781 211.942C353.781 213.501 354.401 214.997 355.503 216.099C356.605 217.201 358.101 217.821 359.66 217.821Z" fill="#EB5757"/>
</g>
<defs>
<clipPath id="clip0">
<rect width="500" height="500" fill="white"/>
</clipPath>
</defs>
</svg>
