<svg xmlns="http://www.w3.org/2000/svg" viewBox="0 0 500 500"><g id="freepik--Data-points--inject-145"><path d="M332.85,73.42H303.77a3.19,3.19,0,0,0-3.19,3.19V88.75a3.19,3.19,0,0,0,3.19,3.19h25.75L336,99.53V76.61A3.18,3.18,0,0,0,332.85,73.42Z" style="fill:#263238"></path><line x1="307.36" y1="78.61" x2="328.7" y2="78.61" style="fill:none;stroke:#fff;stroke-miterlimit:10"></line><line x1="307.36" y1="82.51" x2="328.7" y2="82.51" style="fill:none;stroke:#fff;stroke-miterlimit:10"></line><line x1="307.36" y1="86.41" x2="328.7" y2="86.41" style="fill:none;stroke:#fff;stroke-miterlimit:10"></line><path d="M447.19,202.41h29.07a3.19,3.19,0,0,1,3.19,3.19v12.14a3.19,3.19,0,0,1-3.19,3.19H450.51L444,228.52V205.6A3.19,3.19,0,0,1,447.19,202.41Z" style="fill:#263238"></path><line x1="472.67" y1="207.6" x2="451.34" y2="207.6" style="fill:none;stroke:#fff;stroke-miterlimit:10"></line><line x1="472.67" y1="211.5" x2="451.34" y2="211.5" style="fill:none;stroke:#fff;stroke-miterlimit:10"></line><line x1="472.67" y1="215.39" x2="451.34" y2="215.39" style="fill:none;stroke:#fff;stroke-miterlimit:10"></line><path d="M67.79,212.09H38.71a3.18,3.18,0,0,0-3.19,3.18v12.15a3.18,3.18,0,0,0,3.19,3.18H64.46L71,238.2V215.27A3.18,3.18,0,0,0,67.79,212.09Z" style="fill:#263238"></path><line x1="42.3" y1="217.28" x2="63.64" y2="217.28" style="fill:none;stroke:#fff;stroke-miterlimit:10"></line><line x1="42.3" y1="221.18" x2="63.64" y2="221.18" style="fill:none;stroke:#fff;stroke-miterlimit:10"></line><line x1="42.3" y1="225.07" x2="63.64" y2="225.07" style="fill:none;stroke:#fff;stroke-miterlimit:10"></line><path d="M204.41,292.7h29.08a3.19,3.19,0,0,1,3.19,3.19V308a3.19,3.19,0,0,1-3.19,3.19H207.74l-6.52,7.59V295.89A3.19,3.19,0,0,1,204.41,292.7Z" style="fill:#fff;stroke:#8f8f8f;stroke-miterlimit:10"></path><line x1="229.9" y1="297.89" x2="208.56" y2="297.89" style="fill:none;stroke:#8f8f8f;stroke-miterlimit:10"></line><line x1="229.9" y1="301.79" x2="208.56" y2="301.79" style="fill:none;stroke:#8f8f8f;stroke-miterlimit:10"></line><line x1="229.9" y1="305.69" x2="208.56" y2="305.69" style="fill:none;stroke:#8f8f8f;stroke-miterlimit:10"></line><line x1="49.48" y1="272.05" x2="78.23" y2="272.05" style="fill:none;stroke:#8f8f8f;stroke-miterlimit:10"></line><rect x="337.26" y="214.41" width="26.16" height="21.51" style="fill:#fff;stroke:#8f8f8f;stroke-miterlimit:10"></rect><polyline points="337.55 226.03 347.44 219.64 353.25 227.49 358.19 224.87 362.84 230.39" style="fill:none;stroke:#8f8f8f;stroke-miterlimit:10"></polyline><path d="M360.22,219.64a3.2,3.2,0,1,1-3.19-3.2A3.2,3.2,0,0,1,360.22,219.64Z" style="fill:none;stroke:#8f8f8f;stroke-miterlimit:10"></path><polygon points="362.06 95.8 344.16 95.8 344.16 75.27 348.87 70.74 362.06 70.74 362.06 95.8" style="fill:#fff;stroke:#8f8f8f;stroke-linecap:round;stroke-linejoin:round"></polygon><polygon points="344.16 75.27 349.03 75.27 349.03 70.74 344.16 75.27" style="fill:#fff;stroke:#8f8f8f;stroke-linecap:round;stroke-linejoin:round"></polygon><polygon points="381.63 95.8 363.73 95.8 363.73 75.27 368.44 70.74 381.63 70.74 381.63 95.8" style="fill:#fff;stroke:#8f8f8f;stroke-linecap:round;stroke-linejoin:round"></polygon><polygon points="363.73 75.27 368.6 75.27 368.6 70.74 363.73 75.27" style="fill:#fff;stroke:#8f8f8f;stroke-linecap:round;stroke-linejoin:round"></polygon><polygon points="401.2 95.8 383.3 95.8 383.3 75.27 388.01 70.74 401.2 70.74 401.2 95.8" style="fill:#fff;stroke:#8f8f8f;stroke-linecap:round;stroke-linejoin:round"></polygon><polygon points="383.3 75.27 388.17 75.27 388.17 70.74 383.3 75.27" style="fill:#fff;stroke:#8f8f8f;stroke-linecap:round;stroke-linejoin:round"></polygon><line x1="41.15" y1="333.89" x2="96.98" y2="333.89" style="fill:none;stroke:#8f8f8f;stroke-miterlimit:10"></line><line x1="69.1" y1="333.89" x2="69.1" y2="315.5" style="fill:none;stroke:#8f8f8f;stroke-miterlimit:10"></line><circle cx="41.15" cy="333.89" r="10.25" transform="translate(-124.64 41.16) rotate(-22.5)" style="fill:#fff;stroke:#8f8f8f;stroke-miterlimit:10"></circle><path d="M49.29,340.1l-8.42-4.77V323.65a10.25,10.25,0,1,0,8.42,16.45Z" style="fill:#DF0000;stroke:#8f8f8f;stroke-miterlimit:10"></path><path d="M47.16,333.89a6,6,0,1,1-6-6A6,6,0,0,1,47.16,333.89Z" style="fill:#fff;stroke:#8f8f8f;stroke-miterlimit:10"></path><circle cx="69.1" cy="333.89" r="10.25" transform="translate(-122.51 51.86) rotate(-22.5)" style="fill:#fff;stroke:#8f8f8f;stroke-miterlimit:10"></circle><path d="M77.24,340.1l-8.41-4.77V323.65a10.25,10.25,0,1,0,8.41,16.45Z" style="fill:#DF0000;stroke:#8f8f8f;stroke-miterlimit:10"></path><path d="M75.11,333.89a6,6,0,1,1-6-6A6,6,0,0,1,75.11,333.89Z" style="fill:#fff;stroke:#8f8f8f;stroke-miterlimit:10"></path><circle cx="97.05" cy="333.89" r="10.25" transform="translate(-250.25 350.68) rotate(-76.56)" style="fill:#fff;stroke:#8f8f8f;stroke-miterlimit:10"></circle><path d="M105.19,340.1l-8.41-4.77V323.65a10.25,10.25,0,1,0,8.41,16.45Z" style="fill:#DF0000;stroke:#8f8f8f;stroke-miterlimit:10"></path><path d="M103.07,333.89a6,6,0,1,1-6-6A6,6,0,0,1,103.07,333.89Z" style="fill:#fff;stroke:#8f8f8f;stroke-miterlimit:10"></path><circle cx="134.41" cy="134.16" r="31.76" style="fill:none;stroke:#8f8f8f;stroke-miterlimit:10"></circle><circle cx="134.41" cy="134.16" r="20.76" style="fill:none;stroke:#8f8f8f;stroke-miterlimit:10"></circle><line x1="411.17" y1="233" x2="424.17" y2="303.5" style="fill:none;stroke:#8f8f8f;stroke-miterlimit:10"></line><line x1="151.17" y1="237.5" x2="245.39" y2="250.89" style="fill:none;stroke:#8f8f8f;stroke-miterlimit:10"></line><line x1="173.17" y1="298" x2="139.67" y2="336" style="fill:none;stroke:#8f8f8f;stroke-miterlimit:10"></line><polyline points="139.67 338.5 90.17 245 151.17 237.5 173.17 298 342.67 186 342.67 133.05" style="fill:none;stroke:#8f8f8f;stroke-miterlimit:10"></polyline><polyline points="90.17 245 73.67 180 134.41 134.16 182.3 133" style="fill:none;stroke:#8f8f8f;stroke-miterlimit:10"></polyline><line x1="151.17" y1="237.5" x2="73.67" y2="180" style="fill:none;stroke:#8f8f8f;stroke-miterlimit:10"></line><polyline points="151.17 237.5 114.62 291.59 72.17 311" style="fill:none;stroke:#8f8f8f;stroke-miterlimit:10"></polyline><polyline points="200.02 326.28 173.17 298 182 264.23" style="fill:none;stroke:#8f8f8f;stroke-miterlimit:10"></polyline><line x1="173.17" y1="298" x2="140.64" y2="286.25" style="fill:none;stroke:#8f8f8f;stroke-miterlimit:10"></line><polyline points="445.55 234.87 411.17 233 375.49 268.9" style="fill:none;stroke:#8f8f8f;stroke-miterlimit:10"></polyline><polyline points="337.95 104.89 342 131.12 323.94 148.92" style="fill:none;stroke:#8f8f8f;stroke-miterlimit:10"></polyline><line x1="342" y1="131.12" x2="369.31" y2="116.23" style="fill:none;stroke:#8f8f8f;stroke-miterlimit:10"></line><line x1="394.18" y1="271.89" x2="389.19" y2="255.54" style="fill:none;stroke:#8f8f8f;stroke-miterlimit:10"></line><line x1="150.68" y1="235.83" x2="148.54" y2="218.88" style="fill:none;stroke:#8f8f8f;stroke-miterlimit:10"></line><line x1="87.61" y1="243.72" x2="70.61" y2="241.98" style="fill:none;stroke:#8f8f8f;stroke-miterlimit:10"></line><line x1="69.67" y1="313.5" x2="63.24" y2="276.91" style="fill:none;stroke:#8f8f8f;stroke-miterlimit:10"></line><polyline points="165.3 94.97 134.41 134.16 134.41 59.44 178.4 59.44" style="fill:none;stroke:#8f8f8f;stroke-miterlimit:10"></polyline><line x1="342.67" y1="186" x2="411.17" y2="233" style="fill:none;stroke:#8f8f8f;stroke-miterlimit:10"></line><circle cx="342" cy="131.12" r="5" style="fill:#DF0000"></circle><circle cx="342" cy="186.66" r="9.21" transform="translate(84 478.62) rotate(-77.16)" style="fill:none;stroke:#DF0000;stroke-miterlimit:10"></circle><circle cx="342" cy="186.66" r="5" style="fill:#DF0000"></circle><circle cx="410.86" cy="233.14" r="9.21" style="fill:none;stroke:#DF0000;stroke-miterlimit:10"></circle><circle cx="410.86" cy="233.14" r="5" style="fill:#DF0000"></circle><circle cx="172.95" cy="297.59" r="9.21" transform="translate(-156.79 396.31) rotate(-76.5)" style="fill:none;stroke:#DF0000;stroke-miterlimit:10"></circle><circle cx="172.95" cy="297.59" r="5" style="fill:#DF0000"></circle><circle cx="134.3" cy="133.89" r="9.21" transform="translate(-27.13 233.4) rotate(-76.56)" style="fill:none;stroke:#DF0000;stroke-miterlimit:10"></circle><circle cx="134.3" cy="133.89" r="5" style="fill:#DF0000"></circle><circle cx="375.89" cy="268.81" r="2.5" style="fill:#DF0000"></circle><circle cx="445.17" cy="234.86" r="2.5" style="fill:#DF0000"></circle><circle cx="324.31" cy="148.65" r="2.5" style="fill:#DF0000"></circle><circle cx="369.41" cy="116.48" r="2.5" style="fill:#DF0000"></circle><circle cx="337.57" cy="104.87" r="2.5" style="fill:#DF0000"></circle><circle cx="139.67" cy="336" r="2.5" style="fill:#DF0000"></circle><circle cx="63.24" cy="276.91" r="2.5" style="fill:#DF0000"></circle><circle cx="139.98" cy="286.45" r="2.5" style="fill:#DF0000"></circle><circle cx="181.41" cy="264.27" r="2.5" style="fill:#DF0000"></circle><path d="M205.12,326.27a4.74,4.74,0,1,1-4.74-4.74A4.74,4.74,0,0,1,205.12,326.27Z" style="fill:#DF0000"></path><circle cx="151.17" cy="237.5" r="2.5" style="fill:#DF0000"></circle><circle cx="183.64" cy="133.26" r="2.5" style="fill:#DF0000"></circle><circle cx="165.3" cy="94.97" r="2.5" style="fill:#DF0000"></circle><circle cx="73.67" cy="180" r="2.5" style="fill:#DF0000"></circle><circle cx="424.17" cy="303.5" r="5" style="fill:#DF0000"></circle><circle cx="114.77" cy="291.76" r="5" style="fill:#DF0000"></circle><circle cx="244.14" cy="251.08" r="5" style="fill:#DF0000"></circle><circle cx="69.56" cy="311.43" r="5" style="fill:#DF0000"></circle><circle cx="90.17" cy="245" r="5" style="fill:#DF0000"></circle><path d="M393.33,274.36a2.5,2.5,0,1,1,3-1.85A2.5,2.5,0,0,1,393.33,274.36Z" style="fill:#DF0000"></path><path d="M149.8,216.58a2.5,2.5,0,1,1-3.28,1.32A2.5,2.5,0,0,1,149.8,216.58Z" style="fill:#DF0000"></path><path d="M68.65,240.24a2.5,2.5,0,1,1,.54,3.5A2.52,2.52,0,0,1,68.65,240.24Z" style="fill:#DF0000"></path><rect x="51.39" y="259.59" width="4.15" height="12.14" style="fill:#DF0000"></rect><rect x="58.42" y="249.69" width="4.15" height="22.04" style="fill:#DF0000"></rect><rect x="65.45" y="253.52" width="4.15" height="18.21" style="fill:#DF0000"></rect><rect x="72.48" y="264.06" width="4.15" height="7.67" style="fill:#DF0000"></rect><path d="M185.07,46.17h-2.81a.7.7,0,1,1,0-1.39h2.81a.7.7,0,1,1,0,1.39Zm.7,2.53a.7.7,0,0,0-.7-.7h-2.81a.7.7,0,1,0,0,1.39h2.81A.69.69,0,0,0,185.77,48.7Zm0,3.22a.7.7,0,0,0-.7-.7h-2.81a.7.7,0,1,0,0,1.39h2.81A.69.69,0,0,0,185.77,51.92Zm0,3.22a.7.7,0,0,0-.7-.7h-2.81a.7.7,0,1,0,0,1.39h2.81A.69.69,0,0,0,185.77,55.14Zm0,3.22a.7.7,0,0,0-.7-.7h-2.81a.7.7,0,1,0,0,1.39h2.81A.69.69,0,0,0,185.77,58.36Zm0,3.22a.69.69,0,0,0-.7-.69h-2.81a.69.69,0,0,0-.7.69.7.7,0,0,0,.7.7h2.81A.7.7,0,0,0,185.77,61.58Zm0,3.22a.69.69,0,0,0-.7-.69h-2.81a.7.7,0,1,0,0,1.39h2.81A.7.7,0,0,0,185.77,64.8Zm0,3.22a.69.69,0,0,0-.7-.69h-2.81a.7.7,0,1,0,0,1.39h2.81A.7.7,0,0,0,185.77,68Zm10.54-22.54a.69.69,0,0,0-.69-.7h-7.4a.7.7,0,1,0,0,1.39h7.4A.69.69,0,0,0,196.31,45.48Zm0,3.22a.69.69,0,0,0-.69-.7h-7.4a.7.7,0,1,0,0,1.39h7.4A.69.69,0,0,0,196.31,48.7Zm0,3.22a.69.69,0,0,0-.69-.7h-7.4a.7.7,0,1,0,0,1.39h7.4A.69.69,0,0,0,196.31,51.92Zm0,3.22a.69.69,0,0,0-.69-.7h-7.4a.7.7,0,1,0,0,1.39h7.4A.69.69,0,0,0,196.31,55.14Zm0,3.22a.69.69,0,0,0-.69-.7h-7.4a.7.7,0,1,0,0,1.39h7.4A.69.69,0,0,0,196.31,58.36Zm8.86,3.22a.69.69,0,0,0-.7-.69h-7.39a.69.69,0,0,0-.7.69.7.7,0,0,0,.7.7h7.39A.7.7,0,0,0,205.17,61.58Zm0,3.22a.69.69,0,0,0-.7-.69h-7.39a.7.7,0,1,0,0,1.39h7.39A.7.7,0,0,0,205.17,64.8Zm0,3.22a.69.69,0,0,0-.7-.69h-7.39a.7.7,0,1,0,0,1.39h7.39A.7.7,0,0,0,205.17,68Zm-5.6-22.54a.81.81,0,1,0-.81.8A.81.81,0,0,0,199.57,45.48Zm2.41,0a.81.81,0,1,0-.8.8A.8.8,0,0,0,202,45.48Zm2.42,0a.81.81,0,1,0-.81.8A.81.81,0,0,0,204.4,45.48Zm2.41,0a.81.81,0,1,0-.8.8A.8.8,0,0,0,206.81,45.48Zm2.42,0a.81.81,0,1,0-.8.8A.8.8,0,0,0,209.23,45.48Zm2.42,0a.81.81,0,1,0-.81.8A.81.81,0,0,0,211.65,45.48Zm-12.08,6.44a.81.81,0,1,0-.81.8A.81.81,0,0,0,199.57,51.92Zm2.41,0a.81.81,0,1,0-.8.8A.8.8,0,0,0,202,51.92Zm2.42,0a.81.81,0,1,0-.81.8A.81.81,0,0,0,204.4,51.92Zm2.41,0a.81.81,0,1,0-.8.8A.8.8,0,0,0,206.81,51.92Zm2.42,0a.81.81,0,1,0-.8.8A.8.8,0,0,0,209.23,51.92Zm2.42,0a.81.81,0,1,0-.81.8A.81.81,0,0,0,211.65,51.92Zm-3.83,9.26a.81.81,0,1,0-.8.8A.8.8,0,0,0,207.82,61.18Zm2.42,0a.81.81,0,1,0-.81.8A.81.81,0,0,0,210.24,61.18Zm2.41,0a.81.81,0,1,0-.8.8A.8.8,0,0,0,212.65,61.18Zm2.42,0a.81.81,0,1,0-.81.8A.81.81,0,0,0,215.07,61.18Zm2.41,0a.81.81,0,1,0-.8.8A.8.8,0,0,0,217.48,61.18Zm2.42,0a.81.81,0,1,0-.81.8A.81.81,0,0,0,219.9,61.18Zm-12.08,6.64a.81.81,0,1,0-.8.81A.8.8,0,0,0,207.82,67.82Zm2.42,0a.81.81,0,1,0-.81.81A.8.8,0,0,0,210.24,67.82Zm2.41,0a.81.81,0,1,0-.8.81A.8.8,0,0,0,212.65,67.82Zm2.42,0a.81.81,0,1,0-.81.81A.8.8,0,0,0,215.07,67.82Zm2.41,0a.81.81,0,1,0-.8.81A.8.8,0,0,0,217.48,67.82Zm2.42,0a.81.81,0,1,0-.81.81A.8.8,0,0,0,219.9,67.82Z" style="fill:#DF0000"></path><path d="M185.07,71.94h-2.81a.69.69,0,0,1-.7-.69.7.7,0,0,1,.7-.7h2.81a.7.7,0,0,1,.7.7A.69.69,0,0,1,185.07,71.94Zm.7,2.53a.7.7,0,0,0-.7-.7h-2.81a.7.7,0,0,0,0,1.4h2.81A.7.7,0,0,0,185.77,74.47Zm0,3.22a.69.69,0,0,0-.7-.69h-2.81a.69.69,0,0,0-.7.69.7.7,0,0,0,.7.7h2.81A.7.7,0,0,0,185.77,77.69Zm0,3.22a.69.69,0,0,0-.7-.69h-2.81a.7.7,0,1,0,0,1.39h2.81A.7.7,0,0,0,185.77,80.91Zm0,3.22a.69.69,0,0,0-.7-.69h-2.81a.7.7,0,1,0,0,1.39h2.81A.7.7,0,0,0,185.77,84.13Zm0,3.22a.69.69,0,0,0-.7-.69h-2.81a.7.7,0,1,0,0,1.39h2.81A.7.7,0,0,0,185.77,87.35Zm0,3.22a.69.69,0,0,0-.7-.69h-2.81a.7.7,0,1,0,0,1.39h2.81A.7.7,0,0,0,185.77,90.57Zm0,3.23a.7.7,0,0,0-.7-.7h-2.81a.7.7,0,1,0,0,1.39h2.81A.69.69,0,0,0,185.77,93.8Zm10.54-22.55a.7.7,0,0,0-.69-.7h-7.4a.71.71,0,0,0-.7.7.7.7,0,0,0,.7.69h7.4A.69.69,0,0,0,196.31,71.25Zm0,3.22a.7.7,0,0,0-.69-.7h-7.4a.7.7,0,1,0,0,1.4h7.4A.7.7,0,0,0,196.31,74.47Zm0,3.22a.69.69,0,0,0-.69-.69h-7.4a.7.7,0,0,0-.7.69.71.71,0,0,0,.7.7h7.4A.7.7,0,0,0,196.31,77.69Zm0,3.22a.69.69,0,0,0-.69-.69h-7.4a.7.7,0,1,0,0,1.39h7.4A.69.69,0,0,0,196.31,80.91Zm0,3.22a.69.69,0,0,0-.69-.69h-7.4a.7.7,0,1,0,0,1.39h7.4A.69.69,0,0,0,196.31,84.13Zm8.86,3.22a.69.69,0,0,0-.7-.69h-7.39a.7.7,0,1,0,0,1.39h7.39A.7.7,0,0,0,205.17,87.35Zm0,3.22a.69.69,0,0,0-.7-.69h-7.39a.7.7,0,1,0,0,1.39h7.39A.7.7,0,0,0,205.17,90.57Zm0,3.23a.7.7,0,0,0-.7-.7h-7.39a.7.7,0,1,0,0,1.39h7.39A.69.69,0,0,0,205.17,93.8Zm-5.6-22.55a.81.81,0,1,0-.81.8A.81.81,0,0,0,199.57,71.25Zm2.41,0a.81.81,0,1,0-.8.8A.8.8,0,0,0,202,71.25Zm2.42,0a.81.81,0,1,0-.81.8A.81.81,0,0,0,204.4,71.25Zm2.41,0a.81.81,0,1,0-.8.8A.8.8,0,0,0,206.81,71.25Zm2.42,0a.81.81,0,1,0-.8.8A.8.8,0,0,0,209.23,71.25Zm2.42,0a.81.81,0,1,0-.81.8A.81.81,0,0,0,211.65,71.25Zm-12.08,6.44a.81.81,0,1,0-.81.81A.8.8,0,0,0,199.57,77.69Zm2.41,0a.81.81,0,1,0-.8.81A.8.8,0,0,0,202,77.69Zm2.42,0a.81.81,0,1,0-.81.81A.8.8,0,0,0,204.4,77.69Zm2.41,0a.81.81,0,1,0-.8.81A.8.8,0,0,0,206.81,77.69Zm2.42,0a.81.81,0,1,0-.8.81A.8.8,0,0,0,209.23,77.69Zm2.42,0a.81.81,0,1,0-.81.81A.8.8,0,0,0,211.65,77.69ZM207.82,87a.81.81,0,1,0-.8.81A.8.8,0,0,0,207.82,87Zm2.42,0a.81.81,0,1,0-.81.81A.8.8,0,0,0,210.24,87Zm2.41,0a.81.81,0,1,0-.8.81A.8.8,0,0,0,212.65,87Zm2.42,0a.81.81,0,1,0-.81.81A.8.8,0,0,0,215.07,87Zm2.41,0a.81.81,0,1,0-.8.81A.8.8,0,0,0,217.48,87Zm2.42,0a.81.81,0,1,0-.81.81A.8.8,0,0,0,219.9,87Zm-12.08,6.64a.81.81,0,1,0-.8.81A.8.8,0,0,0,207.82,93.59Zm2.42,0a.81.81,0,1,0-.81.81A.8.8,0,0,0,210.24,93.59Zm2.41,0a.81.81,0,1,0-.8.81A.8.8,0,0,0,212.65,93.59Zm2.42,0a.81.81,0,1,0-.81.81A.8.8,0,0,0,215.07,93.59Zm2.41,0a.81.81,0,1,0-.8.81A.8.8,0,0,0,217.48,93.59Zm2.42,0a.81.81,0,1,0-.81.81A.8.8,0,0,0,219.9,93.59Z" style="fill:#DF0000"></path><path d="M185.07,98.34h-2.81a.7.7,0,1,1,0-1.39h2.81a.7.7,0,1,1,0,1.39Zm.7,2.53a.7.7,0,0,0-.7-.7h-2.81a.7.7,0,1,0,0,1.39h2.81A.69.69,0,0,0,185.77,100.87Zm0,3.22a.7.7,0,0,0-.7-.7h-2.81a.7.7,0,1,0,0,1.39h2.81A.69.69,0,0,0,185.77,104.09Zm0,3.22a.7.7,0,0,0-.7-.7h-2.81a.7.7,0,1,0,0,1.39h2.81A.69.69,0,0,0,185.77,107.31Zm0,3.22a.7.7,0,0,0-.7-.7h-2.81a.7.7,0,1,0,0,1.39h2.81A.69.69,0,0,0,185.77,110.53Zm0,3.22a.7.7,0,0,0-.7-.7h-2.81a.7.7,0,0,0-.7.7.69.69,0,0,0,.7.69h2.81A.69.69,0,0,0,185.77,113.75Zm0,3.22a.69.69,0,0,0-.7-.69h-2.81a.69.69,0,0,0-.7.69.7.7,0,0,0,.7.7h2.81A.7.7,0,0,0,185.77,117Zm0,3.22a.69.69,0,0,0-.7-.69h-2.81a.7.7,0,1,0,0,1.39h2.81A.7.7,0,0,0,185.77,120.19Zm10.54-22.54a.69.69,0,0,0-.69-.7h-7.4a.7.7,0,1,0,0,1.39h7.4A.69.69,0,0,0,196.31,97.65Zm0,3.22a.69.69,0,0,0-.69-.7h-7.4a.7.7,0,1,0,0,1.39h7.4A.69.69,0,0,0,196.31,100.87Zm0,3.22a.69.69,0,0,0-.69-.7h-7.4a.7.7,0,1,0,0,1.39h7.4A.69.69,0,0,0,196.31,104.09Zm0,3.22a.69.69,0,0,0-.69-.7h-7.4a.7.7,0,1,0,0,1.39h7.4A.69.69,0,0,0,196.31,107.31Zm0,3.22a.69.69,0,0,0-.69-.7h-7.4a.7.7,0,1,0,0,1.39h7.4A.69.69,0,0,0,196.31,110.53Zm8.86,3.22a.7.7,0,0,0-.7-.7h-7.39a.7.7,0,0,0-.7.7.69.69,0,0,0,.7.69h7.39A.69.69,0,0,0,205.17,113.75Zm0,3.22a.69.69,0,0,0-.7-.69h-7.39a.69.69,0,0,0-.7.69.7.7,0,0,0,.7.7h7.39A.7.7,0,0,0,205.17,117Zm0,3.22a.69.69,0,0,0-.7-.69h-7.39a.7.7,0,1,0,0,1.39h7.39A.7.7,0,0,0,205.17,120.19Zm-5.6-22.54a.81.81,0,1,0-.81.8A.81.81,0,0,0,199.57,97.65Zm2.41,0a.81.81,0,1,0-.8.8A.8.8,0,0,0,202,97.65Zm2.42,0a.81.81,0,1,0-.81.8A.81.81,0,0,0,204.4,97.65Zm2.41,0a.81.81,0,1,0-.8.8A.8.8,0,0,0,206.81,97.65Zm2.42,0a.81.81,0,1,0-.8.8A.8.8,0,0,0,209.23,97.65Zm2.42,0a.81.81,0,1,0-.81.8A.81.81,0,0,0,211.65,97.65Zm-12.08,6.44a.81.81,0,1,0-.81.8A.81.81,0,0,0,199.57,104.09Zm2.41,0a.81.81,0,1,0-.8.8A.8.8,0,0,0,202,104.09Zm2.42,0a.81.81,0,1,0-.81.8A.81.81,0,0,0,204.4,104.09Zm2.41,0a.81.81,0,1,0-.8.8A.8.8,0,0,0,206.81,104.09Zm2.42,0a.81.81,0,1,0-.8.8A.8.8,0,0,0,209.23,104.09Zm2.42,0a.81.81,0,1,0-.81.8A.81.81,0,0,0,211.65,104.09Zm-3.83,9.26a.81.81,0,1,0-.8.8A.8.8,0,0,0,207.82,113.35Zm2.42,0a.81.81,0,1,0-.81.8A.81.81,0,0,0,210.24,113.35Zm2.41,0a.81.81,0,1,0-.8.8A.8.8,0,0,0,212.65,113.35Zm2.42,0a.81.81,0,1,0-.81.8A.81.81,0,0,0,215.07,113.35Zm2.41,0a.81.81,0,1,0-.8.8A.8.8,0,0,0,217.48,113.35Zm2.42,0a.81.81,0,1,0-.81.8A.81.81,0,0,0,219.9,113.35ZM207.82,120a.81.81,0,1,0-.8.81A.81.81,0,0,0,207.82,120Zm2.42,0a.81.81,0,1,0-.81.81A.81.81,0,0,0,210.24,120Zm2.41,0a.81.81,0,1,0-.8.81A.81.81,0,0,0,212.65,120Zm2.42,0a.81.81,0,1,0-.81.81A.81.81,0,0,0,215.07,120Zm2.41,0a.81.81,0,1,0-.8.81A.81.81,0,0,0,217.48,120Zm2.42,0a.81.81,0,1,0-.81.81A.81.81,0,0,0,219.9,120Z" style="fill:#DF0000"></path><path d="M228.34,46.17h-2.82a.7.7,0,0,1,0-1.39h2.82a.7.7,0,1,1,0,1.39Zm.7,2.53a.7.7,0,0,0-.7-.7h-2.82a.7.7,0,0,0,0,1.39h2.82A.69.69,0,0,0,229,48.7Zm0,3.22a.7.7,0,0,0-.7-.7h-2.82a.7.7,0,0,0,0,1.39h2.82A.69.69,0,0,0,229,51.92Zm0,3.22a.7.7,0,0,0-.7-.7h-2.82a.7.7,0,0,0,0,1.39h2.82A.69.69,0,0,0,229,55.14Zm0,3.22a.7.7,0,0,0-.7-.7h-2.82a.7.7,0,0,0,0,1.39h2.82A.69.69,0,0,0,229,58.36Zm0,3.22a.69.69,0,0,0-.7-.69h-2.82a.69.69,0,0,0-.69.69.7.7,0,0,0,.69.7h2.82A.7.7,0,0,0,229,61.58Zm0,3.22a.69.69,0,0,0-.7-.69h-2.82a.7.7,0,0,0,0,1.39h2.82A.7.7,0,0,0,229,64.8ZM229,68a.69.69,0,0,0-.7-.69h-2.82a.7.7,0,0,0,0,1.39h2.82A.7.7,0,0,0,229,68Zm10.54-22.54a.69.69,0,0,0-.69-.7h-7.4a.7.7,0,1,0,0,1.39h7.4A.69.69,0,0,0,239.58,45.48Zm0,3.22a.69.69,0,0,0-.69-.7h-7.4a.7.7,0,1,0,0,1.39h7.4A.69.69,0,0,0,239.58,48.7Zm0,3.22a.69.69,0,0,0-.69-.7h-7.4a.7.7,0,1,0,0,1.39h7.4A.69.69,0,0,0,239.58,51.92Zm0,3.22a.69.69,0,0,0-.69-.7h-7.4a.7.7,0,1,0,0,1.39h7.4A.69.69,0,0,0,239.58,55.14Zm0,3.22a.69.69,0,0,0-.69-.7h-7.4a.7.7,0,1,0,0,1.39h7.4A.69.69,0,0,0,239.58,58.36Zm8.86,3.22a.69.69,0,0,0-.7-.69h-7.39a.69.69,0,0,0-.7.69.7.7,0,0,0,.7.7h7.39A.7.7,0,0,0,248.44,61.58Zm0,3.22a.69.69,0,0,0-.7-.69h-7.39a.7.7,0,1,0,0,1.39h7.39A.7.7,0,0,0,248.44,64.8Zm0,3.22a.69.69,0,0,0-.7-.69h-7.39a.7.7,0,1,0,0,1.39h7.39A.7.7,0,0,0,248.44,68Zm-5.6-22.54a.81.81,0,1,0-.81.8A.81.81,0,0,0,242.84,45.48Zm2.41,0a.81.81,0,1,0-.8.8A.8.8,0,0,0,245.25,45.48Zm2.42,0a.81.81,0,1,0-.81.8A.81.81,0,0,0,247.67,45.48Zm2.41,0a.81.81,0,1,0-.8.8A.8.8,0,0,0,250.08,45.48Zm2.42,0a.81.81,0,1,0-.81.8A.81.81,0,0,0,252.5,45.48Zm2.42,0a.81.81,0,1,0-.81.8A.81.81,0,0,0,254.92,45.48Zm-12.08,6.44a.81.81,0,1,0-.81.8A.81.81,0,0,0,242.84,51.92Zm2.41,0a.81.81,0,1,0-.8.8A.8.8,0,0,0,245.25,51.92Zm2.42,0a.81.81,0,1,0-.81.8A.81.81,0,0,0,247.67,51.92Zm2.41,0a.81.81,0,1,0-.8.8A.8.8,0,0,0,250.08,51.92Zm2.42,0a.81.81,0,1,0-.81.8A.81.81,0,0,0,252.5,51.92Zm2.42,0a.81.81,0,1,0-.81.8A.81.81,0,0,0,254.92,51.92Zm-3.83,9.26a.81.81,0,1,0-.81.8A.81.81,0,0,0,251.09,61.18Zm2.42,0a.81.81,0,1,0-.81.8A.81.81,0,0,0,253.51,61.18Zm2.41,0a.81.81,0,1,0-.8.8A.8.8,0,0,0,255.92,61.18Zm2.42,0a.81.81,0,1,0-.81.8A.81.81,0,0,0,258.34,61.18Zm2.41,0a.81.81,0,1,0-.8.8A.8.8,0,0,0,260.75,61.18Zm2.42,0a.81.81,0,1,0-.81.8A.81.81,0,0,0,263.17,61.18Zm-12.08,6.64a.81.81,0,1,0-.81.81A.8.8,0,0,0,251.09,67.82Zm2.42,0a.81.81,0,1,0-.81.81A.8.8,0,0,0,253.51,67.82Zm2.41,0a.81.81,0,1,0-.8.81A.8.8,0,0,0,255.92,67.82Zm2.42,0a.81.81,0,1,0-.81.81A.8.8,0,0,0,258.34,67.82Zm2.41,0a.81.81,0,1,0-.8.81A.8.8,0,0,0,260.75,67.82Zm2.42,0a.81.81,0,1,0-.81.81A.8.8,0,0,0,263.17,67.82Z" style="fill:#DF0000"></path><path d="M228.34,72.57h-2.82a.7.7,0,0,1,0-1.39h2.82a.7.7,0,1,1,0,1.39Zm.7,2.52a.69.69,0,0,0-.7-.69h-2.82a.7.7,0,0,0,0,1.39h2.82A.7.7,0,0,0,229,75.09Zm0,3.22a.69.69,0,0,0-.7-.69h-2.82a.7.7,0,0,0,0,1.39h2.82A.7.7,0,0,0,229,78.31Zm0,3.22a.69.69,0,0,0-.7-.69h-2.82a.7.7,0,0,0,0,1.39h2.82A.7.7,0,0,0,229,81.53Zm0,3.22a.69.69,0,0,0-.7-.69h-2.82a.7.7,0,0,0,0,1.39h2.82A.7.7,0,0,0,229,84.75ZM229,88a.7.7,0,0,0-.7-.7h-2.82a.7.7,0,0,0,0,1.39h2.82A.69.69,0,0,0,229,88Zm0,3.22a.7.7,0,0,0-.7-.7h-2.82a.7.7,0,0,0,0,1.39h2.82A.69.69,0,0,0,229,91.2Zm0,3.22a.7.7,0,0,0-.7-.7h-2.82a.7.7,0,0,0,0,1.39h2.82A.69.69,0,0,0,229,94.42Zm10.54-22.55a.69.69,0,0,0-.69-.69h-7.4a.7.7,0,1,0,0,1.39h7.4A.69.69,0,0,0,239.58,71.87Zm0,3.22a.69.69,0,0,0-.69-.69h-7.4a.7.7,0,1,0,0,1.39h7.4A.69.69,0,0,0,239.58,75.09Zm0,3.22a.69.69,0,0,0-.69-.69h-7.4a.7.7,0,1,0,0,1.39h7.4A.69.69,0,0,0,239.58,78.31Zm0,3.22a.69.69,0,0,0-.69-.69h-7.4a.7.7,0,1,0,0,1.39h7.4A.69.69,0,0,0,239.58,81.53Zm0,3.22a.69.69,0,0,0-.69-.69h-7.4a.7.7,0,1,0,0,1.39h7.4A.69.69,0,0,0,239.58,84.75ZM248.44,88a.7.7,0,0,0-.7-.7h-7.39a.7.7,0,1,0,0,1.39h7.39A.69.69,0,0,0,248.44,88Zm0,3.22a.7.7,0,0,0-.7-.7h-7.39a.7.7,0,1,0,0,1.39h7.39A.69.69,0,0,0,248.44,91.2Zm0,3.22a.7.7,0,0,0-.7-.7h-7.39a.7.7,0,1,0,0,1.39h7.39A.69.69,0,0,0,248.44,94.42Zm-5.6-22.55a.81.81,0,1,0-.81.81A.8.8,0,0,0,242.84,71.87Zm2.41,0a.81.81,0,1,0-.8.81A.8.8,0,0,0,245.25,71.87Zm2.42,0a.81.81,0,1,0-.81.81A.8.8,0,0,0,247.67,71.87Zm2.41,0a.81.81,0,1,0-.8.81A.8.8,0,0,0,250.08,71.87Zm2.42,0a.81.81,0,1,0-.81.81A.8.8,0,0,0,252.5,71.87Zm2.42,0a.81.81,0,1,0-.81.81A.81.81,0,0,0,254.92,71.87Zm-12.08,6.44a.81.81,0,1,0-.81.81A.8.8,0,0,0,242.84,78.31Zm2.41,0a.81.81,0,1,0-.8.81A.8.8,0,0,0,245.25,78.31Zm2.42,0a.81.81,0,1,0-.81.81A.8.8,0,0,0,247.67,78.31Zm2.41,0a.81.81,0,1,0-.8.81A.8.8,0,0,0,250.08,78.31Zm2.42,0a.81.81,0,1,0-.81.81A.8.8,0,0,0,252.5,78.31Zm2.42,0a.81.81,0,1,0-.81.81A.81.81,0,0,0,254.92,78.31Zm-3.83,9.26a.81.81,0,1,0-.81.81A.8.8,0,0,0,251.09,87.57Zm2.42,0a.81.81,0,1,0-.81.81A.8.8,0,0,0,253.51,87.57Zm2.41,0a.81.81,0,1,0-.8.81A.8.8,0,0,0,255.92,87.57Zm2.42,0a.81.81,0,1,0-.81.81A.8.8,0,0,0,258.34,87.57Zm2.41,0a.81.81,0,1,0-.8.81A.8.8,0,0,0,260.75,87.57Zm2.42,0a.81.81,0,1,0-.81.81A.8.8,0,0,0,263.17,87.57Zm-12.08,6.65a.81.81,0,1,0-.81.8A.81.81,0,0,0,251.09,94.22Zm2.42,0a.81.81,0,1,0-.81.8A.81.81,0,0,0,253.51,94.22Zm2.41,0a.81.81,0,1,0-.8.8A.8.8,0,0,0,255.92,94.22Zm2.42,0a.81.81,0,1,0-.81.8A.81.81,0,0,0,258.34,94.22Zm2.41,0a.81.81,0,1,0-.8.8A.8.8,0,0,0,260.75,94.22Zm2.42,0a.81.81,0,1,0-.81.8A.81.81,0,0,0,263.17,94.22Z" style="fill:#DF0000"></path><path d="M384.4,127.68h-2.82a.7.7,0,0,1,0-1.39h2.82a.7.7,0,1,1,0,1.39Zm.7,2.52a.69.69,0,0,0-.7-.69h-2.82a.7.7,0,0,0,0,1.39h2.82A.7.7,0,0,0,385.1,130.2Zm0,3.23a.7.7,0,0,0-.7-.7h-2.82a.7.7,0,0,0,0,1.39h2.82A.69.69,0,0,0,385.1,133.43Zm0,3.22a.7.7,0,0,0-.7-.7h-2.82a.7.7,0,0,0,0,1.39h2.82A.69.69,0,0,0,385.1,136.65Zm0,3.22a.7.7,0,0,0-.7-.7h-2.82a.7.7,0,0,0,0,1.39h2.82A.69.69,0,0,0,385.1,139.87Zm0,3.22a.7.7,0,0,0-.7-.7h-2.82a.7.7,0,0,0,0,1.39h2.82A.69.69,0,0,0,385.1,143.09Zm0,3.22a.7.7,0,0,0-.7-.7h-2.82a.7.7,0,0,0,0,1.39h2.82A.69.69,0,0,0,385.1,146.31Zm0,3.22a.7.7,0,0,0-.7-.7h-2.82a.7.7,0,0,0-.69.7.69.69,0,0,0,.69.69h2.82A.69.69,0,0,0,385.1,149.53ZM395.64,127a.69.69,0,0,0-.69-.69h-7.4a.7.7,0,1,0,0,1.39H395A.69.69,0,0,0,395.64,127Zm0,3.22a.69.69,0,0,0-.69-.69h-7.4a.7.7,0,1,0,0,1.39H395A.69.69,0,0,0,395.64,130.2Zm0,3.23a.69.69,0,0,0-.69-.7h-7.4a.7.7,0,1,0,0,1.39H395A.69.69,0,0,0,395.64,133.43Zm0,3.22a.69.69,0,0,0-.69-.7h-7.4a.7.7,0,1,0,0,1.39H395A.69.69,0,0,0,395.64,136.65Zm0,3.22a.69.69,0,0,0-.69-.7h-7.4a.7.7,0,1,0,0,1.39H395A.69.69,0,0,0,395.64,139.87Zm8.86,3.22a.7.7,0,0,0-.7-.7h-7.39a.7.7,0,1,0,0,1.39h7.39A.69.69,0,0,0,404.5,143.09Zm0,3.22a.7.7,0,0,0-.7-.7h-7.39a.7.7,0,1,0,0,1.39h7.39A.69.69,0,0,0,404.5,146.31Zm0,3.22a.7.7,0,0,0-.7-.7h-7.39a.7.7,0,0,0-.7.7.69.69,0,0,0,.7.69h7.39A.69.69,0,0,0,404.5,149.53ZM398.9,127a.81.81,0,1,0-.81.81A.8.8,0,0,0,398.9,127Zm2.41,0a.81.81,0,1,0-.8.81A.8.8,0,0,0,401.31,127Zm2.42,0a.81.81,0,1,0-.81.81A.8.8,0,0,0,403.73,127Zm2.41,0a.81.81,0,1,0-.8.81A.8.8,0,0,0,406.14,127Zm2.42,0a.81.81,0,1,0-.81.81A.8.8,0,0,0,408.56,127Zm2.42,0a.81.81,0,1,0-.81.81A.81.81,0,0,0,411,127Zm-12.08,6.45a.81.81,0,1,0-.81.8A.81.81,0,0,0,398.9,133.43Zm2.41,0a.81.81,0,1,0-.8.8A.8.8,0,0,0,401.31,133.43Zm2.42,0a.81.81,0,1,0-.81.8A.81.81,0,0,0,403.73,133.43Zm2.41,0a.81.81,0,1,0-.8.8A.8.8,0,0,0,406.14,133.43Zm2.42,0a.81.81,0,1,0-.81.8A.81.81,0,0,0,408.56,133.43Zm2.42,0a.81.81,0,1,0-.81.8A.81.81,0,0,0,411,133.43Zm-3.83,9.26a.81.81,0,1,0-.81.8A.81.81,0,0,0,407.15,142.69Zm2.42,0a.81.81,0,1,0-.81.8A.81.81,0,0,0,409.57,142.69Zm2.41,0a.81.81,0,1,0-.8.8A.8.8,0,0,0,412,142.69Zm2.42,0a.81.81,0,1,0-.81.8A.81.81,0,0,0,414.4,142.69Zm2.41,0a.81.81,0,1,0-.8.8A.8.8,0,0,0,416.81,142.69Zm2.42,0a.81.81,0,1,0-.81.8A.81.81,0,0,0,419.23,142.69Zm-12.08,6.64a.81.81,0,1,0-.81.8A.81.81,0,0,0,407.15,149.33Zm2.42,0a.81.81,0,1,0-.81.8A.81.81,0,0,0,409.57,149.33Zm2.41,0a.81.81,0,1,0-.8.8A.8.8,0,0,0,412,149.33Zm2.42,0a.81.81,0,1,0-.81.8A.81.81,0,0,0,414.4,149.33Zm2.41,0a.81.81,0,1,0-.8.8A.8.8,0,0,0,416.81,149.33Zm2.42,0a.81.81,0,1,0-.81.8A.81.81,0,0,0,419.23,149.33Z" style="fill:#DF0000"></path><path d="M384.4,153.45h-2.82a.7.7,0,0,1,0-1.39h2.82a.7.7,0,1,1,0,1.39Zm.7,2.53a.7.7,0,0,0-.7-.7h-2.82a.7.7,0,0,0,0,1.39h2.82A.69.69,0,0,0,385.1,156Zm0,3.22a.7.7,0,0,0-.7-.7h-2.82a.7.7,0,0,0,0,1.39h2.82A.69.69,0,0,0,385.1,159.2Zm0,3.22a.7.7,0,0,0-.7-.7h-2.82a.7.7,0,0,0-.69.7.69.69,0,0,0,.69.69h2.82A.69.69,0,0,0,385.1,162.42Zm0,3.22a.69.69,0,0,0-.7-.69h-2.82a.69.69,0,0,0-.69.69.7.7,0,0,0,.69.7h2.82A.7.7,0,0,0,385.1,165.64Zm0,3.22a.69.69,0,0,0-.7-.69h-2.82a.7.7,0,0,0,0,1.39h2.82A.7.7,0,0,0,385.1,168.86Zm0,3.22a.69.69,0,0,0-.7-.69h-2.82a.7.7,0,0,0,0,1.39h2.82A.7.7,0,0,0,385.1,172.08Zm0,3.22a.69.69,0,0,0-.7-.69h-2.82a.7.7,0,0,0,0,1.39h2.82A.7.7,0,0,0,385.1,175.3Zm10.54-22.54a.69.69,0,0,0-.69-.7h-7.4a.7.7,0,1,0,0,1.39H395A.69.69,0,0,0,395.64,152.76Zm0,3.22a.69.69,0,0,0-.69-.7h-7.4a.7.7,0,1,0,0,1.39H395A.69.69,0,0,0,395.64,156Zm0,3.22a.69.69,0,0,0-.69-.7h-7.4a.7.7,0,1,0,0,1.39H395A.69.69,0,0,0,395.64,159.2Zm0,3.22a.7.7,0,0,0-.69-.7h-7.4a.7.7,0,0,0-.7.7.69.69,0,0,0,.7.69H395A.69.69,0,0,0,395.64,162.42Zm0,3.22A.69.69,0,0,0,395,165h-7.4a.69.69,0,0,0-.7.69.7.7,0,0,0,.7.7H395A.7.7,0,0,0,395.64,165.64Zm8.86,3.22a.69.69,0,0,0-.7-.69h-7.39a.7.7,0,1,0,0,1.39h7.39A.7.7,0,0,0,404.5,168.86Zm0,3.22a.69.69,0,0,0-.7-.69h-7.39a.7.7,0,1,0,0,1.39h7.39A.7.7,0,0,0,404.5,172.08Zm0,3.22a.69.69,0,0,0-.7-.69h-7.39a.7.7,0,1,0,0,1.39h7.39A.7.7,0,0,0,404.5,175.3Zm-5.6-22.54a.81.81,0,1,0-.81.8A.81.81,0,0,0,398.9,152.76Zm2.41,0a.81.81,0,1,0-.8.8A.8.8,0,0,0,401.31,152.76Zm2.42,0a.81.81,0,1,0-.81.8A.81.81,0,0,0,403.73,152.76Zm2.41,0a.81.81,0,1,0-.8.8A.8.8,0,0,0,406.14,152.76Zm2.42,0a.81.81,0,1,0-.81.8A.81.81,0,0,0,408.56,152.76Zm2.42,0a.81.81,0,1,0-.81.8A.81.81,0,0,0,411,152.76ZM398.9,159.2a.81.81,0,1,0-.81.8A.81.81,0,0,0,398.9,159.2Zm2.41,0a.81.81,0,1,0-.8.8A.8.8,0,0,0,401.31,159.2Zm2.42,0a.81.81,0,1,0-.81.8A.81.81,0,0,0,403.73,159.2Zm2.41,0a.81.81,0,1,0-.8.8A.8.8,0,0,0,406.14,159.2Zm2.42,0a.81.81,0,1,0-.81.8A.81.81,0,0,0,408.56,159.2Zm2.42,0a.81.81,0,1,0-.81.8A.81.81,0,0,0,411,159.2Zm-3.83,9.26a.81.81,0,1,0-.81.8A.81.81,0,0,0,407.15,168.46Zm2.42,0a.81.81,0,1,0-.81.8A.81.81,0,0,0,409.57,168.46Zm2.41,0a.81.81,0,1,0-.8.8A.8.8,0,0,0,412,168.46Zm2.42,0a.81.81,0,1,0-.81.8A.81.81,0,0,0,414.4,168.46Zm2.41,0a.81.81,0,1,0-.8.8A.8.8,0,0,0,416.81,168.46Zm2.42,0a.81.81,0,1,0-.81.8A.81.81,0,0,0,419.23,168.46Zm-12.08,6.64a.81.81,0,1,0-.81.81A.8.8,0,0,0,407.15,175.1Zm2.42,0a.81.81,0,1,0-.81.81A.8.8,0,0,0,409.57,175.1Zm2.41,0a.81.81,0,1,0-.8.81A.8.8,0,0,0,412,175.1Zm2.42,0a.81.81,0,1,0-.81.81A.8.8,0,0,0,414.4,175.1Zm2.41,0a.81.81,0,1,0-.8.81A.8.8,0,0,0,416.81,175.1Zm2.42,0a.81.81,0,1,0-.81.81A.8.8,0,0,0,419.23,175.1Z" style="fill:#DF0000"></path><path d="M384.4,179.85h-2.82a.7.7,0,0,1,0-1.39h2.82a.7.7,0,1,1,0,1.39Zm.7,2.52a.69.69,0,0,0-.7-.69h-2.82a.7.7,0,0,0,0,1.39h2.82A.7.7,0,0,0,385.1,182.37Zm0,3.22a.69.69,0,0,0-.7-.69h-2.82a.7.7,0,0,0,0,1.39h2.82A.7.7,0,0,0,385.1,185.59Zm0,3.23a.7.7,0,0,0-.7-.7h-2.82a.7.7,0,0,0,0,1.39h2.82A.69.69,0,0,0,385.1,188.82Zm0,3.22a.7.7,0,0,0-.7-.7h-2.82a.7.7,0,0,0,0,1.39h2.82A.69.69,0,0,0,385.1,192Zm0,3.22a.7.7,0,0,0-.7-.7h-2.82a.7.7,0,0,0,0,1.39h2.82A.69.69,0,0,0,385.1,195.26Zm0,3.22a.7.7,0,0,0-.7-.7h-2.82a.7.7,0,0,0,0,1.39h2.82A.69.69,0,0,0,385.1,198.48Zm0,3.22a.7.7,0,0,0-.7-.7h-2.82a.7.7,0,0,0,0,1.39h2.82A.69.69,0,0,0,385.1,201.7Zm10.54-22.55a.69.69,0,0,0-.69-.69h-7.4a.7.7,0,1,0,0,1.39H395A.69.69,0,0,0,395.64,179.15Zm0,3.22a.69.69,0,0,0-.69-.69h-7.4a.7.7,0,1,0,0,1.39H395A.69.69,0,0,0,395.64,182.37Zm0,3.22a.69.69,0,0,0-.69-.69h-7.4a.7.7,0,1,0,0,1.39H395A.69.69,0,0,0,395.64,185.59Zm0,3.23a.69.69,0,0,0-.69-.7h-7.4a.7.7,0,1,0,0,1.39H395A.69.69,0,0,0,395.64,188.82Zm0,3.22a.69.69,0,0,0-.69-.7h-7.4a.7.7,0,1,0,0,1.39H395A.69.69,0,0,0,395.64,192Zm8.86,3.22a.7.7,0,0,0-.7-.7h-7.39a.7.7,0,1,0,0,1.39h7.39A.69.69,0,0,0,404.5,195.26Zm0,3.22a.7.7,0,0,0-.7-.7h-7.39a.7.7,0,1,0,0,1.39h7.39A.69.69,0,0,0,404.5,198.48Zm0,3.22a.7.7,0,0,0-.7-.7h-7.39a.7.7,0,1,0,0,1.39h7.39A.69.69,0,0,0,404.5,201.7Zm-5.6-22.55a.81.81,0,1,0-.81.81A.8.8,0,0,0,398.9,179.15Zm2.41,0a.81.81,0,1,0-.8.81A.8.8,0,0,0,401.31,179.15Zm2.42,0a.81.81,0,1,0-.81.81A.8.8,0,0,0,403.73,179.15Zm2.41,0a.81.81,0,1,0-.8.81A.8.8,0,0,0,406.14,179.15Zm2.42,0a.81.81,0,1,0-.81.81A.8.8,0,0,0,408.56,179.15Zm2.42,0a.81.81,0,1,0-.81.81A.81.81,0,0,0,411,179.15Zm-12.08,6.44a.81.81,0,1,0-.81.81A.8.8,0,0,0,398.9,185.59Zm2.41,0a.81.81,0,1,0-.8.81A.8.8,0,0,0,401.31,185.59Zm2.42,0a.81.81,0,1,0-.81.81A.8.8,0,0,0,403.73,185.59Zm2.41,0a.81.81,0,1,0-.8.81A.8.8,0,0,0,406.14,185.59Zm2.42,0a.81.81,0,1,0-.81.81A.8.8,0,0,0,408.56,185.59Zm2.42,0a.81.81,0,1,0-.81.81A.81.81,0,0,0,411,185.59Zm-3.83,9.26a.81.81,0,1,0-.81.81A.8.8,0,0,0,407.15,194.85Zm2.42,0a.81.81,0,1,0-.81.81A.8.8,0,0,0,409.57,194.85Zm2.41,0a.81.81,0,1,0-.8.81A.8.8,0,0,0,412,194.85Zm2.42,0a.81.81,0,1,0-.81.81A.8.8,0,0,0,414.4,194.85Zm2.41,0a.81.81,0,1,0-.8.81A.8.8,0,0,0,416.81,194.85Zm2.42,0a.81.81,0,1,0-.81.81A.8.8,0,0,0,419.23,194.85Zm-12.08,6.65a.81.81,0,1,0-.81.8A.81.81,0,0,0,407.15,201.5Zm2.42,0a.81.81,0,1,0-.81.8A.81.81,0,0,0,409.57,201.5Zm2.41,0a.81.81,0,1,0-.8.8A.8.8,0,0,0,412,201.5Zm2.42,0a.81.81,0,1,0-.81.8A.81.81,0,0,0,414.4,201.5Zm2.41,0a.81.81,0,1,0-.8.8A.8.8,0,0,0,416.81,201.5Zm2.42,0a.81.81,0,1,0-.81.8A.81.81,0,0,0,419.23,201.5Z" style="fill:#DF0000"></path><path d="M427.67,127.68h-2.82a.7.7,0,0,1,0-1.39h2.82a.7.7,0,1,1,0,1.39Zm.7,2.52a.69.69,0,0,0-.7-.69h-2.82a.7.7,0,0,0,0,1.39h2.82A.7.7,0,0,0,428.37,130.2Zm0,3.23a.7.7,0,0,0-.7-.7h-2.82a.7.7,0,0,0,0,1.39h2.82A.69.69,0,0,0,428.37,133.43Zm0,3.22a.7.7,0,0,0-.7-.7h-2.82a.7.7,0,0,0,0,1.39h2.82A.69.69,0,0,0,428.37,136.65Zm0,3.22a.7.7,0,0,0-.7-.7h-2.82a.7.7,0,0,0,0,1.39h2.82A.69.69,0,0,0,428.37,139.87Zm0,3.22a.7.7,0,0,0-.7-.7h-2.82a.7.7,0,0,0,0,1.39h2.82A.69.69,0,0,0,428.37,143.09Zm0,3.22a.7.7,0,0,0-.7-.7h-2.82a.7.7,0,0,0,0,1.39h2.82A.69.69,0,0,0,428.37,146.31Zm0,3.22a.7.7,0,0,0-.7-.7h-2.82a.7.7,0,0,0-.69.7.69.69,0,0,0,.69.69h2.82A.69.69,0,0,0,428.37,149.53ZM438.91,127a.69.69,0,0,0-.7-.69h-7.39a.7.7,0,1,0,0,1.39h7.39A.7.7,0,0,0,438.91,127Zm0,3.22a.69.69,0,0,0-.7-.69h-7.39a.7.7,0,1,0,0,1.39h7.39A.7.7,0,0,0,438.91,130.2Zm0,3.23a.7.7,0,0,0-.7-.7h-7.39a.7.7,0,1,0,0,1.39h7.39A.69.69,0,0,0,438.91,133.43Zm0,3.22a.7.7,0,0,0-.7-.7h-7.39a.7.7,0,1,0,0,1.39h7.39A.69.69,0,0,0,438.91,136.65Zm0,3.22a.7.7,0,0,0-.7-.7h-7.39a.7.7,0,1,0,0,1.39h7.39A.69.69,0,0,0,438.91,139.87Zm8.86,3.22a.7.7,0,0,0-.7-.7h-7.4a.7.7,0,0,0,0,1.39h7.4A.69.69,0,0,0,447.77,143.09Zm0,3.22a.7.7,0,0,0-.7-.7h-7.4a.7.7,0,0,0,0,1.39h7.4A.69.69,0,0,0,447.77,146.31Zm0,3.22a.7.7,0,0,0-.7-.7h-7.4a.7.7,0,0,0-.69.7.69.69,0,0,0,.69.69h7.4A.69.69,0,0,0,447.77,149.53ZM442.17,127a.81.81,0,0,0-.81-.8.81.81,0,0,0,0,1.61A.81.81,0,0,0,442.17,127Zm2.41,0a.81.81,0,1,0-.8.81A.8.8,0,0,0,444.58,127Zm2.42,0a.81.81,0,1,0-.81.81A.8.8,0,0,0,447,127Zm2.41,0a.81.81,0,1,0-.8.81A.8.8,0,0,0,449.41,127Zm2.42,0a.81.81,0,1,0-.81.81A.8.8,0,0,0,451.83,127Zm2.41,0a.81.81,0,1,0-.8.81A.8.8,0,0,0,454.24,127Zm-12.07,6.45a.81.81,0,0,0-.81-.81.81.81,0,1,0,.81.81Zm2.41,0a.81.81,0,1,0-.8.8A.8.8,0,0,0,444.58,133.43Zm2.42,0a.81.81,0,1,0-.81.8A.81.81,0,0,0,447,133.43Zm2.41,0a.81.81,0,1,0-.8.8A.8.8,0,0,0,449.41,133.43Zm2.42,0a.81.81,0,1,0-.81.8A.81.81,0,0,0,451.83,133.43Zm2.41,0a.81.81,0,1,0-.8.8A.8.8,0,0,0,454.24,133.43Zm-3.82,9.26a.81.81,0,1,0-.81.8A.81.81,0,0,0,450.42,142.69Zm2.41,0a.81.81,0,1,0-.8.8A.8.8,0,0,0,452.83,142.69Zm2.42,0a.81.81,0,1,0-.8.8A.8.8,0,0,0,455.25,142.69Zm2.42,0a.81.81,0,1,0-.81.8A.81.81,0,0,0,457.67,142.69Zm2.41,0a.81.81,0,1,0-.8.8A.8.8,0,0,0,460.08,142.69Zm2.42,0a.81.81,0,1,0-.81.8A.81.81,0,0,0,462.5,142.69Zm-12.08,6.64a.81.81,0,1,0-.81.8A.81.81,0,0,0,450.42,149.33Zm2.41,0a.81.81,0,1,0-.8.8A.8.8,0,0,0,452.83,149.33Zm2.42,0a.81.81,0,1,0-.8.8A.8.8,0,0,0,455.25,149.33Zm2.42,0a.81.81,0,1,0-.81.8A.81.81,0,0,0,457.67,149.33Zm2.41,0a.81.81,0,1,0-.8.8A.8.8,0,0,0,460.08,149.33Zm2.42,0a.81.81,0,1,0-.81.8A.81.81,0,0,0,462.5,149.33Z" style="fill:#DF0000"></path><path d="M427.67,154.07h-2.82a.69.69,0,0,1-.69-.69.7.7,0,0,1,.69-.7h2.82a.7.7,0,0,1,.7.7A.69.69,0,0,1,427.67,154.07Zm.7,2.53a.69.69,0,0,0-.7-.69h-2.82a.69.69,0,0,0-.69.69.7.7,0,0,0,.69.7h2.82A.7.7,0,0,0,428.37,156.6Zm0,3.22a.69.69,0,0,0-.7-.69h-2.82a.7.7,0,0,0,0,1.39h2.82A.7.7,0,0,0,428.37,159.82Zm0,3.22a.69.69,0,0,0-.7-.69h-2.82a.7.7,0,0,0,0,1.39h2.82A.7.7,0,0,0,428.37,163Zm0,3.22a.69.69,0,0,0-.7-.69h-2.82a.7.7,0,0,0,0,1.39h2.82A.7.7,0,0,0,428.37,166.26Zm0,3.22a.69.69,0,0,0-.7-.69h-2.82a.7.7,0,0,0,0,1.39h2.82A.7.7,0,0,0,428.37,169.48Zm0,3.22a.69.69,0,0,0-.7-.69h-2.82a.7.7,0,0,0,0,1.39h2.82A.7.7,0,0,0,428.37,172.7Zm0,3.23a.7.7,0,0,0-.7-.7h-2.82a.7.7,0,0,0,0,1.39h2.82A.69.69,0,0,0,428.37,175.93Zm10.54-22.55a.7.7,0,0,0-.7-.7h-7.39a.7.7,0,0,0-.7.7.69.69,0,0,0,.7.69h7.39A.69.69,0,0,0,438.91,153.38Zm0,3.22a.69.69,0,0,0-.7-.69h-7.39a.69.69,0,0,0-.7.69.7.7,0,0,0,.7.7h7.39A.7.7,0,0,0,438.91,156.6Zm0,3.22a.69.69,0,0,0-.7-.69h-7.39a.7.7,0,1,0,0,1.39h7.39A.7.7,0,0,0,438.91,159.82Zm0,3.22a.69.69,0,0,0-.7-.69h-7.39a.7.7,0,1,0,0,1.39h7.39A.7.7,0,0,0,438.91,163Zm0,3.22a.69.69,0,0,0-.7-.69h-7.39a.7.7,0,1,0,0,1.39h7.39A.7.7,0,0,0,438.91,166.26Zm8.86,3.22a.69.69,0,0,0-.7-.69h-7.4a.7.7,0,0,0,0,1.39h7.4A.7.7,0,0,0,447.77,169.48Zm0,3.22a.69.69,0,0,0-.7-.69h-7.4a.7.7,0,0,0,0,1.39h7.4A.7.7,0,0,0,447.77,172.7Zm0,3.23a.7.7,0,0,0-.7-.7h-7.4a.7.7,0,0,0,0,1.39h7.4A.69.69,0,0,0,447.77,175.93Zm-5.6-22.55a.81.81,0,0,0-.81-.81.81.81,0,1,0,.81.81Zm2.41,0a.81.81,0,1,0-.8.8A.8.8,0,0,0,444.58,153.38Zm2.42,0a.81.81,0,1,0-.81.8A.81.81,0,0,0,447,153.38Zm2.41,0a.81.81,0,1,0-.8.8A.8.8,0,0,0,449.41,153.38Zm2.42,0a.81.81,0,1,0-.81.8A.81.81,0,0,0,451.83,153.38Zm2.41,0a.81.81,0,1,0-.8.8A.8.8,0,0,0,454.24,153.38Zm-12.07,6.44a.81.81,0,0,0-.81-.8.81.81,0,0,0,0,1.61A.81.81,0,0,0,442.17,159.82Zm2.41,0a.81.81,0,1,0-.8.81A.8.8,0,0,0,444.58,159.82Zm2.42,0a.81.81,0,1,0-.81.81A.8.8,0,0,0,447,159.82Zm2.41,0a.81.81,0,1,0-.8.81A.8.8,0,0,0,449.41,159.82Zm2.42,0a.81.81,0,1,0-.81.81A.8.8,0,0,0,451.83,159.82Zm2.41,0a.81.81,0,1,0-.8.81A.8.8,0,0,0,454.24,159.82Zm-3.82,9.26a.81.81,0,1,0-.81.81A.8.8,0,0,0,450.42,169.08Zm2.41,0a.81.81,0,1,0-.8.81A.8.8,0,0,0,452.83,169.08Zm2.42,0a.81.81,0,1,0-.8.81A.8.8,0,0,0,455.25,169.08Zm2.42,0a.81.81,0,1,0-.81.81A.8.8,0,0,0,457.67,169.08Zm2.41,0a.81.81,0,1,0-.8.81A.8.8,0,0,0,460.08,169.08Zm2.42,0a.81.81,0,1,0-.81.81A.8.8,0,0,0,462.5,169.08Zm-12.08,6.64a.81.81,0,1,0-.81.81A.8.8,0,0,0,450.42,175.72Zm2.41,0a.81.81,0,1,0-.8.81A.8.8,0,0,0,452.83,175.72Zm2.42,0a.81.81,0,1,0-.8.81A.8.8,0,0,0,455.25,175.72Zm2.42,0a.81.81,0,1,0-.81.81A.8.8,0,0,0,457.67,175.72Zm2.41,0a.81.81,0,1,0-.8.81A.8.8,0,0,0,460.08,175.72Zm2.42,0a.81.81,0,1,0-.81.81A.8.8,0,0,0,462.5,175.72Z" style="fill:#DF0000"></path><rect x="347.39" y="226.85" width="26.16" height="21.51" style="fill:#fff;stroke:#8f8f8f;stroke-miterlimit:10"></rect><polyline points="347.68 238.47 357.56 232.08 363.37 239.93 368.31 237.31 372.96 242.83" style="fill:none;stroke:#8f8f8f;stroke-miterlimit:10"></polyline><path d="M370.35,232.08a3.2,3.2,0,1,1-3.2-3.2A3.2,3.2,0,0,1,370.35,232.08Z" style="fill:none;stroke:#8f8f8f;stroke-miterlimit:10"></path><line x1="125.88" y1="373.42" x2="156.61" y2="373.42" style="fill:none;stroke:#8f8f8f;stroke-miterlimit:10"></line><rect x="127.93" y="360.97" width="4.44" height="12.14" style="fill:#DF0000"></rect><rect x="135.44" y="351.06" width="4.44" height="22.04" style="fill:#DF0000"></rect><rect x="142.95" y="354.9" width="4.44" height="18.21" style="fill:#DF0000"></rect><rect x="150.46" y="365.44" width="4.44" height="7.67" style="fill:#DF0000"></rect><circle cx="140.54" cy="364.08" r="20.67" style="fill:none;stroke:#8f8f8f;stroke-miterlimit:10"></circle></g></svg>