<svg width="652" height="744" viewBox="0 0 652 744" fill="none" xmlns="http://www.w3.org/2000/svg">
<g clip-path="url(#clip0)">
<line x1="271" y1="370.5" x2="368" y2="370.5" stroke="#FF5454" stroke-width="3" stroke-dasharray="6 6"/>
<path d="M254 343C296.486 325.145 340.979 323.539 385 343" stroke="#FF5454" stroke-width="3" stroke-dasharray="6 6"/>
<path d="M254 400C296.486 417.855 340.979 419.461 385 400" stroke="#FF5454" stroke-width="3" stroke-dasharray="6 6"/>
<path d="M914.245 341.156C915.02 347.815 915.544 354.552 915.805 361.356L914.806 361.394C914.935 364.747 915 368.116 915 371.5C915 374.884 914.935 378.253 914.806 381.606L915.805 381.644C915.544 388.448 915.02 395.185 914.245 401.844L913.251 401.728C912.468 408.456 911.426 415.104 910.136 421.663L911.117 421.856C909.806 428.523 908.239 435.098 906.428 441.57L905.465 441.301C903.644 447.808 901.574 454.211 899.267 460.499L900.206 460.843C897.87 467.21 895.291 473.459 892.482 479.579L891.573 479.162C888.758 485.294 885.709 491.296 882.439 497.156L883.313 497.644C880.014 503.555 876.492 509.322 872.756 514.935L871.924 514.381C868.19 519.991 864.242 525.445 860.092 530.732L860.879 531.35C856.705 536.668 852.327 541.818 847.758 546.787L847.022 546.11C842.466 551.065 837.719 555.839 832.793 560.422L833.474 561.154C828.529 565.754 823.405 570.161 818.112 574.363L817.49 573.58C812.225 577.761 806.792 581.738 801.204 585.501L801.763 586.331C796.169 590.098 790.42 593.65 784.527 596.977L784.035 596.106C778.189 599.406 772.202 602.482 766.084 605.324L766.505 606.231C760.397 609.068 754.159 611.672 747.803 614.032L747.455 613.094C741.174 615.425 734.779 617.517 728.278 619.357L728.55 620.32C722.083 622.151 715.511 623.735 708.848 625.061L708.653 624.08C702.097 625.385 695.451 626.439 688.726 627.231L688.843 628.224C682.184 629.009 675.448 629.539 668.644 629.803L668.605 628.804C665.253 628.934 661.884 629 658.5 629C655.116 629 651.747 628.934 648.395 628.804L648.356 629.803C641.552 629.539 634.816 629.009 628.157 628.224L628.274 627.231C621.549 626.439 614.903 625.385 608.347 624.08L608.152 625.061C601.489 623.735 594.918 622.151 588.45 620.32L588.722 619.357C582.222 617.517 575.826 615.425 569.545 613.094L569.197 614.032C562.841 611.672 556.604 609.068 550.495 606.231L550.916 605.324C544.798 602.482 538.811 599.406 532.965 596.106L532.473 596.977C526.58 593.65 520.831 590.098 515.237 586.331L515.796 585.501C510.208 581.738 504.775 577.761 499.51 573.58L498.888 574.363C493.595 570.161 488.471 565.754 483.526 561.154L484.207 560.422C479.281 555.839 474.534 551.065 469.978 546.11L469.242 546.787C464.673 541.818 460.295 536.668 456.121 531.35L456.908 530.732C452.758 525.445 448.811 519.991 445.076 514.381L444.244 514.935C440.508 509.322 436.986 503.555 433.687 497.644L434.561 497.156C431.291 491.296 428.242 485.294 425.427 479.162L424.518 479.579C421.709 473.459 419.13 467.21 416.794 460.843L417.733 460.499C415.426 454.211 413.356 447.808 411.535 441.301L410.572 441.57C408.761 435.098 407.194 428.523 405.883 421.856L406.864 421.663C405.574 415.104 404.532 408.456 403.749 401.728L402.755 401.844C401.98 395.185 401.456 388.448 401.195 381.644L402.194 381.606C402.065 378.253 402 374.884 402 371.5C402 368.116 402.065 364.747 402.194 361.394L401.195 361.356C401.456 354.552 401.98 347.815 402.755 341.156L403.749 341.272C404.532 334.544 405.574 327.896 406.864 321.337L405.883 321.144C407.194 314.477 408.761 307.902 410.572 301.43L411.535 301.699C413.356 295.192 415.426 288.789 417.733 282.501L416.794 282.157C419.13 275.79 421.709 269.541 424.518 263.421L425.427 263.838C428.242 257.706 431.291 251.704 434.561 245.844L433.687 245.356C436.986 239.445 440.508 233.678 444.244 228.065L445.076 228.619C448.81 223.009 452.758 217.555 456.908 212.268L456.121 211.65C460.295 206.332 464.673 201.182 469.242 196.213L469.978 196.89C474.534 191.935 479.281 187.161 484.207 182.578L483.526 181.846C488.471 177.246 493.595 172.839 498.888 168.637L499.51 169.42C504.775 165.239 510.208 161.262 515.796 157.499L515.237 156.669C520.831 152.902 526.58 149.35 532.473 146.023L532.965 146.894C538.811 143.594 544.798 140.518 550.916 137.676L550.495 136.769C556.604 133.932 562.841 131.328 569.197 128.968L569.545 129.906C575.826 127.575 582.221 125.483 588.722 123.643L588.45 122.68C594.917 120.849 601.489 119.265 608.152 117.939L608.347 118.92C614.903 117.615 621.549 116.561 628.274 115.769L628.157 114.776C634.816 113.991 641.552 113.461 648.356 113.197L648.395 114.196C651.747 114.066 655.116 114 658.5 114C661.884 114 665.253 114.066 668.605 114.196L668.644 113.197C675.448 113.461 682.184 113.991 688.843 114.776L688.726 115.769C695.451 116.561 702.097 117.615 708.653 118.92L708.848 117.939C715.511 119.265 722.083 120.849 728.55 122.68L728.278 123.643C734.778 125.483 741.174 127.575 747.454 129.906L747.803 128.968C754.159 131.328 760.396 133.932 766.505 136.769L766.084 137.676C772.202 140.518 778.189 143.594 784.035 146.894L784.527 146.023C790.42 149.35 796.169 152.902 801.763 156.669L801.204 157.499C806.792 161.262 812.225 165.239 817.49 169.42L818.112 168.637C823.405 172.839 828.529 177.246 833.474 181.845L832.793 182.578C837.719 187.161 842.466 191.935 847.022 196.89L847.758 196.213C852.327 201.182 856.705 206.332 860.879 211.65L860.092 212.268C864.242 217.555 868.189 223.009 871.924 228.619L872.756 228.065C876.492 233.678 880.014 239.445 883.313 245.356L882.439 245.844C885.709 251.704 888.758 257.706 891.573 263.838L892.482 263.421C895.291 269.541 897.87 275.79 900.206 282.157L899.267 282.501C901.574 288.789 903.644 295.192 905.465 301.699L906.428 301.43C908.239 307.902 909.806 314.477 911.117 321.144L910.136 321.337C911.426 327.896 912.468 334.544 913.251 341.272L914.245 341.156Z" stroke="#CECECE" stroke-width="2" stroke-dasharray="20 20"/>
<path d="M-274.245 341.156C-275.02 347.815 -275.544 354.552 -275.805 361.356L-274.806 361.394C-274.935 364.747 -275 368.116 -275 371.5C-275 374.884 -274.935 378.253 -274.806 381.606L-275.805 381.644C-275.544 388.448 -275.02 395.185 -274.245 401.844L-273.251 401.728C-272.468 408.456 -271.426 415.104 -270.136 421.663L-271.117 421.856C-269.806 428.523 -268.239 435.098 -266.428 441.57L-265.465 441.301C-263.644 447.808 -261.574 454.211 -259.267 460.499L-260.206 460.843C-257.87 467.21 -255.291 473.459 -252.482 479.579L-251.573 479.162C-248.758 485.294 -245.709 491.296 -242.439 497.156L-243.313 497.644C-240.014 503.555 -236.492 509.322 -232.756 514.935L-231.924 514.381C-228.19 519.991 -224.242 525.445 -220.092 530.732L-220.879 531.35C-216.705 536.668 -212.327 541.818 -207.758 546.787L-207.022 546.11C-202.466 551.065 -197.719 555.839 -192.793 560.422L-193.474 561.154C-188.529 565.754 -183.405 570.161 -178.112 574.363L-177.49 573.58C-172.225 577.761 -166.792 581.738 -161.204 585.501L-161.763 586.331C-156.169 590.098 -150.42 593.65 -144.527 596.977L-144.035 596.106C-138.189 599.406 -132.202 602.482 -126.084 605.324L-126.505 606.231C-120.397 609.068 -114.159 611.672 -107.803 614.032L-107.455 613.094C-101.174 615.425 -94.7785 617.517 -88.2779 619.357L-88.5503 620.32C-82.0825 622.151 -75.5114 623.735 -68.8479 625.061L-68.6527 624.08C-62.0968 625.385 -55.451 626.439 -48.7255 627.231L-48.8426 628.224C-42.184 629.009 -35.4478 629.539 -28.6438 629.803L-28.605 628.804C-25.2528 628.934 -21.8841 629 -18.5 629C-15.1159 629 -11.7472 628.934 -8.39502 628.804L-8.35616 629.803C-1.5522 629.539 5.18402 629.009 11.8426 628.224L11.7255 627.231C18.451 626.439 25.0968 625.385 31.6527 624.08L31.8478 625.061C38.5114 623.735 45.0825 622.151 51.5503 620.32L51.2778 619.357C57.7785 617.517 64.1744 615.425 70.4545 613.094L70.8025 614.032C77.1586 611.672 83.3965 609.068 89.5049 606.231L89.0837 605.324C95.2017 602.482 101.189 599.406 107.035 596.106L107.527 596.977C113.42 593.65 119.169 590.098 124.763 586.331L124.204 585.501C129.792 581.738 135.225 577.761 140.49 573.58L141.112 574.363C146.405 570.161 151.529 565.754 156.474 561.154L155.793 560.422C160.719 555.839 165.466 551.065 170.022 546.11L170.758 546.787C175.327 541.818 179.705 536.668 183.879 531.35L183.092 530.732C187.242 525.445 191.189 519.991 194.924 514.381L195.756 514.935C199.492 509.322 203.014 503.555 206.313 497.644L205.439 497.156C208.709 491.296 211.758 485.294 214.573 479.162L215.482 479.579C218.291 473.459 220.87 467.21 223.206 460.843L222.267 460.499C224.574 454.211 226.644 447.808 228.465 441.301L229.428 441.57C231.239 435.098 232.806 428.523 234.117 421.856L233.136 421.663C234.426 415.104 235.468 408.456 236.251 401.728L237.245 401.844C238.02 395.185 238.544 388.448 238.805 381.644L237.806 381.606C237.935 378.253 238 374.884 238 371.5C238 368.116 237.935 364.747 237.806 361.394L238.805 361.356C238.544 354.552 238.02 347.815 237.245 341.156L236.251 341.272C235.468 334.544 234.426 327.896 233.136 321.337L234.117 321.144C232.806 314.477 231.239 307.902 229.428 301.43L228.465 301.699C226.644 295.192 224.574 288.789 222.267 282.501L223.206 282.157C220.87 275.79 218.291 269.541 215.482 263.421L214.573 263.838C211.758 257.706 208.709 251.704 205.439 245.844L206.313 245.356C203.014 239.445 199.492 233.678 195.756 228.065L194.924 228.619C191.19 223.009 187.242 217.555 183.092 212.268L183.879 211.65C179.705 206.332 175.327 201.182 170.758 196.213L170.022 196.89C165.466 191.935 160.719 187.161 155.793 182.578L156.474 181.846C151.529 177.246 146.405 172.839 141.112 168.637L140.49 169.42C135.225 165.239 129.792 161.262 124.204 157.499L124.763 156.669C119.169 152.902 113.42 149.35 107.527 146.023L107.035 146.894C101.189 143.594 95.2017 140.518 89.0837 137.676L89.505 136.769C83.3965 133.932 77.1586 131.328 70.8025 128.968L70.4545 129.906C64.1744 127.575 57.7785 125.483 51.2779 123.643L51.5503 122.68C45.0825 120.849 38.5115 119.265 31.8479 117.939L31.6527 118.92C25.0968 117.615 18.451 116.561 11.7255 115.769L11.8426 114.776C5.18404 113.991 -1.5522 113.461 -8.35616 113.197L-8.395 114.196C-11.7472 114.066 -15.1159 114 -18.5 114C-21.8841 114 -25.2528 114.066 -28.605 114.196L-28.6438 113.197C-35.4478 113.461 -42.184 113.991 -48.8426 114.776L-48.7255 115.769C-55.451 116.561 -62.0968 117.615 -68.6527 118.92L-68.8478 117.939C-75.5114 119.265 -82.0825 120.849 -88.5503 122.68L-88.2778 123.643C-94.7785 125.483 -101.174 127.575 -107.454 129.906L-107.803 128.968C-114.159 131.328 -120.396 133.932 -126.505 136.769L-126.084 137.676C-132.202 140.518 -138.189 143.594 -144.035 146.894L-144.527 146.023C-150.42 149.35 -156.169 152.902 -161.763 156.669L-161.204 157.499C-166.792 161.262 -172.225 165.239 -177.49 169.42L-178.112 168.637C-183.405 172.839 -188.529 177.246 -193.474 181.845L-192.793 182.578C-197.719 187.161 -202.466 191.935 -207.022 196.89L-207.758 196.213C-212.327 201.182 -216.705 206.332 -220.879 211.65L-220.092 212.268C-224.242 217.555 -228.189 223.009 -231.924 228.619L-232.756 228.065C-236.492 233.678 -240.014 239.445 -243.313 245.356L-242.439 245.844C-245.709 251.704 -248.758 257.706 -251.573 263.838L-252.482 263.421C-255.291 269.541 -257.87 275.79 -260.206 282.157L-259.267 282.501C-261.574 288.789 -263.644 295.192 -265.465 301.699L-266.428 301.43C-268.239 307.902 -269.806 314.477 -271.117 321.144L-270.136 321.337C-271.426 327.896 -272.468 334.544 -273.251 341.272L-274.245 341.156Z" stroke="#CECECE" stroke-width="2" stroke-dasharray="20 20"/>
<path d="M-173.021 340.66C-174.332 347.351 -175.224 354.192 -175.67 361.156L-174.672 361.22C-174.89 364.618 -175 368.046 -175 371.5C-175 374.954 -174.89 378.382 -174.672 381.78L-175.67 381.844C-175.224 388.808 -174.332 395.649 -173.021 402.34L-172.039 402.147C-170.709 408.933 -168.947 415.562 -166.781 422.004L-167.729 422.323C-165.518 428.899 -162.89 435.282 -159.877 441.44L-158.978 441C-155.954 447.179 -152.539 453.13 -148.766 458.82L-149.599 459.373C-145.78 465.132 -141.595 470.626 -137.079 475.82L-136.325 475.164C-131.826 480.338 -126.997 485.213 -121.87 489.756L-122.533 490.505C-117.377 495.073 -111.922 499.307 -106.201 503.174L-105.641 502.345C-99.9804 506.171 -94.0582 509.635 -87.907 512.703L-88.3534 513.598C-82.2147 516.66 -75.8493 519.331 -69.2893 521.578L-68.9652 520.632C-62.5334 522.836 -55.9135 524.63 -49.1358 525.984L-49.3317 526.964C-42.645 528.3 -35.8059 529.209 -28.8435 529.664L-28.7784 528.666C-25.3808 528.887 -21.9535 529 -18.5 529C-15.0465 529 -11.6192 528.887 -8.22165 528.666L-8.15654 529.664C-1.19415 529.209 5.64494 528.3 12.3316 526.964L12.1358 525.984C18.9134 524.63 25.5334 522.836 31.9651 520.632L32.2893 521.578C38.8493 519.331 45.2147 516.66 51.3533 513.598L50.907 512.703C57.0582 509.635 62.9804 506.171 68.6408 502.345L69.2008 503.174C74.9219 499.307 80.3772 495.073 85.5332 490.505L84.87 489.756C89.9971 485.213 94.8264 480.338 99.3247 475.164L100.079 475.82C104.595 470.626 108.78 465.132 112.599 459.373L111.766 458.82C115.539 453.13 118.954 447.18 121.978 441L122.876 441.44C125.89 435.282 128.518 428.899 130.729 422.323L129.781 422.004C131.947 415.562 133.709 408.933 135.039 402.147L136.021 402.34C137.332 395.649 138.224 388.808 138.67 381.844L137.672 381.78C137.89 378.382 138 374.954 138 371.5C138 368.046 137.89 364.618 137.672 361.22L138.67 361.156C138.224 354.192 137.332 347.351 136.021 340.66L135.039 340.853C133.709 334.067 131.947 327.438 129.781 320.996L130.729 320.677C128.518 314.101 125.89 307.718 122.877 301.56L121.978 302C118.954 295.821 115.539 289.87 111.766 284.18L112.599 283.627C108.78 277.868 104.595 272.374 100.079 267.18L99.3248 267.836C94.8265 262.662 89.9971 257.787 84.87 253.244L85.5332 252.495C80.3772 247.927 74.922 243.693 69.2008 239.826L68.6409 240.655C62.9804 236.829 57.0582 233.365 50.907 230.297L51.3534 229.402C45.2147 226.34 38.8493 223.669 32.2893 221.422L31.9652 222.368C25.5334 220.164 18.9134 218.37 12.1358 217.016L12.3317 216.036C5.64497 214.7 -1.19412 213.791 -8.15651 213.336L-8.22162 214.334C-11.6192 214.113 -15.0465 214 -18.5 214C-21.9535 214 -25.3808 214.113 -28.7784 214.334L-28.8434 213.336C-35.8058 213.791 -42.6449 214.7 -49.3316 216.036L-49.1358 217.016C-55.9134 218.37 -62.5334 220.164 -68.9651 222.368L-69.2892 221.422C-75.8493 223.669 -82.2147 226.34 -88.3533 229.402L-87.907 230.297C-94.0582 233.365 -99.9804 236.829 -105.641 240.655L-106.201 239.826C-111.922 243.693 -117.377 247.927 -122.533 252.495L-121.87 253.244C-126.997 257.787 -131.826 262.662 -136.325 267.836L-137.079 267.18C-141.595 272.374 -145.78 277.868 -149.599 283.627L-148.766 284.18C-152.539 289.87 -155.954 295.82 -158.978 302L-159.876 301.56C-162.89 307.718 -165.518 314.101 -167.729 320.677L-166.781 320.996C-168.947 327.438 -170.709 334.067 -172.039 340.853L-173.021 340.66Z" stroke="#CECECE" stroke-width="2" stroke-dasharray="20 20"/>
<circle r="37.5" transform="matrix(-1 0 0 1 149.5 175.5)" fill="#393939"/>
<circle r="37.5" transform="matrix(-1 0 0 1 149.5 567.5)" fill="#393939"/>
<circle cx="490.5" cy="175.5" r="37.5" fill="#393939"/>
<circle cx="490.5" cy="567.5" r="37.5" fill="#393939"/>
<path d="M225.477 -31.2931C223.519 -24.7378 222.17 -17.9159 221.496 -10.8945L222.492 -10.799C222.166 -7.41064 222 -3.97508 222 -0.5C222 2.97508 222.166 6.41064 222.492 9.79903L221.496 9.89455C222.17 16.9159 223.519 23.7378 225.477 30.2931L226.435 30.0069C228.422 36.6596 231.043 43.0352 234.226 49.0623L233.341 49.5293C236.599 55.6974 240.44 61.504 244.79 66.8738L245.567 66.2443C249.9 71.5936 254.744 76.5053 260.022 80.9038L259.382 81.672C264.701 86.1043 270.457 90.0204 276.576 93.3445L277.053 92.4658C283.05 95.7237 289.399 98.4073 296.026 100.444L295.732 101.4C302.277 103.411 309.091 104.797 316.107 105.49L316.205 104.495C319.592 104.829 323.026 105 326.5 105C329.974 105 333.408 104.829 336.795 104.495L336.893 105.49C343.909 104.797 350.723 103.411 357.268 101.4L356.974 100.444C363.601 98.4073 369.95 95.7237 375.947 92.4658L376.424 93.3445C382.543 90.0204 388.299 86.1043 393.618 81.672L392.978 80.9038C398.256 76.5053 403.1 71.5936 407.433 66.2443L408.21 66.8738C412.56 61.504 416.401 55.6974 419.659 49.5293L418.774 49.0623C421.957 43.0352 424.578 36.6596 426.565 30.0069L427.523 30.2931C429.481 23.7378 430.83 16.9159 431.504 9.89455L430.508 9.79903C430.834 6.41064 431 2.97508 431 -0.5C431 -3.97508 430.834 -7.41064 430.508 -10.799L431.504 -10.8945C430.83 -17.9159 429.481 -24.7378 427.523 -31.2931L426.565 -31.0069C424.578 -37.6596 421.957 -44.0352 418.774 -50.0623L419.659 -50.5293C416.401 -56.6974 412.56 -62.504 408.21 -67.8738L407.433 -67.2443C403.1 -72.5936 398.256 -77.5053 392.978 -81.9038L393.618 -82.672C388.299 -87.1043 382.543 -91.0204 376.424 -94.3445L375.947 -93.4658C369.95 -96.7237 363.601 -99.4073 356.974 -101.444L357.268 -102.4C350.723 -104.411 343.909 -105.797 336.893 -106.49L336.795 -105.495C333.408 -105.829 329.974 -106 326.5 -106C323.026 -106 319.592 -105.829 316.205 -105.495L316.107 -106.49C309.091 -105.797 302.277 -104.411 295.732 -102.4L296.026 -101.444C289.399 -99.4073 283.05 -96.7237 277.053 -93.4658L276.576 -94.3445C270.457 -91.0204 264.701 -87.1043 259.382 -82.672L260.022 -81.9038C254.744 -77.5053 249.9 -72.5936 245.567 -67.2443L244.79 -67.8738C240.44 -62.5039 236.599 -56.6974 233.341 -50.5293L234.226 -50.0623C231.043 -44.0352 228.422 -37.6596 226.435 -31.0069L225.477 -31.2931Z" stroke="#CECECE" stroke-width="2" stroke-dasharray="20 20"/>
<path d="M225.477 712.707C223.519 719.262 222.17 726.084 221.496 733.105L222.492 733.201C222.166 736.589 222 740.025 222 743.5C222 746.975 222.166 750.411 222.492 753.799L221.496 753.895C222.17 760.916 223.519 767.738 225.477 774.293L226.435 774.007C228.422 780.66 231.043 787.035 234.226 793.062L233.341 793.529C236.599 799.697 240.44 805.504 244.79 810.874L245.567 810.244C249.9 815.594 254.744 820.505 260.022 824.904L259.382 825.672C264.701 830.104 270.457 834.02 276.576 837.345L277.053 836.466C283.05 839.724 289.399 842.407 296.026 844.444L295.732 845.4C302.277 847.411 309.091 848.797 316.107 849.49L316.205 848.495C319.592 848.829 323.026 849 326.5 849C329.974 849 333.408 848.829 336.795 848.495L336.893 849.49C343.909 848.797 350.723 847.411 357.268 845.4L356.974 844.444C363.601 842.407 369.95 839.724 375.947 836.466L376.424 837.345C382.543 834.02 388.299 830.104 393.618 825.672L392.978 824.904C398.256 820.505 403.1 815.594 407.433 810.244L408.21 810.874C412.56 805.504 416.401 799.697 419.659 793.529L418.774 793.062C421.957 787.035 424.578 780.66 426.565 774.007L427.523 774.293C429.481 767.738 430.83 760.916 431.504 753.895L430.508 753.799C430.834 750.411 431 746.975 431 743.5C431 740.025 430.834 736.589 430.508 733.201L431.504 733.105C430.83 726.084 429.481 719.262 427.523 712.707L426.565 712.993C424.578 706.34 421.957 699.965 418.774 693.938L419.659 693.471C416.401 687.303 412.56 681.496 408.21 676.126L407.433 676.756C403.1 671.406 398.256 666.495 392.978 662.096L393.618 661.328C388.299 656.896 382.543 652.98 376.424 649.655L375.947 650.534C369.95 647.276 363.601 644.593 356.974 642.556L357.268 641.6C350.723 639.589 343.909 638.203 336.893 637.51L336.795 638.505C333.408 638.171 329.974 638 326.5 638C323.026 638 319.592 638.171 316.205 638.505L316.107 637.51C309.091 638.203 302.277 639.589 295.732 641.6L296.026 642.556C289.399 644.593 283.05 647.276 277.053 650.534L276.576 649.655C270.457 652.98 264.701 656.896 259.382 661.328L260.022 662.096C254.744 666.495 249.9 671.406 245.567 676.756L244.79 676.126C240.44 681.496 236.599 687.303 233.341 693.471L234.226 693.938C231.043 699.965 228.422 706.34 226.435 712.993L225.477 712.707Z" stroke="#CECECE" stroke-width="2" stroke-dasharray="20 20"/>
<path d="M497.979 340.66C496.668 347.351 495.776 354.192 495.33 361.156L496.328 361.22C496.11 364.618 496 368.046 496 371.5C496 374.954 496.11 378.382 496.328 381.78L495.33 381.844C495.776 388.808 496.668 395.649 497.979 402.34L498.961 402.147C500.291 408.933 502.053 415.562 504.219 422.004L503.271 422.323C505.482 428.899 508.11 435.282 511.123 441.44L512.022 441C515.046 447.179 518.461 453.13 522.234 458.82L521.401 459.373C525.22 465.132 529.405 470.626 533.921 475.82L534.675 475.164C539.174 480.338 544.003 485.213 549.13 489.756L548.467 490.505C553.623 495.073 559.078 499.307 564.799 503.174L565.359 502.345C571.02 506.171 576.942 509.635 583.093 512.703L582.647 513.598C588.785 516.66 595.151 519.331 601.711 521.578L602.035 520.632C608.467 522.836 615.087 524.63 621.864 525.984L621.668 526.964C628.355 528.3 635.194 529.209 642.157 529.664L642.222 528.666C645.619 528.887 649.046 529 652.5 529C655.954 529 659.381 528.887 662.778 528.666L662.843 529.664C669.806 529.209 676.645 528.3 683.332 526.964L683.136 525.984C689.913 524.63 696.533 522.836 702.965 520.632L703.289 521.578C709.849 519.331 716.215 516.66 722.353 513.598L721.907 512.703C728.058 509.635 733.98 506.171 739.641 502.345L740.201 503.174C745.922 499.307 751.377 495.073 756.533 490.505L755.87 489.756C760.997 485.213 765.826 480.338 770.325 475.164L771.079 475.82C775.595 470.626 779.78 465.132 783.599 459.373L782.766 458.82C786.539 453.13 789.954 447.18 792.978 441L793.876 441.44C796.89 435.282 799.518 428.899 801.729 422.323L800.781 422.004C802.947 415.562 804.709 408.933 806.039 402.147L807.021 402.34C808.332 395.649 809.224 388.808 809.67 381.844L808.672 381.78C808.89 378.382 809 374.954 809 371.5C809 368.046 808.89 364.618 808.672 361.22L809.67 361.156C809.224 354.192 808.332 347.351 807.021 340.66L806.039 340.853C804.709 334.067 802.947 327.438 800.781 320.996L801.729 320.677C799.518 314.101 796.89 307.718 793.877 301.56L792.978 302C789.954 295.821 786.539 289.87 782.766 284.18L783.599 283.627C779.78 277.868 775.595 272.374 771.079 267.18L770.325 267.836C765.826 262.662 760.997 257.787 755.87 253.244L756.533 252.495C751.377 247.927 745.922 243.693 740.201 239.826L739.641 240.655C733.98 236.829 728.058 233.365 721.907 230.297L722.353 229.402C716.215 226.34 709.849 223.669 703.289 221.422L702.965 222.368C696.533 220.164 689.913 218.37 683.136 217.016L683.332 216.036C676.645 214.7 669.806 213.791 662.843 213.336L662.778 214.334C659.381 214.113 655.954 214 652.5 214C649.046 214 645.619 214.113 642.222 214.334L642.157 213.336C635.194 213.791 628.355 214.7 621.668 216.036L621.864 217.016C615.087 218.37 608.467 220.164 602.035 222.368L601.711 221.422C595.151 223.669 588.785 226.34 582.647 229.402L583.093 230.297C576.942 233.365 571.02 236.829 565.359 240.655L564.799 239.826C559.078 243.693 553.623 247.927 548.467 252.495L549.13 253.244C544.003 257.787 539.174 262.662 534.675 267.836L533.921 267.18C529.405 272.374 525.22 277.868 521.401 283.627L522.234 284.18C518.461 289.87 515.046 295.82 512.022 302L511.124 301.56C508.11 307.718 505.482 314.101 503.271 320.677L504.219 320.996C502.053 327.438 500.291 334.067 498.961 340.853L497.979 340.66Z" stroke="#CECECE" stroke-width="2" stroke-dasharray="20 20"/>
<ellipse cx="400.5" cy="371.5" rx="36.5" ry="37.5" fill="url(#paint0_linear)"/>
<ellipse cx="239" cy="371.5" rx="36.5" ry="37.5" fill="url(#paint1_linear)"/>
</g>
<defs>
<linearGradient id="paint0_linear" x1="400.5" y1="334" x2="400.5" y2="409" gradientUnits="userSpaceOnUse">
<stop offset="0.536458" stop-color="#FF5454"/>
<stop offset="1" stop-color="#BA4F4F"/>
</linearGradient>
<linearGradient id="paint1_linear" x1="239" y1="334" x2="239" y2="409" gradientUnits="userSpaceOnUse">
<stop offset="0.536458" stop-color="#FF5454"/>
<stop offset="1" stop-color="#BA4F4F"/>
</linearGradient>
<clipPath id="clip0">
<rect width="652" height="744" fill="white"/>
</clipPath>
</defs>
</svg>
