<svg width="500" height="500" viewBox="0 0 500 500" fill="none" xmlns="http://www.w3.org/2000/svg">
<path d="M44.7153 224.396C42.5987 224.399 40.5287 223.775 38.7671 222.601C37.0056 221.428 35.6317 219.758 34.8193 217.804C34.007 215.849 33.7926 213.698 34.2034 211.621C34.6143 209.545 35.6318 207.637 37.1272 206.139C38.6227 204.642 40.5288 203.621 42.6045 203.207C44.6801 202.793 46.832 203.003 48.7878 203.813C50.7436 204.622 52.4154 205.993 53.5917 207.753C54.768 209.512 55.3958 211.581 55.3958 213.698C55.3958 216.532 54.2711 219.251 52.2686 221.256C50.2661 223.262 47.5495 224.391 44.7153 224.396Z" fill="#393939"/>
<path opacity="0.5" d="M44.7153 224.396C42.5987 224.399 40.5287 223.775 38.7671 222.601C37.0056 221.428 35.6317 219.758 34.8193 217.804C34.007 215.849 33.7926 213.698 34.2034 211.621C34.6143 209.545 35.6318 207.637 37.1272 206.139C38.6227 204.642 40.5288 203.621 42.6045 203.207C44.6801 202.793 46.832 203.003 48.7878 203.813C50.7436 204.622 52.4154 205.993 53.5917 207.753C54.768 209.512 55.3958 211.581 55.3958 213.698C55.3958 216.532 54.2711 219.251 52.2686 221.256C50.2661 223.262 47.5495 224.391 44.7153 224.396Z" fill="white"/>
<path d="M62.2853 218.898C64.5171 209.441 58.6606 199.966 49.2044 197.734C39.7481 195.503 30.273 201.359 28.0412 210.815C25.8093 220.272 31.6658 229.747 41.1221 231.979C50.5783 234.21 60.0534 228.354 62.2853 218.898Z" stroke="#393939" stroke-width="3" stroke-miterlimit="10"/>
<path d="M352.541 213.098H60.7805V216.571H352.541V213.098Z" fill="#393939"/>
<path d="M46.8871 199.205H43.4138V178.365C43.4125 178.136 43.4563 177.91 43.5427 177.698C43.6291 177.486 43.7565 177.294 43.9174 177.132L150.15 71.1947C150.312 71.0337 150.504 70.9064 150.716 70.82C150.928 70.7336 151.154 70.6897 151.383 70.6911H248.341V74.1644H152.095L46.8871 179.077V199.205Z" fill="#393939"/>
<path d="M298.705 374.609H168.454C168.226 374.61 167.999 374.566 167.787 374.48C167.576 374.393 167.383 374.266 167.221 374.105L43.9174 250.801C43.7565 250.639 43.6291 250.447 43.5427 250.235C43.4563 250.023 43.4125 249.797 43.4138 249.568V232.201H46.8871V248.856L169.166 371.135H298.705V374.609Z" fill="#393939"/>
<path d="M211.871 263.462H142.109C141.653 263.46 141.217 263.279 140.893 262.958L94.0031 216.363L96.4518 213.897L142.838 259.988H211.871V263.462Z" fill="#393939"/>
<path d="M163.609 216.207L161.143 213.758L207.877 166.712C208.209 166.394 208.65 166.214 209.11 166.208H279.601V169.681H209.839L163.609 216.207Z" fill="#393939"/>
<path d="M428.955 128.001H153.224C152.994 128 152.767 127.954 152.555 127.864C152.343 127.775 152.151 127.644 151.991 127.48L124.308 99.5198L126.774 97.0711L153.953 124.528H428.955V128.001Z" fill="#393939"/>
<path d="M182.99 73.6607L180.611 71.1947L225.764 26.0412C225.927 25.8802 226.119 25.7529 226.331 25.6665C226.542 25.58 226.769 25.5362 226.997 25.5376H371.645V29.0109H227.64L182.99 73.6607Z" fill="#393939"/>
<path d="M211.228 459.706L141.171 389.666C140.863 389.355 140.683 388.939 140.667 388.502V346.822H144.141V387.79L213.608 457.257L211.228 459.706Z" fill="#393939"/>
<path d="M195.442 373.549L192.976 371.135L239.033 324.783C239.365 324.466 239.806 324.286 240.266 324.28H415.062V327.753H240.995L195.442 373.549Z" fill="#393939"/>
<path d="M357.751 423.235H279.896C279.668 423.237 279.441 423.193 279.23 423.107C279.018 423.02 278.826 422.893 278.663 422.732L229.741 373.81L232.207 371.361L280.608 419.762H357.751V423.235Z" fill="#393939"/>
<path d="M371.645 35.2281C376.038 35.2281 379.599 31.667 379.599 27.2742C379.599 22.8813 376.038 19.3202 371.645 19.3202C367.252 19.3202 363.691 22.8813 363.691 27.2742C363.691 31.667 367.252 35.2281 371.645 35.2281Z" fill="#393939"/>
<path d="M263.971 90.8017C260.337 90.8017 256.785 89.7241 253.763 87.7051C250.742 85.6862 248.387 82.8165 246.996 79.4591C245.605 76.1017 245.241 72.4073 245.95 68.8431C246.659 65.2789 248.409 62.005 250.979 59.4353C253.548 56.8657 256.822 55.1157 260.387 54.4068C263.951 53.6978 267.645 54.0617 271.003 55.4524C274.36 56.843 277.23 59.1981 279.249 62.2197C281.268 65.2413 282.345 68.7937 282.345 72.4277C282.345 77.3008 280.409 81.9743 276.964 85.4201C273.518 88.8659 268.844 90.8017 263.971 90.8017V90.8017ZM263.971 57.5271C261.024 57.5271 258.143 58.401 255.693 60.0383C253.242 61.6756 251.333 64.0027 250.205 66.7255C249.077 69.4482 248.782 72.4442 249.357 75.3347C249.932 78.2251 251.351 80.8802 253.435 82.9641C255.519 85.0479 258.174 86.4671 261.064 87.042C263.955 87.617 266.951 87.3219 269.673 86.1941C272.396 85.0663 274.723 83.1565 276.361 80.7061C277.998 78.2557 278.872 75.3748 278.872 72.4277C278.867 68.4772 277.296 64.6898 274.502 61.8964C271.709 59.103 267.922 57.5317 263.971 57.5271V57.5271Z" fill="#393939"/>
<path d="M263.971 80.3816C268.364 80.3816 271.925 76.8205 271.925 72.4277C271.925 68.0348 268.364 64.4737 263.971 64.4737C259.578 64.4737 256.017 68.0348 256.017 72.4277C256.017 76.8205 259.578 80.3816 263.971 80.3816Z" fill="#B02323"/>
<path d="M436.909 126.56C436.906 128.132 436.436 129.668 435.56 130.974C434.684 132.28 433.441 133.297 431.987 133.896C430.533 134.495 428.934 134.65 427.393 134.341C425.851 134.033 424.435 133.274 423.325 132.161C422.214 131.048 421.458 129.63 421.153 128.088C420.847 126.545 421.006 124.947 421.608 123.495C422.211 122.042 423.23 120.801 424.538 119.928C425.845 119.055 427.383 118.589 428.955 118.589C430.001 118.588 431.037 118.795 432.003 119.196C432.969 119.596 433.847 120.184 434.585 120.924C435.324 121.665 435.91 122.544 436.309 123.511C436.707 124.478 436.911 125.514 436.909 126.56V126.56Z" fill="#393939"/>
<path d="M279.601 175.899C283.994 175.899 287.555 172.337 287.555 167.945C287.555 163.552 283.994 159.991 279.601 159.991C275.208 159.991 271.647 163.552 271.647 167.945C271.647 172.337 275.208 175.899 279.601 175.899Z" fill="#393939"/>
<path d="M368.172 233.209C364.537 233.209 360.985 232.131 357.963 230.112C354.942 228.093 352.587 225.224 351.196 221.866C349.805 218.509 349.442 214.814 350.151 211.25C350.86 207.686 352.609 204.412 355.179 201.842C357.749 199.273 361.023 197.523 364.587 196.814C368.151 196.105 371.846 196.469 375.203 197.859C378.56 199.25 381.43 201.605 383.449 204.627C385.468 207.648 386.545 211.201 386.545 214.835C386.545 219.708 384.61 224.381 381.164 227.827C377.718 231.273 373.045 233.209 368.172 233.209V233.209ZM368.172 199.934C365.224 199.934 362.344 200.808 359.893 202.445C357.443 204.083 355.533 206.41 354.405 209.133C353.277 211.855 352.982 214.851 353.557 217.742C354.132 220.632 355.551 223.287 357.635 225.371C359.719 227.455 362.374 228.874 365.265 229.449C368.155 230.024 371.151 229.729 373.874 228.601C376.596 227.473 378.924 225.564 380.561 223.113C382.198 220.663 383.072 217.782 383.072 214.835C383.068 210.884 381.496 207.097 378.703 204.303C375.909 201.51 372.122 199.939 368.172 199.934Z" fill="#393939"/>
<path d="M368.171 222.789C372.564 222.789 376.125 219.228 376.125 214.835C376.125 210.442 372.564 206.881 368.171 206.881C363.779 206.881 360.218 210.442 360.218 214.835C360.218 219.228 363.779 222.789 368.171 222.789Z" fill="#B02323"/>
<path d="M211.871 269.679C216.264 269.679 219.825 266.118 219.825 261.725C219.825 257.332 216.264 253.771 211.871 253.771C207.478 253.771 203.917 257.332 203.917 261.725C203.917 266.118 207.478 269.679 211.871 269.679Z" fill="#393939"/>
<path d="M415.062 333.936C419.455 333.936 423.016 330.375 423.016 325.982C423.016 321.589 419.455 318.028 415.062 318.028C410.669 318.028 407.108 321.589 407.108 325.982C407.108 330.375 410.669 333.936 415.062 333.936Z" fill="#393939"/>
<path d="M314.335 390.968C310.696 390.971 307.139 389.896 304.112 387.877C301.086 385.858 298.726 382.987 297.331 379.627C295.936 376.267 295.57 372.568 296.277 368.999C296.985 365.431 298.735 362.152 301.306 359.578C303.878 357.004 307.155 355.251 310.723 354.54C314.291 353.829 317.99 354.192 321.351 355.584C324.713 356.975 327.586 359.332 329.608 362.357C331.63 365.382 332.709 368.938 332.709 372.577C332.709 377.451 330.773 382.127 327.328 385.575C323.883 389.024 319.209 390.963 314.335 390.968V390.968ZM314.335 357.676C311.383 357.673 308.496 358.545 306.04 360.183C303.584 361.821 301.669 364.151 300.538 366.877C299.407 369.604 299.11 372.605 299.685 375.5C300.26 378.396 301.681 381.055 303.769 383.143C305.856 385.23 308.516 386.651 311.411 387.226C314.307 387.801 317.308 387.504 320.034 386.373C322.761 385.242 325.091 383.327 326.728 380.871C328.366 378.415 329.239 375.529 329.235 372.577C329.231 368.626 327.659 364.839 324.866 362.045C322.073 359.252 318.285 357.681 314.335 357.676V357.676Z" fill="#393939"/>
<path d="M322.289 372.577C322.289 374.15 321.822 375.688 320.948 376.996C320.074 378.304 318.832 379.323 317.378 379.925C315.925 380.527 314.326 380.685 312.783 380.378C311.24 380.071 309.823 379.313 308.71 378.201C307.598 377.089 306.84 375.671 306.534 374.128C306.227 372.586 306.384 370.986 306.986 369.533C307.588 368.079 308.608 366.837 309.916 365.963C311.224 365.089 312.761 364.623 314.335 364.623C316.443 364.627 318.463 365.467 319.954 366.957C321.445 368.448 322.284 370.469 322.289 372.577V372.577Z" fill="#B02323"/>
<path d="M357.751 429.453C362.144 429.453 365.705 425.892 365.705 421.499C365.705 417.106 362.144 413.545 357.751 413.545C353.359 413.545 349.798 417.106 349.798 421.499C349.798 425.892 353.359 429.453 357.751 429.453Z" fill="#393939"/>
<path d="M220.415 458.542C220.419 460.119 219.954 461.662 219.08 462.975C218.207 464.288 216.963 465.313 215.507 465.919C214.05 466.525 212.447 466.685 210.9 466.38C209.352 466.074 207.93 465.316 206.814 464.202C205.697 463.088 204.936 461.668 204.627 460.121C204.318 458.574 204.475 456.97 205.078 455.513C205.681 454.055 206.702 452.809 208.014 451.933C209.325 451.056 210.867 450.588 212.444 450.588C214.554 450.593 216.576 451.431 218.07 452.922C219.563 454.412 220.406 456.432 220.415 458.542V458.542Z" fill="#393939"/>
<path d="M421.609 6H392.606C391.158 6 389.984 7.17408 389.984 8.62238V48.0969C389.984 49.5452 391.158 50.7193 392.606 50.7193H421.609C423.057 50.7193 424.231 49.5452 424.231 48.0969V8.62238C424.231 7.17408 423.057 6 421.609 6Z" fill="#393939"/>
<path opacity="0.6" d="M421.609 6H392.606C391.158 6 389.984 7.17408 389.984 8.62238V48.0969C389.984 49.5452 391.158 50.7193 392.606 50.7193H421.609C423.057 50.7193 424.231 49.5452 424.231 48.0969V8.62238C424.231 7.17408 423.057 6 421.609 6Z" fill="white"/>
<path d="M419.108 12.3562H395.09V14.7702H419.108V12.3562Z" fill="#393939"/>
<path d="M419.108 16.5763H395.09V18.9903H419.108V16.5763Z" fill="#393939"/>
<path d="M419.108 20.8138H395.09V23.2278H419.108V20.8138Z" fill="#393939"/>
<path d="M419.108 25.0339H395.09V27.4479H419.108V25.0339Z" fill="#393939"/>
<path d="M419.108 29.2714H395.09V31.6854H419.108V29.2714Z" fill="#393939"/>
<path d="M419.108 33.5089H395.09V35.9229H419.108V33.5089Z" fill="#393939"/>
<path d="M419.108 37.7289H395.09V40.1429H419.108V37.7289Z" fill="#393939"/>
<path d="M410.651 41.9665H395.09V44.3805H410.651V41.9665Z" fill="#393939"/>
<path d="M260.237 243.125H231.235C229.787 243.125 228.613 244.299 228.613 245.748V285.222C228.613 286.67 229.787 287.844 231.235 287.844H260.237C261.686 287.844 262.86 286.67 262.86 285.222V245.748C262.86 244.299 261.686 243.125 260.237 243.125Z" fill="#393939"/>
<path opacity="0.6" d="M260.237 243.125H231.235C229.787 243.125 228.613 244.299 228.613 245.748V285.222C228.613 286.67 229.787 287.844 231.235 287.844H260.237C261.686 287.844 262.86 286.67 262.86 285.222V245.748C262.86 244.299 261.686 243.125 260.237 243.125Z" fill="white"/>
<path d="M257.736 249.464H233.718V251.878H257.736V249.464Z" fill="#393939"/>
<path d="M257.736 253.702H233.718V256.115H257.736V253.702Z" fill="#393939"/>
<path d="M257.736 257.922H233.718V260.336H257.736V257.922Z" fill="#393939"/>
<path d="M257.736 262.159H233.718V264.573H257.736V262.159Z" fill="#393939"/>
<path d="M257.736 266.379H233.718V268.793H257.736V266.379Z" fill="#393939"/>
<path d="M257.736 270.617H233.718V273.031H257.736V270.617Z" fill="#393939"/>
<path d="M257.736 274.854H233.718V277.268H257.736V274.854Z" fill="#393939"/>
<path d="M249.279 279.074H233.718V281.488H249.279V279.074Z" fill="#393939"/>
<path d="M460.58 291.248H431.577C430.129 291.248 428.955 292.422 428.955 293.871V333.345C428.955 334.794 430.129 335.968 431.577 335.968H460.58C462.028 335.968 463.202 334.794 463.202 333.345V293.871C463.202 292.422 462.028 291.248 460.58 291.248Z" fill="#393939"/>
<path opacity="0.6" d="M460.58 291.248H431.577C430.129 291.248 428.955 292.422 428.955 293.871V333.345C428.955 334.794 430.129 335.968 431.577 335.968H460.58C462.028 335.968 463.202 334.794 463.202 333.345V293.871C463.202 292.422 462.028 291.248 460.58 291.248Z" fill="white"/>
<path d="M458.079 297.605H434.061V300.019H458.079V297.605Z" fill="#393939"/>
<path d="M458.079 301.825H434.061V304.239H458.079V301.825Z" fill="#393939"/>
<path d="M458.079 306.062H434.061V308.476H458.079V306.062Z" fill="#393939"/>
<path d="M458.079 310.3H434.061V312.714H458.079V310.3Z" fill="#393939"/>
<path d="M458.079 314.52H434.061V316.934H458.079V314.52Z" fill="#393939"/>
<path d="M458.079 318.757H434.061V321.171H458.079V318.757Z" fill="#393939"/>
<path d="M458.079 322.977H434.061V325.391H458.079V322.977Z" fill="#393939"/>
<path d="M449.621 327.215H434.061V329.629H449.621V327.215Z" fill="#393939"/>
<path d="M474.161 91.7395H445.158C443.71 91.7395 442.536 92.9136 442.536 94.3619V133.836C442.536 135.285 443.71 136.459 445.158 136.459H474.161C475.609 136.459 476.783 135.285 476.783 133.836V94.3619C476.783 92.9136 475.609 91.7395 474.161 91.7395Z" fill="#393939"/>
<path opacity="0.6" d="M474.161 91.7395H445.158C443.71 91.7395 442.536 92.9136 442.536 94.3619V133.836C442.536 135.285 443.71 136.459 445.158 136.459H474.161C475.609 136.459 476.783 135.285 476.783 133.836V94.3619C476.783 92.9136 475.609 91.7395 474.161 91.7395Z" fill="white"/>
<path d="M471.66 98.0957H447.642V100.51H471.66V98.0957Z" fill="#393939"/>
<path d="M471.66 102.316H447.642V104.73H471.66V102.316Z" fill="#393939"/>
<path d="M471.66 106.553H447.642V108.967H471.66V106.553Z" fill="#393939"/>
<path d="M471.66 110.791H447.642V113.205H471.66V110.791Z" fill="#393939"/>
<path d="M471.66 115.011H447.642V117.425H471.66V115.011Z" fill="#393939"/>
<path d="M471.66 119.248H447.642V121.662H471.66V119.248Z" fill="#393939"/>
<path d="M471.66 123.469H447.642V125.882H471.66V123.469Z" fill="#393939"/>
<path d="M463.202 127.706H447.642V130.12H463.202V127.706Z" fill="#393939"/>
<path d="M260.88 449.65H231.877C230.429 449.65 229.255 450.824 229.255 452.273V491.747C229.255 493.195 230.429 494.369 231.877 494.369H260.88C262.328 494.369 263.502 493.195 263.502 491.747V452.273C263.502 450.824 262.328 449.65 260.88 449.65Z" fill="#393939"/>
<path opacity="0.6" d="M260.88 449.65H231.877C230.429 449.65 229.255 450.824 229.255 452.273V491.747C229.255 493.195 230.429 494.369 231.877 494.369H260.88C262.328 494.369 263.502 493.195 263.502 491.747V452.273C263.502 450.824 262.328 449.65 260.88 449.65Z" fill="white"/>
<path d="M258.379 456.006H234.361V458.42H258.379V456.006Z" fill="#393939"/>
<path d="M258.379 460.227H234.361V462.641H258.379V460.227Z" fill="#393939"/>
<path d="M258.379 464.464H234.361V466.878H258.379V464.464Z" fill="#393939"/>
<path d="M258.379 468.684H234.361V471.098H258.379V468.684Z" fill="#393939"/>
<path d="M258.379 472.922H234.361V475.336H258.379V472.922Z" fill="#393939"/>
<path d="M258.379 477.159H234.361V479.573H258.379V477.159Z" fill="#393939"/>
<path d="M258.379 481.379H234.361V483.793H258.379V481.379Z" fill="#393939"/>
<path d="M249.922 485.617H234.361V488.031H249.922V485.617Z" fill="#393939"/>
<path d="M471.33 173.936H396.792C395.315 173.936 394.117 175.134 394.117 176.611V251.149C394.117 252.626 395.315 253.823 396.792 253.823H471.33C472.807 253.823 474.004 252.626 474.004 251.149V176.611C474.004 175.134 472.807 173.936 471.33 173.936Z" fill="#393939"/>
<path opacity="0.5" d="M434.061 240.798C448.927 240.798 460.979 228.746 460.979 213.88C460.979 199.013 448.927 186.961 434.061 186.961C419.194 186.961 407.142 199.013 407.142 213.88C407.142 228.746 419.194 240.798 434.061 240.798Z" fill="white"/>
<path opacity="0.7" d="M434.061 213.88H460.979C460.965 219.794 459 225.538 455.39 230.223C451.78 234.908 446.726 238.271 441.011 239.793C435.295 241.314 429.238 240.908 423.776 238.638C418.315 236.367 413.755 232.36 410.802 227.235C407.849 222.111 406.669 216.156 407.444 210.292C408.218 204.429 410.905 198.985 415.087 194.803C419.269 190.621 424.714 187.935 430.577 187.161C436.441 186.387 442.396 187.568 447.52 190.521L434.061 213.88Z" fill="white"/>
<path d="M434.061 234.72C445.57 234.72 454.901 225.389 454.901 213.88C454.901 202.37 445.57 193.04 434.061 193.04C422.551 193.04 413.221 202.37 413.221 213.88C413.221 225.389 422.551 234.72 434.061 234.72Z" fill="#393939"/>
<path opacity="0.3" d="M434.061 234.72C445.57 234.72 454.901 225.389 454.901 213.88C454.901 202.37 445.57 193.04 434.061 193.04C422.551 193.04 413.221 202.37 413.221 213.88C413.221 225.389 422.551 234.72 434.061 234.72Z" fill="white"/>
<path d="M433.578 211.932C433.578 212.555 433.471 213.018 433.259 213.321C433.046 213.624 432.713 213.775 432.261 213.775C431.814 213.775 431.484 213.628 431.269 213.332C431.054 213.035 430.943 212.593 430.935 212.004V211.294C430.935 210.679 431.042 210.222 431.255 209.923C431.467 209.624 431.801 209.474 432.255 209.474C432.706 209.474 433.037 209.619 433.25 209.908C433.463 210.196 433.572 210.64 433.578 211.242V211.932ZM433.046 211.205C433.046 210.754 432.983 210.427 432.856 210.222C432.73 210.015 432.529 209.911 432.255 209.911C431.983 209.911 431.785 210.014 431.66 210.219C431.535 210.424 431.471 210.739 431.467 211.165V212.016C431.467 212.468 431.533 212.802 431.663 213.019C431.795 213.234 431.994 213.341 432.261 213.341C432.523 213.341 432.718 213.239 432.845 213.036C432.973 212.833 433.04 212.513 433.046 212.076V211.205ZM434.213 210.337C434.213 210.086 434.293 209.879 434.452 209.716C434.613 209.553 434.819 209.471 435.07 209.471C435.325 209.471 435.531 209.554 435.688 209.718C435.847 209.881 435.927 210.093 435.927 210.354V210.558C435.927 210.811 435.846 211.018 435.685 211.179C435.526 211.338 435.323 211.418 435.076 211.418C434.826 211.418 434.62 211.338 434.457 211.179C434.295 211.018 434.213 210.804 434.213 210.538V210.337ZM434.61 210.558C434.61 210.708 434.652 210.831 434.736 210.929C434.821 211.025 434.934 211.073 435.076 211.073C435.212 211.073 435.321 211.026 435.403 210.932C435.488 210.838 435.53 210.709 435.53 210.547V210.337C435.53 210.187 435.489 210.064 435.406 209.966C435.324 209.868 435.212 209.819 435.07 209.819C434.928 209.819 434.816 209.868 434.733 209.966C434.651 210.064 434.61 210.191 434.61 210.348V210.558ZM436.251 212.691C436.251 212.44 436.331 212.234 436.49 212.073C436.651 211.91 436.857 211.829 437.108 211.829C437.359 211.829 437.565 211.909 437.726 212.07C437.887 212.231 437.968 212.445 437.968 212.711V212.916C437.968 213.167 437.887 213.374 437.726 213.537C437.567 213.698 437.363 213.778 437.114 213.778C436.865 213.778 436.659 213.699 436.496 213.539C436.333 213.378 436.251 213.165 436.251 212.898V212.691ZM436.648 212.916C436.648 213.067 436.69 213.192 436.775 213.289C436.859 213.385 436.972 213.433 437.114 213.433C437.252 213.433 437.362 213.386 437.445 213.292C437.527 213.196 437.568 213.067 437.568 212.904V212.691C437.568 212.54 437.526 212.416 437.442 212.32C437.359 212.225 437.248 212.177 437.108 212.177C436.972 212.177 436.861 212.225 436.775 212.32C436.69 212.414 436.648 212.542 436.648 212.703V212.916ZM435.196 213.401L434.894 213.212L436.939 209.94L437.24 210.13L435.196 213.401Z" fill="white"/>
<path d="M397.139 342.48H340.419C339.297 342.48 338.388 343.39 338.388 344.512V401.232C338.388 402.354 339.297 403.264 340.419 403.264H397.139C398.261 403.264 399.171 402.354 399.171 401.232V344.512C399.171 343.39 398.261 342.48 397.139 342.48Z" fill="#393939"/>
<path opacity="0.5" d="M388.143 393.069H380.328V397.046H388.143V393.069Z" fill="white"/>
<path d="M388.143 353.386H380.328V357.363H388.143V353.386Z" fill="white"/>
<path d="M388.143 360.003H380.328V363.98H388.143V360.003Z" fill="white"/>
<path opacity="0.75" d="M388.143 366.62H380.328V370.597H388.143V366.62Z" fill="white"/>
<path opacity="0.5" d="M388.143 373.219H380.328V377.196H388.143V373.219Z" fill="white"/>
<path opacity="0.5" d="M388.143 379.836H380.328V383.813H388.143V379.836Z" fill="white"/>
<path opacity="0.5" d="M388.143 386.453H380.328V390.43H388.143V386.453Z" fill="white"/>
<path opacity="0.5" d="M377.515 393.069H369.7V397.046H377.515V393.069Z" fill="white"/>
<path d="M377.515 373.219H369.7V377.196H377.515V373.219Z" fill="white"/>
<path opacity="0.75" d="M377.515 379.836H369.7V383.813H377.515V379.836Z" fill="white"/>
<path opacity="0.5" d="M377.515 386.453H369.7V390.43H377.515V386.453Z" fill="white"/>
<path opacity="0.5" d="M366.869 393.069H359.054V397.046H366.869V393.069Z" fill="white"/>
<path d="M366.869 366.62H359.054V370.597H366.869V366.62Z" fill="white"/>
<path opacity="0.75" d="M366.869 373.219H359.054V377.196H366.869V373.219Z" fill="white"/>
<path opacity="0.5" d="M366.869 379.836H359.054V383.813H366.869V379.836Z" fill="white"/>
<path opacity="0.5" d="M366.869 386.453H359.054V390.43H366.869V386.453Z" fill="white"/>
<path opacity="0.5" d="M356.241 393.069H348.426V397.046H356.241V393.069Z" fill="white"/>
<path d="M356.241 379.836H348.426V383.813H356.241V379.836Z" fill="white"/>
<path opacity="0.75" d="M356.241 386.453H348.426V390.43H356.241V386.453Z" fill="white"/>
<path d="M350.648 49.99H293.929C292.807 49.99 291.897 50.8997 291.897 52.0219V108.742C291.897 109.864 292.807 110.773 293.929 110.773H350.648C351.771 110.773 352.68 109.864 352.68 108.742V52.0219C352.68 50.8997 351.771 49.99 350.648 49.99Z" fill="#393939"/>
<path opacity="0.9" d="M326.682 73.7823V69.979L324.72 69.8053C324.462 68.5643 323.967 67.3849 323.261 66.332L324.512 64.8037L321.837 62.0077L320.309 63.2755C319.255 62.5725 318.076 62.0773 316.836 61.8167L316.644 59.8542H312.841L312.668 61.8167C311.428 62.0794 310.25 62.5743 309.194 63.2755L307.683 62.0077L304.991 64.6995L306.242 66.2278C305.549 67.2873 305.054 68.4643 304.783 69.7011L302.838 69.8748V73.6781L304.783 73.8692C305.059 75.1045 305.553 76.2807 306.242 77.3425L304.991 78.8708L307.683 81.5626L309.194 80.2948C310.25 80.996 311.428 81.4909 312.668 81.7537L312.841 83.7161H316.644L316.836 81.7537C318.076 81.493 319.255 80.9978 320.309 80.2948L321.837 81.5626L324.512 78.8708L323.261 77.3425C323.964 76.2882 324.459 75.1093 324.72 73.8692L326.682 73.7823ZM314.717 77.0299C313.686 77.0299 312.679 76.7243 311.822 76.1519C310.965 75.5794 310.298 74.7657 309.903 73.8137C309.509 72.8617 309.406 71.8141 309.607 70.8035C309.808 69.7928 310.304 68.8645 311.033 68.1358C311.761 67.4072 312.69 66.911 313.7 66.71C314.711 66.5089 315.759 66.6121 316.711 67.0065C317.663 67.4008 318.476 68.0686 319.049 68.9254C319.621 69.7821 319.927 70.7894 319.927 71.8199C319.927 73.2017 319.378 74.5269 318.401 75.5039C317.424 76.481 316.099 77.0299 314.717 77.0299Z" fill="white"/>
<path opacity="0.6" d="M342.121 84.5844V81.5973L340.593 81.4584C340.386 80.4748 339.997 79.5383 339.447 78.6971L340.437 77.5161L338.335 75.3974L337.137 76.3873C336.302 75.8372 335.371 75.4485 334.393 75.2411L334.237 73.7128H331.267L331.111 75.2411C330.133 75.4485 329.202 75.8372 328.367 76.3873L327.169 75.3974L325.067 77.5161L326.057 78.6971C325.5 79.5346 325.111 80.4724 324.911 81.4584L323.365 81.5973V84.5844L324.911 84.7233C325.111 85.704 325.5 86.6361 326.057 87.4673L325.067 88.6656L327.169 90.7669L328.367 89.7944C329.203 90.3391 330.134 90.722 331.111 90.9233L331.267 92.4689H334.237L334.393 90.9233C335.37 90.722 336.301 90.3391 337.137 89.7944L338.335 90.7669L340.437 88.6656L339.447 87.4673C339.997 86.6322 340.386 85.7015 340.593 84.7233L342.121 84.5844ZM332.743 87.1199C331.942 87.1199 331.159 86.8822 330.493 86.4368C329.828 85.9914 329.309 85.3584 329.003 84.618C328.698 83.8776 328.618 83.0631 328.776 82.2777C328.934 81.4923 329.321 80.7713 329.888 80.2061C330.456 79.6409 331.179 79.2569 331.965 79.1027C332.751 78.9485 333.565 79.0311 334.304 79.3401C335.043 79.649 335.674 80.1704 336.116 80.8381C336.559 81.5058 336.793 82.2898 336.79 83.0909C336.783 83.62 336.672 84.1426 336.463 84.6288C336.255 85.115 335.952 85.5554 335.573 85.9247C335.194 86.294 334.746 86.585 334.255 86.7812C333.763 86.9773 333.238 87.0747 332.709 87.0678L332.743 87.1199Z" fill="white"/>
<path opacity="0.4" d="M326.682 92.9899V90.4891L325.397 90.3675C325.222 89.5376 324.892 88.7482 324.425 88.0404L325.258 87.0505L323.522 85.3138L322.514 86.1474C321.818 85.6702 321.032 85.3394 320.205 85.1749L320.083 83.8897H317.582L317.461 85.1749C316.635 85.3456 315.85 85.676 315.151 86.1474L314.161 85.3138L312.424 87.0505L313.241 88.0404C312.779 88.7491 312.455 89.5386 312.285 90.3675L311 90.4891V92.9899L312.285 93.1115C312.458 93.934 312.782 94.7172 313.241 95.4212L312.424 96.4111L314.161 98.1478L315.151 97.3316C315.855 97.7905 316.638 98.1144 317.461 98.2868L317.582 99.5719H320.083L320.205 98.2868C321.029 98.1209 321.814 97.7965 322.514 97.3316L323.522 98.1478L325.258 96.4111L324.425 95.4212C324.889 94.7181 325.219 93.935 325.397 93.1115L326.682 92.9899ZM318.798 95.126C318.128 95.126 317.473 94.9274 316.916 94.5553C316.36 94.1832 315.926 93.6543 315.669 93.0355C315.413 92.4167 315.346 91.7357 315.476 91.0788C315.607 90.4219 315.93 89.8185 316.403 89.3449C316.877 88.8713 317.48 88.5487 318.137 88.4181C318.794 88.2874 319.475 88.3545 320.094 88.6108C320.713 88.8671 321.242 89.3011 321.614 89.8581C321.986 90.415 322.184 91.0697 322.184 91.7395C322.162 92.6307 321.799 93.4794 321.168 94.1098C320.538 94.7401 319.689 95.104 318.798 95.126V95.126Z" fill="white"/>
<path d="M346.793 150.144H293.39V184.877H346.793V150.144Z" fill="#393939"/>
<path opacity="0.6" d="M346.793 150.144H293.39V184.877H346.793V150.144Z" fill="white"/>
<path d="M344.831 156.656H295.336V183.14H344.831V156.656Z" fill="#393939"/>
<path d="M335.974 160.616H299.365V161.762H335.974V160.616Z" fill="white"/>
<path d="M316.94 164.107H299.365V165.253H316.94V164.107Z" fill="white"/>
<path d="M321.49 167.597H299.365V168.743H321.49V167.597Z" fill="white"/>
<path d="M307.162 171.088H299.365V172.234H307.162V171.088Z" fill="white"/>
<path d="M304.418 174.579H299.365V175.725H304.418V174.579Z" fill="white"/>
<path d="M431.89 414.986H378.487V449.72H431.89V414.986Z" fill="#393939"/>
<path opacity="0.6" d="M431.89 414.986H378.487V449.72H431.89V414.986Z" fill="white"/>
<path d="M429.928 421.499H380.432V447.983H429.928V421.499Z" fill="#393939"/>
<path d="M421.071 425.458H384.462V426.605H421.071V425.458Z" fill="white"/>
<path d="M402.037 428.949H384.462V430.095H402.037V428.949Z" fill="white"/>
<path d="M406.587 432.44H384.462V433.586H406.587V432.44Z" fill="white"/>
<path d="M392.259 435.93H384.462V437.077H392.259V435.93Z" fill="white"/>
<path d="M389.515 439.421H384.462V440.567H389.515V439.421Z" fill="white"/>
<g opacity="0.4">
<path opacity="0.4" d="M352.541 213.098H57.3073V216.571H352.541V213.098Z" fill="white"/>
<path opacity="0.4" d="M46.8871 199.205H43.4138V178.365C43.4125 178.136 43.4563 177.91 43.5427 177.698C43.6291 177.486 43.7565 177.294 43.9174 177.132L150.15 71.1946C150.312 71.0337 150.504 70.9063 150.716 70.8199C150.928 70.7335 151.154 70.6897 151.383 70.691H248.341V74.1644H152.095L46.8871 179.077V199.205Z" fill="white"/>
<path opacity="0.4" d="M298.705 374.609H168.454C168.226 374.61 167.999 374.566 167.787 374.48C167.576 374.393 167.383 374.266 167.221 374.105L43.9174 250.801C43.7565 250.639 43.6291 250.447 43.5427 250.235C43.4563 250.023 43.4125 249.797 43.4138 249.568V232.201H46.8871V248.856L169.166 371.135H298.705V374.609Z" fill="white"/>
<path opacity="0.4" d="M211.871 263.462H142.109C141.653 263.46 141.217 263.279 140.893 262.958L94.0031 216.363L96.4517 213.897L142.838 259.988H211.871V263.462Z" fill="white"/>
<path opacity="0.4" d="M163.609 216.207L161.143 213.758L207.877 166.712C208.209 166.394 208.65 166.214 209.11 166.208H279.601V169.681H209.839L163.609 216.207Z" fill="white"/>
<path opacity="0.4" d="M428.955 128.001H153.224C152.994 128 152.767 127.954 152.555 127.864C152.343 127.775 152.151 127.644 151.991 127.48L124.308 99.5197L126.774 97.071L153.953 124.528H428.955V128.001Z" fill="white"/>
<path opacity="0.4" d="M182.99 73.6607L180.611 71.1946L225.764 26.0412C225.927 25.8802 226.119 25.7529 226.331 25.6664C226.542 25.58 226.769 25.5362 226.997 25.5375H371.645V29.0109H227.64L182.99 73.6607Z" fill="white"/>
<path opacity="0.4" d="M211.228 459.706L141.171 389.666C140.863 389.355 140.683 388.939 140.667 388.502V346.822H144.141V387.79L213.608 457.257L211.228 459.706Z" fill="white"/>
<path opacity="0.4" d="M195.442 373.549L192.976 371.135L239.033 324.783C239.365 324.466 239.806 324.286 240.266 324.28H415.062V327.753H240.995L195.442 373.549Z" fill="white"/>
<path opacity="0.4" d="M357.751 423.235H279.896C279.668 423.237 279.441 423.193 279.23 423.106C279.018 423.02 278.826 422.893 278.663 422.732L229.741 373.81L232.207 371.361L280.608 419.762H357.751V423.235Z" fill="white"/>
<path opacity="0.4" d="M371.645 35.2281C376.038 35.2281 379.599 31.667 379.599 27.2742C379.599 22.8813 376.038 19.3202 371.645 19.3202C367.252 19.3202 363.691 22.8813 363.691 27.2742C363.691 31.667 367.252 35.2281 371.645 35.2281Z" fill="white"/>
<path opacity="0.4" d="M263.971 90.8016C260.337 90.8016 256.785 89.724 253.763 87.7051C250.742 85.6861 248.386 82.8165 246.996 79.4591C245.605 76.1017 245.241 72.4073 245.95 68.8431C246.659 65.2789 248.409 62.0049 250.979 59.4353C253.548 56.8656 256.822 55.1157 260.387 54.4067C263.951 53.6977 267.645 54.0616 271.003 55.4523C274.36 56.843 277.23 59.198 279.249 62.2196C281.268 65.2412 282.345 68.7936 282.345 72.4276C282.345 77.3007 280.409 81.9742 276.964 85.42C273.518 88.8658 268.844 90.8016 263.971 90.8016V90.8016ZM263.971 57.527C261.024 57.527 258.143 58.4009 255.693 60.0382C253.242 61.6755 251.333 64.0027 250.205 66.7254C249.077 69.4482 248.782 72.4442 249.357 75.3346C249.932 78.2251 251.351 80.8801 253.435 82.964C255.519 85.0479 258.174 86.467 261.064 87.042C263.955 87.6169 266.951 87.3218 269.673 86.194C272.396 85.0663 274.723 83.1564 276.361 80.706C277.998 78.2556 278.872 75.3747 278.872 72.4276C278.867 68.4772 277.296 64.6898 274.502 61.8964C271.709 59.103 267.922 57.5316 263.971 57.527V57.527Z" fill="white"/>
<path opacity="0.4" d="M436.909 126.56C436.905 128.132 436.436 129.668 435.56 130.974C434.684 132.28 433.44 133.296 431.987 133.896C430.533 134.495 428.934 134.65 427.393 134.341C425.851 134.032 424.435 133.274 423.325 132.161C422.214 131.047 421.458 129.63 421.153 128.088C420.847 126.545 421.006 124.947 421.608 123.495C422.211 122.042 423.23 120.801 424.538 119.928C425.845 119.054 427.383 118.588 428.955 118.588C430.001 118.588 431.037 118.795 432.003 119.196C432.969 119.596 433.847 120.184 434.585 120.924C435.324 121.665 435.91 122.544 436.308 123.511C436.707 124.478 436.911 125.514 436.909 126.56V126.56Z" fill="white"/>
<path opacity="0.4" d="M279.601 175.899C283.994 175.899 287.555 172.337 287.555 167.945C287.555 163.552 283.994 159.991 279.601 159.991C275.208 159.991 271.647 163.552 271.647 167.945C271.647 172.337 275.208 175.899 279.601 175.899Z" fill="white"/>
<path opacity="0.4" d="M368.171 233.209C364.537 233.209 360.985 232.131 357.963 230.112C354.942 228.093 352.587 225.224 351.196 221.866C349.805 218.509 349.442 214.814 350.151 211.25C350.859 207.686 352.609 204.412 355.179 201.842C357.749 199.273 361.023 197.523 364.587 196.814C368.151 196.105 371.845 196.469 375.203 197.859C378.56 199.25 381.43 201.605 383.449 204.627C385.468 207.648 386.545 211.201 386.545 214.835C386.545 219.708 384.61 224.381 381.164 227.827C377.718 231.273 373.045 233.209 368.171 233.209V233.209ZM368.171 199.934C365.224 199.934 362.344 200.808 359.893 202.445C357.443 204.083 355.533 206.41 354.405 209.133C353.277 211.855 352.982 214.851 353.557 217.742C354.132 220.632 355.551 223.287 357.635 225.371C359.719 227.455 362.374 228.874 365.264 229.449C368.155 230.024 371.151 229.729 373.874 228.601C376.596 227.473 378.924 225.564 380.561 223.113C382.198 220.663 383.072 217.782 383.072 214.835C383.067 210.884 381.496 207.097 378.703 204.303C375.909 201.51 372.122 199.939 368.171 199.934Z" fill="white"/>
<path opacity="0.4" d="M211.871 269.679C216.264 269.679 219.825 266.118 219.825 261.725C219.825 257.332 216.264 253.771 211.871 253.771C207.478 253.771 203.917 257.332 203.917 261.725C203.917 266.118 207.478 269.679 211.871 269.679Z" fill="white"/>
<path opacity="0.4" d="M415.062 333.936C419.454 333.936 423.016 330.375 423.016 325.982C423.016 321.589 419.454 318.028 415.062 318.028C410.669 318.028 407.108 321.589 407.108 325.982C407.108 330.375 410.669 333.936 415.062 333.936Z" fill="white"/>
<path opacity="0.4" d="M314.335 390.968C310.696 390.971 307.139 389.896 304.112 387.877C301.086 385.858 298.726 382.987 297.331 379.627C295.936 376.267 295.57 372.568 296.277 368.999C296.985 365.431 298.735 362.152 301.306 359.578C303.878 357.004 307.155 355.251 310.723 354.54C314.291 353.829 317.99 354.192 321.351 355.584C324.713 356.975 327.586 359.332 329.608 362.357C331.63 365.382 332.709 368.938 332.709 372.577C332.709 377.451 330.773 382.127 327.328 385.575C323.883 389.024 319.209 390.963 314.335 390.968V390.968ZM314.335 357.676C311.383 357.673 308.496 358.545 306.04 360.183C303.584 361.821 301.669 364.151 300.538 366.877C299.407 369.604 299.11 372.605 299.685 375.5C300.26 378.396 301.681 381.055 303.769 383.143C305.856 385.23 308.516 386.651 311.411 387.226C314.307 387.801 317.308 387.504 320.034 386.373C322.761 385.242 325.091 383.327 326.728 380.871C328.366 378.415 329.239 375.529 329.235 372.577C329.231 368.626 327.659 364.839 324.866 362.045C322.073 359.252 318.285 357.681 314.335 357.676V357.676Z" fill="white"/>
<path opacity="0.4" d="M357.751 429.453C362.144 429.453 365.705 425.892 365.705 421.499C365.705 417.106 362.144 413.545 357.751 413.545C353.359 413.545 349.797 417.106 349.797 421.499C349.797 425.892 353.359 429.453 357.751 429.453Z" fill="white"/>
<path opacity="0.4" d="M220.415 458.542C220.419 460.119 219.954 461.662 219.08 462.975C218.207 464.288 216.963 465.313 215.507 465.919C214.05 466.525 212.447 466.685 210.9 466.38C209.352 466.074 207.93 465.316 206.814 464.202C205.697 463.088 204.936 461.668 204.627 460.121C204.318 458.574 204.475 456.97 205.078 455.513C205.681 454.055 206.702 452.809 208.014 451.933C209.325 451.056 210.867 450.588 212.444 450.588C214.554 450.593 216.576 451.431 218.07 452.922C219.563 454.412 220.406 456.432 220.415 458.542V458.542Z" fill="white"/>
<path opacity="0.4" d="M45.1505 235.067C41.1588 235.06 37.2587 233.871 33.9425 231.649C30.6264 229.427 28.043 226.272 26.5186 222.583C24.9942 218.894 24.5972 214.835 25.3776 210.921C26.158 207.006 28.081 203.41 30.9035 200.588C33.7261 197.765 37.3218 195.842 41.2365 195.062C45.1511 194.281 49.2093 194.678 52.8985 196.203C56.5877 197.727 59.7424 200.311 61.9644 203.627C64.1864 206.943 65.3759 210.843 65.3828 214.835C65.3873 217.493 64.8672 220.126 63.852 222.583C62.8369 225.04 61.3467 227.272 59.4671 229.151C57.5874 231.031 55.3552 232.521 52.8985 233.536C50.4417 234.551 47.8088 235.072 45.1505 235.067V235.067ZM45.1505 199.882C42.1863 199.882 39.2886 200.761 36.8239 202.408C34.3593 204.055 32.4383 206.395 31.3039 209.134C30.1695 211.873 29.8728 214.886 30.4511 217.793C31.0293 220.701 32.4568 223.371 34.5528 225.467C36.6488 227.563 39.3194 228.991 42.2266 229.569C45.1339 230.147 48.1474 229.851 50.886 228.716C53.6246 227.582 55.9653 225.661 57.6122 223.196C59.259 220.731 60.138 217.834 60.138 214.87C60.1334 210.896 58.5529 207.087 55.7432 204.277C52.9335 201.467 49.1241 199.887 45.1505 199.882V199.882Z" fill="white"/>
</g>
</svg>
