<?xml version="1.0" standalone="no"?><svg xmlns:xlink="http://www.w3.org/1999/xlink" xmlns="http://www.w3.org/2000/svg" viewBox="0 0 1000 571.4285714285714" preserveAspectRatio="xMaxYMax slice"><g transform="scale(0.7817080320500294)"><rect x="0" y="0" width="1279.25" height="731" fill="#ffffff"/><rect x="0" y="0" width="91.38" height="91.38" fill="#182a45"/><polygon points="91.38,0 91.38,91.38 0,91.38" fill="#2a7d7c"/><rect x="91.375" y="0" width="91.375" height="91.375" fill="#ffffff"/><rect x="91.38" y="0" width="45.69" height="45.69" fill="#2f5969"/><path d="M 91.38 45.69 A 45.69 45.69 0 0 1  137.07 0 L 137.07 45.69" fill="#a1a8b3"/><rect x="137.06" y="0" width="45.69" height="45.69" fill="#f4f2ee"/><path d="M 137.06 0 A 45.69 45.69 0 0 1 182.75 45.69 L 137.06 45.69" fill="#cbcfd5"/><rect x="91.38" y="45.69" width="45.69" height="45.69" fill="#a4abb5"/><path d="M 91.38 45.69 A 45.69 45.69 0 0 0 137.07 91.38 L 137.07 45.69" fill="#d5c29c"/><rect x="137.06" y="45.69" width="45.69" height="45.69" fill="#49576c"/><path d="M 137.06 91.38 A 45.69 45.69 0 0 0 182.75 45.69 L 137.06 45.69" fill="#b0b6c0"/><rect x="182.75" y="0" width="91.375" height="91.375" fill="#ffffff"/><rect x="182.75" y="0" width="45.69" height="45.69" fill="#1f7675"/><path d="M 182.75 0 A 45.69 45.69 0 0 0 228.44 45.69 L 228.44 0" fill="#398685"/><rect x="228.44" y="0" width="45.69" height="45.69" fill="#f3f0ec"/><path d="M 228.44 45.69 A 45.69 45.69 0 0 0 274.13 0 L 228.44 0" fill="#dee5e8"/><rect x="182.75" y="45.69" width="45.69" height="45.69" fill="#f9f8f6"/><path d="M 182.75 91.38 A 45.69 45.69 0 0 1  228.44 45.69 L 228.44 91.38" fill="#b3b9c2"/><rect x="228.44" y="45.69" width="45.69" height="45.69" fill="#fcfbfa"/><path d="M 228.44 45.69 A 45.69 45.69 0 0 1 274.13 91.38 L 228.44 91.38" fill="#438c8b"/><rect x="274.125" y="0" width="91.375" height="91.375" fill="#ffffff"/><rect x="274.13" y="0" width="45.69" height="45.69" fill="#6a7587"/><circle cx="296.975" cy="22.845" r="22.845" fill="#245061"/><rect x="319.81" y="0" width="45.69" height="45.69" fill="#a2c6c6"/><rect x="319.81" y="0" width="45.69" height="45.69" fill="#6a8894"/><rect x="274.13" y="45.69" width="45.69" height="45.69" fill="#cfd9dd"/><circle cx="296.975" cy="68.535" r="22.845" fill="#ede5d5"/><rect x="319.81" y="45.69" width="45.69" height="45.69" fill="#49908f"/><rect x="319.81" y="45.69" width="45.69" height="45.69" fill="#e8e4dc"/><rect x="365.5" y="0" width="91.38" height="91.38" fill="#3f6674"/><path d="M 365.5 91.38 A 91.38 91.38 0 0 0 456.88 0 L 365.5 0" fill="#5e6a7d"/><rect x="456.88" y="0" width="91.38" height="91.38" fill="#9199a6"/><rect x="456.88" y="0" width="91.38" height="91.38" fill="#ebe7e0"/><rect x="548.25" y="0" width="91.375" height="91.375" fill="#ffffff"/><rect x="548.25" y="0" width="45.69" height="45.69" fill="#1a2b46"/><circle cx="571.095" cy="22.845" r="22.845" fill="#c1a46c"/><rect x="593.94" y="0" width="45.69" height="45.69" fill="#f5f3ef"/><rect x="593.94" y="0" width="45.69" height="45.69" fill="#24354f"/><rect x="548.25" y="45.69" width="45.69" height="45.69" fill="#e3e9eb"/><circle cx="571.095" cy="68.535" r="22.845" fill="#455369"/><rect x="593.94" y="45.69" width="45.69" height="45.69" fill="#083a4d"/><rect x="593.94" y="45.69" width="45.69" height="45.69" fill="#f2efeb"/><rect x="639.63" y="0" width="91.38" height="91.38" fill="#1a7372"/><polygon points="639.63,0 731.01,0 639.63,91.38" fill="#9bafb7"/><rect x="731" y="0" width="91.38" height="91.38" fill="#f9f7f5"/><rect x="731" y="0" width="91.38" height="91.38" fill="#184758"/><rect x="822.38" y="0" width="91.38" height="91.38" fill="#f4efe6"/><polygon points="822.38,0 913.76,91.38 822.38,91.38" fill="#f2ece1"/><rect x="913.75" y="0" width="91.38" height="91.38" fill="#8992a0"/><rect x="913.75" y="0" width="91.38" height="91.38" fill="#bb9d60"/><rect x="1005.125" y="0" width="91.375" height="91.375" fill="#ffffff"/><rect x="1005.13" y="0" width="45.69" height="45.69" fill="#ecedf0"/><path d="M 1005.13 45.69 A 45.69 45.69 0 0 1  1050.82 0 L 1050.82 45.69" fill="#fbfaf9"/><rect x="1050.81" y="0" width="45.69" height="45.69" fill="#a7adb8"/><path d="M 1050.81 0 A 45.69 45.69 0 0 1 1096.5 45.69 L 1050.81 45.69" fill="#fafaf8"/><rect x="1005.13" y="45.69" width="45.69" height="45.69" fill="#ece3d2"/><path d="M 1005.13 45.69 A 45.69 45.69 0 0 0 1050.82 91.38 L 1050.82 45.69" fill="#fbfbfa"/><rect x="1050.81" y="45.69" width="45.69" height="45.69" fill="#fffefe"/><path d="M 1050.81 91.38 A 45.69 45.69 0 0 0 1096.5 45.69 L 1050.81 45.69" fill="#f5f6f7"/><rect x="1096.5" y="0" width="91.38" height="91.38" fill="#b6c5ca"/><polygon points="1096.5,0 1187.88,0 1187.88,91.38" fill="#283852"/><rect x="1187.88" y="0" width="91.38" height="91.38" fill="#056665"/><path d="M 1187.88 0 A 91.38 91.38 0 0 0 1279.2600000000002 91.38 L 1279.2600000000002 0" fill="#f5f3f0"/><rect x="0" y="91.38" width="91.38" height="91.38" fill="#f1eee9"/><polygon points="0,91.38 91.38,182.76 0,182.76" fill="#3b4a61"/><rect x="91.375" y="91.375" width="91.375" height="91.375" fill="#ffffff"/><rect x="91.38" y="91.38" width="45.69" height="45.69" fill="#f2f5f6"/><path d="M 91.38 137.07 A 45.69 45.69 0 0 1 137.07 91.38 L 137.07 102.8025 A 34.2675 34.2675 0 0 0 102.8025 137.07" fill="#acbdc3"/><rect x="137.06" y="91.38" width="45.69" height="45.69" fill="#6da6a5"/><path d="M 137.06 91.38 A 45.69 45.69 0 0 1 182.75 137.07 L 171.3275 137.07 A 34.2675 34.2675 0 0 0 137.06 102.8025" fill="#eae6df"/><rect x="91.38" y="137.06" width="45.69" height="45.69" fill="#ebe2d1"/><path d="M 91.38 137.06 A 45.69 45.69 0 0 0 137.07 182.75 L 137.07 171.3275 A 34.2675 34.2675 0 0 1 102.8025 137.06" fill="#fafbfc"/><rect x="137.06" y="137.06" width="45.69" height="45.69" fill="#2d7f7e"/><path d="M 137.06 182.75 A 45.69 45.69 0 0 0 182.75 137.06 L 171.3275 137.06 A 34.2675 34.2675 0 0 1 137.06 171.3275" fill="#819aa4"/><rect x="182.75" y="91.38" width="91.38" height="91.38" fill="#114153"/><polygon points="274.13,91.38 274.13,182.76 182.75,182.76" fill="#6e798a"/><rect x="274.125" y="91.375" width="91.375" height="91.375" fill="#ffffff"/><rect x="274.13" y="91.38" width="45.69" height="45.69" fill="#b2d0d0"/><path d="M 274.13 91.38 A 45.69 45.69 0 0 0 319.82 137.07 L 319.82 91.38" fill="#6ca5a5"/><rect x="319.81" y="91.38" width="45.69" height="45.69" fill="#f0e9db"/><path d="M 319.81 137.07 A 45.69 45.69 0 0 0 365.5 91.38 L 319.81 91.38" fill="#a8b9c0"/><rect x="274.13" y="137.06" width="45.69" height="45.69" fill="#d7e6e6"/><path d="M 274.13 182.75 A 45.69 45.69 0 0 1  319.82 137.06 L 319.82 182.75" fill="#cdd7db"/><rect x="319.81" y="137.06" width="45.69" height="45.69" fill="#c7cbd2"/><path d="M 319.81 137.06 A 45.69 45.69 0 0 1 365.5 182.75 L 319.81 182.75" fill="#ebe8e1"/><rect x="365.5" y="91.38" width="91.38" height="91.38" fill="#d9dce1"/><rect x="365.5" y="91.38" width="91.38" height="91.38" fill="#f5f3ef"/><rect x="456.88" y="91.38" width="91.38" height="91.38" fill="#394860"/><path d="M 456.88 91.38 A 91.38 91.38 0 0 1 548.26 182.76 L 456.88 182.76" fill="#e9e4dd"/><rect x="548.25" y="91.375" width="91.375" height="91.375" fill="#ffffff"/><rect x="548.25" y="91.38" width="45.69" height="45.69" fill="#106d6c"/><path d="M 548.25 91.38 A 45.69 45.69 0 0 1 593.94 137.07 L 548.25 137.07" fill="#d6dee1"/><rect x="593.94" y="91.38" width="45.69" height="45.69" fill="#073a4c"/><path d="M 593.94 137.07 A 45.69 45.69 0 0 1  639.6300000000001 91.38 L 639.6300000000001 137.07" fill="#d2dbdf"/><rect x="548.25" y="137.06" width="45.69" height="45.69" fill="#f1eeea"/><path d="M 548.25 182.75 A 45.69 45.69 0 0 0 593.94 137.06 L 548.25 137.06" fill="#f6f2ea"/><rect x="593.94" y="137.06" width="45.69" height="45.69" fill="#0b3c4e"/><path d="M 593.94 137.06 A 45.69 45.69 0 0 0 639.6300000000001 182.75 L 639.6300000000001 137.06" fill="#e5d9c1"/><rect x="639.625" y="91.375" width="91.375" height="91.375" fill="#ffffff"/><rect x="639.63" y="91.38" width="45.69" height="45.69" fill="#ede5d5"/><circle cx="662.475" cy="114.225" r="22.845" fill="#d8e7e7"/><rect x="685.31" y="91.38" width="45.69" height="45.69" fill="#5f9d9d"/><rect x="685.31" y="91.38" width="45.69" height="45.69" fill="#8cb9b8"/><rect x="639.63" y="137.06" width="45.69" height="45.69" fill="#989fac"/><circle cx="662.475" cy="159.905" r="22.845" fill="#f7f4ed"/><rect x="685.31" y="137.06" width="45.69" height="45.69" fill="#fefefd"/><rect x="685.31" y="137.06" width="45.69" height="45.69" fill="#1c4a5b"/><rect x="731" y="91.375" width="91.375" height="91.375" fill="#ffffff"/><rect x="731" y="91.38" width="45.69" height="45.69" fill="#fefefe"/><path d="M 731 137.07 A 45.69 45.69 0 0 1 776.69 91.38 L 776.69 102.8025 A 34.2675 34.2675 0 0 0 742.4225 137.07" fill="#668590"/><rect x="776.69" y="91.38" width="45.69" height="45.69" fill="#d5d8dd"/><path d="M 776.69 91.38 A 45.69 45.69 0 0 1 822.3800000000001 137.07 L 810.9575000000001 137.07 A 34.2675 34.2675 0 0 0 776.69 102.8025" fill="#214e5f"/><rect x="731" y="137.06" width="45.69" height="45.69" fill="#d0e2e2"/><path d="M 731 137.06 A 45.69 45.69 0 0 0 776.69 182.75 L 776.69 171.3275 A 34.2675 34.2675 0 0 1 742.4225 137.06" fill="#c0a36a"/><rect x="776.69" y="137.06" width="45.69" height="45.69" fill="#5b7d89"/><path d="M 776.69 182.75 A 45.69 45.69 0 0 0 822.3800000000001 137.06 L 810.9575000000001 137.06 A 34.2675 34.2675 0 0 1 776.69 171.3275" fill="#e4dfd6"/><rect x="822.375" y="91.375" width="91.375" height="91.375" fill="#ffffff"/><rect x="822.38" y="91.38" width="45.69" height="45.69" fill="#b5c4c9"/><path d="M 822.38 137.07 A 45.69 45.69 0 0 1  868.0699999999999 91.38 L 868.0699999999999 137.07" fill="#98adb5"/><rect x="868.06" y="91.38" width="45.69" height="45.69" fill="#e6ebed"/><path d="M 868.06 91.38 A 45.69 45.69 0 0 1 913.75 137.07 L 868.06 137.07" fill="#e6ebed"/><rect x="822.38" y="137.06" width="45.69" height="45.69" fill="#0b1d3a"/><path d="M 822.38 137.06 A 45.69 45.69 0 0 0 868.0699999999999 182.75 L 868.0699999999999 137.06" fill="#6d8a95"/><rect x="868.06" y="137.06" width="45.69" height="45.69" fill="#eeeae5"/><path d="M 868.06 182.75 A 45.69 45.69 0 0 0 913.75 137.06 L 868.06 137.06" fill="#056665"/><rect x="913.75" y="91.375" width="91.375" height="91.375" fill="#ffffff"/><rect x="913.75" y="91.38" width="45.69" height="45.69" fill="#d4dde0"/><path d="M 913.75 91.38 A 45.69 45.69 0 0 1 959.44 137.07 L 913.75 137.07" fill="#fbfbfc"/><rect x="959.44" y="91.38" width="45.69" height="45.69" fill="#7b959f"/><path d="M 959.44 137.07 A 45.69 45.69 0 0 1  1005.1300000000001 91.38 L 1005.1300000000001 137.07" fill="#d4c19a"/><rect x="913.75" y="137.06" width="45.69" height="45.69" fill="#4e9392"/><path d="M 913.75 182.75 A 45.69 45.69 0 0 0 959.44 137.06 L 913.75 137.06" fill="#d2e4e3"/><rect x="959.44" y="137.06" width="45.69" height="45.69" fill="#2d7f7e"/><path d="M 959.44 137.06 A 45.69 45.69 0 0 0 1005.1300000000001 182.75 L 1005.1300000000001 137.06" fill="#bb9b5e"/><rect x="1005.125" y="91.375" width="91.375" height="91.375" fill="#ffffff"/><rect x="1005.13" y="91.38" width="45.69" height="45.69" fill="#ece4d3"/><polygon points="1005.13,91.38 1050.82,91.38 1005.13,137.07" fill="#253650"/><rect x="1050.81" y="91.38" width="45.69" height="45.69" fill="#d7c5a0"/><polygon points="1050.81,91.38 1096.5,91.38 1096.5,137.07" fill="#d3d6db"/><rect x="1005.13" y="137.06" width="45.69" height="45.69" fill="#4a9090"/><polygon points="1050.82,137.06 1050.82,182.75 1005.13,182.75" fill="#678691"/><rect x="1050.81" y="137.06" width="45.69" height="45.69" fill="#c3dada"/><polygon points="1050.81,137.06 1096.5,182.75 1050.81,182.75" fill="#a1a8b4"/><rect x="1096.5" y="91.375" width="91.375" height="91.375" fill="#ffffff"/><rect x="1096.5" y="91.38" width="45.69" height="45.69" fill="#f8f7f4"/><polygon points="1096.5,91.38 1142.19,91.38 1096.5,137.07" fill="#e3ddd3"/><rect x="1142.19" y="91.38" width="45.69" height="45.69" fill="#c5ab77"/><polygon points="1187.88,91.38 1187.88,137.07 1142.19,137.07" fill="#d7dadf"/><rect x="1096.5" y="137.06" width="45.69" height="45.69" fill="#c1a46c"/><polygon points="1096.5,137.06 1142.19,137.06 1142.19,182.75" fill="#e4ded5"/><rect x="1142.19" y="137.06" width="45.69" height="45.69" fill="#dfe6e8"/><polygon points="1142.19,137.06 1187.88,182.75 1142.19,182.75" fill="#658490"/><rect x="1187.875" y="91.375" width="91.375" height="91.375" fill="#ffffff"/><rect x="1187.88" y="91.38" width="45.69" height="45.69" fill="#a2a9b4"/><circle cx="1210.7250000000001" cy="114.225" r="22.845" fill="#1b7473"/><rect x="1233.56" y="91.38" width="45.69" height="45.69" fill="#ede9e3"/><rect x="1233.56" y="91.38" width="45.69" height="45.69" fill="#c1a56d"/><rect x="1187.88" y="137.06" width="45.69" height="45.69" fill="#428b8b"/><circle cx="1210.7250000000001" cy="159.905" r="22.845" fill="#dbcaaa"/><rect x="1233.56" y="137.06" width="45.69" height="45.69" fill="#eae6df"/><rect x="1233.56" y="137.06" width="45.69" height="45.69" fill="#e4d8c0"/><rect x="0" y="182.75" width="91.375" height="91.375" fill="#ffffff"/><rect x="0" y="182.75" width="45.69" height="45.69" fill="#e1e3e6"/><polygon points="0,182.75 45.69,182.75 0,228.44" fill="#3c4b62"/><rect x="45.69" y="182.75" width="45.69" height="45.69" fill="#2d7e7e"/><polygon points="91.38,182.75 91.38,228.44 45.69,228.44" fill="#eae1ce"/><rect x="0" y="228.44" width="45.69" height="45.69" fill="#37606f"/><polygon points="0,228.44 45.69,228.44 45.69,274.13" fill="#265263"/><rect x="45.69" y="228.44" width="45.69" height="45.69" fill="#f3f1ed"/><polygon points="45.69,228.44 91.38,274.13 45.69,274.13" fill="#c6ac78"/><rect x="91.375" y="182.75" width="91.375" height="91.375" fill="#ffffff"/><rect x="91.38" y="182.75" width="45.69" height="45.69" fill="#a3aab5"/><path d="M 91.38 228.44 A 45.69 45.69 0 0 1 137.07 182.75 L 137.07 194.1725 A 34.2675 34.2675 0 0 0 102.8025 228.44" fill="#73a9a9"/><rect x="137.06" y="182.75" width="45.69" height="45.69" fill="#7aaead"/><path d="M 137.06 182.75 A 45.69 45.69 0 0 1 182.75 228.44 L 171.3275 228.44 A 34.2675 34.2675 0 0 0 137.06 194.1725" fill="#f5f3f0"/><rect x="91.38" y="228.44" width="45.69" height="45.69" fill="#8f98a5"/><path d="M 91.38 228.44 A 45.69 45.69 0 0 0 137.07 274.13 L 137.07 262.7075 A 34.2675 34.2675 0 0 1 102.8025 228.44" fill="#418b8a"/><rect x="137.06" y="228.44" width="45.69" height="45.69" fill="#b5bbc4"/><path d="M 137.06 274.13 A 45.69 45.69 0 0 0 182.75 228.44 L 171.3275 228.44 A 34.2675 34.2675 0 0 1 137.06 262.7075" fill="#e1e3e7"/><rect x="182.75" y="182.75" width="91.375" height="91.375" fill="#ffffff"/><rect x="182.75" y="182.75" width="45.69" height="45.69" fill="#e8f1f1"/><path d="M 182.75 228.44 A 45.69 45.69 0 0 1  228.44 182.75 L 228.44 228.44" fill="#1a7372"/><rect x="228.44" y="182.75" width="45.69" height="45.69" fill="#fbf9f6"/><path d="M 228.44 182.75 A 45.69 45.69 0 0 1 274.13 228.44 L 228.44 228.44" fill="#e0d2b6"/><rect x="182.75" y="228.44" width="45.69" height="45.69" fill="#77acab"/><path d="M 182.75 228.44 A 45.69 45.69 0 0 0 228.44 274.13 L 228.44 228.44" fill="#d1bc93"/><rect x="228.44" y="228.44" width="45.69" height="45.69" fill="#e5e0d7"/><path d="M 228.44 274.13 A 45.69 45.69 0 0 0 274.13 228.44 L 228.44 228.44" fill="#bea065"/><rect x="274.125" y="182.75" width="91.375" height="91.375" fill="#ffffff"/><rect x="274.13" y="182.75" width="45.69" height="45.69" fill="#f2f5f6"/><path d="M 274.13 182.75 A 45.69 45.69 0 0 1 319.82 228.44 L 274.13 228.44" fill="#f5f3f0"/><rect x="319.81" y="182.75" width="45.69" height="45.69" fill="#959daa"/><path d="M 319.81 228.44 A 45.69 45.69 0 0 1  365.5 182.75 L 365.5 228.44" fill="#525f74"/><rect x="274.13" y="228.44" width="45.69" height="45.69" fill="#ede5d5"/><path d="M 274.13 274.13 A 45.69 45.69 0 0 0 319.82 228.44 L 274.13 228.44" fill="#2b5666"/><rect x="319.81" y="228.44" width="45.69" height="45.69" fill="#efebe6"/><path d="M 319.81 228.44 A 45.69 45.69 0 0 0 365.5 274.13 L 365.5 228.44" fill="#e9f1f1"/><rect x="365.5" y="182.75" width="91.38" height="91.38" fill="#f9f6f1"/><rect x="365.5" y="182.75" width="91.38" height="91.38" fill="#d1e3e3"/><rect x="456.875" y="182.75" width="91.375" height="91.375" fill="#ffffff"/><rect x="456.88" y="182.75" width="45.69" height="45.69" fill="#f1f2f4"/><polygon points="456.88,182.75 502.57,182.75 456.88,228.44" fill="#7c8696"/><rect x="502.56" y="182.75" width="45.69" height="45.69" fill="#eae6df"/><polygon points="502.56,182.75 548.25,182.75 548.25,228.44" fill="#b9d4d4"/><rect x="456.88" y="228.44" width="45.69" height="45.69" fill="#586478"/><polygon points="456.88,228.44 502.57,274.13 456.88,274.13" fill="#ede9e3"/><rect x="502.56" y="228.44" width="45.69" height="45.69" fill="#f6f4f1"/><polygon points="548.25,228.44 548.25,274.13 502.56,274.13" fill="#066766"/><rect x="548.25" y="182.75" width="91.38" height="91.38" fill="#a9b0ba"/><rect x="548.25" y="182.75" width="91.38" height="91.38" fill="#406675"/><rect x="639.63" y="182.75" width="91.38" height="91.38" fill="#64838f"/><path d="M 639.63 182.75 A 91.38 91.38 0 0 1 731.01 274.13 L 639.63 274.13" fill="#c5c9d0"/><rect x="731" y="182.75" width="91.375" height="91.375" fill="#ffffff"/><rect x="731" y="182.75" width="45.69" height="45.69" fill="#e6e1d9"/><polygon points="731,182.75 776.69,182.75 731,228.44" fill="#c8af7e"/><rect x="776.69" y="182.75" width="45.69" height="45.69" fill="#f0ede8"/><polygon points="776.69,182.75 822.3800000000001,182.75 822.3800000000001,228.44" fill="#d2e3e3"/><rect x="731" y="228.44" width="45.69" height="45.69" fill="#9fa6b1"/><polygon points="731,228.44 776.69,274.13 731,274.13" fill="#95bebe"/><rect x="776.69" y="228.44" width="45.69" height="45.69" fill="#8ca3ac"/><polygon points="822.3800000000001,228.44 822.3800000000001,274.13 776.69,274.13" fill="#ebe2d1"/><rect x="822.38" y="182.75" width="91.38" height="91.38" fill="#f4f5f6"/><path d="M 822.38 274.13 A 91.38 91.38 0 0 1  913.76 182.75 L 822.38 274.13 A 91.38 91.38 0 0 0 913.76 182.75" fill="#7cafae"/><rect x="913.75" y="182.75" width="91.38" height="91.38" fill="#fefdfd"/><path d="M 913.75 182.75 A 91.38 91.38 0 0 1  1005.13 274.13 L 913.75 182.75 A 91.38 91.38 0 0 0 1005.13 274.13" fill="#e9dfcb"/><rect x="1005.13" y="182.75" width="91.38" height="91.38" fill="#e7f0f0"/><rect x="1005.13" y="182.75" width="91.38" height="91.38" fill="#cdd1d7"/><rect x="1096.5" y="182.75" width="91.375" height="91.375" fill="#ffffff"/><rect x="1096.5" y="182.75" width="45.69" height="45.69" fill="#414f66"/><path d="M 1096.5 228.44 A 45.69 45.69 0 0 1  1142.19 182.75 L 1142.19 228.44" fill="#297c7b"/><rect x="1142.19" y="182.75" width="45.69" height="45.69" fill="#d1bc93"/><path d="M 1142.19 182.75 A 45.69 45.69 0 0 1 1187.88 228.44 L 1142.19 228.44" fill="#fdfdfe"/><rect x="1096.5" y="228.44" width="45.69" height="45.69" fill="#368483"/><path d="M 1096.5 228.44 A 45.69 45.69 0 0 0 1142.19 274.13 L 1142.19 228.44" fill="#f4f0e6"/><rect x="1142.19" y="228.44" width="45.69" height="45.69" fill="#b28f49"/><path d="M 1142.19 274.13 A 45.69 45.69 0 0 0 1187.88 228.44 L 1142.19 228.44" fill="#bb9c5f"/><rect x="1187.875" y="182.75" width="91.375" height="91.375" fill="#ffffff"/><rect x="1187.88" y="182.75" width="45.69" height="45.69" fill="#e5e0d7"/><circle cx="1210.7250000000001" cy="205.595" r="22.845" fill="#d2dbdf"/><rect x="1233.56" y="182.75" width="45.69" height="45.69" fill="#328281"/><rect x="1233.56" y="182.75" width="45.69" height="45.69" fill="#e4d8c0"/><rect x="1187.88" y="228.44" width="45.69" height="45.69" fill="#77929d"/><circle cx="1210.7250000000001" cy="251.285" r="22.845" fill="#455369"/><rect x="1233.56" y="228.44" width="45.69" height="45.69" fill="#e0e7e9"/><rect x="1233.56" y="228.44" width="45.69" height="45.69" fill="#f0e9dc"/><rect x="0" y="274.125" width="91.375" height="91.375" fill="#ffffff"/><rect x="0" y="274.13" width="45.69" height="45.69" fill="#77acab"/><path d="M 0 274.13 A 45.69 45.69 0 0 0 45.69 319.82 L 45.69 274.13" fill="#b89858"/><rect x="45.69" y="274.13" width="45.69" height="45.69" fill="#6fa7a6"/><path d="M 45.69 319.82 A 45.69 45.69 0 0 0 91.38 274.13 L 45.69 274.13" fill="#e2dcd2"/><rect x="0" y="319.81" width="45.69" height="45.69" fill="#d4d8dd"/><path d="M 0 365.5 A 45.69 45.69 0 0 1  45.69 319.81 L 45.69 365.5" fill="#e3eeee"/><rect x="45.69" y="319.81" width="45.69" height="45.69" fill="#ebe7e0"/><path d="M 45.69 319.81 A 45.69 45.69 0 0 1 91.38 365.5 L 45.69 365.5" fill="#efe8da"/><rect x="91.375" y="274.125" width="91.375" height="91.375" fill="#ffffff"/><rect x="91.38" y="274.13" width="45.69" height="45.69" fill="#fcfdfd"/><path d="M 91.38 274.13 A 45.69 45.69 0 0 1 137.07 319.82 L 91.38 319.82" fill="#cdd7db"/><rect x="137.06" y="274.13" width="45.69" height="45.69" fill="#959daa"/><path d="M 137.06 319.82 A 45.69 45.69 0 0 1  182.75 274.13 L 182.75 319.82" fill="#e0ecec"/><rect x="91.38" y="319.81" width="45.69" height="45.69" fill="#bcc1c9"/><path d="M 91.38 365.5 A 45.69 45.69 0 0 0 137.07 319.81 L 91.38 319.81" fill="#687385"/><rect x="137.06" y="319.81" width="45.69" height="45.69" fill="#d6dee1"/><path d="M 137.06 319.81 A 45.69 45.69 0 0 0 182.75 365.5 L 182.75 319.81" fill="#d2e3e3"/><rect x="182.75" y="274.13" width="91.38" height="91.38" fill="#505d72"/><rect x="182.75" y="274.13" width="91.38" height="91.38" fill="#e9e5dd"/><rect x="274.13" y="274.13" width="91.38" height="91.38" fill="#c8ae7d"/><path d="M 274.13 365.51 A 91.38 91.38 0 0 1  365.51 274.13 L 365.51 365.51" fill="#576478"/><rect x="365.5" y="274.125" width="91.375" height="91.375" fill="#ffffff"/><rect x="365.5" y="274.13" width="45.69" height="45.69" fill="#071a37"/><polygon points="365.5,274.13 411.19,274.13 365.5,319.82" fill="#75919b"/><rect x="411.19" y="274.13" width="45.69" height="45.69" fill="#304058"/><polygon points="411.19,274.13 456.88,274.13 456.88,319.82" fill="#a5acb6"/><rect x="365.5" y="319.81" width="45.69" height="45.69" fill="#c5dbdb"/><polygon points="411.19,319.81 411.19,365.5 365.5,365.5" fill="#e1dbd1"/><rect x="411.19" y="319.81" width="45.69" height="45.69" fill="#c4a974"/><polygon points="411.19,319.81 456.88,365.5 411.19,365.5" fill="#f4f2ef"/><rect x="456.875" y="274.125" width="91.375" height="91.375" fill="#ffffff"/><rect x="456.88" y="274.13" width="45.69" height="45.69" fill="#fdfdfd"/><polygon points="456.88,274.13 502.57,274.13 456.88,319.82" fill="#b0c0c6"/><rect x="502.56" y="274.13" width="45.69" height="45.69" fill="#559796"/><polygon points="548.25,274.13 548.25,319.82 502.56,319.82" fill="#ba9a5c"/><rect x="456.88" y="319.81" width="45.69" height="45.69" fill="#b28f49"/><polygon points="456.88,319.81 502.57,319.81 502.57,365.5" fill="#ffffff"/><rect x="502.56" y="319.81" width="45.69" height="45.69" fill="#ba9b5e"/><polygon points="502.56,319.81 548.25,365.5 502.56,365.5" fill="#23344e"/><rect x="548.25" y="274.13" width="91.38" height="91.38" fill="#929aa7"/><polygon points="548.25,274.13 639.63,274.13 548.25,365.51" fill="#144456"/><rect x="639.63" y="274.13" width="91.38" height="91.38" fill="#c2c7ce"/><rect x="639.63" y="274.13" width="91.38" height="91.38" fill="#cfe1e1"/><rect x="731" y="274.125" width="91.375" height="91.375" fill="#ffffff"/><rect x="731" y="274.13" width="45.69" height="45.69" fill="#6a8894"/><path d="M 731 274.13 A 45.69 45.69 0 0 1 776.69 319.82 L 731 319.82" fill="#88919f"/><rect x="776.69" y="274.13" width="45.69" height="45.69" fill="#b59351"/><path d="M 776.69 319.82 A 45.69 45.69 0 0 1  822.3800000000001 274.13 L 822.3800000000001 319.82" fill="#ede9e3"/><rect x="731" y="319.81" width="45.69" height="45.69" fill="#549696"/><path d="M 731 365.5 A 45.69 45.69 0 0 0 776.69 319.81 L 731 319.81" fill="#bc9e62"/><rect x="776.69" y="319.81" width="45.69" height="45.69" fill="#e4dfd6"/><path d="M 776.69 319.81 A 45.69 45.69 0 0 0 822.3800000000001 365.5 L 822.3800000000001 319.81" fill="#e3ded4"/><rect x="822.375" y="274.125" width="91.375" height="91.375" fill="#ffffff"/><rect x="822.38" y="274.13" width="45.69" height="45.69" fill="#afcece"/><path d="M 822.38 319.82 A 45.69 45.69 0 0 0 868.0699999999999 274.13 L 822.38 274.13" fill="#bad5d5"/><rect x="868.06" y="274.13" width="45.69" height="45.69" fill="#7e98a2"/><path d="M 868.06 274.13 A 45.69 45.69 0 0 0 913.75 319.82 L 913.75 274.13" fill="#3e8988"/><rect x="822.38" y="319.81" width="45.69" height="45.69" fill="#cdb688"/><path d="M 822.38 319.81 A 45.69 45.69 0 0 1 868.0699999999999 365.5 L 822.38 365.5" fill="#d4c099"/><rect x="868.06" y="319.81" width="45.69" height="45.69" fill="#f9f7f5"/><path d="M 868.06 365.5 A 45.69 45.69 0 0 1  913.75 319.81 L 913.75 365.5" fill="#4c596f"/><rect x="913.75" y="274.125" width="91.375" height="91.375" fill="#ffffff"/><rect x="913.75" y="274.13" width="45.69" height="45.69" fill="#e5e0d8"/><path d="M 913.75 319.82 A 45.69 45.69 0 0 1  959.44 274.13 L 959.44 319.82" fill="#d6c39e"/><rect x="959.44" y="274.13" width="45.69" height="45.69" fill="#decfb1"/><path d="M 959.44 274.13 A 45.69 45.69 0 0 1 1005.1300000000001 319.82 L 959.44 319.82" fill="#182945"/><rect x="913.75" y="319.81" width="45.69" height="45.69" fill="#e7e3db"/><path d="M 913.75 319.81 A 45.69 45.69 0 0 0 959.44 365.5 L 959.44 319.81" fill="#bfccd1"/><rect x="959.44" y="319.81" width="45.69" height="45.69" fill="#104052"/><path d="M 959.44 365.5 A 45.69 45.69 0 0 0 1005.1300000000001 319.81 L 959.44 319.81" fill="#fbfaf9"/><rect x="1005.13" y="274.13" width="91.38" height="91.38" fill="#788292"/><path d="M 1005.13 365.51 A 91.38 91.38 0 0 1  1096.51 274.13 L 1005.13 365.51 A 91.38 91.38 0 0 0 1096.51 274.13" fill="#eae6df"/><rect x="1096.5" y="274.13" width="91.38" height="91.38" fill="#fcfbfa"/><path d="M 1096.5 365.51 A 91.38 91.38 0 0 0 1187.88 274.13 L 1096.5 274.13" fill="#a3c7c7"/><rect x="1187.88" y="274.13" width="91.38" height="91.38" fill="#5e9c9c"/><rect x="1187.88" y="274.13" width="91.38" height="91.38" fill="#2f5969"/><rect x="0" y="365.5" width="91.375" height="91.375" fill="#ffffff"/><rect x="0" y="365.5" width="45.69" height="45.69" fill="#ddeaea"/><path d="M 0 365.5 A 45.69 45.69 0 0 1 45.69 411.19 L 0 411.19" fill="#b5d2d1"/><rect x="45.69" y="365.5" width="45.69" height="45.69" fill="#cbb384"/><path d="M 45.69 411.19 A 45.69 45.69 0 0 1  91.38 365.5 L 91.38 411.19" fill="#829ba5"/><rect x="0" y="411.19" width="45.69" height="45.69" fill="#eef4f4"/><path d="M 0 456.88 A 45.69 45.69 0 0 0 45.69 411.19 L 0 411.19" fill="#ebe1cf"/><rect x="45.69" y="411.19" width="45.69" height="45.69" fill="#b3d0d0"/><path d="M 45.69 411.19 A 45.69 45.69 0 0 0 91.38 456.88 L 91.38 411.19" fill="#949ca8"/><rect x="91.38" y="365.5" width="91.38" height="91.38" fill="#eee7d8"/><polygon points="91.38,365.5 182.76,365.5 182.76,456.88" fill="#0a6968"/><rect x="182.75" y="365.5" width="91.38" height="91.38" fill="#f5f3f0"/><polygon points="182.75,365.5 274.13,365.5 182.75,456.88" fill="#606c7f"/><rect x="274.125" y="365.5" width="91.375" height="91.375" fill="#ffffff"/><rect x="274.13" y="365.5" width="45.69" height="45.69" fill="#eeeae4"/><path d="M 274.13 365.5 A 45.69 45.69 0 0 1 319.82 411.19 L 274.13 411.19" fill="#b6d3d2"/><rect x="319.81" y="365.5" width="45.69" height="45.69" fill="#9fb2b9"/><path d="M 319.81 411.19 A 45.69 45.69 0 0 1  365.5 365.5 L 365.5 411.19" fill="#e9e4dd"/><rect x="274.13" y="411.19" width="45.69" height="45.69" fill="#e5efef"/><path d="M 274.13 456.88 A 45.69 45.69 0 0 0 319.82 411.19 L 274.13 411.19" fill="#afcece"/><rect x="319.81" y="411.19" width="45.69" height="45.69" fill="#f2f0ec"/><path d="M 319.81 411.19 A 45.69 45.69 0 0 0 365.5 456.88 L 365.5 411.19" fill="#ebe7e0"/><rect x="365.5" y="365.5" width="91.38" height="91.38" fill="#fdfdfb"/><polygon points="456.88,365.5 456.88,456.88 365.5,456.88" fill="#f2f0eb"/><rect x="456.875" y="365.5" width="91.375" height="91.375" fill="#ffffff"/><rect x="456.88" y="365.5" width="45.69" height="45.69" fill="#f0ece7"/><path d="M 456.88 411.19 A 45.69 45.69 0 0 1  502.57 365.5 L 502.57 411.19" fill="#f9f8f6"/><rect x="502.56" y="365.5" width="45.69" height="45.69" fill="#94aab2"/><path d="M 502.56 365.5 A 45.69 45.69 0 0 1 548.25 411.19 L 502.56 411.19" fill="#8b94a1"/><rect x="456.88" y="411.19" width="45.69" height="45.69" fill="#838c9b"/><path d="M 456.88 411.19 A 45.69 45.69 0 0 0 502.57 456.88 L 502.57 411.19" fill="#425067"/><rect x="502.56" y="411.19" width="45.69" height="45.69" fill="#e6e8eb"/><path d="M 502.56 456.88 A 45.69 45.69 0 0 0 548.25 411.19 L 502.56 411.19" fill="#efebe6"/><rect x="548.25" y="365.5" width="91.375" height="91.375" fill="#ffffff"/><rect x="548.25" y="365.5" width="45.69" height="45.69" fill="#fbfaf9"/><path d="M 548.25 411.19 A 45.69 45.69 0 0 0 593.94 365.5 L 548.25 365.5" fill="#086867"/><rect x="593.94" y="365.5" width="45.69" height="45.69" fill="#267b7a"/><path d="M 593.94 365.5 A 45.69 45.69 0 0 0 639.6300000000001 411.19 L 639.6300000000001 365.5" fill="#e9e5de"/><rect x="548.25" y="411.19" width="45.69" height="45.69" fill="#9cb0b8"/><path d="M 548.25 411.19 A 45.69 45.69 0 0 1 593.94 456.88 L 548.25 456.88" fill="#98c0bf"/><rect x="593.94" y="411.19" width="45.69" height="45.69" fill="#dee4e7"/><path d="M 593.94 456.88 A 45.69 45.69 0 0 1  639.6300000000001 411.19 L 639.6300000000001 456.88" fill="#fdfcfc"/><rect x="639.625" y="365.5" width="91.375" height="91.375" fill="#ffffff"/><rect x="639.63" y="365.5" width="45.69" height="45.69" fill="#dfd1b4"/><polygon points="639.63,365.5 685.3199999999999,365.5 639.63,411.19" fill="#5d9c9b"/><rect x="685.31" y="365.5" width="45.69" height="45.69" fill="#e5e0d7"/><polygon points="685.31,365.5 731,365.5 731,411.19" fill="#cbb486"/><rect x="639.63" y="411.19" width="45.69" height="45.69" fill="#63828e"/><polygon points="639.63,411.19 685.3199999999999,456.88 639.63,456.88" fill="#808a99"/><rect x="685.31" y="411.19" width="45.69" height="45.69" fill="#5e9d9c"/><polygon points="731,411.19 731,456.88 685.31,456.88" fill="#e2dcd3"/><rect x="731" y="365.5" width="91.375" height="91.375" fill="#ffffff"/><rect x="731" y="365.5" width="45.69" height="45.69" fill="#edeae4"/><polygon points="731,365.5 776.69,365.5 731,411.19" fill="#718e98"/><rect x="776.69" y="365.5" width="45.69" height="45.69" fill="#c0c4cc"/><polygon points="776.69,365.5 822.3800000000001,365.5 822.3800000000001,411.19" fill="#fcfdfd"/><rect x="731" y="411.19" width="45.69" height="45.69" fill="#4a908f"/><polygon points="731,411.19 776.69,456.88 731,456.88" fill="#a8cac9"/><rect x="776.69" y="411.19" width="45.69" height="45.69" fill="#f5f3ef"/><polygon points="822.3800000000001,411.19 822.3800000000001,456.88 776.69,456.88" fill="#eeeae4"/><rect x="822.375" y="365.5" width="91.375" height="91.375" fill="#ffffff"/><rect x="822.38" y="365.5" width="45.69" height="45.69" fill="#c6ac79"/><path d="M 822.38 365.5 A 45.69 45.69 0 0 0 868.0699999999999 411.19 L 868.0699999999999 365.5" fill="#34445c"/><rect x="868.06" y="365.5" width="45.69" height="45.69" fill="#efe8d9"/><path d="M 868.06 411.19 A 45.69 45.69 0 0 0 913.75 365.5 L 868.06 365.5" fill="#5e7f8b"/><rect x="822.38" y="411.19" width="45.69" height="45.69" fill="#77acab"/><path d="M 822.38 456.88 A 45.69 45.69 0 0 1  868.0699999999999 411.19 L 868.0699999999999 456.88" fill="#e5dfd7"/><rect x="868.06" y="411.19" width="45.69" height="45.69" fill="#2f5969"/><path d="M 868.06 411.19 A 45.69 45.69 0 0 1 913.75 456.88 L 868.06 456.88" fill="#88b6b6"/><rect x="913.75" y="365.5" width="91.375" height="91.375" fill="#ffffff"/><rect x="913.75" y="365.5" width="45.69" height="45.69" fill="#e4ded5"/><path d="M 913.75 411.19 A 45.69 45.69 0 0 1 959.44 365.5 L 959.44 376.9225 A 34.2675 34.2675 0 0 0 925.1725 411.19" fill="#c0a36a"/><rect x="959.44" y="365.5" width="45.69" height="45.69" fill="#f9f8f6"/><path d="M 959.44 365.5 A 45.69 45.69 0 0 1 1005.1300000000001 411.19 L 993.7075000000001 411.19 A 34.2675 34.2675 0 0 0 959.44 376.9225" fill="#eeeae5"/><rect x="913.75" y="411.19" width="45.69" height="45.69" fill="#476c7a"/><path d="M 913.75 411.19 A 45.69 45.69 0 0 0 959.44 456.88 L 959.44 445.4575 A 34.2675 34.2675 0 0 1 925.1725 411.19" fill="#efe7d8"/><rect x="959.44" y="411.19" width="45.69" height="45.69" fill="#1b7373"/><path d="M 959.44 456.88 A 45.69 45.69 0 0 0 1005.1300000000001 411.19 L 993.7075000000001 411.19 A 34.2675 34.2675 0 0 1 959.44 445.4575" fill="#faf9f7"/><rect x="1005.13" y="365.5" width="91.38" height="91.38" fill="#2e3e57"/><path d="M 1005.13 365.5 A 91.38 91.38 0 0 1  1096.51 456.88 L 1005.13 365.5 A 91.38 91.38 0 0 0 1096.51 456.88" fill="#f8f7f5"/><rect x="1096.5" y="365.5" width="91.38" height="91.38" fill="#77acab"/><path d="M 1096.5 365.5 A 91.38 91.38 0 0 0 1187.88 456.88 L 1187.88 365.5" fill="#ffffff"/><rect x="1187.875" y="365.5" width="91.375" height="91.375" fill="#ffffff"/><rect x="1187.88" y="365.5" width="45.69" height="45.69" fill="#335c6c"/><polygon points="1187.88,365.5 1233.5700000000002,365.5 1187.88,411.19" fill="#eae5de"/><rect x="1233.56" y="365.5" width="45.69" height="45.69" fill="#b7bcc5"/><polygon points="1279.25,365.5 1279.25,411.19 1233.56,411.19" fill="#88919f"/><rect x="1187.88" y="411.19" width="45.69" height="45.69" fill="#5f808c"/><polygon points="1187.88,411.19 1233.5700000000002,411.19 1233.5700000000002,456.88" fill="#0a6968"/><rect x="1233.56" y="411.19" width="45.69" height="45.69" fill="#cadfdf"/><polygon points="1233.56,411.19 1279.25,456.88 1233.56,456.88" fill="#569797"/><rect x="0" y="456.875" width="91.375" height="91.375" fill="#ffffff"/><rect x="0" y="456.88" width="45.69" height="45.69" fill="#747f8f"/><path d="M 0 502.57 A 45.69 45.69 0 0 1 45.69 456.88 L 45.69 468.3025 A 34.2675 34.2675 0 0 0 11.4225 502.57" fill="#eff0f2"/><rect x="45.69" y="456.88" width="45.69" height="45.69" fill="#b79757"/><path d="M 45.69 456.88 A 45.69 45.69 0 0 1 91.38 502.57 L 79.9575 502.57 A 34.2675 34.2675 0 0 0 45.69 468.3025" fill="#cfb98e"/><rect x="0" y="502.56" width="45.69" height="45.69" fill="#ece3d2"/><path d="M 0 502.56 A 45.69 45.69 0 0 0 45.69 548.25 L 45.69 536.8275 A 34.2675 34.2675 0 0 1 11.4225 502.56" fill="#869fa8"/><rect x="45.69" y="502.56" width="45.69" height="45.69" fill="#deebeb"/><path d="M 45.69 548.25 A 45.69 45.69 0 0 0 91.38 502.56 L 79.9575 502.56 A 34.2675 34.2675 0 0 1 45.69 536.8275" fill="#747e8f"/><rect x="91.375" y="456.875" width="91.375" height="91.375" fill="#ffffff"/><rect x="91.38" y="456.88" width="45.69" height="45.69" fill="#e5d9c1"/><path d="M 91.38 502.57 A 45.69 45.69 0 0 1 137.07 456.88 L 137.07 468.3025 A 34.2675 34.2675 0 0 0 102.8025 502.57" fill="#89b7b6"/><rect x="137.06" y="456.88" width="45.69" height="45.69" fill="#94bebd"/><path d="M 137.06 456.88 A 45.69 45.69 0 0 1 182.75 502.57 L 171.3275 502.57 A 34.2675 34.2675 0 0 0 137.06 468.3025" fill="#6da6a5"/><rect x="91.38" y="502.56" width="45.69" height="45.69" fill="#ece8e2"/><path d="M 91.38 502.56 A 45.69 45.69 0 0 0 137.07 548.25 L 137.07 536.8275 A 34.2675 34.2675 0 0 1 102.8025 502.56" fill="#b59451"/><rect x="137.06" y="502.56" width="45.69" height="45.69" fill="#dcccad"/><path d="M 137.06 548.25 A 45.69 45.69 0 0 0 182.75 502.56 L 171.3275 502.56 A 34.2675 34.2675 0 0 1 137.06 536.8275" fill="#e9f2f1"/><rect x="182.75" y="456.875" width="91.375" height="91.375" fill="#ffffff"/><rect x="182.75" y="456.88" width="45.69" height="45.69" fill="#192b46"/><path d="M 182.75 502.57 A 45.69 45.69 0 0 0 228.44 456.88 L 182.75 456.88" fill="#e8ddc8"/><rect x="228.44" y="456.88" width="45.69" height="45.69" fill="#f3f0ec"/><path d="M 228.44 456.88 A 45.69 45.69 0 0 0 274.13 502.57 L 274.13 456.88" fill="#358483"/><rect x="182.75" y="502.56" width="45.69" height="45.69" fill="#b0cfce"/><path d="M 182.75 502.56 A 45.69 45.69 0 0 1 228.44 548.25 L 182.75 548.25" fill="#e2ddd3"/><rect x="228.44" y="502.56" width="45.69" height="45.69" fill="#cfba8f"/><path d="M 228.44 548.25 A 45.69 45.69 0 0 1  274.13 502.56 L 274.13 548.25" fill="#6f8d97"/><rect x="274.125" y="456.875" width="91.375" height="91.375" fill="#ffffff"/><rect x="274.13" y="456.88" width="45.69" height="45.69" fill="#ccb587"/><path d="M 274.13 502.57 A 45.69 45.69 0 0 1 319.82 456.88 L 319.82 468.3025 A 34.2675 34.2675 0 0 0 285.5525 502.57" fill="#eee6d7"/><rect x="319.81" y="456.88" width="45.69" height="45.69" fill="#688792"/><path d="M 319.81 456.88 A 45.69 45.69 0 0 1 365.5 502.57 L 354.0775 502.57 A 34.2675 34.2675 0 0 0 319.81 468.3025" fill="#265262"/><rect x="274.13" y="502.56" width="45.69" height="45.69" fill="#dcdfe3"/><path d="M 274.13 502.56 A 45.69 45.69 0 0 0 319.82 548.25 L 319.82 536.8275 A 34.2675 34.2675 0 0 1 285.5525 502.56" fill="#b4d1d1"/><rect x="319.81" y="502.56" width="45.69" height="45.69" fill="#64a0a0"/><path d="M 319.81 548.25 A 45.69 45.69 0 0 0 365.5 502.56 L 354.0775 502.56 A 34.2675 34.2675 0 0 1 319.81 536.8275" fill="#efece7"/><rect x="365.5" y="456.88" width="91.38" height="91.38" fill="#cfba8f"/><path d="M 365.5 548.26 A 91.38 91.38 0 0 1  456.88 456.88 L 365.5 548.26 A 91.38 91.38 0 0 0 456.88 456.88" fill="#cbb485"/><rect x="456.875" y="456.875" width="91.375" height="91.375" fill="#ffffff"/><rect x="456.88" y="456.88" width="45.69" height="45.69" fill="#bc9d61"/><path d="M 456.88 456.88 A 45.69 45.69 0 0 0 502.57 502.57 L 502.57 456.88" fill="#c1a56e"/><rect x="502.56" y="456.88" width="45.69" height="45.69" fill="#b6c5ca"/><path d="M 502.56 502.57 A 45.69 45.69 0 0 0 548.25 456.88 L 502.56 456.88" fill="#f7f3ec"/><rect x="456.88" y="502.56" width="45.69" height="45.69" fill="#eff5f5"/><path d="M 456.88 548.25 A 45.69 45.69 0 0 1  502.57 502.56 L 502.57 548.25" fill="#faf8f3"/><rect x="502.56" y="502.56" width="45.69" height="45.69" fill="#b1c0c6"/><path d="M 502.56 502.56 A 45.69 45.69 0 0 1 548.25 548.25 L 502.56 548.25" fill="#9199a6"/><rect x="548.25" y="456.88" width="91.38" height="91.38" fill="#303f58"/><rect x="548.25" y="456.88" width="91.38" height="91.38" fill="#6d8b96"/><rect x="639.625" y="456.875" width="91.375" height="91.375" fill="#ffffff"/><rect x="639.63" y="456.88" width="45.69" height="45.69" fill="#e7ddc7"/><path d="M 639.63 456.88 A 45.69 45.69 0 0 0 685.3199999999999 502.57 L 685.3199999999999 456.88" fill="#174657"/><rect x="685.31" y="456.88" width="45.69" height="45.69" fill="#0b1e3b"/><path d="M 685.31 502.57 A 45.69 45.69 0 0 0 731 456.88 L 685.31 456.88" fill="#2a3a54"/><rect x="639.63" y="502.56" width="45.69" height="45.69" fill="#f4efe6"/><path d="M 639.63 548.25 A 45.69 45.69 0 0 1  685.3199999999999 502.56 L 685.3199999999999 548.25" fill="#3f4e64"/><rect x="685.31" y="502.56" width="45.69" height="45.69" fill="#718e98"/><path d="M 685.31 502.56 A 45.69 45.69 0 0 1 731 548.25 L 685.31 548.25" fill="#c7dddd"/><rect x="731" y="456.875" width="91.375" height="91.375" fill="#ffffff"/><rect x="731" y="456.88" width="45.69" height="45.69" fill="#bdcacf"/><path d="M 731 502.57 A 45.69 45.69 0 0 1 776.69 456.88 L 776.69 468.3025 A 34.2675 34.2675 0 0 0 742.4225 502.57" fill="#e7e2da"/><rect x="776.69" y="456.88" width="45.69" height="45.69" fill="#277b7a"/><path d="M 776.69 456.88 A 45.69 45.69 0 0 1 822.3800000000001 502.57 L 810.9575000000001 502.57 A 34.2675 34.2675 0 0 0 776.69 468.3025" fill="#ceb78b"/><rect x="731" y="502.56" width="45.69" height="45.69" fill="#fffefe"/><path d="M 731 502.56 A 45.69 45.69 0 0 0 776.69 548.25 L 776.69 536.8275 A 34.2675 34.2675 0 0 1 742.4225 502.56" fill="#dfe5e8"/><rect x="776.69" y="502.56" width="45.69" height="45.69" fill="#fdfcfb"/><path d="M 776.69 548.25 A 45.69 45.69 0 0 0 822.3800000000001 502.56 L 810.9575000000001 502.56 A 34.2675 34.2675 0 0 1 776.69 536.8275" fill="#476c7a"/><rect x="822.38" y="456.88" width="91.38" height="91.38" fill="#2b5666"/><rect x="822.38" y="456.88" width="91.38" height="91.38" fill="#f3f6f7"/><rect x="913.75" y="456.875" width="91.375" height="91.375" fill="#ffffff"/><rect x="913.75" y="456.88" width="45.69" height="45.69" fill="#e2e4e8"/><path d="M 913.75 456.88 A 45.69 45.69 0 0 0 959.44 502.57 L 959.44 456.88" fill="#dadce1"/><rect x="959.44" y="456.88" width="45.69" height="45.69" fill="#e9ebed"/><path d="M 959.44 502.57 A 45.69 45.69 0 0 0 1005.1300000000001 456.88 L 959.44 456.88" fill="#83b3b3"/><rect x="913.75" y="502.56" width="45.69" height="45.69" fill="#ebf3f3"/><path d="M 913.75 548.25 A 45.69 45.69 0 0 1  959.44 502.56 L 959.44 548.25" fill="#197372"/><rect x="959.44" y="502.56" width="45.69" height="45.69" fill="#619e9e"/><path d="M 959.44 502.56 A 45.69 45.69 0 0 1 1005.1300000000001 548.25 L 959.44 548.25" fill="#425167"/><rect x="1005.13" y="456.88" width="91.38" height="91.38" fill="#fdfcfc"/><polygon points="1005.13,456.88 1096.51,456.88 1005.13,548.26" fill="#e7dbc6"/><rect x="1096.5" y="456.875" width="91.375" height="91.375" fill="#ffffff"/><rect x="1096.5" y="456.88" width="45.69" height="45.69" fill="#f4f0e6"/><polygon points="1096.5,456.88 1142.19,456.88 1096.5,502.57" fill="#f8f7f5"/><rect x="1142.19" y="456.88" width="45.69" height="45.69" fill="#2c3c55"/><polygon points="1142.19,456.88 1187.88,456.88 1187.88,502.57" fill="#929aa7"/><rect x="1096.5" y="502.56" width="45.69" height="45.69" fill="#657083"/><polygon points="1142.19,502.56 1142.19,548.25 1096.5,548.25" fill="#f3f7f7"/><rect x="1142.19" y="502.56" width="45.69" height="45.69" fill="#c9cdd4"/><polygon points="1142.19,502.56 1187.88,548.25 1142.19,548.25" fill="#5b7c88"/><rect x="1187.875" y="456.875" width="91.375" height="91.375" fill="#ffffff"/><rect x="1187.88" y="456.88" width="45.69" height="45.69" fill="#c6dcdc"/><polygon points="1187.88,456.88 1233.5700000000002,456.88 1187.88,502.57" fill="#2f807f"/><rect x="1233.56" y="456.88" width="45.69" height="45.69" fill="#e6e1d9"/><polygon points="1233.56,456.88 1279.25,456.88 1279.25,502.57" fill="#e5eaec"/><rect x="1187.88" y="502.56" width="45.69" height="45.69" fill="#9eb2b9"/><polygon points="1233.5700000000002,502.56 1233.5700000000002,548.25 1187.88,548.25" fill="#7eb0af"/><rect x="1233.56" y="502.56" width="45.69" height="45.69" fill="#c6ad7a"/><polygon points="1233.56,502.56 1279.25,548.25 1233.56,548.25" fill="#faf9f7"/><rect x="0" y="548.25" width="91.375" height="91.375" fill="#ffffff"/><rect x="0" y="548.25" width="45.69" height="45.69" fill="#f6f2ea"/><circle cx="22.845" cy="571.095" r="22.845" fill="#a8b9c0"/><rect x="45.69" y="548.25" width="45.69" height="45.69" fill="#e9f1f1"/><rect x="45.69" y="548.25" width="45.69" height="45.69" fill="#f7f9f9"/><rect x="0" y="593.94" width="45.69" height="45.69" fill="#cde0e0"/><circle cx="22.845" cy="616.7850000000001" r="22.845" fill="#5a667a"/><rect x="45.69" y="593.94" width="45.69" height="45.69" fill="#e8edee"/><rect x="45.69" y="593.94" width="45.69" height="45.69" fill="#0e203d"/><rect x="91.375" y="548.25" width="91.375" height="91.375" fill="#ffffff"/><rect x="91.38" y="548.25" width="45.69" height="45.69" fill="#bdcacf"/><polygon points="91.38,548.25 137.07,548.25 91.38,593.94" fill="#78adac"/><rect x="137.06" y="548.25" width="45.69" height="45.69" fill="#e6e2d9"/><polygon points="137.06,548.25 182.75,548.25 182.75,593.94" fill="#f5f0e7"/><rect x="91.38" y="593.94" width="45.69" height="45.69" fill="#3c6372"/><polygon points="91.38,593.94 137.07,639.6300000000001 91.38,639.6300000000001" fill="#d0ba8f"/><rect x="137.06" y="593.94" width="45.69" height="45.69" fill="#4d5b70"/><polygon points="182.75,593.94 182.75,639.6300000000001 137.06,639.6300000000001" fill="#4c5a6f"/><rect x="182.75" y="548.25" width="91.375" height="91.375" fill="#ffffff"/><rect x="182.75" y="548.25" width="45.69" height="45.69" fill="#d0dadd"/><polygon points="182.75,548.25 228.44,548.25 182.75,593.94" fill="#9db1b8"/><rect x="228.44" y="548.25" width="45.69" height="45.69" fill="#438c8c"/><polygon points="228.44,548.25 274.13,548.25 274.13,593.94" fill="#fcfaf7"/><rect x="182.75" y="593.94" width="45.69" height="45.69" fill="#f7f5f2"/><polygon points="182.75,593.94 228.44,639.6300000000001 182.75,639.6300000000001" fill="#9fc4c4"/><rect x="228.44" y="593.94" width="45.69" height="45.69" fill="#9db1b8"/><polygon points="274.13,593.94 274.13,639.6300000000001 228.44,639.6300000000001" fill="#bb9c5f"/><rect x="274.13" y="548.25" width="91.38" height="91.38" fill="#d4c099"/><rect x="274.13" y="548.25" width="91.38" height="91.38" fill="#dfe6e8"/><rect x="365.5" y="548.25" width="91.38" height="91.38" fill="#98a0ac"/><path d="M 365.5 548.25 A 91.38 91.38 0 0 0 456.88 639.63 L 456.88 548.25" fill="#ccd6da"/><rect x="456.875" y="548.25" width="91.375" height="91.375" fill="#ffffff"/><rect x="456.88" y="548.25" width="45.69" height="45.69" fill="#6d8a95"/><path d="M 456.88 593.94 A 45.69 45.69 0 0 1  502.57 548.25 L 502.57 593.94" fill="#f9f8f6"/><rect x="502.56" y="548.25" width="45.69" height="45.69" fill="#f3f6f6"/><path d="M 502.56 548.25 A 45.69 45.69 0 0 1 548.25 593.94 L 502.56 593.94" fill="#e3eeee"/><rect x="456.88" y="593.94" width="45.69" height="45.69" fill="#afb5bf"/><path d="M 456.88 593.94 A 45.69 45.69 0 0 0 502.57 639.6300000000001 L 502.57 593.94" fill="#e7e2da"/><rect x="502.56" y="593.94" width="45.69" height="45.69" fill="#b5d2d2"/><path d="M 502.56 639.6300000000001 A 45.69 45.69 0 0 0 548.25 593.94 L 502.56 593.94" fill="#eae6df"/><rect x="548.25" y="548.25" width="91.375" height="91.375" fill="#ffffff"/><rect x="548.25" y="548.25" width="45.69" height="45.69" fill="#dcccad"/><path d="M 548.25 593.94 A 45.69 45.69 0 0 1 593.94 548.25 L 593.94 559.6725 A 34.2675 34.2675 0 0 0 559.6725 593.94" fill="#cdd0d6"/><rect x="593.94" y="548.25" width="45.69" height="45.69" fill="#fbfaf9"/><path d="M 593.94 548.25 A 45.69 45.69 0 0 1 639.6300000000001 593.94 L 628.2075000000001 593.94 A 34.2675 34.2675 0 0 0 593.94 559.6725" fill="#e9f1f1"/><rect x="548.25" y="593.94" width="45.69" height="45.69" fill="#d8c7a4"/><path d="M 548.25 593.94 A 45.69 45.69 0 0 0 593.94 639.6300000000001 L 593.94 628.2075000000001 A 34.2675 34.2675 0 0 1 559.6725 593.94" fill="#b9d4d4"/><rect x="593.94" y="593.94" width="45.69" height="45.69" fill="#e1eded"/><path d="M 593.94 639.6300000000001 A 45.69 45.69 0 0 0 639.6300000000001 593.94 L 628.2075000000001 593.94 A 34.2675 34.2675 0 0 1 593.94 628.2075000000001" fill="#368484"/><rect x="639.63" y="548.25" width="91.38" height="91.38" fill="#a4b7be"/><path d="M 639.63 639.63 A 91.38 91.38 0 0 1  731.01 548.25 L 639.63 639.63 A 91.38 91.38 0 0 0 731.01 548.25" fill="#b3d1d1"/><rect x="731" y="548.25" width="91.375" height="91.375" fill="#ffffff"/><rect x="731" y="548.25" width="45.69" height="45.69" fill="#dae2e5"/><path d="M 731 593.94 A 45.69 45.69 0 0 1 776.69 548.25 L 776.69 559.6725 A 34.2675 34.2675 0 0 0 742.4225 593.94" fill="#eae1ce"/><rect x="776.69" y="548.25" width="45.69" height="45.69" fill="#e7e2da"/><path d="M 776.69 548.25 A 45.69 45.69 0 0 1 822.3800000000001 593.94 L 810.9575000000001 593.94 A 34.2675 34.2675 0 0 0 776.69 559.6725" fill="#fbfaf8"/><rect x="731" y="593.94" width="45.69" height="45.69" fill="#597a87"/><path d="M 731 593.94 A 45.69 45.69 0 0 0 776.69 639.6300000000001 L 776.69 628.2075000000001 A 34.2675 34.2675 0 0 1 742.4225 593.94" fill="#0a3b4e"/><rect x="776.69" y="593.94" width="45.69" height="45.69" fill="#519594"/><path d="M 776.69 639.6300000000001 A 45.69 45.69 0 0 0 822.3800000000001 593.94 L 810.9575000000001 593.94 A 34.2675 34.2675 0 0 1 776.69 628.2075000000001" fill="#97bfbf"/><rect x="822.38" y="548.25" width="91.38" height="91.38" fill="#f6f7f8"/><rect x="822.38" y="548.25" width="91.38" height="91.38" fill="#cce0e0"/><rect x="913.75" y="548.25" width="91.38" height="91.38" fill="#8da4ad"/><path d="M 913.75 548.25 A 91.38 91.38 0 0 1  1005.13 639.63 L 913.75 548.25 A 91.38 91.38 0 0 0 1005.13 639.63" fill="#fbfbf9"/><rect x="1005.13" y="548.25" width="91.38" height="91.38" fill="#c2c7ce"/><rect x="1005.13" y="548.25" width="91.38" height="91.38" fill="#445269"/><rect x="1096.5" y="548.25" width="91.38" height="91.38" fill="#ceb78b"/><path d="M 1096.5 639.63 A 91.38 91.38 0 0 0 1187.88 548.25 L 1096.5 548.25" fill="#eae6df"/><rect x="1187.88" y="548.25" width="91.38" height="91.38" fill="#ccd6da"/><polygon points="1279.2600000000002,548.25 1279.2600000000002,639.63 1187.88,639.63" fill="#bbc9ce"/><rect x="0" y="639.63" width="91.38" height="91.38" fill="#4a586e"/><rect x="0" y="639.63" width="91.38" height="91.38" fill="#688792"/><rect x="91.375" y="639.625" width="91.375" height="91.375" fill="#ffffff"/><rect x="91.38" y="639.63" width="45.69" height="45.69" fill="#031634"/><circle cx="114.225" cy="662.475" r="22.845" fill="#a3aab5"/><rect x="137.06" y="639.63" width="45.69" height="45.69" fill="#d7c5a1"/><rect x="137.06" y="639.63" width="45.69" height="45.69" fill="#fdfbf9"/><rect x="91.38" y="685.31" width="45.69" height="45.69" fill="#1c7473"/><circle cx="114.225" cy="708.155" r="22.845" fill="#668590"/><rect x="137.06" y="685.31" width="45.69" height="45.69" fill="#2c7e7d"/><rect x="137.06" y="685.31" width="45.69" height="45.69" fill="#e3ded4"/><rect x="182.75" y="639.625" width="91.375" height="91.375" fill="#ffffff"/><rect x="182.75" y="639.63" width="45.69" height="45.69" fill="#d2e4e3"/><path d="M 182.75 685.3199999999999 A 45.69 45.69 0 0 0 228.44 639.63 L 182.75 639.63" fill="#d5dee1"/><rect x="228.44" y="639.63" width="45.69" height="45.69" fill="#e6f0ef"/><path d="M 228.44 639.63 A 45.69 45.69 0 0 0 274.13 685.3199999999999 L 274.13 639.63" fill="#e5e7ea"/><rect x="182.75" y="685.31" width="45.69" height="45.69" fill="#f8f6f4"/><path d="M 182.75 685.31 A 45.69 45.69 0 0 1 228.44 731 L 182.75 731" fill="#f0f1f3"/><rect x="228.44" y="685.31" width="45.69" height="45.69" fill="#2b3b54"/><path d="M 228.44 731 A 45.69 45.69 0 0 1  274.13 685.31 L 274.13 731" fill="#f0ece7"/><rect x="274.13" y="639.63" width="91.38" height="91.38" fill="#f1ebdf"/><rect x="274.13" y="639.63" width="91.38" height="91.38" fill="#e6e8eb"/><rect x="365.5" y="639.625" width="91.375" height="91.375" fill="#ffffff"/><rect x="365.5" y="639.63" width="45.69" height="45.69" fill="#f4f2ee"/><polygon points="365.5,639.63 411.19,639.63 365.5,685.3199999999999" fill="#8992a0"/><rect x="411.19" y="639.63" width="45.69" height="45.69" fill="#116d6c"/><polygon points="411.19,639.63 456.88,639.63 456.88,685.3199999999999" fill="#b4924e"/><rect x="365.5" y="685.31" width="45.69" height="45.69" fill="#dbcbab"/><polygon points="365.5,685.31 411.19,731 365.5,731" fill="#efe7d9"/><rect x="411.19" y="685.31" width="45.69" height="45.69" fill="#b9d5d4"/><polygon points="456.88,685.31 456.88,731 411.19,731" fill="#acbdc3"/><rect x="456.88" y="639.63" width="91.38" height="91.38" fill="#0d3e50"/><path d="M 456.88 639.63 A 91.38 91.38 0 0 0 548.26 731.01 L 548.26 639.63" fill="#5c697c"/><rect x="548.25" y="639.625" width="91.375" height="91.375" fill="#ffffff"/><rect x="548.25" y="639.63" width="45.69" height="45.69" fill="#d8c7a4"/><path d="M 548.25 685.3199999999999 A 45.69 45.69 0 0 0 593.94 639.63 L 548.25 639.63" fill="#a3aab5"/><rect x="593.94" y="639.63" width="45.69" height="45.69" fill="#1c2d48"/><path d="M 593.94 639.63 A 45.69 45.69 0 0 0 639.6300000000001 685.3199999999999 L 639.6300000000001 639.63" fill="#d4e5e4"/><rect x="548.25" y="685.31" width="45.69" height="45.69" fill="#e5e7ea"/><path d="M 548.25 685.31 A 45.69 45.69 0 0 1 593.94 731 L 548.25 731" fill="#0a6968"/><rect x="593.94" y="685.31" width="45.69" height="45.69" fill="#e8f1f1"/><path d="M 593.94 731 A 45.69 45.69 0 0 1  639.6300000000001 685.31 L 639.6300000000001 731" fill="#dacaa9"/><rect x="639.63" y="639.63" width="91.38" height="91.38" fill="#293952"/><rect x="639.63" y="639.63" width="91.38" height="91.38" fill="#f2ede1"/><rect x="731" y="639.625" width="91.375" height="91.375" fill="#ffffff"/><rect x="731" y="639.63" width="45.69" height="45.69" fill="#496e7b"/><circle cx="753.845" cy="662.475" r="22.845" fill="#2a3a53"/><rect x="776.69" y="639.63" width="45.69" height="45.69" fill="#6b8994"/><rect x="776.69" y="639.63" width="45.69" height="45.69" fill="#f5f3ef"/><rect x="731" y="685.31" width="45.69" height="45.69" fill="#9199a6"/><circle cx="753.845" cy="708.155" r="22.845" fill="#bfc4cc"/><rect x="776.69" y="685.31" width="45.69" height="45.69" fill="#ece4d3"/><rect x="776.69" y="685.31" width="45.69" height="45.69" fill="#f3f0ec"/><rect x="822.38" y="639.63" width="91.38" height="91.38" fill="#ebe7e0"/><path d="M 822.38 731.01 A 91.38 91.38 0 0 1  913.76 639.63 L 913.76 731.01" fill="#152642"/><rect x="913.75" y="639.63" width="91.38" height="91.38" fill="#8cb9b8"/><path d="M 913.75 639.63 A 91.38 91.38 0 0 1  1005.13 731.01 L 913.75 639.63 A 91.38 91.38 0 0 0 1005.13 731.01" fill="#3f4d64"/><rect x="1005.125" y="639.625" width="91.375" height="91.375" fill="#ffffff"/><rect x="1005.13" y="639.63" width="45.69" height="45.69" fill="#1c4a5b"/><polygon points="1005.13,639.63 1050.82,639.63 1005.13,685.3199999999999" fill="#6a7587"/><rect x="1050.81" y="639.63" width="45.69" height="45.69" fill="#f8f8f9"/><polygon points="1050.81,639.63 1096.5,639.63 1096.5,685.3199999999999" fill="#a2c6c6"/><rect x="1005.13" y="685.31" width="45.69" height="45.69" fill="#e9e5dd"/><polygon points="1005.13,685.31 1050.82,731 1005.13,731" fill="#547784"/><rect x="1050.81" y="685.31" width="45.69" height="45.69" fill="#e5e0d7"/><polygon points="1096.5,685.31 1096.5,731 1050.81,731" fill="#f1efea"/><rect x="1096.5" y="639.63" width="91.38" height="91.38" fill="#9ec4c3"/><path d="M 1096.5 731.01 A 91.38 91.38 0 0 0 1187.88 639.63 L 1096.5 639.63" fill="#d1dade"/><rect x="1187.88" y="639.63" width="91.38" height="91.38" fill="#fdfdfb"/><rect x="1187.88" y="639.63" width="91.38" height="91.38" fill="#f6f4f1"/></g></svg>