<?xml version="1.0" standalone="no"?><svg xmlns:xlink="http://www.w3.org/1999/xlink" xmlns="http://www.w3.org/2000/svg" viewBox="0 0 500 285.7142857142857" preserveAspectRatio="xMaxYMax slice"><g transform="scale(0.3908540160250147)"><rect x="0" y="0" width="1279.25" height="731" fill="#ffffff"/><rect x="0" y="0" width="91.375" height="91.375" fill="#ffffff"/><rect x="0" y="0" width="45.69" height="45.69" fill="#f7f8f9"/><path d="M 0 0 A 45.69 45.69 0 0 0 45.69 45.69 L 45.69 0" fill="#c5dcdc"/><rect x="45.69" y="0" width="45.69" height="45.69" fill="#d7c39a"/><path d="M 45.69 0 A 45.69 45.69 0 0 1  91.38 45.69 L 45.69 0 A 45.69 45.69 0 0 0 91.38 45.69" fill="#cfb786"/><rect x="0" y="45.69" width="45.69" height="45.69" fill="#7b8595"/><path d="M 0 91.38 A 45.69 45.69 0 0 0 45.69 45.69 L 0 45.69" fill="#819aa4"/><rect x="45.69" y="45.69" width="45.69" height="45.69" fill="#e8ddcb"/><path d="M 45.69 45.69 A 45.69 45.69 0 0 1  91.38 91.38 L 45.69 45.69 A 45.69 45.69 0 0 0 91.38 91.38" fill="#738f9a"/><rect x="91.375" y="0" width="91.375" height="91.375" fill="#ffffff"/><rect x="91.38" y="0" width="45.69" height="45.69" fill="#fdfefe"/><path d="M 91.38 45.69 A 45.69 45.69 0 0 1  137.07 0 L 91.38 45.69 A 45.69 45.69 0 0 0 137.07 0" fill="#ceb482"/><rect x="137.06" y="0" width="45.69" height="45.69" fill="#7eb0b0"/><path d="M 137.06 45.69 A 45.69 45.69 0 0 0 182.75 0 L 137.06 0" fill="#e8dcc5"/><rect x="91.38" y="45.69" width="45.69" height="45.69" fill="#82b3b2"/><path d="M 91.38 45.69 A 45.69 45.69 0 0 1  137.07 91.38 L 91.38 45.69 A 45.69 45.69 0 0 0 137.07 91.38" fill="#8ea5ad"/><rect x="137.06" y="45.69" width="45.69" height="45.69" fill="#f1f4f5"/><path d="M 137.06 45.69 A 45.69 45.69 0 0 1  182.75 91.38 L 137.06 45.69 A 45.69 45.69 0 0 0 182.75 91.38" fill="#1f4c5d"/><rect x="182.75" y="0" width="91.38" height="91.38" fill="#d8e7e7"/><path d="M 182.75 0 A 91.38 91.38 0 0 1 274.13 91.38 L 182.75 91.38" fill="#8aa1aa"/><rect x="274.125" y="0" width="91.375" height="91.375" fill="#ffffff"/><rect x="274.13" y="0" width="45.69" height="45.69" fill="#809aa3"/><path d="M 274.13 45.69 A 45.69 45.69 0 0 1  319.82 0 L 319.82 45.69" fill="#f4efe6"/><rect x="319.81" y="0" width="45.69" height="45.69" fill="#b6d3d2"/><path d="M 319.81 0 A 45.69 45.69 0 0 1  365.5 45.69 L 319.81 0 A 45.69 45.69 0 0 0 365.5 45.69" fill="#f2ebe1"/><rect x="274.13" y="45.69" width="45.69" height="45.69" fill="#5b9b9a"/><path d="M 274.13 91.38 A 45.69 45.69 0 0 1  319.82 45.69 L 274.13 91.38 A 45.69 45.69 0 0 0 319.82 45.69" fill="#fefefd"/><rect x="319.81" y="45.69" width="45.69" height="45.69" fill="#f7f4ee"/><path d="M 319.81 45.69 A 45.69 45.69 0 0 0 365.5 91.38 L 365.5 45.69" fill="#293953"/><rect x="365.5" y="0" width="91.38" height="91.38" fill="#eae1d0"/><path d="M 365.5 91.38 A 91.38 91.38 0 0 0 456.88 0 L 365.5 0" fill="#177170"/><rect x="456.88" y="0" width="91.38" height="91.38" fill="#6b8994"/><path d="M 456.88 91.38 A 91.38 91.38 0 0 1  548.26 0 L 456.88 91.38 A 91.38 91.38 0 0 0 548.26 0" fill="#698793"/><rect x="548.25" y="0" width="91.38" height="91.38" fill="#f8f9fa"/><path d="M 548.25 91.38 A 91.38 91.38 0 0 1  639.63 0 L 548.25 91.38 A 91.38 91.38 0 0 0 639.63 0" fill="#b6d3d2"/><rect x="639.63" y="0" width="91.38" height="91.38" fill="#eadfca"/><path d="M 639.63 91.38 A 91.38 91.38 0 0 0 731.01 0 L 639.63 0" fill="#237978"/><rect x="731" y="0" width="91.38" height="91.38" fill="#d8c49d"/><path d="M 731 91.38 A 91.38 91.38 0 0 1  822.38 0 L 822.38 91.38" fill="#9199a6"/><rect x="822.38" y="0" width="91.38" height="91.38" fill="#577985"/><path d="M 822.38 91.38 A 91.38 91.38 0 0 1  913.76 0 L 822.38 91.38 A 91.38 91.38 0 0 0 913.76 0" fill="#77939d"/><rect x="913.75" y="0" width="91.38" height="91.38" fill="#ece3d4"/><path d="M 913.75 0 A 91.38 91.38 0 0 1  1005.13 91.38 L 913.75 0 A 91.38 91.38 0 0 0 1005.13 91.38" fill="#fefefe"/><rect x="1005.13" y="0" width="91.38" height="91.38" fill="#f8f5ef"/><path d="M 1005.13 0 A 91.38 91.38 0 0 1  1096.51 91.38 L 1005.13 0 A 91.38 91.38 0 0 0 1096.51 91.38" fill="#f8f5f0"/><rect x="1096.5" y="0" width="91.38" height="91.38" fill="#f1f6f6"/><path d="M 1096.5 91.38 A 91.38 91.38 0 0 1  1187.88 0 L 1187.88 91.38" fill="#f9f7f2"/><rect x="1187.88" y="0" width="91.38" height="91.38" fill="#f3ede3"/><path d="M 1187.88 91.38 A 91.38 91.38 0 0 1  1279.2600000000002 0 L 1187.88 91.38 A 91.38 91.38 0 0 0 1279.2600000000002 0" fill="#ece2d3"/><rect x="0" y="91.375" width="91.375" height="91.375" fill="#ffffff"/><rect x="0" y="91.38" width="45.69" height="45.69" fill="#152642"/><path d="M 0 91.38 A 45.69 45.69 0 0 0 45.69 137.07 L 45.69 91.38" fill="#529594"/><rect x="45.69" y="91.38" width="45.69" height="45.69" fill="#74909a"/><path d="M 45.69 91.38 A 45.69 45.69 0 0 1  91.38 137.07 L 45.69 91.38 A 45.69 45.69 0 0 0 91.38 137.07" fill="#eee5d4"/><rect x="0" y="137.06" width="45.69" height="45.69" fill="#b6bbc4"/><path d="M 0 182.75 A 45.69 45.69 0 0 1  45.69 137.06 L 45.69 182.75" fill="#b4c3c9"/><rect x="45.69" y="137.06" width="45.69" height="45.69" fill="#f3ede3"/><path d="M 45.69 137.06 A 45.69 45.69 0 0 0 91.38 182.75 L 91.38 137.06" fill="#f2f3f4"/><rect x="91.38" y="91.38" width="91.38" height="91.38" fill="#ece2d3"/><path d="M 91.38 182.76 A 91.38 91.38 0 0 0 182.76 91.38 L 91.38 91.38" fill="#35455d"/><rect x="182.75" y="91.375" width="91.375" height="91.375" fill="#ffffff"/><rect x="182.75" y="91.38" width="45.69" height="45.69" fill="#e9edef"/><path d="M 182.75 137.07 A 45.69 45.69 0 0 1  228.44 91.38 L 228.44 137.07" fill="#f2f4f5"/><rect x="228.44" y="91.38" width="45.69" height="45.69" fill="#f9f6f2"/><path d="M 228.44 91.38 A 45.69 45.69 0 0 1 274.13 137.07 L 228.44 137.07" fill="#e8eaec"/><rect x="182.75" y="137.06" width="45.69" height="45.69" fill="#fbfcfc"/><path d="M 182.75 137.06 A 45.69 45.69 0 0 1 228.44 182.75 L 182.75 182.75" fill="#82b2b2"/><rect x="228.44" y="137.06" width="45.69" height="45.69" fill="#dbe9e9"/><path d="M 228.44 182.75 A 45.69 45.69 0 0 1  274.13 137.06 L 274.13 182.75" fill="#839ca5"/><rect x="274.125" y="91.375" width="91.375" height="91.375" fill="#ffffff"/><rect x="274.13" y="91.38" width="45.69" height="45.69" fill="#106d6c"/><path d="M 274.13 91.38 A 45.69 45.69 0 0 1  319.82 137.07 L 274.13 91.38 A 45.69 45.69 0 0 0 319.82 137.07" fill="#fefefd"/><rect x="319.81" y="91.38" width="45.69" height="45.69" fill="#e9ddc7"/><path d="M 319.81 137.07 A 45.69 45.69 0 0 1  365.5 91.38 L 319.81 137.07 A 45.69 45.69 0 0 0 365.5 91.38" fill="#eadfca"/><rect x="274.13" y="137.06" width="45.69" height="45.69" fill="#f2ece2"/><path d="M 274.13 182.75 A 45.69 45.69 0 0 1  319.82 137.06 L 274.13 182.75 A 45.69 45.69 0 0 0 319.82 137.06" fill="#728e99"/><rect x="319.81" y="137.06" width="45.69" height="45.69" fill="#c3d0d4"/><path d="M 319.81 137.06 A 45.69 45.69 0 0 1  365.5 182.75 L 319.81 137.06 A 45.69 45.69 0 0 0 365.5 182.75" fill="#f8f4ef"/><rect x="365.5" y="91.38" width="91.38" height="91.38" fill="#36455d"/><path d="M 365.5 182.76 A 91.38 91.38 0 0 0 456.88 91.38 L 365.5 91.38" fill="#f2eadd"/><rect x="456.875" y="91.375" width="91.375" height="91.375" fill="#ffffff"/><rect x="456.88" y="91.38" width="45.69" height="45.69" fill="#b2b8c1"/><path d="M 456.88 91.38 A 45.69 45.69 0 0 0 502.57 137.07 L 502.57 91.38" fill="#deccaa"/><rect x="502.56" y="91.38" width="45.69" height="45.69" fill="#6b8994"/><path d="M 502.56 137.07 A 45.69 45.69 0 0 0 548.25 91.38 L 502.56 91.38" fill="#7cafaf"/><rect x="456.88" y="137.06" width="45.69" height="45.69" fill="#99adb5"/><path d="M 456.88 182.75 A 45.69 45.69 0 0 1  502.57 137.06 L 456.88 182.75 A 45.69 45.69 0 0 0 502.57 137.06" fill="#167170"/><rect x="502.56" y="137.06" width="45.69" height="45.69" fill="#efe8dc"/><path d="M 502.56 182.75 A 45.69 45.69 0 0 1  548.25 137.06 L 548.25 182.75" fill="#f6f1e8"/><rect x="548.25" y="91.38" width="91.38" height="91.38" fill="#273751"/><path d="M 548.25 91.38 A 91.38 91.38 0 0 1 639.63 182.76 L 548.25 182.76" fill="#d5bf95"/><rect x="639.63" y="91.38" width="91.38" height="91.38" fill="#e9decd"/><path d="M 639.63 91.38 A 91.38 91.38 0 0 1  731.01 182.76 L 639.63 91.38 A 91.38 91.38 0 0 0 731.01 182.76" fill="#d5dee1"/><rect x="731" y="91.38" width="91.38" height="91.38" fill="#deccaa"/><path d="M 731 91.38 A 91.38 91.38 0 0 1  822.38 182.76 L 731 91.38 A 91.38 91.38 0 0 0 822.38 182.76" fill="#858e9d"/><rect x="822.38" y="91.38" width="91.38" height="91.38" fill="#f1eadb"/><path d="M 822.38 91.38 A 91.38 91.38 0 0 1  913.76 182.76 L 822.38 91.38 A 91.38 91.38 0 0 0 913.76 182.76" fill="#3b6271"/><rect x="913.75" y="91.375" width="91.375" height="91.375" fill="#ffffff"/><rect x="913.75" y="91.38" width="45.69" height="45.69" fill="#d4be92"/><path d="M 913.75 137.07 A 45.69 45.69 0 0 0 959.44 91.38 L 913.75 91.38" fill="#67a2a1"/><rect x="959.44" y="91.38" width="45.69" height="45.69" fill="#ebe2d3"/><path d="M 959.44 137.07 A 45.69 45.69 0 0 1  1005.1300000000001 91.38 L 1005.1300000000001 137.07" fill="#faf8f4"/><rect x="913.75" y="137.06" width="45.69" height="45.69" fill="#88a0a9"/><path d="M 913.75 182.75 A 45.69 45.69 0 0 1  959.44 137.06 L 959.44 182.75" fill="#fdfdfc"/><rect x="959.44" y="137.06" width="45.69" height="45.69" fill="#90bbbb"/><path d="M 959.44 137.06 A 45.69 45.69 0 0 1  1005.1300000000001 182.75 L 959.44 137.06 A 45.69 45.69 0 0 0 1005.1300000000001 182.75" fill="#eff5f5"/><rect x="1005.13" y="91.38" width="91.38" height="91.38" fill="#fefdfc"/><path d="M 1005.13 91.38 A 91.38 91.38 0 0 0 1096.51 182.76 L 1096.51 91.38" fill="#f2ebe1"/><rect x="1096.5" y="91.38" width="91.38" height="91.38" fill="#0c6b6a"/><path d="M 1096.5 91.38 A 91.38 91.38 0 0 1 1187.88 182.76 L 1096.5 182.76" fill="#f8f5f0"/><rect x="1187.88" y="91.38" width="91.38" height="91.38" fill="#f4efe6"/><path d="M 1187.88 182.76 A 91.38 91.38 0 0 1  1279.2600000000002 91.38 L 1187.88 182.76 A 91.38 91.38 0 0 0 1279.2600000000002 91.38" fill="#0e203d"/><rect x="0" y="182.75" width="91.38" height="91.38" fill="#041735"/><path d="M 0 274.13 A 91.38 91.38 0 0 1  91.38 182.75 L 0 274.13 A 91.38 91.38 0 0 0 91.38 182.75" fill="#556276"/><rect x="91.375" y="182.75" width="91.375" height="91.375" fill="#ffffff"/><rect x="91.38" y="182.75" width="45.69" height="45.69" fill="#d5d8dd"/><path d="M 91.38 182.75 A 45.69 45.69 0 0 0 137.07 228.44 L 137.07 182.75" fill="#97bfbf"/><rect x="137.06" y="182.75" width="45.69" height="45.69" fill="#1c2d48"/><path d="M 137.06 182.75 A 45.69 45.69 0 0 1 182.75 228.44 L 137.06 228.44" fill="#6d8b96"/><rect x="91.38" y="228.44" width="45.69" height="45.69" fill="#f9f9fa"/><path d="M 91.38 228.44 A 45.69 45.69 0 0 1  137.07 274.13 L 91.38 228.44 A 45.69 45.69 0 0 0 137.07 274.13" fill="#e2d3b6"/><rect x="137.06" y="228.44" width="45.69" height="45.69" fill="#869fa8"/><path d="M 137.06 274.13 A 45.69 45.69 0 0 1  182.75 228.44 L 182.75 274.13" fill="#4a586d"/><rect x="182.75" y="182.75" width="91.38" height="91.38" fill="#6f8c97"/><path d="M 182.75 274.13 A 91.38 91.38 0 0 0 274.13 182.75 L 182.75 182.75" fill="#9ca3af"/><rect x="274.13" y="182.75" width="91.38" height="91.38" fill="#fbfcfc"/><path d="M 274.13 274.13 A 91.38 91.38 0 0 1  365.51 182.75 L 274.13 274.13 A 91.38 91.38 0 0 0 365.51 182.75" fill="#4f5c71"/><rect x="365.5" y="182.75" width="91.375" height="91.375" fill="#ffffff"/><rect x="365.5" y="182.75" width="45.69" height="45.69" fill="#808998"/><path d="M 365.5 182.75 A 45.69 45.69 0 0 1 411.19 228.44 L 365.5 228.44" fill="#7bafae"/><rect x="411.19" y="182.75" width="45.69" height="45.69" fill="#f2ecdf"/><path d="M 411.19 228.44 A 45.69 45.69 0 0 1  456.88 182.75 L 411.19 228.44 A 45.69 45.69 0 0 0 456.88 182.75" fill="#f4eee3"/><rect x="365.5" y="228.44" width="45.69" height="45.69" fill="#2b3b54"/><path d="M 365.5 228.44 A 45.69 45.69 0 0 1  411.19 274.13 L 365.5 228.44 A 45.69 45.69 0 0 0 411.19 274.13" fill="#71a8a8"/><rect x="411.19" y="228.44" width="45.69" height="45.69" fill="#527582"/><path d="M 411.19 228.44 A 45.69 45.69 0 0 0 456.88 274.13 L 456.88 228.44" fill="#f1ebe0"/><rect x="456.88" y="182.75" width="91.38" height="91.38" fill="#a0b4bb"/><path d="M 456.88 274.13 A 91.38 91.38 0 0 1  548.26 182.75 L 548.26 274.13" fill="#929aa7"/><rect x="548.25" y="182.75" width="91.38" height="91.38" fill="#197372"/><path d="M 548.25 274.13 A 91.38 91.38 0 0 1  639.63 182.75 L 548.25 274.13 A 91.38 91.38 0 0 0 639.63 182.75" fill="#f5efe5"/><rect x="639.63" y="182.75" width="91.38" height="91.38" fill="#efe6d6"/><path d="M 639.63 274.13 A 91.38 91.38 0 0 1  731.01 182.75 L 731.01 274.13" fill="#f9f5ef"/><rect x="731" y="182.75" width="91.38" height="91.38" fill="#1d7574"/><path d="M 731 182.75 A 91.38 91.38 0 0 1 822.38 274.13 L 731 274.13" fill="#d6e6e6"/><rect x="822.375" y="182.75" width="91.375" height="91.375" fill="#ffffff"/><rect x="822.38" y="182.75" width="45.69" height="45.69" fill="#e9dfce"/><path d="M 822.38 182.75 A 45.69 45.69 0 0 0 868.0699999999999 228.44 L 868.0699999999999 182.75" fill="#0a1d3a"/><rect x="868.06" y="182.75" width="45.69" height="45.69" fill="#ebe1d1"/><path d="M 868.06 228.44 A 45.69 45.69 0 0 1  913.75 182.75 L 913.75 228.44" fill="#d0e2e2"/><rect x="822.38" y="228.44" width="45.69" height="45.69" fill="#ddcba9"/><path d="M 822.38 228.44 A 45.69 45.69 0 0 1  868.0699999999999 274.13 L 822.38 228.44 A 45.69 45.69 0 0 0 868.0699999999999 274.13" fill="#0f213d"/><rect x="868.06" y="228.44" width="45.69" height="45.69" fill="#6c8a95"/><path d="M 868.06 228.44 A 45.69 45.69 0 0 0 913.75 274.13 L 913.75 228.44" fill="#dac7a2"/><rect x="913.75" y="182.75" width="91.38" height="91.38" fill="#626e81"/><path d="M 913.75 274.13 A 91.38 91.38 0 0 1  1005.13 182.75 L 913.75 274.13 A 91.38 91.38 0 0 0 1005.13 182.75" fill="#ede5d7"/><rect x="1005.13" y="182.75" width="91.38" height="91.38" fill="#cdb381"/><path d="M 1005.13 182.75 A 91.38 91.38 0 0 0 1096.51 274.13 L 1096.51 182.75" fill="#398685"/><rect x="1096.5" y="182.75" width="91.38" height="91.38" fill="#f4efe6"/><path d="M 1096.5 274.13 A 91.38 91.38 0 0 1  1187.88 182.75 L 1096.5 274.13 A 91.38 91.38 0 0 0 1187.88 182.75" fill="#e8dcc4"/><rect x="1187.875" y="182.75" width="91.375" height="91.375" fill="#ffffff"/><rect x="1187.88" y="182.75" width="45.69" height="45.69" fill="#efe7db"/><path d="M 1187.88 182.75 A 45.69 45.69 0 0 1  1233.5700000000002 228.44 L 1187.88 182.75 A 45.69 45.69 0 0 0 1233.5700000000002 228.44" fill="#f3ede3"/><rect x="1233.56" y="182.75" width="45.69" height="45.69" fill="#f4eee5"/><path d="M 1233.56 228.44 A 45.69 45.69 0 0 1  1279.25 182.75 L 1233.56 228.44 A 45.69 45.69 0 0 0 1279.25 182.75" fill="#fcfaf8"/><rect x="1187.88" y="228.44" width="45.69" height="45.69" fill="#85b5b4"/><path d="M 1187.88 228.44 A 45.69 45.69 0 0 1 1233.5700000000002 274.13 L 1187.88 274.13" fill="#2f807f"/><rect x="1233.56" y="228.44" width="45.69" height="45.69" fill="#f7f3ed"/><path d="M 1233.56 228.44 A 45.69 45.69 0 0 0 1279.25 274.13 L 1279.25 228.44" fill="#ece2ce"/><rect x="0" y="274.125" width="91.375" height="91.375" fill="#ffffff"/><rect x="0" y="274.13" width="45.69" height="45.69" fill="#f1eadf"/><path d="M 0 319.82 A 45.69 45.69 0 0 0 45.69 274.13 L 0 274.13" fill="#ebe1d1"/><rect x="45.69" y="274.13" width="45.69" height="45.69" fill="#8ea5ad"/><path d="M 45.69 319.82 A 45.69 45.69 0 0 1  91.38 274.13 L 91.38 319.82" fill="#f5f0e8"/><rect x="0" y="319.81" width="45.69" height="45.69" fill="#33425a"/><path d="M 0 365.5 A 45.69 45.69 0 0 0 45.69 319.81 L 0 319.81" fill="#bccacf"/><rect x="45.69" y="319.81" width="45.69" height="45.69" fill="#edf4f4"/><path d="M 45.69 365.5 A 45.69 45.69 0 0 1  91.38 319.81 L 45.69 365.5 A 45.69 45.69 0 0 0 91.38 319.81" fill="#65a1a0"/><rect x="91.38" y="274.13" width="91.38" height="91.38" fill="#e5d8be"/><path d="M 91.38 365.51 A 91.38 91.38 0 0 1  182.76 274.13 L 91.38 365.51 A 91.38 91.38 0 0 0 182.76 274.13" fill="#79949e"/><rect x="182.75" y="274.13" width="91.38" height="91.38" fill="#7c96a0"/><path d="M 182.75 365.51 A 91.38 91.38 0 0 1  274.13 274.13 L 274.13 365.51" fill="#89a1aa"/><rect x="274.13" y="274.13" width="91.38" height="91.38" fill="#3a8786"/><path d="M 274.13 274.13 A 91.38 91.38 0 0 0 365.51 365.51 L 365.51 274.13" fill="#839ca5"/><rect x="365.5" y="274.125" width="91.375" height="91.375" fill="#ffffff"/><rect x="365.5" y="274.13" width="45.69" height="45.69" fill="#91a7af"/><path d="M 365.5 319.82 A 45.69 45.69 0 0 1  411.19 274.13 L 365.5 319.82 A 45.69 45.69 0 0 0 411.19 274.13" fill="#98c0c0"/><rect x="411.19" y="274.13" width="45.69" height="45.69" fill="#569897"/><path d="M 411.19 274.13 A 45.69 45.69 0 0 1 456.88 319.82 L 411.19 319.82" fill="#fbf9f6"/><rect x="365.5" y="319.81" width="45.69" height="45.69" fill="#74aaaa"/><path d="M 365.5 365.5 A 45.69 45.69 0 0 1  411.19 319.81 L 411.19 365.5" fill="#2b5666"/><rect x="411.19" y="319.81" width="45.69" height="45.69" fill="#96abb3"/><path d="M 411.19 319.81 A 45.69 45.69 0 0 1 456.88 365.5 L 411.19 365.5" fill="#ede4d6"/><rect x="456.88" y="274.13" width="91.38" height="91.38" fill="#ebe2d2"/><path d="M 456.88 274.13 A 91.38 91.38 0 0 1 548.26 365.51 L 456.88 365.51" fill="#faf7f3"/><rect x="548.25" y="274.13" width="91.38" height="91.38" fill="#567985"/><path d="M 548.25 274.13 A 91.38 91.38 0 0 1  639.63 365.51 L 548.25 274.13 A 91.38 91.38 0 0 0 639.63 365.51" fill="#a3aab5"/><rect x="639.63" y="274.13" width="91.38" height="91.38" fill="#adcdcd"/><path d="M 639.63 274.13 A 91.38 91.38 0 0 0 731.01 365.51 L 731.01 274.13" fill="#283852"/><rect x="731" y="274.13" width="91.38" height="91.38" fill="#448d8c"/><path d="M 731 365.51 A 91.38 91.38 0 0 1  822.38 274.13 L 822.38 365.51" fill="#e5d8be"/><rect x="822.38" y="274.13" width="91.38" height="91.38" fill="#d7dfe2"/><path d="M 822.38 365.51 A 91.38 91.38 0 0 1  913.76 274.13 L 913.76 365.51" fill="#f5f1e9"/><rect x="913.75" y="274.13" width="91.38" height="91.38" fill="#fcfbf8"/><path d="M 913.75 274.13 A 91.38 91.38 0 0 0 1005.13 365.51 L 1005.13 274.13" fill="#abbcc3"/><rect x="1005.13" y="274.13" width="91.38" height="91.38" fill="#1e7575"/><path d="M 1005.13 274.13 A 91.38 91.38 0 0 1  1096.51 365.51 L 1005.13 274.13 A 91.38 91.38 0 0 0 1096.51 365.51" fill="#65a1a0"/><rect x="1096.5" y="274.13" width="91.38" height="91.38" fill="#529595"/><path d="M 1096.5 365.51 A 91.38 91.38 0 0 1  1187.88 274.13 L 1187.88 365.51" fill="#f5f6f7"/><rect x="1187.88" y="274.13" width="91.38" height="91.38" fill="#dac7a1"/><path d="M 1187.88 274.13 A 91.38 91.38 0 0 1  1279.2600000000002 365.51 L 1187.88 274.13 A 91.38 91.38 0 0 0 1279.2600000000002 365.51" fill="#778191"/><rect x="0" y="365.5" width="91.38" height="91.38" fill="#eae0cf"/><path d="M 0 365.5 A 91.38 91.38 0 0 0 91.38 456.88 L 91.38 365.5" fill="#e6d9bf"/><rect x="91.38" y="365.5" width="91.38" height="91.38" fill="#f5f1e9"/><path d="M 91.38 456.88 A 91.38 91.38 0 0 0 182.76 365.5 L 91.38 365.5" fill="#f8f9fa"/><rect x="182.75" y="365.5" width="91.38" height="91.38" fill="#778191"/><path d="M 182.75 456.88 A 91.38 91.38 0 0 0 274.13 365.5 L 182.75 365.5" fill="#fdfbf9"/><rect x="274.13" y="365.5" width="91.38" height="91.38" fill="#ece2cf"/><path d="M 274.13 365.5 A 91.38 91.38 0 0 1  365.51 456.88 L 274.13 365.5 A 91.38 91.38 0 0 0 365.51 456.88" fill="#498f8f"/><rect x="365.5" y="365.5" width="91.38" height="91.38" fill="#c4dbdb"/><path d="M 365.5 365.5 A 91.38 91.38 0 0 1 456.88 456.88 L 365.5 456.88" fill="#fcfaf7"/><rect x="456.88" y="365.5" width="91.38" height="91.38" fill="#78adac"/><path d="M 456.88 456.88 A 91.38 91.38 0 0 0 548.26 365.5 L 456.88 365.5" fill="#ebe1cd"/><rect x="548.25" y="365.5" width="91.38" height="91.38" fill="#f7f3ed"/><path d="M 548.25 365.5 A 91.38 91.38 0 0 0 639.63 456.88 L 639.63 365.5" fill="#d5d8dd"/><rect x="639.625" y="365.5" width="91.375" height="91.375" fill="#ffffff"/><rect x="639.63" y="365.5" width="45.69" height="45.69" fill="#f4eee5"/><path d="M 639.63 411.19 A 45.69 45.69 0 0 0 685.3199999999999 365.5 L 639.63 365.5" fill="#051735"/><rect x="685.31" y="365.5" width="45.69" height="45.69" fill="#95aab2"/><path d="M 685.31 365.5 A 45.69 45.69 0 0 1 731 411.19 L 685.31 411.19" fill="#cbcfd5"/><rect x="639.63" y="411.19" width="45.69" height="45.69" fill="#3f4d64"/><path d="M 639.63 456.88 A 45.69 45.69 0 0 1  685.3199999999999 411.19 L 639.63 456.88 A 45.69 45.69 0 0 0 685.3199999999999 411.19" fill="#f0e9de"/><rect x="685.31" y="411.19" width="45.69" height="45.69" fill="#747e8f"/><path d="M 685.31 411.19 A 45.69 45.69 0 0 0 731 456.88 L 731 411.19" fill="#eee6d8"/><rect x="731" y="365.5" width="91.38" height="91.38" fill="#d6e6e6"/><path d="M 731 456.88 A 91.38 91.38 0 0 1  822.38 365.5 L 822.38 456.88" fill="#355e6d"/><rect x="822.375" y="365.5" width="91.375" height="91.375" fill="#ffffff"/><rect x="822.38" y="365.5" width="45.69" height="45.69" fill="#74909a"/><path d="M 822.38 365.5 A 45.69 45.69 0 0 1 868.0699999999999 411.19 L 822.38 411.19" fill="#cfd2d8"/><rect x="868.06" y="365.5" width="45.69" height="45.69" fill="#2a3a53"/><path d="M 868.06 411.19 A 45.69 45.69 0 0 1  913.75 365.5 L 868.06 411.19 A 45.69 45.69 0 0 0 913.75 365.5" fill="#295464"/><rect x="822.38" y="411.19" width="45.69" height="45.69" fill="#f6f7f8"/><path d="M 822.38 411.19 A 45.69 45.69 0 0 0 868.0699999999999 456.88 L 868.0699999999999 411.19" fill="#eee5d3"/><rect x="868.06" y="411.19" width="45.69" height="45.69" fill="#fefefd"/><path d="M 868.06 411.19 A 45.69 45.69 0 0 0 913.75 456.88 L 913.75 411.19" fill="#dccaa7"/><rect x="913.75" y="365.5" width="91.38" height="91.38" fill="#ede4d5"/><path d="M 913.75 365.5 A 91.38 91.38 0 0 1  1005.13 456.88 L 913.75 365.5 A 91.38 91.38 0 0 0 1005.13 456.88" fill="#bad5d4"/><rect x="1005.125" y="365.5" width="91.375" height="91.375" fill="#ffffff"/><rect x="1005.13" y="365.5" width="45.69" height="45.69" fill="#ece2cf"/><path d="M 1005.13 411.19 A 45.69 45.69 0 0 0 1050.82 365.5 L 1005.13 365.5" fill="#a6adb8"/><rect x="1050.81" y="365.5" width="45.69" height="45.69" fill="#979fab"/><path d="M 1050.81 365.5 A 45.69 45.69 0 0 1 1096.5 411.19 L 1050.81 411.19" fill="#69a3a3"/><rect x="1005.13" y="411.19" width="45.69" height="45.69" fill="#91a7af"/><path d="M 1005.13 456.88 A 45.69 45.69 0 0 0 1050.82 411.19 L 1005.13 411.19" fill="#cdb481"/><rect x="1050.81" y="411.19" width="45.69" height="45.69" fill="#94a9b2"/><path d="M 1050.81 456.88 A 45.69 45.69 0 0 1  1096.5 411.19 L 1096.5 456.88" fill="#e4e6e9"/><rect x="1096.5" y="365.5" width="91.38" height="91.38" fill="#4c596f"/><path d="M 1096.5 456.88 A 91.38 91.38 0 0 0 1187.88 365.5 L 1096.5 365.5" fill="#90a7af"/><rect x="1187.88" y="365.5" width="91.38" height="91.38" fill="#345d6c"/><path d="M 1187.88 365.5 A 91.38 91.38 0 0 1  1279.2600000000002 456.88 L 1187.88 365.5 A 91.38 91.38 0 0 0 1279.2600000000002 456.88" fill="#328281"/><rect x="0" y="456.88" width="91.38" height="91.38" fill="#5a7b88"/><path d="M 0 548.26 A 91.38 91.38 0 0 1  91.38 456.88 L 0 548.26 A 91.38 91.38 0 0 0 91.38 456.88" fill="#f6f1e8"/><rect x="91.38" y="456.88" width="91.38" height="91.38" fill="#eae0d0"/><path d="M 91.38 548.26 A 91.38 91.38 0 0 0 182.76 456.88 L 91.38 456.88" fill="#747e8f"/><rect x="182.75" y="456.88" width="91.38" height="91.38" fill="#e2d3b6"/><path d="M 182.75 456.88 A 91.38 91.38 0 0 1 274.13 548.26 L 182.75 548.26" fill="#f4efe6"/><rect x="274.125" y="456.875" width="91.375" height="91.375" fill="#ffffff"/><rect x="274.13" y="456.88" width="45.69" height="45.69" fill="#ede4d2"/><path d="M 274.13 456.88 A 45.69 45.69 0 0 0 319.82 502.57 L 319.82 456.88" fill="#eadfc9"/><rect x="319.81" y="456.88" width="45.69" height="45.69" fill="#a5b7be"/><path d="M 319.81 502.57 A 45.69 45.69 0 0 1  365.5 456.88 L 365.5 502.57" fill="#d8e7e7"/><rect x="274.13" y="502.56" width="45.69" height="45.69" fill="#318180"/><path d="M 274.13 502.56 A 45.69 45.69 0 0 1 319.82 548.25 L 274.13 548.25" fill="#10223e"/><rect x="319.81" y="502.56" width="45.69" height="45.69" fill="#f7f3ec"/><path d="M 319.81 548.25 A 45.69 45.69 0 0 1  365.5 502.56 L 365.5 548.25" fill="#c3c8cf"/><rect x="365.5" y="456.88" width="91.38" height="91.38" fill="#eff3f4"/><path d="M 365.5 456.88 A 91.38 91.38 0 0 0 456.88 548.26 L 456.88 456.88" fill="#d5d8dd"/><rect x="456.88" y="456.88" width="91.38" height="91.38" fill="#eae0d0"/><path d="M 456.88 456.88 A 91.38 91.38 0 0 0 548.26 548.26 L 548.26 456.88" fill="#f9f6f1"/><rect x="548.25" y="456.88" width="91.38" height="91.38" fill="#f0e8dc"/><path d="M 548.25 548.26 A 91.38 91.38 0 0 0 639.63 456.88 L 548.25 456.88" fill="#66a2a1"/><rect x="639.625" y="456.875" width="91.375" height="91.375" fill="#ffffff"/><rect x="639.63" y="456.88" width="45.69" height="45.69" fill="#e9dfcd"/><path d="M 639.63 502.57 A 45.69 45.69 0 0 1  685.3199999999999 456.88 L 639.63 502.57 A 45.69 45.69 0 0 0 685.3199999999999 456.88" fill="#99c0c0"/><rect x="685.31" y="456.88" width="45.69" height="45.69" fill="#1f304a"/><path d="M 685.31 456.88 A 45.69 45.69 0 0 0 731 502.57 L 731 456.88" fill="#046665"/><rect x="639.63" y="502.56" width="45.69" height="45.69" fill="#eae0cb"/><path d="M 639.63 548.25 A 45.69 45.69 0 0 0 685.3199999999999 502.56 L 639.63 502.56" fill="#4f5c71"/><rect x="685.31" y="502.56" width="45.69" height="45.69" fill="#d3bc8f"/><path d="M 685.31 548.25 A 45.69 45.69 0 0 0 731 502.56 L 685.31 502.56" fill="#f6f1ea"/><rect x="731" y="456.88" width="91.38" height="91.38" fill="#e7dbc3"/><path d="M 731 456.88 A 91.38 91.38 0 0 1  822.38 548.26 L 731 456.88 A 91.38 91.38 0 0 0 822.38 548.26" fill="#ebe0cc"/><rect x="822.38" y="456.88" width="91.38" height="91.38" fill="#04374a"/><path d="M 822.38 456.88 A 91.38 91.38 0 0 1  913.76 548.26 L 822.38 456.88 A 91.38 91.38 0 0 0 913.76 548.26" fill="#0e6b6a"/><rect x="913.75" y="456.88" width="91.38" height="91.38" fill="#7cafaf"/><path d="M 913.75 456.88 A 91.38 91.38 0 0 0 1005.13 548.26 L 1005.13 456.88" fill="#1e7675"/><rect x="1005.13" y="456.88" width="91.38" height="91.38" fill="#90bbbb"/><path d="M 1005.13 456.88 A 91.38 91.38 0 0 1  1096.51 548.26 L 1005.13 456.88 A 91.38 91.38 0 0 0 1096.51 548.26" fill="#f4f6f7"/><rect x="1096.5" y="456.88" width="91.38" height="91.38" fill="#f6f2eb"/><path d="M 1096.5 456.88 A 91.38 91.38 0 0 0 1187.88 548.26 L 1187.88 456.88" fill="#61818d"/><rect x="1187.875" y="456.875" width="91.375" height="91.375" fill="#ffffff"/><rect x="1187.88" y="456.88" width="45.69" height="45.69" fill="#dee0e4"/><path d="M 1187.88 456.88 A 45.69 45.69 0 0 0 1233.5700000000002 502.57 L 1233.5700000000002 456.88" fill="#efe7da"/><rect x="1233.56" y="456.88" width="45.69" height="45.69" fill="#f6f1ea"/><path d="M 1233.56 502.57 A 45.69 45.69 0 0 0 1279.25 456.88 L 1233.56 456.88" fill="#eee6d8"/><rect x="1187.88" y="502.56" width="45.69" height="45.69" fill="#f9f6f1"/><path d="M 1187.88 548.25 A 45.69 45.69 0 0 0 1233.5700000000002 502.56 L 1187.88 502.56" fill="#5e6a7d"/><rect x="1233.56" y="502.56" width="45.69" height="45.69" fill="#f7f3ec"/><path d="M 1233.56 502.56 A 45.69 45.69 0 0 1 1279.25 548.25 L 1233.56 548.25" fill="#f2ebe1"/><rect x="0" y="548.25" width="91.38" height="91.38" fill="#ceb584"/><path d="M 0 548.25 A 91.38 91.38 0 0 1 91.38 639.63 L 0 639.63" fill="#3f6674"/><rect x="91.375" y="548.25" width="91.375" height="91.375" fill="#ffffff"/><rect x="91.38" y="548.25" width="45.69" height="45.69" fill="#faf7f3"/><path d="M 91.38 593.94 A 45.69 45.69 0 0 0 137.07 548.25 L 91.38 548.25" fill="#f8f5ef"/><rect x="137.06" y="548.25" width="45.69" height="45.69" fill="#fcfbf8"/><path d="M 137.06 593.94 A 45.69 45.69 0 0 1  182.75 548.25 L 182.75 593.94" fill="#97c0bf"/><rect x="91.38" y="593.94" width="45.69" height="45.69" fill="#f1eadf"/><path d="M 91.38 639.6300000000001 A 45.69 45.69 0 0 1  137.07 593.94 L 137.07 639.6300000000001" fill="#f8f4ee"/><rect x="137.06" y="593.94" width="45.69" height="45.69" fill="#cdd7db"/><path d="M 137.06 639.6300000000001 A 45.69 45.69 0 0 0 182.75 593.94 L 137.06 593.94" fill="#eae0d0"/><rect x="182.75" y="548.25" width="91.38" height="91.38" fill="#848d9c"/><path d="M 182.75 639.63 A 91.38 91.38 0 0 1  274.13 548.25 L 274.13 639.63" fill="#505d72"/><rect x="274.13" y="548.25" width="91.38" height="91.38" fill="#f2ebde"/><path d="M 274.13 639.63 A 91.38 91.38 0 0 1  365.51 548.25 L 274.13 639.63 A 91.38 91.38 0 0 0 365.51 548.25" fill="#fbf9f6"/><rect x="365.5" y="548.25" width="91.38" height="91.38" fill="#deccab"/><path d="M 365.5 548.25 A 91.38 91.38 0 0 1 456.88 639.63 L 365.5 639.63" fill="#eae0cf"/><rect x="456.88" y="548.25" width="91.38" height="91.38" fill="#0d1f3c"/><path d="M 456.88 548.25 A 91.38 91.38 0 0 1  548.26 639.63 L 456.88 548.25 A 91.38 91.38 0 0 0 548.26 639.63" fill="#7d8796"/><rect x="548.25" y="548.25" width="91.38" height="91.38" fill="#dccaa6"/><path d="M 548.25 548.25 A 91.38 91.38 0 0 0 639.63 639.63 L 639.63 548.25" fill="#293953"/><rect x="639.63" y="548.25" width="91.38" height="91.38" fill="#1f304b"/><path d="M 639.63 548.25 A 91.38 91.38 0 0 0 731.01 639.63 L 731.01 548.25" fill="#f4eee3"/><rect x="731" y="548.25" width="91.375" height="91.375" fill="#ffffff"/><rect x="731" y="548.25" width="45.69" height="45.69" fill="#0d1f3c"/><path d="M 731 548.25 A 45.69 45.69 0 0 0 776.69 593.94 L 776.69 548.25" fill="#358383"/><rect x="776.69" y="548.25" width="45.69" height="45.69" fill="#547683"/><path d="M 776.69 548.25 A 45.69 45.69 0 0 1  822.3800000000001 593.94 L 776.69 548.25 A 45.69 45.69 0 0 0 822.3800000000001 593.94" fill="#ede4d1"/><rect x="731" y="593.94" width="45.69" height="45.69" fill="#92a8b1"/><path d="M 731 639.6300000000001 A 45.69 45.69 0 0 1  776.69 593.94 L 776.69 639.6300000000001" fill="#fcfcfc"/><rect x="776.69" y="593.94" width="45.69" height="45.69" fill="#9da5b0"/><path d="M 776.69 593.94 A 45.69 45.69 0 0 1 822.3800000000001 639.6300000000001 L 776.69 639.6300000000001" fill="#bfccd1"/><rect x="822.38" y="548.25" width="91.38" height="91.38" fill="#fdfcfb"/><path d="M 822.38 639.63 A 91.38 91.38 0 0 1  913.76 548.25 L 822.38 639.63 A 91.38 91.38 0 0 0 913.76 548.25" fill="#819aa4"/><rect x="913.75" y="548.25" width="91.38" height="91.38" fill="#ebe1d1"/><path d="M 913.75 548.25 A 91.38 91.38 0 0 1  1005.13 639.63 L 913.75 548.25 A 91.38 91.38 0 0 0 1005.13 639.63" fill="#6a7587"/><rect x="1005.13" y="548.25" width="91.38" height="91.38" fill="#3f6675"/><path d="M 1005.13 639.63 A 91.38 91.38 0 0 1  1096.51 548.25 L 1096.51 639.63" fill="#ebe2d2"/><rect x="1096.5" y="548.25" width="91.38" height="91.38" fill="#92bcbc"/><path d="M 1096.5 639.63 A 91.38 91.38 0 0 0 1187.88 548.25 L 1096.5 548.25" fill="#8fbbba"/><rect x="1187.88" y="548.25" width="91.38" height="91.38" fill="#fefdfd"/><path d="M 1187.88 548.25 A 91.38 91.38 0 0 0 1279.2600000000002 639.63 L 1279.2600000000002 548.25" fill="#e4d6bb"/><rect x="0" y="639.63" width="91.38" height="91.38" fill="#a2b4bc"/><path d="M 0 731.01 A 91.38 91.38 0 0 1  91.38 639.63 L 91.38 731.01" fill="#fcfaf8"/><rect x="91.38" y="639.63" width="91.38" height="91.38" fill="#94bebd"/><path d="M 91.38 731.01 A 91.38 91.38 0 0 1  182.76 639.63 L 182.76 731.01" fill="#646f82"/><rect x="182.75" y="639.63" width="91.38" height="91.38" fill="#c1ced2"/><path d="M 182.75 731.01 A 91.38 91.38 0 0 0 274.13 639.63 L 182.75 639.63" fill="#476c7a"/><rect x="274.13" y="639.63" width="91.38" height="91.38" fill="#7cafaf"/><path d="M 274.13 639.63 A 91.38 91.38 0 0 1 365.51 731.01 L 274.13 731.01" fill="#d1b98a"/><rect x="365.5" y="639.625" width="91.375" height="91.375" fill="#ffffff"/><rect x="365.5" y="639.63" width="45.69" height="45.69" fill="#15706f"/><path d="M 365.5 685.3199999999999 A 45.69 45.69 0 0 0 411.19 639.63 L 365.5 639.63" fill="#b2b8c1"/><rect x="411.19" y="639.63" width="45.69" height="45.69" fill="#e8decc"/><path d="M 411.19 639.63 A 45.69 45.69 0 0 1  456.88 685.3199999999999 L 411.19 639.63 A 45.69 45.69 0 0 0 456.88 685.3199999999999" fill="#aacbcb"/><rect x="365.5" y="685.31" width="45.69" height="45.69" fill="#144355"/><path d="M 365.5 685.31 A 45.69 45.69 0 0 1  411.19 731 L 365.5 685.31 A 45.69 45.69 0 0 0 411.19 731" fill="#c7cbd2"/><rect x="411.19" y="685.31" width="45.69" height="45.69" fill="#ece3d4"/><path d="M 411.19 731 A 45.69 45.69 0 0 1  456.88 685.31 L 456.88 731" fill="#879fa8"/><rect x="456.88" y="639.63" width="91.38" height="91.38" fill="#bdcacf"/><path d="M 456.88 731.01 A 91.38 91.38 0 0 1  548.26 639.63 L 548.26 731.01" fill="#fdfcfb"/><rect x="548.25" y="639.63" width="91.38" height="91.38" fill="#80b2b1"/><path d="M 548.25 639.63 A 91.38 91.38 0 0 0 639.63 731.01 L 639.63 639.63" fill="#faf8f4"/><rect x="639.625" y="639.625" width="91.375" height="91.375" fill="#ffffff"/><rect x="639.63" y="639.63" width="45.69" height="45.69" fill="#1d4a5c"/><path d="M 639.63 685.3199999999999 A 45.69 45.69 0 0 0 685.3199999999999 639.63 L 639.63 639.63" fill="#626e81"/><rect x="685.31" y="639.63" width="45.69" height="45.69" fill="#cfb684"/><path d="M 685.31 685.3199999999999 A 45.69 45.69 0 0 1  731 639.63 L 685.31 685.3199999999999 A 45.69 45.69 0 0 0 731 639.63" fill="#f2f7f7"/><rect x="639.63" y="685.31" width="45.69" height="45.69" fill="#87909e"/><path d="M 639.63 685.31 A 45.69 45.69 0 0 1 685.3199999999999 731 L 639.63 731" fill="#f6f9f9"/><rect x="685.31" y="685.31" width="45.69" height="45.69" fill="#dfcfae"/><path d="M 685.31 731 A 45.69 45.69 0 0 0 731 685.31 L 685.31 685.31" fill="#dac6a0"/><rect x="731" y="639.63" width="91.38" height="91.38" fill="#f2ebe1"/><path d="M 731 639.63 A 91.38 91.38 0 0 0 822.38 731.01 L 822.38 639.63" fill="#e9decd"/><rect x="822.375" y="639.625" width="91.375" height="91.375" fill="#ffffff"/><rect x="822.38" y="639.63" width="45.69" height="45.69" fill="#c3cfd4"/><path d="M 822.38 685.3199999999999 A 45.69 45.69 0 0 1  868.0699999999999 639.63 L 822.38 685.3199999999999 A 45.69 45.69 0 0 0 868.0699999999999 639.63" fill="#dbc8a3"/><rect x="868.06" y="639.63" width="45.69" height="45.69" fill="#f6f1e7"/><path d="M 868.06 685.3199999999999 A 45.69 45.69 0 0 0 913.75 639.63 L 868.06 639.63" fill="#f5f0e8"/><rect x="822.38" y="685.31" width="45.69" height="45.69" fill="#609e9d"/><path d="M 822.38 685.31 A 45.69 45.69 0 0 1  868.0699999999999 731 L 822.38 685.31 A 45.69 45.69 0 0 0 868.0699999999999 731" fill="#d6c197"/><rect x="868.06" y="685.31" width="45.69" height="45.69" fill="#faf8f4"/><path d="M 868.06 685.31 A 45.69 45.69 0 0 0 913.75 731 L 913.75 685.31" fill="#ceb583"/><rect x="913.75" y="639.63" width="91.38" height="91.38" fill="#d5bf94"/><path d="M 913.75 731.01 A 91.38 91.38 0 0 1  1005.13 639.63 L 913.75 731.01 A 91.38 91.38 0 0 0 1005.13 639.63" fill="#c2dada"/><rect x="1005.13" y="639.63" width="91.38" height="91.38" fill="#2a5565"/><path d="M 1005.13 639.63 A 91.38 91.38 0 0 1 1096.51 731.01 L 1005.13 731.01" fill="#fdfcfa"/><rect x="1096.5" y="639.63" width="91.38" height="91.38" fill="#468e8e"/><path d="M 1096.5 731.01 A 91.38 91.38 0 0 1  1187.88 639.63 L 1096.5 731.01 A 91.38 91.38 0 0 0 1187.88 639.63" fill="#fcfbf8"/><rect x="1187.875" y="639.625" width="91.375" height="91.375" fill="#ffffff"/><rect x="1187.88" y="639.63" width="45.69" height="45.69" fill="#f5f1e9"/><path d="M 1187.88 639.63 A 45.69 45.69 0 0 0 1233.5700000000002 685.3199999999999 L 1233.5700000000002 639.63" fill="#435167"/><rect x="1233.56" y="639.63" width="45.69" height="45.69" fill="#e2d2b4"/><path d="M 1233.56 685.3199999999999 A 45.69 45.69 0 0 1  1279.25 639.63 L 1233.56 685.3199999999999 A 45.69 45.69 0 0 0 1279.25 639.63" fill="#418b8a"/><rect x="1187.88" y="685.31" width="45.69" height="45.69" fill="#bdd7d6"/><path d="M 1187.88 685.31 A 45.69 45.69 0 0 1  1233.5700000000002 731 L 1187.88 685.31 A 45.69 45.69 0 0 0 1233.5700000000002 731" fill="#d0b888"/><rect x="1233.56" y="685.31" width="45.69" height="45.69" fill="#2b3b54"/><path d="M 1233.56 685.31 A 45.69 45.69 0 0 0 1279.25 731 L 1279.25 685.31" fill="#d0d3d9"/></g></svg>