<?xml version="1.0" standalone="no"?><svg xmlns:xlink="http://www.w3.org/1999/xlink" xmlns="http://www.w3.org/2000/svg" viewBox="0 0 400 200" preserveAspectRatio="xMaxYMax slice"><g transform="scale(0.27359781121751026)"><rect x="0" y="0" width="1462" height="731" fill="#1e7575"/><polygon points="121.83,0 121.83,121.83 0,121.83" fill="#264c4c"/><rect x="243.67" y="0" width="121.83" height="121.83" fill="#216363"/><path d="M 609.17 121.83 A 121.83 121.83 0 0 1  731 0 L 731 121.83" fill="#2c7c7b"/><polygon points="731,0 852.83,0 731,121.83" fill="#1f7070"/><rect x="974.6666666666666" y="0" width="121.83333333333333" height="121.83333333333333" fill="#1e7575"/><polygon points="974.67,0 1035.59,0 974.67,60.92" fill="#284444"/><polygon points="1035.58,0 1096.5,0 1096.5,60.92" fill="#19656a"/><polygon points="974.67,60.92 1035.59,121.84 974.67,121.84" fill="#293d3d"/><polygon points="1096.5,60.92 1096.5,121.84 1035.58,121.84" fill="#114856"/><rect x="1096.5" y="0" width="121.83" height="121.83" fill="#06203b"/><rect x="1218.3333333333333" y="0" width="121.83333333333333" height="121.83333333333333" fill="#1e7575"/><path d="M 1218.33 60.92 A 60.92 60.92 0 0 1 1279.25 0 L 1279.25 15.23 A 45.69 45.69 0 0 0 1233.56 60.92" fill="#254f4f"/><path d="M 1279.25 0 A 60.92 60.92 0 0 1 1340.17 60.92 L 1324.94 60.92 A 45.69 45.69 0 0 0 1279.25 15.23" fill="#156167"/><path d="M 1218.33 60.92 A 60.92 60.92 0 0 0 1279.25 121.84 L 1279.25 106.61 A 45.69 45.69 0 0 1 1233.56 60.92" fill="#051d38"/><path d="M 1279.25 121.84 A 60.92 60.92 0 0 0 1340.17 60.92 L 1324.94 60.92 A 45.69 45.69 0 0 1 1279.25 106.61" fill="#75a29a"/><rect x="0" y="121.83333333333333" width="121.83333333333333" height="121.83333333333333" fill="#1e7575"/><polygon points="0,121.83 60.92,121.83 0,182.75" fill="#134f5b"/><polygon points="121.84,121.83 121.84,182.75 60.92,182.75" fill="#1d7374"/><polygon points="0,182.75 60.92,182.75 60.92,243.67000000000002" fill="#e4dbc9"/><polygon points="60.92,182.75 121.84,243.67000000000002 60.92,243.67000000000002" fill="#235959"/><rect x="365.5" y="121.83333333333333" width="121.83333333333333" height="121.83333333333333" fill="#1e7575"/><path d="M 365.5 121.83 A 60.92 60.92 0 0 1 426.42 182.75 L 365.5 182.75" fill="#297b7a"/><path d="M 426.42 182.75 A 60.92 60.92 0 0 1  487.34000000000003 121.83 L 487.34000000000003 182.75" fill="#0a4755"/><path d="M 365.5 243.67000000000002 A 60.92 60.92 0 0 0 426.42 182.75 L 365.5 182.75" fill="#b8c4b6"/><path d="M 426.42 182.75 A 60.92 60.92 0 0 0 487.34000000000003 243.67000000000002 L 487.34000000000003 182.75" fill="#428784"/><rect x="609.1666666666666" y="121.83333333333333" width="121.83333333333333" height="121.83333333333333" fill="#1e7575"/><polygon points="609.17,121.83 670.0899999999999,121.83 609.17,182.75" fill="#b1c1b3"/><polygon points="670.08,121.83 731,121.83 731,182.75" fill="#06203b"/><polygon points="670.0899999999999,182.75 670.0899999999999,243.67000000000002 609.17,243.67000000000002" fill="#0a2e44"/><polygon points="670.08,182.75 731,243.67000000000002 670.08,243.67000000000002" fill="#226262"/><path d="M 852.83 121.83 A 121.83 121.83 0 0 1  974.6600000000001 243.66 L 852.83 121.83 A 121.83 121.83 0 0 0 974.6600000000001 243.66" fill="#959f7c"/><rect x="1096.5" y="121.83333333333333" width="121.83333333333333" height="121.83333333333333" fill="#1e7575"/><path d="M 1096.5 121.83 A 60.92 60.92 0 0 0 1157.42 182.75 L 1157.42 121.83" fill="#0f525c"/><path d="M 1157.42 182.75 A 60.92 60.92 0 0 0 1218.3400000000001 121.83 L 1157.42 121.83" fill="#afa87e"/><path d="M 1096.5 243.67000000000002 A 60.92 60.92 0 0 1  1157.42 182.75 L 1157.42 243.67000000000002" fill="#6e9e97"/><path d="M 1157.42 182.75 A 60.92 60.92 0 0 1 1218.3400000000001 243.67000000000002 L 1157.42 243.67000000000002" fill="#264a4a"/><polygon points="1340.17,121.83 1462,121.83 1340.17,243.66" fill="#284242"/><path d="M 121.83 365.5 A 121.83 121.83 0 0 0 243.66 243.67 L 121.83 243.67" fill="#307e7d"/><rect x="365.5" y="243.66666666666666" width="121.83333333333333" height="121.83333333333333" fill="#1e7575"/><path d="M 365.5 243.67 A 60.92 60.92 0 0 1 426.42 304.59 L 365.5 304.59" fill="#226262"/><path d="M 426.42 304.59 A 60.92 60.92 0 0 1  487.34000000000003 243.67 L 487.34000000000003 304.59" fill="#277876"/><path d="M 365.5 365.5 A 60.92 60.92 0 0 0 426.42 304.58 L 365.5 304.58" fill="#156066"/><path d="M 426.42 304.58 A 60.92 60.92 0 0 0 487.34000000000003 365.5 L 487.34000000000003 304.58" fill="#1b6e70"/><rect x="609.1666666666666" y="243.66666666666666" width="121.83333333333333" height="121.83333333333333" fill="#1e7575"/><path d="M 609.17 243.67 A 60.92 60.92 0 0 1 670.0899999999999 304.59 L 609.17 304.59" fill="#255252"/><path d="M 670.08 304.59 A 60.92 60.92 0 0 1  731 243.67 L 731 304.59" fill="#e6dcca"/><path d="M 609.17 365.5 A 60.92 60.92 0 0 0 670.0899999999999 304.58 L 609.17 304.58" fill="#245959"/><path d="M 670.08 304.58 A 60.92 60.92 0 0 0 731 365.5 L 731 304.58" fill="#b7ab7f"/><path d="M 852.83 243.67 A 121.83 121.83 0 0 1  974.6600000000001 365.5 L 852.83 243.67 A 121.83 121.83 0 0 0 974.6600000000001 365.5" fill="#104454"/><path d="M 974.67 365.5 A 121.83 121.83 0 0 0 1096.5 243.67 L 974.67 243.67" fill="#225e5e"/><polygon points="1096.5,243.67 1218.33,243.67 1096.5,365.5" fill="#0e4f5a"/><rect x="1218.3333333333333" y="243.66666666666666" width="121.83333333333333" height="121.83333333333333" fill="#1e7575"/><circle cx="1248.79" cy="274.13" r="30.46" fill="#284141"/><rect x="1279.25" y="243.67" width="60.92" height="60.92" fill="#084150"/><circle cx="1248.79" cy="335.03999999999996" r="30.46" fill="#a5bbaf"/><rect x="1279.25" y="304.58" width="60.92" height="60.92" fill="#10555f"/><rect x="1340.1666666666665" y="243.66666666666666" width="121.83333333333333" height="121.83333333333333" fill="#1e7575"/><path d="M 1340.17 243.67 A 60.92 60.92 0 0 1 1401.0900000000001 304.59 L 1340.17 304.59" fill="#1d7072"/><path d="M 1401.08 304.59 A 60.92 60.92 0 0 1  1462 243.67 L 1462 304.59" fill="#217776"/><path d="M 1340.17 365.5 A 60.92 60.92 0 0 0 1401.0900000000001 304.58 L 1340.17 304.58" fill="#0e3e4f"/><path d="M 1401.08 304.58 A 60.92 60.92 0 0 0 1462 365.5 L 1462 304.58" fill="#0b3147"/><rect x="0" y="365.5" width="121.83333333333333" height="121.83333333333333" fill="#1e7575"/><path d="M 0 365.5 A 60.92 60.92 0 0 1 60.92 426.42 L 0 426.42" fill="#8a9b7c"/><path d="M 60.92 426.42 A 60.92 60.92 0 0 1  121.84 365.5 L 121.84 426.42" fill="#094553"/><path d="M 0 487.34000000000003 A 60.92 60.92 0 0 0 60.92 426.42 L 0 426.42" fill="#a3a47d"/><path d="M 60.92 426.42 A 60.92 60.92 0 0 0 121.84 487.34000000000003 L 121.84 426.42" fill="#114655"/><rect x="121.83333333333333" y="365.5" width="121.83333333333333" height="121.83333333333333" fill="#1e7575"/><polygon points="121.83,365.5 182.75,365.5 121.83,426.42" fill="#041936"/><polygon points="243.67000000000002,365.5 243.67000000000002,426.42 182.75,426.42" fill="#274949"/><polygon points="121.83,426.42 182.75,426.42 182.75,487.34000000000003" fill="#e2dac9"/><polygon points="182.75,426.42 243.67000000000002,487.34000000000003 182.75,487.34000000000003" fill="#1e7373"/><path d="M 365.5 487.33 A 121.83 121.83 0 0 1  487.33 365.5 L 365.5 487.33 A 121.83 121.83 0 0 0 487.33 365.5" fill="#709f98"/><rect x="487.3333333333333" y="365.5" width="121.83333333333333" height="121.83333333333333" fill="#1e7575"/><path d="M 487.33 365.5 A 60.92 60.92 0 0 1 548.25 426.42 L 487.33 426.42" fill="#598a79"/><path d="M 548.25 426.42 A 60.92 60.92 0 0 1  609.17 365.5 L 609.17 426.42" fill="#c0c8ba"/><path d="M 487.33 487.34000000000003 A 60.92 60.92 0 0 0 548.25 426.42 L 487.33 426.42" fill="#1a666b"/><path d="M 548.25 426.42 A 60.92 60.92 0 0 0 609.17 487.34000000000003 L 609.17 426.42" fill="#051d39"/><rect x="609.17" y="365.5" width="121.83" height="121.83" fill="#125a62"/><rect x="731" y="365.5" width="121.83333333333333" height="121.83333333333333" fill="#1e7575"/><path d="M 731 426.42 A 60.92 60.92 0 0 0 791.92 365.5 L 731 365.5" fill="#216666"/><path d="M 791.92 365.5 A 60.92 60.92 0 0 0 852.8399999999999 426.42 L 852.8399999999999 365.5" fill="#1b696d"/><path d="M 731 426.42 A 60.92 60.92 0 0 1 791.92 487.34000000000003 L 731 487.34000000000003" fill="#125a62"/><path d="M 791.92 487.34000000000003 A 60.92 60.92 0 0 1  852.8399999999999 426.42 L 852.8399999999999 487.34000000000003" fill="#e0d9c8"/><path d="M 852.83 487.33 A 121.83 121.83 0 0 1  974.6600000000001 365.5 L 852.83 487.33 A 121.83 121.83 0 0 0 974.6600000000001 365.5" fill="#ccb380"/><rect x="1096.5" y="365.5" width="121.83" height="121.83" fill="#255353"/><path d="M 1218.33 487.33 A 121.83 121.83 0 0 0 1340.1599999999999 365.5 L 1218.33 365.5" fill="#297b7a"/><rect x="121.83" y="487.33" width="121.83" height="121.83" fill="#206b6b"/><polygon points="243.67,487.33 365.5,487.33 243.67,609.16" fill="#293e3e"/><rect x="365.5" y="487.3333333333333" width="121.83333333333333" height="121.83333333333333" fill="#1e7575"/><path d="M 365.5 487.33 A 60.92 60.92 0 0 1 426.42 548.25 L 365.5 548.25" fill="#bdad7f"/><path d="M 426.42 548.25 A 60.92 60.92 0 0 1  487.34000000000003 487.33 L 487.34000000000003 548.25" fill="#156066"/><path d="M 365.5 609.17 A 60.92 60.92 0 0 0 426.42 548.25 L 365.5 548.25" fill="#206969"/><path d="M 426.42 548.25 A 60.92 60.92 0 0 0 487.34000000000003 609.17 L 487.34000000000003 548.25" fill="#216565"/><rect x="609.1666666666666" y="487.3333333333333" width="121.83333333333333" height="121.83333333333333" fill="#1e7575"/><polygon points="609.17,487.33 670.0899999999999,487.33 609.17,548.25" fill="#115861"/><polygon points="670.08,487.33 731,487.33 731,548.25" fill="#063c4d"/><polygon points="670.0899999999999,548.25 670.0899999999999,609.17 609.17,609.17" fill="#175e65"/><polygon points="670.08,548.25 731,609.17 670.08,609.17" fill="#0e505b"/><rect x="731" y="487.3333333333333" width="121.83333333333333" height="121.83333333333333" fill="#1e7575"/><path d="M 731 548.25 A 60.92 60.92 0 0 1  791.92 487.33 L 791.92 548.25" fill="#196a6d"/><path d="M 791.92 487.33 A 60.92 60.92 0 0 1 852.8399999999999 548.25 L 791.92 548.25" fill="#125961"/><path d="M 731 548.25 A 60.92 60.92 0 0 0 791.92 609.17 L 791.92 548.25" fill="#0a4554"/><path d="M 791.92 609.17 A 60.92 60.92 0 0 0 852.8399999999999 548.25 L 791.92 548.25" fill="#acbeb1"/><rect x="852.8333333333333" y="487.3333333333333" width="121.83333333333333" height="121.83333333333333" fill="#1e7575"/><polygon points="852.83,487.33 913.75,487.33 852.83,548.25" fill="#90b0a6"/><polygon points="974.67,487.33 974.67,548.25 913.75,548.25" fill="#c2c9bb"/><polygon points="852.83,548.25 913.75,548.25 913.75,609.17" fill="#d1d1c1"/><polygon points="913.75,548.25 974.67,609.17 913.75,609.17" fill="#155660"/><rect x="974.6666666666666" y="487.3333333333333" width="121.83333333333333" height="121.83333333333333" fill="#1e7575"/><path d="M 974.67 548.25 A 60.92 60.92 0 0 1  1035.59 487.33 L 1035.59 548.25" fill="#264c4c"/><path d="M 1035.58 487.33 A 60.92 60.92 0 0 1 1096.5 548.25 L 1035.58 548.25" fill="#10555f"/><path d="M 974.67 548.25 A 60.92 60.92 0 0 0 1035.59 609.17 L 1035.59 548.25" fill="#568979"/><path d="M 1035.58 609.17 A 60.92 60.92 0 0 0 1096.5 548.25 L 1035.58 548.25" fill="#1a666b"/><path d="M 1096.5 487.33 A 121.83 121.83 0 0 1 1218.33 609.16 L 1096.5 609.16" fill="#216666"/><path d="M 1218.33 487.33 A 121.83 121.83 0 0 1  1340.1599999999999 609.16 L 1218.33 487.33 A 121.83 121.83 0 0 0 1340.1599999999999 609.16" fill="#134f5b"/><path d="M 121.83 731 A 121.83 121.83 0 0 1  243.66 609.17 L 243.66 731" fill="#a7a67e"/><polygon points="243.67,609.17 365.5,731 243.67,731" fill="#0d3a4c"/><rect x="609.17" y="609.17" width="121.83" height="121.83" fill="#284343"/><rect x="852.8333333333333" y="609.1666666666666" width="121.83333333333333" height="121.83333333333333" fill="#1e7575"/><path d="M 852.83 609.17 A 60.92 60.92 0 0 1 913.75 670.0899999999999 L 852.83 670.0899999999999" fill="#a8a67e"/><path d="M 913.75 670.0899999999999 A 60.92 60.92 0 0 1  974.67 609.17 L 974.67 670.0899999999999" fill="#13505b"/><path d="M 852.83 731 A 60.92 60.92 0 0 0 913.75 670.08 L 852.83 670.08" fill="#1d7374"/><path d="M 913.75 670.08 A 60.92 60.92 0 0 0 974.67 731 L 974.67 670.08" fill="#284343"/><rect x="974.6666666666666" y="609.1666666666666" width="121.83333333333333" height="121.83333333333333" fill="#1e7575"/><path d="M 974.67 670.0899999999999 A 60.92 60.92 0 0 1  1035.59 609.17 L 1035.59 670.0899999999999" fill="#10555f"/><path d="M 1035.58 609.17 A 60.92 60.92 0 0 1 1096.5 670.0899999999999 L 1035.58 670.0899999999999" fill="#104353"/><path d="M 974.67 670.08 A 60.92 60.92 0 0 0 1035.59 731 L 1035.59 670.08" fill="#235b5b"/><path d="M 1035.58 731 A 60.92 60.92 0 0 0 1096.5 670.08 L 1035.58 670.08" fill="#83a9a0"/><rect x="1096.5" y="609.1666666666666" width="121.83333333333333" height="121.83333333333333" fill="#1e7575"/><circle cx="1126.96" cy="639.63" r="30.46" fill="#3d8582"/><rect x="1157.42" y="609.17" width="60.92" height="60.92" fill="#699c95"/><circle cx="1126.96" cy="700.5400000000001" r="30.46" fill="#408683"/><rect x="1157.42" y="670.08" width="60.92" height="60.92" fill="#b5aa7e"/><path d="M 1218.33 731 A 121.83 121.83 0 0 1  1340.1599999999999 609.17 L 1218.33 731 A 121.83 121.83 0 0 0 1340.1599999999999 609.17" fill="#b4c2b5"/></g></svg>