<svg width="830" height="510" fill="none" xmlns="http://www.w3.org/2000/svg"><circle cx="284.236" cy="124.531" r="22.167" transform="rotate(45 284.236 124.531)" fill="#C4C4C4"/><circle cx="545.764" cy="385.469" r="22.167" transform="rotate(-135 545.764 385.469)" fill="#C4C4C4"/><circle cx="284.236" cy="124.531" r="19.917" transform="rotate(45 284.236 124.531)" fill="#393939" stroke="#fff" stroke-width="4.5"/><circle cx="545.764" cy="385.469" r="19.917" transform="rotate(-135 545.764 385.469)" fill="#393939" stroke="#fff" stroke-width="4.5"/><circle cx="283.675" cy="388.663" r="19.917" transform="rotate(45 283.675 388.663)" fill="#393939" stroke="#fff" stroke-width="4.5"/><circle cx="546.325" cy="121.337" r="19.917" transform="rotate(-135 546.325 121.337)" fill="#393939" stroke="#fff" stroke-width="4.5"/><circle cx="415.38" cy="144.56" r="10.837" transform="rotate(90 415.38 144.56)" fill="#fff" stroke="#393939" stroke-width="4.5"/><circle cx="414.62" cy="365.44" r="10.837" transform="rotate(-90 414.62 365.44)" fill="#fff" stroke="#393939" stroke-width="4.5"/><circle cx="303.978" cy="255.712" r="10.837" transform="rotate(90 303.978 255.712)" fill="#fff" stroke="#393939" stroke-width="4.5"/><circle cx="526.022" cy="254.288" r="10.837" transform="rotate(-90 526.022 254.288)" fill="#fff" stroke="#393939" stroke-width="4.5"/><circle cx="151.889" cy="256.877" r="19.917" transform="rotate(45 151.889 256.877)" fill="#393939" stroke="#fff" stroke-width="4.5"/><circle cx="678.111" cy="253.123" r="19.917" transform="rotate(-135 678.111 253.123)" fill="#393939" stroke="#fff" stroke-width="4.5"/><path stroke="#393939" d="M415.05 157.028v35.702M414.95 352.972V317.27M352.435 254.344h-35.702M477.565 255.656h35.702"/><path stroke="#000" d="M370.894 211.897l-71.338-71.339M459.106 298.103l71.338 71.339"/><path stroke="#A5A5A5" d="M370.894 211.897l-71.338-71.339"/><path stroke="#393939" d="M459.106 298.103l71.338 71.339M298.995 372.635l71.899-71.899M531.005 137.365l-71.899 71.899M291.806 254.813H175.272M538.193 255.187h116.535M283.11 145.883l19.971 97.546M546.89 364.117l-19.971-97.546M287.132 366.59l15.447-98.164M542.868 143.41l-15.447 98.164"/><g filter="url(#prefix__filter0_d)"><circle cx="416.021" cy="247.194" r="63.319" transform="rotate(45 416.021 247.194)" fill="#393939"/></g><defs><filter id="prefix__filter0_d" x="324.475" y="157.647" width="183.093" height="191.093" filterUnits="userSpaceOnUse" color-interpolation-filters="sRGB"><feFlood flood-opacity="0" result="BackgroundImageFix"/><feColorMatrix in="SourceAlpha" values="0 0 0 0 0 0 0 0 0 0 0 0 0 0 0 0 0 0 127 0" result="hardAlpha"/><feOffset dy="10"/><feGaussianBlur stdDeviation="1"/><feColorMatrix values="0 0 0 0 0 0 0 0 0 0 0 0 0 0 0 0 0 0 0.25 0"/><feBlend in2="BackgroundImageFix" result="effect1_dropShadow"/><feBlend in="SourceGraphic" in2="effect1_dropShadow" result="shape"/></filter></defs></svg>
