<svg width="830" height="510" viewBox="0 0 830 510" fill="none" xmlns="http://www.w3.org/2000/svg">
<circle cx="284.236" cy="124.531" r="22.1667" transform="rotate(45 284.236 124.531)" fill="#C4C4C4"/>
<circle cx="545.764" cy="385.469" r="22.1667" transform="rotate(-135 545.764 385.469)" fill="#C4C4C4"/>
<circle cx="284.236" cy="124.531" r="19.9167" transform="rotate(45 284.236 124.531)" fill="#484848" stroke="#A5A5A5" stroke-width="4.5"/>
<circle cx="545.764" cy="385.469" r="19.9167" transform="rotate(-135 545.764 385.469)" fill="#484848" stroke="#A5A5A5" stroke-width="4.5"/>
<circle cx="283.675" cy="388.663" r="19.9167" transform="rotate(45 283.675 388.663)" fill="#484848" stroke="#A5A5A5" stroke-width="4.5"/>
<circle cx="546.325" cy="121.337" r="19.9167" transform="rotate(-135 546.325 121.337)" fill="#484848" stroke="#A5A5A5" stroke-width="4.5"/>
<circle cx="415.38" cy="144.56" r="10.8374" transform="rotate(90 415.38 144.56)" fill="white" stroke="#A5A5A5" stroke-width="4.5"/>
<circle cx="414.62" cy="365.44" r="10.8374" transform="rotate(-90 414.62 365.44)" fill="white" stroke="#A5A5A5" stroke-width="4.5"/>
<circle cx="303.978" cy="255.712" r="10.8374" transform="rotate(90 303.978 255.712)" fill="white" stroke="#A5A5A5" stroke-width="4.5"/>
<circle cx="526.022" cy="254.288" r="10.8374" transform="rotate(-90 526.022 254.288)" fill="white" stroke="#A5A5A5" stroke-width="4.5"/>
<circle cx="151.889" cy="256.877" r="19.9167" transform="rotate(45 151.889 256.877)" fill="#484848" stroke="#A5A5A5" stroke-width="4.5"/>
<circle cx="678.111" cy="253.123" r="19.9167" transform="rotate(-135 678.111 253.123)" fill="#484848" stroke="#A5A5A5" stroke-width="4.5"/>
<line x1="415.05" y1="157.028" x2="415.05" y2="192.73" stroke="#A5A5A5"/>
<line x1="414.95" y1="352.972" x2="414.95" y2="317.27" stroke="#A5A5A5"/>
<line y1="-0.5" x2="35.7024" y2="-0.5" transform="matrix(-1 -2.18557e-08 -2.18557e-08 1 352.435 254.844)" stroke="#A5A5A5"/>
<line y1="-0.5" x2="35.7024" y2="-0.5" transform="matrix(1 2.18557e-08 2.18557e-08 -1 477.565 255.156)" stroke="#A5A5A5"/>
<line x1="370.894" y1="211.897" x2="299.556" y2="140.558" stroke="black"/>
<line x1="459.106" y1="298.103" x2="530.444" y2="369.442" stroke="black"/>
<line x1="370.894" y1="211.897" x2="299.556" y2="140.558" stroke="#A5A5A5"/>
<line x1="459.106" y1="298.103" x2="530.444" y2="369.442" stroke="#A5A5A5"/>
<line x1="298.995" y1="372.635" x2="370.894" y2="300.736" stroke="#A5A5A5"/>
<line x1="531.005" y1="137.365" x2="459.106" y2="209.264" stroke="#A5A5A5"/>
<line x1="291.806" y1="254.813" x2="175.272" y2="254.813" stroke="#A5A5A5"/>
<line x1="538.193" y1="255.187" x2="654.728" y2="255.187" stroke="#A5A5A5"/>
<line x1="283.11" y1="145.883" x2="303.081" y2="243.429" stroke="#A5A5A5"/>
<line x1="546.89" y1="364.117" x2="526.919" y2="266.571" stroke="#A5A5A5"/>
<line x1="287.132" y1="366.59" x2="302.579" y2="268.426" stroke="#A5A5A5"/>
<line x1="542.868" y1="143.41" x2="527.421" y2="241.574" stroke="#A5A5A5"/>
<g filter="url(#filter0_d)">
<circle cx="416.021" cy="247.194" r="63.319" transform="rotate(45 416.021 247.194)" fill="#484848"/>
</g>
<defs>
<filter id="filter0_d" x="324.475" y="157.647" width="183.093" height="191.093" filterUnits="userSpaceOnUse" color-interpolation-filters="sRGB">
<feFlood flood-opacity="0" result="BackgroundImageFix"/>
<feColorMatrix in="SourceAlpha" type="matrix" values="0 0 0 0 0 0 0 0 0 0 0 0 0 0 0 0 0 0 127 0"/>
<feOffset dy="10"/>
<feGaussianBlur stdDeviation="1"/>
<feColorMatrix type="matrix" values="0 0 0 0 0 0 0 0 0 0 0 0 0 0 0 0 0 0 0.25 0"/>
<feBlend mode="normal" in2="BackgroundImageFix" result="effect1_dropShadow"/>
<feBlend mode="normal" in="SourceGraphic" in2="effect1_dropShadow" result="shape"/>
</filter>
</defs>
</svg>
