<?xml version="1.0" standalone="no"?><svg xmlns:xlink="http://www.w3.org/1999/xlink" xmlns="http://www.w3.org/2000/svg" viewBox="0 0 500 250" preserveAspectRatio="xMaxYMax slice"><g transform="scale(0.31017369727047145)"><rect x="0" y="0" width="1612" height="806" fill="#fddf48"/><rect x="0" y="0" width="161.2" height="161.2" fill="#fddf48"/><path d="M 0 80.6 A 80.6 80.6 0 0 1 80.6 0 L 80.6 20.15 A 60.449999999999996 60.449999999999996 0 0 0 20.15 80.6" fill="#e0c948"/><path d="M 80.6 0 A 80.6 80.6 0 0 1 161.2 80.6 L 141.04999999999998 80.6 A 60.449999999999996 60.449999999999996 0 0 0 80.6 20.15" fill="#fbd933"/><path d="M 0 80.6 A 80.6 80.6 0 0 0 80.6 161.2 L 80.6 141.04999999999998 A 60.449999999999996 60.449999999999996 0 0 1 20.15 80.6" fill="#fce152"/><path d="M 80.6 161.2 A 80.6 80.6 0 0 0 161.2 80.6 L 141.04999999999998 80.6 A 60.449999999999996 60.449999999999996 0 0 1 80.6 141.04999999999998" fill="#fee985"/><path d="M 161.2 161.2 A 161.2 161.2 0 0 1  322.4 0 L 322.4 161.2" fill="#fee672"/><rect x="322.4" y="0" width="161.2" height="161.2" fill="#fddf48"/><path d="M 322.4 80.6 A 80.6 80.6 0 0 1 403 0 L 403 20.15 A 60.449999999999996 60.449999999999996 0 0 0 342.54999999999995 80.6" fill="#fde154"/><path d="M 403 0 A 80.6 80.6 0 0 1 483.6 80.6 L 463.45 80.6 A 60.449999999999996 60.449999999999996 0 0 0 403 20.15" fill="#fce153"/><path d="M 322.4 80.6 A 80.6 80.6 0 0 0 403 161.2 L 403 141.04999999999998 A 60.449999999999996 60.449999999999996 0 0 1 342.54999999999995 80.6" fill="#e3cb48"/><path d="M 403 161.2 A 80.6 80.6 0 0 0 483.6 80.6 L 463.45 80.6 A 60.449999999999996 60.449999999999996 0 0 1 403 141.04999999999998" fill="#f6f0ae"/><rect x="483.59999999999997" y="0" width="161.2" height="161.2" fill="#fddf48"/><polygon points="483.6,0 564.2,0 483.6,80.6" fill="#b19c37"/><polygon points="564.2,0 644.8000000000001,0 644.8000000000001,80.6" fill="#ead148"/><polygon points="483.6,80.6 564.2,161.2 483.6,161.2" fill="#fad72d"/><polygon points="644.8000000000001,80.6 644.8000000000001,161.2 564.2,161.2" fill="#f9e983"/><path d="M 644.8 0 A 161.2 161.2 0 0 0 806 161.2 L 806 0" fill="#fddf49"/><path d="M 806 0 A 161.2 161.2 0 0 1 967.2 161.2 L 806 161.2" fill="#fce152"/><rect x="967.1999999999999" y="0" width="161.2" height="161.2" fill="#fddf48"/><circle cx="1007.5" cy="40.3" r="40.3" fill="#f9e982"/><rect x="1047.8" y="0" width="80.6" height="80.6" fill="#ab9836"/><circle cx="1007.5" cy="120.89999999999999" r="40.3" fill="#feec92"/><rect x="1047.8" y="80.6" width="80.6" height="80.6" fill="#fbdb39"/><rect x="1128.3999999999999" y="0" width="161.2" height="161.2" fill="#fddf48"/><path d="M 1128.4 0 A 80.6 80.6 0 0 1 1209 80.6 L 1128.4 80.6" fill="#fbd832"/><path d="M 1209 80.6 A 80.6 80.6 0 0 1  1289.6 0 L 1289.6 80.6" fill="#f7ec99"/><path d="M 1128.4 161.2 A 80.6 80.6 0 0 0 1209 80.6 L 1128.4 80.6" fill="#f7d947"/><path d="M 1209 80.6 A 80.6 80.6 0 0 0 1289.6 161.2 L 1289.6 80.6" fill="#feea86"/><rect x="1289.6" y="0" width="161.2" height="161.2" fill="#fddf48"/><path d="M 1289.6 80.6 A 80.6 80.6 0 0 0 1370.1999999999998 0 L 1289.6 0" fill="#f4f3c3"/><path d="M 1370.2 0 A 80.6 80.6 0 0 0 1450.8 80.6 L 1450.8 0" fill="#fddf48"/><path d="M 1289.6 80.6 A 80.6 80.6 0 0 1 1370.1999999999998 161.2 L 1289.6 161.2" fill="#a09847"/><path d="M 1370.2 161.2 A 80.6 80.6 0 0 1  1450.8 80.6 L 1450.8 161.2" fill="#c9b23c"/><rect x="1450.8" y="0" width="161.2" height="161.2" fill="#fddf48"/><path d="M 1450.8 80.6 A 80.6 80.6 0 0 1 1531.3999999999999 0 L 1531.3999999999999 20.15 A 60.449999999999996 60.449999999999996 0 0 0 1470.95 80.6" fill="#f9d526"/><path d="M 1531.4 0 A 80.6 80.6 0 0 1 1612 80.6 L 1591.8500000000001 80.6 A 60.449999999999996 60.449999999999996 0 0 0 1531.4 20.15" fill="#feea8b"/><path d="M 1450.8 80.6 A 80.6 80.6 0 0 0 1531.3999999999999 161.2 L 1531.3999999999999 141.04999999999998 A 60.449999999999996 60.449999999999996 0 0 1 1470.95 80.6" fill="#292619"/><path d="M 1531.4 161.2 A 80.6 80.6 0 0 0 1612 80.6 L 1591.8500000000001 80.6 A 60.449999999999996 60.449999999999996 0 0 1 1531.4 141.04999999999998" fill="#f9d424"/><rect x="0" y="161.2" width="161.2" height="161.2" fill="#f5f1b8"/><path d="M 161.2 322.4 A 161.2 161.2 0 0 1  322.4 161.2 L 161.2 322.4 A 161.2 161.2 0 0 0 322.4 161.2" fill="#aea447"/><rect x="322.4" y="161.2" width="161.2" height="161.2" fill="#fddf48"/><path d="M 322.4 241.79999999999998 A 80.6 80.6 0 0 0 403 161.2 L 322.4 161.2" fill="#af9b37"/><path d="M 403 161.2 A 80.6 80.6 0 0 0 483.6 241.79999999999998 L 483.6 161.2" fill="#fad72b"/><path d="M 322.4 241.8 A 80.6 80.6 0 0 1 403 322.4 L 322.4 322.4" fill="#4e4621"/><path d="M 403 322.4 A 80.6 80.6 0 0 1  483.6 241.8 L 483.6 322.4" fill="#cbb948"/><path d="M 483.6 322.4 A 161.2 161.2 0 0 1  644.8 161.2 L 644.8 322.4" fill="#f5f3bf"/><rect x="644.8" y="161.2" width="161.2" height="161.2" fill="#fddf48"/><path d="M 644.8 241.79999999999998 A 80.6 80.6 0 0 0 725.4 161.2 L 644.8 161.2" fill="#feed98"/><path d="M 725.4 161.2 A 80.6 80.6 0 0 0 806 241.79999999999998 L 806 161.2" fill="#fad628"/><path d="M 644.8 241.8 A 80.6 80.6 0 0 1 725.4 322.4 L 644.8 322.4" fill="#fbe466"/><path d="M 725.4 322.4 A 80.6 80.6 0 0 1  806 241.8 L 806 322.4" fill="#6c6028"/><rect x="806" y="161.2" width="161.2" height="161.2" fill="#fddf48"/><path d="M 806 161.2 A 80.6 80.6 0 0 1 886.6 241.79999999999998 L 806 241.79999999999998" fill="#c5b448"/><path d="M 886.6 241.79999999999998 A 80.6 80.6 0 0 1  967.2 161.2 L 967.2 241.79999999999998" fill="#f9d424"/><path d="M 806 322.4 A 80.6 80.6 0 0 0 886.6 241.8 L 806 241.8" fill="#2c2919"/><path d="M 886.6 241.8 A 80.6 80.6 0 0 0 967.2 322.4 L 967.2 241.8" fill="#938f47"/><rect x="967.1999999999999" y="161.2" width="161.2" height="161.2" fill="#fddf48"/><circle cx="1007.5" cy="201.5" r="40.3" fill="#f8eb90"/><rect x="1047.8" y="161.2" width="80.6" height="80.6" fill="#fae56d"/><circle cx="1007.5" cy="282.1" r="40.3" fill="#e8cf48"/><rect x="1047.8" y="241.8" width="80.6" height="80.6" fill="#fbda38"/><rect x="1128.3999999999999" y="161.2" width="161.2" height="161.2" fill="#fddf48"/><path d="M 1128.4 161.2 A 80.6 80.6 0 0 1 1209 241.79999999999998 L 1128.4 241.79999999999998" fill="#8d8a47"/><path d="M 1209 241.79999999999998 A 80.6 80.6 0 0 1  1289.6 161.2 L 1289.6 241.79999999999998" fill="#f6efa7"/><path d="M 1128.4 322.4 A 80.6 80.6 0 0 0 1209 241.8 L 1128.4 241.8" fill="#fce156"/><path d="M 1209 241.8 A 80.6 80.6 0 0 0 1289.6 322.4 L 1289.6 241.8" fill="#fce25a"/><rect x="1289.6" y="161.2" width="161.2" height="161.2" fill="#fddf48"/><path d="M 1289.6 241.79999999999998 A 80.6 80.6 0 0 1 1370.1999999999998 161.2 L 1370.1999999999998 181.35 A 60.449999999999996 60.449999999999996 0 0 0 1309.75 241.79999999999998" fill="#f9d525"/><path d="M 1370.2 161.2 A 80.6 80.6 0 0 1 1450.8 241.79999999999998 L 1430.65 241.79999999999998 A 60.449999999999996 60.449999999999996 0 0 0 1370.2 181.35" fill="#d9bf40"/><path d="M 1289.6 241.8 A 80.6 80.6 0 0 0 1370.1999999999998 322.4 L 1370.1999999999998 302.25 A 60.449999999999996 60.449999999999996 0 0 1 1309.75 241.8" fill="#feea88"/><path d="M 1370.2 322.4 A 80.6 80.6 0 0 0 1450.8 241.8 L 1430.65 241.8 A 60.449999999999996 60.449999999999996 0 0 1 1370.2 302.25" fill="#9e9747"/><path d="M 1450.8 322.4 A 161.2 161.2 0 0 1  1612 161.2 L 1612 322.4" fill="#fee87d"/><rect x="0" y="322.4" width="161.2" height="161.2" fill="#9c9547"/><rect x="161.2" y="322.4" width="161.2" height="161.2" fill="#fddf48"/><path d="M 161.2 403 A 80.6 80.6 0 0 1 241.79999999999998 322.4 L 241.79999999999998 342.54999999999995 A 60.449999999999996 60.449999999999996 0 0 0 181.35 403" fill="#fde465"/><path d="M 241.8 322.4 A 80.6 80.6 0 0 1 322.4 403 L 302.25 403 A 60.449999999999996 60.449999999999996 0 0 0 241.8 342.54999999999995" fill="#f4f3c3"/><path d="M 161.2 403 A 80.6 80.6 0 0 0 241.79999999999998 483.6 L 241.79999999999998 463.45 A 60.449999999999996 60.449999999999996 0 0 1 181.35 403" fill="#fde463"/><path d="M 241.8 483.6 A 80.6 80.6 0 0 0 322.4 403 L 302.25 403 A 60.449999999999996 60.449999999999996 0 0 1 241.8 463.45" fill="#f9dc47"/><rect x="322.4" y="322.4" width="161.2" height="161.2" fill="#fddf48"/><polygon points="322.4,322.4 403,322.4 322.4,403" fill="#f2d648"/><polygon points="403,322.4 483.6,322.4 483.6,403" fill="#feec93"/><polygon points="322.4,403 403,483.6 322.4,483.6" fill="#fbd832"/><polygon points="483.6,403 483.6,483.6 403,483.6" fill="#bda73a"/><path d="M 483.6 322.4 A 161.2 161.2 0 0 0 644.8 483.59999999999997 L 644.8 322.4" fill="#fcdc3d"/><path d="M 644.8 483.59999999999997 A 161.2 161.2 0 0 1  806 322.4 L 806 483.59999999999997" fill="#f5f3c0"/><rect x="806" y="322.4" width="161.2" height="161.2" fill="#fddf48"/><polygon points="806,322.4 886.6,322.4 806,403" fill="#fde154"/><polygon points="886.6,322.4 967.2,322.4 967.2,403" fill="#bba539"/><polygon points="806,403 886.6,483.6 806,483.6" fill="#f7ed9f"/><polygon points="967.2,403 967.2,483.6 886.6,483.6" fill="#f7ec98"/><rect x="967.1999999999999" y="322.4" width="161.2" height="161.2" fill="#fddf48"/><path d="M 967.2 403 A 80.6 80.6 0 0 1  1047.8 322.4 L 1047.8 403" fill="#7c6e2b"/><path d="M 1047.8 322.4 A 80.6 80.6 0 0 1 1128.3999999999999 403 L 1047.8 403" fill="#585023"/><path d="M 967.2 403 A 80.6 80.6 0 0 0 1047.8 483.6 L 1047.8 403" fill="#f8eb91"/><path d="M 1047.8 483.6 A 80.6 80.6 0 0 0 1128.3999999999999 403 L 1047.8 403" fill="#fad62a"/><polygon points="1289.6000000000001,322.4 1289.6000000000001,483.59999999999997 1128.4,483.59999999999997" fill="#726629"/><rect x="1289.6" y="322.4" width="161.2" height="161.2" fill="#fde04b"/><rect x="1450.8" y="322.4" width="161.2" height="161.2" fill="#fddf48"/><polygon points="1450.8,322.4 1531.3999999999999,322.4 1450.8,403" fill="#fbda37"/><polygon points="1531.4,322.4 1612,322.4 1612,403" fill="#bfb047"/><polygon points="1531.3999999999999,403 1531.3999999999999,483.6 1450.8,483.6" fill="#fad830"/><polygon points="1531.4,403 1612,483.6 1531.4,483.6" fill="#76692a"/><rect x="0" y="483.59999999999997" width="161.2" height="161.2" fill="#fddf48"/><polygon points="0,483.6 80.6,483.6 0,564.2" fill="#fee87c"/><polygon points="80.6,483.6 161.2,483.6 161.2,564.2" fill="#f6eea5"/><polygon points="80.6,564.2 80.6,644.8000000000001 0,644.8000000000001" fill="#f4f3c1"/><polygon points="80.6,564.2 161.2,644.8000000000001 80.6,644.8000000000001" fill="#8e8b47"/><path d="M 161.2 483.6 A 161.2 161.2 0 0 0 322.4 644.8 L 322.4 483.6" fill="#e1ca48"/><rect x="322.4" y="483.59999999999997" width="161.2" height="161.2" fill="#fddf48"/><path d="M 322.4 483.6 A 80.6 80.6 0 0 1 403 564.2 L 322.4 564.2" fill="#feec92"/><path d="M 403 564.2 A 80.6 80.6 0 0 1  483.6 483.6 L 483.6 564.2" fill="#fde66e"/><path d="M 322.4 644.8000000000001 A 80.6 80.6 0 0 0 403 564.2 L 322.4 564.2" fill="#fde04b"/><path d="M 403 564.2 A 80.6 80.6 0 0 0 483.6 644.8000000000001 L 483.6 564.2" fill="#f7ed9d"/><rect x="483.59999999999997" y="483.59999999999997" width="161.2" height="161.2" fill="#fddf48"/><path d="M 483.6 564.2 A 80.6 80.6 0 0 1  564.2 483.6 L 564.2 564.2" fill="#fde25a"/><path d="M 564.2 483.6 A 80.6 80.6 0 0 1 644.8000000000001 564.2 L 564.2 564.2" fill="#f5f1b7"/><path d="M 483.6 564.2 A 80.6 80.6 0 0 0 564.2 644.8000000000001 L 564.2 564.2" fill="#564e23"/><path d="M 564.2 644.8000000000001 A 80.6 80.6 0 0 0 644.8000000000001 564.2 L 564.2 564.2" fill="#f4f4c7"/><rect x="644.8" y="483.59999999999997" width="161.2" height="161.2" fill="#fddf48"/><polygon points="644.8,483.6 725.4,483.6 644.8,564.2" fill="#f9d527"/><polygon points="806,483.6 806,564.2 725.4,564.2" fill="#998832"/><polygon points="644.8,564.2 725.4,564.2 725.4,644.8000000000001" fill="#c6af3c"/><polygon points="725.4,564.2 806,644.8000000000001 725.4,644.8000000000001" fill="#fde153"/><rect x="806" y="483.6" width="161.2" height="161.2" fill="#c4b448"/><rect x="967.2" y="483.6" width="161.2" height="161.2" fill="#f4d848"/><rect x="1128.3999999999999" y="483.59999999999997" width="161.2" height="161.2" fill="#fddf48"/><path d="M 1128.4 483.6 A 80.6 80.6 0 0 1 1209 564.2 L 1128.4 564.2" fill="#fad72e"/><path d="M 1209 564.2 A 80.6 80.6 0 0 1  1289.6 483.6 L 1289.6 564.2" fill="#f5f2bb"/><path d="M 1128.4 644.8000000000001 A 80.6 80.6 0 0 0 1209 564.2 L 1128.4 564.2" fill="#fddf48"/><path d="M 1209 564.2 A 80.6 80.6 0 0 0 1289.6 644.8000000000001 L 1289.6 564.2" fill="#f5d846"/><rect x="1289.6" y="483.59999999999997" width="161.2" height="161.2" fill="#fddf48"/><path d="M 1289.6 483.6 A 80.6 80.6 0 0 0 1370.1999999999998 564.2 L 1370.1999999999998 483.6" fill="#fee984"/><path d="M 1370.2 564.2 A 80.6 80.6 0 0 0 1450.8 483.6 L 1370.2 483.6" fill="#2e2b1a"/><path d="M 1289.6 644.8000000000001 A 80.6 80.6 0 0 1  1370.1999999999998 564.2 L 1370.1999999999998 644.8000000000001" fill="#8a8847"/><path d="M 1370.2 564.2 A 80.6 80.6 0 0 1 1450.8 644.8000000000001 L 1370.2 644.8000000000001" fill="#f9d527"/><rect x="1450.8" y="483.59999999999997" width="161.2" height="161.2" fill="#fddf48"/><circle cx="1491.1" cy="523.9" r="40.3" fill="#f5f2b9"/><rect x="1531.4" y="483.6" width="80.6" height="80.6" fill="#fbda38"/><circle cx="1491.1" cy="604.5" r="40.3" fill="#fbd934"/><rect x="1531.4" y="564.2" width="80.6" height="80.6" fill="#8f7f2f"/><rect x="0" y="644.8" width="161.2" height="161.2" fill="#fddf48"/><polygon points="0,644.8 80.6,644.8 0,725.4" fill="#d4c048"/><polygon points="80.6,644.8 161.2,644.8 161.2,725.4" fill="#f8dc48"/><polygon points="0,725.4 80.6,806 0,806" fill="#fad72f"/><polygon points="161.2,725.4 161.2,806 80.6,806" fill="#fce25c"/><polygon points="161.2,644.8 322.4,806 161.2,806" fill="#f9d528"/><rect x="322.4" y="644.8" width="161.2" height="161.2" fill="#fddf48"/><path d="M 322.4 725.4 A 80.6 80.6 0 0 0 403 644.8 L 322.4 644.8" fill="#cfbc48"/><path d="M 403 644.8 A 80.6 80.6 0 0 0 483.6 725.4 L 483.6 644.8" fill="#f5f1b6"/><path d="M 322.4 725.4 A 80.6 80.6 0 0 1 403 806 L 322.4 806" fill="#cbb948"/><path d="M 403 806 A 80.6 80.6 0 0 1  483.6 725.4 L 483.6 806" fill="#7c6e2b"/><polygon points="483.6,644.8 644.8,644.8 644.8,806" fill="#fde56d"/><rect x="644.8" y="644.8" width="161.2" height="161.2" fill="#fddf48"/><path d="M 644.8 644.8 A 80.6 80.6 0 0 0 725.4 725.4 L 725.4 644.8" fill="#c4b448"/><path d="M 725.4 725.4 A 80.6 80.6 0 0 0 806 644.8 L 725.4 644.8" fill="#fcdd41"/><path d="M 644.8 806 A 80.6 80.6 0 0 1  725.4 725.4 L 725.4 806" fill="#fbd935"/><path d="M 725.4 725.4 A 80.6 80.6 0 0 1 806 806 L 725.4 806" fill="#fcdc3e"/><polygon points="806,644.8 967.2,806 806,806" fill="#9a8932"/><rect x="967.1999999999999" y="644.8" width="161.2" height="161.2" fill="#fddf48"/><path d="M 967.2 644.8 A 80.6 80.6 0 0 1 1047.8 725.4 L 967.2 725.4" fill="#fee982"/><path d="M 1047.8 725.4 A 80.6 80.6 0 0 1  1128.3999999999999 644.8 L 1128.3999999999999 725.4" fill="#fad72c"/><path d="M 967.2 806 A 80.6 80.6 0 0 0 1047.8 725.4 L 967.2 725.4" fill="#908030"/><path d="M 1047.8 725.4 A 80.6 80.6 0 0 0 1128.3999999999999 806 L 1128.3999999999999 725.4" fill="#fddf48"/><rect x="1128.4" y="644.8" width="161.2" height="161.2" fill="#f4f4c7"/><rect x="1289.6" y="644.8" width="161.2" height="161.2" fill="#fddf48"/><polygon points="1289.6,644.8 1370.1999999999998,644.8 1289.6,725.4" fill="#a69d47"/><polygon points="1370.2,644.8 1450.8,644.8 1450.8,725.4" fill="#b8ab47"/><polygon points="1370.1999999999998,725.4 1370.1999999999998,806 1289.6,806" fill="#f7ed9f"/><polygon points="1370.2,725.4 1450.8,806 1370.2,806" fill="#fbd935"/><path d="M 1450.8 644.8 A 161.2 161.2 0 0 1 1612 806 L 1450.8 806" fill="#fde35e"/></g></svg>