<?xml version="1.0" standalone="no"?><svg xmlns:xlink="http://www.w3.org/1999/xlink" xmlns="http://www.w3.org/2000/svg" viewBox="0 0 100 36.36363636363636" preserveAspectRatio="xMaxYMax slice"><g transform="scale(0.04797313504437515)"><rect x="0" y="0" width="2084.5" height="758" fill="#141414"/><rect x="0" y="0" width="94.75" height="94.75" fill="#F9D423"/><rect x="0" y="0" width="94.75" height="94.75" fill="#141414"/><rect x="94.75" y="0" width="94.75" height="94.75" fill="#F4F4C8"/><rect x="94.75" y="0" width="94.75" height="94.75" fill="#F4F4C8"/><rect x="189.5" y="0" width="94.75" height="94.75" fill="#141414"/><rect x="189.5" y="0" width="47.38" height="47.38" fill="#141414"/><path d="M 189.5 47.38 A 47.38 47.38 0 0 1  236.88 0 L 236.88 47.38" fill="#141414"/><rect x="236.88" y="0" width="47.38" height="47.38" fill="#8A8847"/><path d="M 236.88 0 A 47.38 47.38 0 0 1 284.26 47.38 L 236.88 47.38" fill="#8A8847"/><rect x="189.5" y="47.38" width="47.38" height="47.38" fill="#8A8847"/><path d="M 189.5 47.38 A 47.38 47.38 0 0 0 236.88 94.76 L 236.88 47.38" fill="#8A8847"/><rect x="236.88" y="47.38" width="47.38" height="47.38" fill="#8A8847"/><path d="M 236.88 94.76 A 47.38 47.38 0 0 0 284.26 47.38 L 236.88 47.38" fill="#F4F4C8"/><rect x="284.25" y="0" width="94.75" height="94.75" fill="#141414"/><polygon points="284.25,0 379,0 284.25,94.75" fill="#F9D423"/><rect x="379" y="0" width="94.75" height="94.75" fill="#F4F4C8"/><path d="M 379 94.75 A 94.75 94.75 0 0 1  473.75 0 L 473.75 94.75" fill="#F9D423"/><rect x="473.75" y="0" width="94.75" height="94.75" fill="#141414"/><rect x="473.75" y="0" width="47.38" height="47.38" fill="#F4F4C8"/><path d="M 473.75 47.38 A 47.38 47.38 0 0 0 521.13 0 L 473.75 0" fill="#8A8847"/><rect x="521.13" y="0" width="47.38" height="47.38" fill="#8A8847"/><path d="M 521.13 0 A 47.38 47.38 0 0 0 568.51 47.38 L 568.51 0" fill="#141414"/><rect x="473.75" y="47.38" width="47.38" height="47.38" fill="#F4F4C8"/><path d="M 473.75 47.38 A 47.38 47.38 0 0 1 521.13 94.76 L 473.75 94.76" fill="#8A8847"/><rect x="521.13" y="47.38" width="47.38" height="47.38" fill="#141414"/><path d="M 521.13 94.76 A 47.38 47.38 0 0 1  568.51 47.38 L 568.51 94.76" fill="#8A8847"/><rect x="568.5" y="0" width="94.75" height="94.75" fill="#141414"/><rect x="568.5" y="0" width="94.75" height="94.75" fill="#F4F4C8"/><rect x="663.25" y="0" width="94.75" height="94.75" fill="#141414"/><rect x="663.25" y="0" width="47.38" height="47.38" fill="#8A8847"/><path d="M 663.25 0 A 47.38 47.38 0 0 0 710.63 47.38 L 710.63 0" fill="#F4F4C8"/><rect x="710.63" y="0" width="47.38" height="47.38" fill="#F4F4C8"/><path d="M 710.63 47.38 A 47.38 47.38 0 0 0 758.01 0 L 710.63 0" fill="#141414"/><rect x="663.25" y="47.38" width="47.38" height="47.38" fill="#F4F4C8"/><path d="M 663.25 94.76 A 47.38 47.38 0 0 1  710.63 47.38 L 710.63 94.76" fill="#F9D423"/><rect x="710.63" y="47.38" width="47.38" height="47.38" fill="#F9D423"/><path d="M 710.63 47.38 A 47.38 47.38 0 0 1 758.01 94.76 L 710.63 94.76" fill="#8A8847"/><rect x="758" y="0" width="94.75" height="94.75" fill="#F9D423"/><polygon points="852.75,0 852.75,94.75 758,94.75" fill="#F9D423"/><rect x="852.75" y="0" width="94.75" height="94.75" fill="#141414"/><rect x="852.75" y="0" width="47.38" height="47.38" fill="#141414"/><path d="M 852.75 0 A 47.38 47.38 0 0 1 900.13 47.38 L 852.75 47.38" fill="#8A8847"/><rect x="900.13" y="0" width="47.38" height="47.38" fill="#F9D423"/><path d="M 900.13 47.38 A 47.38 47.38 0 0 1  947.51 0 L 947.51 47.38" fill="#F4F4C8"/><rect x="852.75" y="47.38" width="47.38" height="47.38" fill="#F9D423"/><path d="M 852.75 94.76 A 47.38 47.38 0 0 0 900.13 47.38 L 852.75 47.38" fill="#F9D423"/><rect x="900.13" y="47.38" width="47.38" height="47.38" fill="#F4F4C8"/><path d="M 900.13 47.38 A 47.38 47.38 0 0 0 947.51 94.76 L 947.51 47.38" fill="#8A8847"/><rect x="947.5" y="0" width="94.75" height="94.75" fill="#141414"/><rect x="947.5" y="0" width="47.38" height="47.38" fill="#F9D423"/><path d="M 947.5 47.38 A 47.38 47.38 0 0 0 994.88 0 L 947.5 0" fill="#F4F4C8"/><rect x="994.88" y="0" width="47.38" height="47.38" fill="#F9D423"/><path d="M 994.88 0 A 47.38 47.38 0 0 0 1042.26 47.38 L 1042.26 0" fill="#F4F4C8"/><rect x="947.5" y="47.38" width="47.38" height="47.38" fill="#8A8847"/><path d="M 947.5 47.38 A 47.38 47.38 0 0 1 994.88 94.76 L 947.5 94.76" fill="#F4F4C8"/><rect x="994.88" y="47.38" width="47.38" height="47.38" fill="#8A8847"/><path d="M 994.88 94.76 A 47.38 47.38 0 0 1  1042.26 47.38 L 1042.26 94.76" fill="#F9D423"/><rect x="1042.25" y="0" width="94.75" height="94.75" fill="#141414"/><rect x="1042.25" y="0" width="47.38" height="47.38" fill="#F4F4C8"/><polygon points="1042.25,0 1089.63,0 1042.25,47.38" fill="#141414"/><rect x="1089.63" y="0" width="47.38" height="47.38" fill="#F4F4C8"/><polygon points="1137.0100000000002,0 1137.0100000000002,47.38 1089.63,47.38" fill="#F9D423"/><rect x="1042.25" y="47.38" width="47.38" height="47.38" fill="#8A8847"/><polygon points="1042.25,47.38 1089.63,47.38 1089.63,94.76" fill="#8A8847"/><rect x="1089.63" y="47.38" width="47.38" height="47.38" fill="#8A8847"/><polygon points="1089.63,47.38 1137.0100000000002,94.76 1089.63,94.76" fill="#8A8847"/><rect x="1137" y="0" width="94.75" height="94.75" fill="#141414"/><rect x="1137" y="0" width="47.38" height="47.38" fill="#F9D423"/><path d="M 1137 0 A 47.38 47.38 0 0 1 1184.38 47.38 L 1137 47.38" fill="#8A8847"/><rect x="1184.38" y="0" width="47.38" height="47.38" fill="#141414"/><path d="M 1184.38 47.38 A 47.38 47.38 0 0 1  1231.7600000000002 0 L 1231.7600000000002 47.38" fill="#8A8847"/><rect x="1137" y="47.38" width="47.38" height="47.38" fill="#F9D423"/><path d="M 1137 94.76 A 47.38 47.38 0 0 0 1184.38 47.38 L 1137 47.38" fill="#141414"/><rect x="1184.38" y="47.38" width="47.38" height="47.38" fill="#F9D423"/><path d="M 1184.38 47.38 A 47.38 47.38 0 0 0 1231.7600000000002 94.76 L 1231.7600000000002 47.38" fill="#8A8847"/><rect x="1231.75" y="0" width="94.75" height="94.75" fill="#141414"/><rect x="1231.75" y="0" width="47.38" height="47.38" fill="#8A8847"/><polygon points="1231.75,0 1279.13,0 1231.75,47.38" fill="#141414"/><rect x="1279.13" y="0" width="47.38" height="47.38" fill="#F4F4C8"/><polygon points="1326.5100000000002,0 1326.5100000000002,47.38 1279.13,47.38" fill="#F9D423"/><rect x="1231.75" y="47.38" width="47.38" height="47.38" fill="#8A8847"/><polygon points="1231.75,47.38 1279.13,47.38 1279.13,94.76" fill="#F4F4C8"/><rect x="1279.13" y="47.38" width="47.38" height="47.38" fill="#F9D423"/><polygon points="1279.13,47.38 1326.5100000000002,94.76 1279.13,94.76" fill="#F4F4C8"/><rect x="1326.5" y="0" width="94.75" height="94.75" fill="#141414"/><polygon points="1326.5,0 1421.25,0 1326.5,94.75" fill="#F4F4C8"/><rect x="1421.25" y="0" width="94.75" height="94.75" fill="#F9D423"/><polygon points="1421.25,0 1516,94.75 1421.25,94.75" fill="#F4F4C8"/><rect x="1516" y="0" width="94.75" height="94.75" fill="#141414"/><rect x="1516" y="0" width="47.38" height="47.38" fill="#F9D423"/><path d="M 1516 47.38 A 47.38 47.38 0 0 1 1563.38 0 L 1563.38 11.845 A 35.535000000000004 35.535000000000004 0 0 0 1527.845 47.38" fill="#F9D423"/><rect x="1563.38" y="0" width="47.38" height="47.38" fill="#F9D423"/><path d="M 1563.38 0 A 47.38 47.38 0 0 1 1610.7600000000002 47.38 L 1598.9150000000002 47.38 A 35.535000000000004 35.535000000000004 0 0 0 1563.38 11.845" fill="#8A8847"/><rect x="1516" y="47.38" width="47.38" height="47.38" fill="#8A8847"/><path d="M 1516 47.38 A 47.38 47.38 0 0 0 1563.38 94.76 L 1563.38 82.915 A 35.535000000000004 35.535000000000004 0 0 1 1527.845 47.38" fill="#8A8847"/><rect x="1563.38" y="47.38" width="47.38" height="47.38" fill="#8A8847"/><path d="M 1563.38 94.76 A 47.38 47.38 0 0 0 1610.7600000000002 47.38 L 1598.9150000000002 47.38 A 35.535000000000004 35.535000000000004 0 0 1 1563.38 82.915" fill="#141414"/><rect x="1610.75" y="0" width="94.75" height="94.75" fill="#F9D423"/><rect x="1610.75" y="0" width="94.75" height="94.75" fill="#8A8847"/><rect x="1705.5" y="0" width="94.75" height="94.75" fill="#141414"/><rect x="1705.5" y="0" width="47.38" height="47.38" fill="#8A8847"/><path d="M 1705.5 47.38 A 47.38 47.38 0 0 1 1752.88 0 L 1752.88 11.845 A 35.535000000000004 35.535000000000004 0 0 0 1717.345 47.38" fill="#8A8847"/><rect x="1752.88" y="0" width="47.38" height="47.38" fill="#8A8847"/><path d="M 1752.88 0 A 47.38 47.38 0 0 1 1800.2600000000002 47.38 L 1788.4150000000002 47.38 A 35.535000000000004 35.535000000000004 0 0 0 1752.88 11.845" fill="#F9D423"/><rect x="1705.5" y="47.38" width="47.38" height="47.38" fill="#F4F4C8"/><path d="M 1705.5 47.38 A 47.38 47.38 0 0 0 1752.88 94.76 L 1752.88 82.915 A 35.535000000000004 35.535000000000004 0 0 1 1717.345 47.38" fill="#8A8847"/><rect x="1752.88" y="47.38" width="47.38" height="47.38" fill="#F4F4C8"/><path d="M 1752.88 94.76 A 47.38 47.38 0 0 0 1800.2600000000002 47.38 L 1788.4150000000002 47.38 A 35.535000000000004 35.535000000000004 0 0 1 1752.88 82.915" fill="#141414"/><rect x="1800.25" y="0" width="94.75" height="94.75" fill="#141414"/><polygon points="1800.25,0 1895,0 1895,94.75" fill="#8A8847"/><rect x="1895" y="0" width="94.75" height="94.75" fill="#141414"/><rect x="1895" y="0" width="47.38" height="47.38" fill="#F4F4C8"/><polygon points="1895,0 1942.38,0 1895,47.38" fill="#141414"/><rect x="1942.38" y="0" width="47.38" height="47.38" fill="#F9D423"/><polygon points="1942.38,0 1989.7600000000002,0 1989.7600000000002,47.38" fill="#F9D423"/><rect x="1895" y="47.38" width="47.38" height="47.38" fill="#F9D423"/><polygon points="1942.38,47.38 1942.38,94.76 1895,94.76" fill="#141414"/><rect x="1942.38" y="47.38" width="47.38" height="47.38" fill="#F9D423"/><polygon points="1942.38,47.38 1989.7600000000002,94.76 1942.38,94.76" fill="#8A8847"/><rect x="1989.75" y="0" width="94.75" height="94.75" fill="#F9D423"/><rect x="1989.75" y="0" width="94.75" height="94.75" fill="#8A8847"/><rect x="0" y="94.75" width="94.75" height="94.75" fill="#F4F4C8"/><path d="M 0 189.5 A 94.75 94.75 0 0 1  94.75 94.75 L 94.75 189.5" fill="#F9D423"/><rect x="94.75" y="94.75" width="94.75" height="94.75" fill="#141414"/><rect x="94.75" y="94.75" width="47.38" height="47.38" fill="#141414"/><path d="M 94.75 142.13 A 47.38 47.38 0 0 0 142.13 94.75 L 94.75 94.75" fill="#141414"/><rect x="142.13" y="94.75" width="47.38" height="47.38" fill="#F9D423"/><path d="M 142.13 94.75 A 47.38 47.38 0 0 0 189.51 142.13 L 189.51 94.75" fill="#F9D423"/><rect x="94.75" y="142.13" width="47.38" height="47.38" fill="#F4F4C8"/><path d="M 94.75 142.13 A 47.38 47.38 0 0 1 142.13 189.51 L 94.75 189.51" fill="#8A8847"/><rect x="142.13" y="142.13" width="47.38" height="47.38" fill="#F9D423"/><path d="M 142.13 189.51 A 47.38 47.38 0 0 1  189.51 142.13 L 189.51 189.51" fill="#F9D423"/><rect x="189.5" y="94.75" width="94.75" height="94.75" fill="#141414"/><polygon points="189.5,94.75 284.25,94.75 284.25,189.5" fill="#F4F4C8"/><rect x="284.25" y="94.75" width="94.75" height="94.75" fill="#141414"/><rect x="284.25" y="94.75" width="47.38" height="47.38" fill="#8A8847"/><path d="M 284.25 142.13 A 47.38 47.38 0 0 1 331.63 94.75 L 331.63 106.595 A 35.535000000000004 35.535000000000004 0 0 0 296.095 142.13" fill="#8A8847"/><rect x="331.63" y="94.75" width="47.38" height="47.38" fill="#8A8847"/><path d="M 331.63 94.75 A 47.38 47.38 0 0 1 379.01 142.13 L 367.165 142.13 A 35.535000000000004 35.535000000000004 0 0 0 331.63 106.595" fill="#F9D423"/><rect x="284.25" y="142.13" width="47.38" height="47.38" fill="#F4F4C8"/><path d="M 284.25 142.13 A 47.38 47.38 0 0 0 331.63 189.51 L 331.63 177.665 A 35.535000000000004 35.535000000000004 0 0 1 296.095 142.13" fill="#F4F4C8"/><rect x="331.63" y="142.13" width="47.38" height="47.38" fill="#F9D423"/><path d="M 331.63 189.51 A 47.38 47.38 0 0 0 379.01 142.13 L 367.165 142.13 A 35.535000000000004 35.535000000000004 0 0 1 331.63 177.665" fill="#F9D423"/><rect x="379" y="94.75" width="94.75" height="94.75" fill="#141414"/><rect x="379" y="94.75" width="47.38" height="47.38" fill="#141414"/><path d="M 379 94.75 A 47.38 47.38 0 0 1 426.38 142.13 L 379 142.13" fill="#F9D423"/><rect x="426.38" y="94.75" width="47.38" height="47.38" fill="#141414"/><path d="M 426.38 142.13 A 47.38 47.38 0 0 1  473.76 94.75 L 473.76 142.13" fill="#8A8847"/><rect x="379" y="142.13" width="47.38" height="47.38" fill="#F4F4C8"/><path d="M 379 189.51 A 47.38 47.38 0 0 0 426.38 142.13 L 379 142.13" fill="#8A8847"/><rect x="426.38" y="142.13" width="47.38" height="47.38" fill="#F4F4C8"/><path d="M 426.38 142.13 A 47.38 47.38 0 0 0 473.76 189.51 L 473.76 142.13" fill="#F9D423"/><rect x="473.75" y="94.75" width="94.75" height="94.75" fill="#141414"/><rect x="473.75" y="94.75" width="47.38" height="47.38" fill="#F9D423"/><polygon points="473.75,94.75 521.13,94.75 473.75,142.13" fill="#F4F4C8"/><rect x="521.13" y="94.75" width="47.38" height="47.38" fill="#8A8847"/><polygon points="521.13,94.75 568.51,94.75 568.51,142.13" fill="#8A8847"/><rect x="473.75" y="142.13" width="47.38" height="47.38" fill="#8A8847"/><polygon points="521.13,142.13 521.13,189.51 473.75,189.51" fill="#F4F4C8"/><rect x="521.13" y="142.13" width="47.38" height="47.38" fill="#F9D423"/><polygon points="521.13,142.13 568.51,189.51 521.13,189.51" fill="#F4F4C8"/><rect x="568.5" y="94.75" width="94.75" height="94.75" fill="#141414"/><rect x="568.5" y="94.75" width="47.38" height="47.38" fill="#F4F4C8"/><polygon points="568.5,94.75 615.88,94.75 568.5,142.13" fill="#F4F4C8"/><rect x="615.88" y="94.75" width="47.38" height="47.38" fill="#F4F4C8"/><polygon points="663.26,94.75 663.26,142.13 615.88,142.13" fill="#141414"/><rect x="568.5" y="142.13" width="47.38" height="47.38" fill="#F4F4C8"/><polygon points="568.5,142.13 615.88,142.13 615.88,189.51" fill="#F9D423"/><rect x="615.88" y="142.13" width="47.38" height="47.38" fill="#F4F4C8"/><polygon points="615.88,142.13 663.26,189.51 615.88,189.51" fill="#F4F4C8"/><rect x="663.25" y="94.75" width="94.75" height="94.75" fill="#F4F4C8"/><polygon points="663.25,94.75 758,94.75 663.25,189.5" fill="#8A8847"/><rect x="758" y="94.75" width="94.75" height="94.75" fill="#141414"/><rect x="758" y="94.75" width="47.38" height="47.38" fill="#F4F4C8"/><path d="M 758 142.13 A 47.38 47.38 0 0 1  805.38 94.75 L 805.38 142.13" fill="#8A8847"/><rect x="805.38" y="94.75" width="47.38" height="47.38" fill="#141414"/><path d="M 805.38 94.75 A 47.38 47.38 0 0 1 852.76 142.13 L 805.38 142.13" fill="#8A8847"/><rect x="758" y="142.13" width="47.38" height="47.38" fill="#141414"/><path d="M 758 142.13 A 47.38 47.38 0 0 0 805.38 189.51 L 805.38 142.13" fill="#F9D423"/><rect x="805.38" y="142.13" width="47.38" height="47.38" fill="#8A8847"/><path d="M 805.38 189.51 A 47.38 47.38 0 0 0 852.76 142.13 L 805.38 142.13" fill="#141414"/><rect x="852.75" y="94.75" width="94.75" height="94.75" fill="#141414"/><rect x="852.75" y="94.75" width="47.38" height="47.38" fill="#141414"/><path d="M 852.75 94.75 A 47.38 47.38 0 0 0 900.13 142.13 L 900.13 94.75" fill="#141414"/><rect x="900.13" y="94.75" width="47.38" height="47.38" fill="#F4F4C8"/><path d="M 900.13 142.13 A 47.38 47.38 0 0 0 947.51 94.75 L 900.13 94.75" fill="#F4F4C8"/><rect x="852.75" y="142.13" width="47.38" height="47.38" fill="#F9D423"/><path d="M 852.75 189.51 A 47.38 47.38 0 0 1  900.13 142.13 L 900.13 189.51" fill="#141414"/><rect x="900.13" y="142.13" width="47.38" height="47.38" fill="#8A8847"/><path d="M 900.13 142.13 A 47.38 47.38 0 0 1 947.51 189.51 L 900.13 189.51" fill="#F4F4C8"/><rect x="947.5" y="94.75" width="94.75" height="94.75" fill="#141414"/><rect x="947.5" y="94.75" width="47.38" height="47.38" fill="#F4F4C8"/><path d="M 947.5 142.13 A 47.38 47.38 0 0 1  994.88 94.75 L 994.88 142.13" fill="#141414"/><rect x="994.88" y="94.75" width="47.38" height="47.38" fill="#8A8847"/><path d="M 994.88 94.75 A 47.38 47.38 0 0 1 1042.26 142.13 L 994.88 142.13" fill="#141414"/><rect x="947.5" y="142.13" width="47.38" height="47.38" fill="#8A8847"/><path d="M 947.5 142.13 A 47.38 47.38 0 0 0 994.88 189.51 L 994.88 142.13" fill="#F9D423"/><rect x="994.88" y="142.13" width="47.38" height="47.38" fill="#141414"/><path d="M 994.88 189.51 A 47.38 47.38 0 0 0 1042.26 142.13 L 994.88 142.13" fill="#141414"/><rect x="1042.25" y="94.75" width="94.75" height="94.75" fill="#F9D423"/><polygon points="1042.25,94.75 1137,94.75 1137,189.5" fill="#8A8847"/><rect x="1137" y="94.75" width="94.75" height="94.75" fill="#141414"/><polygon points="1137,94.75 1231.75,94.75 1231.75,189.5" fill="#F9D423"/><rect x="1231.75" y="94.75" width="94.75" height="94.75" fill="#141414"/><rect x="1231.75" y="94.75" width="47.38" height="47.38" fill="#F4F4C8"/><circle cx="1255.44" cy="118.44" r="23.69" fill="#F4F4C8"/><rect x="1279.13" y="94.75" width="47.38" height="47.38" fill="#141414"/><rect x="1279.13" y="94.75" width="47.38" height="47.38" fill="#F9D423"/><rect x="1231.75" y="142.13" width="47.38" height="47.38" fill="#8A8847"/><circle cx="1255.44" cy="165.82" r="23.69" fill="#F9D423"/><rect x="1279.13" y="142.13" width="47.38" height="47.38" fill="#F9D423"/><rect x="1279.13" y="142.13" width="47.38" height="47.38" fill="#8A8847"/><rect x="1326.5" y="94.75" width="94.75" height="94.75" fill="#141414"/><rect x="1326.5" y="94.75" width="47.38" height="47.38" fill="#F9D423"/><path d="M 1326.5 142.13 A 47.38 47.38 0 0 0 1373.88 94.75 L 1326.5 94.75" fill="#F9D423"/><rect x="1373.88" y="94.75" width="47.38" height="47.38" fill="#141414"/><path d="M 1373.88 94.75 A 47.38 47.38 0 0 0 1421.2600000000002 142.13 L 1421.2600000000002 94.75" fill="#F9D423"/><rect x="1326.5" y="142.13" width="47.38" height="47.38" fill="#141414"/><path d="M 1326.5 142.13 A 47.38 47.38 0 0 1 1373.88 189.51 L 1326.5 189.51" fill="#F9D423"/><rect x="1373.88" y="142.13" width="47.38" height="47.38" fill="#F4F4C8"/><path d="M 1373.88 189.51 A 47.38 47.38 0 0 1  1421.2600000000002 142.13 L 1421.2600000000002 189.51" fill="#F4F4C8"/><rect x="1421.25" y="94.75" width="94.75" height="94.75" fill="#141414"/><rect x="1421.25" y="94.75" width="47.38" height="47.38" fill="#141414"/><polygon points="1421.25,94.75 1468.63,94.75 1421.25,142.13" fill="#F9D423"/><rect x="1468.63" y="94.75" width="47.38" height="47.38" fill="#8A8847"/><polygon points="1468.63,94.75 1516.0100000000002,94.75 1516.0100000000002,142.13" fill="#141414"/><rect x="1421.25" y="142.13" width="47.38" height="47.38" fill="#F4F4C8"/><polygon points="1421.25,142.13 1468.63,189.51 1421.25,189.51" fill="#F9D423"/><rect x="1468.63" y="142.13" width="47.38" height="47.38" fill="#F9D423"/><polygon points="1516.0100000000002,142.13 1516.0100000000002,189.51 1468.63,189.51" fill="#141414"/><rect x="1516" y="94.75" width="94.75" height="94.75" fill="#141414"/><rect x="1516" y="94.75" width="47.38" height="47.38" fill="#8A8847"/><path d="M 1516 94.75 A 47.38 47.38 0 0 0 1563.38 142.13 L 1563.38 94.75" fill="#141414"/><rect x="1563.38" y="94.75" width="47.38" height="47.38" fill="#8A8847"/><path d="M 1563.38 142.13 A 47.38 47.38 0 0 0 1610.7600000000002 94.75 L 1563.38 94.75" fill="#F9D423"/><rect x="1516" y="142.13" width="47.38" height="47.38" fill="#F4F4C8"/><path d="M 1516 189.51 A 47.38 47.38 0 0 1  1563.38 142.13 L 1563.38 189.51" fill="#F4F4C8"/><rect x="1563.38" y="142.13" width="47.38" height="47.38" fill="#141414"/><path d="M 1563.38 142.13 A 47.38 47.38 0 0 1 1610.7600000000002 189.51 L 1563.38 189.51" fill="#F4F4C8"/><rect x="1610.75" y="94.75" width="94.75" height="94.75" fill="#F9D423"/><path d="M 1610.75 189.5 A 94.75 94.75 0 0 1  1705.5 94.75 L 1610.75 189.5 A 94.75 94.75 0 0 0 1705.5 94.75" fill="#F4F4C8"/><rect x="1705.5" y="94.75" width="94.75" height="94.75" fill="#141414"/><rect x="1705.5" y="94.75" width="47.38" height="47.38" fill="#F9D423"/><circle cx="1729.19" cy="118.44" r="23.69" fill="#F9D423"/><rect x="1752.88" y="94.75" width="47.38" height="47.38" fill="#F9D423"/><rect x="1752.88" y="94.75" width="47.38" height="47.38" fill="#141414"/><rect x="1705.5" y="142.13" width="47.38" height="47.38" fill="#141414"/><circle cx="1729.19" cy="165.82" r="23.69" fill="#F4F4C8"/><rect x="1752.88" y="142.13" width="47.38" height="47.38" fill="#8A8847"/><rect x="1752.88" y="142.13" width="47.38" height="47.38" fill="#F4F4C8"/><rect x="1800.25" y="94.75" width="94.75" height="94.75" fill="#141414"/><rect x="1800.25" y="94.75" width="47.38" height="47.38" fill="#8A8847"/><path d="M 1800.25 142.13 A 47.38 47.38 0 0 1 1847.63 94.75 L 1847.63 106.595 A 35.535000000000004 35.535000000000004 0 0 0 1812.095 142.13" fill="#141414"/><rect x="1847.63" y="94.75" width="47.38" height="47.38" fill="#F4F4C8"/><path d="M 1847.63 94.75 A 47.38 47.38 0 0 1 1895.0100000000002 142.13 L 1883.1650000000002 142.13 A 35.535000000000004 35.535000000000004 0 0 0 1847.63 106.595" fill="#141414"/><rect x="1800.25" y="142.13" width="47.38" height="47.38" fill="#F9D423"/><path d="M 1800.25 142.13 A 47.38 47.38 0 0 0 1847.63 189.51 L 1847.63 177.665 A 35.535000000000004 35.535000000000004 0 0 1 1812.095 142.13" fill="#141414"/><rect x="1847.63" y="142.13" width="47.38" height="47.38" fill="#F4F4C8"/><path d="M 1847.63 189.51 A 47.38 47.38 0 0 0 1895.0100000000002 142.13 L 1883.1650000000002 142.13 A 35.535000000000004 35.535000000000004 0 0 1 1847.63 177.665" fill="#F9D423"/><rect x="1895" y="94.75" width="94.75" height="94.75" fill="#8A8847"/><rect x="1895" y="94.75" width="94.75" height="94.75" fill="#141414"/><rect x="1989.75" y="94.75" width="94.75" height="94.75" fill="#141414"/><rect x="1989.75" y="94.75" width="47.38" height="47.38" fill="#141414"/><path d="M 1989.75 142.13 A 47.38 47.38 0 0 1  2037.13 94.75 L 2037.13 142.13" fill="#8A8847"/><rect x="2037.13" y="94.75" width="47.38" height="47.38" fill="#141414"/><path d="M 2037.13 94.75 A 47.38 47.38 0 0 1 2084.51 142.13 L 2037.13 142.13" fill="#141414"/><rect x="1989.75" y="142.13" width="47.38" height="47.38" fill="#8A8847"/><path d="M 1989.75 142.13 A 47.38 47.38 0 0 0 2037.13 189.51 L 2037.13 142.13" fill="#141414"/><rect x="2037.13" y="142.13" width="47.38" height="47.38" fill="#141414"/><path d="M 2037.13 189.51 A 47.38 47.38 0 0 0 2084.51 142.13 L 2037.13 142.13" fill="#F4F4C8"/><rect x="0" y="189.5" width="94.75" height="94.75" fill="#141414"/><polygon points="0,189.5 94.75,189.5 94.75,284.25" fill="#F4F4C8"/><rect x="94.75" y="189.5" width="94.75" height="94.75" fill="#141414"/><rect x="94.75" y="189.5" width="47.38" height="47.38" fill="#F4F4C8"/><path d="M 94.75 236.88 A 47.38 47.38 0 0 1  142.13 189.5 L 142.13 236.88" fill="#F4F4C8"/><rect x="142.13" y="189.5" width="47.38" height="47.38" fill="#F9D423"/><path d="M 142.13 189.5 A 47.38 47.38 0 0 1 189.51 236.88 L 142.13 236.88" fill="#F4F4C8"/><rect x="94.75" y="236.88" width="47.38" height="47.38" fill="#141414"/><path d="M 94.75 236.88 A 47.38 47.38 0 0 0 142.13 284.26 L 142.13 236.88" fill="#F9D423"/><rect x="142.13" y="236.88" width="47.38" height="47.38" fill="#141414"/><path d="M 142.13 284.26 A 47.38 47.38 0 0 0 189.51 236.88 L 142.13 236.88" fill="#8A8847"/><rect x="189.5" y="189.5" width="94.75" height="94.75" fill="#141414"/><path d="M 189.5 189.5 A 94.75 94.75 0 0 1  284.25 284.25 L 189.5 189.5 A 94.75 94.75 0 0 0 284.25 284.25" fill="#8A8847"/><rect x="284.25" y="189.5" width="94.75" height="94.75" fill="#141414"/><rect x="284.25" y="189.5" width="47.38" height="47.38" fill="#141414"/><circle cx="307.94" cy="213.19" r="23.69" fill="#F4F4C8"/><rect x="331.63" y="189.5" width="47.38" height="47.38" fill="#8A8847"/><rect x="331.63" y="189.5" width="47.38" height="47.38" fill="#8A8847"/><rect x="284.25" y="236.88" width="47.38" height="47.38" fill="#F4F4C8"/><circle cx="307.94" cy="260.57" r="23.69" fill="#F9D423"/><rect x="331.63" y="236.88" width="47.38" height="47.38" fill="#8A8847"/><rect x="331.63" y="236.88" width="47.38" height="47.38" fill="#141414"/><rect x="379" y="189.5" width="94.75" height="94.75" fill="#F4F4C8"/><path d="M 379 284.25 A 94.75 94.75 0 0 0 473.75 189.5 L 379 189.5" fill="#8A8847"/><rect x="473.75" y="189.5" width="94.75" height="94.75" fill="#F9D423"/><polygon points="473.75,189.5 568.5,189.5 568.5,284.25" fill="#F4F4C8"/><rect x="568.5" y="189.5" width="94.75" height="94.75" fill="#141414"/><rect x="568.5" y="189.5" width="47.38" height="47.38" fill="#F9D423"/><path d="M 568.5 189.5 A 47.38 47.38 0 0 0 615.88 236.88 L 615.88 189.5" fill="#F4F4C8"/><rect x="615.88" y="189.5" width="47.38" height="47.38" fill="#141414"/><path d="M 615.88 236.88 A 47.38 47.38 0 0 0 663.26 189.5 L 615.88 189.5" fill="#8A8847"/><rect x="568.5" y="236.88" width="47.38" height="47.38" fill="#141414"/><path d="M 568.5 284.26 A 47.38 47.38 0 0 1  615.88 236.88 L 615.88 284.26" fill="#F9D423"/><rect x="615.88" y="236.88" width="47.38" height="47.38" fill="#141414"/><path d="M 615.88 236.88 A 47.38 47.38 0 0 1 663.26 284.26 L 615.88 284.26" fill="#141414"/><rect x="663.25" y="189.5" width="94.75" height="94.75" fill="#141414"/><rect x="663.25" y="189.5" width="47.38" height="47.38" fill="#141414"/><path d="M 663.25 236.88 A 47.38 47.38 0 0 1 710.63 189.5 L 710.63 201.345 A 35.535000000000004 35.535000000000004 0 0 0 675.095 236.88" fill="#F4F4C8"/><rect x="710.63" y="189.5" width="47.38" height="47.38" fill="#F9D423"/><path d="M 710.63 189.5 A 47.38 47.38 0 0 1 758.01 236.88 L 746.165 236.88 A 35.535000000000004 35.535000000000004 0 0 0 710.63 201.345" fill="#8A8847"/><rect x="663.25" y="236.88" width="47.38" height="47.38" fill="#F9D423"/><path d="M 663.25 236.88 A 47.38 47.38 0 0 0 710.63 284.26 L 710.63 272.415 A 35.535000000000004 35.535000000000004 0 0 1 675.095 236.88" fill="#141414"/><rect x="710.63" y="236.88" width="47.38" height="47.38" fill="#F9D423"/><path d="M 710.63 284.26 A 47.38 47.38 0 0 0 758.01 236.88 L 746.165 236.88 A 35.535000000000004 35.535000000000004 0 0 1 710.63 272.415" fill="#F4F4C8"/><rect x="758" y="189.5" width="94.75" height="94.75" fill="#141414"/><rect x="758" y="189.5" width="47.38" height="47.38" fill="#141414"/><path d="M 758 189.5 A 47.38 47.38 0 0 0 805.38 236.88 L 805.38 189.5" fill="#8A8847"/><rect x="805.38" y="189.5" width="47.38" height="47.38" fill="#141414"/><path d="M 805.38 236.88 A 47.38 47.38 0 0 0 852.76 189.5 L 805.38 189.5" fill="#F4F4C8"/><rect x="758" y="236.88" width="47.38" height="47.38" fill="#8A8847"/><path d="M 758 284.26 A 47.38 47.38 0 0 1  805.38 236.88 L 805.38 284.26" fill="#8A8847"/><rect x="805.38" y="236.88" width="47.38" height="47.38" fill="#F4F4C8"/><path d="M 805.38 236.88 A 47.38 47.38 0 0 1 852.76 284.26 L 805.38 284.26" fill="#141414"/><rect x="852.75" y="189.5" width="94.75" height="94.75" fill="#F9D423"/><rect x="852.75" y="189.5" width="94.75" height="94.75" fill="#F4F4C8"/><rect x="947.5" y="189.5" width="94.75" height="94.75" fill="#141414"/><rect x="947.5" y="189.5" width="47.38" height="47.38" fill="#141414"/><path d="M 947.5 189.5 A 47.38 47.38 0 0 0 994.88 236.88 L 994.88 189.5" fill="#141414"/><rect x="994.88" y="189.5" width="47.38" height="47.38" fill="#F9D423"/><path d="M 994.88 236.88 A 47.38 47.38 0 0 0 1042.26 189.5 L 994.88 189.5" fill="#F9D423"/><rect x="947.5" y="236.88" width="47.38" height="47.38" fill="#141414"/><path d="M 947.5 284.26 A 47.38 47.38 0 0 1  994.88 236.88 L 994.88 284.26" fill="#8A8847"/><rect x="994.88" y="236.88" width="47.38" height="47.38" fill="#8A8847"/><path d="M 994.88 236.88 A 47.38 47.38 0 0 1 1042.26 284.26 L 994.88 284.26" fill="#F4F4C8"/><rect x="1042.25" y="189.5" width="94.75" height="94.75" fill="#8A8847"/><rect x="1042.25" y="189.5" width="94.75" height="94.75" fill="#F9D423"/><rect x="1137" y="189.5" width="94.75" height="94.75" fill="#8A8847"/><path d="M 1137 284.25 A 94.75 94.75 0 0 1  1231.75 189.5 L 1137 284.25 A 94.75 94.75 0 0 0 1231.75 189.5" fill="#8A8847"/><rect x="1231.75" y="189.5" width="94.75" height="94.75" fill="#F4F4C8"/><rect x="1231.75" y="189.5" width="94.75" height="94.75" fill="#141414"/><rect x="1326.5" y="189.5" width="94.75" height="94.75" fill="#F9D423"/><path d="M 1326.5 284.25 A 94.75 94.75 0 0 1  1421.25 189.5 L 1421.25 284.25" fill="#8A8847"/><rect x="1421.25" y="189.5" width="94.75" height="94.75" fill="#141414"/><rect x="1421.25" y="189.5" width="47.38" height="47.38" fill="#141414"/><path d="M 1421.25 189.5 A 47.38 47.38 0 0 0 1468.63 236.88 L 1468.63 189.5" fill="#141414"/><rect x="1468.63" y="189.5" width="47.38" height="47.38" fill="#F4F4C8"/><path d="M 1468.63 236.88 A 47.38 47.38 0 0 0 1516.0100000000002 189.5 L 1468.63 189.5" fill="#141414"/><rect x="1421.25" y="236.88" width="47.38" height="47.38" fill="#8A8847"/><path d="M 1421.25 284.26 A 47.38 47.38 0 0 1  1468.63 236.88 L 1468.63 284.26" fill="#F9D423"/><rect x="1468.63" y="236.88" width="47.38" height="47.38" fill="#F4F4C8"/><path d="M 1468.63 236.88 A 47.38 47.38 0 0 1 1516.0100000000002 284.26 L 1468.63 284.26" fill="#F4F4C8"/><rect x="1516" y="189.5" width="94.75" height="94.75" fill="#141414"/><path d="M 1516 284.25 A 94.75 94.75 0 0 1  1610.75 189.5 L 1610.75 284.25" fill="#F4F4C8"/><rect x="1610.75" y="189.5" width="94.75" height="94.75" fill="#141414"/><polygon points="1610.75,189.5 1705.5,189.5 1705.5,284.25" fill="#8A8847"/><rect x="1705.5" y="189.5" width="94.75" height="94.75" fill="#141414"/><rect x="1705.5" y="189.5" width="47.38" height="47.38" fill="#F4F4C8"/><path d="M 1705.5 236.88 A 47.38 47.38 0 0 1 1752.88 189.5 L 1752.88 201.345 A 35.535000000000004 35.535000000000004 0 0 0 1717.345 236.88" fill="#F4F4C8"/><rect x="1752.88" y="189.5" width="47.38" height="47.38" fill="#141414"/><path d="M 1752.88 189.5 A 47.38 47.38 0 0 1 1800.2600000000002 236.88 L 1788.4150000000002 236.88 A 35.535000000000004 35.535000000000004 0 0 0 1752.88 201.345" fill="#141414"/><rect x="1705.5" y="236.88" width="47.38" height="47.38" fill="#141414"/><path d="M 1705.5 236.88 A 47.38 47.38 0 0 0 1752.88 284.26 L 1752.88 272.415 A 35.535000000000004 35.535000000000004 0 0 1 1717.345 236.88" fill="#8A8847"/><rect x="1752.88" y="236.88" width="47.38" height="47.38" fill="#141414"/><path d="M 1752.88 284.26 A 47.38 47.38 0 0 0 1800.2600000000002 236.88 L 1788.4150000000002 236.88 A 35.535000000000004 35.535000000000004 0 0 1 1752.88 272.415" fill="#8A8847"/><rect x="1800.25" y="189.5" width="94.75" height="94.75" fill="#141414"/><rect x="1800.25" y="189.5" width="47.38" height="47.38" fill="#F4F4C8"/><circle cx="1823.94" cy="213.19" r="23.69" fill="#8A8847"/><rect x="1847.63" y="189.5" width="47.38" height="47.38" fill="#8A8847"/><rect x="1847.63" y="189.5" width="47.38" height="47.38" fill="#8A8847"/><rect x="1800.25" y="236.88" width="47.38" height="47.38" fill="#F4F4C8"/><circle cx="1823.94" cy="260.57" r="23.69" fill="#141414"/><rect x="1847.63" y="236.88" width="47.38" height="47.38" fill="#8A8847"/><rect x="1847.63" y="236.88" width="47.38" height="47.38" fill="#141414"/><rect x="1895" y="189.5" width="94.75" height="94.75" fill="#141414"/><rect x="1895" y="189.5" width="47.38" height="47.38" fill="#141414"/><path d="M 1895 236.88 A 47.38 47.38 0 0 0 1942.38 189.5 L 1895 189.5" fill="#F4F4C8"/><rect x="1942.38" y="189.5" width="47.38" height="47.38" fill="#8A8847"/><path d="M 1942.38 189.5 A 47.38 47.38 0 0 0 1989.7600000000002 236.88 L 1989.7600000000002 189.5" fill="#F9D423"/><rect x="1895" y="236.88" width="47.38" height="47.38" fill="#8A8847"/><path d="M 1895 236.88 A 47.38 47.38 0 0 1 1942.38 284.26 L 1895 284.26" fill="#F9D423"/><rect x="1942.38" y="236.88" width="47.38" height="47.38" fill="#F4F4C8"/><path d="M 1942.38 284.26 A 47.38 47.38 0 0 1  1989.7600000000002 236.88 L 1989.7600000000002 284.26" fill="#F4F4C8"/><rect x="1989.75" y="189.5" width="94.75" height="94.75" fill="#141414"/><rect x="1989.75" y="189.5" width="47.38" height="47.38" fill="#F4F4C8"/><polygon points="1989.75,189.5 2037.13,189.5 1989.75,236.88" fill="#141414"/><rect x="2037.13" y="189.5" width="47.38" height="47.38" fill="#F9D423"/><polygon points="2037.13,189.5 2084.51,189.5 2084.51,236.88" fill="#F9D423"/><rect x="1989.75" y="236.88" width="47.38" height="47.38" fill="#141414"/><polygon points="2037.13,236.88 2037.13,284.26 1989.75,284.26" fill="#8A8847"/><rect x="2037.13" y="236.88" width="47.38" height="47.38" fill="#F4F4C8"/><polygon points="2037.13,236.88 2084.51,284.26 2037.13,284.26" fill="#F4F4C8"/><rect x="0" y="284.25" width="94.75" height="94.75" fill="#141414"/><rect x="0" y="284.25" width="47.38" height="47.38" fill="#F4F4C8"/><polygon points="0,284.25 47.38,284.25 0,331.63" fill="#8A8847"/><rect x="47.38" y="284.25" width="47.38" height="47.38" fill="#F4F4C8"/><polygon points="47.38,284.25 94.76,284.25 94.76,331.63" fill="#141414"/><rect x="0" y="331.63" width="47.38" height="47.38" fill="#F9D423"/><polygon points="47.38,331.63 47.38,379.01 0,379.01" fill="#141414"/><rect x="47.38" y="331.63" width="47.38" height="47.38" fill="#8A8847"/><polygon points="47.38,331.63 94.76,379.01 47.38,379.01" fill="#F9D423"/><rect x="94.75" y="284.25" width="94.75" height="94.75" fill="#F9D423"/><rect x="94.75" y="284.25" width="94.75" height="94.75" fill="#8A8847"/><rect x="189.5" y="284.25" width="94.75" height="94.75" fill="#F4F4C8"/><path d="M 189.5 284.25 A 94.75 94.75 0 0 1  284.25 379 L 189.5 284.25 A 94.75 94.75 0 0 0 284.25 379" fill="#141414"/><rect x="284.25" y="284.25" width="94.75" height="94.75" fill="#141414"/><rect x="284.25" y="284.25" width="47.38" height="47.38" fill="#F4F4C8"/><polygon points="284.25,284.25 331.63,284.25 284.25,331.63" fill="#141414"/><rect x="331.63" y="284.25" width="47.38" height="47.38" fill="#F9D423"/><polygon points="331.63,284.25 379.01,284.25 379.01,331.63" fill="#141414"/><rect x="284.25" y="331.63" width="47.38" height="47.38" fill="#8A8847"/><polygon points="284.25,331.63 331.63,379.01 284.25,379.01" fill="#F4F4C8"/><rect x="331.63" y="331.63" width="47.38" height="47.38" fill="#F4F4C8"/><polygon points="379.01,331.63 379.01,379.01 331.63,379.01" fill="#F9D423"/><rect x="379" y="284.25" width="94.75" height="94.75" fill="#141414"/><rect x="379" y="284.25" width="47.38" height="47.38" fill="#141414"/><path d="M 379 284.25 A 47.38 47.38 0 0 0 426.38 331.63 L 426.38 284.25" fill="#F4F4C8"/><rect x="426.38" y="284.25" width="47.38" height="47.38" fill="#F4F4C8"/><path d="M 426.38 331.63 A 47.38 47.38 0 0 0 473.76 284.25 L 426.38 284.25" fill="#F9D423"/><rect x="379" y="331.63" width="47.38" height="47.38" fill="#F9D423"/><path d="M 379 379.01 A 47.38 47.38 0 0 1  426.38 331.63 L 426.38 379.01" fill="#F4F4C8"/><rect x="426.38" y="331.63" width="47.38" height="47.38" fill="#141414"/><path d="M 426.38 331.63 A 47.38 47.38 0 0 1 473.76 379.01 L 426.38 379.01" fill="#8A8847"/><rect x="473.75" y="284.25" width="94.75" height="94.75" fill="#8A8847"/><rect x="473.75" y="284.25" width="94.75" height="94.75" fill="#F9D423"/><rect x="568.5" y="284.25" width="94.75" height="94.75" fill="#141414"/><rect x="568.5" y="284.25" width="47.38" height="47.38" fill="#F9D423"/><polygon points="568.5,284.25 615.88,284.25 568.5,331.63" fill="#141414"/><rect x="615.88" y="284.25" width="47.38" height="47.38" fill="#8A8847"/><polygon points="615.88,284.25 663.26,284.25 663.26,331.63" fill="#141414"/><rect x="568.5" y="331.63" width="47.38" height="47.38" fill="#8A8847"/><polygon points="568.5,331.63 615.88,379.01 568.5,379.01" fill="#8A8847"/><rect x="615.88" y="331.63" width="47.38" height="47.38" fill="#8A8847"/><polygon points="663.26,331.63 663.26,379.01 615.88,379.01" fill="#F9D423"/><rect x="663.25" y="284.25" width="94.75" height="94.75" fill="#141414"/><rect x="663.25" y="284.25" width="47.38" height="47.38" fill="#F4F4C8"/><path d="M 663.25 284.25 A 47.38 47.38 0 0 1 710.63 331.63 L 663.25 331.63" fill="#8A8847"/><rect x="710.63" y="284.25" width="47.38" height="47.38" fill="#F4F4C8"/><path d="M 710.63 331.63 A 47.38 47.38 0 0 1  758.01 284.25 L 758.01 331.63" fill="#8A8847"/><rect x="663.25" y="331.63" width="47.38" height="47.38" fill="#F9D423"/><path d="M 663.25 379.01 A 47.38 47.38 0 0 0 710.63 331.63 L 663.25 331.63" fill="#8A8847"/><rect x="710.63" y="331.63" width="47.38" height="47.38" fill="#141414"/><path d="M 710.63 331.63 A 47.38 47.38 0 0 0 758.01 379.01 L 758.01 331.63" fill="#F4F4C8"/><rect x="758" y="284.25" width="94.75" height="94.75" fill="#141414"/><rect x="758" y="284.25" width="47.38" height="47.38" fill="#141414"/><polygon points="758,284.25 805.38,284.25 758,331.63" fill="#F9D423"/><rect x="805.38" y="284.25" width="47.38" height="47.38" fill="#8A8847"/><polygon points="805.38,284.25 852.76,284.25 852.76,331.63" fill="#F4F4C8"/><rect x="758" y="331.63" width="47.38" height="47.38" fill="#F9D423"/><polygon points="805.38,331.63 805.38,379.01 758,379.01" fill="#F4F4C8"/><rect x="805.38" y="331.63" width="47.38" height="47.38" fill="#F9D423"/><polygon points="805.38,331.63 852.76,379.01 805.38,379.01" fill="#F4F4C8"/><rect x="852.75" y="284.25" width="94.75" height="94.75" fill="#8A8847"/><polygon points="852.75,284.25 947.5,284.25 947.5,379" fill="#F9D423"/><rect x="947.5" y="284.25" width="94.75" height="94.75" fill="#141414"/><polygon points="947.5,284.25 1042.25,379 947.5,379" fill="#8A8847"/><rect x="1042.25" y="284.25" width="94.75" height="94.75" fill="#141414"/><polygon points="1042.25,284.25 1137,284.25 1042.25,379" fill="#F4F4C8"/><rect x="1137" y="284.25" width="94.75" height="94.75" fill="#141414"/><rect x="1137" y="284.25" width="94.75" height="94.75" fill="#F9D423"/><rect x="1231.75" y="284.25" width="94.75" height="94.75" fill="#141414"/><rect x="1231.75" y="284.25" width="47.38" height="47.38" fill="#F9D423"/><polygon points="1231.75,284.25 1279.13,284.25 1231.75,331.63" fill="#F4F4C8"/><rect x="1279.13" y="284.25" width="47.38" height="47.38" fill="#F9D423"/><polygon points="1279.13,284.25 1326.5100000000002,284.25 1326.5100000000002,331.63" fill="#8A8847"/><rect x="1231.75" y="331.63" width="47.38" height="47.38" fill="#8A8847"/><polygon points="1279.13,331.63 1279.13,379.01 1231.75,379.01" fill="#F9D423"/><rect x="1279.13" y="331.63" width="47.38" height="47.38" fill="#8A8847"/><polygon points="1279.13,331.63 1326.5100000000002,379.01 1279.13,379.01" fill="#141414"/><rect x="1326.5" y="284.25" width="94.75" height="94.75" fill="#141414"/><rect x="1326.5" y="284.25" width="47.38" height="47.38" fill="#8A8847"/><path d="M 1326.5 284.25 A 47.38 47.38 0 0 0 1373.88 331.63 L 1373.88 284.25" fill="#F9D423"/><rect x="1373.88" y="284.25" width="47.38" height="47.38" fill="#F9D423"/><path d="M 1373.88 331.63 A 47.38 47.38 0 0 0 1421.2600000000002 284.25 L 1373.88 284.25" fill="#F9D423"/><rect x="1326.5" y="331.63" width="47.38" height="47.38" fill="#F4F4C8"/><path d="M 1326.5 379.01 A 47.38 47.38 0 0 1  1373.88 331.63 L 1373.88 379.01" fill="#141414"/><rect x="1373.88" y="331.63" width="47.38" height="47.38" fill="#141414"/><path d="M 1373.88 331.63 A 47.38 47.38 0 0 1 1421.2600000000002 379.01 L 1373.88 379.01" fill="#141414"/><rect x="1421.25" y="284.25" width="94.75" height="94.75" fill="#141414"/><path d="M 1421.25 284.25 A 94.75 94.75 0 0 1  1516 379 L 1421.25 284.25 A 94.75 94.75 0 0 0 1516 379" fill="#8A8847"/><rect x="1516" y="284.25" width="94.75" height="94.75" fill="#141414"/><rect x="1516" y="284.25" width="47.38" height="47.38" fill="#F4F4C8"/><polygon points="1516,284.25 1563.38,284.25 1516,331.63" fill="#F9D423"/><rect x="1563.38" y="284.25" width="47.38" height="47.38" fill="#141414"/><polygon points="1563.38,284.25 1610.7600000000002,284.25 1610.7600000000002,331.63" fill="#F9D423"/><rect x="1516" y="331.63" width="47.38" height="47.38" fill="#F4F4C8"/><polygon points="1563.38,331.63 1563.38,379.01 1516,379.01" fill="#F9D423"/><rect x="1563.38" y="331.63" width="47.38" height="47.38" fill="#F9D423"/><polygon points="1563.38,331.63 1610.7600000000002,379.01 1563.38,379.01" fill="#F4F4C8"/><rect x="1610.75" y="284.25" width="94.75" height="94.75" fill="#F4F4C8"/><rect x="1610.75" y="284.25" width="94.75" height="94.75" fill="#8A8847"/><rect x="1705.5" y="284.25" width="94.75" height="94.75" fill="#F9D423"/><rect x="1705.5" y="284.25" width="94.75" height="94.75" fill="#8A8847"/><rect x="1800.25" y="284.25" width="94.75" height="94.75" fill="#8A8847"/><polygon points="1895,284.25 1895,379 1800.25,379" fill="#8A8847"/><rect x="1895" y="284.25" width="94.75" height="94.75" fill="#8A8847"/><polygon points="1895,284.25 1989.75,379 1895,379" fill="#F9D423"/><rect x="1989.75" y="284.25" width="94.75" height="94.75" fill="#141414"/><rect x="1989.75" y="284.25" width="47.38" height="47.38" fill="#F9D423"/><path d="M 1989.75 331.63 A 47.38 47.38 0 0 1  2037.13 284.25 L 2037.13 331.63" fill="#8A8847"/><rect x="2037.13" y="284.25" width="47.38" height="47.38" fill="#141414"/><path d="M 2037.13 284.25 A 47.38 47.38 0 0 1 2084.51 331.63 L 2037.13 331.63" fill="#F4F4C8"/><rect x="1989.75" y="331.63" width="47.38" height="47.38" fill="#141414"/><path d="M 1989.75 331.63 A 47.38 47.38 0 0 0 2037.13 379.01 L 2037.13 331.63" fill="#141414"/><rect x="2037.13" y="331.63" width="47.38" height="47.38" fill="#141414"/><path d="M 2037.13 379.01 A 47.38 47.38 0 0 0 2084.51 331.63 L 2037.13 331.63" fill="#F4F4C8"/><rect x="0" y="379" width="94.75" height="94.75" fill="#141414"/><rect x="0" y="379" width="47.38" height="47.38" fill="#141414"/><polygon points="0,379 47.38,379 0,426.38" fill="#F9D423"/><rect x="47.38" y="379" width="47.38" height="47.38" fill="#8A8847"/><polygon points="47.38,379 94.76,379 94.76,426.38" fill="#8A8847"/><rect x="0" y="426.38" width="47.38" height="47.38" fill="#141414"/><polygon points="0,426.38 47.38,473.76 0,473.76" fill="#141414"/><rect x="47.38" y="426.38" width="47.38" height="47.38" fill="#F4F4C8"/><polygon points="94.76,426.38 94.76,473.76 47.38,473.76" fill="#8A8847"/><rect x="94.75" y="379" width="94.75" height="94.75" fill="#141414"/><rect x="94.75" y="379" width="47.38" height="47.38" fill="#141414"/><path d="M 94.75 379 A 47.38 47.38 0 0 1 142.13 426.38 L 94.75 426.38" fill="#F9D423"/><rect x="142.13" y="379" width="47.38" height="47.38" fill="#8A8847"/><path d="M 142.13 426.38 A 47.38 47.38 0 0 1  189.51 379 L 189.51 426.38" fill="#141414"/><rect x="94.75" y="426.38" width="47.38" height="47.38" fill="#F4F4C8"/><path d="M 94.75 473.76 A 47.38 47.38 0 0 0 142.13 426.38 L 94.75 426.38" fill="#141414"/><rect x="142.13" y="426.38" width="47.38" height="47.38" fill="#F9D423"/><path d="M 142.13 426.38 A 47.38 47.38 0 0 0 189.51 473.76 L 189.51 426.38" fill="#141414"/><rect x="189.5" y="379" width="94.75" height="94.75" fill="#F9D423"/><rect x="189.5" y="379" width="94.75" height="94.75" fill="#8A8847"/><rect x="284.25" y="379" width="94.75" height="94.75" fill="#F9D423"/><rect x="284.25" y="379" width="94.75" height="94.75" fill="#F9D423"/><rect x="379" y="379" width="94.75" height="94.75" fill="#F4F4C8"/><polygon points="473.75,379 473.75,473.75 379,473.75" fill="#141414"/><rect x="473.75" y="379" width="94.75" height="94.75" fill="#141414"/><path d="M 473.75 379 A 94.75 94.75 0 0 0 568.5 473.75 L 568.5 379" fill="#F4F4C8"/><rect x="568.5" y="379" width="94.75" height="94.75" fill="#141414"/><rect x="568.5" y="379" width="47.38" height="47.38" fill="#141414"/><path d="M 568.5 426.38 A 47.38 47.38 0 0 1 615.88 379 L 615.88 390.845 A 35.535000000000004 35.535000000000004 0 0 0 580.345 426.38" fill="#F4F4C8"/><rect x="615.88" y="379" width="47.38" height="47.38" fill="#F9D423"/><path d="M 615.88 379 A 47.38 47.38 0 0 1 663.26 426.38 L 651.415 426.38 A 35.535000000000004 35.535000000000004 0 0 0 615.88 390.845" fill="#F4F4C8"/><rect x="568.5" y="426.38" width="47.38" height="47.38" fill="#141414"/><path d="M 568.5 426.38 A 47.38 47.38 0 0 0 615.88 473.76 L 615.88 461.915 A 35.535000000000004 35.535000000000004 0 0 1 580.345 426.38" fill="#F4F4C8"/><rect x="615.88" y="426.38" width="47.38" height="47.38" fill="#141414"/><path d="M 615.88 473.76 A 47.38 47.38 0 0 0 663.26 426.38 L 651.415 426.38 A 35.535000000000004 35.535000000000004 0 0 1 615.88 461.915" fill="#8A8847"/><rect x="663.25" y="379" width="94.75" height="94.75" fill="#141414"/><path d="M 663.25 473.75 A 94.75 94.75 0 0 1  758 379 L 663.25 473.75 A 94.75 94.75 0 0 0 758 379" fill="#F9D423"/><rect x="758" y="379" width="94.75" height="94.75" fill="#F9D423"/><polygon points="758,379 852.75,379 852.75,473.75" fill="#141414"/><rect x="852.75" y="379" width="94.75" height="94.75" fill="#141414"/><path d="M 852.75 473.75 A 94.75 94.75 0 0 0 947.5 379 L 852.75 379" fill="#141414"/><rect x="947.5" y="379" width="94.75" height="94.75" fill="#F9D423"/><rect x="947.5" y="379" width="94.75" height="94.75" fill="#8A8847"/><rect x="1042.25" y="379" width="94.75" height="94.75" fill="#F4F4C8"/><rect x="1042.25" y="379" width="94.75" height="94.75" fill="#141414"/><rect x="1137" y="379" width="94.75" height="94.75" fill="#141414"/><path d="M 1137 379 A 94.75 94.75 0 0 1  1231.75 473.75 L 1137 379 A 94.75 94.75 0 0 0 1231.75 473.75" fill="#141414"/><rect x="1231.75" y="379" width="94.75" height="94.75" fill="#141414"/><rect x="1231.75" y="379" width="94.75" height="94.75" fill="#141414"/><rect x="1326.5" y="379" width="94.75" height="94.75" fill="#F9D423"/><polygon points="1326.5,379 1421.25,379 1326.5,473.75" fill="#8A8847"/><rect x="1421.25" y="379" width="94.75" height="94.75" fill="#141414"/><rect x="1421.25" y="379" width="47.38" height="47.38" fill="#F4F4C8"/><path d="M 1421.25 426.38 A 47.38 47.38 0 0 1 1468.63 379 L 1468.63 390.845 A 35.535000000000004 35.535000000000004 0 0 0 1433.095 426.38" fill="#F4F4C8"/><rect x="1468.63" y="379" width="47.38" height="47.38" fill="#F4F4C8"/><path d="M 1468.63 379 A 47.38 47.38 0 0 1 1516.0100000000002 426.38 L 1504.1650000000002 426.38 A 35.535000000000004 35.535000000000004 0 0 0 1468.63 390.845" fill="#141414"/><rect x="1421.25" y="426.38" width="47.38" height="47.38" fill="#F4F4C8"/><path d="M 1421.25 426.38 A 47.38 47.38 0 0 0 1468.63 473.76 L 1468.63 461.915 A 35.535000000000004 35.535000000000004 0 0 1 1433.095 426.38" fill="#8A8847"/><rect x="1468.63" y="426.38" width="47.38" height="47.38" fill="#8A8847"/><path d="M 1468.63 473.76 A 47.38 47.38 0 0 0 1516.0100000000002 426.38 L 1504.1650000000002 426.38 A 35.535000000000004 35.535000000000004 0 0 1 1468.63 461.915" fill="#F4F4C8"/><rect x="1516" y="379" width="94.75" height="94.75" fill="#141414"/><rect x="1516" y="379" width="47.38" height="47.38" fill="#141414"/><path d="M 1516 426.38 A 47.38 47.38 0 0 0 1563.38 379 L 1516 379" fill="#F4F4C8"/><rect x="1563.38" y="379" width="47.38" height="47.38" fill="#F9D423"/><path d="M 1563.38 379 A 47.38 47.38 0 0 0 1610.7600000000002 426.38 L 1610.7600000000002 379" fill="#F9D423"/><rect x="1516" y="426.38" width="47.38" height="47.38" fill="#8A8847"/><path d="M 1516 426.38 A 47.38 47.38 0 0 1 1563.38 473.76 L 1516 473.76" fill="#141414"/><rect x="1563.38" y="426.38" width="47.38" height="47.38" fill="#141414"/><path d="M 1563.38 473.76 A 47.38 47.38 0 0 1  1610.7600000000002 426.38 L 1610.7600000000002 473.76" fill="#8A8847"/><rect x="1610.75" y="379" width="94.75" height="94.75" fill="#141414"/><rect x="1610.75" y="379" width="47.38" height="47.38" fill="#F4F4C8"/><path d="M 1610.75 426.38 A 47.38 47.38 0 0 1 1658.13 379 L 1658.13 390.845 A 35.535000000000004 35.535000000000004 0 0 0 1622.595 426.38" fill="#F4F4C8"/><rect x="1658.13" y="379" width="47.38" height="47.38" fill="#141414"/><path d="M 1658.13 379 A 47.38 47.38 0 0 1 1705.5100000000002 426.38 L 1693.6650000000002 426.38 A 35.535000000000004 35.535000000000004 0 0 0 1658.13 390.845" fill="#8A8847"/><rect x="1610.75" y="426.38" width="47.38" height="47.38" fill="#F9D423"/><path d="M 1610.75 426.38 A 47.38 47.38 0 0 0 1658.13 473.76 L 1658.13 461.915 A 35.535000000000004 35.535000000000004 0 0 1 1622.595 426.38" fill="#F4F4C8"/><rect x="1658.13" y="426.38" width="47.38" height="47.38" fill="#141414"/><path d="M 1658.13 473.76 A 47.38 47.38 0 0 0 1705.5100000000002 426.38 L 1693.6650000000002 426.38 A 35.535000000000004 35.535000000000004 0 0 1 1658.13 461.915" fill="#F4F4C8"/><rect x="1705.5" y="379" width="94.75" height="94.75" fill="#141414"/><rect x="1705.5" y="379" width="47.38" height="47.38" fill="#F9D423"/><path d="M 1705.5 426.38 A 47.38 47.38 0 0 1  1752.88 379 L 1752.88 426.38" fill="#8A8847"/><rect x="1752.88" y="379" width="47.38" height="47.38" fill="#8A8847"/><path d="M 1752.88 379 A 47.38 47.38 0 0 1 1800.2600000000002 426.38 L 1752.88 426.38" fill="#F9D423"/><rect x="1705.5" y="426.38" width="47.38" height="47.38" fill="#141414"/><path d="M 1705.5 426.38 A 47.38 47.38 0 0 0 1752.88 473.76 L 1752.88 426.38" fill="#F4F4C8"/><rect x="1752.88" y="426.38" width="47.38" height="47.38" fill="#F9D423"/><path d="M 1752.88 473.76 A 47.38 47.38 0 0 0 1800.2600000000002 426.38 L 1752.88 426.38" fill="#8A8847"/><rect x="1800.25" y="379" width="94.75" height="94.75" fill="#8A8847"/><rect x="1800.25" y="379" width="94.75" height="94.75" fill="#F9D423"/><rect x="1895" y="379" width="94.75" height="94.75" fill="#141414"/><polygon points="1989.75,379 1989.75,473.75 1895,473.75" fill="#8A8847"/><rect x="1989.75" y="379" width="94.75" height="94.75" fill="#8A8847"/><path d="M 1989.75 473.75 A 94.75 94.75 0 0 1  2084.5 379 L 1989.75 473.75 A 94.75 94.75 0 0 0 2084.5 379" fill="#8A8847"/><rect x="0" y="473.75" width="94.75" height="94.75" fill="#141414"/><rect x="0" y="473.75" width="47.38" height="47.38" fill="#F9D423"/><polygon points="0,473.75 47.38,473.75 0,521.13" fill="#F9D423"/><rect x="47.38" y="473.75" width="47.38" height="47.38" fill="#8A8847"/><polygon points="47.38,473.75 94.76,473.75 94.76,521.13" fill="#141414"/><rect x="0" y="521.13" width="47.38" height="47.38" fill="#8A8847"/><polygon points="0,521.13 47.38,568.51 0,568.51" fill="#F4F4C8"/><rect x="47.38" y="521.13" width="47.38" height="47.38" fill="#F9D423"/><polygon points="94.76,521.13 94.76,568.51 47.38,568.51" fill="#141414"/><rect x="94.75" y="473.75" width="94.75" height="94.75" fill="#141414"/><rect x="94.75" y="473.75" width="47.38" height="47.38" fill="#141414"/><path d="M 94.75 473.75 A 47.38 47.38 0 0 1 142.13 521.13 L 94.75 521.13" fill="#F9D423"/><rect x="142.13" y="473.75" width="47.38" height="47.38" fill="#F4F4C8"/><path d="M 142.13 521.13 A 47.38 47.38 0 0 1  189.51 473.75 L 189.51 521.13" fill="#8A8847"/><rect x="94.75" y="521.13" width="47.38" height="47.38" fill="#8A8847"/><path d="M 94.75 568.51 A 47.38 47.38 0 0 0 142.13 521.13 L 94.75 521.13" fill="#F9D423"/><rect x="142.13" y="521.13" width="47.38" height="47.38" fill="#8A8847"/><path d="M 142.13 521.13 A 47.38 47.38 0 0 0 189.51 568.51 L 189.51 521.13" fill="#8A8847"/><rect x="189.5" y="473.75" width="94.75" height="94.75" fill="#F9D423"/><rect x="189.5" y="473.75" width="94.75" height="94.75" fill="#F9D423"/><rect x="284.25" y="473.75" width="94.75" height="94.75" fill="#141414"/><rect x="284.25" y="473.75" width="47.38" height="47.38" fill="#141414"/><path d="M 284.25 521.13 A 47.38 47.38 0 0 1 331.63 473.75 L 331.63 485.595 A 35.535000000000004 35.535000000000004 0 0 0 296.095 521.13" fill="#F9D423"/><rect x="331.63" y="473.75" width="47.38" height="47.38" fill="#F9D423"/><path d="M 331.63 473.75 A 47.38 47.38 0 0 1 379.01 521.13 L 367.165 521.13 A 35.535000000000004 35.535000000000004 0 0 0 331.63 485.595" fill="#8A8847"/><rect x="284.25" y="521.13" width="47.38" height="47.38" fill="#8A8847"/><path d="M 284.25 521.13 A 47.38 47.38 0 0 0 331.63 568.51 L 331.63 556.665 A 35.535000000000004 35.535000000000004 0 0 1 296.095 521.13" fill="#F9D423"/><rect x="331.63" y="521.13" width="47.38" height="47.38" fill="#F9D423"/><path d="M 331.63 568.51 A 47.38 47.38 0 0 0 379.01 521.13 L 367.165 521.13 A 35.535000000000004 35.535000000000004 0 0 1 331.63 556.665" fill="#F9D423"/><rect x="379" y="473.75" width="94.75" height="94.75" fill="#141414"/><rect x="379" y="473.75" width="47.38" height="47.38" fill="#F9D423"/><path d="M 379 473.75 A 47.38 47.38 0 0 0 426.38 521.13 L 426.38 473.75" fill="#141414"/><rect x="426.38" y="473.75" width="47.38" height="47.38" fill="#F4F4C8"/><path d="M 426.38 521.13 A 47.38 47.38 0 0 0 473.76 473.75 L 426.38 473.75" fill="#F4F4C8"/><rect x="379" y="521.13" width="47.38" height="47.38" fill="#8A8847"/><path d="M 379 568.51 A 47.38 47.38 0 0 1  426.38 521.13 L 426.38 568.51" fill="#141414"/><rect x="426.38" y="521.13" width="47.38" height="47.38" fill="#F9D423"/><path d="M 426.38 521.13 A 47.38 47.38 0 0 1 473.76 568.51 L 426.38 568.51" fill="#141414"/><rect x="473.75" y="473.75" width="94.75" height="94.75" fill="#141414"/><rect x="473.75" y="473.75" width="47.38" height="47.38" fill="#F4F4C8"/><polygon points="473.75,473.75 521.13,473.75 473.75,521.13" fill="#141414"/><rect x="521.13" y="473.75" width="47.38" height="47.38" fill="#F4F4C8"/><polygon points="568.51,473.75 568.51,521.13 521.13,521.13" fill="#F4F4C8"/><rect x="473.75" y="521.13" width="47.38" height="47.38" fill="#8A8847"/><polygon points="473.75,521.13 521.13,521.13 521.13,568.51" fill="#F9D423"/><rect x="521.13" y="521.13" width="47.38" height="47.38" fill="#141414"/><polygon points="521.13,521.13 568.51,568.51 521.13,568.51" fill="#141414"/><rect x="568.5" y="473.75" width="94.75" height="94.75" fill="#141414"/><path d="M 568.5 568.5 A 94.75 94.75 0 0 0 663.25 473.75 L 568.5 473.75" fill="#141414"/><rect x="663.25" y="473.75" width="94.75" height="94.75" fill="#F4F4C8"/><path d="M 663.25 568.5 A 94.75 94.75 0 0 1  758 473.75 L 758 568.5" fill="#F9D423"/><rect x="758" y="473.75" width="94.75" height="94.75" fill="#F4F4C8"/><rect x="758" y="473.75" width="94.75" height="94.75" fill="#8A8847"/><rect x="852.75" y="473.75" width="94.75" height="94.75" fill="#8A8847"/><polygon points="852.75,473.75 947.5,473.75 947.5,568.5" fill="#8A8847"/><rect x="947.5" y="473.75" width="94.75" height="94.75" fill="#141414"/><rect x="947.5" y="473.75" width="47.38" height="47.38" fill="#F9D423"/><path d="M 947.5 521.13 A 47.38 47.38 0 0 0 994.88 473.75 L 947.5 473.75" fill="#F4F4C8"/><rect x="994.88" y="473.75" width="47.38" height="47.38" fill="#141414"/><path d="M 994.88 473.75 A 47.38 47.38 0 0 0 1042.26 521.13 L 1042.26 473.75" fill="#F4F4C8"/><rect x="947.5" y="521.13" width="47.38" height="47.38" fill="#8A8847"/><path d="M 947.5 521.13 A 47.38 47.38 0 0 1 994.88 568.51 L 947.5 568.51" fill="#F9D423"/><rect x="994.88" y="521.13" width="47.38" height="47.38" fill="#F4F4C8"/><path d="M 994.88 568.51 A 47.38 47.38 0 0 1  1042.26 521.13 L 1042.26 568.51" fill="#8A8847"/><rect x="1042.25" y="473.75" width="94.75" height="94.75" fill="#141414"/><rect x="1042.25" y="473.75" width="47.38" height="47.38" fill="#F4F4C8"/><polygon points="1042.25,473.75 1089.63,473.75 1042.25,521.13" fill="#8A8847"/><rect x="1089.63" y="473.75" width="47.38" height="47.38" fill="#141414"/><polygon points="1137.0100000000002,473.75 1137.0100000000002,521.13 1089.63,521.13" fill="#141414"/><rect x="1042.25" y="521.13" width="47.38" height="47.38" fill="#141414"/><polygon points="1042.25,521.13 1089.63,521.13 1089.63,568.51" fill="#141414"/><rect x="1089.63" y="521.13" width="47.38" height="47.38" fill="#F4F4C8"/><polygon points="1089.63,521.13 1137.0100000000002,568.51 1089.63,568.51" fill="#F9D423"/><rect x="1137" y="473.75" width="94.75" height="94.75" fill="#141414"/><rect x="1137" y="473.75" width="47.38" height="47.38" fill="#141414"/><circle cx="1160.69" cy="497.44" r="23.69" fill="#141414"/><rect x="1184.38" y="473.75" width="47.38" height="47.38" fill="#141414"/><rect x="1184.38" y="473.75" width="47.38" height="47.38" fill="#F4F4C8"/><rect x="1137" y="521.13" width="47.38" height="47.38" fill="#141414"/><circle cx="1160.69" cy="544.82" r="23.69" fill="#F9D423"/><rect x="1184.38" y="521.13" width="47.38" height="47.38" fill="#F4F4C8"/><rect x="1184.38" y="521.13" width="47.38" height="47.38" fill="#F4F4C8"/><rect x="1231.75" y="473.75" width="94.75" height="94.75" fill="#141414"/><rect x="1231.75" y="473.75" width="47.38" height="47.38" fill="#F9D423"/><circle cx="1255.44" cy="497.44" r="23.69" fill="#8A8847"/><rect x="1279.13" y="473.75" width="47.38" height="47.38" fill="#F9D423"/><rect x="1279.13" y="473.75" width="47.38" height="47.38" fill="#8A8847"/><rect x="1231.75" y="521.13" width="47.38" height="47.38" fill="#F4F4C8"/><circle cx="1255.44" cy="544.82" r="23.69" fill="#F4F4C8"/><rect x="1279.13" y="521.13" width="47.38" height="47.38" fill="#8A8847"/><rect x="1279.13" y="521.13" width="47.38" height="47.38" fill="#141414"/><rect x="1326.5" y="473.75" width="94.75" height="94.75" fill="#F4F4C8"/><rect x="1326.5" y="473.75" width="94.75" height="94.75" fill="#F4F4C8"/><rect x="1421.25" y="473.75" width="94.75" height="94.75" fill="#141414"/><rect x="1421.25" y="473.75" width="47.38" height="47.38" fill="#F9D423"/><path d="M 1421.25 473.75 A 47.38 47.38 0 0 0 1468.63 521.13 L 1468.63 473.75" fill="#141414"/><rect x="1468.63" y="473.75" width="47.38" height="47.38" fill="#F4F4C8"/><path d="M 1468.63 521.13 A 47.38 47.38 0 0 0 1516.0100000000002 473.75 L 1468.63 473.75" fill="#F4F4C8"/><rect x="1421.25" y="521.13" width="47.38" height="47.38" fill="#F4F4C8"/><path d="M 1421.25 568.51 A 47.38 47.38 0 0 1  1468.63 521.13 L 1468.63 568.51" fill="#141414"/><rect x="1468.63" y="521.13" width="47.38" height="47.38" fill="#141414"/><path d="M 1468.63 521.13 A 47.38 47.38 0 0 1 1516.0100000000002 568.51 L 1468.63 568.51" fill="#8A8847"/><rect x="1516" y="473.75" width="94.75" height="94.75" fill="#F9D423"/><rect x="1516" y="473.75" width="94.75" height="94.75" fill="#F9D423"/><rect x="1610.75" y="473.75" width="94.75" height="94.75" fill="#F4F4C8"/><path d="M 1610.75 473.75 A 94.75 94.75 0 0 1  1705.5 568.5 L 1610.75 473.75 A 94.75 94.75 0 0 0 1705.5 568.5" fill="#F4F4C8"/><rect x="1705.5" y="473.75" width="94.75" height="94.75" fill="#F9D423"/><path d="M 1705.5 473.75 A 94.75 94.75 0 0 1 1800.25 568.5 L 1705.5 568.5" fill="#F4F4C8"/><rect x="1800.25" y="473.75" width="94.75" height="94.75" fill="#141414"/><rect x="1800.25" y="473.75" width="47.38" height="47.38" fill="#141414"/><path d="M 1800.25 521.13 A 47.38 47.38 0 0 1  1847.63 473.75 L 1847.63 521.13" fill="#F4F4C8"/><rect x="1847.63" y="473.75" width="47.38" height="47.38" fill="#F9D423"/><path d="M 1847.63 473.75 A 47.38 47.38 0 0 1 1895.0100000000002 521.13 L 1847.63 521.13" fill="#8A8847"/><rect x="1800.25" y="521.13" width="47.38" height="47.38" fill="#F4F4C8"/><path d="M 1800.25 521.13 A 47.38 47.38 0 0 0 1847.63 568.51 L 1847.63 521.13" fill="#141414"/><rect x="1847.63" y="521.13" width="47.38" height="47.38" fill="#F9D423"/><path d="M 1847.63 568.51 A 47.38 47.38 0 0 0 1895.0100000000002 521.13 L 1847.63 521.13" fill="#141414"/><rect x="1895" y="473.75" width="94.75" height="94.75" fill="#141414"/><rect x="1895" y="473.75" width="47.38" height="47.38" fill="#F9D423"/><path d="M 1895 521.13 A 47.38 47.38 0 0 1 1942.38 473.75 L 1942.38 485.595 A 35.535000000000004 35.535000000000004 0 0 0 1906.845 521.13" fill="#F4F4C8"/><rect x="1942.38" y="473.75" width="47.38" height="47.38" fill="#8A8847"/><path d="M 1942.38 473.75 A 47.38 47.38 0 0 1 1989.7600000000002 521.13 L 1977.9150000000002 521.13 A 35.535000000000004 35.535000000000004 0 0 0 1942.38 485.595" fill="#141414"/><rect x="1895" y="521.13" width="47.38" height="47.38" fill="#F4F4C8"/><path d="M 1895 521.13 A 47.38 47.38 0 0 0 1942.38 568.51 L 1942.38 556.665 A 35.535000000000004 35.535000000000004 0 0 1 1906.845 521.13" fill="#8A8847"/><rect x="1942.38" y="521.13" width="47.38" height="47.38" fill="#F4F4C8"/><path d="M 1942.38 568.51 A 47.38 47.38 0 0 0 1989.7600000000002 521.13 L 1977.9150000000002 521.13 A 35.535000000000004 35.535000000000004 0 0 1 1942.38 556.665" fill="#F4F4C8"/><rect x="1989.75" y="473.75" width="94.75" height="94.75" fill="#141414"/><rect x="1989.75" y="473.75" width="47.38" height="47.38" fill="#8A8847"/><path d="M 1989.75 521.13 A 47.38 47.38 0 0 1 2037.13 473.75 L 2037.13 485.595 A 35.535000000000004 35.535000000000004 0 0 0 2001.595 521.13" fill="#8A8847"/><rect x="2037.13" y="473.75" width="47.38" height="47.38" fill="#8A8847"/><path d="M 2037.13 473.75 A 47.38 47.38 0 0 1 2084.51 521.13 L 2072.665 521.13 A 35.535000000000004 35.535000000000004 0 0 0 2037.13 485.595" fill="#141414"/><rect x="1989.75" y="521.13" width="47.38" height="47.38" fill="#F9D423"/><path d="M 1989.75 521.13 A 47.38 47.38 0 0 0 2037.13 568.51 L 2037.13 556.665 A 35.535000000000004 35.535000000000004 0 0 1 2001.595 521.13" fill="#F4F4C8"/><rect x="2037.13" y="521.13" width="47.38" height="47.38" fill="#141414"/><path d="M 2037.13 568.51 A 47.38 47.38 0 0 0 2084.51 521.13 L 2072.665 521.13 A 35.535000000000004 35.535000000000004 0 0 1 2037.13 556.665" fill="#F9D423"/><rect x="0" y="568.5" width="94.75" height="94.75" fill="#141414"/><rect x="0" y="568.5" width="47.38" height="47.38" fill="#F9D423"/><polygon points="0,568.5 47.38,568.5 0,615.88" fill="#F4F4C8"/><rect x="47.38" y="568.5" width="47.38" height="47.38" fill="#F4F4C8"/><polygon points="47.38,568.5 94.76,568.5 94.76,615.88" fill="#8A8847"/><rect x="0" y="615.88" width="47.38" height="47.38" fill="#F4F4C8"/><polygon points="47.38,615.88 47.38,663.26 0,663.26" fill="#F4F4C8"/><rect x="47.38" y="615.88" width="47.38" height="47.38" fill="#8A8847"/><polygon points="47.38,615.88 94.76,663.26 47.38,663.26" fill="#141414"/><rect x="94.75" y="568.5" width="94.75" height="94.75" fill="#141414"/><rect x="94.75" y="568.5" width="47.38" height="47.38" fill="#8A8847"/><path d="M 94.75 615.88 A 47.38 47.38 0 0 1 142.13 568.5 L 142.13 580.345 A 35.535000000000004 35.535000000000004 0 0 0 106.595 615.88" fill="#8A8847"/><rect x="142.13" y="568.5" width="47.38" height="47.38" fill="#F4F4C8"/><path d="M 142.13 568.5 A 47.38 47.38 0 0 1 189.51 615.88 L 177.665 615.88 A 35.535000000000004 35.535000000000004 0 0 0 142.13 580.345" fill="#8A8847"/><rect x="94.75" y="615.88" width="47.38" height="47.38" fill="#141414"/><path d="M 94.75 615.88 A 47.38 47.38 0 0 0 142.13 663.26 L 142.13 651.415 A 35.535000000000004 35.535000000000004 0 0 1 106.595 615.88" fill="#F4F4C8"/><rect x="142.13" y="615.88" width="47.38" height="47.38" fill="#8A8847"/><path d="M 142.13 663.26 A 47.38 47.38 0 0 0 189.51 615.88 L 177.665 615.88 A 35.535000000000004 35.535000000000004 0 0 1 142.13 651.415" fill="#8A8847"/><rect x="189.5" y="568.5" width="94.75" height="94.75" fill="#141414"/><rect x="189.5" y="568.5" width="47.38" height="47.38" fill="#8A8847"/><polygon points="189.5,568.5 236.88,568.5 189.5,615.88" fill="#F9D423"/><rect x="236.88" y="568.5" width="47.38" height="47.38" fill="#F4F4C8"/><polygon points="236.88,568.5 284.26,568.5 284.26,615.88" fill="#8A8847"/><rect x="189.5" y="615.88" width="47.38" height="47.38" fill="#141414"/><polygon points="189.5,615.88 236.88,663.26 189.5,663.26" fill="#141414"/><rect x="236.88" y="615.88" width="47.38" height="47.38" fill="#8A8847"/><polygon points="284.26,615.88 284.26,663.26 236.88,663.26" fill="#8A8847"/><rect x="284.25" y="568.5" width="94.75" height="94.75" fill="#8A8847"/><polygon points="284.25,568.5 379,663.25 284.25,663.25" fill="#F4F4C8"/><rect x="379" y="568.5" width="94.75" height="94.75" fill="#141414"/><rect x="379" y="568.5" width="47.38" height="47.38" fill="#F4F4C8"/><path d="M 379 615.88 A 47.38 47.38 0 0 1 426.38 568.5 L 426.38 580.345 A 35.535000000000004 35.535000000000004 0 0 0 390.845 615.88" fill="#F4F4C8"/><rect x="426.38" y="568.5" width="47.38" height="47.38" fill="#F4F4C8"/><path d="M 426.38 568.5 A 47.38 47.38 0 0 1 473.76 615.88 L 461.915 615.88 A 35.535000000000004 35.535000000000004 0 0 0 426.38 580.345" fill="#8A8847"/><rect x="379" y="615.88" width="47.38" height="47.38" fill="#F9D423"/><path d="M 379 615.88 A 47.38 47.38 0 0 0 426.38 663.26 L 426.38 651.415 A 35.535000000000004 35.535000000000004 0 0 1 390.845 615.88" fill="#F4F4C8"/><rect x="426.38" y="615.88" width="47.38" height="47.38" fill="#8A8847"/><path d="M 426.38 663.26 A 47.38 47.38 0 0 0 473.76 615.88 L 461.915 615.88 A 35.535000000000004 35.535000000000004 0 0 1 426.38 651.415" fill="#141414"/><rect x="473.75" y="568.5" width="94.75" height="94.75" fill="#141414"/><rect x="473.75" y="568.5" width="47.38" height="47.38" fill="#F9D423"/><circle cx="497.44" cy="592.19" r="23.69" fill="#F9D423"/><rect x="521.13" y="568.5" width="47.38" height="47.38" fill="#F9D423"/><rect x="521.13" y="568.5" width="47.38" height="47.38" fill="#F4F4C8"/><rect x="473.75" y="615.88" width="47.38" height="47.38" fill="#141414"/><circle cx="497.44" cy="639.57" r="23.69" fill="#8A8847"/><rect x="521.13" y="615.88" width="47.38" height="47.38" fill="#F9D423"/><rect x="521.13" y="615.88" width="47.38" height="47.38" fill="#F9D423"/><rect x="568.5" y="568.5" width="94.75" height="94.75" fill="#141414"/><rect x="568.5" y="568.5" width="47.38" height="47.38" fill="#141414"/><path d="M 568.5 615.88 A 47.38 47.38 0 0 0 615.88 568.5 L 568.5 568.5" fill="#8A8847"/><rect x="615.88" y="568.5" width="47.38" height="47.38" fill="#F9D423"/><path d="M 615.88 568.5 A 47.38 47.38 0 0 0 663.26 615.88 L 663.26 568.5" fill="#F9D423"/><rect x="568.5" y="615.88" width="47.38" height="47.38" fill="#141414"/><path d="M 568.5 615.88 A 47.38 47.38 0 0 1 615.88 663.26 L 568.5 663.26" fill="#F4F4C8"/><rect x="615.88" y="615.88" width="47.38" height="47.38" fill="#F9D423"/><path d="M 615.88 663.26 A 47.38 47.38 0 0 1  663.26 615.88 L 663.26 663.26" fill="#F4F4C8"/><rect x="663.25" y="568.5" width="94.75" height="94.75" fill="#141414"/><rect x="663.25" y="568.5" width="47.38" height="47.38" fill="#8A8847"/><path d="M 663.25 615.88 A 47.38 47.38 0 0 1  710.63 568.5 L 710.63 615.88" fill="#141414"/><rect x="710.63" y="568.5" width="47.38" height="47.38" fill="#F9D423"/><path d="M 710.63 568.5 A 47.38 47.38 0 0 1 758.01 615.88 L 710.63 615.88" fill="#F9D423"/><rect x="663.25" y="615.88" width="47.38" height="47.38" fill="#F9D423"/><path d="M 663.25 615.88 A 47.38 47.38 0 0 0 710.63 663.26 L 710.63 615.88" fill="#F4F4C8"/><rect x="710.63" y="615.88" width="47.38" height="47.38" fill="#F9D423"/><path d="M 710.63 663.26 A 47.38 47.38 0 0 0 758.01 615.88 L 710.63 615.88" fill="#F4F4C8"/><rect x="758" y="568.5" width="94.75" height="94.75" fill="#8A8847"/><path d="M 758 568.5 A 94.75 94.75 0 0 1 852.75 663.25 L 758 663.25" fill="#8A8847"/><rect x="852.75" y="568.5" width="94.75" height="94.75" fill="#141414"/><rect x="852.75" y="568.5" width="47.38" height="47.38" fill="#F9D423"/><path d="M 852.75 568.5 A 47.38 47.38 0 0 1 900.13 615.88 L 852.75 615.88" fill="#F4F4C8"/><rect x="900.13" y="568.5" width="47.38" height="47.38" fill="#F9D423"/><path d="M 900.13 615.88 A 47.38 47.38 0 0 1  947.51 568.5 L 947.51 615.88" fill="#F4F4C8"/><rect x="852.75" y="615.88" width="47.38" height="47.38" fill="#F9D423"/><path d="M 852.75 663.26 A 47.38 47.38 0 0 0 900.13 615.88 L 852.75 615.88" fill="#8A8847"/><rect x="900.13" y="615.88" width="47.38" height="47.38" fill="#141414"/><path d="M 900.13 615.88 A 47.38 47.38 0 0 0 947.51 663.26 L 947.51 615.88" fill="#141414"/><rect x="947.5" y="568.5" width="94.75" height="94.75" fill="#141414"/><rect x="947.5" y="568.5" width="47.38" height="47.38" fill="#8A8847"/><path d="M 947.5 615.88 A 47.38 47.38 0 0 0 994.88 568.5 L 947.5 568.5" fill="#8A8847"/><rect x="994.88" y="568.5" width="47.38" height="47.38" fill="#8A8847"/><path d="M 994.88 568.5 A 47.38 47.38 0 0 0 1042.26 615.88 L 1042.26 568.5" fill="#8A8847"/><rect x="947.5" y="615.88" width="47.38" height="47.38" fill="#F9D423"/><path d="M 947.5 615.88 A 47.38 47.38 0 0 1 994.88 663.26 L 947.5 663.26" fill="#F4F4C8"/><rect x="994.88" y="615.88" width="47.38" height="47.38" fill="#F4F4C8"/><path d="M 994.88 663.26 A 47.38 47.38 0 0 1  1042.26 615.88 L 1042.26 663.26" fill="#8A8847"/><rect x="1042.25" y="568.5" width="94.75" height="94.75" fill="#141414"/><rect x="1042.25" y="568.5" width="94.75" height="94.75" fill="#F4F4C8"/><rect x="1137" y="568.5" width="94.75" height="94.75" fill="#141414"/><rect x="1137" y="568.5" width="47.38" height="47.38" fill="#F4F4C8"/><circle cx="1160.69" cy="592.19" r="23.69" fill="#F4F4C8"/><rect x="1184.38" y="568.5" width="47.38" height="47.38" fill="#141414"/><rect x="1184.38" y="568.5" width="47.38" height="47.38" fill="#F9D423"/><rect x="1137" y="615.88" width="47.38" height="47.38" fill="#141414"/><circle cx="1160.69" cy="639.57" r="23.69" fill="#141414"/><rect x="1184.38" y="615.88" width="47.38" height="47.38" fill="#141414"/><rect x="1184.38" y="615.88" width="47.38" height="47.38" fill="#141414"/><rect x="1231.75" y="568.5" width="94.75" height="94.75" fill="#8A8847"/><polygon points="1231.75,568.5 1326.5,568.5 1231.75,663.25" fill="#8A8847"/><rect x="1326.5" y="568.5" width="94.75" height="94.75" fill="#141414"/><polygon points="1326.5,568.5 1421.25,568.5 1421.25,663.25" fill="#F9D423"/><rect x="1421.25" y="568.5" width="94.75" height="94.75" fill="#141414"/><rect x="1421.25" y="568.5" width="47.38" height="47.38" fill="#141414"/><polygon points="1421.25,568.5 1468.63,568.5 1421.25,615.88" fill="#141414"/><rect x="1468.63" y="568.5" width="47.38" height="47.38" fill="#8A8847"/><polygon points="1468.63,568.5 1516.0100000000002,568.5 1516.0100000000002,615.88" fill="#141414"/><rect x="1421.25" y="615.88" width="47.38" height="47.38" fill="#8A8847"/><polygon points="1468.63,615.88 1468.63,663.26 1421.25,663.26" fill="#141414"/><rect x="1468.63" y="615.88" width="47.38" height="47.38" fill="#F4F4C8"/><polygon points="1468.63,615.88 1516.0100000000002,663.26 1468.63,663.26" fill="#F4F4C8"/><rect x="1516" y="568.5" width="94.75" height="94.75" fill="#141414"/><rect x="1516" y="568.5" width="47.38" height="47.38" fill="#F9D423"/><path d="M 1516 615.88 A 47.38 47.38 0 0 1  1563.38 568.5 L 1563.38 615.88" fill="#8A8847"/><rect x="1563.38" y="568.5" width="47.38" height="47.38" fill="#8A8847"/><path d="M 1563.38 568.5 A 47.38 47.38 0 0 1 1610.7600000000002 615.88 L 1563.38 615.88" fill="#8A8847"/><rect x="1516" y="615.88" width="47.38" height="47.38" fill="#F9D423"/><path d="M 1516 615.88 A 47.38 47.38 0 0 0 1563.38 663.26 L 1563.38 615.88" fill="#F4F4C8"/><rect x="1563.38" y="615.88" width="47.38" height="47.38" fill="#F4F4C8"/><path d="M 1563.38 663.26 A 47.38 47.38 0 0 0 1610.7600000000002 615.88 L 1563.38 615.88" fill="#141414"/><rect x="1610.75" y="568.5" width="94.75" height="94.75" fill="#F4F4C8"/><polygon points="1610.75,568.5 1705.5,663.25 1610.75,663.25" fill="#F9D423"/><rect x="1705.5" y="568.5" width="94.75" height="94.75" fill="#141414"/><rect x="1705.5" y="568.5" width="47.38" height="47.38" fill="#141414"/><path d="M 1705.5 615.88 A 47.38 47.38 0 0 0 1752.88 568.5 L 1705.5 568.5" fill="#F4F4C8"/><rect x="1752.88" y="568.5" width="47.38" height="47.38" fill="#F4F4C8"/><path d="M 1752.88 568.5 A 47.38 47.38 0 0 0 1800.2600000000002 615.88 L 1800.2600000000002 568.5" fill="#F9D423"/><rect x="1705.5" y="615.88" width="47.38" height="47.38" fill="#8A8847"/><path d="M 1705.5 615.88 A 47.38 47.38 0 0 1 1752.88 663.26 L 1705.5 663.26" fill="#8A8847"/><rect x="1752.88" y="615.88" width="47.38" height="47.38" fill="#F9D423"/><path d="M 1752.88 663.26 A 47.38 47.38 0 0 1  1800.2600000000002 615.88 L 1800.2600000000002 663.26" fill="#F4F4C8"/><rect x="1800.25" y="568.5" width="94.75" height="94.75" fill="#F9D423"/><rect x="1800.25" y="568.5" width="94.75" height="94.75" fill="#F4F4C8"/><rect x="1895" y="568.5" width="94.75" height="94.75" fill="#141414"/><path d="M 1895 568.5 A 94.75 94.75 0 0 1  1989.75 663.25 L 1895 568.5 A 94.75 94.75 0 0 0 1989.75 663.25" fill="#141414"/><rect x="1989.75" y="568.5" width="94.75" height="94.75" fill="#F9D423"/><path d="M 1989.75 568.5 A 94.75 94.75 0 0 1  2084.5 663.25 L 1989.75 568.5 A 94.75 94.75 0 0 0 2084.5 663.25" fill="#8A8847"/><rect x="0" y="663.25" width="94.75" height="94.75" fill="#8A8847"/><polygon points="0,663.25 94.75,663.25 0,758" fill="#8A8847"/><rect x="94.75" y="663.25" width="94.75" height="94.75" fill="#141414"/><rect x="94.75" y="663.25" width="47.38" height="47.38" fill="#F9D423"/><path d="M 94.75 710.63 A 47.38 47.38 0 0 1  142.13 663.25 L 142.13 710.63" fill="#141414"/><rect x="142.13" y="663.25" width="47.38" height="47.38" fill="#8A8847"/><path d="M 142.13 663.25 A 47.38 47.38 0 0 1 189.51 710.63 L 142.13 710.63" fill="#F4F4C8"/><rect x="94.75" y="710.63" width="47.38" height="47.38" fill="#F4F4C8"/><path d="M 94.75 710.63 A 47.38 47.38 0 0 0 142.13 758.01 L 142.13 710.63" fill="#8A8847"/><rect x="142.13" y="710.63" width="47.38" height="47.38" fill="#F9D423"/><path d="M 142.13 758.01 A 47.38 47.38 0 0 0 189.51 710.63 L 142.13 710.63" fill="#F9D423"/><rect x="189.5" y="663.25" width="94.75" height="94.75" fill="#F4F4C8"/><path d="M 189.5 758 A 94.75 94.75 0 0 0 284.25 663.25 L 189.5 663.25" fill="#F9D423"/><rect x="284.25" y="663.25" width="94.75" height="94.75" fill="#F4F4C8"/><rect x="284.25" y="663.25" width="94.75" height="94.75" fill="#F9D423"/><rect x="379" y="663.25" width="94.75" height="94.75" fill="#F9D423"/><rect x="379" y="663.25" width="94.75" height="94.75" fill="#F9D423"/><rect x="473.75" y="663.25" width="94.75" height="94.75" fill="#8A8847"/><polygon points="568.5,663.25 568.5,758 473.75,758" fill="#F4F4C8"/><rect x="568.5" y="663.25" width="94.75" height="94.75" fill="#141414"/><rect x="568.5" y="663.25" width="47.38" height="47.38" fill="#F9D423"/><path d="M 568.5 663.25 A 47.38 47.38 0 0 1 615.88 710.63 L 568.5 710.63" fill="#F9D423"/><rect x="615.88" y="663.25" width="47.38" height="47.38" fill="#F4F4C8"/><path d="M 615.88 710.63 A 47.38 47.38 0 0 1  663.26 663.25 L 663.26 710.63" fill="#F4F4C8"/><rect x="568.5" y="710.63" width="47.38" height="47.38" fill="#141414"/><path d="M 568.5 758.01 A 47.38 47.38 0 0 0 615.88 710.63 L 568.5 710.63" fill="#F9D423"/><rect x="615.88" y="710.63" width="47.38" height="47.38" fill="#F9D423"/><path d="M 615.88 710.63 A 47.38 47.38 0 0 0 663.26 758.01 L 663.26 710.63" fill="#141414"/><rect x="663.25" y="663.25" width="94.75" height="94.75" fill="#141414"/><rect x="663.25" y="663.25" width="94.75" height="94.75" fill="#141414"/><rect x="758" y="663.25" width="94.75" height="94.75" fill="#141414"/><rect x="758" y="663.25" width="47.38" height="47.38" fill="#F9D423"/><path d="M 758 663.25 A 47.38 47.38 0 0 0 805.38 710.63 L 805.38 663.25" fill="#141414"/><rect x="805.38" y="663.25" width="47.38" height="47.38" fill="#141414"/><path d="M 805.38 710.63 A 47.38 47.38 0 0 0 852.76 663.25 L 805.38 663.25" fill="#F4F4C8"/><rect x="758" y="710.63" width="47.38" height="47.38" fill="#141414"/><path d="M 758 758.01 A 47.38 47.38 0 0 1  805.38 710.63 L 805.38 758.01" fill="#F9D423"/><rect x="805.38" y="710.63" width="47.38" height="47.38" fill="#F4F4C8"/><path d="M 805.38 710.63 A 47.38 47.38 0 0 1 852.76 758.01 L 805.38 758.01" fill="#F9D423"/><rect x="852.75" y="663.25" width="94.75" height="94.75" fill="#8A8847"/><rect x="852.75" y="663.25" width="94.75" height="94.75" fill="#F4F4C8"/><rect x="947.5" y="663.25" width="94.75" height="94.75" fill="#F4F4C8"/><path d="M 947.5 663.25 A 94.75 94.75 0 0 1 1042.25 758 L 947.5 758" fill="#8A8847"/><rect x="1042.25" y="663.25" width="94.75" height="94.75" fill="#8A8847"/><polygon points="1042.25,663.25 1137,663.25 1137,758" fill="#F9D423"/><rect x="1137" y="663.25" width="94.75" height="94.75" fill="#F4F4C8"/><rect x="1137" y="663.25" width="94.75" height="94.75" fill="#F9D423"/><rect x="1231.75" y="663.25" width="94.75" height="94.75" fill="#141414"/><rect x="1231.75" y="663.25" width="47.38" height="47.38" fill="#141414"/><path d="M 1231.75 710.63 A 47.38 47.38 0 0 0 1279.13 663.25 L 1231.75 663.25" fill="#F9D423"/><rect x="1279.13" y="663.25" width="47.38" height="47.38" fill="#141414"/><path d="M 1279.13 663.25 A 47.38 47.38 0 0 0 1326.5100000000002 710.63 L 1326.5100000000002 663.25" fill="#F9D423"/><rect x="1231.75" y="710.63" width="47.38" height="47.38" fill="#8A8847"/><path d="M 1231.75 710.63 A 47.38 47.38 0 0 1 1279.13 758.01 L 1231.75 758.01" fill="#141414"/><rect x="1279.13" y="710.63" width="47.38" height="47.38" fill="#F9D423"/><path d="M 1279.13 758.01 A 47.38 47.38 0 0 1  1326.5100000000002 710.63 L 1326.5100000000002 758.01" fill="#F4F4C8"/><rect x="1326.5" y="663.25" width="94.75" height="94.75" fill="#8A8847"/><path d="M 1326.5 663.25 A 94.75 94.75 0 0 1  1421.25 758 L 1326.5 663.25 A 94.75 94.75 0 0 0 1421.25 758" fill="#8A8847"/><rect x="1421.25" y="663.25" width="94.75" height="94.75" fill="#141414"/><rect x="1421.25" y="663.25" width="47.38" height="47.38" fill="#141414"/><path d="M 1421.25 710.63 A 47.38 47.38 0 0 1 1468.63 663.25 L 1468.63 675.095 A 35.535000000000004 35.535000000000004 0 0 0 1433.095 710.63" fill="#141414"/><rect x="1468.63" y="663.25" width="47.38" height="47.38" fill="#141414"/><path d="M 1468.63 663.25 A 47.38 47.38 0 0 1 1516.0100000000002 710.63 L 1504.1650000000002 710.63 A 35.535000000000004 35.535000000000004 0 0 0 1468.63 675.095" fill="#8A8847"/><rect x="1421.25" y="710.63" width="47.38" height="47.38" fill="#8A8847"/><path d="M 1421.25 710.63 A 47.38 47.38 0 0 0 1468.63 758.01 L 1468.63 746.165 A 35.535000000000004 35.535000000000004 0 0 1 1433.095 710.63" fill="#F4F4C8"/><rect x="1468.63" y="710.63" width="47.38" height="47.38" fill="#F4F4C8"/><path d="M 1468.63 758.01 A 47.38 47.38 0 0 0 1516.0100000000002 710.63 L 1504.1650000000002 710.63 A 35.535000000000004 35.535000000000004 0 0 1 1468.63 746.165" fill="#F9D423"/><rect x="1516" y="663.25" width="94.75" height="94.75" fill="#F9D423"/><path d="M 1516 663.25 A 94.75 94.75 0 0 0 1610.75 758 L 1610.75 663.25" fill="#8A8847"/><rect x="1610.75" y="663.25" width="94.75" height="94.75" fill="#8A8847"/><polygon points="1610.75,663.25 1705.5,663.25 1610.75,758" fill="#F9D423"/><rect x="1705.5" y="663.25" width="94.75" height="94.75" fill="#141414"/><rect x="1705.5" y="663.25" width="47.38" height="47.38" fill="#F9D423"/><path d="M 1705.5 663.25 A 47.38 47.38 0 0 1 1752.88 710.63 L 1705.5 710.63" fill="#F4F4C8"/><rect x="1752.88" y="663.25" width="47.38" height="47.38" fill="#8A8847"/><path d="M 1752.88 710.63 A 47.38 47.38 0 0 1  1800.2600000000002 663.25 L 1800.2600000000002 710.63" fill="#8A8847"/><rect x="1705.5" y="710.63" width="47.38" height="47.38" fill="#8A8847"/><path d="M 1705.5 758.01 A 47.38 47.38 0 0 0 1752.88 710.63 L 1705.5 710.63" fill="#F9D423"/><rect x="1752.88" y="710.63" width="47.38" height="47.38" fill="#F9D423"/><path d="M 1752.88 710.63 A 47.38 47.38 0 0 0 1800.2600000000002 758.01 L 1800.2600000000002 710.63" fill="#8A8847"/><rect x="1800.25" y="663.25" width="94.75" height="94.75" fill="#F4F4C8"/><path d="M 1800.25 758 A 94.75 94.75 0 0 1  1895 663.25 L 1895 758" fill="#F9D423"/><rect x="1895" y="663.25" width="94.75" height="94.75" fill="#8A8847"/><rect x="1895" y="663.25" width="94.75" height="94.75" fill="#8A8847"/><rect x="1989.75" y="663.25" width="94.75" height="94.75" fill="#F4F4C8"/><path d="M 1989.75 663.25 A 94.75 94.75 0 0 1  2084.5 758 L 1989.75 663.25 A 94.75 94.75 0 0 0 2084.5 758" fill="#F4F4C8"/></g></svg>