<?xml version="1.0" standalone="no"?><svg xmlns:xlink="http://www.w3.org/1999/xlink" xmlns="http://www.w3.org/2000/svg" viewBox="0 0 500 285.7142857142857" preserveAspectRatio="xMaxYMax slice"><g transform="scale(0.3908540160250147)"><rect x="0" y="0" width="1279.25" height="731" fill="#ffffff"/><rect x="0" y="0" width="91.38" height="91.38" fill="#f0e13e"/><rect x="0" y="0" width="91.38" height="91.38" fill="#dfdfde"/><rect x="91.38" y="0" width="91.38" height="91.38" fill="#f3f3f2"/><polygon points="91.38,0 182.76,0 182.76,91.38" fill="#fdfbe7"/><rect x="182.75" y="0" width="91.38" height="91.38" fill="#e8e8d0"/><rect x="182.75" y="0" width="91.38" height="91.38" fill="#d8d8d7"/><rect x="274.13" y="0" width="91.38" height="91.38" fill="#484743"/><polygon points="365.51,0 365.51,91.38 274.13,91.38" fill="#fbf7c9"/><rect x="365.5" y="0" width="91.375" height="91.375" fill="#ffffff"/><rect x="365.5" y="0" width="45.69" height="45.69" fill="#f6f6ee"/><path d="M 365.5 0 A 45.69 45.69 0 0 1 411.19 45.69 L 365.5 45.69" fill="#f8f1a4"/><rect x="411.19" y="0" width="45.69" height="45.69" fill="#fbf9d1"/><path d="M 411.19 45.69 A 45.69 45.69 0 0 1  456.88 0 L 456.88 45.69" fill="#f4e972"/><rect x="365.5" y="45.69" width="45.69" height="45.69" fill="#eedd24"/><path d="M 365.5 91.38 A 45.69 45.69 0 0 0 411.19 45.69 L 365.5 45.69" fill="#fdfae0"/><rect x="411.19" y="45.69" width="45.69" height="45.69" fill="#a0a199"/><path d="M 411.19 45.69 A 45.69 45.69 0 0 0 456.88 91.38 L 456.88 45.69" fill="#e9e9d3"/><rect x="456.88" y="0" width="91.38" height="91.38" fill="#cdcdcc"/><rect x="456.88" y="0" width="91.38" height="91.38" fill="#fcfad7"/><rect x="548.25" y="0" width="91.38" height="91.38" fill="#2e2d29"/><polygon points="548.25,0 639.63,91.38 548.25,91.38" fill="#f8f2a9"/><rect x="639.63" y="0" width="91.38" height="91.38" fill="#5d5c58"/><rect x="639.63" y="0" width="91.38" height="91.38" fill="#83847a"/><rect x="731" y="0" width="91.375" height="91.375" fill="#ffffff"/><rect x="731" y="0" width="45.69" height="45.69" fill="#f0e141"/><path d="M 731 0 A 45.69 45.69 0 0 0 776.69 45.69 L 776.69 0" fill="#f0f0e1"/><rect x="776.69" y="0" width="45.69" height="45.69" fill="#f7ef97"/><path d="M 776.69 45.69 A 45.69 45.69 0 0 0 822.3800000000001 0 L 776.69 0" fill="#dcdcb7"/><rect x="731" y="45.69" width="45.69" height="45.69" fill="#fdfce8"/><path d="M 731 91.38 A 45.69 45.69 0 0 1  776.69 45.69 L 776.69 91.38" fill="#bdbd79"/><rect x="776.69" y="45.69" width="45.69" height="45.69" fill="#8a8a87"/><path d="M 776.69 45.69 A 45.69 45.69 0 0 1 822.3800000000001 91.38 L 776.69 91.38" fill="#efe637"/><rect x="822.38" y="0" width="91.38" height="91.38" fill="#b0b0aa"/><rect x="822.38" y="0" width="91.38" height="91.38" fill="#f0e03b"/><rect x="913.75" y="0" width="91.38" height="91.38" fill="#fcfadb"/><polygon points="913.75,0 1005.13,0 1005.13,91.38" fill="#f5ef81"/><rect x="1005.13" y="0" width="91.38" height="91.38" fill="#81807d"/><rect x="1005.13" y="0" width="91.38" height="91.38" fill="#ece218"/><rect x="1096.5" y="0" width="91.375" height="91.375" fill="#ffffff"/><rect x="1096.5" y="0" width="45.69" height="45.69" fill="#f3e764"/><path d="M 1096.5 45.69 A 45.69 45.69 0 0 0 1142.19 0 L 1096.5 0" fill="#f6f18e"/><rect x="1142.19" y="0" width="45.69" height="45.69" fill="#e7e7ce"/><path d="M 1142.19 0 A 45.69 45.69 0 0 0 1187.88 45.69 L 1187.88 0" fill="#fefefe"/><rect x="1096.5" y="45.69" width="45.69" height="45.69" fill="#5a5955"/><path d="M 1096.5 45.69 A 45.69 45.69 0 0 1 1142.19 91.38 L 1096.5 91.38" fill="#fefdf1"/><rect x="1142.19" y="45.69" width="45.69" height="45.69" fill="#f9f3b4"/><path d="M 1142.19 91.38 A 45.69 45.69 0 0 1  1187.88 45.69 L 1187.88 91.38" fill="#f6f7f6"/><rect x="1187.88" y="0" width="91.38" height="91.38" fill="#fafaf5"/><path d="M 1187.88 0 A 91.38 91.38 0 0 1  1279.2600000000002 91.38 L 1187.88 0 A 91.38 91.38 0 0 0 1279.2600000000002 91.38" fill="#9e9f97"/><rect x="0" y="91.38" width="91.38" height="91.38" fill="#f5ec85"/><path d="M 0 91.38 A 91.38 91.38 0 0 0 91.38 182.76 L 91.38 91.38" fill="#3a3935"/><rect x="91.375" y="91.375" width="91.375" height="91.375" fill="#ffffff"/><rect x="91.38" y="91.38" width="45.69" height="45.69" fill="#f5ef80"/><polygon points="91.38,91.38 137.07,91.38 91.38,137.07" fill="#fcfad6"/><rect x="137.06" y="91.38" width="45.69" height="45.69" fill="#7c7c79"/><polygon points="182.75,91.38 182.75,137.07 137.06,137.07" fill="#403f3a"/><rect x="91.38" y="137.06" width="45.69" height="45.69" fill="#efdf31"/><polygon points="91.38,137.06 137.07,137.06 137.07,182.75" fill="#cacbc6"/><rect x="137.06" y="137.06" width="45.69" height="45.69" fill="#f7ef9b"/><polygon points="137.06,137.06 182.75,182.75 137.06,182.75" fill="#f4e973"/><rect x="182.75" y="91.375" width="91.375" height="91.375" fill="#ffffff"/><rect x="182.75" y="91.38" width="45.69" height="45.69" fill="#ececea"/><path d="M 182.75 137.07 A 45.69 45.69 0 0 1 228.44 91.38 L 228.44 102.8025 A 34.2675 34.2675 0 0 0 194.1725 137.07" fill="#727368"/><rect x="228.44" y="91.38" width="45.69" height="45.69" fill="#f7f299"/><path d="M 228.44 91.38 A 45.69 45.69 0 0 1 274.13 137.07 L 262.7075 137.07 A 34.2675 34.2675 0 0 0 228.44 102.8025" fill="#e3e3c5"/><rect x="182.75" y="137.06" width="45.69" height="45.69" fill="#a1a09e"/><path d="M 182.75 137.06 A 45.69 45.69 0 0 0 228.44 182.75 L 228.44 171.3275 A 34.2675 34.2675 0 0 1 194.1725 137.06" fill="#f5f5eb"/><rect x="228.44" y="137.06" width="45.69" height="45.69" fill="#f7f39e"/><path d="M 228.44 182.75 A 45.69 45.69 0 0 0 274.13 137.06 L 262.7075 137.06 A 34.2675 34.2675 0 0 1 228.44 171.3275" fill="#f3ec69"/><rect x="274.13" y="91.38" width="91.38" height="91.38" fill="#fdfce3"/><polygon points="274.13,91.38 365.51,91.38 365.51,182.76" fill="#54544f"/><rect x="365.5" y="91.375" width="91.375" height="91.375" fill="#ffffff"/><rect x="365.5" y="91.38" width="45.69" height="45.69" fill="#d3d3d2"/><path d="M 365.5 137.07 A 45.69 45.69 0 0 1  411.19 91.38 L 411.19 137.07" fill="#f3e768"/><rect x="411.19" y="91.38" width="45.69" height="45.69" fill="#6b6c60"/><path d="M 411.19 91.38 A 45.69 45.69 0 0 1 456.88 137.07 L 411.19 137.07" fill="#e7e7e6"/><rect x="365.5" y="137.06" width="45.69" height="45.69" fill="#e3e3e1"/><path d="M 365.5 137.06 A 45.69 45.69 0 0 0 411.19 182.75 L 411.19 137.06" fill="#f7f29c"/><rect x="411.19" y="137.06" width="45.69" height="45.69" fill="#faf5c1"/><path d="M 411.19 182.75 A 45.69 45.69 0 0 0 456.88 137.06 L 411.19 137.06" fill="#f9f5b3"/><rect x="456.88" y="91.38" width="91.38" height="91.38" fill="#e1e1e0"/><rect x="456.88" y="91.38" width="91.38" height="91.38" fill="#dbdbd8"/><rect x="548.25" y="91.38" width="91.38" height="91.38" fill="#e2e2c4"/><path d="M 548.25 182.76 A 91.38 91.38 0 0 0 639.63 91.38 L 548.25 91.38" fill="#afaeac"/><rect x="639.63" y="91.38" width="91.38" height="91.38" fill="#6e6f63"/><polygon points="639.63,91.38 731.01,182.76 639.63,182.76" fill="#eedd26"/><rect x="731" y="91.375" width="91.375" height="91.375" fill="#ffffff"/><rect x="731" y="91.38" width="45.69" height="45.69" fill="#f7f296"/><path d="M 731 137.07 A 45.69 45.69 0 0 1 776.69 91.38 L 776.69 102.8025 A 34.2675 34.2675 0 0 0 742.4225 137.07" fill="#eedc20"/><rect x="776.69" y="91.38" width="45.69" height="45.69" fill="#e4e4c9"/><path d="M 776.69 91.38 A 45.69 45.69 0 0 1 822.3800000000001 137.07 L 810.9575000000001 137.07 A 34.2675 34.2675 0 0 0 776.69 102.8025" fill="#f5ec85"/><rect x="731" y="137.06" width="45.69" height="45.69" fill="#ede219"/><path d="M 731 137.06 A 45.69 45.69 0 0 0 776.69 182.75 L 776.69 171.3275 A 34.2675 34.2675 0 0 1 742.4225 137.06" fill="#fdfdec"/><rect x="776.69" y="137.06" width="45.69" height="45.69" fill="#aaa9a7"/><path d="M 776.69 182.75 A 45.69 45.69 0 0 0 822.3800000000001 137.06 L 810.9575000000001 137.06 A 34.2675 34.2675 0 0 1 776.69 171.3275" fill="#eee327"/><rect x="822.38" y="91.38" width="91.38" height="91.38" fill="#efe638"/><polygon points="822.38,91.38 913.76,91.38 822.38,182.76" fill="#f2e65f"/><rect x="913.75" y="91.38" width="91.38" height="91.38" fill="#f7f7ef"/><polygon points="913.75,91.38 1005.13,91.38 913.75,182.76" fill="#cccbca"/><rect x="1005.13" y="91.38" width="91.38" height="91.38" fill="#8a8986"/><path d="M 1005.13 182.76 A 91.38 91.38 0 0 1  1096.51 91.38 L 1005.13 182.76 A 91.38 91.38 0 0 0 1096.51 91.38" fill="#d1d0cf"/><rect x="1096.5" y="91.38" width="91.38" height="91.38" fill="#f8f8f0"/><rect x="1096.5" y="91.38" width="91.38" height="91.38" fill="#c4c4c2"/><rect x="1187.88" y="91.38" width="91.38" height="91.38" fill="#f0f0e1"/><path d="M 1187.88 91.38 A 91.38 91.38 0 0 1  1279.2600000000002 182.76 L 1187.88 91.38 A 91.38 91.38 0 0 0 1279.2600000000002 182.76" fill="#d4d3d2"/><rect x="0" y="182.75" width="91.38" height="91.38" fill="#fbfbf7"/><polygon points="91.38,182.75 91.38,274.13 0,274.13" fill="#3e3d38"/><rect x="91.375" y="182.75" width="91.375" height="91.375" fill="#ffffff"/><rect x="91.38" y="182.75" width="45.69" height="45.69" fill="#96978f"/><path d="M 91.38 228.44 A 45.69 45.69 0 0 1  137.07 182.75 L 137.07 228.44" fill="#8f9087"/><rect x="137.06" y="182.75" width="45.69" height="45.69" fill="#f8f4a6"/><path d="M 137.06 182.75 A 45.69 45.69 0 0 1 182.75 228.44 L 137.06 228.44" fill="#efe63c"/><rect x="91.38" y="228.44" width="45.69" height="45.69" fill="#cece9c"/><path d="M 91.38 228.44 A 45.69 45.69 0 0 0 137.07 274.13 L 137.07 228.44" fill="#fffffe"/><rect x="137.06" y="228.44" width="45.69" height="45.69" fill="#fdfbe8"/><path d="M 137.06 274.13 A 45.69 45.69 0 0 0 182.75 228.44 L 137.06 228.44" fill="#494844"/><rect x="182.75" y="182.75" width="91.38" height="91.38" fill="#f6ed8c"/><path d="M 182.75 274.13 A 91.38 91.38 0 0 0 274.13 182.75 L 182.75 182.75" fill="#6c6b67"/><rect x="274.13" y="182.75" width="91.38" height="91.38" fill="#53524e"/><rect x="274.13" y="182.75" width="91.38" height="91.38" fill="#f9f9f3"/><rect x="365.5" y="182.75" width="91.38" height="91.38" fill="#f3e86a"/><rect x="365.5" y="182.75" width="91.38" height="91.38" fill="#eeeedc"/><rect x="456.88" y="182.75" width="91.38" height="91.38" fill="#fbf9cf"/><polygon points="456.88,182.75 548.26,182.75 548.26,274.13" fill="#fbf6c6"/><rect x="548.25" y="182.75" width="91.38" height="91.38" fill="#fbfbf7"/><path d="M 548.25 182.75 A 91.38 91.38 0 0 1 639.63 274.13 L 548.25 274.13" fill="#868582"/><rect x="639.63" y="182.75" width="91.38" height="91.38" fill="#f1f1f1"/><polygon points="639.63,182.75 731.01,182.75 639.63,274.13" fill="#faf7c0"/><rect x="731" y="182.75" width="91.38" height="91.38" fill="#f7f297"/><path d="M 731 274.13 A 91.38 91.38 0 0 1  822.38 182.75 L 822.38 274.13" fill="#f3e86b"/><rect x="822.38" y="182.75" width="91.38" height="91.38" fill="#a2a39b"/><rect x="822.38" y="182.75" width="91.38" height="91.38" fill="#eee531"/><rect x="913.75" y="182.75" width="91.38" height="91.38" fill="#909188"/><path d="M 913.75 274.13 A 91.38 91.38 0 0 1  1005.13 182.75 L 1005.13 274.13" fill="#fdfcea"/><rect x="1005.13" y="182.75" width="91.38" height="91.38" fill="#a1a09e"/><path d="M 1005.13 182.75 A 91.38 91.38 0 0 1  1096.51 274.13 L 1005.13 182.75 A 91.38 91.38 0 0 0 1096.51 274.13" fill="#b3b2b0"/><rect x="1096.5" y="182.75" width="91.38" height="91.38" fill="#8d8e85"/><rect x="1096.5" y="182.75" width="91.38" height="91.38" fill="#b4b4ae"/><rect x="1187.88" y="182.75" width="91.38" height="91.38" fill="#eaeaea"/><path d="M 1187.88 182.75 A 91.38 91.38 0 0 1  1279.2600000000002 274.13 L 1187.88 182.75 A 91.38 91.38 0 0 0 1279.2600000000002 274.13" fill="#dadab3"/><rect x="0" y="274.13" width="91.38" height="91.38" fill="#d2d2a4"/><rect x="0" y="274.13" width="91.38" height="91.38" fill="#83847a"/><rect x="91.38" y="274.13" width="91.38" height="91.38" fill="#3a3934"/><path d="M 91.38 274.13 A 91.38 91.38 0 0 1 182.76 365.51 L 91.38 365.51" fill="#fefef4"/><rect x="182.75" y="274.13" width="91.38" height="91.38" fill="#d0d0a1"/><polygon points="182.75,274.13 274.13,274.13 274.13,365.51" fill="#b8b86e"/><rect x="274.13" y="274.13" width="91.38" height="91.38" fill="#575653"/><rect x="274.13" y="274.13" width="91.38" height="91.38" fill="#c9c991"/><rect x="365.5" y="274.125" width="91.375" height="91.375" fill="#ffffff"/><rect x="365.5" y="274.13" width="45.69" height="45.69" fill="#faf7c1"/><polygon points="365.5,274.13 411.19,274.13 365.5,319.82" fill="#979890"/><rect x="411.19" y="274.13" width="45.69" height="45.69" fill="#6a6b5f"/><polygon points="456.88,274.13 456.88,319.82 411.19,319.82" fill="#fcf9da"/><rect x="365.5" y="319.81" width="45.69" height="45.69" fill="#f0f0e0"/><polygon points="365.5,319.81 411.19,319.81 411.19,365.5" fill="#efe638"/><rect x="411.19" y="319.81" width="45.69" height="45.69" fill="#5e5d59"/><polygon points="411.19,319.81 456.88,365.5 411.19,365.5" fill="#bfbf7c"/><rect x="456.88" y="274.13" width="91.38" height="91.38" fill="#fcfcf9"/><polygon points="456.88,274.13 548.26,274.13 456.88,365.51" fill="#fbf7cf"/><rect x="548.25" y="274.13" width="91.38" height="91.38" fill="#f0e245"/><path d="M 548.25 274.13 A 91.38 91.38 0 0 1 639.63 365.51 L 548.25 365.51" fill="#44433f"/><rect x="639.625" y="274.125" width="91.375" height="91.375" fill="#ffffff"/><rect x="639.63" y="274.13" width="45.69" height="45.69" fill="#8e8f85"/><polygon points="639.63,274.13 685.3199999999999,274.13 639.63,319.82" fill="#b7b76e"/><rect x="685.31" y="274.13" width="45.69" height="45.69" fill="#f0e140"/><polygon points="685.31,274.13 731,274.13 731,319.82" fill="#bfc0bb"/><rect x="639.63" y="319.81" width="45.69" height="45.69" fill="#d7d7d4"/><polygon points="685.3199999999999,319.81 685.3199999999999,365.5 639.63,365.5" fill="#fffefb"/><rect x="685.31" y="319.81" width="45.69" height="45.69" fill="#f2f2e4"/><polygon points="685.31,319.81 731,365.5 685.31,365.5" fill="#eee531"/><rect x="731" y="274.13" width="91.38" height="91.38" fill="#f5f088"/><rect x="731" y="274.13" width="91.38" height="91.38" fill="#bfbfba"/><rect x="822.38" y="274.13" width="91.38" height="91.38" fill="#f3ec68"/><polygon points="822.38,274.13 913.76,274.13 822.38,365.51" fill="#fefdf3"/><rect x="913.75" y="274.13" width="91.38" height="91.38" fill="#f2ea5e"/><rect x="913.75" y="274.13" width="91.38" height="91.38" fill="#f3ec69"/><rect x="1005.13" y="274.13" width="91.38" height="91.38" fill="#ebebea"/><polygon points="1005.13,274.13 1096.51,274.13 1005.13,365.51" fill="#ede21c"/><rect x="1096.5" y="274.13" width="91.38" height="91.38" fill="#ede31f"/><polygon points="1096.5,274.13 1187.88,365.51 1096.5,365.51" fill="#d8d8d7"/><rect x="1187.88" y="274.13" width="91.38" height="91.38" fill="#d9d9b2"/><rect x="1187.88" y="274.13" width="91.38" height="91.38" fill="#868683"/><rect x="0" y="365.5" width="91.38" height="91.38" fill="#f3e763"/><polygon points="0,365.5 91.38,365.5 91.38,456.88" fill="#f7f7f7"/><rect x="91.38" y="365.5" width="91.38" height="91.38" fill="#b2b3ad"/><path d="M 91.38 365.5 A 91.38 91.38 0 0 1 182.76 456.88 L 91.38 456.88" fill="#f4f4f4"/><rect x="182.75" y="365.5" width="91.38" height="91.38" fill="#f6ee90"/><polygon points="274.13,365.5 274.13,456.88 182.75,456.88" fill="#f8f8f7"/><rect x="274.13" y="365.5" width="91.38" height="91.38" fill="#93948b"/><rect x="274.13" y="365.5" width="91.38" height="91.38" fill="#8f9087"/><rect x="365.5" y="365.5" width="91.38" height="91.38" fill="#c6c7c2"/><path d="M 365.5 365.5 A 91.38 91.38 0 0 1  456.88 456.88 L 365.5 365.5 A 91.38 91.38 0 0 0 456.88 456.88" fill="#f2ea58"/><rect x="456.88" y="365.5" width="91.38" height="91.38" fill="#f3e765"/><polygon points="456.88,365.5 548.26,456.88 456.88,456.88" fill="#baba73"/><rect x="548.25" y="365.5" width="91.375" height="91.375" fill="#ffffff"/><rect x="548.25" y="365.5" width="45.69" height="45.69" fill="#c1c181"/><path d="M 548.25 365.5 A 45.69 45.69 0 0 1 593.94 411.19 L 548.25 411.19" fill="#fbf9d1"/><rect x="593.94" y="365.5" width="45.69" height="45.69" fill="#8b8b88"/><path d="M 593.94 411.19 A 45.69 45.69 0 0 1  639.6300000000001 365.5 L 639.6300000000001 411.19" fill="#787774"/><rect x="548.25" y="411.19" width="45.69" height="45.69" fill="#f9f3af"/><path d="M 548.25 456.88 A 45.69 45.69 0 0 0 593.94 411.19 L 548.25 411.19" fill="#efe638"/><rect x="593.94" y="411.19" width="45.69" height="45.69" fill="#e2e2c4"/><path d="M 593.94 411.19 A 45.69 45.69 0 0 0 639.6300000000001 456.88 L 639.6300000000001 411.19" fill="#f0e143"/><rect x="639.63" y="365.5" width="91.38" height="91.38" fill="#f4f4f3"/><rect x="639.63" y="365.5" width="91.38" height="91.38" fill="#e0e0c1"/><rect x="731" y="365.5" width="91.38" height="91.38" fill="#bebe7b"/><path d="M 731 456.88 A 91.38 91.38 0 0 1  822.38 365.5 L 822.38 456.88" fill="#78796e"/><rect x="822.38" y="365.5" width="91.38" height="91.38" fill="#363530"/><rect x="822.38" y="365.5" width="91.38" height="91.38" fill="#f6f6ec"/><rect x="913.75" y="365.5" width="91.375" height="91.375" fill="#ffffff"/><rect x="913.75" y="365.5" width="45.69" height="45.69" fill="#e9e9d2"/><path d="M 913.75 411.19 A 45.69 45.69 0 0 1 959.44 365.5 L 959.44 376.9225 A 34.2675 34.2675 0 0 0 925.1725 411.19" fill="#c5c589"/><rect x="959.44" y="365.5" width="45.69" height="45.69" fill="#ebecea"/><path d="M 959.44 365.5 A 45.69 45.69 0 0 1 1005.1300000000001 411.19 L 993.7075000000001 411.19 A 34.2675 34.2675 0 0 0 959.44 376.9225" fill="#818278"/><rect x="913.75" y="411.19" width="45.69" height="45.69" fill="#c6c68c"/><path d="M 913.75 411.19 A 45.69 45.69 0 0 0 959.44 456.88 L 959.44 445.4575 A 34.2675 34.2675 0 0 1 925.1725 411.19" fill="#fbf6c7"/><rect x="959.44" y="411.19" width="45.69" height="45.69" fill="#565551"/><path d="M 959.44 456.88 A 45.69 45.69 0 0 0 1005.1300000000001 411.19 L 993.7075000000001 411.19 A 34.2675 34.2675 0 0 1 959.44 445.4575" fill="#ede321"/><rect x="1005.13" y="365.5" width="91.38" height="91.38" fill="#e1e1c2"/><path d="M 1005.13 365.5 A 91.38 91.38 0 0 0 1096.51 456.88 L 1096.51 365.5" fill="#cece9b"/><rect x="1096.5" y="365.5" width="91.38" height="91.38" fill="#77786d"/><polygon points="1096.5,365.5 1187.88,365.5 1187.88,456.88" fill="#ede21c"/><rect x="1187.88" y="365.5" width="91.38" height="91.38" fill="#95968d"/><rect x="1187.88" y="365.5" width="91.38" height="91.38" fill="#959492"/><rect x="0" y="456.88" width="91.38" height="91.38" fill="#f9f9f3"/><path d="M 0 456.88 A 91.38 91.38 0 0 1  91.38 548.26 L 0 456.88 A 91.38 91.38 0 0 0 91.38 548.26" fill="#828379"/><rect x="91.38" y="456.88" width="91.38" height="91.38" fill="#a1a19f"/><polygon points="91.38,456.88 182.76,456.88 182.76,548.26" fill="#f7f7ee"/><rect x="182.75" y="456.88" width="91.38" height="91.38" fill="#efe039"/><path d="M 182.75 456.88 A 91.38 91.38 0 0 0 274.13 548.26 L 274.13 456.88" fill="#f1f1e2"/><rect x="274.13" y="456.88" width="91.38" height="91.38" fill="#afafa9"/><rect x="274.13" y="456.88" width="91.38" height="91.38" fill="#92938a"/><rect x="365.5" y="456.88" width="91.38" height="91.38" fill="#ddddba"/><rect x="365.5" y="456.88" width="91.38" height="91.38" fill="#a3a2a0"/><rect x="456.88" y="456.88" width="91.38" height="91.38" fill="#f7ef97"/><polygon points="548.26,456.88 548.26,548.26 456.88,548.26" fill="#fefef7"/><rect x="548.25" y="456.88" width="91.38" height="91.38" fill="#32312c"/><path d="M 548.25 548.26 A 91.38 91.38 0 0 0 639.63 456.88 L 548.25 456.88" fill="#b0b1ab"/><rect x="639.63" y="456.88" width="91.38" height="91.38" fill="#fdfae0"/><rect x="639.63" y="456.88" width="91.38" height="91.38" fill="#f2e454"/><rect x="731" y="456.875" width="91.375" height="91.375" fill="#ffffff"/><rect x="731" y="456.88" width="45.69" height="45.69" fill="#a7a6a4"/><path d="M 731 502.57 A 45.69 45.69 0 0 0 776.69 456.88 L 731 456.88" fill="#bfbf7d"/><rect x="776.69" y="456.88" width="45.69" height="45.69" fill="#c6c6c5"/><path d="M 776.69 456.88 A 45.69 45.69 0 0 0 822.3800000000001 502.57 L 822.3800000000001 456.88" fill="#ecda13"/><rect x="731" y="502.56" width="45.69" height="45.69" fill="#c4c4c3"/><path d="M 731 502.56 A 45.69 45.69 0 0 1 776.69 548.25 L 731 548.25" fill="#f4ea78"/><rect x="776.69" y="502.56" width="45.69" height="45.69" fill="#fcfcfb"/><path d="M 776.69 548.25 A 45.69 45.69 0 0 1  822.3800000000001 502.56 L 822.3800000000001 548.25" fill="#d9d9b2"/><rect x="822.38" y="456.88" width="91.38" height="91.38" fill="#ebebeb"/><polygon points="913.76,456.88 913.76,548.26 822.38,548.26" fill="#f4e970"/><rect x="913.75" y="456.88" width="91.38" height="91.38" fill="#7a7a76"/><rect x="913.75" y="456.88" width="91.38" height="91.38" fill="#d9d9d8"/><rect x="1005.13" y="456.88" width="91.38" height="91.38" fill="#bfbf7d"/><polygon points="1005.13,456.88 1096.51,456.88 1096.51,548.26" fill="#f1f1e3"/><rect x="1096.5" y="456.875" width="91.375" height="91.375" fill="#ffffff"/><rect x="1096.5" y="456.88" width="45.69" height="45.69" fill="#75766b"/><path d="M 1096.5 456.88 A 45.69 45.69 0 0 1 1142.19 502.57 L 1096.5 502.57" fill="#6f7064"/><rect x="1142.19" y="456.88" width="45.69" height="45.69" fill="#f9f9f8"/><path d="M 1142.19 502.57 A 45.69 45.69 0 0 1  1187.88 456.88 L 1187.88 502.57" fill="#bcbc77"/><rect x="1096.5" y="502.56" width="45.69" height="45.69" fill="#fdfdfb"/><path d="M 1096.5 548.25 A 45.69 45.69 0 0 0 1142.19 502.56 L 1096.5 502.56" fill="#f0e73f"/><rect x="1142.19" y="502.56" width="45.69" height="45.69" fill="#f0e742"/><path d="M 1142.19 502.56 A 45.69 45.69 0 0 0 1187.88 548.25 L 1187.88 502.56" fill="#f0e13d"/><rect x="1187.88" y="456.88" width="91.38" height="91.38" fill="#e5e5cb"/><rect x="1187.88" y="456.88" width="91.38" height="91.38" fill="#c4c487"/><rect x="0" y="548.25" width="91.38" height="91.38" fill="#7e7f74"/><polygon points="0,548.25 91.38,548.25 91.38,639.63" fill="#b4b5af"/><rect x="91.375" y="548.25" width="91.375" height="91.375" fill="#ffffff"/><rect x="91.38" y="548.25" width="45.69" height="45.69" fill="#fcf9d7"/><path d="M 91.38 593.94 A 45.69 45.69 0 0 1  137.07 548.25 L 137.07 593.94" fill="#faf5c0"/><rect x="137.06" y="548.25" width="45.69" height="45.69" fill="#efe63c"/><path d="M 137.06 548.25 A 45.69 45.69 0 0 1 182.75 593.94 L 137.06 593.94" fill="#b5b5b3"/><rect x="91.38" y="593.94" width="45.69" height="45.69" fill="#f0f0ee"/><path d="M 91.38 593.94 A 45.69 45.69 0 0 0 137.07 639.6300000000001 L 137.07 593.94" fill="#dedebc"/><rect x="137.06" y="593.94" width="45.69" height="45.69" fill="#ede325"/><path d="M 137.06 639.6300000000001 A 45.69 45.69 0 0 0 182.75 593.94 L 137.06 593.94" fill="#f2ea5b"/><rect x="182.75" y="548.25" width="91.38" height="91.38" fill="#f2eb61"/><polygon points="182.75,548.25 274.13,548.25 182.75,639.63" fill="#eee42c"/><rect x="274.13" y="548.25" width="91.38" height="91.38" fill="#b6b66b"/><polygon points="365.51,548.25 365.51,639.63 274.13,639.63" fill="#f6f089"/><rect x="365.5" y="548.25" width="91.38" height="91.38" fill="#b5b4b3"/><rect x="365.5" y="548.25" width="91.38" height="91.38" fill="#d1d1a1"/><rect x="456.875" y="548.25" width="91.375" height="91.375" fill="#ffffff"/><rect x="456.88" y="548.25" width="45.69" height="45.69" fill="#f3eb65"/><polygon points="456.88,548.25 502.57,548.25 456.88,593.94" fill="#33322d"/><rect x="502.56" y="548.25" width="45.69" height="45.69" fill="#f4ee7a"/><polygon points="502.56,548.25 548.25,548.25 548.25,593.94" fill="#f1f1e3"/><rect x="456.88" y="593.94" width="45.69" height="45.69" fill="#f0e847"/><polygon points="456.88,593.94 502.57,639.6300000000001 456.88,639.6300000000001" fill="#f5eb82"/><rect x="502.56" y="593.94" width="45.69" height="45.69" fill="#f4e975"/><polygon points="548.25,593.94 548.25,639.6300000000001 502.56,639.6300000000001" fill="#f5eb7f"/><rect x="548.25" y="548.25" width="91.375" height="91.375" fill="#ffffff"/><rect x="548.25" y="548.25" width="45.69" height="45.69" fill="#ececd9"/><path d="M 548.25 593.94 A 45.69 45.69 0 0 1 593.94 548.25 L 593.94 559.6725 A 34.2675 34.2675 0 0 0 559.6725 593.94" fill="#c3c3c2"/><rect x="593.94" y="548.25" width="45.69" height="45.69" fill="#ede21d"/><path d="M 593.94 548.25 A 45.69 45.69 0 0 1 639.6300000000001 593.94 L 628.2075000000001 593.94 A 34.2675 34.2675 0 0 0 593.94 559.6725" fill="#f5f087"/><rect x="548.25" y="593.94" width="45.69" height="45.69" fill="#c9c991"/><path d="M 548.25 593.94 A 45.69 45.69 0 0 0 593.94 639.6300000000001 L 593.94 628.2075000000001 A 34.2675 34.2675 0 0 1 559.6725 593.94" fill="#f5eb80"/><rect x="593.94" y="593.94" width="45.69" height="45.69" fill="#6b6a67"/><path d="M 593.94 639.6300000000001 A 45.69 45.69 0 0 0 639.6300000000001 593.94 L 628.2075000000001 593.94 A 34.2675 34.2675 0 0 1 593.94 628.2075000000001" fill="#e7e6e6"/><rect x="639.63" y="548.25" width="91.38" height="91.38" fill="#fbf7c9"/><polygon points="731.01,548.25 731.01,639.63 639.63,639.63" fill="#f3ec6b"/><rect x="731" y="548.25" width="91.38" height="91.38" fill="#dededc"/><polygon points="731,548.25 822.38,548.25 822.38,639.63" fill="#82827f"/><rect x="822.375" y="548.25" width="91.375" height="91.375" fill="#ffffff"/><rect x="822.38" y="548.25" width="45.69" height="45.69" fill="#767672"/><polygon points="822.38,548.25 868.0699999999999,548.25 822.38,593.94" fill="#e1e1c3"/><rect x="868.06" y="548.25" width="45.69" height="45.69" fill="#c7c7c2"/><polygon points="868.06,548.25 913.75,548.25 913.75,593.94" fill="#4c4b47"/><rect x="822.38" y="593.94" width="45.69" height="45.69" fill="#f1e952"/><polygon points="822.38,593.94 868.0699999999999,639.6300000000001 822.38,639.6300000000001" fill="#54534f"/><rect x="868.06" y="593.94" width="45.69" height="45.69" fill="#363530"/><polygon points="913.75,593.94 913.75,639.6300000000001 868.06,639.6300000000001" fill="#373631"/><rect x="913.75" y="548.25" width="91.38" height="91.38" fill="#ebebe9"/><path d="M 913.75 548.25 A 91.38 91.38 0 0 0 1005.13 639.63 L 1005.13 548.25" fill="#fefef6"/><rect x="1005.13" y="548.25" width="91.38" height="91.38" fill="#909087"/><rect x="1005.13" y="548.25" width="91.38" height="91.38" fill="#f2f2e5"/><rect x="1096.5" y="548.25" width="91.38" height="91.38" fill="#f6f191"/><rect x="1096.5" y="548.25" width="91.38" height="91.38" fill="#94958c"/><rect x="1187.88" y="548.25" width="91.38" height="91.38" fill="#fffffd"/><rect x="1187.88" y="548.25" width="91.38" height="91.38" fill="#7e7f74"/><rect x="0" y="639.63" width="91.38" height="91.38" fill="#fefef8"/><rect x="0" y="639.63" width="91.38" height="91.38" fill="#9b9b98"/><rect x="91.38" y="639.63" width="91.38" height="91.38" fill="#f4ee76"/><path d="M 91.38 731.01 A 91.38 91.38 0 0 1  182.76 639.63 L 182.76 731.01" fill="#efefdf"/><rect x="182.75" y="639.625" width="91.375" height="91.375" fill="#ffffff"/><rect x="182.75" y="639.63" width="45.69" height="45.69" fill="#91908d"/><polygon points="182.75,639.63 228.44,639.63 182.75,685.3199999999999" fill="#c4c488"/><rect x="228.44" y="639.63" width="45.69" height="45.69" fill="#b5b5b3"/><polygon points="228.44,639.63 274.13,639.63 274.13,685.3199999999999" fill="#fbf9d2"/><rect x="182.75" y="685.31" width="45.69" height="45.69" fill="#f7ef98"/><polygon points="228.44,685.31 228.44,731 182.75,731" fill="#dfdfbf"/><rect x="228.44" y="685.31" width="45.69" height="45.69" fill="#d6d6ac"/><polygon points="228.44,685.31 274.13,731 228.44,731" fill="#ebebd7"/><rect x="274.13" y="639.63" width="91.38" height="91.38" fill="#aeadab"/><polygon points="274.13,639.63 365.51,639.63 274.13,731.01" fill="#b6b66c"/><rect x="365.5" y="639.63" width="91.38" height="91.38" fill="#b5b56a"/><path d="M 365.5 639.63 A 91.38 91.38 0 0 1 456.88 731.01 L 365.5 731.01" fill="#919289"/><rect x="456.875" y="639.625" width="91.375" height="91.375" fill="#ffffff"/><rect x="456.88" y="639.63" width="45.69" height="45.69" fill="#c8c8c7"/><polygon points="456.88,639.63 502.57,639.63 456.88,685.3199999999999" fill="#cbcbc9"/><rect x="502.56" y="639.63" width="45.69" height="45.69" fill="#fefdf2"/><polygon points="502.56,639.63 548.25,639.63 548.25,685.3199999999999" fill="#b5b6b0"/><rect x="456.88" y="685.31" width="45.69" height="45.69" fill="#868582"/><polygon points="456.88,685.31 502.57,731 456.88,731" fill="#fefdf2"/><rect x="502.56" y="685.31" width="45.69" height="45.69" fill="#c6c68b"/><polygon points="548.25,685.31 548.25,731 502.56,731" fill="#f2ea5b"/><rect x="548.25" y="639.63" width="91.38" height="91.38" fill="#f7f39f"/><polygon points="548.25,639.63 639.63,639.63 548.25,731.01" fill="#d3d3d0"/><rect x="639.63" y="639.63" width="91.38" height="91.38" fill="#f7ee93"/><polygon points="731.01,639.63 731.01,731.01 639.63,731.01" fill="#3b3a35"/><rect x="731" y="639.63" width="91.38" height="91.38" fill="#dfdfde"/><polygon points="731,639.63 822.38,639.63 822.38,731.01" fill="#8d8d8a"/><rect x="822.375" y="639.625" width="91.375" height="91.375" fill="#ffffff"/><rect x="822.38" y="639.63" width="45.69" height="45.69" fill="#33322d"/><path d="M 822.38 685.3199999999999 A 45.69 45.69 0 0 1  868.0699999999999 639.63 L 868.0699999999999 685.3199999999999" fill="#eddb1a"/><rect x="868.06" y="639.63" width="45.69" height="45.69" fill="#f2ea5d"/><path d="M 868.06 639.63 A 45.69 45.69 0 0 1 913.75 685.3199999999999 L 868.06 685.3199999999999" fill="#bbbbb6"/><rect x="822.38" y="685.31" width="45.69" height="45.69" fill="#f6f18f"/><path d="M 822.38 685.31 A 45.69 45.69 0 0 0 868.0699999999999 731 L 868.0699999999999 685.31" fill="#f6ed8a"/><rect x="868.06" y="685.31" width="45.69" height="45.69" fill="#efdf32"/><path d="M 868.06 731 A 45.69 45.69 0 0 0 913.75 685.31 L 868.06 685.31" fill="#e5e5e3"/><rect x="913.75" y="639.625" width="91.375" height="91.375" fill="#ffffff"/><rect x="913.75" y="639.63" width="45.69" height="45.69" fill="#898986"/><path d="M 913.75 639.63 A 45.69 45.69 0 0 1 959.44 685.3199999999999 L 913.75 685.3199999999999" fill="#fdfae0"/><rect x="959.44" y="639.63" width="45.69" height="45.69" fill="#6f7064"/><path d="M 959.44 685.3199999999999 A 45.69 45.69 0 0 1  1005.1300000000001 639.63 L 1005.1300000000001 685.3199999999999" fill="#ece219"/><rect x="913.75" y="685.31" width="45.69" height="45.69" fill="#caca94"/><path d="M 913.75 731 A 45.69 45.69 0 0 0 959.44 685.31 L 913.75 685.31" fill="#aaaaa8"/><rect x="959.44" y="685.31" width="45.69" height="45.69" fill="#fbfbf7"/><path d="M 959.44 685.31 A 45.69 45.69 0 0 0 1005.1300000000001 731 L 1005.1300000000001 685.31" fill="#e7e7e5"/><rect x="1005.13" y="639.63" width="91.38" height="91.38" fill="#e3e3c6"/><polygon points="1096.51,639.63 1096.51,731.01 1005.13,731.01" fill="#fafafa"/><rect x="1096.5" y="639.63" width="91.38" height="91.38" fill="#f7f29b"/><rect x="1096.5" y="639.63" width="91.38" height="91.38" fill="#868583"/><rect x="1187.88" y="639.63" width="91.38" height="91.38" fill="#c4c4bf"/><path d="M 1187.88 731.01 A 91.38 91.38 0 0 1  1279.2600000000002 639.63 L 1279.2600000000002 731.01" fill="#cacac8"/></g></svg>