<svg width="661" height="604" viewBox="0 0 661 604" fill="none" xmlns="http://www.w3.org/2000/svg">
<line x1="116.142" y1="247" x2="116.142" y2="347" stroke="#A4A4A4" stroke-width="2.28398"/>
<line x1="330.142" y1="247" x2="330.142" y2="347" stroke="#A4A4A4" stroke-width="2.28398"/>
<line x1="401.142" y1="247" x2="401.142" y2="382" stroke="#A4A4A4" stroke-width="2.28398"/>
<line x1="333.858" y1="120.501" x2="333.858" y2="27.9998" stroke="url(#paint0_linear_903_207)" stroke-width="2.28398"/>
<rect x="1" y="-1" width="532" height="124" rx="21" transform="matrix(1 0 0 -1 68 245)" fill="white" stroke="url(#paint1_linear_903_207)" stroke-width="2"/>
<line x1="256.858" y1="429" x2="256.858" y2="247" stroke="#A4A4A4" stroke-width="2.28398"/>
<line x1="541.858" y1="429" x2="541.858" y2="247" stroke="#A4A4A4" stroke-width="2.28398"/>
<line x1="185.858" y1="500" x2="185.858" y2="247" stroke="#A4A4A4" stroke-width="2.28398"/>
<line x1="470.858" y1="500" x2="470.858" y2="247" stroke="#A4A4A4" stroke-width="2.28398"/>
<path d="M187 526C201.359 526 213 514.359 213 500C213 485.641 201.359 474 187 474C172.641 474 161 485.641 161 500C161 514.359 172.641 526 187 526Z" fill="white" stroke="#A4A4A4" stroke-width="2"/>
<path d="M117 381C131.359 381 143 369.359 143 355C143 340.641 131.359 329 117 329C102.641 329 91 340.641 91 355C91 369.359 102.641 381 117 381Z" fill="white" stroke="#A4A4A4" stroke-width="2"/>
<path d="M401 435C415.359 435 427 423.359 427 409C427 394.641 415.359 383 401 383C386.641 383 375 394.641 375 409C375 423.359 386.641 435 401 435Z" fill="white" stroke="#A4A4A4" stroke-width="2"/>
<circle cx="335" cy="60" r="32" transform="rotate(90 335 60)" fill="white" stroke="#A4A4A4" stroke-width="2"/>
<path d="M541 458.435C555.359 458.435 567 446.794 567 432.435C567 418.075 555.359 406.435 541 406.435C526.641 406.435 515 418.075 515 432.435C515 446.794 526.641 458.435 541 458.435Z" fill="white" stroke="#A4A4A4" stroke-width="2"/>
<path d="M88 140.879C88 138.737 89.7367 137 91.879 137H177.121C179.263 137 181 138.737 181 140.879V226.121C181 228.263 179.263 230 177.121 230H91.879C89.7367 230 88 228.263 88 226.121V140.879Z" fill="#EFEFEF"/>
<path d="M292 140.879C292 138.737 293.737 137 295.879 137H381.121C383.263 137 385 138.737 385 140.879V226.121C385 228.263 383.263 230 381.121 230H295.879C293.737 230 292 228.263 292 226.121V140.879Z" fill="#EFEFEF"/>
<path d="M190 140.879C190 138.737 191.737 137 193.879 137H279.121C281.263 137 283 138.737 283 140.879V226.121C283 228.263 281.263 230 279.121 230H193.879C191.737 230 190 228.263 190 226.121V140.879Z" fill="#EFEFEF"/>
<path d="M394 140.879C394 138.737 395.737 137 397.879 137H483.121C485.263 137 487 138.737 487 140.879V226.121C487 228.263 485.263 230 483.121 230H397.879C395.737 230 394 228.263 394 226.121V140.879Z" fill="#EFEFEF"/>
<path d="M496 140.879C496 138.737 497.737 137 499.879 137H585.121C587.263 137 589 138.737 589 140.879V226.121C589 228.263 587.263 230 585.121 230H499.879C497.737 230 496 228.263 496 226.121V140.879Z" fill="#EFEFEF"/>
<g filter="url(#filter0_d_903_207)">
<circle cx="334.5" cy="59.5" r="16.5" fill="url(#paint2_linear_903_207)"/>
</g>
<path d="M438.605 467H506.395C507.281 467 508 467.719 508 468.605V560.658C508 561.545 507.281 562.264 506.395 562.264H438.605C437.719 562.264 437 561.545 437 560.658V468.605C437 467.719 437.719 467 438.605 467Z" fill="white" stroke="#A7A7A7" stroke-width="2"/>
<path d="M492.406 540.489C492.406 541.336 493.093 542.023 493.94 542.023H497.981C498.829 542.023 499.516 541.336 499.516 540.489V540.489C499.516 539.642 498.829 538.955 497.981 538.955H493.94C493.093 538.955 492.406 539.642 492.406 540.489V540.489Z" fill="#A7A7A7"/>
<path d="M451.344 487.41C451.344 488.257 452.03 488.943 452.878 488.943H498.126C498.973 488.943 499.66 488.257 499.66 487.41V487.41C499.66 486.562 498.973 485.876 498.126 485.876H452.878C452.03 485.876 451.344 486.562 451.344 487.41V487.41Z" fill="#A7A7A7"/>
<path d="M479.674 535.758C479.674 536.588 480.346 537.26 481.175 537.26H498.015C498.844 537.26 499.516 536.588 499.516 535.758V535.758C499.516 534.929 498.844 534.257 498.015 534.257H481.175C480.346 534.257 479.674 534.929 479.674 535.758V535.758Z" fill="#A7A7A7"/>
<path d="M479.673 480.54C479.673 481.369 480.345 482.041 481.174 482.041H498.014C498.843 482.041 499.515 481.369 499.515 480.54V480.54C499.515 479.71 498.843 479.038 498.014 479.038H481.174C480.345 479.038 479.673 479.71 479.673 480.54V480.54Z" fill="#A7A7A7"/>
<path d="M453.888 555.428C453.888 556.275 454.575 556.962 455.422 556.962H497.982C498.829 556.962 499.516 556.275 499.516 555.428V555.428C499.516 554.581 498.829 553.894 497.982 553.894H455.422C454.575 553.894 453.888 554.581 453.888 555.428V555.428Z" fill="#A7A7A7"/>
<path d="M479.673 550.371C479.673 551.218 480.36 551.905 481.207 551.905H497.981C498.829 551.905 499.516 551.218 499.516 550.371V550.371C499.516 549.523 498.829 548.837 497.981 548.837H481.207C480.36 548.837 479.673 549.523 479.673 550.371V550.371Z" fill="#A7A7A7"/>
<path d="M467.26 545.379C467.26 546.226 467.947 546.913 468.794 546.913H497.982C498.829 546.913 499.516 546.226 499.516 545.379V545.379C499.516 544.532 498.829 543.845 497.982 543.845H468.794C467.947 543.845 467.26 544.532 467.26 545.379V545.379Z" fill="#A7A7A7"/>
<rect x="448.279" y="493.61" width="14.5716" height="14.5716" rx="2.30078" fill="#A7A7A7"/>
<rect x="466.686" y="493.61" width="14.5716" height="14.5716" rx="2.30078" fill="#A7A7A7"/>
<rect x="485.092" y="493.61" width="14.5716" height="14.5716" rx="2.30078" fill="#A7A7A7"/>
<rect x="448.279" y="512.016" width="14.5716" height="14.5716" rx="2.30078" fill="#A7A7A7"/>
<rect x="466.686" y="512.016" width="14.5716" height="14.5716" rx="2.30078" fill="#A7A7A7"/>
<rect x="485.092" y="512.016" width="14.5716" height="14.5716" rx="2.30078" fill="#A7A7A7"/>
<path d="M224.605 386H292.395C293.281 386 294 386.719 294 387.605V479.658C294 480.545 293.281 481.264 292.395 481.264H224.605C223.719 481.264 223 480.545 223 479.658V387.605C223 386.719 223.719 386 224.605 386Z" fill="white" stroke="#A7A7A7" stroke-width="2"/>
<path d="M278.406 459.489C278.406 460.336 279.093 461.023 279.94 461.023H283.981C284.829 461.023 285.516 460.336 285.516 459.489V459.489C285.516 458.642 284.829 457.955 283.981 457.955H279.94C279.093 457.955 278.406 458.642 278.406 459.489V459.489Z" fill="#A7A7A7"/>
<path d="M237.344 406.41C237.344 407.257 238.03 407.943 238.877 407.943H284.126C284.973 407.943 285.66 407.257 285.66 406.41V406.41C285.66 405.562 284.973 404.876 284.126 404.876H238.877C238.03 404.876 237.344 405.562 237.344 406.41V406.41Z" fill="#A7A7A7"/>
<path d="M265.674 454.758C265.674 455.588 266.346 456.26 267.175 456.26H284.015C284.844 456.26 285.516 455.588 285.516 454.758V454.758C285.516 453.929 284.844 453.257 284.015 453.257H267.175C266.346 453.257 265.674 453.929 265.674 454.758V454.758Z" fill="#A7A7A7"/>
<path d="M265.673 399.54C265.673 400.369 266.345 401.041 267.174 401.041H284.014C284.843 401.041 285.515 400.369 285.515 399.54V399.54C285.515 398.71 284.843 398.038 284.014 398.038H267.174C266.345 398.038 265.673 398.71 265.673 399.54V399.54Z" fill="#A7A7A7"/>
<path d="M239.888 474.428C239.888 475.275 240.575 475.962 241.422 475.962H283.982C284.829 475.962 285.516 475.275 285.516 474.428V474.428C285.516 473.581 284.829 472.894 283.982 472.894H241.422C240.575 472.894 239.888 473.581 239.888 474.428V474.428Z" fill="#A7A7A7"/>
<path d="M265.674 469.371C265.674 470.218 266.36 470.905 267.208 470.905H283.982C284.829 470.905 285.516 470.218 285.516 469.371V469.371C285.516 468.523 284.829 467.837 283.982 467.837H267.208C266.36 467.837 265.674 468.523 265.674 469.371V469.371Z" fill="#A7A7A7"/>
<path d="M253.26 464.379C253.26 465.226 253.946 465.913 254.794 465.913H283.982C284.829 465.913 285.516 465.226 285.516 464.379V464.379C285.516 463.532 284.829 462.845 283.982 462.845H254.794C253.946 462.845 253.26 463.532 253.26 464.379V464.379Z" fill="#A7A7A7"/>
<mask id="path-43-inside-1_903_207" fill="white">
<path d="M307 324.694C307 323.759 307.759 323 308.694 323H352.787C353.723 323 354.482 323.759 354.482 324.694V384.569C354.482 385.505 353.723 386.263 352.787 386.263H308.694C307.759 386.263 307 385.505 307 384.569V324.694Z"/>
</mask>
<path d="M307 324.694C307 323.759 307.759 323 308.694 323H352.787C353.723 323 354.482 323.759 354.482 324.694V384.569C354.482 385.505 353.723 386.263 352.787 386.263H308.694C307.759 386.263 307 385.505 307 384.569V324.694Z" fill="white" stroke="#A7A7A7" stroke-width="4" mask="url(#path-43-inside-1_903_207)"/>
<path d="M343.688 371.45C343.688 372.001 344.135 372.448 344.686 372.448H347.315C347.866 372.448 348.313 372.001 348.313 371.45V371.45C348.313 370.899 347.866 370.452 347.315 370.452H344.686C344.135 370.452 343.688 370.899 343.688 371.45V371.45Z" fill="#A7A7A7"/>
<path d="M316.98 336.926C316.98 337.477 317.427 337.923 317.978 337.923H347.409C347.96 337.923 348.407 337.477 348.407 336.926V336.926C348.407 336.375 347.96 335.928 347.409 335.928H317.978C317.427 335.928 316.98 336.375 316.98 336.926V336.926Z" fill="#A7A7A7"/>
<path d="M335.407 368.373C335.407 368.912 335.844 369.35 336.383 369.35H347.336C347.876 369.35 348.313 368.912 348.313 368.373V368.373C348.313 367.834 347.876 367.396 347.336 367.396H336.383C335.844 367.396 335.407 367.834 335.407 368.373V368.373Z" fill="#A7A7A7"/>
<path d="M335.406 332.457C335.406 332.996 335.843 333.434 336.383 333.434H347.336C347.875 333.434 348.312 332.996 348.312 332.457V332.457C348.312 331.918 347.875 331.48 347.336 331.48H336.383C335.843 331.48 335.406 331.918 335.406 332.457V332.457Z" fill="#A7A7A7"/>
<path d="M318.635 381.167C318.635 381.718 319.082 382.165 319.633 382.165H347.315C347.866 382.165 348.313 381.718 348.313 381.167V381.167C348.313 380.616 347.866 380.169 347.315 380.169H319.633C319.082 380.169 318.635 380.616 318.635 381.167V381.167Z" fill="#A7A7A7"/>
<path d="M335.407 377.878C335.407 378.429 335.853 378.875 336.405 378.875H347.315C347.866 378.875 348.313 378.429 348.313 377.878V377.878C348.313 377.327 347.866 376.88 347.315 376.88H336.405C335.853 376.88 335.407 377.327 335.407 377.878V377.878Z" fill="#A7A7A7"/>
<path d="M327.333 374.631C327.333 375.182 327.779 375.628 328.33 375.628H347.315C347.866 375.628 348.313 375.182 348.313 374.631V374.631C348.313 374.08 347.866 373.633 347.315 373.633H328.33C327.779 373.633 327.333 374.08 327.333 374.631V374.631Z" fill="#A7A7A7"/>
<rect x="234.279" y="412.61" width="14.5716" height="14.5716" rx="2.30078" fill="#A7A7A7"/>
<rect x="314.987" y="340.958" width="9.47788" height="9.47788" rx="1.49651" fill="#A7A7A7"/>
<rect x="252.686" y="412.61" width="14.5716" height="14.5716" rx="2.30078" fill="#A7A7A7"/>
<rect x="326.959" y="340.958" width="9.47788" height="9.47788" rx="1.49651" fill="#A7A7A7"/>
<rect x="271.092" y="412.61" width="14.5716" height="14.5716" rx="2.30078" fill="#A7A7A7"/>
<rect x="338.932" y="340.958" width="9.47788" height="9.47788" rx="1.49651" fill="#A7A7A7"/>
<rect x="234.279" y="431.016" width="14.5716" height="14.5716" rx="2.30078" fill="#A7A7A7"/>
<rect x="314.987" y="352.931" width="9.47788" height="9.47788" rx="1.49651" fill="#A7A7A7"/>
<rect x="252.686" y="431.016" width="14.5716" height="14.5716" rx="2.30078" fill="#A7A7A7"/>
<rect x="326.959" y="352.931" width="9.47788" height="9.47788" rx="1.49651" fill="#A7A7A7"/>
<rect x="271.092" y="431.016" width="14.5716" height="14.5716" rx="2.30078" fill="#A7A7A7"/>
<rect x="338.932" y="352.931" width="9.47788" height="9.47788" rx="1.49651" fill="#A7A7A7"/>
<defs>
<filter id="filter0_d_903_207" x="282" y="11" width="105" height="105" filterUnits="userSpaceOnUse" color-interpolation-filters="sRGB">
<feFlood flood-opacity="0" result="BackgroundImageFix"/>
<feColorMatrix in="SourceAlpha" type="matrix" values="0 0 0 0 0 0 0 0 0 0 0 0 0 0 0 0 0 0 127 0" result="hardAlpha"/>
<feMorphology radius="18" operator="dilate" in="SourceAlpha" result="effect1_dropShadow_903_207"/>
<feOffset dy="4"/>
<feGaussianBlur stdDeviation="9"/>
<feColorMatrix type="matrix" values="0 0 0 0 0.921569 0 0 0 0 0.294118 0 0 0 0 0.294118 0 0 0 0.15 0"/>
<feBlend mode="normal" in2="BackgroundImageFix" result="effect1_dropShadow_903_207"/>
<feBlend mode="normal" in="SourceGraphic" in2="effect1_dropShadow_903_207" result="shape"/>
</filter>
<linearGradient id="paint0_linear_903_207" x1="334.935" y1="27.9998" x2="334.935" y2="120.501" gradientUnits="userSpaceOnUse">
<stop stop-color="#A4A4A4"/>
<stop offset="1" stop-color="#FF5454"/>
</linearGradient>
<linearGradient id="paint1_linear_903_207" x1="267" y1="0" x2="267" y2="126" gradientUnits="userSpaceOnUse">
<stop stop-color="#A4A4A4"/>
<stop offset="1" stop-color="#FF5454"/>
</linearGradient>
<linearGradient id="paint2_linear_903_207" x1="334.5" y1="43" x2="343.328" y2="79.646" gradientUnits="userSpaceOnUse">
<stop stop-color="#FB5353"/>
<stop offset="1" stop-color="#BD3131" stop-opacity="0.97"/>
</linearGradient>
</defs>
</svg>
