<svg width="661" height="604" viewBox="0 0 661 604" fill="none" xmlns="http://www.w3.org/2000/svg">
<circle cx="209" cy="126" r="32" transform="rotate(90 209 126)" fill="white" stroke="#A4A4A4" stroke-width="2"/>
<circle cx="535" cy="285" r="32" transform="rotate(90 535 285)" fill="white" stroke="#A4A4A4" stroke-width="2"/>
<g filter="url(#filter0_d_904_366)">
<circle cx="208.5" cy="125.5" r="16.5" fill="url(#paint0_linear_904_366)"/>
</g>
<g filter="url(#filter1_d_904_366)">
<circle cx="534.5" cy="284.5" r="16.5" fill="url(#paint1_linear_904_366)"/>
</g>
<line x1="537.142" y1="201" x2="537.142" y2="253" stroke="#A4A4A4" stroke-width="2.28398"/>
<circle cx="8" cy="8" r="7" transform="matrix(-1 0 0 1 545 192)" fill="white" stroke="#A4A4A4" stroke-width="2"/>
<line x1="512.033" y1="307.808" x2="459.775" y2="360.066" stroke="#A4A4A4" stroke-width="2.28398"/>
<path d="M439.159 379.841C444.541 385.223 453.266 385.222 458.648 379.841C464.029 374.459 464.029 365.734 458.648 360.353C453.266 354.971 444.541 354.97 439.159 360.352C433.777 365.734 433.777 374.46 439.159 379.841Z" fill="white" stroke="#A4A4A4" stroke-width="2"/>
<mask id="path-9-inside-1_904_366" fill="white">
<path d="M341 96.6944C341 95.7586 341.759 95 342.694 95H386.787C387.723 95 388.482 95.7586 388.482 96.6944V156.569C388.482 157.505 387.723 158.263 386.787 158.263H342.694C341.759 158.263 341 157.505 341 156.569V96.6944Z"/>
</mask>
<path d="M341 96.6944C341 95.7586 341.759 95 342.694 95H386.787C387.723 95 388.482 95.7586 388.482 96.6944V156.569C388.482 157.505 387.723 158.263 386.787 158.263H342.694C341.759 158.263 341 157.505 341 156.569V96.6944Z" fill="white" stroke="#A7A7A7" stroke-width="4" mask="url(#path-9-inside-1_904_366)"/>
<path d="M377.688 143.45C377.688 144.001 378.135 144.448 378.686 144.448H381.315C381.866 144.448 382.313 144.001 382.313 143.45V143.45C382.313 142.899 381.866 142.452 381.315 142.452H378.686C378.135 142.452 377.688 142.899 377.688 143.45V143.45Z" fill="#A7A7A7"/>
<path d="M350.98 108.926C350.98 109.477 351.427 109.923 351.978 109.923H381.409C381.96 109.923 382.407 109.477 382.407 108.926V108.926C382.407 108.375 381.96 107.928 381.409 107.928H351.978C351.427 107.928 350.98 108.375 350.98 108.926V108.926Z" fill="#A7A7A7"/>
<path d="M369.407 140.373C369.407 140.912 369.844 141.35 370.383 141.35H381.336C381.876 141.35 382.313 140.912 382.313 140.373V140.373C382.313 139.834 381.876 139.396 381.336 139.396H370.383C369.844 139.396 369.407 139.834 369.407 140.373V140.373Z" fill="#A7A7A7"/>
<path d="M369.406 104.457C369.406 104.996 369.843 105.434 370.383 105.434H381.336C381.875 105.434 382.312 104.996 382.312 104.457V104.457C382.312 103.918 381.875 103.48 381.336 103.48H370.383C369.843 103.48 369.406 103.918 369.406 104.457V104.457Z" fill="#A7A7A7"/>
<path d="M352.635 153.167C352.635 153.718 353.082 154.165 353.633 154.165H381.315C381.866 154.165 382.313 153.718 382.313 153.167V153.167C382.313 152.616 381.866 152.169 381.315 152.169H353.633C353.082 152.169 352.635 152.616 352.635 153.167V153.167Z" fill="#A7A7A7"/>
<path d="M369.407 149.878C369.407 150.429 369.853 150.875 370.405 150.875H381.315C381.866 150.875 382.313 150.429 382.313 149.878V149.878C382.313 149.327 381.866 148.88 381.315 148.88H370.405C369.853 148.88 369.407 149.327 369.407 149.878V149.878Z" fill="#A7A7A7"/>
<path d="M361.333 146.631C361.333 147.182 361.779 147.628 362.33 147.628H381.315C381.866 147.628 382.313 147.182 382.313 146.631V146.631C382.313 146.08 381.866 145.633 381.315 145.633H362.33C361.779 145.633 361.333 146.08 361.333 146.631V146.631Z" fill="#A7A7A7"/>
<rect x="348.987" y="112.958" width="9.47788" height="9.47788" rx="1.49651" fill="#A7A7A7"/>
<rect x="360.959" y="112.958" width="9.47788" height="9.47788" rx="1.49651" fill="#A7A7A7"/>
<rect x="372.932" y="112.958" width="9.47788" height="9.47788" rx="1.49651" fill="#A7A7A7"/>
<rect x="348.987" y="124.931" width="9.47788" height="9.47788" rx="1.49651" fill="#A7A7A7"/>
<rect x="360.959" y="124.931" width="9.47788" height="9.47788" rx="1.49651" fill="#A7A7A7"/>
<rect x="372.932" y="124.931" width="9.47788" height="9.47788" rx="1.49651" fill="#A7A7A7"/>
<line x1="363.858" y1="409" x2="363.858" y2="156" stroke="#A4A4A4" stroke-width="2.28398"/>
<path d="M67.6055 237H135.395C136.281 237 137 237.719 137 238.605V330.658C137 331.545 136.281 332.264 135.395 332.264H67.6055C66.719 332.264 66 331.545 66 330.658V238.605C66 237.719 66.719 237 67.6055 237Z" fill="white" stroke="#A7A7A7" stroke-width="2"/>
<path d="M121.406 310.489C121.406 311.336 122.093 312.023 122.94 312.023H126.981C127.829 312.023 128.516 311.336 128.516 310.489V310.489C128.516 309.642 127.829 308.955 126.981 308.955H122.94C122.093 308.955 121.406 309.642 121.406 310.489V310.489Z" fill="#A7A7A7"/>
<path d="M80.3438 257.41C80.3438 258.257 81.0305 258.943 81.8776 258.943H127.126C127.973 258.943 128.66 258.257 128.66 257.41V257.41C128.66 256.562 127.973 255.876 127.126 255.876H81.8776C81.0305 255.876 80.3438 256.562 80.3438 257.41V257.41Z" fill="#A7A7A7"/>
<path d="M108.674 305.758C108.674 306.588 109.346 307.26 110.175 307.26H127.015C127.844 307.26 128.516 306.588 128.516 305.758V305.758C128.516 304.929 127.844 304.257 127.015 304.257H110.175C109.346 304.257 108.674 304.929 108.674 305.758V305.758Z" fill="#A7A7A7"/>
<path d="M108.673 250.54C108.673 251.369 109.345 252.041 110.174 252.041H127.014C127.843 252.041 128.515 251.369 128.515 250.54V250.54C128.515 249.71 127.843 249.038 127.014 249.038H110.174C109.345 249.038 108.673 249.71 108.673 250.54V250.54Z" fill="#A7A7A7"/>
<path d="M82.8882 325.428C82.8882 326.275 83.575 326.962 84.4223 326.962H126.982C127.829 326.962 128.516 326.275 128.516 325.428V325.428C128.516 324.581 127.829 323.894 126.982 323.894H84.4223C83.575 323.894 82.8882 324.581 82.8882 325.428V325.428Z" fill="#A7A7A7"/>
<path d="M108.673 320.371C108.673 321.218 109.36 321.905 110.207 321.905H126.981C127.829 321.905 128.516 321.218 128.516 320.371V320.371C128.516 319.523 127.829 318.837 126.981 318.837H110.207C109.36 318.837 108.673 319.523 108.673 320.371V320.371Z" fill="#A7A7A7"/>
<path d="M96.2598 315.379C96.2598 316.226 96.9466 316.913 97.7939 316.913H126.982C127.829 316.913 128.516 316.226 128.516 315.379V315.379C128.516 314.532 127.829 313.845 126.982 313.845H97.7939C96.9466 313.845 96.2598 314.532 96.2598 315.379V315.379Z" fill="#A7A7A7"/>
<rect x="77.2793" y="263.61" width="14.5716" height="14.5716" rx="2.30078" fill="#A7A7A7"/>
<rect x="95.6855" y="263.61" width="14.5716" height="14.5716" rx="2.30078" fill="#A7A7A7"/>
<rect x="114.092" y="263.61" width="14.5716" height="14.5716" rx="2.30078" fill="#A7A7A7"/>
<rect x="77.2793" y="282.016" width="14.5716" height="14.5716" rx="2.30078" fill="#A7A7A7"/>
<rect x="95.6855" y="282.016" width="14.5716" height="14.5716" rx="2.30078" fill="#A7A7A7"/>
<rect x="114.092" y="282.016" width="14.5716" height="14.5716" rx="2.30078" fill="#A7A7A7"/>
<line x1="232.808" y1="148.192" x2="285.066" y2="200.451" stroke="#A4A4A4" stroke-width="2.28398"/>
<path d="M304.841 221.067C310.223 215.685 310.222 206.959 304.841 201.578C299.459 196.196 290.734 196.196 285.353 201.578C279.971 206.959 279.97 215.685 285.352 221.067C290.734 226.448 299.46 226.448 304.841 221.067Z" fill="white" stroke="#A4A4A4" stroke-width="2"/>
<path d="M343.605 405.986H390.391C391.277 405.987 391.995 406.705 391.995 407.592V471.658C391.995 472.545 391.277 473.263 390.391 473.264H343.605C342.719 473.264 342 472.545 342 471.658V407.592C342 406.705 342.719 405.986 343.605 405.986Z" fill="white" stroke="#A7A7A7" stroke-width="2"/>
<path d="M381.176 458.043C381.176 458.646 381.665 459.135 382.268 459.135H385.147C385.751 459.135 386.24 458.646 386.24 458.043V458.043C386.24 457.439 385.751 456.95 385.147 456.95H382.268C381.665 456.95 381.176 457.439 381.176 458.043V458.043Z" fill="#A7A7A7"/>
<path d="M351.929 420.236C351.929 420.839 352.418 421.328 353.021 421.328H385.25C385.854 421.328 386.343 420.839 386.343 420.236V420.236C386.343 419.632 385.854 419.143 385.25 419.143H353.021C352.418 419.143 351.929 419.632 351.929 420.236V420.236Z" fill="#A7A7A7"/>
<path d="M372.107 454.673C372.107 455.263 372.586 455.742 373.177 455.742H385.171C385.762 455.742 386.24 455.263 386.24 454.673V454.673C386.24 454.082 385.762 453.603 385.171 453.603H373.177C372.586 453.603 372.107 454.082 372.107 454.673V454.673Z" fill="#A7A7A7"/>
<path d="M372.106 415.343C372.106 415.933 372.585 416.412 373.176 416.412H385.17C385.761 416.412 386.239 415.933 386.239 415.343V415.343C386.239 414.752 385.761 414.273 385.17 414.273H373.176C372.585 414.273 372.106 414.752 372.106 415.343V415.343Z" fill="#A7A7A7"/>
<path d="M353.741 468.683C353.741 469.286 354.23 469.775 354.834 469.775H385.148C385.751 469.775 386.24 469.286 386.24 468.683V468.683C386.24 468.079 385.751 467.59 385.148 467.59H354.834C354.23 467.59 353.741 468.079 353.741 468.683V468.683Z" fill="#A7A7A7"/>
<path d="M372.107 465.081C372.107 465.684 372.596 466.173 373.2 466.173H385.147C385.751 466.173 386.24 465.684 386.24 465.081V465.081C386.24 464.477 385.751 463.988 385.147 463.988H373.2C372.596 463.988 372.107 464.477 372.107 465.081V465.081Z" fill="#A7A7A7"/>
<path d="M363.265 461.525C363.265 462.129 363.754 462.618 364.358 462.618H385.147C385.751 462.618 386.24 462.129 386.24 461.525V461.525C386.24 460.922 385.751 460.433 385.147 460.433H364.358C363.754 460.433 363.265 460.922 363.265 461.525V461.525Z" fill="#A7A7A7"/>
<rect x="350" y="425" width="10" height="10" rx="2.30078" fill="#A7A7A7"/>
<rect x="363" y="425" width="10" height="10" rx="2.30078" fill="#A7A7A7"/>
<rect x="376" y="425" width="10" height="10" rx="2.30078" fill="#A7A7A7"/>
<rect x="350" y="438" width="10" height="10" rx="2.30078" fill="#A7A7A7"/>
<rect x="363" y="438" width="10" height="10" rx="2.30078" fill="#A7A7A7"/>
<rect x="376" y="438" width="10" height="10" rx="2.30078" fill="#A7A7A7"/>
<circle cx="8" cy="8" r="7" transform="matrix(4.37114e-08 -1 -1 -4.37114e-08 628 293)" fill="white" stroke="#A4A4A4" stroke-width="2"/>
<line x1="619" y1="285.142" x2="567" y2="285.142" stroke="#A4A4A4" stroke-width="2.28398"/>
<circle cx="8" cy="8" r="7" transform="matrix(-1 0 0 1 216 34)" fill="white" stroke="#A4A4A4" stroke-width="2"/>
<line x1="208.142" y1="43" x2="208.142" y2="95" stroke="#A4A4A4" stroke-width="2.28398"/>
<line x1="99.858" y1="431" x2="99.858" y2="178" stroke="#A4A4A4" stroke-width="2.28398"/>
<path d="M101 457C115.359 457 127 445.359 127 431C127 416.641 115.359 405 101 405C86.6406 405 75 416.641 75 431C75 445.359 86.6406 457 101 457Z" fill="white" stroke="#A4A4A4" stroke-width="2"/>
<path d="M515.605 396H562.391C563.277 396 563.995 396.719 563.995 397.605V461.672C563.995 462.558 563.277 463.277 562.391 463.277H515.605C514.719 463.277 514 462.558 514 461.672V397.605C514 396.719 514.719 396 515.605 396Z" fill="white" stroke="#A7A7A7" stroke-width="2"/>
<path d="M553.176 448.056C553.176 448.66 553.665 449.149 554.268 449.149H557.147C557.751 449.149 558.24 448.66 558.24 448.056V448.056C558.24 447.453 557.751 446.964 557.147 446.964H554.268C553.665 446.964 553.176 447.453 553.176 448.056V448.056Z" fill="#A7A7A7"/>
<path d="M523.929 410.249C523.929 410.853 524.418 411.342 525.021 411.342H557.25C557.854 411.342 558.343 410.853 558.343 410.249V410.249C558.343 409.646 557.854 409.157 557.25 409.157H525.021C524.418 409.157 523.929 409.646 523.929 410.249V410.249Z" fill="#A7A7A7"/>
<path d="M544.107 444.686C544.107 445.277 544.586 445.756 545.177 445.756H557.171C557.762 445.756 558.24 445.277 558.24 444.686V444.686C558.24 444.096 557.762 443.617 557.171 443.617H545.177C544.586 443.617 544.107 444.096 544.107 444.686V444.686Z" fill="#A7A7A7"/>
<path d="M544.106 405.356C544.106 405.947 544.585 406.426 545.176 406.426H557.17C557.761 406.426 558.239 405.947 558.239 405.356V405.356C558.239 404.766 557.761 404.287 557.17 404.287H545.176C544.585 404.287 544.106 404.766 544.106 405.356V405.356Z" fill="#A7A7A7"/>
<path d="M525.741 458.696C525.741 459.3 526.23 459.789 526.834 459.789H557.148C557.751 459.789 558.24 459.3 558.24 458.696V458.696C558.24 458.093 557.751 457.604 557.148 457.604H526.834C526.23 457.604 525.741 458.093 525.741 458.696V458.696Z" fill="#A7A7A7"/>
<path d="M544.107 455.094C544.107 455.698 544.596 456.187 545.2 456.187H557.147C557.751 456.187 558.24 455.698 558.24 455.094V455.094C558.24 454.491 557.751 454.002 557.147 454.002H545.2C544.596 454.002 544.107 454.491 544.107 455.094V455.094Z" fill="#A7A7A7"/>
<path d="M535.265 451.539C535.265 452.143 535.754 452.632 536.358 452.632H557.147C557.751 452.632 558.24 452.143 558.24 451.539V451.539C558.24 450.936 557.751 450.446 557.147 450.446H536.358C535.754 450.446 535.265 450.936 535.265 451.539V451.539Z" fill="#A7A7A7"/>
<rect x="522" y="415.014" width="10" height="10" rx="2.30078" fill="#A7A7A7"/>
<rect x="535" y="415.014" width="10" height="10" rx="2.30078" fill="#A7A7A7"/>
<rect x="548" y="415.014" width="10" height="10" rx="2.30078" fill="#A7A7A7"/>
<rect x="522" y="428.014" width="10" height="10" rx="2.30078" fill="#A7A7A7"/>
<rect x="535" y="428.014" width="10" height="10" rx="2.30078" fill="#A7A7A7"/>
<rect x="548" y="428.014" width="10" height="10" rx="2.30078" fill="#A7A7A7"/>
<line x1="537.142" y1="125" x2="537.142" y2="409" stroke="#A4A4A4" stroke-width="2.28398"/>
<line x1="208.142" y1="43" x2="208.142" y2="95" stroke="#A4A4A4" stroke-width="2.28398"/>
<line x1="99" y1="124.858" x2="343" y2="124.858" stroke="#A4A4A4" stroke-width="2.28398"/>
<line x1="260" y1="124.858" x2="536" y2="124.858" stroke="#A4A4A4" stroke-width="2.28398"/>
<line x1="110" y1="283.858" x2="502" y2="283.858" stroke="#A4A4A4" stroke-width="2.28398"/>
<line x1="110" y1="428.858" x2="535" y2="428.858" stroke="#A4A4A4" stroke-width="2.28398"/>
<circle cx="8" cy="8" r="7" transform="matrix(-1 0 0 1 545 192)" fill="white" stroke="#A4A4A4" stroke-width="2"/>
<line x1="558.808" y1="306.192" x2="611.066" y2="358.451" stroke="#A4A4A4" stroke-width="2.28398"/>
<line x1="208.192" y1="126.192" x2="260.451" y2="73.9344" stroke="#A4A4A4" stroke-width="2.28398"/>
<path d="M630.841 379.067C636.223 373.685 636.222 364.959 630.841 359.578C625.459 354.196 616.734 354.196 611.353 359.578C605.971 364.959 605.97 373.685 611.352 379.067C616.734 384.448 625.46 384.448 630.841 379.067Z" fill="white" stroke="#A4A4A4" stroke-width="2"/>
<path d="M281.067 54.1585C275.685 48.7771 266.959 48.7776 261.578 54.1592C256.196 59.5409 256.196 68.2658 261.578 73.6475C266.959 79.0291 275.685 79.0296 281.067 73.6481C286.448 68.2664 286.448 59.5403 281.067 54.1585Z" fill="white" stroke="#A4A4A4" stroke-width="2"/>
<line y1="-1.14199" x2="73.9041" y2="-1.14199" transform="matrix(-0.707107 -0.707107 -0.707107 0.707107 208.226 127)" stroke="#A4A4A4" stroke-width="2.28398"/>
<line y1="-1.14199" x2="73.9041" y2="-1.14199" transform="matrix(-0.707107 0.707107 0.707107 0.707107 209 130)" stroke="#A4A4A4" stroke-width="2.28398"/>
<line y1="-1.14199" x2="73.9041" y2="-1.14199" transform="matrix(-0.707107 -0.707107 -0.707107 0.707107 535.226 286)" stroke="#A4A4A4" stroke-width="2.28398"/>
<path d="M136.159 54.1585C141.541 48.7771 150.266 48.7776 155.648 54.1592C161.029 59.5409 161.029 68.2658 155.648 73.6475C150.266 79.0291 141.541 79.0296 136.159 73.6481C130.777 68.2664 130.777 59.5403 136.159 54.1585Z" fill="white" stroke="#A4A4A4" stroke-width="2"/>
<path d="M136.159 202.067C130.777 196.685 130.778 187.959 136.159 182.578C141.541 177.196 150.266 177.196 155.647 182.578C161.029 187.959 161.03 196.685 155.648 202.067C150.266 207.448 141.54 207.448 136.159 202.067Z" fill="white" stroke="#A4A4A4" stroke-width="2"/>
<path d="M463.159 213.159C468.541 207.777 477.266 207.778 482.648 213.159C488.029 218.541 488.029 227.266 482.648 232.647C477.266 238.029 468.541 238.03 463.159 232.648C457.777 227.266 457.777 218.54 463.159 213.159Z" fill="white" stroke="#A4A4A4" stroke-width="2"/>
<line x1="534.192" y1="285.192" x2="586.451" y2="232.934" stroke="#A4A4A4" stroke-width="2.28398"/>
<path d="M607.067 213.159C601.685 207.777 592.959 207.778 587.578 213.159C582.196 218.541 582.196 227.266 587.578 232.647C592.959 238.029 601.685 238.03 607.067 232.648C612.448 227.266 612.448 218.54 607.067 213.159Z" fill="white" stroke="#A4A4A4" stroke-width="2"/>
<path d="M276.159 294.648C281.541 300.03 290.266 300.029 295.648 294.647C301.029 289.266 301.029 280.541 295.648 275.159C290.266 269.778 281.541 269.777 276.159 275.159C270.777 280.54 270.777 289.266 276.159 294.648Z" fill="white" stroke="#A4A4A4" stroke-width="2"/>
<mask id="path-94-inside-2_904_366" fill="white">
<path d="M341 96.6944C341 95.7586 341.759 95 342.694 95H386.787C387.723 95 388.482 95.7586 388.482 96.6944V156.569C388.482 157.505 387.723 158.263 386.787 158.263H342.694C341.759 158.263 341 157.505 341 156.569V96.6944Z"/>
</mask>
<path d="M341 96.6944C341 95.7586 341.759 95 342.694 95H386.787C387.723 95 388.482 95.7586 388.482 96.6944V156.569C388.482 157.505 387.723 158.263 386.787 158.263H342.694C341.759 158.263 341 157.505 341 156.569V96.6944Z" fill="white" stroke="#A7A7A7" stroke-width="4" mask="url(#path-94-inside-2_904_366)"/>
<path d="M377.688 143.45C377.688 144.001 378.135 144.448 378.686 144.448H381.315C381.866 144.448 382.313 144.001 382.313 143.45V143.45C382.313 142.899 381.866 142.452 381.315 142.452H378.686C378.135 142.452 377.688 142.899 377.688 143.45V143.45Z" fill="#A7A7A7"/>
<path d="M350.98 108.926C350.98 109.477 351.427 109.923 351.978 109.923H381.409C381.96 109.923 382.407 109.477 382.407 108.926V108.926C382.407 108.375 381.96 107.928 381.409 107.928H351.978C351.427 107.928 350.98 108.375 350.98 108.926V108.926Z" fill="#A7A7A7"/>
<path d="M369.407 140.373C369.407 140.912 369.844 141.35 370.383 141.35H381.336C381.876 141.35 382.313 140.912 382.313 140.373V140.373C382.313 139.834 381.876 139.396 381.336 139.396H370.383C369.844 139.396 369.407 139.834 369.407 140.373V140.373Z" fill="#A7A7A7"/>
<path d="M369.406 104.457C369.406 104.996 369.843 105.434 370.383 105.434H381.336C381.875 105.434 382.312 104.996 382.312 104.457V104.457C382.312 103.918 381.875 103.48 381.336 103.48H370.383C369.843 103.48 369.406 103.918 369.406 104.457V104.457Z" fill="#A7A7A7"/>
<path d="M352.635 153.167C352.635 153.718 353.082 154.165 353.633 154.165H381.315C381.866 154.165 382.313 153.718 382.313 153.167V153.167C382.313 152.616 381.866 152.169 381.315 152.169H353.633C353.082 152.169 352.635 152.616 352.635 153.167V153.167Z" fill="#A7A7A7"/>
<path d="M369.407 149.878C369.407 150.429 369.853 150.875 370.405 150.875H381.315C381.866 150.875 382.313 150.429 382.313 149.878V149.878C382.313 149.327 381.866 148.88 381.315 148.88H370.405C369.853 148.88 369.407 149.327 369.407 149.878V149.878Z" fill="#A7A7A7"/>
<path d="M361.333 146.631C361.333 147.182 361.779 147.628 362.33 147.628H381.315C381.866 147.628 382.313 147.182 382.313 146.631V146.631C382.313 146.08 381.866 145.633 381.315 145.633H362.33C361.779 145.633 361.333 146.08 361.333 146.631V146.631Z" fill="#A7A7A7"/>
<rect x="348.987" y="112.958" width="9.47788" height="9.47788" rx="1.49651" fill="#A7A7A7"/>
<rect x="360.959" y="112.958" width="9.47788" height="9.47788" rx="1.49651" fill="#A7A7A7"/>
<rect x="372.932" y="112.958" width="9.47788" height="9.47788" rx="1.49651" fill="#A7A7A7"/>
<rect x="348.987" y="124.931" width="9.47788" height="9.47788" rx="1.49651" fill="#A7A7A7"/>
<rect x="360.959" y="124.931" width="9.47788" height="9.47788" rx="1.49651" fill="#A7A7A7"/>
<rect x="372.932" y="124.931" width="9.47788" height="9.47788" rx="1.49651" fill="#A7A7A7"/>
<line x1="363.858" y1="409" x2="363.858" y2="156" stroke="#A4A4A4" stroke-width="2.28398"/>
<line x1="99.858" y1="280" x2="99.858" y2="124" stroke="#A4A4A4" stroke-width="2.28398"/>
<path d="M67.6055 237H135.395C136.281 237 137 237.719 137 238.605V330.658C137 331.545 136.281 332.264 135.395 332.264H67.6055C66.719 332.264 66 331.545 66 330.658V238.605C66 237.719 66.719 237 67.6055 237Z" fill="white" stroke="#A7A7A7" stroke-width="2"/>
<path d="M121.406 310.489C121.406 311.336 122.093 312.023 122.94 312.023H126.981C127.829 312.023 128.516 311.336 128.516 310.489V310.489C128.516 309.642 127.829 308.955 126.981 308.955H122.94C122.093 308.955 121.406 309.642 121.406 310.489V310.489Z" fill="#A7A7A7"/>
<path d="M80.3438 257.41C80.3438 258.257 81.0305 258.943 81.8776 258.943H127.126C127.973 258.943 128.66 258.257 128.66 257.41V257.41C128.66 256.562 127.973 255.876 127.126 255.876H81.8776C81.0305 255.876 80.3438 256.562 80.3438 257.41V257.41Z" fill="#A7A7A7"/>
<path d="M108.674 305.758C108.674 306.588 109.346 307.26 110.175 307.26H127.015C127.844 307.26 128.516 306.588 128.516 305.758V305.758C128.516 304.929 127.844 304.257 127.015 304.257H110.175C109.346 304.257 108.674 304.929 108.674 305.758V305.758Z" fill="#A7A7A7"/>
<path d="M108.673 250.54C108.673 251.369 109.345 252.041 110.174 252.041H127.014C127.843 252.041 128.515 251.369 128.515 250.54V250.54C128.515 249.71 127.843 249.038 127.014 249.038H110.174C109.345 249.038 108.673 249.71 108.673 250.54V250.54Z" fill="#A7A7A7"/>
<path d="M82.8882 325.428C82.8882 326.275 83.575 326.962 84.4223 326.962H126.982C127.829 326.962 128.516 326.275 128.516 325.428V325.428C128.516 324.581 127.829 323.894 126.982 323.894H84.4223C83.575 323.894 82.8882 324.581 82.8882 325.428V325.428Z" fill="#A7A7A7"/>
<path d="M108.673 320.371C108.673 321.218 109.36 321.905 110.207 321.905H126.981C127.829 321.905 128.516 321.218 128.516 320.371V320.371C128.516 319.523 127.829 318.837 126.981 318.837H110.207C109.36 318.837 108.673 319.523 108.673 320.371V320.371Z" fill="#A7A7A7"/>
<path d="M96.2598 315.379C96.2598 316.226 96.9466 316.913 97.7939 316.913H126.982C127.829 316.913 128.516 316.226 128.516 315.379V315.379C128.516 314.532 127.829 313.845 126.982 313.845H97.7939C96.9466 313.845 96.2598 314.532 96.2598 315.379V315.379Z" fill="#A7A7A7"/>
<rect x="77.2793" y="263.61" width="14.5716" height="14.5716" rx="2.30078" fill="#A7A7A7"/>
<rect x="95.6855" y="263.61" width="14.5716" height="14.5716" rx="2.30078" fill="#A7A7A7"/>
<rect x="114.092" y="263.61" width="14.5716" height="14.5716" rx="2.30078" fill="#A7A7A7"/>
<rect x="77.2793" y="282.016" width="14.5716" height="14.5716" rx="2.30078" fill="#A7A7A7"/>
<rect x="95.6855" y="282.016" width="14.5716" height="14.5716" rx="2.30078" fill="#A7A7A7"/>
<rect x="114.092" y="282.016" width="14.5716" height="14.5716" rx="2.30078" fill="#A7A7A7"/>
<line x1="232.808" y1="148.192" x2="285.066" y2="200.451" stroke="#A4A4A4" stroke-width="2.28398"/>
<path d="M309.503 225.728C317.458 217.772 317.458 204.873 309.502 196.917C301.546 188.961 288.647 188.961 280.691 196.917C272.735 204.873 272.735 217.772 280.691 225.728C288.647 233.684 301.547 233.684 309.503 225.728Z" fill="white" stroke="#A4A4A4" stroke-width="2"/>
<path d="M343.605 405.986H390.391C391.277 405.987 391.995 406.705 391.995 407.592V471.658C391.995 472.545 391.277 473.263 390.391 473.264H343.605C342.719 473.264 342 472.545 342 471.658V407.592C342 406.705 342.719 405.986 343.605 405.986Z" fill="white" stroke="#A7A7A7" stroke-width="2"/>
<path d="M381.176 458.043C381.176 458.646 381.665 459.135 382.268 459.135H385.147C385.751 459.135 386.24 458.646 386.24 458.043V458.043C386.24 457.439 385.751 456.95 385.147 456.95H382.268C381.665 456.95 381.176 457.439 381.176 458.043V458.043Z" fill="#A7A7A7"/>
<path d="M351.929 420.236C351.929 420.839 352.418 421.328 353.021 421.328H385.25C385.854 421.328 386.343 420.839 386.343 420.236V420.236C386.343 419.632 385.854 419.143 385.25 419.143H353.021C352.418 419.143 351.929 419.632 351.929 420.236V420.236Z" fill="#A7A7A7"/>
<path d="M372.107 454.673C372.107 455.263 372.586 455.742 373.177 455.742H385.171C385.762 455.742 386.24 455.263 386.24 454.673V454.673C386.24 454.082 385.762 453.603 385.171 453.603H373.177C372.586 453.603 372.107 454.082 372.107 454.673V454.673Z" fill="#A7A7A7"/>
<path d="M372.106 415.343C372.106 415.933 372.585 416.412 373.176 416.412H385.17C385.761 416.412 386.239 415.933 386.239 415.343V415.343C386.239 414.752 385.761 414.273 385.17 414.273H373.176C372.585 414.273 372.106 414.752 372.106 415.343V415.343Z" fill="#A7A7A7"/>
<path d="M353.741 468.683C353.741 469.286 354.23 469.775 354.834 469.775H385.148C385.751 469.775 386.24 469.286 386.24 468.683V468.683C386.24 468.079 385.751 467.59 385.148 467.59H354.834C354.23 467.59 353.741 468.079 353.741 468.683V468.683Z" fill="#A7A7A7"/>
<path d="M372.107 465.081C372.107 465.684 372.596 466.173 373.2 466.173H385.147C385.751 466.173 386.24 465.684 386.24 465.081V465.081C386.24 464.477 385.751 463.988 385.147 463.988H373.2C372.596 463.988 372.107 464.477 372.107 465.081V465.081Z" fill="#A7A7A7"/>
<path d="M363.265 461.525C363.265 462.129 363.754 462.618 364.358 462.618H385.147C385.751 462.618 386.24 462.129 386.24 461.525V461.525C386.24 460.922 385.751 460.433 385.147 460.433H364.358C363.754 460.433 363.265 460.922 363.265 461.525V461.525Z" fill="#A7A7A7"/>
<rect x="350" y="425" width="10" height="10" rx="2.30078" fill="#A7A7A7"/>
<rect x="363" y="425" width="10" height="10" rx="2.30078" fill="#A7A7A7"/>
<rect x="376" y="425" width="10" height="10" rx="2.30078" fill="#A7A7A7"/>
<rect x="350" y="438" width="10" height="10" rx="2.30078" fill="#A7A7A7"/>
<rect x="363" y="438" width="10" height="10" rx="2.30078" fill="#A7A7A7"/>
<rect x="376" y="438" width="10" height="10" rx="2.30078" fill="#A7A7A7"/>
<line x1="619" y1="285.142" x2="567" y2="285.142" stroke="#A4A4A4" stroke-width="2.28398"/>
<circle cx="8" cy="8" r="7" transform="matrix(-1 0 0 1 216 34)" fill="white" stroke="#A4A4A4" stroke-width="2"/>
<line x1="99.858" y1="431" x2="99.858" y2="178" stroke="#A4A4A4" stroke-width="2.28398"/>
<path d="M101 457C115.359 457 127 445.359 127 431C127 416.641 115.359 405 101 405C86.6406 405 75 416.641 75 431C75 445.359 86.6406 457 101 457Z" fill="white" stroke="#A4A4A4" stroke-width="2"/>
<path d="M515.605 396H562.391C563.277 396 563.995 396.719 563.995 397.605V461.672C563.995 462.558 563.277 463.277 562.391 463.277H515.605C514.719 463.277 514 462.558 514 461.672V397.605C514 396.719 514.719 396 515.605 396Z" fill="white" stroke="#A7A7A7" stroke-width="2"/>
<path d="M553.176 448.056C553.176 448.66 553.665 449.149 554.268 449.149H557.147C557.751 449.149 558.24 448.66 558.24 448.056V448.056C558.24 447.453 557.751 446.964 557.147 446.964H554.268C553.665 446.964 553.176 447.453 553.176 448.056V448.056Z" fill="#A7A7A7"/>
<path d="M523.929 410.249C523.929 410.853 524.418 411.342 525.021 411.342H557.25C557.854 411.342 558.343 410.853 558.343 410.249V410.249C558.343 409.646 557.854 409.157 557.25 409.157H525.021C524.418 409.157 523.929 409.646 523.929 410.249V410.249Z" fill="#A7A7A7"/>
<path d="M544.107 444.686C544.107 445.277 544.586 445.756 545.177 445.756H557.171C557.762 445.756 558.24 445.277 558.24 444.686V444.686C558.24 444.096 557.762 443.617 557.171 443.617H545.177C544.586 443.617 544.107 444.096 544.107 444.686V444.686Z" fill="#A7A7A7"/>
<path d="M544.106 405.356C544.106 405.947 544.585 406.426 545.176 406.426H557.17C557.761 406.426 558.239 405.947 558.239 405.356V405.356C558.239 404.766 557.761 404.287 557.17 404.287H545.176C544.585 404.287 544.106 404.766 544.106 405.356V405.356Z" fill="#A7A7A7"/>
<path d="M525.741 458.696C525.741 459.3 526.23 459.789 526.834 459.789H557.148C557.751 459.789 558.24 459.3 558.24 458.696V458.696C558.24 458.093 557.751 457.604 557.148 457.604H526.834C526.23 457.604 525.741 458.093 525.741 458.696V458.696Z" fill="#A7A7A7"/>
<path d="M544.107 455.094C544.107 455.698 544.596 456.187 545.2 456.187H557.147C557.751 456.187 558.24 455.698 558.24 455.094V455.094C558.24 454.491 557.751 454.002 557.147 454.002H545.2C544.596 454.002 544.107 454.491 544.107 455.094V455.094Z" fill="#A7A7A7"/>
<path d="M535.265 451.539C535.265 452.143 535.754 452.632 536.358 452.632H557.147C557.751 452.632 558.24 452.143 558.24 451.539V451.539C558.24 450.936 557.751 450.446 557.147 450.446H536.358C535.754 450.446 535.265 450.936 535.265 451.539V451.539Z" fill="#A7A7A7"/>
<rect x="522" y="415.014" width="10" height="10" rx="2.30078" fill="#A7A7A7"/>
<rect x="535" y="415.014" width="10" height="10" rx="2.30078" fill="#A7A7A7"/>
<rect x="548" y="415.014" width="10" height="10" rx="2.30078" fill="#A7A7A7"/>
<rect x="522" y="428.014" width="10" height="10" rx="2.30078" fill="#A7A7A7"/>
<rect x="535" y="428.014" width="10" height="10" rx="2.30078" fill="#A7A7A7"/>
<rect x="548" y="428.014" width="10" height="10" rx="2.30078" fill="#A7A7A7"/>
<circle cx="8" cy="8" r="7" transform="matrix(4.37114e-08 -1 -1 -4.37114e-08 628 293)" fill="white" stroke="#A4A4A4" stroke-width="2"/>
<circle cx="209" cy="126" r="32" transform="rotate(90 209 126)" fill="white" stroke="#A4A4A4" stroke-width="2"/>
<g filter="url(#filter2_d_904_366)">
<circle cx="208.5" cy="125.5" r="16.5" fill="url(#paint2_linear_904_366)"/>
</g>
<circle cx="535" cy="285" r="32" transform="rotate(90 535 285)" fill="white" stroke="#A4A4A4" stroke-width="2"/>
<g filter="url(#filter3_d_904_366)">
<circle cx="534.5" cy="284.5" r="16.5" fill="url(#paint3_linear_904_366)"/>
</g>
<circle cx="208" cy="428" r="32" transform="rotate(90 208 428)" fill="white" stroke="#A4A4A4" stroke-width="2"/>
<g filter="url(#filter4_d_904_366)">
<circle cx="207.5" cy="427.5" r="16.5" fill="url(#paint4_linear_904_366)"/>
</g>
<line x1="210.142" y1="344" x2="210.142" y2="396" stroke="#A4A4A4" stroke-width="2.28398"/>
<circle cx="8" cy="8" r="7" transform="matrix(-1 0 0 1 218 335)" fill="white" stroke="#A4A4A4" stroke-width="2"/>
<line x1="185.033" y1="450.808" x2="132.775" y2="503.066" stroke="#A4A4A4" stroke-width="2.28398"/>
<path d="M112.159 522.841C117.541 528.223 126.266 528.222 131.648 522.841C137.029 517.459 137.029 508.734 131.648 503.353C126.266 497.971 117.541 497.97 112.159 503.352C106.777 508.734 106.777 517.46 112.159 522.841Z" fill="white" stroke="#A4A4A4" stroke-width="2"/>
<path d="M188.605 500.986H235.391C236.277 500.987 236.995 501.705 236.995 502.592V566.658C236.995 567.545 236.277 568.263 235.391 568.264H188.605C187.719 568.264 187 567.545 187 566.658V502.592C187 501.705 187.719 500.986 188.605 500.986Z" fill="white" stroke="#A7A7A7" stroke-width="2"/>
<path d="M226.176 553.043C226.176 553.646 226.665 554.135 227.268 554.135H230.147C230.751 554.135 231.24 553.646 231.24 553.043V553.043C231.24 552.439 230.751 551.95 230.147 551.95H227.268C226.665 551.95 226.176 552.439 226.176 553.043V553.043Z" fill="#A7A7A7"/>
<path d="M196.929 515.236C196.929 515.839 197.418 516.328 198.021 516.328H230.25C230.854 516.328 231.343 515.839 231.343 515.236V515.236C231.343 514.632 230.854 514.143 230.25 514.143H198.021C197.418 514.143 196.929 514.632 196.929 515.236V515.236Z" fill="#A7A7A7"/>
<path d="M217.107 549.673C217.107 550.263 217.586 550.742 218.177 550.742H230.171C230.762 550.742 231.24 550.263 231.24 549.673V549.673C231.24 549.082 230.762 548.603 230.171 548.603H218.177C217.586 548.603 217.107 549.082 217.107 549.673V549.673Z" fill="#A7A7A7"/>
<path d="M217.106 510.343C217.106 510.933 217.585 511.412 218.176 511.412H230.17C230.761 511.412 231.239 510.933 231.239 510.343V510.343C231.239 509.752 230.761 509.273 230.17 509.273H218.176C217.585 509.273 217.106 509.752 217.106 510.343V510.343Z" fill="#A7A7A7"/>
<path d="M198.741 563.683C198.741 564.286 199.23 564.775 199.834 564.775H230.148C230.751 564.775 231.24 564.286 231.24 563.683V563.683C231.24 563.079 230.751 562.59 230.148 562.59H199.834C199.23 562.59 198.741 563.079 198.741 563.683V563.683Z" fill="#A7A7A7"/>
<path d="M217.107 560.081C217.107 560.684 217.596 561.173 218.2 561.173H230.147C230.751 561.173 231.24 560.684 231.24 560.081V560.081C231.24 559.477 230.751 558.988 230.147 558.988H218.2C217.596 558.988 217.107 559.477 217.107 560.081V560.081Z" fill="#A7A7A7"/>
<path d="M208.265 556.525C208.265 557.129 208.754 557.618 209.358 557.618H230.147C230.751 557.618 231.24 557.129 231.24 556.525V556.525C231.24 555.922 230.751 555.433 230.147 555.433H209.358C208.754 555.433 208.265 555.922 208.265 556.525V556.525Z" fill="#A7A7A7"/>
<rect x="195" y="520" width="10" height="10" rx="2.30078" fill="#A7A7A7"/>
<rect x="208" y="520" width="10" height="10" rx="2.30078" fill="#A7A7A7"/>
<rect x="221" y="520" width="10" height="10" rx="2.30078" fill="#A7A7A7"/>
<rect x="195" y="533" width="10" height="10" rx="2.30078" fill="#A7A7A7"/>
<rect x="208" y="533" width="10" height="10" rx="2.30078" fill="#A7A7A7"/>
<rect x="221" y="533" width="10" height="10" rx="2.30078" fill="#A7A7A7"/>
<circle cx="8" cy="8" r="7" transform="matrix(-1 0 0 1 218 335)" fill="white" stroke="#A4A4A4" stroke-width="2"/>
<line x1="231.808" y1="449.192" x2="284.066" y2="501.451" stroke="#A4A4A4" stroke-width="2.28398"/>
<path d="M303.841 522.067C309.223 516.685 309.222 507.959 303.841 502.578C298.459 497.196 289.734 497.196 284.353 502.578C278.971 507.959 278.97 516.685 284.352 522.067C289.734 527.448 298.46 527.448 303.841 522.067Z" fill="white" stroke="#A4A4A4" stroke-width="2"/>
<line y1="-1.14199" x2="73.9041" y2="-1.14199" transform="matrix(-0.707107 -0.707107 -0.707107 0.707107 208.226 429)" stroke="#A4A4A4" stroke-width="2.28398"/>
<path d="M136.159 356.159C141.541 350.777 150.266 350.778 155.648 356.159C161.029 361.541 161.029 370.266 155.648 375.647C150.266 381.029 141.541 381.03 136.159 375.648C130.777 370.266 130.777 361.54 136.159 356.159Z" fill="white" stroke="#A4A4A4" stroke-width="2"/>
<line x1="207.192" y1="428.192" x2="259.451" y2="375.934" stroke="#A4A4A4" stroke-width="2.28398"/>
<path d="M280.067 356.159C274.685 350.777 265.959 350.778 260.578 356.159C255.196 361.541 255.196 370.266 260.578 375.647C265.959 381.029 274.685 381.03 280.067 375.648C285.448 370.266 285.448 361.54 280.067 356.159Z" fill="white" stroke="#A4A4A4" stroke-width="2"/>
<path d="M188.605 500.986H235.391C236.277 500.987 236.995 501.705 236.995 502.592V566.658C236.995 567.545 236.277 568.263 235.391 568.264H188.605C187.719 568.264 187 567.545 187 566.658V502.592C187 501.705 187.719 500.986 188.605 500.986Z" fill="white" stroke="#A7A7A7" stroke-width="2"/>
<path d="M226.176 553.043C226.176 553.646 226.665 554.135 227.268 554.135H230.147C230.751 554.135 231.24 553.646 231.24 553.043V553.043C231.24 552.439 230.751 551.95 230.147 551.95H227.268C226.665 551.95 226.176 552.439 226.176 553.043V553.043Z" fill="#A7A7A7"/>
<path d="M196.929 515.236C196.929 515.839 197.418 516.328 198.021 516.328H230.25C230.854 516.328 231.343 515.839 231.343 515.236V515.236C231.343 514.632 230.854 514.143 230.25 514.143H198.021C197.418 514.143 196.929 514.632 196.929 515.236V515.236Z" fill="#A7A7A7"/>
<path d="M217.107 549.673C217.107 550.263 217.586 550.742 218.177 550.742H230.171C230.762 550.742 231.24 550.263 231.24 549.673V549.673C231.24 549.082 230.762 548.603 230.171 548.603H218.177C217.586 548.603 217.107 549.082 217.107 549.673V549.673Z" fill="#A7A7A7"/>
<path d="M217.106 510.343C217.106 510.933 217.585 511.412 218.176 511.412H230.17C230.761 511.412 231.239 510.933 231.239 510.343V510.343C231.239 509.752 230.761 509.273 230.17 509.273H218.176C217.585 509.273 217.106 509.752 217.106 510.343V510.343Z" fill="#A7A7A7"/>
<path d="M198.741 563.683C198.741 564.286 199.23 564.775 199.834 564.775H230.148C230.751 564.775 231.24 564.286 231.24 563.683V563.683C231.24 563.079 230.751 562.59 230.148 562.59H199.834C199.23 562.59 198.741 563.079 198.741 563.683V563.683Z" fill="#A7A7A7"/>
<path d="M217.107 560.081C217.107 560.684 217.596 561.173 218.2 561.173H230.147C230.751 561.173 231.24 560.684 231.24 560.081V560.081C231.24 559.477 230.751 558.988 230.147 558.988H218.2C217.596 558.988 217.107 559.477 217.107 560.081V560.081Z" fill="#A7A7A7"/>
<path d="M208.265 556.525C208.265 557.129 208.754 557.618 209.358 557.618H230.147C230.751 557.618 231.24 557.129 231.24 556.525V556.525C231.24 555.922 230.751 555.433 230.147 555.433H209.358C208.754 555.433 208.265 555.922 208.265 556.525V556.525Z" fill="#A7A7A7"/>
<rect x="195" y="520" width="10" height="10" rx="2.30078" fill="#A7A7A7"/>
<rect x="208" y="520" width="10" height="10" rx="2.30078" fill="#A7A7A7"/>
<rect x="221" y="520" width="10" height="10" rx="2.30078" fill="#A7A7A7"/>
<rect x="195" y="533" width="10" height="10" rx="2.30078" fill="#A7A7A7"/>
<rect x="208" y="533" width="10" height="10" rx="2.30078" fill="#A7A7A7"/>
<rect x="221" y="533" width="10" height="10" rx="2.30078" fill="#A7A7A7"/>
<circle cx="208" cy="428" r="32" transform="rotate(90 208 428)" fill="white" stroke="#A4A4A4" stroke-width="2"/>
<g filter="url(#filter5_d_904_366)">
<circle cx="207.5" cy="427.5" r="16.5" fill="url(#paint5_linear_904_366)"/>
</g>
<defs>
<filter id="filter0_d_904_366" x="156" y="77" width="105" height="105" filterUnits="userSpaceOnUse" color-interpolation-filters="sRGB">
<feFlood flood-opacity="0" result="BackgroundImageFix"/>
<feColorMatrix in="SourceAlpha" type="matrix" values="0 0 0 0 0 0 0 0 0 0 0 0 0 0 0 0 0 0 127 0" result="hardAlpha"/>
<feMorphology radius="18" operator="dilate" in="SourceAlpha" result="effect1_dropShadow_904_366"/>
<feOffset dy="4"/>
<feGaussianBlur stdDeviation="9"/>
<feColorMatrix type="matrix" values="0 0 0 0 0.921569 0 0 0 0 0.294118 0 0 0 0 0.294118 0 0 0 0.15 0"/>
<feBlend mode="normal" in2="BackgroundImageFix" result="effect1_dropShadow_904_366"/>
<feBlend mode="normal" in="SourceGraphic" in2="effect1_dropShadow_904_366" result="shape"/>
</filter>
<filter id="filter1_d_904_366" x="482" y="236" width="105" height="105" filterUnits="userSpaceOnUse" color-interpolation-filters="sRGB">
<feFlood flood-opacity="0" result="BackgroundImageFix"/>
<feColorMatrix in="SourceAlpha" type="matrix" values="0 0 0 0 0 0 0 0 0 0 0 0 0 0 0 0 0 0 127 0" result="hardAlpha"/>
<feMorphology radius="18" operator="dilate" in="SourceAlpha" result="effect1_dropShadow_904_366"/>
<feOffset dy="4"/>
<feGaussianBlur stdDeviation="9"/>
<feColorMatrix type="matrix" values="0 0 0 0 0.921569 0 0 0 0 0.294118 0 0 0 0 0.294118 0 0 0 0.15 0"/>
<feBlend mode="normal" in2="BackgroundImageFix" result="effect1_dropShadow_904_366"/>
<feBlend mode="normal" in="SourceGraphic" in2="effect1_dropShadow_904_366" result="shape"/>
</filter>
<filter id="filter2_d_904_366" x="156" y="77" width="105" height="105" filterUnits="userSpaceOnUse" color-interpolation-filters="sRGB">
<feFlood flood-opacity="0" result="BackgroundImageFix"/>
<feColorMatrix in="SourceAlpha" type="matrix" values="0 0 0 0 0 0 0 0 0 0 0 0 0 0 0 0 0 0 127 0" result="hardAlpha"/>
<feMorphology radius="18" operator="dilate" in="SourceAlpha" result="effect1_dropShadow_904_366"/>
<feOffset dy="4"/>
<feGaussianBlur stdDeviation="9"/>
<feColorMatrix type="matrix" values="0 0 0 0 0.921569 0 0 0 0 0.294118 0 0 0 0 0.294118 0 0 0 0.15 0"/>
<feBlend mode="normal" in2="BackgroundImageFix" result="effect1_dropShadow_904_366"/>
<feBlend mode="normal" in="SourceGraphic" in2="effect1_dropShadow_904_366" result="shape"/>
</filter>
<filter id="filter3_d_904_366" x="482" y="236" width="105" height="105" filterUnits="userSpaceOnUse" color-interpolation-filters="sRGB">
<feFlood flood-opacity="0" result="BackgroundImageFix"/>
<feColorMatrix in="SourceAlpha" type="matrix" values="0 0 0 0 0 0 0 0 0 0 0 0 0 0 0 0 0 0 127 0" result="hardAlpha"/>
<feMorphology radius="18" operator="dilate" in="SourceAlpha" result="effect1_dropShadow_904_366"/>
<feOffset dy="4"/>
<feGaussianBlur stdDeviation="9"/>
<feColorMatrix type="matrix" values="0 0 0 0 0.921569 0 0 0 0 0.294118 0 0 0 0 0.294118 0 0 0 0.15 0"/>
<feBlend mode="normal" in2="BackgroundImageFix" result="effect1_dropShadow_904_366"/>
<feBlend mode="normal" in="SourceGraphic" in2="effect1_dropShadow_904_366" result="shape"/>
</filter>
<filter id="filter4_d_904_366" x="155" y="379" width="105" height="105" filterUnits="userSpaceOnUse" color-interpolation-filters="sRGB">
<feFlood flood-opacity="0" result="BackgroundImageFix"/>
<feColorMatrix in="SourceAlpha" type="matrix" values="0 0 0 0 0 0 0 0 0 0 0 0 0 0 0 0 0 0 127 0" result="hardAlpha"/>
<feMorphology radius="18" operator="dilate" in="SourceAlpha" result="effect1_dropShadow_904_366"/>
<feOffset dy="4"/>
<feGaussianBlur stdDeviation="9"/>
<feColorMatrix type="matrix" values="0 0 0 0 0.921569 0 0 0 0 0.294118 0 0 0 0 0.294118 0 0 0 0.15 0"/>
<feBlend mode="normal" in2="BackgroundImageFix" result="effect1_dropShadow_904_366"/>
<feBlend mode="normal" in="SourceGraphic" in2="effect1_dropShadow_904_366" result="shape"/>
</filter>
<filter id="filter5_d_904_366" x="155" y="379" width="105" height="105" filterUnits="userSpaceOnUse" color-interpolation-filters="sRGB">
<feFlood flood-opacity="0" result="BackgroundImageFix"/>
<feColorMatrix in="SourceAlpha" type="matrix" values="0 0 0 0 0 0 0 0 0 0 0 0 0 0 0 0 0 0 127 0" result="hardAlpha"/>
<feMorphology radius="18" operator="dilate" in="SourceAlpha" result="effect1_dropShadow_904_366"/>
<feOffset dy="4"/>
<feGaussianBlur stdDeviation="9"/>
<feColorMatrix type="matrix" values="0 0 0 0 0.921569 0 0 0 0 0.294118 0 0 0 0 0.294118 0 0 0 0.15 0"/>
<feBlend mode="normal" in2="BackgroundImageFix" result="effect1_dropShadow_904_366"/>
<feBlend mode="normal" in="SourceGraphic" in2="effect1_dropShadow_904_366" result="shape"/>
</filter>
<linearGradient id="paint0_linear_904_366" x1="208.5" y1="109" x2="217.328" y2="145.646" gradientUnits="userSpaceOnUse">
<stop stop-color="#FB5353"/>
<stop offset="1" stop-color="#BD3131" stop-opacity="0.97"/>
</linearGradient>
<linearGradient id="paint1_linear_904_366" x1="534.5" y1="268" x2="543.328" y2="304.646" gradientUnits="userSpaceOnUse">
<stop stop-color="#FB5353"/>
<stop offset="1" stop-color="#BD3131" stop-opacity="0.97"/>
</linearGradient>
<linearGradient id="paint2_linear_904_366" x1="208.5" y1="109" x2="217.328" y2="145.646" gradientUnits="userSpaceOnUse">
<stop stop-color="#FB5353"/>
<stop offset="1" stop-color="#BD3131" stop-opacity="0.97"/>
</linearGradient>
<linearGradient id="paint3_linear_904_366" x1="534.5" y1="268" x2="543.328" y2="304.646" gradientUnits="userSpaceOnUse">
<stop stop-color="#FB5353"/>
<stop offset="1" stop-color="#BD3131" stop-opacity="0.97"/>
</linearGradient>
<linearGradient id="paint4_linear_904_366" x1="207.5" y1="411" x2="216.328" y2="447.646" gradientUnits="userSpaceOnUse">
<stop stop-color="#FB5353"/>
<stop offset="1" stop-color="#BD3131" stop-opacity="0.97"/>
</linearGradient>
<linearGradient id="paint5_linear_904_366" x1="207.5" y1="411" x2="216.328" y2="447.646" gradientUnits="userSpaceOnUse">
<stop stop-color="#FB5353"/>
<stop offset="1" stop-color="#BD3131" stop-opacity="0.97"/>
</linearGradient>
</defs>
</svg>
