<svg width="585" height="254" viewBox="0 0 585 254" fill="none" xmlns="http://www.w3.org/2000/svg">
<path d="M514.663 119.223C514.812 121.158 514.912 123.106 514.962 125.066L514.463 125.079C514.488 126.05 514.5 127.023 514.5 128C514.5 128.977 514.488 129.95 514.463 130.921L514.962 130.934C514.912 132.894 514.812 134.842 514.663 136.777L514.164 136.738C514.014 138.684 513.814 140.616 513.566 142.532L514.062 142.596C513.81 144.539 513.509 146.466 513.159 148.377L512.667 148.287C512.316 150.204 511.917 152.105 511.469 153.986L511.956 154.102C511.503 156.006 511.002 157.892 510.454 159.757L509.975 159.616C509.426 161.484 508.829 163.332 508.187 165.159L508.659 165.325C508.01 167.169 507.314 168.992 506.573 170.791L506.111 170.6C505.369 172.4 504.583 174.175 503.752 175.926L504.204 176.14C503.366 177.905 502.483 179.645 501.558 181.358L501.118 181.12C500.193 182.831 499.225 184.516 498.215 186.171L498.642 186.432C497.625 188.099 496.565 189.738 495.465 191.346L495.053 191.064C493.955 192.668 492.817 194.242 491.64 195.785L492.037 196.088C490.853 197.64 489.629 199.159 488.367 200.645L487.986 200.321C486.729 201.802 485.433 203.25 484.101 204.662L484.465 205.005C483.127 206.424 481.752 207.809 480.342 209.156L479.996 208.795C478.592 210.136 477.154 211.441 475.682 212.708L476.008 213.087C474.53 214.359 473.018 215.593 471.475 216.787L471.169 216.391C469.634 217.579 468.067 218.727 466.47 219.834L466.755 220.245C465.153 221.355 463.521 222.425 461.86 223.452L461.597 223.026C459.947 224.046 458.269 225.024 456.564 225.958L456.804 226.397C455.096 227.332 453.361 228.224 451.6 229.071L451.383 228.621C449.637 229.461 447.865 230.256 446.07 231.006L446.262 231.467C444.467 232.217 442.647 232.921 440.806 233.578L440.638 233.107C438.814 233.757 436.968 234.36 435.102 234.916L435.245 235.395C433.382 235.95 431.498 236.458 429.596 236.916L429.478 236.43C427.598 236.883 425.699 237.288 423.782 237.643L423.874 238.135C421.964 238.489 420.037 238.794 418.095 239.049L418.03 238.553C416.114 238.805 414.183 239.008 412.237 239.16L412.276 239.658C410.342 239.809 408.394 239.911 406.434 239.962L406.421 239.462C405.45 239.487 404.477 239.5 403.5 239.5C402.523 239.5 401.55 239.487 400.579 239.462L400.566 239.962C398.606 239.911 396.658 239.809 394.724 239.658L394.763 239.16C392.817 239.008 390.886 238.805 388.97 238.553L388.905 239.049C386.963 238.794 385.036 238.489 383.126 238.135L383.218 237.643C381.301 237.288 379.402 236.883 377.522 236.43L377.404 236.916C375.502 236.458 373.618 235.95 371.755 235.395L371.898 234.916C370.032 234.36 368.186 233.757 366.362 233.107L366.194 233.578C364.353 232.921 362.533 232.217 360.738 231.467L360.93 231.006C359.135 230.256 357.363 229.461 355.617 228.621L355.4 229.071C353.639 228.224 351.904 227.332 350.196 226.397L350.436 225.958C348.731 225.024 347.052 224.046 345.403 223.026L345.14 223.452C343.479 222.425 341.847 221.355 340.245 220.245L340.53 219.834C338.933 218.727 337.366 217.579 335.831 216.391L335.525 216.787C333.982 215.593 332.47 214.359 330.992 213.087L331.318 212.708C329.846 211.441 328.408 210.136 327.004 208.795L326.658 209.156C325.248 207.809 323.873 206.424 322.535 205.005L322.899 204.662C321.567 203.25 320.271 201.802 319.014 200.321L318.633 200.645C317.371 199.159 316.147 197.64 314.963 196.088L315.36 195.785C314.183 194.242 313.045 192.668 311.947 191.064L311.535 191.346C310.435 189.738 309.375 188.099 308.358 186.432L308.785 186.171C307.775 184.516 306.807 182.831 305.882 181.12L305.442 181.358C304.517 179.645 303.634 177.905 302.796 176.14L303.248 175.926C302.417 174.175 301.631 172.4 300.889 170.6L300.427 170.791C299.686 168.992 298.99 167.169 298.341 165.325L298.813 165.159C298.171 163.332 297.574 161.484 297.025 159.616L296.546 159.757C295.998 157.892 295.497 156.006 295.044 154.102L295.531 153.986C295.083 152.105 294.684 150.204 294.333 148.287L293.841 148.377C293.491 146.466 293.19 144.539 292.938 142.596L293.434 142.532C293.186 140.616 292.986 138.684 292.836 136.738L292.337 136.777C292.188 134.842 292.088 132.894 292.038 130.934L292.537 130.921C292.512 129.95 292.5 128.977 292.5 128C292.5 127.023 292.512 126.05 292.537 125.079L292.038 125.066C292.088 123.106 292.188 121.158 292.337 119.223L292.836 119.262C292.986 117.316 293.186 115.384 293.434 113.468L292.938 113.404C293.19 111.461 293.491 109.534 293.841 107.623L294.333 107.713C294.684 105.796 295.083 103.895 295.531 102.014L295.044 101.898C295.497 99.9937 295.998 98.1084 296.546 96.2434L297.025 96.3844C297.574 94.5158 298.171 92.6677 298.813 90.8414L298.341 90.6754C298.99 88.8307 299.686 87.0082 300.427 85.2093L300.889 85.3998C301.631 83.6004 302.417 81.8248 303.248 80.0744L302.796 79.86C303.634 78.0947 304.517 76.3549 305.442 74.642L305.882 74.8797C306.807 73.1686 307.775 71.4844 308.785 69.8288L308.358 69.5684C309.375 67.901 310.435 66.2624 311.535 64.6541L311.947 64.9364C313.045 63.3319 314.183 61.7578 315.36 60.2154L314.963 59.912C316.147 58.3605 317.371 56.8409 318.633 55.355L319.014 55.6786C320.271 54.1978 321.567 52.7504 322.899 51.338L322.535 50.995C323.873 49.5756 325.248 48.1913 326.658 46.8438L327.004 47.2053C328.408 45.8638 329.846 44.5588 331.318 43.2918L330.992 42.9129C332.47 41.6409 333.982 40.4071 335.525 39.2131L335.831 39.6085C337.366 38.421 338.933 37.2729 340.53 36.1658L340.245 35.7549C341.847 34.6446 343.479 33.5753 345.14 32.5484L345.403 32.9737C347.053 31.9538 348.731 30.9759 350.436 30.0418L350.196 29.6032C351.904 28.6676 353.639 27.7756 355.4 26.9286L355.617 27.3791C357.363 26.5391 359.135 25.7436 360.93 24.994L360.738 24.5326C362.533 23.783 364.353 23.0791 366.194 22.4225L366.362 22.8934C368.186 22.2432 370.032 21.6395 371.898 21.0838L371.755 20.6046C373.618 20.0497 375.502 19.5425 377.404 19.0842L377.522 19.5703C379.402 19.1173 381.301 18.7124 383.218 18.357L383.126 17.8654C385.036 17.5112 386.963 17.2059 388.905 16.9509L388.97 17.4466C390.886 17.195 392.817 16.9925 394.763 16.8403L394.724 16.3419C396.658 16.1906 398.606 16.0889 400.566 16.038L400.579 16.5378C401.55 16.5127 402.523 16.5 403.5 16.5C404.477 16.5 405.45 16.5127 406.421 16.5378L406.434 16.038C408.394 16.0889 410.342 16.1906 412.276 16.3419L412.237 16.8403C414.183 16.9925 416.114 17.195 418.03 17.4466L418.095 16.9509C420.037 17.2059 421.964 17.5112 423.874 17.8654L423.782 18.357C425.699 18.7124 427.598 19.1173 429.478 19.5703L429.596 19.0842C431.498 19.5425 433.382 20.0497 435.245 20.6046L435.102 21.0838C436.968 21.6395 438.814 22.2432 440.638 22.8934L440.806 22.4225C442.647 23.0791 444.467 23.783 446.262 24.5326L446.07 24.994C447.865 25.7436 449.637 26.5391 451.383 27.3791L451.6 26.9286C453.361 27.7756 455.096 28.6676 456.804 29.6032L456.564 30.0418C458.269 30.9759 459.948 31.9538 461.597 32.9737L461.86 32.5484C463.521 33.5753 465.153 34.6446 466.755 35.7549L466.47 36.1658C468.067 37.2729 469.634 38.421 471.169 39.6085L471.475 39.2131C473.018 40.4071 474.53 41.6409 476.008 42.9129L475.682 43.2918C477.154 44.5588 478.592 45.8638 479.996 47.2053L480.342 46.8438C481.752 48.1913 483.127 49.5756 484.465 50.995L484.101 51.338C485.433 52.7504 486.729 54.1978 487.986 55.6786L488.367 55.355C489.629 56.841 490.853 58.3605 492.037 59.9121L491.64 60.2154C492.817 61.7578 493.955 63.3319 495.053 64.9364L495.465 64.6541C496.565 66.2624 497.625 67.901 498.642 69.5684L498.215 69.8288C499.225 71.4844 500.193 73.1686 501.118 74.8797L501.558 74.642C502.483 76.3549 503.366 78.0947 504.204 79.86L503.752 80.0744C504.583 81.8249 505.369 83.6004 506.111 85.3998L506.573 85.2093C507.314 87.0082 508.01 88.8308 508.659 90.6755L508.187 90.8414C508.829 92.6677 509.426 94.5158 509.975 96.3844L510.454 96.2434C511.002 98.1085 511.503 99.9938 511.956 101.898L511.469 102.014C511.917 103.895 512.316 105.796 512.667 107.713L513.159 107.623C513.509 109.534 513.81 111.461 514.062 113.404L513.566 113.468C513.814 115.384 514.014 117.316 514.164 119.262L514.663 119.223Z" stroke="#E3E3E3" stroke-dasharray="6 6"/>
<circle cx="180" cy="128" r="111.5" stroke="#E3E3E3" stroke-dasharray="6 6"/>
<line x1="127" y1="127.5" x2="181" y2="127.5" stroke="#CECECE" stroke-dasharray="2 2"/>
<line x1="405" y1="127.5" x2="459" y2="127.5" stroke="#CECECE" stroke-dasharray="2 2"/>
<circle cx="293" cy="127" r="41.5" stroke="#DCDCDC" stroke-dasharray="2 2"/>
<circle cx="293" cy="127" r="61.5" stroke="#DCDCDC" stroke-dasharray="2 2"/>
<circle cx="293" cy="127" r="101.5" stroke="#DCDCDC" stroke-dasharray="2 2"/>
<line x1="291" y1="126.5" x2="392" y2="126.5" stroke="#DCDCDC" stroke-dasharray="2 2"/>
<line x1="292.09" y1="126.877" x2="328.647" y2="223.254" stroke="#DCDCDC" stroke-dasharray="2 2"/>
<line x1="292.095" y1="127.217" x2="258.862" y2="223.594" stroke="#DCDCDC" stroke-dasharray="2 2"/>
<line x1="291.002" y1="128.118" x2="193.131" y2="126.344" stroke="#DCDCDC" stroke-dasharray="2 2"/>
<circle r="17" transform="matrix(-1 0 0 1 259 223)" fill="url(#paint0_linear)"/>
<circle r="17.5" transform="matrix(-1 0 0 1 193.5 126.5)" fill="url(#paint1_linear)"/>
<ellipse rx="17" ry="17.5" transform="matrix(-1 0 0 1 393 126.5)" fill="url(#paint2_linear)"/>
<circle r="7" transform="matrix(-1 0 0 1 344 162)" fill="url(#paint3_linear)"/>
<circle r="7" transform="matrix(-1 0 0 1 344 92)" fill="url(#paint4_linear)"/>
<ellipse rx="7.5" ry="7" transform="matrix(-1 0 0 1 242.5 92)" fill="url(#paint5_linear)"/>
<ellipse rx="7.5" ry="7" transform="matrix(-1 0 0 1 242.5 164)" fill="url(#paint6_linear)"/>
<ellipse rx="3" ry="2.5" transform="matrix(-1 0 0 1 230 127.5)" fill="url(#paint7_linear)"/>
<ellipse rx="17.5" ry="17" transform="matrix(-1 0 0 1 326.5 223)" fill="url(#paint8_linear)"/>
<line y1="-0.5" x2="103.078" y2="-0.5" transform="matrix(0.354654 -0.934998 -0.934998 -0.354654 291.623 125.946)" stroke="#DCDCDC" stroke-dasharray="2 2"/>
<line y1="-0.5" x2="101.946" y2="-0.5" transform="matrix(-0.325991 -0.945373 -0.945373 0.325991 291.623 125.946)" stroke="#DCDCDC" stroke-dasharray="2 2"/>
<circle r="17" transform="matrix(-1 0 0 1 259 30)" fill="url(#paint9_linear)"/>
<ellipse rx="17.5" ry="17" transform="matrix(-1 0 0 1 326.5 30)" fill="url(#paint10_linear)"/>
<circle r="12" transform="matrix(-1 0 0 1 293 127)" fill="#393939"/>
<circle r="3" transform="matrix(-1 0 0 1 272 69)" fill="url(#paint11_linear)"/>
<circle r="3" transform="matrix(-1 0 0 1 272 185)" fill="url(#paint12_linear)"/>
<ellipse rx="2.5" ry="3" transform="matrix(-1 0 0 1 314.5 69)" fill="url(#paint13_linear)"/>
<ellipse rx="3" ry="2.5" transform="matrix(-1 0 0 1 354 126.5)" fill="url(#paint14_linear)"/>
<circle r="3" transform="matrix(-1 0 0 1 313 184)" fill="url(#paint15_linear)"/>
<circle cx="293" cy="127" r="41.5" stroke="#DCDCDC" stroke-dasharray="2 2"/>
<circle cx="293" cy="127" r="61.5" stroke="#DCDCDC" stroke-dasharray="2 2"/>
<circle cx="293" cy="127" r="101.5" stroke="#DCDCDC" stroke-dasharray="2 2"/>
<line x1="291" y1="126.5" x2="392" y2="126.5" stroke="#DCDCDC" stroke-dasharray="2 2"/>
<line x1="292.09" y1="126.877" x2="328.647" y2="223.254" stroke="#DCDCDC" stroke-dasharray="2 2"/>
<line x1="292.095" y1="127.217" x2="258.862" y2="223.594" stroke="#DCDCDC" stroke-dasharray="2 2"/>
<line x1="291.002" y1="128.118" x2="193.131" y2="126.344" stroke="#DCDCDC" stroke-dasharray="2 2"/>
<circle r="17" transform="matrix(-1 0 0 1 259 223)" fill="url(#paint16_linear)"/>
<circle r="17.5" transform="matrix(-1 0 0 1 193.5 126.5)" fill="url(#paint17_linear)"/>
<ellipse rx="17" ry="17.5" transform="matrix(-1 0 0 1 393 126.5)" fill="url(#paint18_linear)"/>
<circle r="7" transform="matrix(-1 0 0 1 344 162)" fill="url(#paint19_linear)"/>
<circle r="7" transform="matrix(-1 0 0 1 344 92)" fill="url(#paint20_linear)"/>
<ellipse rx="7.5" ry="7" transform="matrix(-1 0 0 1 242.5 92)" fill="url(#paint21_linear)"/>
<ellipse rx="7.5" ry="7" transform="matrix(-1 0 0 1 242.5 164)" fill="url(#paint22_linear)"/>
<ellipse rx="3" ry="2.5" transform="matrix(-1 0 0 1 230 127.5)" fill="url(#paint23_linear)"/>
<ellipse rx="17.5" ry="17" transform="matrix(-1 0 0 1 326.5 223)" fill="url(#paint24_linear)"/>
<line y1="-0.5" x2="103.078" y2="-0.5" transform="matrix(0.354654 -0.934998 -0.934998 -0.354654 291.623 125.946)" stroke="#DCDCDC" stroke-dasharray="2 2"/>
<line y1="-0.5" x2="101.946" y2="-0.5" transform="matrix(-0.325991 -0.945373 -0.945373 0.325991 291.623 125.946)" stroke="#DCDCDC" stroke-dasharray="2 2"/>
<circle r="17" transform="matrix(-1 0 0 1 259 30)" fill="url(#paint25_linear)"/>
<ellipse rx="17.5" ry="17" transform="matrix(-1 0 0 1 326.5 30)" fill="url(#paint26_linear)"/>
<circle r="12" transform="matrix(-1 0 0 1 293 127)" fill="#393939"/>
<circle r="3" transform="matrix(-1 0 0 1 272 69)" fill="url(#paint27_linear)"/>
<circle r="3" transform="matrix(-1 0 0 1 272 185)" fill="url(#paint28_linear)"/>
<ellipse rx="2.5" ry="3" transform="matrix(-1 0 0 1 314.5 69)" fill="url(#paint29_linear)"/>
<ellipse rx="3" ry="2.5" transform="matrix(-1 0 0 1 354 126.5)" fill="url(#paint30_linear)"/>
<circle r="3" transform="matrix(-1 0 0 1 313 184)" fill="url(#paint31_linear)"/>
<circle cx="73.5" cy="126.5" r="20" stroke="#DCDCDC" stroke-dasharray="2 2"/>
<circle cx="517.5" cy="126.5" r="20" stroke="#DCDCDC" stroke-dasharray="2 2"/>
<path d="M102.839 123.372C102.91 124.059 102.958 124.753 102.982 125.454L102.482 125.471C102.494 125.813 102.5 126.156 102.5 126.5C102.5 126.844 102.494 127.187 102.482 127.529L102.982 127.546C102.958 128.247 102.91 128.941 102.839 129.628L102.342 129.577C102.271 130.262 102.176 130.941 102.059 131.612L102.551 131.698C102.431 132.387 102.287 133.068 102.12 133.74L101.635 133.62C101.469 134.287 101.281 134.946 101.071 135.594L101.546 135.748C101.331 136.413 101.093 137.068 100.833 137.711L100.369 137.523C100.112 138.16 99.8327 138.785 99.5331 139.398L99.9823 139.618C99.6756 140.245 99.3477 140.86 98.9995 141.46L98.5669 141.21C98.223 141.803 97.8589 142.383 97.4755 142.948L97.8894 143.229C97.498 143.806 97.0869 144.369 96.6571 144.915L96.2641 144.606C95.8405 145.145 95.3984 145.667 94.9388 146.174L95.309 146.51C94.8407 147.026 94.3545 147.524 93.8514 148.005L93.5059 147.644C93.011 148.117 92.4995 148.572 91.9724 149.008L92.2912 149.393C91.7551 149.837 91.203 150.262 90.6361 150.666L90.3456 150.259C89.7891 150.657 89.218 151.034 88.6333 151.391L88.8937 151.818C88.3002 152.18 87.693 152.521 87.0729 152.84L86.8442 152.395C86.2371 152.708 85.6175 152.998 84.9865 153.267L85.1823 153.727C84.5437 153.999 83.8934 154.248 83.2326 154.474L83.0711 154C82.4259 154.221 81.7705 154.418 81.1057 154.592L81.2321 155.075C80.562 155.25 79.8826 155.401 79.1948 155.528L79.1043 155.036C78.4352 155.159 77.758 155.259 77.0735 155.333L77.1277 155.83C76.4407 155.905 75.7465 155.956 75.0459 155.981L75.0279 155.481C74.6868 155.494 74.3441 155.5 74 155.5C73.6559 155.5 73.3132 155.494 72.9721 155.481L72.9541 155.981C72.2535 155.956 71.5593 155.905 70.8723 155.83L70.9265 155.333C70.242 155.259 69.5648 155.159 68.8957 155.036L68.8052 155.528C68.1174 155.401 67.438 155.25 66.7679 155.075L66.8943 154.592C66.2295 154.418 65.5741 154.221 64.9289 154L64.7674 154.474C64.1066 154.248 63.4563 153.999 62.8177 153.727L63.0135 153.267C62.3825 152.998 61.7629 152.708 61.1558 152.395L60.9271 152.84C60.307 152.521 59.6998 152.18 59.1063 151.818L59.3667 151.391C58.782 151.034 58.2109 150.657 57.6544 150.259L57.3639 150.666C56.797 150.262 56.2449 149.837 55.7088 149.393L56.0276 149.008C55.5005 148.572 54.989 148.117 54.4941 147.644L54.1486 148.005C53.6455 147.524 53.1593 147.026 52.691 146.51L53.0612 146.174C52.6016 145.667 52.1595 145.145 51.7359 144.606L51.3429 144.915C50.9131 144.369 50.502 143.806 50.1106 143.229L50.5245 142.948C50.1411 142.383 49.777 141.803 49.4331 141.21L49.0005 141.46C48.6523 140.86 48.3244 140.245 48.0178 139.618L48.467 139.398C48.1673 138.785 47.8883 138.16 47.6309 137.523L47.1674 137.711C46.9075 137.068 46.6693 136.413 46.4537 135.748L46.9293 135.594C46.7191 134.946 46.5307 134.287 46.3651 133.62L45.8798 133.74C45.7131 133.068 45.5691 132.387 45.4487 131.698L45.9412 131.612C45.824 130.941 45.7295 130.262 45.6584 129.577L45.1611 129.628C45.0899 128.941 45.0419 128.247 45.0179 127.546L45.5176 127.529C45.5059 127.187 45.5 126.844 45.5 126.5C45.5 126.156 45.5059 125.813 45.5176 125.471L45.0179 125.454C45.0419 124.753 45.0899 124.059 45.1611 123.372L45.6584 123.423C45.7295 122.738 45.824 122.059 45.9412 121.388L45.4487 121.302C45.5691 120.613 45.7131 119.932 45.8798 119.26L46.3651 119.38C46.5307 118.713 46.7191 118.054 46.9293 117.406L46.4537 117.252C46.6693 116.587 46.9075 115.932 47.1674 115.289L47.6309 115.477C47.8883 114.84 48.1673 114.215 48.467 113.602L48.0178 113.382C48.3244 112.755 48.6523 112.14 49.0005 111.54L49.4331 111.79C49.777 111.197 50.1411 110.617 50.5245 110.052L50.1106 109.771C50.502 109.194 50.9131 108.631 51.3429 108.085L51.7359 108.394C52.1595 107.855 52.6016 107.333 53.0612 106.826L52.691 106.49C53.1593 105.974 53.6455 105.476 54.1486 104.995L54.4941 105.356C54.989 104.883 55.5005 104.428 56.0276 103.992L55.7088 103.607C56.2449 103.163 56.797 102.738 57.3639 102.334L57.6544 102.741C58.2109 102.343 58.782 101.966 59.3667 101.609L59.1063 101.182C59.6998 100.82 60.307 100.479 60.9271 100.16L61.1558 100.605C61.7629 100.292 62.3825 100.002 63.0135 99.7331L62.8177 99.273C63.4564 99.0012 64.1066 98.7521 64.7674 98.5265L64.9289 98.9997C65.5741 98.7794 66.2295 98.5821 66.8943 98.4085L66.7679 97.9247C67.438 97.7497 68.1174 97.5985 68.8052 97.472L68.8957 97.9637C69.5648 97.8406 70.242 97.7413 70.9265 97.6666L70.8723 97.1696C71.5593 97.0946 72.2535 97.0441 72.9541 97.0188L72.9721 97.5185C73.3132 97.5062 73.6559 97.5 74 97.5C74.3441 97.5 74.6868 97.5062 75.0279 97.5185L75.0459 97.0188C75.7465 97.0441 76.4407 97.0946 77.1277 97.1696L77.0735 97.6666C77.758 97.7413 78.4352 97.8406 79.1043 97.9637L79.1948 97.472C79.8826 97.5985 80.562 97.7497 81.2321 97.9247L81.1057 98.4085C81.7705 98.5821 82.4259 98.7794 83.0711 98.9997L83.2326 98.5265C83.8934 98.7521 84.5437 99.0012 85.1823 99.273L84.9865 99.7331C85.6175 100.002 86.2371 100.292 86.8442 100.605L87.0729 100.16C87.693 100.479 88.3002 100.82 88.8937 101.182L88.6333 101.609C89.218 101.966 89.7891 102.343 90.3456 102.741L90.6361 102.334C91.203 102.738 91.7551 103.163 92.2912 103.607L91.9724 103.992C92.4995 104.428 93.011 104.883 93.5059 105.356L93.8514 104.995C94.3545 105.476 94.8407 105.974 95.309 106.49L94.9389 106.826C95.3984 107.333 95.8405 107.855 96.2641 108.394L96.6571 108.085C97.0869 108.631 97.498 109.194 97.8894 109.771L97.4755 110.052C97.8589 110.617 98.223 111.197 98.5669 111.79L98.9995 111.54C99.3477 112.14 99.6756 112.755 99.9823 113.382L99.5331 113.602C99.8327 114.215 100.112 114.84 100.369 115.477L100.833 115.289C101.093 115.932 101.331 116.587 101.546 117.252L101.071 117.406C101.281 118.054 101.469 118.713 101.635 119.38L102.12 119.26C102.287 119.932 102.431 120.613 102.551 121.302L102.059 121.388C102.176 122.059 102.271 122.738 102.342 123.423L102.839 123.372Z" stroke="#DCDCDC" stroke-dasharray="2 2"/>
<circle cx="517.5" cy="126.5" r="30" stroke="#DCDCDC" stroke-dasharray="2 2"/>
<path d="M121.909 123.977C121.949 124.644 121.976 125.315 121.99 125.989L121.49 125.999C121.497 126.332 121.5 126.666 121.5 127C121.5 127.335 121.497 127.668 121.49 128.001L121.99 128.011C121.976 128.685 121.949 129.356 121.909 130.023L121.41 129.993C121.37 130.659 121.317 131.322 121.25 131.98L121.748 132.03C121.68 132.702 121.599 133.369 121.504 134.032L121.009 133.962C120.915 134.623 120.808 135.28 120.688 135.932L121.18 136.022C121.058 136.685 120.922 137.343 120.774 137.996L120.286 137.885C120.139 138.536 119.978 139.181 119.805 139.821L120.288 139.951C120.112 140.601 119.923 141.246 119.722 141.885L119.245 141.734C119.045 142.37 118.832 143 118.606 143.624L119.077 143.793C118.848 144.427 118.607 145.054 118.353 145.675L117.89 145.486C117.638 146.103 117.374 146.713 117.098 147.317L117.553 147.525C117.273 148.137 116.981 148.742 116.678 149.34L116.232 149.114C115.93 149.707 115.617 150.294 115.292 150.873L115.728 151.118C115.399 151.704 115.059 152.283 114.707 152.855L114.281 152.592C113.932 153.159 113.572 153.718 113.201 154.269L113.615 154.548C113.239 155.106 112.852 155.655 112.455 156.196L112.052 155.899C111.658 156.436 111.253 156.963 110.837 157.482L111.227 157.795C110.807 158.319 110.377 158.835 109.936 159.342L109.559 159.013C109.122 159.515 108.675 160.008 108.219 160.491L108.582 160.834C108.12 161.323 107.649 161.801 107.168 162.27L106.819 161.912C106.343 162.376 105.857 162.83 105.362 163.274L105.696 163.647C105.196 164.095 104.687 164.534 104.169 164.961L103.851 164.576C103.338 164.999 102.817 165.412 102.287 165.814L102.589 166.212C102.054 166.618 101.51 167.013 100.958 167.396L100.673 166.986C100.127 167.365 99.5736 167.733 99.012 168.09L99.2801 168.512C98.7136 168.872 98.1391 169.22 97.5571 169.557L97.3068 169.124C96.7318 169.456 96.1494 169.777 95.5599 170.086L95.7919 170.529C95.1975 170.84 94.5959 171.14 93.9874 171.426L93.7742 170.974C93.1737 171.257 92.5664 171.528 91.9526 171.787L92.1467 172.248C91.5285 172.508 90.9039 172.756 90.2731 172.991L90.0986 172.522C89.4771 172.754 88.8495 172.972 88.2162 173.178L88.3707 173.654C87.7335 173.861 87.0905 174.055 86.4421 174.236L86.3077 173.754C85.6692 173.933 85.0253 174.098 84.3764 174.25L84.4903 174.737C83.8381 174.889 83.1808 175.029 82.5188 175.154L82.4255 174.663C81.7742 174.787 81.1184 174.897 80.4581 174.994L80.5307 175.489C79.8681 175.586 79.2011 175.67 78.53 175.74L78.4782 175.242C77.8202 175.311 77.1581 175.366 76.4924 175.407L76.5234 175.906C75.8562 175.948 75.1853 175.976 74.5111 175.99L74.5007 175.49C74.168 175.497 73.8344 175.5 73.5 175.5C73.1656 175.5 72.832 175.497 72.4992 175.49L72.4889 175.99C71.8147 175.976 71.1438 175.948 70.4766 175.906L70.5076 175.407C69.8419 175.366 69.1798 175.311 68.5217 175.242L68.47 175.74C67.7989 175.67 67.1319 175.586 66.4693 175.489L66.5418 174.994C65.8816 174.897 65.2257 174.787 64.5745 174.663L64.4812 175.154C63.8192 175.029 63.1619 174.889 62.5097 174.737L62.6236 174.25C61.9747 174.098 61.3308 173.933 60.6923 173.754L60.5579 174.236C59.9095 174.055 59.2665 173.861 58.6292 173.654L58.7838 173.178C58.1505 172.972 57.5229 172.754 56.9014 172.522L56.7269 172.991C56.0961 172.756 55.4715 172.508 54.8533 172.248L55.0473 171.787C54.4336 171.528 53.8263 171.257 53.2258 170.974L53.0125 171.426C52.4041 171.14 51.8025 170.84 51.2081 170.529L51.4401 170.086C50.8506 169.777 50.2682 169.456 49.6932 169.124L49.4429 169.557C48.8609 169.22 48.2864 168.872 47.7199 168.512L47.988 168.09C47.4264 167.733 46.8727 167.365 46.3271 166.986L46.0418 167.396C45.4899 167.013 44.9463 166.618 44.4113 166.212L44.7134 165.814C44.1835 165.412 43.662 164.999 43.1494 164.576L42.831 164.961C42.3129 164.534 41.8037 164.095 41.3038 163.647L41.6377 163.274C41.1429 162.83 40.6572 162.376 40.1809 161.912L39.832 162.27C39.351 161.801 38.8795 161.323 38.418 160.834L38.7814 160.491C38.3248 160.008 37.878 159.515 37.4413 159.013L37.0641 159.342C36.6233 158.835 36.1926 158.319 35.7725 157.794L36.1628 157.482C35.7475 156.963 35.3425 156.436 34.9482 155.899L34.5454 156.196C34.1477 155.655 33.7607 155.106 33.3849 154.548L33.7995 154.269C33.4282 153.718 33.0679 153.159 32.7188 152.592L32.2931 152.855C31.9412 152.283 31.6007 151.704 31.2717 151.118L31.7079 150.873C31.3831 150.294 31.0698 149.707 30.7683 149.114L30.3225 149.34C30.0187 148.742 29.7268 148.137 29.447 147.525L29.9017 147.317C29.6257 146.713 29.3616 146.103 29.1097 145.486L28.6468 145.675C28.3932 145.054 28.152 144.427 27.9232 143.793L28.3935 143.623C28.1683 143 27.9553 142.37 27.755 141.734L27.2782 141.885C27.0768 141.246 26.888 140.601 26.7122 139.951L27.1948 139.821C27.0217 139.181 26.8612 138.536 26.7136 137.885L26.226 137.996C26.0778 137.343 25.9425 136.685 25.8204 136.022L26.3121 135.932C26.192 135.28 26.0848 134.623 25.9908 133.962L25.4958 134.032C25.4014 133.369 25.3202 132.702 25.2524 132.03L25.7499 131.98C25.6835 131.322 25.63 130.659 25.5899 129.993L25.0908 130.023C25.0506 129.356 25.0236 128.685 25.0101 128.011L25.51 128.001C25.5034 127.668 25.5 127.334 25.5 127C25.5 126.665 25.5034 126.332 25.51 125.999L25.0101 125.989C25.0236 125.315 25.0506 124.644 25.0908 123.977L25.5899 124.007C25.63 123.341 25.6835 122.678 25.7499 122.02L25.2525 121.97C25.3202 121.298 25.4014 120.631 25.4958 119.968L25.9908 120.038C26.0848 119.377 26.192 118.72 26.3121 118.068L25.8204 117.978C25.9425 117.315 26.0778 116.657 26.226 116.004L26.7136 116.115C26.8612 115.464 27.0217 114.819 27.1948 114.179L26.7122 114.049C26.888 113.399 27.0768 112.754 27.2782 112.115L27.755 112.266C27.9553 111.63 28.1683 111 28.3935 110.376L27.9232 110.207C28.152 109.573 28.3932 108.946 28.6468 108.325L29.1097 108.514C29.3616 107.897 29.6257 107.287 29.9017 106.683L29.447 106.475C29.7268 105.863 30.0187 105.258 30.3225 104.66L30.7683 104.886C31.0698 104.293 31.3831 103.706 31.7079 103.127L31.2717 102.882C31.6007 102.296 31.9412 101.717 32.2931 101.145L32.7188 101.408C33.0679 100.841 33.4282 100.282 33.7995 99.7314L33.3849 99.4519C33.7607 98.8944 34.1477 98.345 34.5454 97.8043L34.9482 98.1005C35.3425 97.5644 35.7475 97.0368 36.1628 96.518L35.7725 96.2055C36.1927 95.6808 36.6233 95.165 37.0641 94.6585L37.4413 94.9867C37.878 94.4849 38.3248 93.9923 38.7814 93.5092L38.418 93.1658C38.8795 92.6774 39.351 92.1987 39.832 91.7299L40.1809 92.088C40.6572 91.6239 41.1429 91.1696 41.6377 90.7255L41.3038 90.3534C41.8037 89.9047 42.3129 89.4664 42.831 89.0386L43.1494 89.4242C43.662 89.0009 44.1835 88.5881 44.7134 88.1862L44.4113 87.7878C44.9463 87.3821 45.4899 86.9872 46.0418 86.6036L46.3272 87.0142C46.8727 86.6349 47.4264 86.2668 47.988 85.9101L47.7199 85.488C48.2865 85.1281 48.8609 84.7797 49.4429 84.4432L49.6932 84.876C50.2682 84.5435 50.8506 84.2228 51.4401 83.914L51.2081 83.471C51.8025 83.1597 52.4041 82.8604 53.0126 82.5735L53.2258 83.0258C53.8263 82.7426 54.4336 82.4716 55.0474 82.2132L54.8533 81.7524C55.4715 81.492 56.0961 81.2443 56.7269 81.0094L56.9014 81.4779C57.523 81.2465 58.1505 81.0277 58.7838 80.8218L58.6293 80.3463C59.2665 80.1391 59.9095 79.9449 60.5579 79.7639L60.6923 80.2455C61.3308 80.0674 61.9747 79.9022 62.6236 79.7503L62.5097 79.2634C63.1619 79.1108 63.8192 78.9714 64.4812 78.8456L64.5745 79.3368C65.2258 79.2131 65.8816 79.1027 66.5419 79.0058L66.4693 78.5111C67.1319 78.4139 67.7989 78.3302 68.47 78.2603L68.5218 78.7577C69.1798 78.6891 69.8419 78.6341 70.5076 78.5927L70.4766 78.0937C71.1438 78.0522 71.8147 78.0244 72.4889 78.0104L72.4993 78.5103C72.832 78.5035 73.1656 78.5 73.5 78.5C73.8344 78.5 74.168 78.5035 74.5008 78.5103L74.5111 78.0104C75.1853 78.0244 75.8562 78.0522 76.5234 78.0937L76.4924 78.5927C77.1581 78.6341 77.8202 78.6891 78.4783 78.7577L78.53 78.2603C79.2011 78.3302 79.8681 78.4139 80.5307 78.5111L80.4582 79.0058C81.1184 79.1027 81.7743 79.2131 82.4255 79.3368L82.5188 78.8456C83.1808 78.9714 83.8381 79.1108 84.4903 79.2634L84.3764 79.7503C85.0253 79.9022 85.6692 80.0674 86.3077 80.2455L86.4421 79.7639C87.0905 79.9449 87.7335 80.1391 88.3708 80.3463L88.2162 80.8218C88.8495 81.0277 89.4771 81.2465 90.0986 81.4779L90.2731 81.0094C90.9039 81.2443 91.5285 81.4921 92.1467 81.7524L91.9527 82.2132C92.5664 82.4716 93.1737 82.7426 93.7742 83.0258L93.9875 82.5735C94.5959 82.8604 95.1975 83.1597 95.7919 83.4711L95.5599 83.914C96.1494 84.2228 96.7318 84.5436 97.3068 84.876L97.5571 84.4432C98.1391 84.7797 98.7136 85.1281 99.2801 85.488L99.012 85.9101C99.5736 86.2668 100.127 86.6349 100.673 87.0142L100.958 86.6036C101.51 86.9872 102.054 87.3821 102.589 87.7878L102.287 88.1862C102.817 88.5882 103.338 89.0009 103.851 89.4242L104.169 89.0386C104.687 89.4664 105.196 89.9048 105.696 90.3534L105.362 90.7256C105.857 91.1696 106.343 91.6239 106.819 92.088L107.168 91.73C107.649 92.1987 108.12 92.6775 108.582 93.1658L108.219 93.5092C108.675 93.9923 109.122 94.4849 109.559 94.9867L109.936 94.6585C110.377 95.165 110.807 95.6808 111.227 96.2055L110.837 96.518C111.253 97.0368 111.658 97.5644 112.052 98.1006L112.455 97.8043C112.852 98.3451 113.239 98.8944 113.615 99.4519L113.201 99.7314C113.572 100.282 113.932 100.841 114.281 101.408L114.707 101.145C115.059 101.717 115.399 102.296 115.728 102.882L115.292 103.127C115.617 103.706 115.93 104.293 116.232 104.886L116.678 104.66C116.981 105.258 117.273 105.863 117.553 106.475L117.098 106.683C117.374 107.287 117.638 107.897 117.89 108.514L118.353 108.325C118.607 108.946 118.848 109.573 119.077 110.207L118.606 110.377C118.832 111 119.045 111.63 119.245 112.266L119.722 112.115C119.923 112.754 120.112 113.399 120.288 114.049L119.805 114.179C119.978 114.819 120.139 115.464 120.286 116.115L120.774 116.004C120.922 116.657 121.058 117.315 121.18 117.978L120.688 118.068C120.808 118.72 120.915 119.377 121.009 120.038L121.504 119.968C121.599 120.631 121.68 121.298 121.748 121.97L121.25 122.02C121.317 122.678 121.37 123.341 121.41 124.007L121.909 123.977Z" stroke="#DCDCDC" stroke-dasharray="2 2"/>
<path d="M565.916 124.069C565.953 124.716 565.978 125.366 565.991 126.02L565.491 126.029C565.497 126.352 565.5 126.676 565.5 127C565.5 127.324 565.497 127.648 565.491 127.971L565.991 127.98C565.978 128.634 565.953 129.284 565.916 129.931L565.417 129.902C565.38 130.549 565.331 131.192 565.27 131.831L565.767 131.879C565.705 132.53 565.63 133.177 565.543 133.821L565.048 133.754C564.961 134.395 564.862 135.033 564.752 135.666L565.244 135.752C565.132 136.395 565.007 137.034 564.871 137.669L564.382 137.564C564.246 138.195 564.098 138.823 563.939 139.445L564.423 139.569C564.261 140.202 564.086 140.83 563.901 141.453L563.421 141.31C563.237 141.929 563.04 142.544 562.832 143.153L563.305 143.314C563.094 143.932 562.872 144.544 562.638 145.15L562.171 144.97C561.939 145.573 561.695 146.17 561.44 146.761L561.899 146.959C561.641 147.557 561.371 148.15 561.09 148.736L560.639 148.521C560.361 149.103 560.071 149.679 559.77 150.249L560.212 150.482C559.908 151.059 559.593 151.629 559.267 152.192L558.834 151.942C558.511 152.501 558.177 153.053 557.833 153.597L558.256 153.864C557.908 154.415 557.549 154.959 557.18 155.495L556.768 155.212C556.403 155.743 556.027 156.267 555.641 156.783L556.042 157.083C555.652 157.605 555.252 158.119 554.843 158.625L554.454 158.311C554.048 158.812 553.633 159.305 553.208 159.79L553.584 160.12C553.155 160.61 552.716 161.091 552.268 161.564L551.905 161.22C551.462 161.688 551.009 162.148 550.548 162.598L550.897 162.956C550.431 163.411 549.956 163.857 549.473 164.293L549.138 163.922C548.659 164.354 548.172 164.777 547.677 165.19L547.997 165.574C547.497 165.991 546.989 166.398 546.473 166.795L546.168 166.399C545.657 166.792 545.138 167.175 544.612 167.548L544.901 167.956C544.37 168.333 543.832 168.699 543.285 169.054L543.013 168.635C542.473 168.987 541.926 169.328 541.371 169.659L541.627 170.088C541.068 170.421 540.502 170.744 539.93 171.055L539.691 170.616C539.125 170.924 538.553 171.22 537.974 171.506L538.195 171.954C537.612 172.242 537.022 172.519 536.426 172.784L536.223 172.327C535.635 172.588 535.041 172.838 534.441 173.077L534.626 173.542C534.022 173.782 533.412 174.01 532.796 174.227L532.63 173.755C532.023 173.969 531.411 174.171 530.793 174.361L530.94 174.839C530.319 175.03 529.693 175.209 529.061 175.376L528.934 174.892C528.312 175.057 527.686 175.209 527.056 175.349L527.164 175.837C526.53 175.977 525.892 176.106 525.249 176.221L525.16 175.729C524.528 175.843 523.891 175.945 523.251 176.034L523.32 176.529C522.676 176.619 522.029 176.696 521.378 176.76L521.329 176.263C520.69 176.326 520.047 176.377 519.401 176.415L519.431 176.914C518.784 176.952 518.134 176.978 517.48 176.99L517.471 176.49C517.148 176.497 516.824 176.5 516.5 176.5C516.176 176.5 515.852 176.497 515.53 176.49L515.52 176.99C514.866 176.978 514.216 176.952 513.569 176.914L513.599 176.415C512.953 176.377 512.31 176.326 511.671 176.263L511.622 176.76C510.971 176.696 510.324 176.619 509.681 176.529L509.749 176.034C509.109 175.945 508.472 175.843 507.84 175.729L507.751 176.221C507.108 176.106 506.47 175.977 505.836 175.837L505.944 175.349C505.314 175.209 504.688 175.057 504.066 174.892L503.939 175.376C503.307 175.209 502.681 175.03 502.06 174.839L502.207 174.361C501.589 174.171 500.977 173.969 500.37 173.755L500.204 174.227C499.588 174.01 498.978 173.782 498.374 173.542L498.559 173.077C497.959 172.838 497.365 172.588 496.777 172.327L496.574 172.784C495.978 172.519 495.388 172.242 494.805 171.954L495.026 171.506C494.447 171.221 493.875 170.924 493.309 170.616L493.07 171.055C492.498 170.744 491.932 170.421 491.373 170.088L491.629 169.659C491.074 169.328 490.527 168.987 489.987 168.635L489.715 169.054C489.168 168.699 488.63 168.333 488.099 167.956L488.388 167.548C487.862 167.175 487.343 166.792 486.832 166.399L486.527 166.795C486.011 166.398 485.503 165.991 485.003 165.574L485.323 165.19C484.828 164.777 484.341 164.354 483.862 163.922L483.527 164.293C483.044 163.857 482.569 163.411 482.103 162.956L482.452 162.598C481.991 162.148 481.538 161.688 481.095 161.22L480.732 161.564C480.284 161.091 479.845 160.61 479.416 160.12L479.792 159.79C479.367 159.305 478.952 158.812 478.546 158.311L478.157 158.625C477.748 158.119 477.348 157.605 476.958 157.083L477.359 156.783C476.973 156.267 476.597 155.743 476.232 155.212L475.82 155.495C475.451 154.959 475.092 154.415 474.744 153.864L475.167 153.597C474.823 153.053 474.489 152.501 474.166 151.942L473.733 152.192C473.407 151.629 473.092 151.059 472.788 150.482L473.23 150.249C472.929 149.679 472.639 149.103 472.361 148.52L471.91 148.736C471.629 148.15 471.359 147.557 471.101 146.959L471.56 146.76C471.305 146.17 471.061 145.573 470.829 144.97L470.362 145.15C470.128 144.544 469.906 143.932 469.695 143.314L470.168 143.153C469.96 142.544 469.763 141.929 469.579 141.31L469.099 141.453C468.914 140.83 468.739 140.202 468.577 139.569L469.061 139.445C468.902 138.823 468.754 138.195 468.618 137.564L468.129 137.669C467.993 137.034 467.868 136.395 467.756 135.752L468.248 135.666C468.138 135.033 468.039 134.395 467.952 133.754L467.457 133.821C467.37 133.177 467.295 132.53 467.233 131.879L467.73 131.831C467.669 131.192 467.62 130.549 467.583 129.902L467.084 129.931C467.047 129.284 467.022 128.634 467.009 127.98L467.509 127.971C467.503 127.648 467.5 127.324 467.5 127C467.5 126.676 467.503 126.352 467.509 126.029L467.009 126.02C467.022 125.366 467.047 124.716 467.084 124.069L467.583 124.098C467.62 123.451 467.669 122.808 467.73 122.169L467.233 122.121C467.295 121.47 467.37 120.823 467.457 120.179L467.952 120.246C468.039 119.605 468.138 118.967 468.248 118.334L467.756 118.248C467.868 117.605 467.993 116.966 468.129 116.331L468.618 116.436C468.754 115.805 468.902 115.177 469.061 114.555L468.577 114.431C468.739 113.798 468.914 113.17 469.099 112.547L469.579 112.69C469.763 112.071 469.96 111.456 470.168 110.847L469.695 110.686C469.906 110.068 470.128 109.456 470.362 108.85L470.829 109.03C471.061 108.427 471.305 107.83 471.56 107.239L471.101 107.041C471.359 106.443 471.629 105.85 471.91 105.264L472.361 105.479C472.639 104.897 472.929 104.321 473.23 103.751L472.788 103.518C473.092 102.941 473.407 102.371 473.733 101.808L474.166 102.058C474.489 101.499 474.823 100.947 475.167 100.403L474.744 100.136C475.092 99.5848 475.451 99.0411 475.82 98.505L476.232 98.7883C476.597 98.2567 476.973 97.7327 477.359 97.2165L476.958 96.9173C477.348 96.3951 477.748 95.8809 478.157 95.3749L478.546 95.6895C478.952 95.188 479.367 94.6947 479.792 94.2098L479.416 93.8804C479.845 93.3903 480.284 92.9087 480.732 92.4361L481.095 92.78C481.538 92.3118 481.991 91.8524 482.452 91.402L482.103 91.0443C482.569 90.5893 483.044 90.1434 483.527 89.707L483.862 90.0782C484.341 89.6461 484.828 89.2234 485.323 88.8104L485.003 88.4264C485.503 88.0093 486.011 87.602 486.527 87.2047L486.832 87.6009C487.343 87.2078 487.862 86.8246 488.388 86.4517L488.099 86.0437C488.63 85.6673 489.168 85.3012 489.715 84.9456L489.987 85.3646C490.527 85.013 491.074 84.6718 491.629 84.3414L491.373 83.9119C491.932 83.5786 492.498 83.2561 493.07 82.9446L493.309 83.3839C493.875 83.0762 494.447 82.7795 495.026 82.494L494.805 82.0456C495.388 81.7579 495.978 81.4814 496.574 81.2165L496.777 81.6733C497.365 81.4118 497.959 81.1616 498.559 80.9231L498.374 80.4585C498.978 80.2182 499.588 79.9896 500.204 79.7729L500.37 80.2446C500.977 80.0309 501.589 79.8289 502.207 79.6389L502.06 79.161C502.681 78.97 503.307 78.7909 503.939 78.6241L504.066 79.1075C504.688 78.9434 505.314 78.7912 505.944 78.6514L505.836 78.1632C506.47 78.0226 507.108 77.8943 507.751 77.7786L507.84 78.2706C508.472 78.1567 509.109 78.055 509.749 77.9658L509.68 77.4706C510.324 77.3811 510.971 77.304 511.622 77.2397L511.671 77.7373C512.31 77.6742 512.953 77.6234 513.599 77.5853L513.569 77.0862C514.216 77.048 514.866 77.0224 515.52 77.0096L515.529 77.5095C515.852 77.5032 516.176 77.5 516.5 77.5C516.824 77.5 517.148 77.5032 517.47 77.5095L517.48 77.0096C518.134 77.0224 518.784 77.048 519.431 77.0862L519.401 77.5853C520.047 77.6234 520.69 77.6742 521.329 77.7373L521.378 77.2397C522.029 77.304 522.676 77.3811 523.319 77.4706L523.251 77.9658C523.891 78.055 524.528 78.1567 525.16 78.2706L525.249 77.7786C525.892 77.8943 526.53 78.0226 527.164 78.1632L527.056 78.6513C527.686 78.7912 528.312 78.9434 528.934 79.1075L529.061 78.6241C529.693 78.7909 530.319 78.9699 530.94 79.161L530.793 79.6389C531.411 79.8289 532.023 80.0309 532.63 80.2446L532.796 79.7729C533.412 79.9896 534.022 80.2182 534.626 80.4585L534.441 80.9231C535.041 81.1616 535.635 81.4118 536.223 81.6733L536.426 81.2164C537.022 81.4814 537.612 81.7579 538.195 82.0456L537.974 82.494C538.553 82.7795 539.125 83.0762 539.691 83.3838L539.93 82.9446C540.502 83.2561 541.068 83.5786 541.627 83.9119L541.371 84.3414C541.926 84.6718 542.473 85.013 543.013 85.3646L543.285 84.9456C543.832 85.3012 544.37 85.6673 544.901 86.0437L544.612 86.4517C545.138 86.8246 545.657 87.2078 546.168 87.6009L546.473 87.2046C546.989 87.602 547.497 88.0093 547.997 88.4264L547.677 88.8104C548.172 89.2234 548.659 89.6461 549.138 90.0781L549.473 89.707C549.956 90.1434 550.431 90.5893 550.897 91.0443L550.548 91.402C551.009 91.8524 551.462 92.3118 551.905 92.78L552.268 92.4361C552.716 92.9087 553.155 93.3903 553.584 93.8804L553.208 94.2098C553.633 94.6947 554.048 95.188 554.454 95.6895L554.843 95.3749C555.252 95.8809 555.652 96.3951 556.042 96.9173L555.641 97.2165C556.027 97.7327 556.403 98.2567 556.768 98.7883L557.18 98.505C557.549 99.0411 557.908 99.5848 558.256 100.136L557.833 100.403C558.177 100.947 558.511 101.499 558.834 102.058L559.267 101.808C559.593 102.371 559.908 102.941 560.212 103.518L559.77 103.751C560.071 104.321 560.361 104.897 560.639 105.48L561.09 105.264C561.371 105.85 561.641 106.443 561.899 107.041L561.44 107.24C561.695 107.83 561.939 108.427 562.171 109.03L562.638 108.85C562.872 109.456 563.094 110.068 563.305 110.686L562.832 110.847C563.04 111.456 563.237 112.071 563.421 112.69L563.901 112.547C564.086 113.17 564.261 113.798 564.423 114.431L563.939 114.555C564.098 115.177 564.246 115.805 564.382 116.436L564.871 116.331C565.007 116.966 565.132 117.605 565.244 118.248L564.752 118.334C564.862 118.967 564.961 119.605 565.048 120.246L565.543 120.179C565.63 120.823 565.705 121.47 565.767 122.121L565.27 122.169C565.331 122.808 565.38 123.451 565.417 124.098L565.916 124.069Z" stroke="#DCDCDC" stroke-dasharray="2 2"/>
<line x1="72" y1="126.5" x2="122" y2="126.5" stroke="#DCDCDC" stroke-dasharray="2 2"/>
<line x1="515" y1="126.5" x2="565" y2="126.5" stroke="#DCDCDC" stroke-dasharray="2 2"/>
<line x1="73.6159" y1="126.588" x2="91.101" y2="172.685" stroke="#DCDCDC" stroke-dasharray="2 2"/>
<line x1="516.722" y1="126.59" x2="534.376" y2="173.133" stroke="#DCDCDC" stroke-dasharray="2 2"/>
<line x1="73.6211" y1="126.928" x2="57.7256" y2="173.025" stroke="#DCDCDC" stroke-dasharray="2 2"/>
<line x1="516.727" y1="126.93" x2="500.678" y2="173.474" stroke="#DCDCDC" stroke-dasharray="2 2"/>
<line x1="72.8469" y1="127.535" x2="26.0354" y2="126.686" stroke="#DCDCDC" stroke-dasharray="2 2"/>
<line x1="515.95" y1="127.54" x2="468.686" y2="126.683" stroke="#DCDCDC" stroke-dasharray="2 2"/>
<ellipse rx="8.5" ry="8" transform="matrix(-1 0 0 1 57.5 173)" fill="#C2C2C2"/>
<ellipse rx="8.5" ry="8" transform="matrix(-1 0 0 1 500.5 173)" fill="#C2C2C2"/>
<circle r="8.5" transform="matrix(-1 0 0 1 26.5 126.5)" fill="#C2C2C2"/>
<ellipse rx="8" ry="8.5" transform="matrix(-1 0 0 1 469 126.5)" fill="#C2C2C2"/>
<circle r="8.5" transform="matrix(-1 0 0 1 121.5 126.5)" fill="#C2C2C2"/>
<ellipse rx="8" ry="8.5" transform="matrix(-1 0 0 1 565 126.5)" fill="#C2C2C2"/>
<ellipse rx="4" ry="3.5" transform="matrix(-1 0 0 1 98 143.5)" fill="#C2C2C2"/>
<circle r="3.5" transform="matrix(-1 0 0 1 541.5 143.5)" fill="#C2C2C2"/>
<circle r="4" transform="matrix(-1 0 0 1 98 110)" fill="#C2C2C2"/>
<ellipse rx="3.5" ry="4" transform="matrix(-1 0 0 1 541.5 110)" fill="#C2C2C2"/>
<ellipse rx="3.5" ry="4" transform="matrix(-1 0 0 1 49.5 110)" fill="#C2C2C2"/>
<circle r="4" transform="matrix(-1 0 0 1 493 110)" fill="#C2C2C2"/>
<ellipse rx="3.5" ry="4" transform="matrix(-1 0 0 1 49.5 144)" fill="#C2C2C2"/>
<ellipse rx="4" ry="3.5" transform="matrix(-1 0 0 1 493 144.5)" fill="#C2C2C2"/>
<ellipse rx="1.5" ry="1" transform="matrix(-1 0 0 1 43.5 127)" fill="#C2C2C2"/>
<ellipse rx="1.5" ry="1" transform="matrix(-1 0 0 1 486.5 127)" fill="#C2C2C2"/>
<circle r="8" transform="matrix(-1 0 0 1 90 173)" fill="#C2C2C2"/>
<circle r="8" transform="matrix(-1 0 0 1 533 173)" fill="#C2C2C2"/>
<line y1="-0.5" x2="49.3018" y2="-0.5" transform="matrix(0.354654 -0.934998 -0.934998 -0.354654 73.1484 126.235)" stroke="#DCDCDC" stroke-dasharray="2 2"/>
<line y1="-0.5" x2="49.7789" y2="-0.5" transform="matrix(0.354654 -0.934998 -0.934998 -0.354654 516.254 126.233)" stroke="#DCDCDC" stroke-dasharray="2 2"/>
<line y1="-0.5" x2="48.7607" y2="-0.5" transform="matrix(-0.325991 -0.945373 -0.945373 0.325991 73.1484 126.235)" stroke="#DCDCDC" stroke-dasharray="2 2"/>
<line y1="-0.5" x2="49.2326" y2="-0.5" transform="matrix(-0.325991 -0.945373 -0.945373 0.325991 516.254 126.233)" stroke="#DCDCDC" stroke-dasharray="2 2"/>
<ellipse rx="8.5" ry="8" transform="matrix(-1 0 0 1 57.5 80)" fill="#C2C2C2"/>
<ellipse rx="8.5" ry="8" transform="matrix(-1 0 0 1 500.5 80)" fill="#C2C2C2"/>
<circle r="8" transform="matrix(-1 0 0 1 90 80)" fill="#C2C2C2"/>
<circle r="8" transform="matrix(-1 0 0 1 533 80)" fill="#C2C2C2"/>
<circle r="5.5" transform="matrix(-1 0 0 1 73.5 127.5)" fill="#393939"/>
<circle r="5.5" transform="matrix(-1 0 0 1 516.5 127.5)" fill="#393939"/>
<circle r="1.5" transform="matrix(-1 0 0 1 64.5 98.5)" fill="#C2C2C2"/>
<ellipse rx="2" ry="1" transform="matrix(-1 0 0 1 507 98)" fill="#C2C2C2"/>
<ellipse rx="1" ry="1.5" transform="matrix(-1 0 0 1 83 98.5)" fill="#C2C2C2"/>
<ellipse rx="2" ry="1" transform="matrix(-1 0 0 1 527 98)" fill="#C2C2C2"/>
<ellipse rx="1" ry="1.5" transform="matrix(-1 0 0 1 103 126.5)" fill="#C2C2C2"/>
<circle r="1.5" transform="matrix(-1 0 0 1 546.5 126.5)" fill="#C2C2C2"/>
<ellipse rx="1" ry="1.5" transform="matrix(-1 0 0 1 83 154.5)" fill="#C2C2C2"/>
<ellipse rx="2" ry="1" transform="matrix(-1 0 0 1 527 155)" fill="#C2C2C2"/>
<circle cx="73.5" cy="126.5" r="20" stroke="#DCDCDC" stroke-dasharray="2 2"/>
<circle cx="517.5" cy="126.5" r="20" stroke="#DCDCDC" stroke-dasharray="2 2"/>
<path d="M102.839 123.372C102.91 124.059 102.958 124.753 102.982 125.454L102.482 125.471C102.494 125.813 102.5 126.156 102.5 126.5C102.5 126.844 102.494 127.187 102.482 127.529L102.982 127.546C102.958 128.247 102.91 128.941 102.839 129.628L102.342 129.577C102.271 130.262 102.176 130.941 102.059 131.612L102.551 131.698C102.431 132.387 102.287 133.068 102.12 133.74L101.635 133.62C101.469 134.287 101.281 134.946 101.071 135.594L101.546 135.748C101.331 136.413 101.093 137.068 100.833 137.711L100.369 137.523C100.112 138.16 99.8327 138.785 99.5331 139.398L99.9823 139.618C99.6756 140.245 99.3477 140.86 98.9995 141.46L98.5669 141.21C98.223 141.803 97.8589 142.383 97.4755 142.948L97.8894 143.229C97.498 143.806 97.0869 144.369 96.6571 144.915L96.2641 144.606C95.8405 145.145 95.3984 145.667 94.9388 146.174L95.309 146.51C94.8407 147.026 94.3545 147.524 93.8514 148.005L93.5059 147.644C93.011 148.117 92.4995 148.572 91.9724 149.008L92.2912 149.393C91.7551 149.837 91.203 150.262 90.6361 150.666L90.3456 150.259C89.7891 150.657 89.218 151.034 88.6333 151.391L88.8937 151.818C88.3002 152.18 87.693 152.521 87.0729 152.84L86.8442 152.395C86.2371 152.708 85.6175 152.998 84.9865 153.267L85.1823 153.727C84.5437 153.999 83.8934 154.248 83.2326 154.474L83.0711 154C82.4259 154.221 81.7705 154.418 81.1057 154.592L81.2321 155.075C80.562 155.25 79.8826 155.401 79.1948 155.528L79.1043 155.036C78.4352 155.159 77.758 155.259 77.0735 155.333L77.1277 155.83C76.4407 155.905 75.7465 155.956 75.0459 155.981L75.0279 155.481C74.6868 155.494 74.3441 155.5 74 155.5C73.6559 155.5 73.3132 155.494 72.9721 155.481L72.9541 155.981C72.2535 155.956 71.5593 155.905 70.8723 155.83L70.9265 155.333C70.242 155.259 69.5648 155.159 68.8957 155.036L68.8052 155.528C68.1174 155.401 67.438 155.25 66.7679 155.075L66.8943 154.592C66.2295 154.418 65.5741 154.221 64.9289 154L64.7674 154.474C64.1066 154.248 63.4563 153.999 62.8177 153.727L63.0135 153.267C62.3825 152.998 61.7629 152.708 61.1558 152.395L60.9271 152.84C60.307 152.521 59.6998 152.18 59.1063 151.818L59.3667 151.391C58.782 151.034 58.2109 150.657 57.6544 150.259L57.3639 150.666C56.797 150.262 56.2449 149.837 55.7088 149.393L56.0276 149.008C55.5005 148.572 54.989 148.117 54.4941 147.644L54.1486 148.005C53.6455 147.524 53.1593 147.026 52.691 146.51L53.0612 146.174C52.6016 145.667 52.1595 145.145 51.7359 144.606L51.3429 144.915C50.9131 144.369 50.502 143.806 50.1106 143.229L50.5245 142.948C50.1411 142.383 49.777 141.803 49.4331 141.21L49.0005 141.46C48.6523 140.86 48.3244 140.245 48.0178 139.618L48.467 139.398C48.1673 138.785 47.8883 138.16 47.6309 137.523L47.1674 137.711C46.9075 137.068 46.6693 136.413 46.4537 135.748L46.9293 135.594C46.7191 134.946 46.5307 134.287 46.3651 133.62L45.8798 133.74C45.7131 133.068 45.5691 132.387 45.4487 131.698L45.9412 131.612C45.824 130.941 45.7295 130.262 45.6584 129.577L45.1611 129.628C45.0899 128.941 45.0419 128.247 45.0179 127.546L45.5176 127.529C45.5059 127.187 45.5 126.844 45.5 126.5C45.5 126.156 45.5059 125.813 45.5176 125.471L45.0179 125.454C45.0419 124.753 45.0899 124.059 45.1611 123.372L45.6584 123.423C45.7295 122.738 45.824 122.059 45.9412 121.388L45.4487 121.302C45.5691 120.613 45.7131 119.932 45.8798 119.26L46.3651 119.38C46.5307 118.713 46.7191 118.054 46.9293 117.406L46.4537 117.252C46.6693 116.587 46.9075 115.932 47.1674 115.289L47.6309 115.477C47.8883 114.84 48.1673 114.215 48.467 113.602L48.0178 113.382C48.3244 112.755 48.6523 112.14 49.0005 111.54L49.4331 111.79C49.777 111.197 50.1411 110.617 50.5245 110.052L50.1106 109.771C50.502 109.194 50.9131 108.631 51.3429 108.085L51.7359 108.394C52.1595 107.855 52.6016 107.333 53.0612 106.826L52.691 106.49C53.1593 105.974 53.6455 105.476 54.1486 104.995L54.4941 105.356C54.989 104.883 55.5005 104.428 56.0276 103.992L55.7088 103.607C56.2449 103.163 56.797 102.738 57.3639 102.334L57.6544 102.741C58.2109 102.343 58.782 101.966 59.3667 101.609L59.1063 101.182C59.6998 100.82 60.307 100.479 60.9271 100.16L61.1558 100.605C61.7629 100.292 62.3825 100.002 63.0135 99.7331L62.8177 99.273C63.4564 99.0012 64.1066 98.7521 64.7674 98.5265L64.9289 98.9997C65.5741 98.7794 66.2295 98.5821 66.8943 98.4085L66.7679 97.9247C67.438 97.7497 68.1174 97.5985 68.8052 97.472L68.8957 97.9637C69.5648 97.8406 70.242 97.7413 70.9265 97.6666L70.8723 97.1696C71.5593 97.0946 72.2535 97.0441 72.9541 97.0188L72.9721 97.5185C73.3132 97.5062 73.6559 97.5 74 97.5C74.3441 97.5 74.6868 97.5062 75.0279 97.5185L75.0459 97.0188C75.7465 97.0441 76.4407 97.0946 77.1277 97.1696L77.0735 97.6666C77.758 97.7413 78.4352 97.8406 79.1043 97.9637L79.1948 97.472C79.8826 97.5985 80.562 97.7497 81.2321 97.9247L81.1057 98.4085C81.7705 98.5821 82.4259 98.7794 83.0711 98.9997L83.2326 98.5265C83.8934 98.7521 84.5437 99.0012 85.1823 99.273L84.9865 99.7331C85.6175 100.002 86.2371 100.292 86.8442 100.605L87.0729 100.16C87.693 100.479 88.3002 100.82 88.8937 101.182L88.6333 101.609C89.218 101.966 89.7891 102.343 90.3456 102.741L90.6361 102.334C91.203 102.738 91.7551 103.163 92.2912 103.607L91.9724 103.992C92.4995 104.428 93.011 104.883 93.5059 105.356L93.8514 104.995C94.3545 105.476 94.8407 105.974 95.309 106.49L94.9389 106.826C95.3984 107.333 95.8405 107.855 96.2641 108.394L96.6571 108.085C97.0869 108.631 97.498 109.194 97.8894 109.771L97.4755 110.052C97.8589 110.617 98.223 111.197 98.5669 111.79L98.9995 111.54C99.3477 112.14 99.6756 112.755 99.9823 113.382L99.5331 113.602C99.8327 114.215 100.112 114.84 100.369 115.477L100.833 115.289C101.093 115.932 101.331 116.587 101.546 117.252L101.071 117.406C101.281 118.054 101.469 118.713 101.635 119.38L102.12 119.26C102.287 119.932 102.431 120.613 102.551 121.302L102.059 121.388C102.176 122.059 102.271 122.738 102.342 123.423L102.839 123.372Z" stroke="#DCDCDC" stroke-dasharray="2 2"/>
<circle cx="517.5" cy="126.5" r="30" stroke="#DCDCDC" stroke-dasharray="2 2"/>
<path d="M121.909 123.977C121.949 124.644 121.976 125.315 121.99 125.989L121.49 125.999C121.497 126.332 121.5 126.666 121.5 127C121.5 127.335 121.497 127.668 121.49 128.001L121.99 128.011C121.976 128.685 121.949 129.356 121.909 130.023L121.41 129.993C121.37 130.659 121.317 131.322 121.25 131.98L121.748 132.03C121.68 132.702 121.599 133.369 121.504 134.032L121.009 133.962C120.915 134.623 120.808 135.28 120.688 135.932L121.18 136.022C121.058 136.685 120.922 137.343 120.774 137.996L120.286 137.885C120.139 138.536 119.978 139.181 119.805 139.821L120.288 139.951C120.112 140.601 119.923 141.246 119.722 141.885L119.245 141.734C119.045 142.37 118.832 143 118.606 143.624L119.077 143.793C118.848 144.427 118.607 145.054 118.353 145.675L117.89 145.486C117.638 146.103 117.374 146.713 117.098 147.317L117.553 147.525C117.273 148.137 116.981 148.742 116.678 149.34L116.232 149.114C115.93 149.707 115.617 150.294 115.292 150.873L115.728 151.118C115.399 151.704 115.059 152.283 114.707 152.855L114.281 152.592C113.932 153.159 113.572 153.718 113.201 154.269L113.615 154.548C113.239 155.106 112.852 155.655 112.455 156.196L112.052 155.899C111.658 156.436 111.253 156.963 110.837 157.482L111.227 157.795C110.807 158.319 110.377 158.835 109.936 159.342L109.559 159.013C109.122 159.515 108.675 160.008 108.219 160.491L108.582 160.834C108.12 161.323 107.649 161.801 107.168 162.27L106.819 161.912C106.343 162.376 105.857 162.83 105.362 163.274L105.696 163.647C105.196 164.095 104.687 164.534 104.169 164.961L103.851 164.576C103.338 164.999 102.817 165.412 102.287 165.814L102.589 166.212C102.054 166.618 101.51 167.013 100.958 167.396L100.673 166.986C100.127 167.365 99.5736 167.733 99.012 168.09L99.2801 168.512C98.7136 168.872 98.1391 169.22 97.5571 169.557L97.3068 169.124C96.7318 169.456 96.1494 169.777 95.5599 170.086L95.7919 170.529C95.1975 170.84 94.5959 171.14 93.9874 171.426L93.7742 170.974C93.1737 171.257 92.5664 171.528 91.9526 171.787L92.1467 172.248C91.5285 172.508 90.9039 172.756 90.2731 172.991L90.0986 172.522C89.4771 172.754 88.8495 172.972 88.2162 173.178L88.3707 173.654C87.7335 173.861 87.0905 174.055 86.4421 174.236L86.3077 173.754C85.6692 173.933 85.0253 174.098 84.3764 174.25L84.4903 174.737C83.8381 174.889 83.1808 175.029 82.5188 175.154L82.4255 174.663C81.7742 174.787 81.1184 174.897 80.4581 174.994L80.5307 175.489C79.8681 175.586 79.2011 175.67 78.53 175.74L78.4782 175.242C77.8202 175.311 77.1581 175.366 76.4924 175.407L76.5234 175.906C75.8562 175.948 75.1853 175.976 74.5111 175.99L74.5007 175.49C74.168 175.497 73.8344 175.5 73.5 175.5C73.1656 175.5 72.832 175.497 72.4992 175.49L72.4889 175.99C71.8147 175.976 71.1438 175.948 70.4766 175.906L70.5076 175.407C69.8419 175.366 69.1798 175.311 68.5217 175.242L68.47 175.74C67.7989 175.67 67.1319 175.586 66.4693 175.489L66.5418 174.994C65.8816 174.897 65.2257 174.787 64.5745 174.663L64.4812 175.154C63.8192 175.029 63.1619 174.889 62.5097 174.737L62.6236 174.25C61.9747 174.098 61.3308 173.933 60.6923 173.754L60.5579 174.236C59.9095 174.055 59.2665 173.861 58.6292 173.654L58.7838 173.178C58.1505 172.972 57.5229 172.754 56.9014 172.522L56.7269 172.991C56.0961 172.756 55.4715 172.508 54.8533 172.248L55.0473 171.787C54.4336 171.528 53.8263 171.257 53.2258 170.974L53.0125 171.426C52.4041 171.14 51.8025 170.84 51.2081 170.529L51.4401 170.086C50.8506 169.777 50.2682 169.456 49.6932 169.124L49.4429 169.557C48.8609 169.22 48.2864 168.872 47.7199 168.512L47.988 168.09C47.4264 167.733 46.8727 167.365 46.3271 166.986L46.0418 167.396C45.4899 167.013 44.9463 166.618 44.4113 166.212L44.7134 165.814C44.1835 165.412 43.662 164.999 43.1494 164.576L42.831 164.961C42.3129 164.534 41.8037 164.095 41.3038 163.647L41.6377 163.274C41.1429 162.83 40.6572 162.376 40.1809 161.912L39.832 162.27C39.351 161.801 38.8795 161.323 38.418 160.834L38.7814 160.491C38.3248 160.008 37.878 159.515 37.4413 159.013L37.0641 159.342C36.6233 158.835 36.1926 158.319 35.7725 157.794L36.1628 157.482C35.7475 156.963 35.3425 156.436 34.9482 155.899L34.5454 156.196C34.1477 155.655 33.7607 155.106 33.3849 154.548L33.7995 154.269C33.4282 153.718 33.0679 153.159 32.7188 152.592L32.2931 152.855C31.9412 152.283 31.6007 151.704 31.2717 151.118L31.7079 150.873C31.3831 150.294 31.0698 149.707 30.7683 149.114L30.3225 149.34C30.0187 148.742 29.7268 148.137 29.447 147.525L29.9017 147.317C29.6257 146.713 29.3616 146.103 29.1097 145.486L28.6468 145.675C28.3932 145.054 28.152 144.427 27.9232 143.793L28.3935 143.623C28.1683 143 27.9553 142.37 27.755 141.734L27.2782 141.885C27.0768 141.246 26.888 140.601 26.7122 139.951L27.1948 139.821C27.0217 139.181 26.8612 138.536 26.7136 137.885L26.226 137.996C26.0778 137.343 25.9425 136.685 25.8204 136.022L26.3121 135.932C26.192 135.28 26.0848 134.623 25.9908 133.962L25.4958 134.032C25.4014 133.369 25.3202 132.702 25.2524 132.03L25.7499 131.98C25.6835 131.322 25.63 130.659 25.5899 129.993L25.0908 130.023C25.0506 129.356 25.0236 128.685 25.0101 128.011L25.51 128.001C25.5034 127.668 25.5 127.334 25.5 127C25.5 126.665 25.5034 126.332 25.51 125.999L25.0101 125.989C25.0236 125.315 25.0506 124.644 25.0908 123.977L25.5899 124.007C25.63 123.341 25.6835 122.678 25.7499 122.02L25.2525 121.97C25.3202 121.298 25.4014 120.631 25.4958 119.968L25.9908 120.038C26.0848 119.377 26.192 118.72 26.3121 118.068L25.8204 117.978C25.9425 117.315 26.0778 116.657 26.226 116.004L26.7136 116.115C26.8612 115.464 27.0217 114.819 27.1948 114.179L26.7122 114.049C26.888 113.399 27.0768 112.754 27.2782 112.115L27.755 112.266C27.9553 111.63 28.1683 111 28.3935 110.376L27.9232 110.207C28.152 109.573 28.3932 108.946 28.6468 108.325L29.1097 108.514C29.3616 107.897 29.6257 107.287 29.9017 106.683L29.447 106.475C29.7268 105.863 30.0187 105.258 30.3225 104.66L30.7683 104.886C31.0698 104.293 31.3831 103.706 31.7079 103.127L31.2717 102.882C31.6007 102.296 31.9412 101.717 32.2931 101.145L32.7188 101.408C33.0679 100.841 33.4282 100.282 33.7995 99.7314L33.3849 99.4519C33.7607 98.8944 34.1477 98.345 34.5454 97.8043L34.9482 98.1005C35.3425 97.5644 35.7475 97.0368 36.1628 96.518L35.7725 96.2055C36.1927 95.6808 36.6233 95.165 37.0641 94.6585L37.4413 94.9867C37.878 94.4849 38.3248 93.9923 38.7814 93.5092L38.418 93.1658C38.8795 92.6774 39.351 92.1987 39.832 91.7299L40.1809 92.088C40.6572 91.6239 41.1429 91.1696 41.6377 90.7255L41.3038 90.3534C41.8037 89.9047 42.3129 89.4664 42.831 89.0386L43.1494 89.4242C43.662 89.0009 44.1835 88.5881 44.7134 88.1862L44.4113 87.7878C44.9463 87.3821 45.4899 86.9872 46.0418 86.6036L46.3272 87.0142C46.8727 86.6349 47.4264 86.2668 47.988 85.9101L47.7199 85.488C48.2865 85.1281 48.8609 84.7797 49.4429 84.4432L49.6932 84.876C50.2682 84.5435 50.8506 84.2228 51.4401 83.914L51.2081 83.471C51.8025 83.1597 52.4041 82.8604 53.0126 82.5735L53.2258 83.0258C53.8263 82.7426 54.4336 82.4716 55.0474 82.2132L54.8533 81.7524C55.4715 81.492 56.0961 81.2443 56.7269 81.0094L56.9014 81.4779C57.523 81.2465 58.1505 81.0277 58.7838 80.8218L58.6293 80.3463C59.2665 80.1391 59.9095 79.9449 60.5579 79.7639L60.6923 80.2455C61.3308 80.0674 61.9747 79.9022 62.6236 79.7503L62.5097 79.2634C63.1619 79.1108 63.8192 78.9714 64.4812 78.8456L64.5745 79.3368C65.2258 79.2131 65.8816 79.1027 66.5419 79.0058L66.4693 78.5111C67.1319 78.4139 67.7989 78.3302 68.47 78.2603L68.5218 78.7577C69.1798 78.6891 69.8419 78.6341 70.5076 78.5927L70.4766 78.0937C71.1438 78.0522 71.8147 78.0244 72.4889 78.0104L72.4993 78.5103C72.832 78.5035 73.1656 78.5 73.5 78.5C73.8344 78.5 74.168 78.5035 74.5008 78.5103L74.5111 78.0104C75.1853 78.0244 75.8562 78.0522 76.5234 78.0937L76.4924 78.5927C77.1581 78.6341 77.8202 78.6891 78.4783 78.7577L78.53 78.2603C79.2011 78.3302 79.8681 78.4139 80.5307 78.5111L80.4582 79.0058C81.1184 79.1027 81.7743 79.2131 82.4255 79.3368L82.5188 78.8456C83.1808 78.9714 83.8381 79.1108 84.4903 79.2634L84.3764 79.7503C85.0253 79.9022 85.6692 80.0674 86.3077 80.2455L86.4421 79.7639C87.0905 79.9449 87.7335 80.1391 88.3708 80.3463L88.2162 80.8218C88.8495 81.0277 89.4771 81.2465 90.0986 81.4779L90.2731 81.0094C90.9039 81.2443 91.5285 81.4921 92.1467 81.7524L91.9527 82.2132C92.5664 82.4716 93.1737 82.7426 93.7742 83.0258L93.9875 82.5735C94.5959 82.8604 95.1975 83.1597 95.7919 83.4711L95.5599 83.914C96.1494 84.2228 96.7318 84.5436 97.3068 84.876L97.5571 84.4432C98.1391 84.7797 98.7136 85.1281 99.2801 85.488L99.012 85.9101C99.5736 86.2668 100.127 86.6349 100.673 87.0142L100.958 86.6036C101.51 86.9872 102.054 87.3821 102.589 87.7878L102.287 88.1862C102.817 88.5882 103.338 89.0009 103.851 89.4242L104.169 89.0386C104.687 89.4664 105.196 89.9048 105.696 90.3534L105.362 90.7256C105.857 91.1696 106.343 91.6239 106.819 92.088L107.168 91.73C107.649 92.1987 108.12 92.6775 108.582 93.1658L108.219 93.5092C108.675 93.9923 109.122 94.4849 109.559 94.9867L109.936 94.6585C110.377 95.165 110.807 95.6808 111.227 96.2055L110.837 96.518C111.253 97.0368 111.658 97.5644 112.052 98.1006L112.455 97.8043C112.852 98.3451 113.239 98.8944 113.615 99.4519L113.201 99.7314C113.572 100.282 113.932 100.841 114.281 101.408L114.707 101.145C115.059 101.717 115.399 102.296 115.728 102.882L115.292 103.127C115.617 103.706 115.93 104.293 116.232 104.886L116.678 104.66C116.981 105.258 117.273 105.863 117.553 106.475L117.098 106.683C117.374 107.287 117.638 107.897 117.89 108.514L118.353 108.325C118.607 108.946 118.848 109.573 119.077 110.207L118.606 110.377C118.832 111 119.045 111.63 119.245 112.266L119.722 112.115C119.923 112.754 120.112 113.399 120.288 114.049L119.805 114.179C119.978 114.819 120.139 115.464 120.286 116.115L120.774 116.004C120.922 116.657 121.058 117.315 121.18 117.978L120.688 118.068C120.808 118.72 120.915 119.377 121.009 120.038L121.504 119.968C121.599 120.631 121.68 121.298 121.748 121.97L121.25 122.02C121.317 122.678 121.37 123.341 121.41 124.007L121.909 123.977Z" stroke="#DCDCDC" stroke-dasharray="2 2"/>
<path d="M565.916 124.069C565.953 124.716 565.978 125.366 565.991 126.02L565.491 126.029C565.497 126.352 565.5 126.676 565.5 127C565.5 127.324 565.497 127.648 565.491 127.971L565.991 127.98C565.978 128.634 565.953 129.284 565.916 129.931L565.417 129.902C565.38 130.549 565.331 131.192 565.27 131.831L565.767 131.879C565.705 132.53 565.63 133.177 565.543 133.821L565.048 133.754C564.961 134.395 564.862 135.033 564.752 135.666L565.244 135.752C565.132 136.395 565.007 137.034 564.871 137.669L564.382 137.564C564.246 138.195 564.098 138.823 563.939 139.445L564.423 139.569C564.261 140.202 564.086 140.83 563.901 141.453L563.421 141.31C563.237 141.929 563.04 142.544 562.832 143.153L563.305 143.314C563.094 143.932 562.872 144.544 562.638 145.15L562.171 144.97C561.939 145.573 561.695 146.17 561.44 146.761L561.899 146.959C561.641 147.557 561.371 148.15 561.09 148.736L560.639 148.521C560.361 149.103 560.071 149.679 559.77 150.249L560.212 150.482C559.908 151.059 559.593 151.629 559.267 152.192L558.834 151.942C558.511 152.501 558.177 153.053 557.833 153.597L558.256 153.864C557.908 154.415 557.549 154.959 557.18 155.495L556.768 155.212C556.403 155.743 556.027 156.267 555.641 156.783L556.042 157.083C555.652 157.605 555.252 158.119 554.843 158.625L554.454 158.311C554.048 158.812 553.633 159.305 553.208 159.79L553.584 160.12C553.155 160.61 552.716 161.091 552.268 161.564L551.905 161.22C551.462 161.688 551.009 162.148 550.548 162.598L550.897 162.956C550.431 163.411 549.956 163.857 549.473 164.293L549.138 163.922C548.659 164.354 548.172 164.777 547.677 165.19L547.997 165.574C547.497 165.991 546.989 166.398 546.473 166.795L546.168 166.399C545.657 166.792 545.138 167.175 544.612 167.548L544.901 167.956C544.37 168.333 543.832 168.699 543.285 169.054L543.013 168.635C542.473 168.987 541.926 169.328 541.371 169.659L541.627 170.088C541.068 170.421 540.502 170.744 539.93 171.055L539.691 170.616C539.125 170.924 538.553 171.22 537.974 171.506L538.195 171.954C537.612 172.242 537.022 172.519 536.426 172.784L536.223 172.327C535.635 172.588 535.041 172.838 534.441 173.077L534.626 173.542C534.022 173.782 533.412 174.01 532.796 174.227L532.63 173.755C532.023 173.969 531.411 174.171 530.793 174.361L530.94 174.839C530.319 175.03 529.693 175.209 529.061 175.376L528.934 174.892C528.312 175.057 527.686 175.209 527.056 175.349L527.164 175.837C526.53 175.977 525.892 176.106 525.249 176.221L525.16 175.729C524.528 175.843 523.891 175.945 523.251 176.034L523.32 176.529C522.676 176.619 522.029 176.696 521.378 176.76L521.329 176.263C520.69 176.326 520.047 176.377 519.401 176.415L519.431 176.914C518.784 176.952 518.134 176.978 517.48 176.99L517.471 176.49C517.148 176.497 516.824 176.5 516.5 176.5C516.176 176.5 515.852 176.497 515.53 176.49L515.52 176.99C514.866 176.978 514.216 176.952 513.569 176.914L513.599 176.415C512.953 176.377 512.31 176.326 511.671 176.263L511.622 176.76C510.971 176.696 510.324 176.619 509.681 176.529L509.749 176.034C509.109 175.945 508.472 175.843 507.84 175.729L507.751 176.221C507.108 176.106 506.47 175.977 505.836 175.837L505.944 175.349C505.314 175.209 504.688 175.057 504.066 174.892L503.939 175.376C503.307 175.209 502.681 175.03 502.06 174.839L502.207 174.361C501.589 174.171 500.977 173.969 500.37 173.755L500.204 174.227C499.588 174.01 498.978 173.782 498.374 173.542L498.559 173.077C497.959 172.838 497.365 172.588 496.777 172.327L496.574 172.784C495.978 172.519 495.388 172.242 494.805 171.954L495.026 171.506C494.447 171.221 493.875 170.924 493.309 170.616L493.07 171.055C492.498 170.744 491.932 170.421 491.373 170.088L491.629 169.659C491.074 169.328 490.527 168.987 489.987 168.635L489.715 169.054C489.168 168.699 488.63 168.333 488.099 167.956L488.388 167.548C487.862 167.175 487.343 166.792 486.832 166.399L486.527 166.795C486.011 166.398 485.503 165.991 485.003 165.574L485.323 165.19C484.828 164.777 484.341 164.354 483.862 163.922L483.527 164.293C483.044 163.857 482.569 163.411 482.103 162.956L482.452 162.598C481.991 162.148 481.538 161.688 481.095 161.22L480.732 161.564C480.284 161.091 479.845 160.61 479.416 160.12L479.792 159.79C479.367 159.305 478.952 158.812 478.546 158.311L478.157 158.625C477.748 158.119 477.348 157.605 476.958 157.083L477.359 156.783C476.973 156.267 476.597 155.743 476.232 155.212L475.82 155.495C475.451 154.959 475.092 154.415 474.744 153.864L475.167 153.597C474.823 153.053 474.489 152.501 474.166 151.942L473.733 152.192C473.407 151.629 473.092 151.059 472.788 150.482L473.23 150.249C472.929 149.679 472.639 149.103 472.361 148.52L471.91 148.736C471.629 148.15 471.359 147.557 471.101 146.959L471.56 146.76C471.305 146.17 471.061 145.573 470.829 144.97L470.362 145.15C470.128 144.544 469.906 143.932 469.695 143.314L470.168 143.153C469.96 142.544 469.763 141.929 469.579 141.31L469.099 141.453C468.914 140.83 468.739 140.202 468.577 139.569L469.061 139.445C468.902 138.823 468.754 138.195 468.618 137.564L468.129 137.669C467.993 137.034 467.868 136.395 467.756 135.752L468.248 135.666C468.138 135.033 468.039 134.395 467.952 133.754L467.457 133.821C467.37 133.177 467.295 132.53 467.233 131.879L467.73 131.831C467.669 131.192 467.62 130.549 467.583 129.902L467.084 129.931C467.047 129.284 467.022 128.634 467.009 127.98L467.509 127.971C467.503 127.648 467.5 127.324 467.5 127C467.5 126.676 467.503 126.352 467.509 126.029L467.009 126.02C467.022 125.366 467.047 124.716 467.084 124.069L467.583 124.098C467.62 123.451 467.669 122.808 467.73 122.169L467.233 122.121C467.295 121.47 467.37 120.823 467.457 120.179L467.952 120.246C468.039 119.605 468.138 118.967 468.248 118.334L467.756 118.248C467.868 117.605 467.993 116.966 468.129 116.331L468.618 116.436C468.754 115.805 468.902 115.177 469.061 114.555L468.577 114.431C468.739 113.798 468.914 113.17 469.099 112.547L469.579 112.69C469.763 112.071 469.96 111.456 470.168 110.847L469.695 110.686C469.906 110.068 470.128 109.456 470.362 108.85L470.829 109.03C471.061 108.427 471.305 107.83 471.56 107.239L471.101 107.041C471.359 106.443 471.629 105.85 471.91 105.264L472.361 105.479C472.639 104.897 472.929 104.321 473.23 103.751L472.788 103.518C473.092 102.941 473.407 102.371 473.733 101.808L474.166 102.058C474.489 101.499 474.823 100.947 475.167 100.403L474.744 100.136C475.092 99.5848 475.451 99.0411 475.82 98.505L476.232 98.7883C476.597 98.2567 476.973 97.7327 477.359 97.2165L476.958 96.9173C477.348 96.3951 477.748 95.8809 478.157 95.3749L478.546 95.6895C478.952 95.188 479.367 94.6947 479.792 94.2098L479.416 93.8804C479.845 93.3903 480.284 92.9087 480.732 92.4361L481.095 92.78C481.538 92.3118 481.991 91.8524 482.452 91.402L482.103 91.0443C482.569 90.5893 483.044 90.1434 483.527 89.707L483.862 90.0782C484.341 89.6461 484.828 89.2234 485.323 88.8104L485.003 88.4264C485.503 88.0093 486.011 87.602 486.527 87.2047L486.832 87.6009C487.343 87.2078 487.862 86.8246 488.388 86.4517L488.099 86.0437C488.63 85.6673 489.168 85.3012 489.715 84.9456L489.987 85.3646C490.527 85.013 491.074 84.6718 491.629 84.3414L491.373 83.9119C491.932 83.5786 492.498 83.2561 493.07 82.9446L493.309 83.3839C493.875 83.0762 494.447 82.7795 495.026 82.494L494.805 82.0456C495.388 81.7579 495.978 81.4814 496.574 81.2165L496.777 81.6733C497.365 81.4118 497.959 81.1616 498.559 80.9231L498.374 80.4585C498.978 80.2182 499.588 79.9896 500.204 79.7729L500.37 80.2446C500.977 80.0309 501.589 79.8289 502.207 79.6389L502.06 79.161C502.681 78.97 503.307 78.7909 503.939 78.6241L504.066 79.1075C504.688 78.9434 505.314 78.7912 505.944 78.6514L505.836 78.1632C506.47 78.0226 507.108 77.8943 507.751 77.7786L507.84 78.2706C508.472 78.1567 509.109 78.055 509.749 77.9658L509.68 77.4706C510.324 77.3811 510.971 77.304 511.622 77.2397L511.671 77.7373C512.31 77.6742 512.953 77.6234 513.599 77.5853L513.569 77.0862C514.216 77.048 514.866 77.0224 515.52 77.0096L515.529 77.5095C515.852 77.5032 516.176 77.5 516.5 77.5C516.824 77.5 517.148 77.5032 517.47 77.5095L517.48 77.0096C518.134 77.0224 518.784 77.048 519.431 77.0862L519.401 77.5853C520.047 77.6234 520.69 77.6742 521.329 77.7373L521.378 77.2397C522.029 77.304 522.676 77.3811 523.319 77.4706L523.251 77.9658C523.891 78.055 524.528 78.1567 525.16 78.2706L525.249 77.7786C525.892 77.8943 526.53 78.0226 527.164 78.1632L527.056 78.6513C527.686 78.7912 528.312 78.9434 528.934 79.1075L529.061 78.6241C529.693 78.7909 530.319 78.9699 530.94 79.161L530.793 79.6389C531.411 79.8289 532.023 80.0309 532.63 80.2446L532.796 79.7729C533.412 79.9896 534.022 80.2182 534.626 80.4585L534.441 80.9231C535.041 81.1616 535.635 81.4118 536.223 81.6733L536.426 81.2164C537.022 81.4814 537.612 81.7579 538.195 82.0456L537.974 82.494C538.553 82.7795 539.125 83.0762 539.691 83.3838L539.93 82.9446C540.502 83.2561 541.068 83.5786 541.627 83.9119L541.371 84.3414C541.926 84.6718 542.473 85.013 543.013 85.3646L543.285 84.9456C543.832 85.3012 544.37 85.6673 544.901 86.0437L544.612 86.4517C545.138 86.8246 545.657 87.2078 546.168 87.6009L546.473 87.2046C546.989 87.602 547.497 88.0093 547.997 88.4264L547.677 88.8104C548.172 89.2234 548.659 89.6461 549.138 90.0781L549.473 89.707C549.956 90.1434 550.431 90.5893 550.897 91.0443L550.548 91.402C551.009 91.8524 551.462 92.3118 551.905 92.78L552.268 92.4361C552.716 92.9087 553.155 93.3903 553.584 93.8804L553.208 94.2098C553.633 94.6947 554.048 95.188 554.454 95.6895L554.843 95.3749C555.252 95.8809 555.652 96.3951 556.042 96.9173L555.641 97.2165C556.027 97.7327 556.403 98.2567 556.768 98.7883L557.18 98.505C557.549 99.0411 557.908 99.5848 558.256 100.136L557.833 100.403C558.177 100.947 558.511 101.499 558.834 102.058L559.267 101.808C559.593 102.371 559.908 102.941 560.212 103.518L559.77 103.751C560.071 104.321 560.361 104.897 560.639 105.48L561.09 105.264C561.371 105.85 561.641 106.443 561.899 107.041L561.44 107.24C561.695 107.83 561.939 108.427 562.171 109.03L562.638 108.85C562.872 109.456 563.094 110.068 563.305 110.686L562.832 110.847C563.04 111.456 563.237 112.071 563.421 112.69L563.901 112.547C564.086 113.17 564.261 113.798 564.423 114.431L563.939 114.555C564.098 115.177 564.246 115.805 564.382 116.436L564.871 116.331C565.007 116.966 565.132 117.605 565.244 118.248L564.752 118.334C564.862 118.967 564.961 119.605 565.048 120.246L565.543 120.179C565.63 120.823 565.705 121.47 565.767 122.121L565.27 122.169C565.331 122.808 565.38 123.451 565.417 124.098L565.916 124.069Z" stroke="#DCDCDC" stroke-dasharray="2 2"/>
<line x1="72" y1="126.5" x2="122" y2="126.5" stroke="#DCDCDC" stroke-dasharray="2 2"/>
<line x1="515" y1="126.5" x2="565" y2="126.5" stroke="#DCDCDC" stroke-dasharray="2 2"/>
<line x1="73.6159" y1="126.588" x2="91.101" y2="172.685" stroke="#DCDCDC" stroke-dasharray="2 2"/>
<line x1="516.722" y1="126.59" x2="534.376" y2="173.133" stroke="#DCDCDC" stroke-dasharray="2 2"/>
<line x1="73.6211" y1="126.928" x2="57.7256" y2="173.025" stroke="#DCDCDC" stroke-dasharray="2 2"/>
<line x1="516.727" y1="126.93" x2="500.678" y2="173.474" stroke="#DCDCDC" stroke-dasharray="2 2"/>
<line x1="72.8469" y1="127.535" x2="26.0354" y2="126.686" stroke="#DCDCDC" stroke-dasharray="2 2"/>
<line x1="515.95" y1="127.54" x2="468.686" y2="126.683" stroke="#DCDCDC" stroke-dasharray="2 2"/>
<ellipse rx="8.5" ry="8" transform="matrix(-1 0 0 1 57.5 173)" fill="#C2C2C2"/>
<ellipse rx="8.5" ry="8" transform="matrix(-1 0 0 1 500.5 173)" fill="#C2C2C2"/>
<circle r="8.5" transform="matrix(-1 0 0 1 26.5 126.5)" fill="#C2C2C2"/>
<ellipse rx="8" ry="8.5" transform="matrix(-1 0 0 1 469 126.5)" fill="#C2C2C2"/>
<circle r="8.5" transform="matrix(-1 0 0 1 121.5 126.5)" fill="#C2C2C2"/>
<ellipse rx="8" ry="8.5" transform="matrix(-1 0 0 1 565 126.5)" fill="#C2C2C2"/>
<ellipse rx="4" ry="3.5" transform="matrix(-1 0 0 1 98 143.5)" fill="#C2C2C2"/>
<circle r="3.5" transform="matrix(-1 0 0 1 541.5 143.5)" fill="#C2C2C2"/>
<circle r="4" transform="matrix(-1 0 0 1 98 110)" fill="#C2C2C2"/>
<ellipse rx="3.5" ry="4" transform="matrix(-1 0 0 1 541.5 110)" fill="#C2C2C2"/>
<ellipse rx="3.5" ry="4" transform="matrix(-1 0 0 1 49.5 110)" fill="#C2C2C2"/>
<circle r="4" transform="matrix(-1 0 0 1 493 110)" fill="#C2C2C2"/>
<ellipse rx="3.5" ry="4" transform="matrix(-1 0 0 1 49.5 144)" fill="#C2C2C2"/>
<ellipse rx="4" ry="3.5" transform="matrix(-1 0 0 1 493 144.5)" fill="#C2C2C2"/>
<ellipse rx="1.5" ry="1" transform="matrix(-1 0 0 1 43.5 127)" fill="#C2C2C2"/>
<ellipse rx="1.5" ry="1" transform="matrix(-1 0 0 1 486.5 127)" fill="#C2C2C2"/>
<circle r="8" transform="matrix(-1 0 0 1 90 173)" fill="#C2C2C2"/>
<circle r="8" transform="matrix(-1 0 0 1 533 173)" fill="#C2C2C2"/>
<line y1="-0.5" x2="49.3018" y2="-0.5" transform="matrix(0.354654 -0.934998 -0.934998 -0.354654 73.1484 126.235)" stroke="#DCDCDC" stroke-dasharray="2 2"/>
<line y1="-0.5" x2="49.7789" y2="-0.5" transform="matrix(0.354654 -0.934998 -0.934998 -0.354654 516.254 126.233)" stroke="#DCDCDC" stroke-dasharray="2 2"/>
<line y1="-0.5" x2="48.7607" y2="-0.5" transform="matrix(-0.325991 -0.945373 -0.945373 0.325991 73.1484 126.235)" stroke="#DCDCDC" stroke-dasharray="2 2"/>
<line y1="-0.5" x2="49.2326" y2="-0.5" transform="matrix(-0.325991 -0.945373 -0.945373 0.325991 516.254 126.233)" stroke="#DCDCDC" stroke-dasharray="2 2"/>
<ellipse rx="8.5" ry="8" transform="matrix(-1 0 0 1 57.5 80)" fill="#C2C2C2"/>
<ellipse rx="8.5" ry="8" transform="matrix(-1 0 0 1 500.5 80)" fill="#C2C2C2"/>
<circle r="8" transform="matrix(-1 0 0 1 90 80)" fill="#C2C2C2"/>
<circle r="8" transform="matrix(-1 0 0 1 533 80)" fill="#C2C2C2"/>
<circle r="5.5" transform="matrix(-1 0 0 1 73.5 127.5)" fill="#C4C4C4"/>
<circle r="5.5" transform="matrix(-1 0 0 1 516.5 127.5)" fill="#C4C4C4"/>
<circle r="1.5" transform="matrix(-1 0 0 1 64.5 98.5)" fill="#C2C2C2"/>
<ellipse rx="2" ry="1" transform="matrix(-1 0 0 1 507 98)" fill="#C2C2C2"/>
<circle r="1.5" transform="matrix(-1 0 0 1 64.5 154.5)" fill="#C2C2C2"/>
<ellipse rx="2" ry="1" transform="matrix(-1 0 0 1 507 155)" fill="#C2C2C2"/>
<ellipse rx="1" ry="1.5" transform="matrix(-1 0 0 1 83 98.5)" fill="#C2C2C2"/>
<ellipse rx="2" ry="1" transform="matrix(-1 0 0 1 527 98)" fill="#C2C2C2"/>
<ellipse rx="1" ry="1.5" transform="matrix(-1 0 0 1 103 126.5)" fill="#C2C2C2"/>
<circle r="1.5" transform="matrix(-1 0 0 1 546.5 126.5)" fill="#C2C2C2"/>
<ellipse rx="1" ry="1.5" transform="matrix(-1 0 0 1 83 154.5)" fill="#C2C2C2"/>
<ellipse rx="2" ry="1" transform="matrix(-1 0 0 1 527 155)" fill="#C2C2C2"/>
<defs>
<linearGradient id="paint0_linear" x1="17" y1="0" x2="17" y2="34" gradientUnits="userSpaceOnUse">
<stop stop-color="#FF5454"/>
<stop offset="1" stop-color="#BA4F4F" stop-opacity="0.74"/>
</linearGradient>
<linearGradient id="paint1_linear" x1="17.5" y1="0" x2="17.5" y2="35" gradientUnits="userSpaceOnUse">
<stop stop-color="#FF5454"/>
<stop offset="1" stop-color="#BA4F4F" stop-opacity="0.74"/>
</linearGradient>
<linearGradient id="paint2_linear" x1="17" y1="0" x2="17" y2="35" gradientUnits="userSpaceOnUse">
<stop stop-color="#FF5454"/>
<stop offset="1" stop-color="#BA4F4F" stop-opacity="0.74"/>
</linearGradient>
<linearGradient id="paint3_linear" x1="7" y1="0" x2="7" y2="14" gradientUnits="userSpaceOnUse">
<stop stop-color="#FF5454"/>
<stop offset="1" stop-color="#BA4F4F" stop-opacity="0.74"/>
</linearGradient>
<linearGradient id="paint4_linear" x1="7" y1="0" x2="7" y2="14" gradientUnits="userSpaceOnUse">
<stop stop-color="#FF5454"/>
<stop offset="1" stop-color="#BA4F4F" stop-opacity="0.74"/>
</linearGradient>
<linearGradient id="paint5_linear" x1="7.5" y1="0" x2="7.5" y2="14" gradientUnits="userSpaceOnUse">
<stop stop-color="#FF5454"/>
<stop offset="1" stop-color="#BA4F4F" stop-opacity="0.74"/>
</linearGradient>
<linearGradient id="paint6_linear" x1="7.5" y1="0" x2="7.5" y2="14" gradientUnits="userSpaceOnUse">
<stop stop-color="#FF5454"/>
<stop offset="1" stop-color="#BA4F4F" stop-opacity="0.74"/>
</linearGradient>
<linearGradient id="paint7_linear" x1="3" y1="0" x2="3" y2="5" gradientUnits="userSpaceOnUse">
<stop stop-color="#FF5454"/>
<stop offset="1" stop-color="#BA4F4F" stop-opacity="0.74"/>
</linearGradient>
<linearGradient id="paint8_linear" x1="17.5" y1="0" x2="17.5" y2="34" gradientUnits="userSpaceOnUse">
<stop stop-color="#FF5454"/>
<stop offset="1" stop-color="#BA4F4F" stop-opacity="0.74"/>
</linearGradient>
<linearGradient id="paint9_linear" x1="17" y1="0" x2="17" y2="34" gradientUnits="userSpaceOnUse">
<stop stop-color="#FF5454"/>
<stop offset="1" stop-color="#BA4F4F" stop-opacity="0.74"/>
</linearGradient>
<linearGradient id="paint10_linear" x1="17.5" y1="0" x2="17.5" y2="34" gradientUnits="userSpaceOnUse">
<stop stop-color="#FF5454"/>
<stop offset="1" stop-color="#BA4F4F" stop-opacity="0.74"/>
</linearGradient>
<linearGradient id="paint11_linear" x1="3" y1="0" x2="3" y2="6" gradientUnits="userSpaceOnUse">
<stop stop-color="#FF5454"/>
<stop offset="1" stop-color="#BA4F4F" stop-opacity="0.74"/>
</linearGradient>
<linearGradient id="paint12_linear" x1="3" y1="0" x2="3" y2="6" gradientUnits="userSpaceOnUse">
<stop stop-color="#FF5454"/>
<stop offset="1" stop-color="#BA4F4F" stop-opacity="0.74"/>
</linearGradient>
<linearGradient id="paint13_linear" x1="2.5" y1="0" x2="2.5" y2="6" gradientUnits="userSpaceOnUse">
<stop stop-color="#FF5454"/>
<stop offset="1" stop-color="#BA4F4F" stop-opacity="0.74"/>
</linearGradient>
<linearGradient id="paint14_linear" x1="3" y1="0" x2="3" y2="5" gradientUnits="userSpaceOnUse">
<stop stop-color="#FF5454"/>
<stop offset="1" stop-color="#BA4F4F" stop-opacity="0.74"/>
</linearGradient>
<linearGradient id="paint15_linear" x1="3" y1="0" x2="3" y2="6" gradientUnits="userSpaceOnUse">
<stop stop-color="#FF5454"/>
<stop offset="1" stop-color="#BA4F4F" stop-opacity="0.74"/>
</linearGradient>
<linearGradient id="paint16_linear" x1="17" y1="0" x2="17" y2="34" gradientUnits="userSpaceOnUse">
<stop stop-color="#FF5454"/>
<stop offset="1" stop-color="#BA4F4F" stop-opacity="0.74"/>
</linearGradient>
<linearGradient id="paint17_linear" x1="17.5" y1="0" x2="17.5" y2="35" gradientUnits="userSpaceOnUse">
<stop stop-color="#FF5454"/>
<stop offset="1" stop-color="#BA4F4F" stop-opacity="0.74"/>
</linearGradient>
<linearGradient id="paint18_linear" x1="17" y1="0" x2="17" y2="35" gradientUnits="userSpaceOnUse">
<stop stop-color="#FF5454"/>
<stop offset="1" stop-color="#BA4F4F" stop-opacity="0.74"/>
</linearGradient>
<linearGradient id="paint19_linear" x1="7" y1="0" x2="7" y2="14" gradientUnits="userSpaceOnUse">
<stop stop-color="#FF5454"/>
<stop offset="1" stop-color="#BA4F4F" stop-opacity="0.74"/>
</linearGradient>
<linearGradient id="paint20_linear" x1="7" y1="0" x2="7" y2="14" gradientUnits="userSpaceOnUse">
<stop stop-color="#FF5454"/>
<stop offset="1" stop-color="#BA4F4F" stop-opacity="0.74"/>
</linearGradient>
<linearGradient id="paint21_linear" x1="7.5" y1="0" x2="7.5" y2="14" gradientUnits="userSpaceOnUse">
<stop stop-color="#FF5454"/>
<stop offset="1" stop-color="#BA4F4F" stop-opacity="0.74"/>
</linearGradient>
<linearGradient id="paint22_linear" x1="7.5" y1="0" x2="7.5" y2="14" gradientUnits="userSpaceOnUse">
<stop stop-color="#FF5454"/>
<stop offset="1" stop-color="#BA4F4F" stop-opacity="0.74"/>
</linearGradient>
<linearGradient id="paint23_linear" x1="3" y1="0" x2="3" y2="5" gradientUnits="userSpaceOnUse">
<stop stop-color="#FF5454"/>
<stop offset="1" stop-color="#BA4F4F" stop-opacity="0.74"/>
</linearGradient>
<linearGradient id="paint24_linear" x1="17.5" y1="0" x2="17.5" y2="34" gradientUnits="userSpaceOnUse">
<stop stop-color="#FF5454"/>
<stop offset="1" stop-color="#BA4F4F" stop-opacity="0.74"/>
</linearGradient>
<linearGradient id="paint25_linear" x1="17" y1="0" x2="17" y2="34" gradientUnits="userSpaceOnUse">
<stop stop-color="#FF5454"/>
<stop offset="1" stop-color="#BA4F4F" stop-opacity="0.74"/>
</linearGradient>
<linearGradient id="paint26_linear" x1="17.5" y1="0" x2="17.5" y2="34" gradientUnits="userSpaceOnUse">
<stop stop-color="#FF5454"/>
<stop offset="1" stop-color="#BA4F4F" stop-opacity="0.74"/>
</linearGradient>
<linearGradient id="paint27_linear" x1="3" y1="0" x2="3" y2="6" gradientUnits="userSpaceOnUse">
<stop stop-color="#FF5454"/>
<stop offset="1" stop-color="#BA4F4F" stop-opacity="0.74"/>
</linearGradient>
<linearGradient id="paint28_linear" x1="3" y1="0" x2="3" y2="6" gradientUnits="userSpaceOnUse">
<stop stop-color="#FF5454"/>
<stop offset="1" stop-color="#BA4F4F" stop-opacity="0.74"/>
</linearGradient>
<linearGradient id="paint29_linear" x1="2.5" y1="0" x2="2.5" y2="6" gradientUnits="userSpaceOnUse">
<stop stop-color="#FF5454"/>
<stop offset="1" stop-color="#BA4F4F" stop-opacity="0.74"/>
</linearGradient>
<linearGradient id="paint30_linear" x1="3" y1="0" x2="3" y2="5" gradientUnits="userSpaceOnUse">
<stop stop-color="#FF5454"/>
<stop offset="1" stop-color="#BA4F4F" stop-opacity="0.74"/>
</linearGradient>
<linearGradient id="paint31_linear" x1="3" y1="0" x2="3" y2="6" gradientUnits="userSpaceOnUse">
<stop stop-color="#FF5454"/>
<stop offset="1" stop-color="#BA4F4F" stop-opacity="0.74"/>
</linearGradient>
</defs>
</svg>
