<svg width="469" height="454" viewBox="0 0 469 454" fill="none" xmlns="http://www.w3.org/2000/svg">
<g clip-path="url(#clip0)">
<line x1="114.621" y1="225.648" x2="175.753" y2="320.53" stroke="url(#paint0_linear)" stroke-width="2" stroke-linecap="round"/>
<line x1="149.895" y1="189.242" x2="269.952" y2="245.454" stroke="url(#paint1_linear)" stroke-width="2" stroke-linecap="round"/>
<line x1="351.67" y1="150.19" x2="453.206" y2="253.946" stroke="#C2C2C2" stroke-width="2" stroke-linecap="round"/>
<line x1="362.014" y1="271.111" x2="441.661" y2="280.377" stroke="#C2C2C2" stroke-width="2" stroke-linecap="round"/>
<line x1="339.509" y1="304.874" x2="407.143" y2="410.898" stroke="#C2C2C2" stroke-width="2" stroke-linecap="round"/>
<line x1="226.281" y1="396.663" x2="293.915" y2="502.687" stroke="#C2C2C2" stroke-width="2" stroke-linecap="round"/>
<line x1="180.627" y1="398.101" x2="136.154" y2="563.549" stroke="#C2C2C2" stroke-width="2" stroke-linecap="round"/>
<line x1="362.348" y1="77.8819" x2="470.407" y2="25.4154" stroke="#C2C2C2" stroke-width="2" stroke-linecap="round"/>
<line x1="452.929" y1="435.669" x2="546.514" y2="434.861" stroke="#C2C2C2" stroke-width="2" stroke-linecap="round"/>
<line x1="433.193" y1="410.223" x2="463.574" y2="327.936" stroke="#C2C2C2" stroke-width="2" stroke-linecap="round"/>
<line x1="248.554" y1="370.415" x2="398.219" y2="426.566" stroke="#C2C2C2" stroke-width="2" stroke-linecap="round"/>
<line x1="150.909" y1="148.451" x2="246.776" y2="122.41" stroke="url(#paint2_linear)" stroke-width="2" stroke-linecap="round"/>
<circle cx="83.4413" cy="165.239" r="68.5371" transform="rotate(-14.415 83.4413 165.239)" stroke="url(#paint3_linear)" stroke-width="2" stroke-linecap="round"/>
<circle cx="306.665" cy="107.862" r="60.6118" transform="rotate(-14.415 306.665 107.862)" stroke="url(#paint4_linear)" stroke-width="2" stroke-linecap="round"/>
<circle cx="314.144" cy="264.232" r="47.5267" stroke="url(#paint5_linear)" stroke-width="2" stroke-linecap="round"/>
<circle cx="203.761" cy="358.034" r="45.7154" transform="rotate(15 203.761 358.034)" stroke="url(#paint6_linear)" stroke-width="2" stroke-linecap="round"/>
<circle cx="424.159" cy="437.694" r="28.9272" transform="rotate(-14.415 424.159 437.694)" stroke="#C2C2C2" stroke-width="2" stroke-linecap="round"/>
<circle cx="486.764" cy="285.291" r="44.2159" transform="rotate(-14.415 486.764 285.291)" stroke="#C2C2C2" stroke-width="2" stroke-linecap="round"/>
<g filter="url(#filter0_d)">
<circle cx="83.4413" cy="165.239" r="54.5678" transform="rotate(-14.415 83.4413 165.239)" fill="url(#paint7_linear)"/>
</g>
<circle cx="314.144" cy="264.232" r="31.6845" transform="rotate(-14.415 314.144 264.232)" fill="#ECECEC"/>
<circle cx="424.159" cy="437.694" r="15.8424" transform="rotate(-14.415 424.159 437.694)" fill="#ECECEC"/>
<circle cx="306.707" cy="108.024" r="31.6845" transform="rotate(-14.415 306.707 108.024)" fill="#ECECEC"/>
<circle cx="486.764" cy="285.292" r="31.6845" transform="rotate(-14.415 486.764 285.292)" fill="#ECECEC"/>
<circle cx="203.761" cy="358.034" r="31.6845" transform="rotate(-14.415 203.761 358.034)" fill="#ECECEC"/>
</g>
<defs>
<filter id="filter0_d" x="-0.99292" y="84.8044" width="168.868" height="168.868" filterUnits="userSpaceOnUse" color-interpolation-filters="sRGB">
<feFlood flood-opacity="0" result="BackgroundImageFix"/>
<feColorMatrix in="SourceAlpha" type="matrix" values="0 0 0 0 0 0 0 0 0 0 0 0 0 0 0 0 0 0 127 0"/>
<feOffset dy="4"/>
<feGaussianBlur stdDeviation="9"/>
<feColorMatrix type="matrix" values="0 0 0 0 0.921569 0 0 0 0 0.294118 0 0 0 0 0.294118 0 0 0 0.5 0"/>
<feBlend mode="normal" in2="BackgroundImageFix" result="effect1_dropShadow"/>
<feBlend mode="normal" in="SourceGraphic" in2="effect1_dropShadow" result="shape"/>
</filter>
<linearGradient id="paint0_linear" x1="112.226" y1="223.005" x2="175.178" y2="327" gradientUnits="userSpaceOnUse">
<stop stop-color="#FB5353"/>
<stop offset="1" stop-color="#C93A3A"/>
</linearGradient>
<linearGradient id="paint1_linear" x1="146.069" y1="188.094" x2="272.97" y2="252.668" gradientUnits="userSpaceOnUse">
<stop stop-color="#FB5353"/>
<stop offset="1" stop-color="#C93A3A"/>
</linearGradient>
<linearGradient id="paint2_linear" x1="147.952" y1="149.857" x2="252.12" y2="124.309" gradientUnits="userSpaceOnUse">
<stop stop-color="#FB5353"/>
<stop offset="1" stop-color="#C93A3A"/>
</linearGradient>
<linearGradient id="paint3_linear" x1="11.8982" y1="39.4662" x2="157.016" y2="39.5016" gradientUnits="userSpaceOnUse">
<stop stop-color="#FB5353"/>
<stop offset="1" stop-color="#C93A3A"/>
</linearGradient>
<linearGradient id="paint4_linear" x1="246.055" y1="107.862" x2="305.137" y2="106.407" gradientUnits="userSpaceOnUse">
<stop stop-color="#FB5353"/>
<stop offset="1" stop-color="#C2C2C2"/>
</linearGradient>
<linearGradient id="paint5_linear" x1="264.529" y1="177.023" x2="347.009" y2="217.815" gradientUnits="userSpaceOnUse">
<stop stop-color="#FB5353"/>
<stop offset="1" stop-color="#C2C2C2"/>
</linearGradient>
<linearGradient id="paint6_linear" x1="156.037" y1="274.148" x2="235.374" y2="313.385" gradientUnits="userSpaceOnUse">
<stop stop-color="#FB5353"/>
<stop offset="1" stop-color="#C2C2C2"/>
</linearGradient>
<linearGradient id="paint7_linear" x1="83.4413" y1="110.671" x2="112.636" y2="231.864" gradientUnits="userSpaceOnUse">
<stop stop-color="#FB5353"/>
<stop offset="1" stop-color="#BD3131" stop-opacity="0.97"/>
</linearGradient>
<clipPath id="clip0">
<rect width="469" height="453" fill="white" transform="translate(0 0.5)"/>
</clipPath>
</defs>
</svg>
