<svg width="361" height="254" viewBox="0 0 361 254" fill="none" xmlns="http://www.w3.org/2000/svg">
<line x1="177.633" y1="127.339" x2="117.633" y2="62.3391" stroke="#E8E8E8"/>
<line x1="177.506" y1="127.079" x2="163.506" y2="39.0786" stroke="#E8E8E8"/>
<line x1="177.537" y1="126.81" x2="211.537" y2="43.8105" stroke="#E8E8E8"/>
<line x1="177.732" y1="126.578" x2="251.732" y2="79.5779" stroke="#E8E8E8"/>
<line x1="178" y1="126.5" x2="270" y2="126.5" stroke="#E8E8E8"/>
<line x1="178.287" y1="126.591" x2="252.287" y2="178.591" stroke="#E8E8E8"/>
<line x1="178.467" y1="126.823" x2="211.467" y2="213.823" stroke="#E8E8E8"/>
<line x1="178.473" y1="127.163" x2="148.473" y2="214.163" stroke="#E8E8E8"/>
<line x1="178.287" y1="127.409" x2="104.287" y2="179.409" stroke="#E8E8E8"/>
<line x1="177.955" y1="127.498" x2="89.9547" y2="119.498" stroke="#E8E8E8"/>
<ellipse cx="118" cy="62" rx="12" ry="13" fill="#B1B1B1"/>
<ellipse cx="90.5" cy="119" rx="12.5" ry="13" fill="#393939"/>
<circle cx="104.5" cy="178.5" r="12.5" fill="#B1B1B1"/>
<circle cx="148.5" cy="213.5" r="12.5" fill="#393939"/>
<ellipse cx="211" cy="213.5" rx="13" ry="12.5" fill="#B1B1B1"/>
<ellipse cx="252" cy="178.5" rx="13" ry="12.5" fill="#393939"/>
<circle cx="270.5" cy="127.5" r="12.5" fill="#B1B1B1"/>
<ellipse cx="252" cy="79.5" rx="13" ry="12.5" fill="#393939"/>
<ellipse cx="212" cy="45.5" rx="13" ry="13.5" fill="#B1B1B1"/>
<circle cx="164.5" cy="40.5" r="12.5" fill="#393939"/>
<circle cx="180" cy="127" r="27" fill="#393939"/>
</svg>
