<svg width="585" height="254" viewBox="0 0 585 254" fill="none" xmlns="http://www.w3.org/2000/svg">
<circle cx="56" cy="127" r="47.5" stroke="#C5C5C5" stroke-dasharray="2 2"/>
<circle r="47.5" transform="matrix(-1 0 0 1 528 127)" stroke="#C5C5C5" stroke-dasharray="2 2"/>
<g filter="url(#filter0_d)">
<rect x="205" y="31" width="174" height="191" rx="5" fill="#393939"/>
</g>
<rect x="218" y="46" width="48" height="6" rx="3" fill="#EEEEEE"/>
<rect x="218" y="57" width="27" height="7" rx="3.5" fill="#EEEEEE"/>
<rect x="218" y="70" width="65" height="5" rx="2.5" fill="#EEEEEE"/>
<rect x="218" y="105" width="65" height="37" rx="2" fill="#EEEEEE"/>
<rect x="218" y="153" width="65" height="39" rx="2" fill="#EEEEEE"/>
<rect x="297" y="105" width="66" height="37" rx="2" fill="#EEEEEE"/>
<rect x="297" y="153" width="66" height="39" rx="2" fill="#EEEEEE"/>
<path d="M88.8623 125.057C88.9232 125.705 88.9642 126.358 88.9847 127.016L88.4849 127.032C88.495 127.353 88.5 127.676 88.5 128C88.5 128.324 88.495 128.647 88.4849 128.968L88.9847 128.984C88.9642 129.642 88.9232 130.295 88.8623 130.943L88.3645 130.896C88.3039 131.54 88.2233 132.179 88.1233 132.812L88.6171 132.89C88.5144 133.54 88.3915 134.183 88.249 134.819L87.7611 134.71C87.6199 135.341 87.4591 135.965 87.2795 136.581L87.7596 136.721C87.5759 137.351 87.3728 137.974 87.1509 138.588L86.6807 138.418C86.4613 139.025 86.2233 139.623 85.9672 140.213L86.4258 140.412C86.1646 141.013 85.8849 141.606 85.5875 142.188L85.1422 141.96C84.8488 142.534 84.5378 143.099 84.2099 143.653L84.6401 143.908C84.3065 144.471 83.9556 145.024 83.5883 145.565L83.1745 145.285C82.8127 145.818 82.4346 146.34 82.0408 146.85L82.4366 147.156C82.0368 147.674 81.6211 148.18 81.1903 148.673L80.8137 148.344C80.39 148.829 79.9513 149.302 79.4984 149.761L79.8544 150.112C79.3952 150.578 78.9216 151.03 78.4344 151.468L78.1 151.096C77.6213 151.527 77.1291 151.944 76.6241 152.346L76.9357 152.737C76.4246 153.144 75.9007 153.537 75.3646 153.914L75.0768 153.505C74.5506 153.876 74.0125 154.231 73.4632 154.571L73.7263 154.996C73.1708 155.34 72.604 155.668 72.0265 155.98L71.789 155.54C71.2229 155.845 70.6465 156.135 70.0603 156.408L70.2714 156.861C69.68 157.136 69.0788 157.395 68.4685 157.637L68.2844 157.172C67.687 157.409 67.0808 157.629 66.4663 157.831L66.6227 158.306C66.0034 158.51 65.3758 158.697 64.7405 158.865L64.6121 158.382C63.9914 158.547 63.3633 158.695 62.7283 158.824L62.8283 159.314C62.19 159.444 61.5449 159.557 60.8936 159.651L60.8223 159.156C60.1878 159.247 59.5472 159.321 58.9012 159.376L58.9439 159.874C58.2958 159.93 57.6424 159.967 56.9841 159.986L56.97 159.486C56.6478 159.495 56.3245 159.5 56 159.5C55.6755 159.5 55.3522 159.495 55.03 159.486L55.0158 159.986C54.3576 159.967 53.7041 159.93 53.0561 159.874L53.0988 159.376C52.4528 159.321 51.8122 159.247 51.1777 159.156L51.1064 159.651C50.4551 159.557 49.81 159.444 49.1717 159.314L49.2717 158.824C48.6367 158.695 48.0086 158.547 47.3879 158.382L47.2595 158.865C46.6242 158.697 45.9966 158.51 45.3773 158.306L45.5337 157.831C44.9192 157.629 44.313 157.409 43.7156 157.172L43.5315 157.637C42.9212 157.395 42.32 157.136 41.7286 156.861L41.9397 156.408C41.3535 156.135 40.7771 155.845 40.211 155.54L39.9735 155.98C39.396 155.668 38.8292 155.34 38.2737 154.996L38.5368 154.571C37.9875 154.231 37.4494 153.876 36.9232 153.505L36.6354 153.914C36.0993 153.537 35.5754 153.144 35.0643 152.737L35.3759 152.346C34.8709 151.944 34.3787 151.527 33.9 151.096L33.5656 151.468C33.0784 151.03 32.6048 150.578 32.1456 150.112L32.5016 149.761C32.0487 149.302 31.61 148.829 31.1863 148.344L30.8097 148.673C30.3789 148.18 29.9632 147.674 29.5633 147.156L29.9592 146.85C29.5654 146.34 29.1873 145.818 28.8255 145.285L28.4117 145.565C28.0444 145.024 27.6935 144.471 27.3599 143.908L27.7901 143.653C27.4622 143.099 27.1512 142.534 26.8578 141.96L26.4125 142.188C26.1151 141.606 25.8354 141.013 25.5741 140.412L26.0328 140.213C25.7767 139.623 25.5387 139.025 25.3193 138.418L24.8491 138.588C24.6272 137.974 24.4241 137.351 24.2404 136.721L24.7205 136.581C24.5409 135.965 24.3801 135.341 24.2389 134.71L23.751 134.819C23.6085 134.183 23.4856 133.54 23.3828 132.89L23.8767 132.812C23.7767 132.179 23.6961 131.54 23.6355 130.896L23.1377 130.943C23.0768 130.295 23.0358 129.642 23.0153 128.984L23.5151 128.968C23.505 128.647 23.5 128.324 23.5 128C23.5 127.676 23.505 127.353 23.5151 127.032L23.0153 127.016C23.0358 126.358 23.0768 125.705 23.1377 125.057L23.6355 125.104C23.6961 124.46 23.7767 123.821 23.8767 123.188L23.3828 123.11C23.4856 122.46 23.6085 121.817 23.751 121.181L24.2389 121.29C24.3801 120.659 24.5409 120.035 24.7205 119.419L24.2404 119.279C24.4241 118.649 24.6272 118.026 24.8491 117.412L25.3193 117.582C25.5387 116.975 25.7767 116.377 26.0328 115.787L25.5741 115.588C25.8354 114.987 26.1151 114.394 26.4125 113.812L26.8578 114.04C27.1512 113.466 27.4622 112.901 27.7901 112.347L27.3599 112.092C27.6935 111.529 28.0444 110.976 28.4117 110.435L28.8255 110.715C29.1873 110.182 29.5654 109.66 29.9592 109.15L29.5633 108.844C29.9632 108.326 30.3789 107.82 30.8097 107.327L31.1863 107.656C31.61 107.171 32.0487 106.698 32.5016 106.239L32.1456 105.888C32.6048 105.422 33.0784 104.97 33.5656 104.532L33.9 104.904C34.3787 104.473 34.8709 104.056 35.3759 103.654L35.0643 103.263C35.5754 102.856 36.0993 102.463 36.6354 102.086L36.9232 102.495C37.4494 102.124 37.9875 101.769 38.5368 101.429L38.2737 101.004C38.8292 100.66 39.396 100.332 39.9735 100.02L40.211 100.46C40.7771 100.155 41.3535 99.8653 41.9397 99.5922L41.7286 99.139C42.32 98.8635 42.9212 98.6046 43.5315 98.3629L43.7156 98.8278C44.313 98.5912 44.9192 98.3714 45.5337 98.1689L45.3773 97.6941C45.9966 97.49 46.6242 97.3033 47.2595 97.1345L47.3879 97.6177C48.0086 97.4528 48.6367 97.3053 49.2717 97.1758L49.1717 96.6859C49.81 96.5556 50.4551 96.4433 51.1064 96.3494L51.1777 96.8443C51.8122 96.7528 52.4528 96.6791 53.0988 96.6238L53.0561 96.1256C53.7042 96.07 54.3576 96.0327 55.0159 96.014L55.03 96.5138C55.3522 96.5046 55.6755 96.5 56 96.5C56.3245 96.5 56.6478 96.5046 56.97 96.5138L56.9842 96.014C57.6424 96.0327 58.2959 96.07 58.9439 96.1256L58.9012 96.6238C59.5472 96.6791 60.1878 96.7528 60.8223 96.8443L60.8936 96.3494C61.5449 96.4433 62.19 96.5556 62.8283 96.6859L62.7283 97.1758C63.3633 97.3053 63.9914 97.4528 64.6121 97.6177L64.7405 97.1345C65.3758 97.3033 66.0034 97.49 66.6227 97.6941L66.4663 98.169C67.0808 98.3714 67.687 98.5912 68.2844 98.8278L68.4685 98.3629C69.0788 98.6046 69.68 98.8635 70.2714 99.139L70.0603 99.5922C70.6465 99.8653 71.2229 100.155 71.789 100.46L72.0265 100.02C72.604 100.332 73.1708 100.66 73.7263 101.004L73.4632 101.429C74.0125 101.769 74.5506 102.124 75.0768 102.495L75.3646 102.086C75.9007 102.463 76.4246 102.856 76.9357 103.263L76.6241 103.654C77.1291 104.056 77.6213 104.473 78.1 104.904L78.4344 104.532C78.9216 104.97 79.3952 105.422 79.8544 105.888L79.4984 106.239C79.9513 106.698 80.39 107.171 80.8137 107.656L81.1903 107.327C81.6211 107.82 82.0368 108.326 82.4366 108.844L82.0408 109.15C82.4346 109.66 82.8127 110.182 83.1745 110.715L83.5883 110.435C83.9556 110.976 84.3065 111.529 84.6401 112.092L84.2099 112.347C84.5378 112.901 84.8488 113.466 85.1422 114.04L85.5875 113.812C85.8849 114.394 86.1646 114.987 86.4259 115.588L85.9672 115.787C86.2233 116.377 86.4613 116.975 86.6807 117.582L87.1509 117.412C87.3728 118.026 87.5759 118.649 87.7596 119.279L87.2795 119.419C87.4591 120.035 87.6199 120.659 87.7611 121.29L88.249 121.181C88.3915 121.817 88.5144 122.46 88.6171 123.11L88.1233 123.188C88.2233 123.821 88.3039 124.46 88.3645 125.104L88.8623 125.057Z" stroke="#C5C5C5" stroke-dasharray="2 2"/>
<path d="M495.138 125.057C495.077 125.705 495.036 126.358 495.015 127.016L495.515 127.032C495.505 127.353 495.5 127.676 495.5 128C495.5 128.324 495.505 128.647 495.515 128.968L495.015 128.984C495.036 129.642 495.077 130.295 495.138 130.943L495.635 130.896C495.696 131.54 495.777 132.179 495.877 132.812L495.383 132.89C495.486 133.54 495.609 134.183 495.751 134.819L496.239 134.71C496.38 135.341 496.541 135.965 496.72 136.581L496.24 136.721C496.424 137.351 496.627 137.974 496.849 138.588L497.319 138.418C497.539 139.025 497.777 139.623 498.033 140.213L497.574 140.412C497.835 141.013 498.115 141.606 498.413 142.188L498.858 141.96C499.151 142.534 499.462 143.099 499.79 143.653L499.36 143.908C499.694 144.471 500.044 145.024 500.412 145.565L500.825 145.285C501.187 145.818 501.565 146.34 501.959 146.85L501.563 147.156C501.963 147.674 502.379 148.18 502.81 148.673L503.186 148.344C503.61 148.829 504.049 149.302 504.502 149.761L504.146 150.112C504.605 150.578 505.078 151.03 505.566 151.468L505.9 151.096C506.379 151.527 506.871 151.944 507.376 152.346L507.064 152.737C507.575 153.144 508.099 153.537 508.635 153.914L508.923 153.505C509.449 153.876 509.987 154.231 510.537 154.571L510.274 154.996C510.829 155.34 511.396 155.668 511.974 155.98L512.211 155.54C512.777 155.845 513.354 156.135 513.94 156.408L513.729 156.861C514.32 157.136 514.921 157.395 515.532 157.637L515.716 157.172C516.313 157.409 516.919 157.629 517.534 157.831L517.377 158.306C517.997 158.51 518.624 158.697 519.259 158.865L519.388 158.382C520.009 158.547 520.637 158.695 521.272 158.824L521.172 159.314C521.81 159.444 522.455 159.557 523.106 159.651L523.178 159.156C523.812 159.247 524.453 159.321 525.099 159.376L525.056 159.874C525.704 159.93 526.358 159.967 527.016 159.986L527.03 159.486C527.352 159.495 527.676 159.5 528 159.5C528.324 159.5 528.648 159.495 528.97 159.486L528.984 159.986C529.642 159.967 530.296 159.93 530.944 159.874L530.901 159.376C531.547 159.321 532.188 159.247 532.822 159.156L532.894 159.651C533.545 159.557 534.19 159.444 534.828 159.314L534.728 158.824C535.363 158.695 535.991 158.547 536.612 158.382L536.741 158.865C537.376 158.697 538.003 158.51 538.623 158.306L538.466 157.831C539.081 157.629 539.687 157.409 540.284 157.172L540.468 157.637C541.079 157.395 541.68 157.136 542.271 156.861L542.06 156.408C542.646 156.135 543.223 155.845 543.789 155.54L544.026 155.98C544.604 155.668 545.171 155.34 545.726 154.996L545.463 154.571C546.013 154.231 546.551 153.876 547.077 153.505L547.365 153.914C547.901 153.537 548.425 153.144 548.936 152.737L548.624 152.346C549.129 151.944 549.621 151.527 550.1 151.096L550.434 151.468C550.922 151.03 551.395 150.578 551.854 150.112L551.498 149.761C551.951 149.302 552.39 148.829 552.814 148.344L553.19 148.673C553.621 148.18 554.037 147.674 554.437 147.156L554.041 146.85C554.435 146.34 554.813 145.818 555.175 145.285L555.588 145.565C555.956 145.024 556.306 144.471 556.64 143.908L556.21 143.653C556.538 143.099 556.849 142.534 557.142 141.96L557.587 142.188C557.885 141.606 558.165 141.013 558.426 140.412L557.967 140.213C558.223 139.623 558.461 139.025 558.681 138.418L559.151 138.588C559.373 137.974 559.576 137.351 559.76 136.721L559.28 136.581C559.459 135.965 559.62 135.341 559.761 134.71L560.249 134.819C560.391 134.183 560.514 133.54 560.617 132.89L560.123 132.812C560.223 132.179 560.304 131.54 560.365 130.896L560.862 130.943C560.923 130.295 560.964 129.642 560.985 128.984L560.485 128.968C560.495 128.647 560.5 128.324 560.5 128C560.5 127.676 560.495 127.353 560.485 127.032L560.985 127.016C560.964 126.358 560.923 125.705 560.862 125.057L560.365 125.104C560.304 124.46 560.223 123.821 560.123 123.188L560.617 123.11C560.514 122.46 560.391 121.817 560.249 121.181L559.761 121.29C559.62 120.659 559.459 120.035 559.28 119.419L559.76 119.279C559.576 118.649 559.373 118.026 559.151 117.412L558.681 117.582C558.461 116.975 558.223 116.377 557.967 115.787L558.426 115.588C558.165 114.987 557.885 114.394 557.587 113.812L557.142 114.04C556.849 113.466 556.538 112.901 556.21 112.347L556.64 112.092C556.306 111.529 555.956 110.976 555.588 110.435L555.175 110.715C554.813 110.182 554.435 109.66 554.041 109.15L554.437 108.844C554.037 108.326 553.621 107.82 553.19 107.327L552.814 107.656C552.39 107.171 551.951 106.698 551.498 106.239L551.854 105.888C551.395 105.422 550.922 104.97 550.434 104.532L550.1 104.904C549.621 104.473 549.129 104.056 548.624 103.654L548.936 103.263C548.425 102.856 547.901 102.463 547.365 102.086L547.077 102.495C546.551 102.124 546.013 101.769 545.463 101.429L545.726 101.004C545.171 100.66 544.604 100.332 544.026 100.02L543.789 100.46C543.223 100.155 542.646 99.8653 542.06 99.5922L542.271 99.139C541.68 98.8635 541.079 98.6046 540.468 98.3629L540.284 98.8278C539.687 98.5912 539.081 98.3714 538.466 98.1689L538.623 97.6941C538.003 97.49 537.376 97.3033 536.741 97.1345L536.612 97.6177C535.991 97.4528 535.363 97.3053 534.728 97.1758L534.828 96.6859C534.19 96.5556 533.545 96.4433 532.894 96.3494L532.822 96.8443C532.188 96.7528 531.547 96.6791 530.901 96.6238L530.944 96.1256C530.296 96.07 529.642 96.0327 528.984 96.014L528.97 96.5138C528.648 96.5046 528.324 96.5 528 96.5C527.676 96.5 527.352 96.5046 527.03 96.5138L527.016 96.014C526.358 96.0327 525.704 96.07 525.056 96.1256L525.099 96.6238C524.453 96.6791 523.812 96.7528 523.178 96.8443L523.106 96.3494C522.455 96.4433 521.81 96.5556 521.172 96.6859L521.272 97.1758C520.637 97.3053 520.009 97.4528 519.388 97.6177L519.259 97.1345C518.624 97.3033 517.997 97.49 517.377 97.6941L517.534 98.169C516.919 98.3714 516.313 98.5912 515.716 98.8278L515.532 98.3629C514.921 98.6046 514.32 98.8635 513.729 99.139L513.94 99.5922C513.354 99.8653 512.777 100.155 512.211 100.46L511.974 100.02C511.396 100.332 510.829 100.66 510.274 101.004L510.537 101.429C509.987 101.769 509.449 102.124 508.923 102.495L508.635 102.086C508.099 102.463 507.575 102.856 507.064 103.263L507.376 103.654C506.871 104.056 506.379 104.473 505.9 104.904L505.566 104.532C505.078 104.97 504.605 105.422 504.146 105.888L504.502 106.239C504.049 106.698 503.61 107.171 503.186 107.656L502.81 107.327C502.379 107.82 501.963 108.326 501.563 108.844L501.959 109.15C501.565 109.66 501.187 110.182 500.825 110.715L500.412 110.435C500.044 110.976 499.694 111.529 499.36 112.092L499.79 112.347C499.462 112.901 499.151 113.466 498.858 114.04L498.413 113.812C498.115 114.394 497.835 114.987 497.574 115.588L498.033 115.787C497.777 116.377 497.539 116.975 497.319 117.582L496.849 117.412C496.627 118.026 496.424 118.649 496.24 119.279L496.72 119.419C496.541 120.035 496.38 120.659 496.239 121.29L495.751 121.181C495.609 121.817 495.486 122.46 495.383 123.11L495.877 123.188C495.777 123.821 495.696 124.46 495.635 125.104L495.138 125.057Z" stroke="#C5C5C5" stroke-dasharray="2 2"/>
<circle cx="56" cy="127" r="47.5" stroke="#C5C5C5" stroke-dasharray="2 2"/>
<circle r="47.5" transform="matrix(-1 0 0 1 528 127)" stroke="#C5C5C5" stroke-dasharray="2 2"/>
<circle r="6" transform="matrix(-1 0 0 1 95 154)" fill="url(#paint0_linear)"/>
<circle cx="489" cy="154" r="6" fill="url(#paint1_linear)"/>
<ellipse rx="5.5" ry="5" transform="matrix(-1 0 0 1 95.5 101)" fill="url(#paint2_linear)"/>
<ellipse cx="488.5" cy="101" rx="5.5" ry="5" fill="url(#paint3_linear)"/>
<circle r="6" transform="matrix(-1 0 0 1 17 156)" fill="url(#paint4_linear)"/>
<circle cx="567" cy="156" r="6" fill="url(#paint5_linear)"/>
<circle r="6" transform="matrix(-1 0 0 1 17 102)" fill="url(#paint6_linear)"/>
<circle cx="567" cy="102" r="6" fill="url(#paint7_linear)"/>
<circle r="2" transform="matrix(-1 0 0 1 7 128)" fill="url(#paint8_linear)"/>
<circle cx="577" cy="128" r="2" fill="url(#paint9_linear)"/>
<circle r="9" transform="matrix(-1 0 0 1 56 127)" fill="#393939"/>
<circle cx="528" cy="127" r="9" fill="#393939"/>
<circle r="2" transform="matrix(-1 0 0 1 40 83)" fill="url(#paint10_linear)"/>
<circle cx="544" cy="83" r="2" fill="url(#paint11_linear)"/>
<circle r="2" transform="matrix(-1 0 0 1 40 173)" fill="url(#paint12_linear)"/>
<circle cx="544" cy="173" r="2" fill="url(#paint13_linear)"/>
<ellipse rx="2.5" ry="2" transform="matrix(-1 0 0 1 71.5 83)" fill="url(#paint14_linear)"/>
<ellipse cx="512.5" cy="83" rx="2.5" ry="2" fill="url(#paint15_linear)"/>
<circle r="2.5" transform="matrix(-1 0 0 1 71.5 171.5)" fill="url(#paint16_linear)"/>
<circle cx="512.5" cy="171.5" r="2.5" fill="url(#paint17_linear)"/>
<path d="M88.8623 125.057C88.9232 125.705 88.9642 126.358 88.9847 127.016L88.4849 127.032C88.495 127.353 88.5 127.676 88.5 128C88.5 128.324 88.495 128.647 88.4849 128.968L88.9847 128.984C88.9642 129.642 88.9232 130.295 88.8623 130.943L88.3645 130.896C88.3039 131.54 88.2233 132.179 88.1233 132.812L88.6171 132.89C88.5144 133.54 88.3915 134.183 88.249 134.819L87.7611 134.71C87.6199 135.341 87.4591 135.965 87.2795 136.581L87.7596 136.721C87.5759 137.351 87.3728 137.974 87.1509 138.588L86.6807 138.418C86.4613 139.025 86.2233 139.623 85.9672 140.213L86.4258 140.412C86.1646 141.013 85.8849 141.606 85.5875 142.188L85.1422 141.96C84.8488 142.534 84.5378 143.099 84.2099 143.653L84.6401 143.908C84.3065 144.471 83.9556 145.024 83.5883 145.565L83.1745 145.285C82.8127 145.818 82.4346 146.34 82.0408 146.85L82.4366 147.156C82.0368 147.674 81.6211 148.18 81.1903 148.673L80.8137 148.344C80.39 148.829 79.9513 149.302 79.4984 149.761L79.8544 150.112C79.3952 150.578 78.9216 151.03 78.4344 151.468L78.1 151.096C77.6213 151.527 77.1291 151.944 76.6241 152.346L76.9357 152.737C76.4246 153.144 75.9007 153.537 75.3646 153.914L75.0768 153.505C74.5506 153.876 74.0125 154.231 73.4632 154.571L73.7263 154.996C73.1708 155.34 72.604 155.668 72.0265 155.98L71.789 155.54C71.2229 155.845 70.6465 156.135 70.0603 156.408L70.2714 156.861C69.68 157.136 69.0788 157.395 68.4685 157.637L68.2844 157.172C67.687 157.409 67.0808 157.629 66.4663 157.831L66.6227 158.306C66.0034 158.51 65.3758 158.697 64.7405 158.865L64.6121 158.382C63.9914 158.547 63.3633 158.695 62.7283 158.824L62.8283 159.314C62.19 159.444 61.5449 159.557 60.8936 159.651L60.8223 159.156C60.1878 159.247 59.5472 159.321 58.9012 159.376L58.9439 159.874C58.2958 159.93 57.6424 159.967 56.9841 159.986L56.97 159.486C56.6478 159.495 56.3245 159.5 56 159.5C55.6755 159.5 55.3522 159.495 55.03 159.486L55.0158 159.986C54.3576 159.967 53.7041 159.93 53.0561 159.874L53.0988 159.376C52.4528 159.321 51.8122 159.247 51.1777 159.156L51.1064 159.651C50.4551 159.557 49.81 159.444 49.1717 159.314L49.2717 158.824C48.6367 158.695 48.0086 158.547 47.3879 158.382L47.2595 158.865C46.6242 158.697 45.9966 158.51 45.3773 158.306L45.5337 157.831C44.9192 157.629 44.313 157.409 43.7156 157.172L43.5315 157.637C42.9212 157.395 42.32 157.136 41.7286 156.861L41.9397 156.408C41.3535 156.135 40.7771 155.845 40.211 155.54L39.9735 155.98C39.396 155.668 38.8292 155.34 38.2737 154.996L38.5368 154.571C37.9875 154.231 37.4494 153.876 36.9232 153.505L36.6354 153.914C36.0993 153.537 35.5754 153.144 35.0643 152.737L35.3759 152.346C34.8709 151.944 34.3787 151.527 33.9 151.096L33.5656 151.468C33.0784 151.03 32.6048 150.578 32.1456 150.112L32.5016 149.761C32.0487 149.302 31.61 148.829 31.1863 148.344L30.8097 148.673C30.3789 148.18 29.9632 147.674 29.5633 147.156L29.9592 146.85C29.5654 146.34 29.1873 145.818 28.8255 145.285L28.4117 145.565C28.0444 145.024 27.6935 144.471 27.3599 143.908L27.7901 143.653C27.4622 143.099 27.1512 142.534 26.8578 141.96L26.4125 142.188C26.1151 141.606 25.8354 141.013 25.5741 140.412L26.0328 140.213C25.7767 139.623 25.5387 139.025 25.3193 138.418L24.8491 138.588C24.6272 137.974 24.4241 137.351 24.2404 136.721L24.7205 136.581C24.5409 135.965 24.3801 135.341 24.2389 134.71L23.751 134.819C23.6085 134.183 23.4856 133.54 23.3828 132.89L23.8767 132.812C23.7767 132.179 23.6961 131.54 23.6355 130.896L23.1377 130.943C23.0768 130.295 23.0358 129.642 23.0153 128.984L23.5151 128.968C23.505 128.647 23.5 128.324 23.5 128C23.5 127.676 23.505 127.353 23.5151 127.032L23.0153 127.016C23.0358 126.358 23.0768 125.705 23.1377 125.057L23.6355 125.104C23.6961 124.46 23.7767 123.821 23.8767 123.188L23.3828 123.11C23.4856 122.46 23.6085 121.817 23.751 121.181L24.2389 121.29C24.3801 120.659 24.5409 120.035 24.7205 119.419L24.2404 119.279C24.4241 118.649 24.6272 118.026 24.8491 117.412L25.3193 117.582C25.5387 116.975 25.7767 116.377 26.0328 115.787L25.5741 115.588C25.8354 114.987 26.1151 114.394 26.4125 113.812L26.8578 114.04C27.1512 113.466 27.4622 112.901 27.7901 112.347L27.3599 112.092C27.6935 111.529 28.0444 110.976 28.4117 110.435L28.8255 110.715C29.1873 110.182 29.5654 109.66 29.9592 109.15L29.5633 108.844C29.9632 108.326 30.3789 107.82 30.8097 107.327L31.1863 107.656C31.61 107.171 32.0487 106.698 32.5016 106.239L32.1456 105.888C32.6048 105.422 33.0784 104.97 33.5656 104.532L33.9 104.904C34.3787 104.473 34.8709 104.056 35.3759 103.654L35.0643 103.263C35.5754 102.856 36.0993 102.463 36.6354 102.086L36.9232 102.495C37.4494 102.124 37.9875 101.769 38.5368 101.429L38.2737 101.004C38.8292 100.66 39.396 100.332 39.9735 100.02L40.211 100.46C40.7771 100.155 41.3535 99.8653 41.9397 99.5922L41.7286 99.139C42.32 98.8635 42.9212 98.6046 43.5315 98.3629L43.7156 98.8278C44.313 98.5912 44.9192 98.3714 45.5337 98.1689L45.3773 97.6941C45.9966 97.49 46.6242 97.3033 47.2595 97.1345L47.3879 97.6177C48.0086 97.4528 48.6367 97.3053 49.2717 97.1758L49.1717 96.6859C49.81 96.5556 50.4551 96.4433 51.1064 96.3494L51.1777 96.8443C51.8122 96.7528 52.4528 96.6791 53.0988 96.6238L53.0561 96.1256C53.7042 96.07 54.3576 96.0327 55.0159 96.014L55.03 96.5138C55.3522 96.5046 55.6755 96.5 56 96.5C56.3245 96.5 56.6478 96.5046 56.97 96.5138L56.9842 96.014C57.6424 96.0327 58.2959 96.07 58.9439 96.1256L58.9012 96.6238C59.5472 96.6791 60.1878 96.7528 60.8223 96.8443L60.8936 96.3494C61.5449 96.4433 62.19 96.5556 62.8283 96.6859L62.7283 97.1758C63.3633 97.3053 63.9914 97.4528 64.6121 97.6177L64.7405 97.1345C65.3758 97.3033 66.0034 97.49 66.6227 97.6941L66.4663 98.169C67.0808 98.3714 67.687 98.5912 68.2844 98.8278L68.4685 98.3629C69.0788 98.6046 69.68 98.8635 70.2714 99.139L70.0603 99.5922C70.6465 99.8653 71.2229 100.155 71.789 100.46L72.0265 100.02C72.604 100.332 73.1708 100.66 73.7263 101.004L73.4632 101.429C74.0125 101.769 74.5506 102.124 75.0768 102.495L75.3646 102.086C75.9007 102.463 76.4246 102.856 76.9357 103.263L76.6241 103.654C77.1291 104.056 77.6213 104.473 78.1 104.904L78.4344 104.532C78.9216 104.97 79.3952 105.422 79.8544 105.888L79.4984 106.239C79.9513 106.698 80.39 107.171 80.8137 107.656L81.1903 107.327C81.6211 107.82 82.0368 108.326 82.4366 108.844L82.0408 109.15C82.4346 109.66 82.8127 110.182 83.1745 110.715L83.5883 110.435C83.9556 110.976 84.3065 111.529 84.6401 112.092L84.2099 112.347C84.5378 112.901 84.8488 113.466 85.1422 114.04L85.5875 113.812C85.8849 114.394 86.1646 114.987 86.4259 115.588L85.9672 115.787C86.2233 116.377 86.4613 116.975 86.6807 117.582L87.1509 117.412C87.3728 118.026 87.5759 118.649 87.7596 119.279L87.2795 119.419C87.4591 120.035 87.6199 120.659 87.7611 121.29L88.249 121.181C88.3915 121.817 88.5144 122.46 88.6171 123.11L88.1233 123.188C88.2233 123.821 88.3039 124.46 88.3645 125.104L88.8623 125.057Z" stroke="#C5C5C5" stroke-dasharray="2 2"/>
<path d="M495.138 125.057C495.077 125.705 495.036 126.358 495.015 127.016L495.515 127.032C495.505 127.353 495.5 127.676 495.5 128C495.5 128.324 495.505 128.647 495.515 128.968L495.015 128.984C495.036 129.642 495.077 130.295 495.138 130.943L495.635 130.896C495.696 131.54 495.777 132.179 495.877 132.812L495.383 132.89C495.486 133.54 495.609 134.183 495.751 134.819L496.239 134.71C496.38 135.341 496.541 135.965 496.72 136.581L496.24 136.721C496.424 137.351 496.627 137.974 496.849 138.588L497.319 138.418C497.539 139.025 497.777 139.623 498.033 140.213L497.574 140.412C497.835 141.013 498.115 141.606 498.413 142.188L498.858 141.96C499.151 142.534 499.462 143.099 499.79 143.653L499.36 143.908C499.694 144.471 500.044 145.024 500.412 145.565L500.825 145.285C501.187 145.818 501.565 146.34 501.959 146.85L501.563 147.156C501.963 147.674 502.379 148.18 502.81 148.673L503.186 148.344C503.61 148.829 504.049 149.302 504.502 149.761L504.146 150.112C504.605 150.578 505.078 151.03 505.566 151.468L505.9 151.096C506.379 151.527 506.871 151.944 507.376 152.346L507.064 152.737C507.575 153.144 508.099 153.537 508.635 153.914L508.923 153.505C509.449 153.876 509.987 154.231 510.537 154.571L510.274 154.996C510.829 155.34 511.396 155.668 511.974 155.98L512.211 155.54C512.777 155.845 513.354 156.135 513.94 156.408L513.729 156.861C514.32 157.136 514.921 157.395 515.532 157.637L515.716 157.172C516.313 157.409 516.919 157.629 517.534 157.831L517.377 158.306C517.997 158.51 518.624 158.697 519.259 158.865L519.388 158.382C520.009 158.547 520.637 158.695 521.272 158.824L521.172 159.314C521.81 159.444 522.455 159.557 523.106 159.651L523.178 159.156C523.812 159.247 524.453 159.321 525.099 159.376L525.056 159.874C525.704 159.93 526.358 159.967 527.016 159.986L527.03 159.486C527.352 159.495 527.676 159.5 528 159.5C528.324 159.5 528.648 159.495 528.97 159.486L528.984 159.986C529.642 159.967 530.296 159.93 530.944 159.874L530.901 159.376C531.547 159.321 532.188 159.247 532.822 159.156L532.894 159.651C533.545 159.557 534.19 159.444 534.828 159.314L534.728 158.824C535.363 158.695 535.991 158.547 536.612 158.382L536.741 158.865C537.376 158.697 538.003 158.51 538.623 158.306L538.466 157.831C539.081 157.629 539.687 157.409 540.284 157.172L540.468 157.637C541.079 157.395 541.68 157.136 542.271 156.861L542.06 156.408C542.646 156.135 543.223 155.845 543.789 155.54L544.026 155.98C544.604 155.668 545.171 155.34 545.726 154.996L545.463 154.571C546.013 154.231 546.551 153.876 547.077 153.505L547.365 153.914C547.901 153.537 548.425 153.144 548.936 152.737L548.624 152.346C549.129 151.944 549.621 151.527 550.1 151.096L550.434 151.468C550.922 151.03 551.395 150.578 551.854 150.112L551.498 149.761C551.951 149.302 552.39 148.829 552.814 148.344L553.19 148.673C553.621 148.18 554.037 147.674 554.437 147.156L554.041 146.85C554.435 146.34 554.813 145.818 555.175 145.285L555.588 145.565C555.956 145.024 556.306 144.471 556.64 143.908L556.21 143.653C556.538 143.099 556.849 142.534 557.142 141.96L557.587 142.188C557.885 141.606 558.165 141.013 558.426 140.412L557.967 140.213C558.223 139.623 558.461 139.025 558.681 138.418L559.151 138.588C559.373 137.974 559.576 137.351 559.76 136.721L559.28 136.581C559.459 135.965 559.62 135.341 559.761 134.71L560.249 134.819C560.391 134.183 560.514 133.54 560.617 132.89L560.123 132.812C560.223 132.179 560.304 131.54 560.365 130.896L560.862 130.943C560.923 130.295 560.964 129.642 560.985 128.984L560.485 128.968C560.495 128.647 560.5 128.324 560.5 128C560.5 127.676 560.495 127.353 560.485 127.032L560.985 127.016C560.964 126.358 560.923 125.705 560.862 125.057L560.365 125.104C560.304 124.46 560.223 123.821 560.123 123.188L560.617 123.11C560.514 122.46 560.391 121.817 560.249 121.181L559.761 121.29C559.62 120.659 559.459 120.035 559.28 119.419L559.76 119.279C559.576 118.649 559.373 118.026 559.151 117.412L558.681 117.582C558.461 116.975 558.223 116.377 557.967 115.787L558.426 115.588C558.165 114.987 557.885 114.394 557.587 113.812L557.142 114.04C556.849 113.466 556.538 112.901 556.21 112.347L556.64 112.092C556.306 111.529 555.956 110.976 555.588 110.435L555.175 110.715C554.813 110.182 554.435 109.66 554.041 109.15L554.437 108.844C554.037 108.326 553.621 107.82 553.19 107.327L552.814 107.656C552.39 107.171 551.951 106.698 551.498 106.239L551.854 105.888C551.395 105.422 550.922 104.97 550.434 104.532L550.1 104.904C549.621 104.473 549.129 104.056 548.624 103.654L548.936 103.263C548.425 102.856 547.901 102.463 547.365 102.086L547.077 102.495C546.551 102.124 546.013 101.769 545.463 101.429L545.726 101.004C545.171 100.66 544.604 100.332 544.026 100.02L543.789 100.46C543.223 100.155 542.646 99.8653 542.06 99.5922L542.271 99.139C541.68 98.8635 541.079 98.6046 540.468 98.3629L540.284 98.8278C539.687 98.5912 539.081 98.3714 538.466 98.1689L538.623 97.6941C538.003 97.49 537.376 97.3033 536.741 97.1345L536.612 97.6177C535.991 97.4528 535.363 97.3053 534.728 97.1758L534.828 96.6859C534.19 96.5556 533.545 96.4433 532.894 96.3494L532.822 96.8443C532.188 96.7528 531.547 96.6791 530.901 96.6238L530.944 96.1256C530.296 96.07 529.642 96.0327 528.984 96.014L528.97 96.5138C528.648 96.5046 528.324 96.5 528 96.5C527.676 96.5 527.352 96.5046 527.03 96.5138L527.016 96.014C526.358 96.0327 525.704 96.07 525.056 96.1256L525.099 96.6238C524.453 96.6791 523.812 96.7528 523.178 96.8443L523.106 96.3494C522.455 96.4433 521.81 96.5556 521.172 96.6859L521.272 97.1758C520.637 97.3053 520.009 97.4528 519.388 97.6177L519.259 97.1345C518.624 97.3033 517.997 97.49 517.377 97.6941L517.534 98.169C516.919 98.3714 516.313 98.5912 515.716 98.8278L515.532 98.3629C514.921 98.6046 514.32 98.8635 513.729 99.139L513.94 99.5922C513.354 99.8653 512.777 100.155 512.211 100.46L511.974 100.02C511.396 100.332 510.829 100.66 510.274 101.004L510.537 101.429C509.987 101.769 509.449 102.124 508.923 102.495L508.635 102.086C508.099 102.463 507.575 102.856 507.064 103.263L507.376 103.654C506.871 104.056 506.379 104.473 505.9 104.904L505.566 104.532C505.078 104.97 504.605 105.422 504.146 105.888L504.502 106.239C504.049 106.698 503.61 107.171 503.186 107.656L502.81 107.327C502.379 107.82 501.963 108.326 501.563 108.844L501.959 109.15C501.565 109.66 501.187 110.182 500.825 110.715L500.412 110.435C500.044 110.976 499.694 111.529 499.36 112.092L499.79 112.347C499.462 112.901 499.151 113.466 498.858 114.04L498.413 113.812C498.115 114.394 497.835 114.987 497.574 115.588L498.033 115.787C497.777 116.377 497.539 116.975 497.319 117.582L496.849 117.412C496.627 118.026 496.424 118.649 496.24 119.279L496.72 119.419C496.541 120.035 496.38 120.659 496.239 121.29L495.751 121.181C495.609 121.817 495.486 122.46 495.383 123.11L495.877 123.188C495.777 123.821 495.696 124.46 495.635 125.104L495.138 125.057Z" stroke="#C5C5C5" stroke-dasharray="2 2"/>
<line x1="203" y1="127.5" x2="54" y2="127.5" stroke="#C5C5C5" stroke-dasharray="2 2"/>
<line y1="-0.5" x2="149" y2="-0.5" transform="matrix(1 0 0 -1 381 127)" stroke="#C5C5C5" stroke-dasharray="2 2"/>
<circle r="6" transform="matrix(-1 0 0 1 95 154)" fill="url(#paint18_linear)"/>
<circle cx="489" cy="154" r="6" fill="url(#paint19_linear)"/>
<ellipse rx="5.5" ry="5" transform="matrix(-1 0 0 1 95.5 101)" fill="url(#paint20_linear)"/>
<ellipse cx="488.5" cy="101" rx="5.5" ry="5" fill="url(#paint21_linear)"/>
<circle r="6" transform="matrix(-1 0 0 1 17 156)" fill="url(#paint22_linear)"/>
<circle cx="567" cy="156" r="6" fill="url(#paint23_linear)"/>
<circle r="2" transform="matrix(-1 0 0 1 7 128)" fill="url(#paint24_linear)"/>
<circle cx="577" cy="128" r="2" fill="url(#paint25_linear)"/>
<line x1="54.4748" y1="126.539" x2="76.8082" y2="69.2078" stroke="#C5C5C5" stroke-dasharray="2 2"/>
<line y1="-0.5" x2="61.5275" y2="-0.5" transform="matrix(-0.362982 -0.931796 -0.931796 0.362982 529.059 126.72)" stroke="#C5C5C5" stroke-dasharray="2 2"/>
<line x1="77" y1="69.5" x2="205" y2="69.5" stroke="#C5C5C5" stroke-dasharray="2 2"/>
<line y1="-0.5" x2="128" y2="-0.5" transform="matrix(-1 0 0 1 507 70)" stroke="#C5C5C5" stroke-dasharray="2 2"/>
<line y1="-0.5" x2="61.5275" y2="-0.5" transform="matrix(0.362982 0.931796 0.931796 -0.362982 54.9407 129.288)" stroke="#C5C5C5" stroke-dasharray="2 2"/>
<line x1="529.525" y1="129.469" x2="507.192" y2="186.8" stroke="#C5C5C5" stroke-dasharray="2 2"/>
<line y1="-0.5" x2="128" y2="-0.5" transform="matrix(1 0 0 -1 77 186)" stroke="#C5C5C5" stroke-dasharray="2 2"/>
<line x1="507" y1="186.5" x2="379" y2="186.5" stroke="#C5C5C5" stroke-dasharray="2 2"/>
<circle r="9" transform="matrix(-1 0 0 1 56 127)" fill="#393939"/>
<circle cx="528" cy="127" r="9" fill="#393939"/>
<circle r="2" transform="matrix(-1 0 0 1 40 83)" fill="url(#paint26_linear)"/>
<circle cx="544" cy="83" r="2" fill="url(#paint27_linear)"/>
<circle r="2" transform="matrix(-1 0 0 1 40 173)" fill="url(#paint28_linear)"/>
<circle cx="544" cy="173" r="2" fill="url(#paint29_linear)"/>
<ellipse rx="2.5" ry="2" transform="matrix(-1 0 0 1 71.5 83)" fill="url(#paint30_linear)"/>
<ellipse cx="512.5" cy="83" rx="2.5" ry="2" fill="url(#paint31_linear)"/>
<circle r="2.5" transform="matrix(-1 0 0 1 71.5 171.5)" fill="url(#paint32_linear)"/>
<circle cx="512.5" cy="171.5" r="2.5" fill="url(#paint33_linear)"/>
<defs>
<filter id="filter0_d" x="189" y="19" width="206" height="223" filterUnits="userSpaceOnUse" color-interpolation-filters="sRGB">
<feFlood flood-opacity="0" result="BackgroundImageFix"/>
<feColorMatrix in="SourceAlpha" type="matrix" values="0 0 0 0 0 0 0 0 0 0 0 0 0 0 0 0 0 0 127 0"/>
<feOffset dy="4"/>
<feGaussianBlur stdDeviation="8"/>
<feColorMatrix type="matrix" values="0 0 0 0 0 0 0 0 0 0 0 0 0 0 0 0 0 0 0.06 0"/>
<feBlend mode="normal" in2="BackgroundImageFix" result="effect1_dropShadow"/>
<feBlend mode="normal" in="SourceGraphic" in2="effect1_dropShadow" result="shape"/>
</filter>
<linearGradient id="paint0_linear" x1="6" y1="0" x2="6" y2="12" gradientUnits="userSpaceOnUse">
<stop stop-color="#FF5454"/>
<stop offset="1" stop-color="#BA4F4F" stop-opacity="0.74"/>
</linearGradient>
<linearGradient id="paint1_linear" x1="489" y1="148" x2="489" y2="160" gradientUnits="userSpaceOnUse">
<stop stop-color="#FF5454"/>
<stop offset="1" stop-color="#BA4F4F" stop-opacity="0.74"/>
</linearGradient>
<linearGradient id="paint2_linear" x1="5.5" y1="0" x2="5.5" y2="10" gradientUnits="userSpaceOnUse">
<stop stop-color="#FF5454"/>
<stop offset="1" stop-color="#BA4F4F" stop-opacity="0.74"/>
</linearGradient>
<linearGradient id="paint3_linear" x1="488.5" y1="96" x2="488.5" y2="106" gradientUnits="userSpaceOnUse">
<stop stop-color="#FF5454"/>
<stop offset="1" stop-color="#BA4F4F" stop-opacity="0.74"/>
</linearGradient>
<linearGradient id="paint4_linear" x1="6" y1="0" x2="6" y2="12" gradientUnits="userSpaceOnUse">
<stop stop-color="#FF5454"/>
<stop offset="1" stop-color="#BA4F4F" stop-opacity="0.74"/>
</linearGradient>
<linearGradient id="paint5_linear" x1="567" y1="150" x2="567" y2="162" gradientUnits="userSpaceOnUse">
<stop stop-color="#FF5454"/>
<stop offset="1" stop-color="#BA4F4F" stop-opacity="0.74"/>
</linearGradient>
<linearGradient id="paint6_linear" x1="6" y1="0" x2="6" y2="12" gradientUnits="userSpaceOnUse">
<stop stop-color="#FF5454"/>
<stop offset="1" stop-color="#BA4F4F" stop-opacity="0.74"/>
</linearGradient>
<linearGradient id="paint7_linear" x1="567" y1="96" x2="567" y2="108" gradientUnits="userSpaceOnUse">
<stop stop-color="#FF5454"/>
<stop offset="1" stop-color="#BA4F4F" stop-opacity="0.74"/>
</linearGradient>
<linearGradient id="paint8_linear" x1="2" y1="0" x2="2" y2="4" gradientUnits="userSpaceOnUse">
<stop stop-color="#FF5454"/>
<stop offset="1" stop-color="#BA4F4F" stop-opacity="0.74"/>
</linearGradient>
<linearGradient id="paint9_linear" x1="577" y1="126" x2="577" y2="130" gradientUnits="userSpaceOnUse">
<stop stop-color="#FF5454"/>
<stop offset="1" stop-color="#BA4F4F" stop-opacity="0.74"/>
</linearGradient>
<linearGradient id="paint10_linear" x1="2" y1="0" x2="2" y2="4" gradientUnits="userSpaceOnUse">
<stop stop-color="#FF5454"/>
<stop offset="1" stop-color="#BA4F4F" stop-opacity="0.74"/>
</linearGradient>
<linearGradient id="paint11_linear" x1="544" y1="81" x2="544" y2="85" gradientUnits="userSpaceOnUse">
<stop stop-color="#FF5454"/>
<stop offset="1" stop-color="#BA4F4F" stop-opacity="0.74"/>
</linearGradient>
<linearGradient id="paint12_linear" x1="2" y1="0" x2="2" y2="4" gradientUnits="userSpaceOnUse">
<stop stop-color="#FF5454"/>
<stop offset="1" stop-color="#BA4F4F" stop-opacity="0.74"/>
</linearGradient>
<linearGradient id="paint13_linear" x1="544" y1="171" x2="544" y2="175" gradientUnits="userSpaceOnUse">
<stop stop-color="#FF5454"/>
<stop offset="1" stop-color="#BA4F4F" stop-opacity="0.74"/>
</linearGradient>
<linearGradient id="paint14_linear" x1="2.5" y1="0" x2="2.5" y2="4" gradientUnits="userSpaceOnUse">
<stop stop-color="#FF5454"/>
<stop offset="1" stop-color="#BA4F4F" stop-opacity="0.74"/>
</linearGradient>
<linearGradient id="paint15_linear" x1="512.5" y1="81" x2="512.5" y2="85" gradientUnits="userSpaceOnUse">
<stop stop-color="#FF5454"/>
<stop offset="1" stop-color="#BA4F4F" stop-opacity="0.74"/>
</linearGradient>
<linearGradient id="paint16_linear" x1="2.5" y1="0" x2="2.5" y2="5" gradientUnits="userSpaceOnUse">
<stop stop-color="#FF5454"/>
<stop offset="1" stop-color="#BA4F4F" stop-opacity="0.74"/>
</linearGradient>
<linearGradient id="paint17_linear" x1="512.5" y1="169" x2="512.5" y2="174" gradientUnits="userSpaceOnUse">
<stop stop-color="#FF5454"/>
<stop offset="1" stop-color="#BA4F4F" stop-opacity="0.74"/>
</linearGradient>
<linearGradient id="paint18_linear" x1="6" y1="0" x2="6" y2="12" gradientUnits="userSpaceOnUse">
<stop stop-color="#FF5454"/>
<stop offset="1" stop-color="#BA4F4F" stop-opacity="0.74"/>
</linearGradient>
<linearGradient id="paint19_linear" x1="489" y1="148" x2="489" y2="160" gradientUnits="userSpaceOnUse">
<stop stop-color="#FF5454"/>
<stop offset="1" stop-color="#BA4F4F" stop-opacity="0.74"/>
</linearGradient>
<linearGradient id="paint20_linear" x1="5.5" y1="0" x2="5.5" y2="10" gradientUnits="userSpaceOnUse">
<stop stop-color="#FF5454"/>
<stop offset="1" stop-color="#BA4F4F" stop-opacity="0.74"/>
</linearGradient>
<linearGradient id="paint21_linear" x1="488.5" y1="96" x2="488.5" y2="106" gradientUnits="userSpaceOnUse">
<stop stop-color="#FF5454"/>
<stop offset="1" stop-color="#BA4F4F" stop-opacity="0.74"/>
</linearGradient>
<linearGradient id="paint22_linear" x1="6" y1="0" x2="6" y2="12" gradientUnits="userSpaceOnUse">
<stop stop-color="#FF5454"/>
<stop offset="1" stop-color="#BA4F4F" stop-opacity="0.74"/>
</linearGradient>
<linearGradient id="paint23_linear" x1="567" y1="150" x2="567" y2="162" gradientUnits="userSpaceOnUse">
<stop stop-color="#FF5454"/>
<stop offset="1" stop-color="#BA4F4F" stop-opacity="0.74"/>
</linearGradient>
<linearGradient id="paint24_linear" x1="2" y1="0" x2="2" y2="4" gradientUnits="userSpaceOnUse">
<stop stop-color="#FF5454"/>
<stop offset="1" stop-color="#BA4F4F" stop-opacity="0.74"/>
</linearGradient>
<linearGradient id="paint25_linear" x1="577" y1="126" x2="577" y2="130" gradientUnits="userSpaceOnUse">
<stop stop-color="#FF5454"/>
<stop offset="1" stop-color="#BA4F4F" stop-opacity="0.74"/>
</linearGradient>
<linearGradient id="paint26_linear" x1="2" y1="0" x2="2" y2="4" gradientUnits="userSpaceOnUse">
<stop stop-color="#FF5454"/>
<stop offset="1" stop-color="#BA4F4F" stop-opacity="0.74"/>
</linearGradient>
<linearGradient id="paint27_linear" x1="544" y1="81" x2="544" y2="85" gradientUnits="userSpaceOnUse">
<stop stop-color="#FF5454"/>
<stop offset="1" stop-color="#BA4F4F" stop-opacity="0.74"/>
</linearGradient>
<linearGradient id="paint28_linear" x1="2" y1="0" x2="2" y2="4" gradientUnits="userSpaceOnUse">
<stop stop-color="#FF5454"/>
<stop offset="1" stop-color="#BA4F4F" stop-opacity="0.74"/>
</linearGradient>
<linearGradient id="paint29_linear" x1="544" y1="171" x2="544" y2="175" gradientUnits="userSpaceOnUse">
<stop stop-color="#FF5454"/>
<stop offset="1" stop-color="#BA4F4F" stop-opacity="0.74"/>
</linearGradient>
<linearGradient id="paint30_linear" x1="2.5" y1="0" x2="2.5" y2="4" gradientUnits="userSpaceOnUse">
<stop stop-color="#FF5454"/>
<stop offset="1" stop-color="#BA4F4F" stop-opacity="0.74"/>
</linearGradient>
<linearGradient id="paint31_linear" x1="512.5" y1="81" x2="512.5" y2="85" gradientUnits="userSpaceOnUse">
<stop stop-color="#FF5454"/>
<stop offset="1" stop-color="#BA4F4F" stop-opacity="0.74"/>
</linearGradient>
<linearGradient id="paint32_linear" x1="2.5" y1="0" x2="2.5" y2="5" gradientUnits="userSpaceOnUse">
<stop stop-color="#FF5454"/>
<stop offset="1" stop-color="#BA4F4F" stop-opacity="0.74"/>
</linearGradient>
<linearGradient id="paint33_linear" x1="512.5" y1="169" x2="512.5" y2="174" gradientUnits="userSpaceOnUse">
<stop stop-color="#FF5454"/>
<stop offset="1" stop-color="#BA4F4F" stop-opacity="0.74"/>
</linearGradient>
</defs>
</svg>
