<svg width="343" height="288" fill="none" xmlns="http://www.w3.org/2000/svg"><rect x="132.116" y="128.262" width="78" height="78" rx="39" stroke="#DCDCDC" stroke-width="2"/><rect x="132.116" y="128.262" width="78" height="78" rx="39" fill="#393939" stroke="#DCDCDC" stroke-width="2"/><rect x="108.157" y="104.303" width="125.918" height="125.918" rx="62.959" stroke="#F1F1F1" stroke-width="2"/><path d="M171.116 157.337c5.893 0 10.669 4.776 10.669 10.669a10.67 10.67 0 01-6.484 9.816l-2.686-6.988a3.2 3.2 0 10-2.997.001l-2.686 6.988c-3.813-1.629-6.485-5.411-6.485-9.817 0-5.893 4.777-10.669 10.669-10.669z" fill="#fff"/><path stroke="#DCDCDC" stroke-width="2" d="M149.59 135.191V97.207M125.892 96.207h24.698M191.085 96.207h24.697M170.116 127.262v-63.95M192.116 134.423V97.207"/><circle cx="125.568" cy="96.243" r="4.283" fill="#fff" stroke="#A5A5A5" stroke-width="4.5"/><circle cx="170.136" cy="63.312" r="4.283" fill="#fff" stroke="#A5A5A5" stroke-width="4.5"/><circle cx="215.782" cy="96.243" r="4.283" fill="#fff" stroke="#A5A5A5" stroke-width="4.5"/><path stroke="#DCDCDC" stroke-width="2" d="M139.08 187.988h-37.984M203.92 187.988h37.984M100.096 211.686v-24.698M242.904 211.686v-24.698M100.096 146.493v-24.697M242.904 146.493v-24.698M131.15 167.462H67.2M211.85 167.462h63.95M138.312 145.462h-37.216M204.688 145.462h37.216"/><circle cx="100.132" cy="212.01" r="4.283" transform="rotate(-90 100.132 212.01)" fill="#fff" stroke="#A5A5A5" stroke-width="4.5"/><circle r="4.283" transform="matrix(0 -1 -1 0 242.868 212.01)" fill="#fff" stroke="#A5A5A5" stroke-width="4.5"/><circle cx="67.2" cy="167.442" r="4.283" transform="rotate(-90 67.2 167.442)" fill="#fff" stroke="#A5A5A5" stroke-width="4.5"/><circle r="4.283" transform="matrix(0 -1 -1 0 275.8 167.442)" fill="#fff" stroke="#A5A5A5" stroke-width="4.5"/><circle cx="100.132" cy="121.796" r="4.283" transform="rotate(-90 100.132 121.796)" fill="#fff" stroke="#A5A5A5" stroke-width="4.5"/><circle r="4.283" transform="matrix(0 -1 -1 0 242.868 121.796)" fill="#fff" stroke="#A5A5A5" stroke-width="4.5"/></svg>
