<svg width="361" height="254" viewBox="0 0 361 254" fill="none" xmlns="http://www.w3.org/2000/svg">
<line x1="178.033" y1="127.239" x2="130.033" y2="75.2392" stroke="#E8E8E8"/>
<line x1="177.906" y1="126.979" x2="166.706" y2="56.5786" stroke="#E8E8E8"/>
<line x1="177.937" y1="126.71" x2="205.137" y2="60.3105" stroke="#E8E8E8"/>
<line x1="178.132" y1="126.478" x2="237.332" y2="88.878" stroke="#E8E8E8"/>
<line x1="178" y1="126.5" x2="252" y2="126.5" stroke="#E8E8E8"/>
<line x1="178.687" y1="126.491" x2="237.887" y2="168.091" stroke="#E8E8E8"/>
<line x1="178.868" y1="126.723" x2="205.268" y2="196.323" stroke="#E8E8E8"/>
<line x1="178.873" y1="127.063" x2="154.873" y2="196.663" stroke="#E8E8E8"/>
<line x1="178.687" y1="127.309" x2="119.487" y2="168.909" stroke="#E8E8E8"/>
<line x1="178.355" y1="127.398" x2="107.955" y2="120.998" stroke="#E8E8E8"/>
<circle cx="180" cy="127" r="27" fill="#393939"/>
<path d="M285.841 130.659L286.017 130.836L286.195 130.659C286.404 130.45 286.652 130.284 286.925 130.171C287.198 130.058 287.491 130 287.786 130C288.081 130 288.374 130.058 288.647 130.171C288.92 130.284 289.168 130.45 289.377 130.659C289.586 130.868 289.752 131.116 289.865 131.389C289.978 131.662 290.036 131.955 290.036 132.25C290.036 132.545 289.978 132.838 289.865 133.111C289.752 133.384 289.586 133.632 289.377 133.841L286.017 137.2L282.659 133.841C282.237 133.419 282 132.847 282 132.25C282 131.653 282.237 131.081 282.659 130.659C283.081 130.237 283.653 130 284.25 130C284.847 130 285.419 130.237 285.841 130.659V130.659ZM280 129V137H272C272 134.922 272.809 132.925 274.255 131.432C275.702 129.94 277.673 129.069 279.75 129.004L280 129ZM280 116C283.315 116 286 118.685 286 122C286 125.315 283.315 128 280 128C276.685 128 274 125.315 274 122C274 118.685 276.685 116 280 116Z" fill="#B1B1B1"/>
<path d="M97.841 186.659L98.017 186.836L98.195 186.659C98.4039 186.45 98.652 186.284 98.925 186.171C99.1979 186.058 99.4905 186 99.786 186C100.081 186 100.374 186.058 100.647 186.171C100.92 186.284 101.168 186.45 101.377 186.659C101.586 186.868 101.752 187.116 101.865 187.389C101.978 187.662 102.036 187.955 102.036 188.25C102.036 188.545 101.978 188.838 101.865 189.111C101.752 189.384 101.586 189.632 101.377 189.841L98.017 193.2L94.659 189.841C94.237 189.419 94 188.847 94 188.25C94 187.653 94.237 187.081 94.659 186.659C95.081 186.237 95.6533 186 96.25 186C96.8467 186 97.419 186.237 97.841 186.659V186.659ZM92 185V193H84C84 190.922 84.8089 188.925 86.2555 187.432C87.702 185.94 89.6726 185.069 91.75 185.004L92 185ZM92 172C95.315 172 98 174.685 98 178C98 181.315 95.315 184 92 184C88.685 184 86 181.315 86 178C86 174.685 88.685 172 92 172Z" fill="#B1B1B1"/>
<path d="M260 181V183C258.409 183 256.883 183.632 255.757 184.757C254.632 185.883 254 187.409 254 189H252C252 186.878 252.843 184.843 254.343 183.343C255.843 181.843 257.878 181 260 181V181ZM260 180C256.685 180 254 177.315 254 174C254 170.685 256.685 168 260 168C263.315 168 266 170.685 266 174C266 177.315 263.315 180 260 180ZM260 178C262.21 178 264 176.21 264 174C264 171.79 262.21 170 260 170C257.79 170 256 171.79 256 174C256 176.21 257.79 178 260 178ZM262.595 185.812C262.468 185.278 262.468 184.723 262.595 184.189L261.603 183.616L262.603 181.884L263.595 182.457C263.993 182.08 264.474 181.802 265 181.645V180.5H267V181.645C267.532 181.803 268.012 182.085 268.405 182.457L269.397 181.884L270.397 183.616L269.405 184.189C269.532 184.722 269.532 185.278 269.405 185.811L270.397 186.384L269.397 188.116L268.405 187.543C268.007 187.92 267.526 188.198 267 188.355V189.5H265V188.355C264.474 188.198 263.993 187.92 263.595 187.543L262.603 188.116L261.603 186.384L262.595 185.812V185.812ZM266 186.5C266.398 186.5 266.779 186.342 267.061 186.061C267.342 185.779 267.5 185.398 267.5 185C267.5 184.602 267.342 184.221 267.061 183.939C266.779 183.658 266.398 183.5 266 183.5C265.602 183.5 265.221 183.658 264.939 183.939C264.658 184.221 264.5 184.602 264.5 185C264.5 185.398 264.658 185.779 264.939 186.061C265.221 186.342 265.602 186.5 266 186.5Z" fill="#727171"/>
<path d="M260 181V189H252C252 186.878 252.843 184.843 254.343 183.343C255.843 181.843 257.878 181 260 181V181ZM260 180C256.685 180 254 177.315 254 174C254 170.685 256.685 168 260 168C263.315 168 266 170.685 266 174C266 177.315 263.315 180 260 180ZM262.595 185.812C262.468 185.278 262.468 184.723 262.595 184.189L261.603 183.616L262.603 181.884L263.595 182.457C263.993 182.08 264.474 181.802 265 181.645V180.5H267V181.645C267.532 181.803 268.012 182.085 268.405 182.457L269.397 181.884L270.397 183.616L269.405 184.189C269.532 184.722 269.532 185.278 269.405 185.811L270.397 186.384L269.397 188.116L268.405 187.543C268.007 187.92 267.526 188.198 267 188.355V189.5H265V188.355C264.474 188.198 263.993 187.92 263.595 187.543L262.603 188.116L261.603 186.384L262.595 185.812V185.812ZM266 184C265.735 184 265.48 184.105 265.293 184.293C265.105 184.48 265 184.735 265 185C265 185.265 265.105 185.52 265.293 185.707C265.48 185.895 265.735 186 266 186C266.265 186 266.52 185.895 266.707 185.707C266.895 185.52 267 185.265 267 185C267 184.735 266.895 184.48 266.707 184.293C266.52 184.105 266.265 184 266 184Z" fill="#393939"/>
<path d="M215 34V36C213.409 36 211.883 36.6321 210.757 37.7574C209.632 38.8826 209 40.4087 209 42H207C207 39.8783 207.843 37.8434 209.343 36.3431C210.843 34.8429 212.878 34 215 34V34ZM215 33C211.685 33 209 30.315 209 27C209 23.685 211.685 21 215 21C218.315 21 221 23.685 221 27C221 30.315 218.315 33 215 33ZM215 31C217.21 31 219 29.21 219 27C219 24.79 217.21 23 215 23C212.79 23 211 24.79 211 27C211 29.21 212.79 31 215 31ZM217.595 38.812C217.468 38.2784 217.468 37.7226 217.595 37.189L216.603 36.616L217.603 34.884L218.595 35.457C218.993 35.0799 219.474 34.8017 220 34.645V33.5H222V34.645C222.532 34.803 223.012 35.085 223.405 35.457L224.397 34.884L225.397 36.616L224.405 37.189C224.532 37.7223 224.532 38.2777 224.405 38.811L225.397 39.384L224.397 41.116L223.405 40.543C223.007 40.9201 222.526 41.1983 222 41.355V42.5H220V41.355C219.474 41.1983 218.993 40.9201 218.595 40.543L217.603 41.116L216.603 39.384L217.595 38.812V38.812ZM221 39.5C221.398 39.5 221.779 39.342 222.061 39.0607C222.342 38.7794 222.5 38.3978 222.5 38C222.5 37.6022 222.342 37.2206 222.061 36.9393C221.779 36.658 221.398 36.5 221 36.5C220.602 36.5 220.221 36.658 219.939 36.9393C219.658 37.2206 219.5 37.6022 219.5 38C219.5 38.3978 219.658 38.7794 219.939 39.0607C220.221 39.342 220.602 39.5 221 39.5Z" fill="#727171"/>
<path d="M215 34V42H207C207 39.8783 207.843 37.8434 209.343 36.3431C210.843 34.8429 212.878 34 215 34V34ZM215 33C211.685 33 209 30.315 209 27C209 23.685 211.685 21 215 21C218.315 21 221 23.685 221 27C221 30.315 218.315 33 215 33ZM217.595 38.812C217.468 38.2784 217.468 37.7226 217.595 37.189L216.603 36.616L217.603 34.884L218.595 35.457C218.993 35.0799 219.474 34.8017 220 34.645V33.5H222V34.645C222.532 34.803 223.012 35.085 223.405 35.457L224.397 34.884L225.397 36.616L224.405 37.189C224.532 37.7223 224.532 38.2777 224.405 38.811L225.397 39.384L224.397 41.116L223.405 40.543C223.007 40.9201 222.526 41.1983 222 41.355V42.5H220V41.355C219.474 41.1983 218.993 40.9201 218.595 40.543L217.603 41.116L216.603 39.384L217.595 38.812V38.812ZM221 37C220.735 37 220.48 37.1054 220.293 37.2929C220.105 37.4804 220 37.7348 220 38C220 38.2652 220.105 38.5196 220.293 38.7071C220.48 38.8946 220.735 39 221 39C221.265 39 221.52 38.8946 221.707 38.7071C221.895 38.5196 222 38.2652 222 38C222 37.7348 221.895 37.4804 221.707 37.2929C221.52 37.1054 221.265 37 221 37Z" fill="#B1B1B1"/>
<path d="M256 76V84H248C248 81.8783 248.843 79.8434 250.343 78.3431C251.843 76.8429 253.878 76 256 76V76ZM256 75C252.685 75 250 72.315 250 69C250 65.685 252.685 63 256 63C259.315 63 262 65.685 262 69C262 72.315 259.315 75 256 75ZM264.828 82.828L262 85.657L259.172 82.828C258.612 82.2686 258.231 81.5559 258.077 80.78C257.923 80.004 258.002 79.1997 258.304 78.4687C258.607 77.7377 259.12 77.1129 259.778 76.6734C260.435 76.2338 261.209 75.9991 262 75.9991C262.791 75.9991 263.565 76.2338 264.222 76.6734C264.88 77.1129 265.393 77.7377 265.696 78.4687C265.998 79.1997 266.077 80.004 265.923 80.78C265.769 81.5559 265.388 82.2686 264.828 82.828V82.828ZM262 79C261.735 79 261.48 79.1054 261.293 79.2929C261.105 79.4804 261 79.7348 261 80C261 80.2652 261.105 80.5196 261.293 80.7071C261.48 80.8946 261.735 81 262 81C262.265 81 262.52 80.8946 262.707 80.7071C262.895 80.5196 263 80.2652 263 80C263 79.7348 262.895 79.4804 262.707 79.2929C262.52 79.1054 262.265 79 262 79Z" fill="#393939"/>
<path d="M73 126C73 123.878 73.8429 121.843 75.3431 120.343C76.8434 118.843 78.8783 118 81 118C83.1217 118 85.1566 118.843 86.6569 120.343C88.1571 121.843 89 123.878 89 126H73ZM81 117C77.685 117 75 114.315 75 111C75 107.685 77.685 105 81 105C84.315 105 87 107.685 87 111C87 114.315 84.315 117 81 117ZM90.246 107.184C90.7454 108.394 91.0016 109.691 91 111C91.0016 112.309 90.7454 113.606 90.246 114.816L88.569 113.596C88.8552 112.76 89.0008 111.883 89 111C89.0011 110.117 88.8558 109.24 88.57 108.404L90.246 107.184V107.184ZM93.548 104.784C94.5062 106.716 95.0032 108.844 95 111C95 113.233 94.477 115.344 93.548 117.216L91.903 116.02C92.6282 114.446 93.0025 112.733 93 111C93 109.208 92.607 107.507 91.903 105.98L93.548 104.784V104.784Z" fill="#393939"/>
<path d="M205 225C205 222.878 205.843 220.843 207.343 219.343C208.843 217.843 210.878 217 213 217C215.122 217 217.157 217.843 218.657 219.343C220.157 220.843 221 222.878 221 225H205ZM213 216C209.685 216 207 213.315 207 210C207 206.685 209.685 204 213 204C216.315 204 219 206.685 219 210C219 213.315 216.315 216 213 216ZM222.246 206.184C222.745 207.394 223.002 208.691 223 210C223.002 211.309 222.745 212.606 222.246 213.816L220.569 212.596C220.855 211.76 221.001 210.883 221 210C221.001 209.117 220.856 208.24 220.57 207.404L222.246 206.184V206.184ZM225.548 203.784C226.506 205.716 227.003 207.844 227 210C227 212.233 226.477 214.344 225.548 216.216L223.903 215.02C224.628 213.446 225.003 211.733 225 210C225 208.208 224.607 206.507 223.903 204.98L225.548 203.784V203.784Z" fill="#B1B1B1"/>
<path d="M143 216.062V222H145V216.062C148.946 216.554 152 219.92 152 224H136C136 222.051 136.711 220.17 138 218.708C139.289 217.247 141.067 216.306 143 216.062V216.062ZM144 215C140.685 215 138 212.315 138 209C138 205.685 140.685 203 144 203C147.315 203 150 205.685 150 209C150 212.315 147.315 215 144 215Z" fill="#393939"/>
<path d="M107 60.062V66H109V60.062C112.946 60.554 116 63.92 116 68H100C100 66.0514 100.711 64.1698 102 62.7083C103.289 61.2467 105.067 60.3058 107 60.062V60.062ZM108 59C104.685 59 102 56.315 102 53C102 49.685 104.685 47 108 47C111.315 47 114 49.685 114 53C114 56.315 111.315 59 108 59Z" fill="#B1B1B1"/>
<path d="M164 42H148V40C148 38.6739 148.527 37.4021 149.464 36.4645C150.402 35.5268 151.674 35 153 35H159C160.326 35 161.598 35.5268 162.536 36.4645C163.473 37.4021 164 38.6739 164 40V42ZM156 33C155.212 33 154.432 32.8448 153.704 32.5433C152.976 32.2417 152.315 31.7998 151.757 31.2426C151.2 30.6855 150.758 30.0241 150.457 29.2961C150.155 28.5681 150 27.7879 150 27C150 26.2121 150.155 25.4319 150.457 24.7039C150.758 23.9759 151.2 23.3145 151.757 22.7574C152.315 22.2002 152.976 21.7583 153.704 21.4567C154.432 21.1552 155.212 21 156 21C157.591 21 159.117 21.6321 160.243 22.7574C161.368 23.8826 162 25.4087 162 27C162 28.5913 161.368 30.1174 160.243 31.2426C159.117 32.3679 157.591 33 156 33V33Z" fill="#393939"/>
</svg>
