<svg width="585" height="254" viewBox="0 0 585 254" fill="none" xmlns="http://www.w3.org/2000/svg">
<rect x="4.8916" y="9" width="71.8227" height="77.8079" rx="5" fill="#EEEEEE"/>
<rect x="12.0739" y="66.4581" width="19.1527" height="2.39409" rx="1.19704" fill="#C2C2C2"/>
<rect x="12.0739" y="71.2463" width="10.7734" height="2.39409" rx="1.19704" fill="#C2C2C2"/>
<rect x="12.0739" y="76.0344" width="26.335" height="2.39409" rx="1.19704" fill="#C2C2C2"/>
<rect x="12.0739" y="14.9852" width="57.4581" height="5.98522" rx="2.5" fill="#C2C2C2"/>
<rect x="5" y="169" width="72" height="78" rx="5" fill="#EEEEEE"/>
<rect x="134" y="101" width="43" height="47" rx="2" fill="#EEEEEE"/>
<rect x="388" y="101" width="43" height="47" rx="2" fill="#EEEEEE"/>
<rect x="14" y="227" width="34" height="2" rx="1" fill="#C2C2C2"/>
<rect x="140" y="136" width="21" height="1" rx="0.5" fill="#C2C2C2"/>
<rect x="394" y="136" width="20" height="1" rx="0.5" fill="#C2C2C2"/>
<rect x="14" y="232" width="20" height="2" rx="1" fill="#C2C2C2"/>
<rect x="140" y="138" width="11" height="1" rx="0.5" fill="#C2C2C2"/>
<rect x="394" y="138" width="11" height="1" rx="0.5" fill="#C2C2C2"/>
<rect x="14" y="236" width="47" height="3" rx="1.5" fill="#C2C2C2"/>
<rect x="140" y="142" width="28" height="1" rx="0.5" fill="#C2C2C2"/>
<rect x="394" y="142" width="27" height="1" rx="0.5" fill="#C2C2C2"/>
<rect x="12" y="179" width="58" height="6" rx="2.5" fill="#C2C2C2"/>
<rect x="139" y="107" width="33" height="4" rx="2" fill="#C2C2C2"/>
<rect x="393" y="107" width="33" height="4" rx="2" fill="#C2C2C2"/>
<rect x="12" y="189" width="58" height="6" rx="2.5" fill="#C2C2C2"/>
<rect x="139" y="113" width="33" height="4" rx="2" fill="#C2C2C2"/>
<rect x="393" y="113" width="33" height="4" rx="2" fill="#C2C2C2"/>
<rect x="493" y="174" width="72" height="78" rx="5" fill="#EEEEEE"/>
<rect x="504" y="186" width="19" height="3" rx="1.5" fill="#C2C2C2"/>
<rect x="504" y="191" width="11" height="2" rx="1" fill="#C2C2C2"/>
<rect x="504" y="196" width="26" height="2" rx="1" fill="#C2C2C2"/>
<rect x="504" y="205" width="52" height="36" rx="2" fill="#C2C2C2"/>
<circle cx="284.88" cy="126.31" r="44.9877" stroke="#C5C5C5" stroke-dasharray="2 2"/>
<circle cx="284.88" cy="126.31" r="66.5345" stroke="#C5C5C5" stroke-dasharray="2 2"/>
<line x1="283.014" y1="127.42" x2="177.257" y2="125.503" stroke="#C5C5C5" stroke-dasharray="2 2"/>
<circle r="7.78079" transform="matrix(-1 0 0 1 340.543 164.017)" fill="url(#paint0_linear)"/>
<circle r="7.78079" transform="matrix(-1 0 0 1 340.543 88.6034)" fill="url(#paint1_linear)"/>
<circle r="7.78079" transform="matrix(-1 0 0 1 230.415 88.6034)" fill="url(#paint2_linear)"/>
<circle r="7.78079" transform="matrix(-1 0 0 1 230.415 166.411)" fill="url(#paint3_linear)"/>
<circle r="2.99261" transform="matrix(-1 0 0 1 217.247 126.909)" fill="url(#paint4_linear)"/>
<circle r="13.1675" transform="matrix(-1 0 0 1 284.88 126.31)" fill="#393939"/>
<circle r="2.99261" transform="matrix(-1 0 0 1 262.735 63.4655)" fill="url(#paint5_linear)"/>
<circle r="2.99261" transform="matrix(-1 0 0 1 262.735 189.155)" fill="url(#paint6_linear)"/>
<circle r="2.99261" transform="matrix(-1 0 0 1 308.223 63.4655)" fill="url(#paint7_linear)"/>
<circle r="2.99261" transform="matrix(-1 0 0 1 351.316 125.712)" fill="url(#paint8_linear)"/>
<circle r="2.99261" transform="matrix(-1 0 0 1 307.026 187.958)" fill="url(#paint9_linear)"/>
<circle cx="284.88" cy="126.31" r="44.9877" stroke="#C5C5C5" stroke-dasharray="2 2"/>
<circle cx="284.88" cy="126.31" r="66.5345" stroke="#C5C5C5" stroke-dasharray="2 2"/>
<line x1="283.014" y1="127.42" x2="177.257" y2="125.503" stroke="#C5C5C5" stroke-dasharray="2 2"/>
<line x1="388.234" y1="127.42" x2="282.477" y2="125.503" stroke="#C5C5C5" stroke-dasharray="2 2"/>
<circle r="7.78079" transform="matrix(-1 0 0 1 340.543 164.017)" fill="url(#paint10_linear)"/>
<circle r="7.78079" transform="matrix(-1 0 0 1 340.543 88.6034)" fill="url(#paint11_linear)"/>
<circle r="7.78079" transform="matrix(-1 0 0 1 230.415 88.6034)" fill="url(#paint12_linear)"/>
<circle r="7.78079" transform="matrix(-1 0 0 1 230.415 166.411)" fill="url(#paint13_linear)"/>
<circle r="2.99261" transform="matrix(-1 0 0 1 217.247 126.909)" fill="url(#paint14_linear)"/>
<line x1="283.217" y1="124.932" x2="314.46" y2="44.7298" stroke="#C5C5C5" stroke-dasharray="2 2"/>
<line x1="283.209" y1="125.273" x2="255.797" y2="43.8738" stroke="#C5C5C5" stroke-dasharray="2 2"/>
<line x1="76.7142" y1="44.4113" x2="255.074" y2="44.4113" stroke="#C5C5C5" stroke-dasharray="2 2"/>
<line x1="314.926" y1="44.4113" x2="493.286" y2="44.4113" stroke="#C5C5C5" stroke-dasharray="2 2"/>
<line y1="-0.5" x2="86.0725" y2="-0.5" transform="matrix(0.362982 0.931796 0.931796 -0.362982 283.683 128.704)" stroke="#C5C5C5" stroke-dasharray="2 2"/>
<line y1="-0.5" x2="85.8908" y2="-0.5" transform="matrix(-0.319154 0.947703 0.947703 0.319154 283.683 128.704)" stroke="#C5C5C5" stroke-dasharray="2 2"/>
<line y1="-0.5" x2="178.36" y2="-0.5" transform="matrix(1 0 0 -1 76.7142 208.906)" stroke="#C5C5C5" stroke-dasharray="2 2"/>
<line y1="-0.5" x2="178.36" y2="-0.5" transform="matrix(1 0 0 -1 314.926 208.906)" stroke="#C5C5C5" stroke-dasharray="2 2"/>
<circle r="13.1675" transform="matrix(-1 0 0 1 284.88 126.31)" fill="#393939"/>
<circle r="2.99261" transform="matrix(-1 0 0 1 262.735 63.4655)" fill="url(#paint15_linear)"/>
<circle r="2.99261" transform="matrix(-1 0 0 1 262.735 189.155)" fill="url(#paint16_linear)"/>
<circle r="2.99261" transform="matrix(-1 0 0 1 308.223 63.4655)" fill="url(#paint17_linear)"/>
<circle r="2.99261" transform="matrix(-1 0 0 1 351.316 125.712)" fill="url(#paint18_linear)"/>
<circle r="2.99261" transform="matrix(-1 0 0 1 307.026 187.958)" fill="url(#paint19_linear)"/>
<rect x="483.709" y="9" width="71.8227" height="77.8079" rx="5" fill="#EEEEEE"/>
<rect x="502.862" y="23.3645" width="33.5172" height="2.39409" rx="1.19704" fill="#C2C2C2"/>
<rect x="502.862" y="28.1527" width="19.1527" height="2.39409" rx="1.19704" fill="#C2C2C2"/>
<rect x="502.862" y="32.9409" width="46.6847" height="2.39409" rx="1.19704" fill="#C2C2C2"/>
<rect x="490.892" y="20.9705" width="4.78818" height="58.6552" rx="2.39409" fill="#C2C2C2"/>
<defs>
<linearGradient id="paint0_linear" x1="7.78079" y1="0" x2="7.78079" y2="15.5616" gradientUnits="userSpaceOnUse">
<stop stop-color="#FF5454"/>
<stop offset="1" stop-color="#BA4F4F" stop-opacity="0.74"/>
</linearGradient>
<linearGradient id="paint1_linear" x1="7.78079" y1="0" x2="7.78079" y2="15.5616" gradientUnits="userSpaceOnUse">
<stop stop-color="#FF5454"/>
<stop offset="1" stop-color="#BA4F4F" stop-opacity="0.74"/>
</linearGradient>
<linearGradient id="paint2_linear" x1="7.78079" y1="0" x2="7.78079" y2="15.5616" gradientUnits="userSpaceOnUse">
<stop stop-color="#FF5454"/>
<stop offset="1" stop-color="#BA4F4F" stop-opacity="0.74"/>
</linearGradient>
<linearGradient id="paint3_linear" x1="7.78079" y1="0" x2="7.78079" y2="15.5616" gradientUnits="userSpaceOnUse">
<stop stop-color="#FF5454"/>
<stop offset="1" stop-color="#BA4F4F" stop-opacity="0.74"/>
</linearGradient>
<linearGradient id="paint4_linear" x1="2.99261" y1="0" x2="2.99261" y2="5.98522" gradientUnits="userSpaceOnUse">
<stop stop-color="#FF5454"/>
<stop offset="1" stop-color="#BA4F4F" stop-opacity="0.74"/>
</linearGradient>
<linearGradient id="paint5_linear" x1="2.99261" y1="0" x2="2.99261" y2="5.98522" gradientUnits="userSpaceOnUse">
<stop stop-color="#FF5454"/>
<stop offset="1" stop-color="#BA4F4F" stop-opacity="0.74"/>
</linearGradient>
<linearGradient id="paint6_linear" x1="2.99261" y1="0" x2="2.99261" y2="5.98522" gradientUnits="userSpaceOnUse">
<stop stop-color="#FF5454"/>
<stop offset="1" stop-color="#BA4F4F" stop-opacity="0.74"/>
</linearGradient>
<linearGradient id="paint7_linear" x1="2.99261" y1="0" x2="2.99261" y2="5.98522" gradientUnits="userSpaceOnUse">
<stop stop-color="#FF5454"/>
<stop offset="1" stop-color="#BA4F4F" stop-opacity="0.74"/>
</linearGradient>
<linearGradient id="paint8_linear" x1="2.99261" y1="0" x2="2.99261" y2="5.98522" gradientUnits="userSpaceOnUse">
<stop stop-color="#FF5454"/>
<stop offset="1" stop-color="#BA4F4F" stop-opacity="0.74"/>
</linearGradient>
<linearGradient id="paint9_linear" x1="2.99261" y1="0" x2="2.99261" y2="5.98522" gradientUnits="userSpaceOnUse">
<stop stop-color="#FF5454"/>
<stop offset="1" stop-color="#BA4F4F" stop-opacity="0.74"/>
</linearGradient>
<linearGradient id="paint10_linear" x1="7.78079" y1="0" x2="7.78079" y2="15.5616" gradientUnits="userSpaceOnUse">
<stop stop-color="#FF5454"/>
<stop offset="1" stop-color="#BA4F4F" stop-opacity="0.74"/>
</linearGradient>
<linearGradient id="paint11_linear" x1="7.78079" y1="0" x2="7.78079" y2="15.5616" gradientUnits="userSpaceOnUse">
<stop stop-color="#FF5454"/>
<stop offset="1" stop-color="#BA4F4F" stop-opacity="0.74"/>
</linearGradient>
<linearGradient id="paint12_linear" x1="7.78079" y1="0" x2="7.78079" y2="15.5616" gradientUnits="userSpaceOnUse">
<stop stop-color="#FF5454"/>
<stop offset="1" stop-color="#BA4F4F" stop-opacity="0.74"/>
</linearGradient>
<linearGradient id="paint13_linear" x1="7.78079" y1="0" x2="7.78079" y2="15.5616" gradientUnits="userSpaceOnUse">
<stop stop-color="#FF5454"/>
<stop offset="1" stop-color="#BA4F4F" stop-opacity="0.74"/>
</linearGradient>
<linearGradient id="paint14_linear" x1="2.99261" y1="0" x2="2.99261" y2="5.98522" gradientUnits="userSpaceOnUse">
<stop stop-color="#FF5454"/>
<stop offset="1" stop-color="#BA4F4F" stop-opacity="0.74"/>
</linearGradient>
<linearGradient id="paint15_linear" x1="2.99261" y1="0" x2="2.99261" y2="5.98522" gradientUnits="userSpaceOnUse">
<stop stop-color="#FF5454"/>
<stop offset="1" stop-color="#BA4F4F" stop-opacity="0.74"/>
</linearGradient>
<linearGradient id="paint16_linear" x1="2.99261" y1="0" x2="2.99261" y2="5.98522" gradientUnits="userSpaceOnUse">
<stop stop-color="#FF5454"/>
<stop offset="1" stop-color="#BA4F4F" stop-opacity="0.74"/>
</linearGradient>
<linearGradient id="paint17_linear" x1="2.99261" y1="0" x2="2.99261" y2="5.98522" gradientUnits="userSpaceOnUse">
<stop stop-color="#FF5454"/>
<stop offset="1" stop-color="#BA4F4F" stop-opacity="0.74"/>
</linearGradient>
<linearGradient id="paint18_linear" x1="2.99261" y1="0" x2="2.99261" y2="5.98522" gradientUnits="userSpaceOnUse">
<stop stop-color="#FF5454"/>
<stop offset="1" stop-color="#BA4F4F" stop-opacity="0.74"/>
</linearGradient>
<linearGradient id="paint19_linear" x1="2.99261" y1="0" x2="2.99261" y2="5.98522" gradientUnits="userSpaceOnUse">
<stop stop-color="#FF5454"/>
<stop offset="1" stop-color="#BA4F4F" stop-opacity="0.74"/>
</linearGradient>
</defs>
</svg>
