<svg width="585" height="254" viewBox="0 0 585 254" fill="none" xmlns="http://www.w3.org/2000/svg">
<circle cx="135" cy="127" r="31.5" stroke="#DCDCDC" stroke-dasharray="2 2"/>
<circle r="31.5" transform="matrix(-1 0 0 1 449 127)" stroke="#DCDCDC" stroke-dasharray="2 2"/>
<g filter="url(#filter0_d)">
<rect x="234" y="63" width="116" height="127" rx="5" fill="#393939"/>
</g>
<rect x="243" y="73" width="32" height="4" rx="2" fill="#EEEEEE"/>
<rect x="243" y="80" width="18" height="5" rx="2.5" fill="#EEEEEE"/>
<rect x="243" y="89" width="43" height="3" rx="1.5" fill="#EEEEEE"/>
<rect x="243" y="112" width="43" height="25" rx="2" fill="#EEEEEE"/>
<rect x="243" y="144" width="43" height="26" rx="2" fill="#EEEEEE"/>
<rect x="295" y="112" width="44" height="25" rx="2" fill="#EEEEEE"/>
<rect x="295" y="144" width="44" height="26" rx="2" fill="#EEEEEE"/>
<path d="M156.81 124.66C156.894 125.282 156.951 125.913 156.979 126.55L156.479 126.573C156.493 126.88 156.5 127.189 156.5 127.5C156.5 127.811 156.493 128.12 156.479 128.427L156.979 128.45C156.951 129.087 156.894 129.718 156.81 130.34L156.314 130.273C156.231 130.89 156.12 131.498 155.984 132.096L156.471 132.207C156.329 132.827 156.16 133.437 155.965 134.036L155.49 133.881C155.297 134.47 155.079 135.048 154.836 135.614L155.296 135.811C155.046 136.394 154.77 136.964 154.47 137.52L154.03 137.282C153.736 137.827 153.418 138.357 153.078 138.872L153.495 139.148C153.146 139.676 152.774 140.189 152.38 140.684L151.989 140.372C151.604 140.856 151.198 141.323 150.772 141.772L151.135 142.116C150.7 142.574 150.244 143.014 149.77 143.434L149.439 143.06C148.976 143.47 148.496 143.859 147.999 144.229L148.297 144.63C147.79 145.007 147.266 145.362 146.726 145.695L146.463 145.269C145.939 145.593 145.399 145.895 144.844 146.174L145.069 146.621C144.507 146.905 143.93 147.165 143.34 147.401L143.154 146.937C142.582 147.166 141.998 147.372 141.403 147.553L141.549 148.031C140.947 148.214 140.335 148.373 139.712 148.506L139.608 148.017C139.007 148.145 138.397 148.248 137.779 148.326L137.841 148.822C137.219 148.901 136.588 148.954 135.95 148.98L135.929 148.481C135.621 148.494 135.311 148.5 135 148.5C134.689 148.5 134.379 148.494 134.071 148.481L134.05 148.98C133.412 148.954 132.781 148.901 132.159 148.822L132.221 148.326C131.603 148.248 130.993 148.145 130.392 148.017L130.288 148.506C129.665 148.373 129.053 148.214 128.451 148.031L128.597 147.553C128.002 147.372 127.418 147.166 126.846 146.937L126.66 147.401C126.07 147.165 125.493 146.905 124.931 146.621L125.156 146.174C124.601 145.895 124.061 145.593 123.537 145.269L123.274 145.695C122.734 145.362 122.21 145.007 121.703 144.63L122.001 144.229C121.504 143.859 121.024 143.469 120.561 143.06L120.23 143.434C119.756 143.014 119.3 142.574 118.865 142.116L119.228 141.772C118.802 141.323 118.396 140.856 118.011 140.372L117.62 140.684C117.226 140.189 116.854 139.676 116.505 139.148L116.922 138.872C116.582 138.357 116.264 137.827 115.97 137.282L115.53 137.52C115.23 136.964 114.954 136.394 114.704 135.811L115.164 135.614C114.921 135.048 114.703 134.47 114.51 133.881L114.035 134.036C113.84 133.437 113.671 132.827 113.529 132.207L114.016 132.096C113.88 131.498 113.769 130.89 113.686 130.273L113.19 130.34C113.106 129.718 113.049 129.087 113.021 128.45L113.521 128.427C113.507 128.12 113.5 127.811 113.5 127.5C113.5 127.189 113.507 126.88 113.521 126.573L113.021 126.55C113.049 125.913 113.106 125.282 113.19 124.66L113.686 124.727C113.769 124.11 113.88 123.502 114.016 122.904L113.529 122.793C113.671 122.173 113.84 121.563 114.035 120.964L114.51 121.119C114.703 120.53 114.921 119.952 115.164 119.386L114.704 119.189C114.954 118.606 115.23 118.036 115.53 117.48L115.97 117.718C116.264 117.173 116.582 116.643 116.922 116.128L116.505 115.852C116.854 115.324 117.226 114.811 117.62 114.316L118.011 114.628C118.396 114.144 118.802 113.677 119.228 113.228L118.865 112.884C119.3 112.426 119.756 111.986 120.23 111.566L120.561 111.94C121.024 111.53 121.504 111.141 122.001 110.771L121.703 110.37C122.21 109.993 122.734 109.638 123.274 109.305L123.537 109.731C124.061 109.407 124.601 109.105 125.156 108.826L124.931 108.379C125.493 108.095 126.07 107.835 126.66 107.599L126.846 108.063C127.418 107.834 128.002 107.628 128.597 107.447L128.451 106.969C129.053 106.786 129.665 106.627 130.288 106.494L130.392 106.983C130.993 106.855 131.603 106.752 132.221 106.674L132.159 106.178C132.781 106.099 133.412 106.046 134.05 106.02L134.071 106.519C134.379 106.506 134.689 106.5 135 106.5C135.311 106.5 135.621 106.506 135.929 106.519L135.95 106.02C136.588 106.046 137.219 106.099 137.841 106.178L137.779 106.674C138.397 106.752 139.007 106.855 139.608 106.983L139.712 106.494C140.335 106.627 140.947 106.786 141.549 106.969L141.403 107.447C141.998 107.628 142.582 107.834 143.154 108.063L143.34 107.599C143.93 107.835 144.507 108.095 145.069 108.379L144.844 108.826C145.399 109.105 145.939 109.407 146.463 109.731L146.726 109.305C147.266 109.638 147.79 109.993 148.297 110.37L147.999 110.771C148.496 111.141 148.976 111.531 149.439 111.94L149.77 111.566C150.244 111.986 150.7 112.426 151.135 112.884L150.772 113.228C151.198 113.677 151.604 114.144 151.989 114.628L152.38 114.316C152.774 114.811 153.146 115.324 153.495 115.852L153.078 116.128C153.418 116.643 153.736 117.173 154.03 117.718L154.47 117.48C154.77 118.036 155.046 118.606 155.296 119.189L154.836 119.386C155.079 119.952 155.297 120.53 155.49 121.119L155.965 120.964C156.16 121.563 156.329 122.173 156.471 122.793L155.984 122.904C156.12 123.502 156.231 124.11 156.314 124.727L156.81 124.66Z" stroke="#DCDCDC" stroke-dasharray="2 2"/>
<path d="M427.19 124.66C427.106 125.282 427.049 125.913 427.021 126.55L427.521 126.573C427.507 126.88 427.5 127.189 427.5 127.5C427.5 127.811 427.507 128.12 427.521 128.427L427.021 128.45C427.049 129.087 427.106 129.718 427.19 130.34L427.686 130.273C427.769 130.89 427.88 131.498 428.016 132.096L427.529 132.207C427.671 132.827 427.84 133.437 428.035 134.036L428.51 133.881C428.703 134.47 428.921 135.048 429.164 135.614L428.704 135.811C428.954 136.394 429.23 136.964 429.53 137.52L429.97 137.282C430.264 137.827 430.582 138.357 430.922 138.872L430.505 139.148C430.854 139.676 431.226 140.189 431.62 140.684L432.011 140.372C432.396 140.856 432.802 141.323 433.228 141.772L432.865 142.116C433.3 142.574 433.756 143.014 434.23 143.434L434.561 143.06C435.024 143.47 435.504 143.859 436.001 144.229L435.703 144.63C436.21 145.007 436.734 145.362 437.274 145.695L437.537 145.269C438.061 145.593 438.601 145.895 439.156 146.174L438.931 146.621C439.493 146.905 440.07 147.165 440.66 147.401L440.846 146.937C441.418 147.166 442.002 147.372 442.597 147.553L442.451 148.031C443.053 148.214 443.665 148.373 444.288 148.506L444.392 148.017C444.993 148.145 445.603 148.248 446.221 148.326L446.159 148.822C446.781 148.901 447.412 148.954 448.05 148.98L448.071 148.481C448.379 148.494 448.689 148.5 449 148.5C449.311 148.5 449.621 148.494 449.929 148.481L449.95 148.98C450.588 148.954 451.219 148.901 451.841 148.822L451.779 148.326C452.397 148.248 453.007 148.145 453.608 148.017L453.712 148.506C454.335 148.373 454.947 148.214 455.549 148.031L455.403 147.553C455.998 147.372 456.582 147.166 457.154 146.937L457.34 147.401C457.93 147.165 458.507 146.905 459.069 146.621L458.844 146.174C459.399 145.895 459.939 145.593 460.463 145.269L460.726 145.695C461.266 145.362 461.79 145.007 462.297 144.63L461.999 144.229C462.496 143.859 462.976 143.469 463.439 143.06L463.77 143.434C464.244 143.014 464.7 142.574 465.135 142.116L464.772 141.772C465.198 141.323 465.604 140.856 465.989 140.372L466.38 140.684C466.774 140.189 467.146 139.676 467.495 139.148L467.078 138.872C467.418 138.357 467.736 137.827 468.03 137.282L468.47 137.52C468.77 136.964 469.046 136.394 469.296 135.811L468.836 135.614C469.079 135.048 469.297 134.47 469.49 133.881L469.965 134.036C470.16 133.437 470.329 132.827 470.471 132.207L469.984 132.096C470.12 131.498 470.231 130.89 470.314 130.273L470.81 130.34C470.894 129.718 470.951 129.087 470.979 128.45L470.479 128.427C470.493 128.12 470.5 127.811 470.5 127.5C470.5 127.189 470.493 126.88 470.479 126.573L470.979 126.55C470.951 125.913 470.894 125.282 470.81 124.66L470.314 124.727C470.231 124.11 470.12 123.502 469.984 122.904L470.471 122.793C470.329 122.173 470.16 121.563 469.965 120.964L469.49 121.119C469.297 120.53 469.079 119.952 468.836 119.386L469.296 119.189C469.046 118.606 468.77 118.036 468.47 117.48L468.03 117.718C467.736 117.173 467.418 116.643 467.078 116.128L467.495 115.852C467.146 115.324 466.774 114.811 466.38 114.316L465.989 114.628C465.604 114.144 465.198 113.677 464.772 113.228L465.135 112.884C464.7 112.426 464.244 111.986 463.77 111.566L463.439 111.94C462.976 111.53 462.496 111.141 461.999 110.771L462.297 110.37C461.79 109.993 461.266 109.638 460.726 109.305L460.463 109.731C459.939 109.407 459.399 109.105 458.844 108.826L459.069 108.379C458.507 108.095 457.93 107.835 457.34 107.599L457.154 108.063C456.582 107.834 455.998 107.628 455.403 107.447L455.549 106.969C454.947 106.786 454.335 106.627 453.712 106.494L453.608 106.983C453.007 106.855 452.397 106.752 451.779 106.674L451.841 106.178C451.219 106.099 450.588 106.046 449.95 106.02L449.929 106.519C449.621 106.506 449.311 106.5 449 106.5C448.689 106.5 448.379 106.506 448.071 106.519L448.05 106.02C447.412 106.046 446.781 106.099 446.159 106.178L446.221 106.674C445.603 106.752 444.993 106.855 444.392 106.983L444.288 106.494C443.665 106.627 443.053 106.786 442.451 106.969L442.597 107.447C442.002 107.628 441.418 107.834 440.846 108.063L440.66 107.599C440.07 107.835 439.493 108.095 438.931 108.379L439.156 108.826C438.601 109.105 438.061 109.407 437.537 109.731L437.274 109.305C436.734 109.638 436.21 109.993 435.703 110.37L436.001 110.771C435.504 111.141 435.024 111.531 434.561 111.94L434.23 111.566C433.756 111.986 433.3 112.426 432.865 112.884L433.228 113.228C432.802 113.677 432.396 114.144 432.011 114.628L431.62 114.316C431.226 114.811 430.854 115.324 430.505 115.852L430.922 116.128C430.582 116.643 430.264 117.173 429.97 117.718L429.53 117.48C429.23 118.036 428.954 118.606 428.704 119.189L429.164 119.386C428.921 119.952 428.703 120.53 428.51 121.119L428.035 120.964C427.84 121.563 427.671 122.173 427.529 122.793L428.016 122.904C427.88 123.502 427.769 124.11 427.686 124.727L427.19 124.66Z" stroke="#DCDCDC" stroke-dasharray="2 2"/>
<circle cx="135" cy="127" r="31.5" stroke="#DCDCDC" stroke-dasharray="2 2"/>
<circle r="31.5" transform="matrix(-1 0 0 1 449 127)" stroke="#DCDCDC" stroke-dasharray="2 2"/>
<circle r="4" transform="matrix(-1 0 0 1 161 145)" fill="url(#paint0_linear)"/>
<circle cx="423" cy="145" r="4" fill="url(#paint1_linear)"/>
<circle r="3.5" transform="matrix(-1 0 0 1 161.5 109.5)" fill="url(#paint2_linear)"/>
<circle cx="422.5" cy="109.5" r="3.5" fill="url(#paint3_linear)"/>
<circle r="4" transform="matrix(-1 0 0 1 109 146)" fill="url(#paint4_linear)"/>
<circle cx="475" cy="146" r="4" fill="url(#paint5_linear)"/>
<circle r="4" transform="matrix(-1 0 0 1 109 110)" fill="url(#paint6_linear)"/>
<circle cx="475" cy="110" r="4" fill="url(#paint7_linear)"/>
<circle r="1.5" transform="matrix(-1 0 0 1 102.5 127.5)" fill="url(#paint8_linear)"/>
<circle cx="481.5" cy="127.5" r="1.5" fill="url(#paint9_linear)"/>
<circle r="6" transform="matrix(-1 0 0 1 135 127)" fill="#393939"/>
<circle cx="449" cy="127" r="6" fill="#393939"/>
<circle r="1.5" transform="matrix(-1 0 0 1 124.5 97.5)" fill="url(#paint10_linear)"/>
<circle cx="459.5" cy="97.5" r="1.5" fill="url(#paint11_linear)"/>
<circle r="1.5" transform="matrix(-1 0 0 1 124.5 157.5)" fill="url(#paint12_linear)"/>
<circle cx="459.5" cy="157.5" r="1.5" fill="url(#paint13_linear)"/>
<circle r="1.5" transform="matrix(-1 0 0 1 145.5 97.5)" fill="url(#paint14_linear)"/>
<circle cx="438.5" cy="97.5" r="1.5" fill="url(#paint15_linear)"/>
<circle r="1.5" transform="matrix(-1 0 0 1 145.5 156.5)" fill="url(#paint16_linear)"/>
<circle cx="438.5" cy="156.5" r="1.5" fill="url(#paint17_linear)"/>
<path d="M156.81 124.66C156.894 125.282 156.951 125.913 156.979 126.55L156.479 126.573C156.493 126.88 156.5 127.189 156.5 127.5C156.5 127.811 156.493 128.12 156.479 128.427L156.979 128.45C156.951 129.087 156.894 129.718 156.81 130.34L156.314 130.273C156.231 130.89 156.12 131.498 155.984 132.096L156.471 132.207C156.329 132.827 156.16 133.437 155.965 134.036L155.49 133.881C155.297 134.47 155.079 135.048 154.836 135.614L155.296 135.811C155.046 136.394 154.77 136.964 154.47 137.52L154.03 137.282C153.736 137.827 153.418 138.357 153.078 138.872L153.495 139.148C153.146 139.676 152.774 140.189 152.38 140.684L151.989 140.372C151.604 140.856 151.198 141.323 150.772 141.772L151.135 142.116C150.7 142.574 150.244 143.014 149.77 143.434L149.439 143.06C148.976 143.47 148.496 143.859 147.999 144.229L148.297 144.63C147.79 145.007 147.266 145.362 146.726 145.695L146.463 145.269C145.939 145.593 145.399 145.895 144.844 146.174L145.069 146.621C144.507 146.905 143.93 147.165 143.34 147.401L143.154 146.937C142.582 147.166 141.998 147.372 141.403 147.553L141.549 148.031C140.947 148.214 140.335 148.373 139.712 148.506L139.608 148.017C139.007 148.145 138.397 148.248 137.779 148.326L137.841 148.822C137.219 148.901 136.588 148.954 135.95 148.98L135.929 148.481C135.621 148.494 135.311 148.5 135 148.5C134.689 148.5 134.379 148.494 134.071 148.481L134.05 148.98C133.412 148.954 132.781 148.901 132.159 148.822L132.221 148.326C131.603 148.248 130.993 148.145 130.392 148.017L130.288 148.506C129.665 148.373 129.053 148.214 128.451 148.031L128.597 147.553C128.002 147.372 127.418 147.166 126.846 146.937L126.66 147.401C126.07 147.165 125.493 146.905 124.931 146.621L125.156 146.174C124.601 145.895 124.061 145.593 123.537 145.269L123.274 145.695C122.734 145.362 122.21 145.007 121.703 144.63L122.001 144.229C121.504 143.859 121.024 143.469 120.561 143.06L120.23 143.434C119.756 143.014 119.3 142.574 118.865 142.116L119.228 141.772C118.802 141.323 118.396 140.856 118.011 140.372L117.62 140.684C117.226 140.189 116.854 139.676 116.505 139.148L116.922 138.872C116.582 138.357 116.264 137.827 115.97 137.282L115.53 137.52C115.23 136.964 114.954 136.394 114.704 135.811L115.164 135.614C114.921 135.048 114.703 134.47 114.51 133.881L114.035 134.036C113.84 133.437 113.671 132.827 113.529 132.207L114.016 132.096C113.88 131.498 113.769 130.89 113.686 130.273L113.19 130.34C113.106 129.718 113.049 129.087 113.021 128.45L113.521 128.427C113.507 128.12 113.5 127.811 113.5 127.5C113.5 127.189 113.507 126.88 113.521 126.573L113.021 126.55C113.049 125.913 113.106 125.282 113.19 124.66L113.686 124.727C113.769 124.11 113.88 123.502 114.016 122.904L113.529 122.793C113.671 122.173 113.84 121.563 114.035 120.964L114.51 121.119C114.703 120.53 114.921 119.952 115.164 119.386L114.704 119.189C114.954 118.606 115.23 118.036 115.53 117.48L115.97 117.718C116.264 117.173 116.582 116.643 116.922 116.128L116.505 115.852C116.854 115.324 117.226 114.811 117.62 114.316L118.011 114.628C118.396 114.144 118.802 113.677 119.228 113.228L118.865 112.884C119.3 112.426 119.756 111.986 120.23 111.566L120.561 111.94C121.024 111.53 121.504 111.141 122.001 110.771L121.703 110.37C122.21 109.993 122.734 109.638 123.274 109.305L123.537 109.731C124.061 109.407 124.601 109.105 125.156 108.826L124.931 108.379C125.493 108.095 126.07 107.835 126.66 107.599L126.846 108.063C127.418 107.834 128.002 107.628 128.597 107.447L128.451 106.969C129.053 106.786 129.665 106.627 130.288 106.494L130.392 106.983C130.993 106.855 131.603 106.752 132.221 106.674L132.159 106.178C132.781 106.099 133.412 106.046 134.05 106.02L134.071 106.519C134.379 106.506 134.689 106.5 135 106.5C135.311 106.5 135.621 106.506 135.929 106.519L135.95 106.02C136.588 106.046 137.219 106.099 137.841 106.178L137.779 106.674C138.397 106.752 139.007 106.855 139.608 106.983L139.712 106.494C140.335 106.627 140.947 106.786 141.549 106.969L141.403 107.447C141.998 107.628 142.582 107.834 143.154 108.063L143.34 107.599C143.93 107.835 144.507 108.095 145.069 108.379L144.844 108.826C145.399 109.105 145.939 109.407 146.463 109.731L146.726 109.305C147.266 109.638 147.79 109.993 148.297 110.37L147.999 110.771C148.496 111.141 148.976 111.531 149.439 111.94L149.77 111.566C150.244 111.986 150.7 112.426 151.135 112.884L150.772 113.228C151.198 113.677 151.604 114.144 151.989 114.628L152.38 114.316C152.774 114.811 153.146 115.324 153.495 115.852L153.078 116.128C153.418 116.643 153.736 117.173 154.03 117.718L154.47 117.48C154.77 118.036 155.046 118.606 155.296 119.189L154.836 119.386C155.079 119.952 155.297 120.53 155.49 121.119L155.965 120.964C156.16 121.563 156.329 122.173 156.471 122.793L155.984 122.904C156.12 123.502 156.231 124.11 156.314 124.727L156.81 124.66Z" stroke="#DCDCDC" stroke-dasharray="2 2"/>
<path d="M427.19 124.66C427.106 125.282 427.049 125.913 427.021 126.55L427.521 126.573C427.507 126.88 427.5 127.189 427.5 127.5C427.5 127.811 427.507 128.12 427.521 128.427L427.021 128.45C427.049 129.087 427.106 129.718 427.19 130.34L427.686 130.273C427.769 130.89 427.88 131.498 428.016 132.096L427.529 132.207C427.671 132.827 427.84 133.437 428.035 134.036L428.51 133.881C428.703 134.47 428.921 135.048 429.164 135.614L428.704 135.811C428.954 136.394 429.23 136.964 429.53 137.52L429.97 137.282C430.264 137.827 430.582 138.357 430.922 138.872L430.505 139.148C430.854 139.676 431.226 140.189 431.62 140.684L432.011 140.372C432.396 140.856 432.802 141.323 433.228 141.772L432.865 142.116C433.3 142.574 433.756 143.014 434.23 143.434L434.561 143.06C435.024 143.47 435.504 143.859 436.001 144.229L435.703 144.63C436.21 145.007 436.734 145.362 437.274 145.695L437.537 145.269C438.061 145.593 438.601 145.895 439.156 146.174L438.931 146.621C439.493 146.905 440.07 147.165 440.66 147.401L440.846 146.937C441.418 147.166 442.002 147.372 442.597 147.553L442.451 148.031C443.053 148.214 443.665 148.373 444.288 148.506L444.392 148.017C444.993 148.145 445.603 148.248 446.221 148.326L446.159 148.822C446.781 148.901 447.412 148.954 448.05 148.98L448.071 148.481C448.379 148.494 448.689 148.5 449 148.5C449.311 148.5 449.621 148.494 449.929 148.481L449.95 148.98C450.588 148.954 451.219 148.901 451.841 148.822L451.779 148.326C452.397 148.248 453.007 148.145 453.608 148.017L453.712 148.506C454.335 148.373 454.947 148.214 455.549 148.031L455.403 147.553C455.998 147.372 456.582 147.166 457.154 146.937L457.34 147.401C457.93 147.165 458.507 146.905 459.069 146.621L458.844 146.174C459.399 145.895 459.939 145.593 460.463 145.269L460.726 145.695C461.266 145.362 461.79 145.007 462.297 144.63L461.999 144.229C462.496 143.859 462.976 143.469 463.439 143.06L463.77 143.434C464.244 143.014 464.7 142.574 465.135 142.116L464.772 141.772C465.198 141.323 465.604 140.856 465.989 140.372L466.38 140.684C466.774 140.189 467.146 139.676 467.495 139.148L467.078 138.872C467.418 138.357 467.736 137.827 468.03 137.282L468.47 137.52C468.77 136.964 469.046 136.394 469.296 135.811L468.836 135.614C469.079 135.048 469.297 134.47 469.49 133.881L469.965 134.036C470.16 133.437 470.329 132.827 470.471 132.207L469.984 132.096C470.12 131.498 470.231 130.89 470.314 130.273L470.81 130.34C470.894 129.718 470.951 129.087 470.979 128.45L470.479 128.427C470.493 128.12 470.5 127.811 470.5 127.5C470.5 127.189 470.493 126.88 470.479 126.573L470.979 126.55C470.951 125.913 470.894 125.282 470.81 124.66L470.314 124.727C470.231 124.11 470.12 123.502 469.984 122.904L470.471 122.793C470.329 122.173 470.16 121.563 469.965 120.964L469.49 121.119C469.297 120.53 469.079 119.952 468.836 119.386L469.296 119.189C469.046 118.606 468.77 118.036 468.47 117.48L468.03 117.718C467.736 117.173 467.418 116.643 467.078 116.128L467.495 115.852C467.146 115.324 466.774 114.811 466.38 114.316L465.989 114.628C465.604 114.144 465.198 113.677 464.772 113.228L465.135 112.884C464.7 112.426 464.244 111.986 463.77 111.566L463.439 111.94C462.976 111.53 462.496 111.141 461.999 110.771L462.297 110.37C461.79 109.993 461.266 109.638 460.726 109.305L460.463 109.731C459.939 109.407 459.399 109.105 458.844 108.826L459.069 108.379C458.507 108.095 457.93 107.835 457.34 107.599L457.154 108.063C456.582 107.834 455.998 107.628 455.403 107.447L455.549 106.969C454.947 106.786 454.335 106.627 453.712 106.494L453.608 106.983C453.007 106.855 452.397 106.752 451.779 106.674L451.841 106.178C451.219 106.099 450.588 106.046 449.95 106.02L449.929 106.519C449.621 106.506 449.311 106.5 449 106.5C448.689 106.5 448.379 106.506 448.071 106.519L448.05 106.02C447.412 106.046 446.781 106.099 446.159 106.178L446.221 106.674C445.603 106.752 444.993 106.855 444.392 106.983L444.288 106.494C443.665 106.627 443.053 106.786 442.451 106.969L442.597 107.447C442.002 107.628 441.418 107.834 440.846 108.063L440.66 107.599C440.07 107.835 439.493 108.095 438.931 108.379L439.156 108.826C438.601 109.105 438.061 109.407 437.537 109.731L437.274 109.305C436.734 109.638 436.21 109.993 435.703 110.37L436.001 110.771C435.504 111.141 435.024 111.531 434.561 111.94L434.23 111.566C433.756 111.986 433.3 112.426 432.865 112.884L433.228 113.228C432.802 113.677 432.396 114.144 432.011 114.628L431.62 114.316C431.226 114.811 430.854 115.324 430.505 115.852L430.922 116.128C430.582 116.643 430.264 117.173 429.97 117.718L429.53 117.48C429.23 118.036 428.954 118.606 428.704 119.189L429.164 119.386C428.921 119.952 428.703 120.53 428.51 121.119L428.035 120.964C427.84 121.563 427.671 122.173 427.529 122.793L428.016 122.904C427.88 123.502 427.769 124.11 427.686 124.727L427.19 124.66Z" stroke="#DCDCDC" stroke-dasharray="2 2"/>
<line x1="233" y1="127.5" x2="134" y2="127.5" stroke="#DCDCDC" stroke-dasharray="2 2"/>
<line y1="-0.5" x2="99" y2="-0.5" transform="matrix(1 0 0 -1 351 127)" stroke="#DCDCDC" stroke-dasharray="2 2"/>
<circle r="4" transform="matrix(-1 0 0 1 161 145)" fill="url(#paint18_linear)"/>
<circle cx="423" cy="145" r="4" fill="url(#paint19_linear)"/>
<circle r="3.5" transform="matrix(-1 0 0 1 161.5 109.5)" fill="url(#paint20_linear)"/>
<circle cx="422.5" cy="109.5" r="3.5" fill="url(#paint21_linear)"/>
<circle r="4" transform="matrix(-1 0 0 1 109 146)" fill="url(#paint22_linear)"/>
<circle cx="475" cy="146" r="4" fill="url(#paint23_linear)"/>
<circle r="1.5" transform="matrix(-1 0 0 1 102.5 127.5)" fill="url(#paint24_linear)"/>
<circle cx="481.5" cy="127.5" r="1.5" fill="url(#paint25_linear)"/>
<line x1="133.908" y1="126.465" x2="148.758" y2="88.3444" stroke="#DCDCDC" stroke-dasharray="2 2"/>
<line y1="-0.5" x2="40.911" y2="-0.5" transform="matrix(-0.362982 -0.931796 -0.931796 0.362982 449.626 126.647)" stroke="#DCDCDC" stroke-dasharray="2 2"/>
<line x1="149" y1="88.5" x2="234" y2="88.5" stroke="#DCDCDC" stroke-dasharray="2 2"/>
<line y1="-0.5" x2="85" y2="-0.5" transform="matrix(-1 0 0 1 435 89)" stroke="#DCDCDC" stroke-dasharray="2 2"/>
<line y1="-0.5" x2="40.911" y2="-0.5" transform="matrix(0.362982 0.931796 0.931796 -0.362982 134.374 128.354)" stroke="#DCDCDC" stroke-dasharray="2 2"/>
<line x1="450.092" y1="128.535" x2="435.242" y2="166.656" stroke="#DCDCDC" stroke-dasharray="2 2"/>
<line y1="-0.5" x2="85" y2="-0.5" transform="matrix(1 0 0 -1 149 166)" stroke="#DCDCDC" stroke-dasharray="2 2"/>
<line x1="435" y1="166.5" x2="350" y2="166.5" stroke="#DCDCDC" stroke-dasharray="2 2"/>
<circle r="6" transform="matrix(-1 0 0 1 135 127)" fill="#393939"/>
<circle cx="449" cy="127" r="6" fill="#393939"/>
<circle r="1.5" transform="matrix(-1 0 0 1 124.5 97.5)" fill="url(#paint26_linear)"/>
<circle cx="459.5" cy="97.5" r="1.5" fill="url(#paint27_linear)"/>
<circle r="1.5" transform="matrix(-1 0 0 1 124.5 157.5)" fill="url(#paint28_linear)"/>
<circle cx="459.5" cy="157.5" r="1.5" fill="url(#paint29_linear)"/>
<circle r="1.5" transform="matrix(-1 0 0 1 145.5 97.5)" fill="url(#paint30_linear)"/>
<circle cx="438.5" cy="97.5" r="1.5" fill="url(#paint31_linear)"/>
<circle r="1.5" transform="matrix(-1 0 0 1 145.5 156.5)" fill="url(#paint32_linear)"/>
<circle cx="438.5" cy="156.5" r="1.5" fill="url(#paint33_linear)"/>
<defs>
<filter id="filter0_d" x="218" y="51" width="148" height="159" filterUnits="userSpaceOnUse" color-interpolation-filters="sRGB">
<feFlood flood-opacity="0" result="BackgroundImageFix"/>
<feColorMatrix in="SourceAlpha" type="matrix" values="0 0 0 0 0 0 0 0 0 0 0 0 0 0 0 0 0 0 127 0"/>
<feOffset dy="4"/>
<feGaussianBlur stdDeviation="8"/>
<feColorMatrix type="matrix" values="0 0 0 0 0 0 0 0 0 0 0 0 0 0 0 0 0 0 0.06 0"/>
<feBlend mode="normal" in2="BackgroundImageFix" result="effect1_dropShadow"/>
<feBlend mode="normal" in="SourceGraphic" in2="effect1_dropShadow" result="shape"/>
</filter>
<linearGradient id="paint0_linear" x1="4" y1="0" x2="4" y2="8" gradientUnits="userSpaceOnUse">
<stop stop-color="#FF5454"/>
<stop offset="1" stop-color="#BA4F4F" stop-opacity="0.74"/>
</linearGradient>
<linearGradient id="paint1_linear" x1="423" y1="141" x2="423" y2="149" gradientUnits="userSpaceOnUse">
<stop stop-color="#FF5454"/>
<stop offset="1" stop-color="#BA4F4F" stop-opacity="0.74"/>
</linearGradient>
<linearGradient id="paint2_linear" x1="3.5" y1="0" x2="3.5" y2="7" gradientUnits="userSpaceOnUse">
<stop stop-color="#FF5454"/>
<stop offset="1" stop-color="#BA4F4F" stop-opacity="0.74"/>
</linearGradient>
<linearGradient id="paint3_linear" x1="422.5" y1="106" x2="422.5" y2="113" gradientUnits="userSpaceOnUse">
<stop stop-color="#FF5454"/>
<stop offset="1" stop-color="#BA4F4F" stop-opacity="0.74"/>
</linearGradient>
<linearGradient id="paint4_linear" x1="4" y1="0" x2="4" y2="8" gradientUnits="userSpaceOnUse">
<stop stop-color="#FF5454"/>
<stop offset="1" stop-color="#BA4F4F" stop-opacity="0.74"/>
</linearGradient>
<linearGradient id="paint5_linear" x1="475" y1="142" x2="475" y2="150" gradientUnits="userSpaceOnUse">
<stop stop-color="#FF5454"/>
<stop offset="1" stop-color="#BA4F4F" stop-opacity="0.74"/>
</linearGradient>
<linearGradient id="paint6_linear" x1="4" y1="0" x2="4" y2="8" gradientUnits="userSpaceOnUse">
<stop stop-color="#FF5454"/>
<stop offset="1" stop-color="#BA4F4F" stop-opacity="0.74"/>
</linearGradient>
<linearGradient id="paint7_linear" x1="475" y1="106" x2="475" y2="114" gradientUnits="userSpaceOnUse">
<stop stop-color="#FF5454"/>
<stop offset="1" stop-color="#BA4F4F" stop-opacity="0.74"/>
</linearGradient>
<linearGradient id="paint8_linear" x1="1.5" y1="0" x2="1.5" y2="3" gradientUnits="userSpaceOnUse">
<stop stop-color="#FF5454"/>
<stop offset="1" stop-color="#BA4F4F" stop-opacity="0.74"/>
</linearGradient>
<linearGradient id="paint9_linear" x1="481.5" y1="126" x2="481.5" y2="129" gradientUnits="userSpaceOnUse">
<stop stop-color="#FF5454"/>
<stop offset="1" stop-color="#BA4F4F" stop-opacity="0.74"/>
</linearGradient>
<linearGradient id="paint10_linear" x1="1.5" y1="0" x2="1.5" y2="3" gradientUnits="userSpaceOnUse">
<stop stop-color="#FF5454"/>
<stop offset="1" stop-color="#BA4F4F" stop-opacity="0.74"/>
</linearGradient>
<linearGradient id="paint11_linear" x1="459.5" y1="96" x2="459.5" y2="99" gradientUnits="userSpaceOnUse">
<stop stop-color="#FF5454"/>
<stop offset="1" stop-color="#BA4F4F" stop-opacity="0.74"/>
</linearGradient>
<linearGradient id="paint12_linear" x1="1.5" y1="0" x2="1.5" y2="3" gradientUnits="userSpaceOnUse">
<stop stop-color="#FF5454"/>
<stop offset="1" stop-color="#BA4F4F" stop-opacity="0.74"/>
</linearGradient>
<linearGradient id="paint13_linear" x1="459.5" y1="156" x2="459.5" y2="159" gradientUnits="userSpaceOnUse">
<stop stop-color="#FF5454"/>
<stop offset="1" stop-color="#BA4F4F" stop-opacity="0.74"/>
</linearGradient>
<linearGradient id="paint14_linear" x1="1.5" y1="0" x2="1.5" y2="3" gradientUnits="userSpaceOnUse">
<stop stop-color="#FF5454"/>
<stop offset="1" stop-color="#BA4F4F" stop-opacity="0.74"/>
</linearGradient>
<linearGradient id="paint15_linear" x1="438.5" y1="96" x2="438.5" y2="99" gradientUnits="userSpaceOnUse">
<stop stop-color="#FF5454"/>
<stop offset="1" stop-color="#BA4F4F" stop-opacity="0.74"/>
</linearGradient>
<linearGradient id="paint16_linear" x1="1.5" y1="0" x2="1.5" y2="3" gradientUnits="userSpaceOnUse">
<stop stop-color="#FF5454"/>
<stop offset="1" stop-color="#BA4F4F" stop-opacity="0.74"/>
</linearGradient>
<linearGradient id="paint17_linear" x1="438.5" y1="155" x2="438.5" y2="158" gradientUnits="userSpaceOnUse">
<stop stop-color="#FF5454"/>
<stop offset="1" stop-color="#BA4F4F" stop-opacity="0.74"/>
</linearGradient>
<linearGradient id="paint18_linear" x1="4" y1="0" x2="4" y2="8" gradientUnits="userSpaceOnUse">
<stop stop-color="#FF5454"/>
<stop offset="1" stop-color="#BA4F4F" stop-opacity="0.74"/>
</linearGradient>
<linearGradient id="paint19_linear" x1="423" y1="141" x2="423" y2="149" gradientUnits="userSpaceOnUse">
<stop stop-color="#FF5454"/>
<stop offset="1" stop-color="#BA4F4F" stop-opacity="0.74"/>
</linearGradient>
<linearGradient id="paint20_linear" x1="3.5" y1="0" x2="3.5" y2="7" gradientUnits="userSpaceOnUse">
<stop stop-color="#FF5454"/>
<stop offset="1" stop-color="#BA4F4F" stop-opacity="0.74"/>
</linearGradient>
<linearGradient id="paint21_linear" x1="422.5" y1="106" x2="422.5" y2="113" gradientUnits="userSpaceOnUse">
<stop stop-color="#FF5454"/>
<stop offset="1" stop-color="#BA4F4F" stop-opacity="0.74"/>
</linearGradient>
<linearGradient id="paint22_linear" x1="4" y1="0" x2="4" y2="8" gradientUnits="userSpaceOnUse">
<stop stop-color="#FF5454"/>
<stop offset="1" stop-color="#BA4F4F" stop-opacity="0.74"/>
</linearGradient>
<linearGradient id="paint23_linear" x1="475" y1="142" x2="475" y2="150" gradientUnits="userSpaceOnUse">
<stop stop-color="#FF5454"/>
<stop offset="1" stop-color="#BA4F4F" stop-opacity="0.74"/>
</linearGradient>
<linearGradient id="paint24_linear" x1="1.5" y1="0" x2="1.5" y2="3" gradientUnits="userSpaceOnUse">
<stop stop-color="#FF5454"/>
<stop offset="1" stop-color="#BA4F4F" stop-opacity="0.74"/>
</linearGradient>
<linearGradient id="paint25_linear" x1="481.5" y1="126" x2="481.5" y2="129" gradientUnits="userSpaceOnUse">
<stop stop-color="#FF5454"/>
<stop offset="1" stop-color="#BA4F4F" stop-opacity="0.74"/>
</linearGradient>
<linearGradient id="paint26_linear" x1="1.5" y1="0" x2="1.5" y2="3" gradientUnits="userSpaceOnUse">
<stop stop-color="#FF5454"/>
<stop offset="1" stop-color="#BA4F4F" stop-opacity="0.74"/>
</linearGradient>
<linearGradient id="paint27_linear" x1="459.5" y1="96" x2="459.5" y2="99" gradientUnits="userSpaceOnUse">
<stop stop-color="#FF5454"/>
<stop offset="1" stop-color="#BA4F4F" stop-opacity="0.74"/>
</linearGradient>
<linearGradient id="paint28_linear" x1="1.5" y1="0" x2="1.5" y2="3" gradientUnits="userSpaceOnUse">
<stop stop-color="#FF5454"/>
<stop offset="1" stop-color="#BA4F4F" stop-opacity="0.74"/>
</linearGradient>
<linearGradient id="paint29_linear" x1="459.5" y1="156" x2="459.5" y2="159" gradientUnits="userSpaceOnUse">
<stop stop-color="#FF5454"/>
<stop offset="1" stop-color="#BA4F4F" stop-opacity="0.74"/>
</linearGradient>
<linearGradient id="paint30_linear" x1="1.5" y1="0" x2="1.5" y2="3" gradientUnits="userSpaceOnUse">
<stop stop-color="#FF5454"/>
<stop offset="1" stop-color="#BA4F4F" stop-opacity="0.74"/>
</linearGradient>
<linearGradient id="paint31_linear" x1="438.5" y1="96" x2="438.5" y2="99" gradientUnits="userSpaceOnUse">
<stop stop-color="#FF5454"/>
<stop offset="1" stop-color="#BA4F4F" stop-opacity="0.74"/>
</linearGradient>
<linearGradient id="paint32_linear" x1="1.5" y1="0" x2="1.5" y2="3" gradientUnits="userSpaceOnUse">
<stop stop-color="#FF5454"/>
<stop offset="1" stop-color="#BA4F4F" stop-opacity="0.74"/>
</linearGradient>
<linearGradient id="paint33_linear" x1="438.5" y1="155" x2="438.5" y2="158" gradientUnits="userSpaceOnUse">
<stop stop-color="#FF5454"/>
<stop offset="1" stop-color="#BA4F4F" stop-opacity="0.74"/>
</linearGradient>
</defs>
</svg>
