<svg width="469" height="453" viewBox="0 0 469 453" fill="none" xmlns="http://www.w3.org/2000/svg">
<g clip-path="url(#clip0)">
<circle cx="433.126" cy="420.557" r="207.288" stroke="#C2C2C2" stroke-width="2" stroke-dasharray="8 8"/>
<circle cx="433.126" cy="420.557" r="389.734" stroke="#C2C2C2" stroke-width="2" stroke-dasharray="10 10"/>
<circle cx="302.399" cy="262.806" r="33.0044" fill="#ECECEC"/>
<g filter="url(#filter0_d)">
<circle cx="148.253" cy="154.295" r="63.2981" fill="url(#paint0_linear)"/>
</g>
<circle cx="354.521" cy="42.4001" r="39.1261" fill="#ECECEC"/>
<circle cx="45.18" cy="366.071" r="45.18" fill="#ECECEC"/>
<circle cx="425.61" cy="212.597" r="20.557" fill="#ECECEC"/>
<circle cx="228.27" cy="393.382" r="32.4743" fill="#ECECEC"/>
<rect x="24.4607" y="343.13" width="26.9074" height="1.92196" rx="0.960978" fill="#C2C2C2"/>
<rect x="24.4607" y="355.142" width="26.9074" height="1.92196" rx="0.960978" fill="#C2C2C2"/>
<rect x="24.4607" y="377.451" width="26.9074" height="1.92196" rx="0.960978" fill="#C2C2C2"/>
<rect x="24.4607" y="346.974" width="15.3756" height="1.92196" rx="0.960978" fill="#C2C2C2"/>
<rect x="24.4607" y="358.986" width="19.019" height="1.92196" rx="0.960978" fill="#C2C2C2"/>
<rect x="24.4607" y="381.295" width="45.3175" height="1.92196" rx="0.960978" fill="#C2C2C2"/>
<rect x="24.4607" y="350.817" width="37.4781" height="1.92196" rx="0.960978" fill="#C2C2C2"/>
<rect x="24.4607" y="362.83" width="37.4781" height="1.92196" rx="0.960978" fill="#C2C2C2"/>
<rect x="24.4607" y="385.139" width="37.4781" height="1.92196" rx="0.960978" fill="#C2C2C2"/>
<rect x="209.314" y="373.972" width="35.8337" height="38.8199" rx="3" fill="#ECECEC"/>
<rect x="212.684" y="380.518" width="16.7224" height="1.19446" rx="0.597228" fill="#C2C2C2"/>
<rect x="212.684" y="387.983" width="16.7224" height="1.19446" rx="0.597228" fill="#C2C2C2"/>
<rect x="212.684" y="401.847" width="16.7224" height="1.19446" rx="0.597228" fill="#C2C2C2"/>
<rect x="212.684" y="382.906" width="9.55566" height="1.19446" rx="0.597228" fill="#C2C2C2"/>
<rect x="212.684" y="390.372" width="11.8199" height="1.19446" rx="0.597228" fill="#C2C2C2"/>
<rect x="212.684" y="404.236" width="28.1639" height="1.19446" rx="0.597228" fill="#C2C2C2"/>
<rect x="212.684" y="385.295" width="23.2919" height="1.19446" rx="0.597228" fill="#C2C2C2"/>
<rect x="212.684" y="392.761" width="23.2919" height="1.19446" rx="0.597228" fill="#C2C2C2"/>
<rect x="212.684" y="406.625" width="23.2919" height="1.19446" rx="0.597228" fill="#C2C2C2"/>
<rect x="288.4" y="249.672" width="16.9954" height="1.21395" rx="0.606977" fill="#C2C2C2"/>
<rect x="288.399" y="257.259" width="16.9954" height="1.21395" rx="0.606977" fill="#C2C2C2"/>
<rect x="288.399" y="271.35" width="16.9954" height="1.21395" rx="0.606977" fill="#C2C2C2"/>
<rect x="288.399" y="252.099" width="9.71163" height="1.21395" rx="0.606977" fill="#C2C2C2"/>
<rect x="288.399" y="259.687" width="12.0129" height="1.21395" rx="0.606977" fill="#C2C2C2"/>
<rect x="288.399" y="273.777" width="28.6236" height="1.21395" rx="0.606977" fill="#C2C2C2"/>
<rect x="288.399" y="254.527" width="23.6721" height="1.21395" rx="0.606977" fill="#C2C2C2"/>
<rect x="288.399" y="262.115" width="23.6721" height="1.21395" rx="0.606977" fill="#C2C2C2"/>
<rect x="288.399" y="276.205" width="23.6721" height="1.21395" rx="0.606977" fill="#C2C2C2"/>
<rect x="418.238" y="204.091" width="10.5857" height="0.75612" rx="0.37806" fill="#C2C2C2"/>
<rect x="418.238" y="208.816" width="10.5857" height="0.75612" rx="0.37806" fill="#C2C2C2"/>
<rect x="418.238" y="217.593" width="10.5857" height="0.75612" rx="0.37806" fill="#C2C2C2"/>
<rect x="418.238" y="205.603" width="6.04896" height="0.75612" rx="0.37806" fill="#C2C2C2"/>
<rect x="418.238" y="210.329" width="7.4823" height="0.75612" rx="0.37806" fill="#C2C2C2"/>
<rect x="418.238" y="219.105" width="17.8284" height="0.75612" rx="0.37806" fill="#C2C2C2"/>
<rect x="418.238" y="207.115" width="14.7443" height="0.75612" rx="0.37806" fill="#C2C2C2"/>
<rect x="418.238" y="211.841" width="14.7443" height="0.75612" rx="0.37806" fill="#C2C2C2"/>
<rect x="418.238" y="220.617" width="14.7443" height="0.75612" rx="0.37806" fill="#C2C2C2"/>
<rect x="116.15" y="118.157" width="44.2686" height="3.16204" rx="1.58102" fill="white"/>
<rect x="116.15" y="137.92" width="44.2686" height="3.16204" rx="1.58102" fill="white"/>
<rect x="116.15" y="174.622" width="44.2686" height="3.16204" rx="1.58102" fill="white"/>
<rect x="116.15" y="124.481" width="25.2963" height="3.16204" rx="1.58102" fill="white"/>
<rect x="116.15" y="144.244" width="31.2904" height="3.16204" rx="1.58102" fill="white"/>
<rect x="116.15" y="180.947" width="74.5572" height="3.16204" rx="1.58102" fill="white"/>
<rect x="116.15" y="130.805" width="61.6598" height="3.16204" rx="1.58102" fill="white"/>
<rect x="116.15" y="150.568" width="61.6598" height="3.16204" rx="1.58102" fill="white"/>
<rect x="116.15" y="187.271" width="61.6598" height="3.16204" rx="1.58102" fill="white"/>
<rect x="337.972" y="22.6509" width="24.5768" height="1.75549" rx="0.877744" fill="#C2C2C2"/>
<rect x="337.971" y="33.6228" width="24.5768" height="1.75549" rx="0.877744" fill="#C2C2C2"/>
<rect x="337.971" y="53.9994" width="24.5768" height="1.75549" rx="0.877744" fill="#C2C2C2"/>
<rect x="337.971" y="26.1619" width="14.0439" height="1.75549" rx="0.877744" fill="#C2C2C2"/>
<rect x="337.971" y="37.1338" width="17.3717" height="1.75549" rx="0.877744" fill="#C2C2C2"/>
<rect x="337.971" y="57.5104" width="41.3923" height="1.75549" rx="0.877744" fill="#C2C2C2"/>
<rect x="337.971" y="29.6729" width="34.232" height="1.75549" rx="0.877744" fill="#C2C2C2"/>
<rect x="337.971" y="40.6448" width="34.232" height="1.75549" rx="0.877744" fill="#C2C2C2"/>
<rect x="337.971" y="61.0215" width="34.232" height="1.75549" rx="0.877744" fill="#C2C2C2"/>
</g>
<defs>
<filter id="filter0_d" x="66.9553" y="76.9967" width="162.596" height="162.596" filterUnits="userSpaceOnUse" color-interpolation-filters="sRGB">
<feFlood flood-opacity="0" result="BackgroundImageFix"/>
<feColorMatrix in="SourceAlpha" type="matrix" values="0 0 0 0 0 0 0 0 0 0 0 0 0 0 0 0 0 0 127 0"/>
<feOffset dy="4"/>
<feGaussianBlur stdDeviation="9"/>
<feColorMatrix type="matrix" values="0 0 0 0 0.921569 0 0 0 0 0.294118 0 0 0 0 0.294118 0 0 0 0.5 0"/>
<feBlend mode="normal" in2="BackgroundImageFix" result="effect1_dropShadow"/>
<feBlend mode="normal" in="SourceGraphic" in2="effect1_dropShadow" result="shape"/>
</filter>
<linearGradient id="paint0_linear" x1="148.253" y1="90.9967" x2="182.119" y2="231.58" gradientUnits="userSpaceOnUse">
<stop stop-color="#FB5353"/>
<stop offset="1" stop-color="#BD3131" stop-opacity="0.97"/>
</linearGradient>
<clipPath id="clip0">
<rect width="469" height="453" fill="white"/>
</clipPath>
</defs>
</svg>
