<svg width="392" height="210" viewBox="0 0 392 210" fill="none" xmlns="http://www.w3.org/2000/svg">
<rect width="392" height="210" fill="#F5F5F4"/>
<circle cx="195.99" cy="105" r="69.0292" stroke="#F1F1F1"/>
<rect x="180.802" y="89.8127" width="30.3744" height="30.3744" rx="15.1872" fill="white" stroke="#DCDCDC" stroke-width="2"/>
<rect x="157.847" y="66.8574" width="76.2849" height="76.2849" rx="38.1424" stroke="#DFDFDF" stroke-width="2"/>
<line x1="156.847" y1="103.739" x2="139.014" y2="103.739" stroke="#DCDCDC" stroke-width="2"/>
<line y1="-1" x2="17.8337" y2="-1" transform="matrix(1 8.74228e-08 8.74228e-08 -1 233.531 102.739)" stroke="#DCDCDC" stroke-width="2"/>
<rect width="18.2831" height="24.3599" rx="1.0379" transform="matrix(-1 0 0 1 147.095 91.5569)" fill="#393939"/>
<rect x="-0.0311371" y="0.0311371" width="13.3409" height="0.689794" rx="0.344897" transform="matrix(-1 0 0 1 144.529 112.403)" fill="white" stroke="#393939" stroke-width="0.0622742"/>
<rect x="-0.0311371" y="0.0311371" width="4.90727" height="0.689794" rx="0.344897" transform="matrix(-1 0 0 1 136.095 99.7566)" fill="white" stroke="#393939" stroke-width="0.0622742"/>
<rect x="-0.0311371" y="0.0311371" width="11.3654" height="0.706162" rx="0.353081" transform="matrix(-1 0 0 1 142.553 94.8955)" fill="white" stroke="#393939" stroke-width="0.0622742"/>
<rect x="-0.0311371" y="0.0311371" width="4.90726" height="0.706162" rx="0.353081" transform="matrix(-1 0 0 1 136.095 96.0886)" fill="white" stroke="#393939" stroke-width="0.0622742"/>
<rect x="-0.0311371" y="0.0311371" width="8.0164" height="0.706162" rx="0.353081" transform="matrix(-1 0 0 1 139.204 97.3386)" fill="white" stroke="#393939" stroke-width="0.0622742"/>
<rect x="-0.0311371" y="0.0311371" width="1.7184" height="0.706162" rx="0.353081" transform="matrix(-1 0 0 1 132.906 98.5637)" fill="white" stroke="#393939" stroke-width="0.0622742"/>
<rect x="244.763" y="91.5569" width="18.2831" height="24.3599" rx="1.0379" fill="#393939"/>
<rect x="247.298" y="112.434" width="13.3409" height="0.689794" rx="0.344897" fill="white" stroke="#393939" stroke-width="0.0622742"/>
<rect x="255.731" y="99.7877" width="4.90727" height="0.689794" rx="0.344897" fill="white" stroke="#393939" stroke-width="0.0622742"/>
<rect x="249.273" y="94.9266" width="11.3654" height="0.706162" rx="0.353081" fill="white" stroke="#393939" stroke-width="0.0622742"/>
<rect x="255.731" y="96.1198" width="4.90726" height="0.706162" rx="0.353081" fill="white" stroke="#393939" stroke-width="0.0622742"/>
<rect x="252.622" y="97.3698" width="8.0164" height="0.706162" rx="0.353081" fill="white" stroke="#393939" stroke-width="0.0622742"/>
<rect x="257.44" y="98.5949" width="1.7184" height="0.706162" rx="0.353081" fill="white" stroke="#393939" stroke-width="0.0622742"/>
<line y1="-1" x2="32.4842" y2="-1" transform="matrix(1 0 0 -1 137.767 153.712)" stroke="#DCDCDC" stroke-width="2"/>
<line y1="-1" x2="32.4842" y2="-1" transform="matrix(1 0 0 -1 137.811 54.8467)" stroke="#DCDCDC" stroke-width="2"/>
<line x1="254.062" y1="154.713" x2="221.578" y2="154.713" stroke="#DCDCDC" stroke-width="2"/>
<line x1="254.037" y1="55.8469" x2="221.553" y2="55.8469" stroke="#DCDCDC" stroke-width="2"/>
<line y1="-1" x2="21.1214" y2="-1" transform="matrix(-4.37114e-08 -1 -1 4.37114e-08 168.264 153.712)" stroke="#DCDCDC" stroke-width="2"/>
<line y1="-1" x2="21.1214" y2="-1" transform="matrix(-4.37114e-08 -1 -1 4.37114e-08 168.264 77.8198)" stroke="#DCDCDC" stroke-width="2"/>
<line x1="222.594" y1="153.712" x2="222.594" y2="132.591" stroke="#DCDCDC" stroke-width="2"/>
<line x1="222.594" y1="77.8198" x2="222.594" y2="56.6984" stroke="#DCDCDC" stroke-width="2"/>
<rect width="29.0851" height="38.7523" rx="1.0379" transform="matrix(-1 0 0 1 149.678 134.336)" fill="#393939"/>
<rect x="-0.0311371" y="0.0311371" width="21.2598" height="1.13413" rx="0.567066" transform="matrix(-1 0 0 1 145.633 167.499)" fill="white" stroke="#393939" stroke-width="0.0622742"/>
<rect x="-0.0311371" y="0.0311371" width="7.84338" height="1.13413" rx="0.567066" transform="matrix(-1 0 0 1 132.217 147.381)" fill="white" stroke="#393939" stroke-width="0.0622742"/>
<rect x="-0.0311371" y="0.0311371" width="18.117" height="1.16017" rx="0.580085" transform="matrix(-1 0 0 1 142.49 139.647)" fill="white" stroke="#393939" stroke-width="0.0622742"/>
<rect x="-0.0311371" y="0.0311371" width="7.84337" height="1.16017" rx="0.580085" transform="matrix(-1 0 0 1 132.217 141.546)" fill="white" stroke="#393939" stroke-width="0.0622742"/>
<rect x="-0.0311371" y="0.0311371" width="12.7894" height="1.16017" rx="0.580085" transform="matrix(-1 0 0 1 137.163 143.534)" fill="white" stroke="#393939" stroke-width="0.0622742"/>
<rect x="-0.0311371" y="0.0311371" width="2.77046" height="1.16017" rx="0.580085" transform="matrix(-1 0 0 1 127.144 145.483)" fill="white" stroke="#393939" stroke-width="0.0622742"/>
<rect width="29.0851" height="38.7523" rx="1.0379" transform="matrix(-1 0 0 1 149.722 35.4707)" fill="#393939"/>
<rect x="-0.0311371" y="0.0311371" width="21.2598" height="1.13413" rx="0.567066" transform="matrix(-1 0 0 1 145.677 68.6331)" fill="white" stroke="#393939" stroke-width="0.0622742"/>
<rect x="-0.0311371" y="0.0311371" width="7.84338" height="1.13413" rx="0.567066" transform="matrix(-1 0 0 1 132.261 48.5151)" fill="white" stroke="#393939" stroke-width="0.0622742"/>
<rect x="-0.0311371" y="0.0311371" width="18.117" height="1.16017" rx="0.580085" transform="matrix(-1 0 0 1 142.534 40.7817)" fill="white" stroke="#393939" stroke-width="0.0622742"/>
<rect x="-0.0311371" y="0.0311371" width="7.84337" height="1.16017" rx="0.580085" transform="matrix(-1 0 0 1 132.261 42.6799)" fill="white" stroke="#393939" stroke-width="0.0622742"/>
<rect x="-0.0311371" y="0.0311371" width="12.7894" height="1.16017" rx="0.580085" transform="matrix(-1 0 0 1 137.207 44.6685)" fill="white" stroke="#393939" stroke-width="0.0622742"/>
<rect x="-0.0311371" y="0.0311371" width="2.77046" height="1.16017" rx="0.580085" transform="matrix(-1 0 0 1 127.188 46.6172)" fill="white" stroke="#393939" stroke-width="0.0622742"/>
<rect x="242.151" y="134.336" width="29.0851" height="38.7523" rx="1.0379" fill="#393939"/>
<rect x="246.165" y="167.53" width="21.2598" height="1.13413" rx="0.567066" fill="white" stroke="#393939" stroke-width="0.0622742"/>
<rect x="259.581" y="147.412" width="7.84338" height="1.13413" rx="0.567066" fill="white" stroke="#393939" stroke-width="0.0622742"/>
<rect x="249.308" y="139.679" width="18.117" height="1.16017" rx="0.580085" fill="white" stroke="#393939" stroke-width="0.0622742"/>
<rect x="259.581" y="141.577" width="7.84337" height="1.16017" rx="0.580085" fill="white" stroke="#393939" stroke-width="0.0622742"/>
<rect x="254.635" y="143.566" width="12.7894" height="1.16017" rx="0.580085" fill="white" stroke="#393939" stroke-width="0.0622742"/>
<rect x="264.654" y="145.514" width="2.77046" height="1.16017" rx="0.580085" fill="white" stroke="#393939" stroke-width="0.0622742"/>
<rect x="242.126" y="35.4707" width="29.0851" height="38.7523" rx="1.0379" fill="#393939"/>
<rect x="248.181" y="63.3607" width="21.2598" height="1.13413" rx="0.567066" fill="white" stroke="#393939" stroke-width="0.0622742"/>
<rect x="259.557" y="48.5463" width="7.84338" height="1.13413" rx="0.567066" fill="white" stroke="#393939" stroke-width="0.0622742"/>
<rect x="249.283" y="40.8129" width="18.117" height="1.16017" rx="0.580085" fill="white" stroke="#393939" stroke-width="0.0622742"/>
<rect x="259.557" y="42.7113" width="7.84337" height="1.16017" rx="0.580085" fill="white" stroke="#393939" stroke-width="0.0622742"/>
<rect x="254.61" y="44.6998" width="12.7894" height="1.16017" rx="0.580085" fill="white" stroke="#393939" stroke-width="0.0622742"/>
<rect x="264.63" y="46.6483" width="2.77046" height="1.16017" rx="0.580085" fill="white" stroke="#393939" stroke-width="0.0622742"/>
</svg>
