<svg width="361" height="254" viewBox="0 0 361 254" fill="none" xmlns="http://www.w3.org/2000/svg">
<line x1="178.033" y1="127.239" x2="130.033" y2="75.2392" stroke="#E8E8E8"/>
<line x1="177.906" y1="126.979" x2="166.706" y2="56.5786" stroke="#E8E8E8"/>
<line x1="177.937" y1="126.71" x2="205.137" y2="60.3105" stroke="#E8E8E8"/>
<line x1="178.132" y1="126.478" x2="237.332" y2="88.878" stroke="#E8E8E8"/>
<line x1="178" y1="126.5" x2="252" y2="126.5" stroke="#E8E8E8"/>
<line x1="178.687" y1="126.491" x2="237.887" y2="168.091" stroke="#E8E8E8"/>
<line x1="178.867" y1="126.723" x2="205.267" y2="196.323" stroke="#E8E8E8"/>
<line x1="178.873" y1="127.063" x2="154.873" y2="196.663" stroke="#E8E8E8"/>
<line x1="178.687" y1="127.309" x2="119.487" y2="168.909" stroke="#E8E8E8"/>
<line x1="178.355" y1="127.398" x2="107.955" y2="120.998" stroke="#E8E8E8"/>
<circle cx="180" cy="127" r="27" fill="#393939"/>
<path d="M169.315 51.335V53H162.115V51.335H164.752V43.748C164.752 43.448 164.761 43.139 164.779 42.821L162.907 44.387C162.799 44.471 162.691 44.525 162.583 44.549C162.481 44.567 162.382 44.567 162.286 44.549C162.196 44.531 162.115 44.501 162.043 44.459C161.971 44.411 161.917 44.36 161.881 44.306L161.179 43.343L165.148 39.968H166.975V51.335H169.315Z" fill="#393939"/>
<path d="M128.315 73.335V75H121.115V73.335H123.752V65.748C123.752 65.448 123.761 65.139 123.779 64.821L121.907 66.387C121.799 66.471 121.691 66.525 121.583 66.549C121.481 66.567 121.382 66.567 121.286 66.549C121.196 66.531 121.115 66.501 121.043 66.459C120.971 66.411 120.917 66.36 120.881 66.306L120.179 65.343L124.148 61.968H125.975V73.335H128.315Z" fill="#393939"/>
<path d="M258.315 130.335V132H251.115V130.335H253.752V122.748C253.752 122.448 253.761 122.139 253.779 121.821L251.907 123.387C251.799 123.471 251.691 123.525 251.583 123.549C251.481 123.567 251.382 123.567 251.286 123.549C251.196 123.531 251.115 123.501 251.043 123.459C250.971 123.411 250.917 123.36 250.881 123.306L250.179 122.343L254.148 118.968H255.975V130.335H258.315Z" fill="#393939"/>
<path d="M247.315 173.335V175H240.115V173.335H242.752V165.748C242.752 165.448 242.761 165.139 242.779 164.821L240.907 166.387C240.799 166.471 240.691 166.525 240.583 166.549C240.481 166.567 240.382 166.567 240.286 166.549C240.196 166.531 240.115 166.501 240.043 166.459C239.971 166.411 239.917 166.36 239.881 166.306L239.179 165.343L243.148 161.968H244.975V173.335H247.315Z" fill="#393939"/>
<path d="M118.315 175.335V177H111.115V175.335H113.752V167.748C113.752 167.448 113.761 167.139 113.779 166.821L111.907 168.387C111.799 168.471 111.691 168.525 111.583 168.549C111.481 168.567 111.382 168.567 111.286 168.549C111.196 168.531 111.115 168.501 111.043 168.459C110.971 168.411 110.917 168.36 110.881 168.306L110.179 167.343L114.148 163.968H115.975V175.335H118.315Z" fill="#393939"/>
<path d="M214.99 50.493C214.99 51.627 214.867 52.614 214.621 53.454C214.381 54.288 214.045 54.978 213.613 55.524C213.187 56.07 212.68 56.478 212.092 56.748C211.51 57.012 210.88 57.144 210.202 57.144C209.524 57.144 208.894 57.012 208.312 56.748C207.736 56.478 207.235 56.07 206.809 55.524C206.383 54.978 206.05 54.288 205.81 53.454C205.57 52.614 205.45 51.627 205.45 50.493C205.45 49.353 205.57 48.366 205.81 47.532C206.05 46.698 206.383 46.008 206.809 45.462C207.235 44.916 207.736 44.511 208.312 44.247C208.894 43.977 209.524 43.842 210.202 43.842C210.88 43.842 211.51 43.977 212.092 44.247C212.68 44.511 213.187 44.916 213.613 45.462C214.045 46.008 214.381 46.698 214.621 47.532C214.867 48.366 214.99 49.353 214.99 50.493ZM212.695 50.493C212.695 49.551 212.626 48.771 212.488 48.153C212.35 47.535 212.164 47.043 211.93 46.677C211.702 46.311 211.438 46.056 211.138 45.912C210.838 45.762 210.526 45.687 210.202 45.687C209.884 45.687 209.575 45.762 209.275 45.912C208.981 46.056 208.72 46.311 208.492 46.677C208.264 47.043 208.081 47.535 207.943 48.153C207.811 48.771 207.745 49.551 207.745 50.493C207.745 51.435 207.811 52.215 207.943 52.833C208.081 53.451 208.264 53.943 208.492 54.309C208.72 54.675 208.981 54.933 209.275 55.083C209.575 55.227 209.884 55.299 210.202 55.299C210.526 55.299 210.838 55.227 211.138 55.083C211.438 54.933 211.702 54.675 211.93 54.309C212.164 53.943 212.35 53.451 212.488 52.833C212.626 52.215 212.695 51.435 212.695 50.493Z" fill="#B1B1B1"/>
<path d="M249.99 82.493C249.99 83.627 249.867 84.614 249.621 85.454C249.381 86.288 249.045 86.978 248.613 87.524C248.187 88.07 247.68 88.478 247.092 88.748C246.51 89.012 245.88 89.144 245.202 89.144C244.524 89.144 243.894 89.012 243.312 88.748C242.736 88.478 242.235 88.07 241.809 87.524C241.383 86.978 241.05 86.288 240.81 85.454C240.57 84.614 240.45 83.627 240.45 82.493C240.45 81.353 240.57 80.366 240.81 79.532C241.05 78.698 241.383 78.008 241.809 77.462C242.235 76.916 242.736 76.511 243.312 76.247C243.894 75.977 244.524 75.842 245.202 75.842C245.88 75.842 246.51 75.977 247.092 76.247C247.68 76.511 248.187 76.916 248.613 77.462C249.045 78.008 249.381 78.698 249.621 79.532C249.867 80.366 249.99 81.353 249.99 82.493ZM247.695 82.493C247.695 81.551 247.626 80.771 247.488 80.153C247.35 79.535 247.164 79.043 246.93 78.677C246.702 78.311 246.438 78.056 246.138 77.912C245.838 77.762 245.526 77.687 245.202 77.687C244.884 77.687 244.575 77.762 244.275 77.912C243.981 78.056 243.72 78.311 243.492 78.677C243.264 79.043 243.081 79.535 242.943 80.153C242.811 80.771 242.745 81.551 242.745 82.493C242.745 83.435 242.811 84.215 242.943 84.833C243.081 85.451 243.264 85.943 243.492 86.309C243.72 86.675 243.981 86.933 244.275 87.083C244.575 87.227 244.884 87.299 245.202 87.299C245.526 87.299 245.838 87.227 246.138 87.083C246.438 86.933 246.702 86.675 246.93 86.309C247.164 85.943 247.35 85.451 247.488 84.833C247.626 84.215 247.695 83.435 247.695 82.493Z" fill="#B1B1B1"/>
<path d="M214.99 203.493C214.99 204.627 214.867 205.614 214.621 206.454C214.381 207.288 214.045 207.978 213.613 208.524C213.187 209.07 212.68 209.478 212.092 209.748C211.51 210.012 210.88 210.144 210.202 210.144C209.524 210.144 208.894 210.012 208.312 209.748C207.736 209.478 207.235 209.07 206.809 208.524C206.383 207.978 206.05 207.288 205.81 206.454C205.57 205.614 205.45 204.627 205.45 203.493C205.45 202.353 205.57 201.366 205.81 200.532C206.05 199.698 206.383 199.008 206.809 198.462C207.235 197.916 207.736 197.511 208.312 197.247C208.894 196.977 209.524 196.842 210.202 196.842C210.88 196.842 211.51 196.977 212.092 197.247C212.68 197.511 213.187 197.916 213.613 198.462C214.045 199.008 214.381 199.698 214.621 200.532C214.867 201.366 214.99 202.353 214.99 203.493ZM212.695 203.493C212.695 202.551 212.626 201.771 212.488 201.153C212.35 200.535 212.164 200.043 211.93 199.677C211.702 199.311 211.438 199.056 211.138 198.912C210.838 198.762 210.526 198.687 210.202 198.687C209.884 198.687 209.575 198.762 209.275 198.912C208.981 199.056 208.72 199.311 208.492 199.677C208.264 200.043 208.081 200.535 207.943 201.153C207.811 201.771 207.745 202.551 207.745 203.493C207.745 204.435 207.811 205.215 207.943 205.833C208.081 206.451 208.264 206.943 208.492 207.309C208.72 207.675 208.981 207.933 209.275 208.083C209.575 208.227 209.884 208.299 210.202 208.299C210.526 208.299 210.838 208.227 211.138 208.083C211.438 207.933 211.702 207.675 211.93 207.309C212.164 206.943 212.35 206.451 212.488 205.833C212.626 205.215 212.695 204.435 212.695 203.493Z" fill="#B1B1B1"/>
<path d="M155.99 201.493C155.99 202.627 155.867 203.614 155.621 204.454C155.381 205.288 155.045 205.978 154.613 206.524C154.187 207.07 153.68 207.478 153.092 207.748C152.51 208.012 151.88 208.144 151.202 208.144C150.524 208.144 149.894 208.012 149.312 207.748C148.736 207.478 148.235 207.07 147.809 206.524C147.383 205.978 147.05 205.288 146.81 204.454C146.57 203.614 146.45 202.627 146.45 201.493C146.45 200.353 146.57 199.366 146.81 198.532C147.05 197.698 147.383 197.008 147.809 196.462C148.235 195.916 148.736 195.511 149.312 195.247C149.894 194.977 150.524 194.842 151.202 194.842C151.88 194.842 152.51 194.977 153.092 195.247C153.68 195.511 154.187 195.916 154.613 196.462C155.045 197.008 155.381 197.698 155.621 198.532C155.867 199.366 155.99 200.353 155.99 201.493ZM153.695 201.493C153.695 200.551 153.626 199.771 153.488 199.153C153.35 198.535 153.164 198.043 152.93 197.677C152.702 197.311 152.438 197.056 152.138 196.912C151.838 196.762 151.526 196.687 151.202 196.687C150.884 196.687 150.575 196.762 150.275 196.912C149.981 197.056 149.72 197.311 149.492 197.677C149.264 198.043 149.081 198.535 148.943 199.153C148.811 199.771 148.745 200.551 148.745 201.493C148.745 202.435 148.811 203.215 148.943 203.833C149.081 204.451 149.264 204.943 149.492 205.309C149.72 205.675 149.981 205.933 150.275 206.083C150.575 206.227 150.884 206.299 151.202 206.299C151.526 206.299 151.838 206.227 152.138 206.083C152.438 205.933 152.702 205.675 152.93 205.309C153.164 204.943 153.35 204.451 153.488 203.833C153.626 203.215 153.695 202.435 153.695 201.493Z" fill="#B1B1B1"/>
<path d="M107.99 120.493C107.99 121.627 107.867 122.614 107.621 123.454C107.381 124.288 107.045 124.978 106.613 125.524C106.187 126.07 105.68 126.478 105.092 126.748C104.51 127.012 103.88 127.144 103.202 127.144C102.524 127.144 101.894 127.012 101.312 126.748C100.736 126.478 100.235 126.07 99.809 125.524C99.383 124.978 99.05 124.288 98.81 123.454C98.57 122.614 98.45 121.627 98.45 120.493C98.45 119.353 98.57 118.366 98.81 117.532C99.05 116.698 99.383 116.008 99.809 115.462C100.235 114.916 100.736 114.511 101.312 114.247C101.894 113.977 102.524 113.842 103.202 113.842C103.88 113.842 104.51 113.977 105.092 114.247C105.68 114.511 106.187 114.916 106.613 115.462C107.045 116.008 107.381 116.698 107.621 117.532C107.867 118.366 107.99 119.353 107.99 120.493ZM105.695 120.493C105.695 119.551 105.626 118.771 105.488 118.153C105.35 117.535 105.164 117.043 104.93 116.677C104.702 116.311 104.438 116.056 104.138 115.912C103.838 115.762 103.526 115.687 103.202 115.687C102.884 115.687 102.575 115.762 102.275 115.912C101.981 116.056 101.72 116.311 101.492 116.677C101.264 117.043 101.081 117.535 100.943 118.153C100.811 118.771 100.745 119.551 100.745 120.493C100.745 121.435 100.811 122.215 100.943 122.833C101.081 123.451 101.264 123.943 101.492 124.309C101.72 124.675 101.981 124.933 102.275 125.083C102.575 125.227 102.884 125.299 103.202 125.299C103.526 125.299 103.838 125.227 104.138 125.083C104.438 124.933 104.702 124.675 104.93 124.309C105.164 123.943 105.35 123.451 105.488 122.833C105.626 122.215 105.695 121.435 105.695 120.493Z" fill="#B1B1B1"/>
</svg>
