<svg width="908" height="453" fill="none" xmlns="http://www.w3.org/2000/svg"><g clip-path="url(#prefix__clip0)"><circle cx="568.875" cy="222.828" r="40.865" transform="rotate(15.823 568.875 222.828)" fill="url(#prefix__paint0_linear)"/><circle cx="344.143" cy="319.051" r="40.385" transform="rotate(121.272 344.143 319.051)" fill="url(#prefix__paint1_linear)"/><circle cx="484.251" cy="312.712" r="45.926" transform="rotate(58.426 484.251 312.712)" fill="url(#prefix__paint2_linear)"/><circle cx="643.36" cy="372.913" r="59.629" transform="rotate(-70.326 643.36 372.913)" fill="url(#prefix__paint3_linear)"/><circle cx="723.419" cy="159.019" r="48.553" transform="rotate(-70.326 723.419 159.019)" fill="url(#prefix__paint4_linear)"/><ellipse cx="325.5" cy="426" rx="28.5" ry="28" fill="url(#prefix__paint5_linear)"/><circle cx="560" cy="323" r="11" fill="#101010"/><circle cx="560.022" cy="322.911" r="10.87" transform="rotate(-56.357 560.022 322.911)" fill="url(#prefix__paint6_linear)"/><circle cx="523.063" cy="401.901" r="10.87" transform="rotate(-24.638 523.063 401.901)" fill="url(#prefix__paint7_linear)"/><circle cx="414.443" cy="352.52" r="10.87" transform="rotate(-24.638 414.443 352.52)" fill="url(#prefix__paint8_linear)"/><circle cx="635.427" cy="176.258" r="10.87" transform="rotate(-24.638 635.427 176.258)" fill="url(#prefix__paint9_linear)"/><circle cx="749.319" cy="397.135" r="24.366" transform="rotate(-86.76 749.319 397.135)" fill="url(#prefix__paint10_linear)"/><circle cx="803.483" cy="170.683" r="10.87" transform="rotate(-86.76 803.483 170.683)" fill="url(#prefix__paint11_linear)"/><circle cx="827.503" cy="326.241" r="19.355" transform="rotate(-57.555 827.503 326.241)" fill="url(#prefix__paint12_linear)"/><circle cx="822.767" cy="392.607" r="19.355" transform="rotate(-69.993 822.767 392.607)" fill="url(#prefix__paint13_linear)"/><ellipse cx="679.769" cy="272.777" rx="31.569" ry="32.008" transform="rotate(-55.449 679.769 272.777)" fill="url(#prefix__paint14_linear)"/><circle cx="580.777" cy="118.977" r="32.008" transform="rotate(-5.997 580.777 118.977)" fill="url(#prefix__paint15_linear)"/><ellipse cx="429.5" cy="419" rx="31.5" ry="32" fill="url(#prefix__paint16_linear)"/><circle cx="755.185" cy="305.662" r="24.554" transform="rotate(-70.888 755.185 305.662)" fill="url(#prefix__paint17_linear)"/><circle cx="814.486" cy="231.67" r="32.654" transform="rotate(-70.888 814.486 231.67)" fill="url(#prefix__paint18_linear)"/><rect x="551.543" y="206.568" width="21.045" height="1.503" rx=".752" fill="#2B2B2B"/><rect x="551.542" y="215.963" width="21.045" height="1.503" rx=".752" fill="#2B2B2B"/><rect x="551.542" y="233.412" width="21.045" height="1.503" rx=".752" fill="#2B2B2B"/><rect x="551.542" y="209.574" width="12.026" height="1.503" rx=".752" fill="#2B2B2B"/><rect x="551.542" y="218.97" width="14.876" height="1.503" rx=".752" fill="#2B2B2B"/><rect x="551.542" y="236.419" width="35.445" height="1.503" rx=".752" fill="#2B2B2B"/><rect x="551.542" y="212.581" width="29.313" height="1.503" rx=".752" fill="#2B2B2B"/><rect x="551.542" y="221.977" width="29.313" height="1.503" rx=".752" fill="#2B2B2B"/><rect x="551.542" y="239.425" width="29.313" height="1.503" rx=".752" fill="#2B2B2B"/><rect x="622.767" y="353.593" width="25.004" height="1.786" rx=".893" fill="#2B2B2B"/><rect x="622.766" y="364.755" width="25.004" height="1.786" rx=".893" fill="#2B2B2B"/><rect x="622.766" y="385.486" width="25.004" height="1.786" rx=".893" fill="#2B2B2B"/><rect x="622.766" y="357.165" width="14.288" height="1.786" rx=".893" fill="#2B2B2B"/><rect x="622.766" y="368.327" width="17.674" height="1.786" rx=".893" fill="#2B2B2B"/><rect x="622.766" y="389.058" width="42.111" height="1.786" rx=".893" fill="#2B2B2B"/><rect x="622.766" y="360.737" width="34.827" height="1.786" rx=".893" fill="#2B2B2B"/><rect x="622.766" y="371.899" width="34.827" height="1.786" rx=".893" fill="#2B2B2B"/><rect x="622.766" y="392.63" width="34.827" height="1.786" rx=".893" fill="#2B2B2B"/><rect x="327.015" y="302.981" width="20.798" height="1.486" rx=".743" fill="#2B2B2B"/><rect x="327.014" y="312.266" width="20.798" height="1.486" rx=".743" fill="#2B2B2B"/><rect x="327.014" y="329.51" width="20.798" height="1.486" rx=".743" fill="#2B2B2B"/><rect x="327.014" y="305.952" width="11.884" height="1.486" rx=".743" fill="#2B2B2B"/><rect x="327.014" y="315.237" width="14.701" height="1.486" rx=".743" fill="#2B2B2B"/><rect x="327.014" y="332.481" width="35.028" height="1.486" rx=".743" fill="#2B2B2B"/><rect x="327.014" y="308.923" width="28.969" height="1.486" rx=".743" fill="#2B2B2B"/><rect x="327.014" y="318.208" width="28.969" height="1.486" rx=".743" fill="#2B2B2B"/><rect x="327.014" y="335.452" width="28.969" height="1.486" rx=".743" fill="#2B2B2B"/><rect x="702.826" y="139.698" width="25.004" height="1.786" rx=".893" fill="#2B2B2B"/><rect x="702.825" y="150.861" width="25.004" height="1.786" rx=".893" fill="#2B2B2B"/><rect x="702.825" y="171.592" width="25.004" height="1.786" rx=".893" fill="#2B2B2B"/><rect x="702.825" y="143.27" width="14.288" height="1.786" rx=".893" fill="#2B2B2B"/><rect x="702.825" y="154.433" width="17.674" height="1.786" rx=".893" fill="#2B2B2B"/><rect x="702.825" y="175.164" width="42.111" height="1.786" rx=".893" fill="#2B2B2B"/><rect x="702.825" y="146.842" width="34.827" height="1.786" rx=".893" fill="#2B2B2B"/><rect x="702.825" y="158.005" width="34.827" height="1.786" rx=".893" fill="#2B2B2B"/><rect x="702.825" y="178.736" width="34.827" height="1.786" rx=".893" fill="#2B2B2B"/><rect x="467.336" y="296.844" width="20.54" height="1.467" rx=".734" fill="#2B2B2B"/><rect x="467.336" y="306.013" width="20.54" height="1.467" rx=".734" fill="#2B2B2B"/><rect x="467.336" y="323.043" width="20.54" height="1.467" rx=".734" fill="#2B2B2B"/><rect x="467.336" y="299.778" width="11.737" height="1.467" rx=".734" fill="#2B2B2B"/><rect x="467.336" y="308.948" width="14.518" height="1.467" rx=".734" fill="#2B2B2B"/><rect x="467.336" y="325.977" width="34.594" height="1.467" rx=".734" fill="#2B2B2B"/><rect x="467.336" y="302.712" width="28.61" height="1.467" rx=".734" fill="#2B2B2B"/><rect x="467.336" y="311.882" width="28.61" height="1.467" rx=".734" fill="#2B2B2B"/><rect x="467.336" y="328.912" width="28.61" height="1.467" rx=".734" fill="#2B2B2B"/><rect x="518.453" y="397.575" width="5.598" height=".4" rx=".2" fill="#2B2B2B"/><rect x="518.453" y="400.074" width="5.598" height=".4" rx=".2" fill="#2B2B2B"/><rect x="518.453" y="404.715" width="5.598" height=".4" rx=".2" fill="#2B2B2B"/><rect x="518.453" y="398.375" width="3.199" height=".4" rx=".2" fill="#2B2B2B"/><rect x="518.453" y="400.874" width="3.957" height=".4" rx=".2" fill="#2B2B2B"/><rect x="518.453" y="405.515" width="9.428" height=".4" rx=".2" fill="#2B2B2B"/><rect x="518.453" y="399.175" width="7.797" height=".4" rx=".2" fill="#2B2B2B"/><rect x="518.453" y="401.674" width="7.797" height=".4" rx=".2" fill="#2B2B2B"/><rect x="518.453" y="406.315" width="7.797" height=".4" rx=".2" fill="#2B2B2B"/><rect x="313.706" y="414.374" width="14.555" height="1.04" rx=".52" fill="#2B2B2B"/><rect x="313.706" y="420.871" width="14.555" height="1.04" rx=".52" fill="#2B2B2B"/><rect x="313.706" y="432.938" width="14.555" height="1.04" rx=".52" fill="#2B2B2B"/><rect x="313.706" y="416.453" width="8.317" height="1.04" rx=".52" fill="#2B2B2B"/><rect x="313.706" y="422.95" width="10.288" height="1.04" rx=".52" fill="#2B2B2B"/><rect x="313.706" y="435.017" width="24.513" height="1.04" rx=".52" fill="#2B2B2B"/><rect x="313.706" y="418.532" width="20.272" height="1.04" rx=".52" fill="#2B2B2B"/><rect x="313.706" y="425.03" width="20.272" height="1.04" rx=".52" fill="#2B2B2B"/><rect x="313.706" y="437.097" width="20.272" height="1.04" rx=".52" fill="#2B2B2B"/><rect x="409.832" y="348.194" width="5.598" height=".4" rx=".2" fill="#2B2B2B"/><rect x="409.832" y="350.693" width="5.598" height=".4" rx=".2" fill="#2B2B2B"/><rect x="409.832" y="355.334" width="5.598" height=".4" rx=".2" fill="#2B2B2B"/><rect x="409.832" y="348.994" width="3.199" height=".4" rx=".2" fill="#2B2B2B"/><rect x="409.832" y="351.493" width="3.957" height=".4" rx=".2" fill="#2B2B2B"/><rect x="409.832" y="356.134" width="9.428" height=".4" rx=".2" fill="#2B2B2B"/><rect x="409.832" y="349.794" width="7.797" height=".4" rx=".2" fill="#2B2B2B"/><rect x="409.832" y="352.293" width="7.797" height=".4" rx=".2" fill="#2B2B2B"/><rect x="409.832" y="356.934" width="7.797" height=".4" rx=".2" fill="#2B2B2B"/><rect x="555.411" y="318.562" width="5.598" height=".4" rx=".2" fill="#2B2B2B"/><rect x="555.411" y="321.062" width="5.598" height=".4" rx=".2" fill="#2B2B2B"/><rect x="555.411" y="325.703" width="5.598" height=".4" rx=".2" fill="#2B2B2B"/><rect x="555.411" y="319.362" width="3.199" height=".4" rx=".2" fill="#2B2B2B"/><rect x="555.411" y="321.861" width="3.957" height=".4" rx=".2" fill="#2B2B2B"/><rect x="555.411" y="326.502" width="9.428" height=".4" rx=".2" fill="#2B2B2B"/><rect x="555.411" y="320.162" width="7.797" height=".4" rx=".2" fill="#2B2B2B"/><rect x="555.411" y="322.661" width="7.797" height=".4" rx=".2" fill="#2B2B2B"/><rect x="555.411" y="327.302" width="7.797" height=".4" rx=".2" fill="#2B2B2B"/><rect x="630.817" y="171.933" width="5.598" height=".4" rx=".2" fill="#2B2B2B"/><rect x="630.817" y="174.432" width="5.598" height=".4" rx=".2" fill="#2B2B2B"/><rect x="630.817" y="179.073" width="5.598" height=".4" rx=".2" fill="#2B2B2B"/><rect x="630.817" y="172.733" width="3.199" height=".4" rx=".2" fill="#2B2B2B"/><rect x="630.817" y="175.232" width="3.957" height=".4" rx=".2" fill="#2B2B2B"/><rect x="630.817" y="179.873" width="9.428" height=".4" rx=".2" fill="#2B2B2B"/><rect x="630.817" y="173.532" width="7.797" height=".4" rx=".2" fill="#2B2B2B"/><rect x="630.817" y="176.031" width="7.797" height=".4" rx=".2" fill="#2B2B2B"/><rect x="630.817" y="180.673" width="7.797" height=".4" rx=".2" fill="#2B2B2B"/><rect x="738.985" y="387.439" width="12.548" height=".896" rx=".448" fill="#2B2B2B"/><rect x="738.985" y="393.041" width="12.548" height=".896" rx=".448" fill="#2B2B2B"/><rect x="738.985" y="403.444" width="12.548" height=".896" rx=".448" fill="#2B2B2B"/><rect x="738.985" y="389.232" width="7.17" height=".896" rx=".448" fill="#2B2B2B"/><rect x="738.985" y="394.833" width="8.869" height=".896" rx=".448" fill="#2B2B2B"/><rect x="738.985" y="405.237" width="21.133" height=".896" rx=".448" fill="#2B2B2B"/><rect x="738.985" y="391.025" width="17.477" height=".896" rx=".448" fill="#2B2B2B"/><rect x="738.985" y="396.626" width="17.477" height=".896" rx=".448" fill="#2B2B2B"/><rect x="738.985" y="407.03" width="17.477" height=".896" rx=".448" fill="#2B2B2B"/><rect x="798.872" y="166.357" width="5.598" height=".4" rx=".2" fill="#2B2B2B"/><rect x="798.872" y="168.856" width="5.598" height=".4" rx=".2" fill="#2B2B2B"/><rect x="798.872" y="173.498" width="5.598" height=".4" rx=".2" fill="#2B2B2B"/><rect x="798.872" y="167.157" width="3.199" height=".4" rx=".2" fill="#2B2B2B"/><rect x="798.872" y="169.656" width="3.957" height=".4" rx=".2" fill="#2B2B2B"/><rect x="798.872" y="174.297" width="9.428" height=".4" rx=".2" fill="#2B2B2B"/><rect x="798.872" y="167.957" width="7.797" height=".4" rx=".2" fill="#2B2B2B"/><rect x="798.872" y="170.456" width="7.797" height=".4" rx=".2" fill="#2B2B2B"/><rect x="798.872" y="175.097" width="7.797" height=".4" rx=".2" fill="#2B2B2B"/><rect x="666.354" y="260.062" width="16.42" height="1.173" rx=".586" fill="#2B2B2B"/><rect x="666.354" y="267.392" width="16.42" height="1.173" rx=".586" fill="#2B2B2B"/><rect x="666.354" y="281.006" width="16.42" height="1.173" rx=".586" fill="#2B2B2B"/><rect x="666.354" y="262.407" width="9.383" height="1.173" rx=".586" fill="#2B2B2B"/><rect x="666.354" y="269.738" width="11.607" height="1.173" rx=".586" fill="#2B2B2B"/><rect x="666.354" y="283.352" width="27.655" height="1.173" rx=".586" fill="#2B2B2B"/><rect x="666.354" y="264.753" width="22.871" height="1.173" rx=".586" fill="#2B2B2B"/><rect x="666.354" y="272.083" width="22.871" height="1.173" rx=".586" fill="#2B2B2B"/><rect x="666.354" y="285.698" width="22.871" height="1.173" rx=".586" fill="#2B2B2B"/><rect x="567.197" y="106.182" width="16.42" height="1.173" rx=".586" fill="#2B2B2B"/><rect x="567.197" y="113.513" width="16.42" height="1.173" rx=".586" fill="#2B2B2B"/><rect x="567.197" y="127.127" width="16.42" height="1.173" rx=".586" fill="#2B2B2B"/><rect x="567.197" y="108.528" width="9.383" height="1.173" rx=".586" fill="#2B2B2B"/><rect x="567.197" y="115.859" width="11.607" height="1.173" rx=".586" fill="#2B2B2B"/><rect x="567.197" y="129.473" width="27.655" height="1.173" rx=".586" fill="#2B2B2B"/><rect x="567.197" y="110.874" width="22.871" height="1.173" rx=".586" fill="#2B2B2B"/><rect x="567.197" y="118.204" width="22.871" height="1.173" rx=".586" fill="#2B2B2B"/><rect x="567.197" y="131.819" width="22.871" height="1.173" rx=".586" fill="#2B2B2B"/><rect x="819.293" y="318.54" width="9.967" height=".712" rx=".356" fill="#2B2B2B"/><rect x="819.293" y="322.989" width="9.967" height=".712" rx=".356" fill="#2B2B2B"/><rect x="819.293" y="331.253" width="9.967" height=".712" rx=".356" fill="#2B2B2B"/><rect x="819.293" y="319.963" width="5.696" height=".712" rx=".356" fill="#2B2B2B"/><rect x="819.293" y="324.413" width="7.045" height=".712" rx=".356" fill="#2B2B2B"/><rect x="819.293" y="332.677" width="16.787" height=".712" rx=".356" fill="#2B2B2B"/><rect x="819.293" y="321.387" width="13.883" height=".712" rx=".356" fill="#2B2B2B"/><rect x="819.293" y="325.837" width="13.883" height=".712" rx=".356" fill="#2B2B2B"/><rect x="819.293" y="334.101" width="13.883" height=".712" rx=".356" fill="#2B2B2B"/><rect x="416.303" y="406.642" width="16.42" height="1.173" rx=".586" fill="#2B2B2B"/><rect x="416.303" y="413.972" width="16.42" height="1.173" rx=".586" fill="#2B2B2B"/><rect x="416.303" y="427.586" width="16.42" height="1.173" rx=".586" fill="#2B2B2B"/><rect x="416.303" y="408.987" width="9.383" height="1.173" rx=".586" fill="#2B2B2B"/><rect x="416.303" y="416.318" width="11.607" height="1.173" rx=".586" fill="#2B2B2B"/><rect x="416.303" y="429.932" width="27.655" height="1.173" rx=".586" fill="#2B2B2B"/><rect x="416.303" y="411.333" width="22.871" height="1.173" rx=".586" fill="#2B2B2B"/><rect x="416.303" y="418.664" width="22.871" height="1.173" rx=".586" fill="#2B2B2B"/><rect x="416.303" y="432.278" width="22.871" height="1.173" rx=".586" fill="#2B2B2B"/><rect x="744.794" y="295.714" width="12.688" height=".906" rx=".453" fill="#2B2B2B"/><rect x="744.794" y="301.379" width="12.688" height=".906" rx=".453" fill="#2B2B2B"/><rect x="744.794" y="311.899" width="12.688" height=".906" rx=".453" fill="#2B2B2B"/><rect x="744.794" y="297.527" width="7.251" height=".906" rx=".453" fill="#2B2B2B"/><rect x="744.794" y="303.191" width="8.969" height=".906" rx=".453" fill="#2B2B2B"/><rect x="744.794" y="313.711" width="21.37" height=".906" rx=".453" fill="#2B2B2B"/><rect x="744.794" y="299.339" width="17.673" height=".906" rx=".453" fill="#2B2B2B"/><rect x="744.794" y="305.004" width="17.673" height=".906" rx=".453" fill="#2B2B2B"/><rect x="744.794" y="315.524" width="17.673" height=".906" rx=".453" fill="#2B2B2B"/><rect x="814.558" y="384.906" width="9.967" height=".712" rx=".356" fill="#2B2B2B"/><rect x="814.558" y="389.355" width="9.967" height=".712" rx=".356" fill="#2B2B2B"/><rect x="814.558" y="397.619" width="9.967" height=".712" rx=".356" fill="#2B2B2B"/><rect x="814.558" y="386.329" width="5.696" height=".712" rx=".356" fill="#2B2B2B"/><rect x="814.558" y="390.779" width="7.045" height=".712" rx=".356" fill="#2B2B2B"/><rect x="814.558" y="399.043" width="16.787" height=".712" rx=".356" fill="#2B2B2B"/><rect x="814.558" y="387.753" width="13.883" height=".712" rx=".356" fill="#2B2B2B"/><rect x="814.558" y="392.203" width="13.883" height=".712" rx=".356" fill="#2B2B2B"/><rect x="814.558" y="400.467" width="13.883" height=".712" rx=".356" fill="#2B2B2B"/><rect x="800.667" y="218.442" width="16.874" height="1.205" rx=".603" fill="#2B2B2B"/><rect x="800.667" y="225.975" width="16.874" height="1.205" rx=".603" fill="#2B2B2B"/><rect x="800.667" y="239.965" width="16.874" height="1.205" rx=".603" fill="#2B2B2B"/><rect x="800.667" y="220.852" width="9.642" height="1.205" rx=".603" fill="#2B2B2B"/><rect x="800.667" y="228.385" width="11.927" height="1.205" rx=".603" fill="#2B2B2B"/><rect x="800.667" y="242.376" width="28.419" height="1.205" rx=".603" fill="#2B2B2B"/><rect x="800.667" y="223.263" width="23.503" height="1.205" rx=".603" fill="#2B2B2B"/><rect x="800.667" y="230.796" width="23.503" height="1.205" rx=".603" fill="#2B2B2B"/><rect x="800.667" y="244.786" width="23.503" height="1.205" rx=".603" fill="#2B2B2B"/><circle cx="614" cy="403" r="341" stroke="url(#prefix__paint19_linear)" stroke-width="2"/><g filter="url(#prefix__filter0_d)"><circle cx="386" cy="159" r="70" fill="url(#prefix__paint20_linear)"/></g><rect x="353.714" y="123.831" width="41.687" height="2.978" rx="1.489" fill="#fff"/><rect x="353.714" y="142.441" width="41.687" height="2.978" rx="1.489" fill="#fff"/><rect x="353.714" y="177.003" width="41.687" height="2.978" rx="1.489" fill="#fff"/><rect x="353.714" y="129.786" width="23.821" height="2.978" rx="1.489" fill="#fff"/><rect x="353.714" y="148.396" width="29.466" height="2.978" rx="1.489" fill="#fff"/><rect x="353.714" y="182.958" width="70.209" height="2.978" rx="1.489" fill="#fff"/><rect x="353.714" y="135.74" width="58.064" height="2.978" rx="1.489" fill="#fff"/><rect x="353.714" y="154.352" width="58.064" height="2.978" rx="1.489" fill="#fff"/><rect x="353.714" y="188.914" width="58.064" height="2.978" rx="1.489" fill="#fff"/></g><defs><linearGradient id="prefix__paint0_linear" x1="511.539" y1="222.042" x2="608.631" y2="227.689" gradientUnits="userSpaceOnUse"><stop stop-color="#E24646"/><stop offset=".484" stop-opacity=".29"/><stop offset="1" stop-opacity=".49"/></linearGradient><linearGradient id="prefix__paint1_linear" x1="287.481" y1="318.273" x2="383.432" y2="323.854" gradientUnits="userSpaceOnUse"><stop stop-color="#E24646"/><stop offset=".484" stop-opacity=".29"/><stop offset="1" stop-opacity=".49"/></linearGradient><linearGradient id="prefix__paint2_linear" x1="419.814" y1="311.828" x2="528.931" y2="318.175" gradientUnits="userSpaceOnUse"><stop stop-color="#E24646"/><stop offset=".484" stop-opacity=".29"/><stop offset="1" stop-opacity=".49"/></linearGradient><linearGradient id="prefix__paint3_linear" x1="643.36" y1="313.284" x2="643.36" y2="432.543" gradientUnits="userSpaceOnUse"><stop/><stop offset="1" stop-opacity="0"/></linearGradient><linearGradient id="prefix__paint4_linear" x1="723.419" y1="110.466" x2="723.419" y2="207.572" gradientUnits="userSpaceOnUse"><stop/><stop offset="1" stop-opacity="0"/></linearGradient><linearGradient id="prefix__paint5_linear" x1="325.5" y1="398" x2="325.5" y2="454" gradientUnits="userSpaceOnUse"><stop/><stop offset="1" stop-opacity="0"/></linearGradient><linearGradient id="prefix__paint6_linear" x1="560.022" y1="312.04" x2="560.022" y2="333.781" gradientUnits="userSpaceOnUse"><stop/><stop offset="1" stop-opacity="0"/></linearGradient><linearGradient id="prefix__paint7_linear" x1="523.063" y1="391.03" x2="523.063" y2="412.771" gradientUnits="userSpaceOnUse"><stop/><stop offset="1" stop-opacity="0"/></linearGradient><linearGradient id="prefix__paint8_linear" x1="414.443" y1="341.65" x2="414.443" y2="363.39" gradientUnits="userSpaceOnUse"><stop/><stop offset="1" stop-opacity="0"/></linearGradient><linearGradient id="prefix__paint9_linear" x1="635.427" y1="165.388" x2="635.427" y2="187.129" gradientUnits="userSpaceOnUse"><stop/><stop offset="1" stop-opacity="0"/></linearGradient><linearGradient id="prefix__paint10_linear" x1="749.319" y1="372.769" x2="749.319" y2="421.5" gradientUnits="userSpaceOnUse"><stop/><stop offset="1" stop-opacity="0"/></linearGradient><linearGradient id="prefix__paint11_linear" x1="803.483" y1="159.812" x2="803.483" y2="181.553" gradientUnits="userSpaceOnUse"><stop/><stop offset="1" stop-opacity="0"/></linearGradient><linearGradient id="prefix__paint12_linear" x1="827.503" y1="306.886" x2="827.503" y2="345.596" gradientUnits="userSpaceOnUse"><stop/><stop offset="1" stop-opacity="0"/></linearGradient><linearGradient id="prefix__paint13_linear" x1="822.767" y1="373.252" x2="822.767" y2="411.962" gradientUnits="userSpaceOnUse"><stop/><stop offset="1" stop-opacity="0"/></linearGradient><linearGradient id="prefix__paint14_linear" x1="679.769" y1="240.769" x2="679.769" y2="304.785" gradientUnits="userSpaceOnUse"><stop/><stop offset="1" stop-opacity="0"/></linearGradient><linearGradient id="prefix__paint15_linear" x1="535.868" y1="118.36" x2="611.916" y2="122.783" gradientUnits="userSpaceOnUse"><stop stop-color="#E24646"/><stop offset=".484" stop-opacity=".29"/><stop offset="1" stop-opacity=".49"/></linearGradient><linearGradient id="prefix__paint16_linear" x1="429.5" y1="387" x2="429.5" y2="451" gradientUnits="userSpaceOnUse"><stop/><stop offset="1" stop-opacity="0"/></linearGradient><linearGradient id="prefix__paint17_linear" x1="755.185" y1="281.108" x2="755.185" y2="330.215" gradientUnits="userSpaceOnUse"><stop/><stop offset="1" stop-opacity="0"/></linearGradient><linearGradient id="prefix__paint18_linear" x1="814.486" y1="199.017" x2="814.486" y2="264.324" gradientUnits="userSpaceOnUse"><stop/><stop offset="1" stop-opacity="0"/></linearGradient><linearGradient id="prefix__paint19_linear" x1="860.415" y1="164.915" x2="272" y2="448.162" gradientUnits="userSpaceOnUse"><stop/><stop offset=".865" stop-color="#D82323"/><stop offset="1"/></linearGradient><linearGradient id="prefix__paint20_linear" x1="386" y1="89" x2="423.451" y2="244.468" gradientUnits="userSpaceOnUse"><stop stop-color="#FB5353"/><stop offset="1" stop-color="#BD3131" stop-opacity=".97"/></linearGradient><clipPath id="prefix__clip0"><path fill="#fff" d="M0 0h908v453H0z"/></clipPath><filter id="prefix__filter0_d" x="274" y="47" width="224" height="224" filterUnits="userSpaceOnUse" color-interpolation-filters="sRGB"><feFlood flood-opacity="0" result="BackgroundImageFix"/><feColorMatrix in="SourceAlpha" values="0 0 0 0 0 0 0 0 0 0 0 0 0 0 0 0 0 0 127 0" result="hardAlpha"/><feOffset/><feGaussianBlur stdDeviation="21"/><feColorMatrix values="0 0 0 0 0.921569 0 0 0 0 0.294118 0 0 0 0 0.294118 0 0 0 0.7 0"/><feBlend in2="BackgroundImageFix" result="effect1_dropShadow"/><feBlend in="SourceGraphic" in2="effect1_dropShadow" result="shape"/></filter></defs></svg>
