<svg width="585" height="254" viewBox="0 0 585 254" fill="none" xmlns="http://www.w3.org/2000/svg">
<rect x="51" y="29" width="60" height="65" rx="5" fill="#EEEEEE"/>
<rect x="57" y="77" width="16" height="2" rx="1" fill="#C2C2C2"/>
<rect x="57" y="81" width="9" height="2" rx="1" fill="#C2C2C2"/>
<rect x="57" y="85" width="22" height="2" rx="1" fill="#C2C2C2"/>
<rect x="57" y="34" width="48" height="5" rx="2.5" fill="#C2C2C2"/>
<rect x="51" y="163" width="60" height="65" rx="5" fill="#EEEEEE"/>
<rect x="159" y="106" width="36" height="39" rx="2" fill="#EEEEEE"/>
<rect x="371" y="106" width="36" height="39" rx="2" fill="#EEEEEE"/>
<rect x="59" y="211" width="28" height="2" rx="1" fill="#C2C2C2"/>
<rect x="164" y="135" width="17" height="1" rx="0.5" fill="#C2C2C2"/>
<rect x="376" y="135" width="17" height="1" rx="0.5" fill="#C2C2C2"/>
<rect x="59" y="215" width="16" height="2" rx="1" fill="#C2C2C2"/>
<rect x="164" y="137" width="9" height="1" rx="0.5" fill="#C2C2C2"/>
<rect x="376" y="137" width="9" height="1" rx="0.5" fill="#C2C2C2"/>
<rect x="59" y="219" width="39" height="2" rx="1" fill="#C2C2C2"/>
<rect x="164" y="140" width="23" height="1" rx="0.5" fill="#C2C2C2"/>
<rect x="376" y="140" width="23" height="1" rx="0.5" fill="#C2C2C2"/>
<rect x="57" y="171" width="48" height="5" rx="2.5" fill="#C2C2C2"/>
<rect x="163" y="111" width="28" height="3" rx="1.5" fill="#C2C2C2"/>
<rect x="375" y="111" width="28" height="3" rx="1.5" fill="#C2C2C2"/>
<rect x="57" y="179" width="48" height="5" rx="2.5" fill="#C2C2C2"/>
<rect x="163" y="116" width="28" height="3" rx="1.5" fill="#C2C2C2"/>
<rect x="375" y="116" width="28" height="3" rx="1.5" fill="#C2C2C2"/>
<rect x="459" y="167" width="60" height="65" rx="5" fill="#EEEEEE"/>
<rect x="468" y="177" width="16" height="2" rx="1" fill="#C2C2C2"/>
<rect x="468" y="181" width="9" height="2" rx="1" fill="#C2C2C2"/>
<rect x="468" y="185" width="22" height="2" rx="1" fill="#C2C2C2"/>
<rect x="468" y="193" width="43" height="30" rx="2" fill="#C2C2C2"/>
<circle cx="284.9" cy="127" r="37.5" stroke="#DCDCDC" stroke-dasharray="2 2"/>
<circle cx="284.9" cy="127" r="55.5" stroke="#DCDCDC" stroke-dasharray="2 2"/>
<line x1="283.339" y1="128.01" x2="194.991" y2="126.408" stroke="#DCDCDC" stroke-dasharray="2 2"/>
<circle r="6.5" transform="matrix(-1 0 0 1 331.4 158.5)" fill="url(#paint0_linear)"/>
<circle r="6.5" transform="matrix(-1 0 0 1 331.4 95.5)" fill="url(#paint1_linear)"/>
<circle r="6.5" transform="matrix(-1 0 0 1 239.4 95.5)" fill="url(#paint2_linear)"/>
<circle r="6.5" transform="matrix(-1 0 0 1 239.4 160.5)" fill="url(#paint3_linear)"/>
<circle r="2.5" transform="matrix(-1 0 0 1 228.4 127.5)" fill="url(#paint4_linear)"/>
<circle r="11" transform="matrix(-1 0 0 1 284.9 127)" fill="#393939"/>
<circle r="2.5" transform="matrix(-1 0 0 1 266.4 74.5)" fill="url(#paint5_linear)"/>
<circle r="2.5" transform="matrix(-1 0 0 1 266.4 179.5)" fill="url(#paint6_linear)"/>
<circle r="2.5" transform="matrix(-1 0 0 1 304.4 74.5)" fill="url(#paint7_linear)"/>
<circle r="2.5" transform="matrix(-1 0 0 1 340.4 126.5)" fill="url(#paint8_linear)"/>
<circle r="2.5" transform="matrix(-1 0 0 1 303.4 178.5)" fill="url(#paint9_linear)"/>
<circle cx="284.9" cy="127" r="37.5" stroke="#DCDCDC" stroke-dasharray="2 2"/>
<circle cx="284.9" cy="127" r="55.5" stroke="#DCDCDC" stroke-dasharray="2 2"/>
<line x1="283.339" y1="128.01" x2="194.991" y2="126.408" stroke="#DCDCDC" stroke-dasharray="2 2"/>
<line x1="371.239" y1="128.01" x2="282.891" y2="126.408" stroke="#DCDCDC" stroke-dasharray="2 2"/>
<circle r="6.5" transform="matrix(-1 0 0 1 331.4 158.5)" fill="url(#paint10_linear)"/>
<circle r="6.5" transform="matrix(-1 0 0 1 331.4 95.5)" fill="url(#paint11_linear)"/>
<circle r="6.5" transform="matrix(-1 0 0 1 239.4 95.5)" fill="url(#paint12_linear)"/>
<circle r="6.5" transform="matrix(-1 0 0 1 239.4 160.5)" fill="url(#paint13_linear)"/>
<circle r="2.5" transform="matrix(-1 0 0 1 228.4 127.5)" fill="url(#paint14_linear)"/>
<line x1="283.434" y1="125.819" x2="309.534" y2="58.8185" stroke="#DCDCDC" stroke-dasharray="2 2"/>
<line x1="283.426" y1="126.16" x2="260.526" y2="58.1596" stroke="#DCDCDC" stroke-dasharray="2 2"/>
<line x1="111" y1="58.5" x2="260" y2="58.5" stroke="#DCDCDC" stroke-dasharray="2 2"/>
<line x1="310" y1="58.5" x2="459" y2="58.5" stroke="#DCDCDC" stroke-dasharray="2 2"/>
<line y1="-0.5" x2="71.9042" y2="-0.5" transform="matrix(0.362982 0.931796 0.931796 -0.362982 283.9 129)" stroke="#DCDCDC" stroke-dasharray="2 2"/>
<line y1="-0.5" x2="71.7524" y2="-0.5" transform="matrix(-0.319154 0.947703 0.947703 0.319154 283.9 129)" stroke="#DCDCDC" stroke-dasharray="2 2"/>
<line y1="-0.5" x2="149" y2="-0.5" transform="matrix(1 0 0 -1 111 196)" stroke="#DCDCDC" stroke-dasharray="2 2"/>
<line y1="-0.5" x2="149" y2="-0.5" transform="matrix(1 0 0 -1 310 196)" stroke="#DCDCDC" stroke-dasharray="2 2"/>
<circle r="11" transform="matrix(-1 0 0 1 284.9 127)" fill="#393939"/>
<circle r="2.5" transform="matrix(-1 0 0 1 266.4 74.5)" fill="url(#paint15_linear)"/>
<circle r="2.5" transform="matrix(-1 0 0 1 266.4 179.5)" fill="url(#paint16_linear)"/>
<circle r="2.5" transform="matrix(-1 0 0 1 304.4 74.5)" fill="url(#paint17_linear)"/>
<circle r="2.5" transform="matrix(-1 0 0 1 340.4 126.5)" fill="url(#paint18_linear)"/>
<circle r="2.5" transform="matrix(-1 0 0 1 303.4 178.5)" fill="url(#paint19_linear)"/>
<rect x="451" y="29" width="60" height="65" rx="5" fill="#EEEEEE"/>
<rect x="467" y="41" width="28" height="2" rx="1" fill="#C2C2C2"/>
<rect x="467" y="45" width="16" height="2" rx="1" fill="#C2C2C2"/>
<rect x="467" y="49" width="39" height="2" rx="1" fill="#C2C2C2"/>
<rect x="457" y="39" width="4" height="49" rx="2" fill="#C2C2C2"/>
<defs>
<linearGradient id="paint0_linear" x1="6.5" y1="0" x2="6.5" y2="13" gradientUnits="userSpaceOnUse">
<stop stop-color="#FF5454"/>
<stop offset="1" stop-color="#BA4F4F" stop-opacity="0.74"/>
</linearGradient>
<linearGradient id="paint1_linear" x1="6.5" y1="0" x2="6.5" y2="13" gradientUnits="userSpaceOnUse">
<stop stop-color="#FF5454"/>
<stop offset="1" stop-color="#BA4F4F" stop-opacity="0.74"/>
</linearGradient>
<linearGradient id="paint2_linear" x1="6.5" y1="0" x2="6.5" y2="13" gradientUnits="userSpaceOnUse">
<stop stop-color="#FF5454"/>
<stop offset="1" stop-color="#BA4F4F" stop-opacity="0.74"/>
</linearGradient>
<linearGradient id="paint3_linear" x1="6.5" y1="0" x2="6.5" y2="13" gradientUnits="userSpaceOnUse">
<stop stop-color="#FF5454"/>
<stop offset="1" stop-color="#BA4F4F" stop-opacity="0.74"/>
</linearGradient>
<linearGradient id="paint4_linear" x1="2.5" y1="0" x2="2.5" y2="5" gradientUnits="userSpaceOnUse">
<stop stop-color="#FF5454"/>
<stop offset="1" stop-color="#BA4F4F" stop-opacity="0.74"/>
</linearGradient>
<linearGradient id="paint5_linear" x1="2.5" y1="0" x2="2.5" y2="5" gradientUnits="userSpaceOnUse">
<stop stop-color="#FF5454"/>
<stop offset="1" stop-color="#BA4F4F" stop-opacity="0.74"/>
</linearGradient>
<linearGradient id="paint6_linear" x1="2.5" y1="0" x2="2.5" y2="5" gradientUnits="userSpaceOnUse">
<stop stop-color="#FF5454"/>
<stop offset="1" stop-color="#BA4F4F" stop-opacity="0.74"/>
</linearGradient>
<linearGradient id="paint7_linear" x1="2.5" y1="0" x2="2.5" y2="5" gradientUnits="userSpaceOnUse">
<stop stop-color="#FF5454"/>
<stop offset="1" stop-color="#BA4F4F" stop-opacity="0.74"/>
</linearGradient>
<linearGradient id="paint8_linear" x1="2.5" y1="0" x2="2.5" y2="5" gradientUnits="userSpaceOnUse">
<stop stop-color="#FF5454"/>
<stop offset="1" stop-color="#BA4F4F" stop-opacity="0.74"/>
</linearGradient>
<linearGradient id="paint9_linear" x1="2.5" y1="0" x2="2.5" y2="5" gradientUnits="userSpaceOnUse">
<stop stop-color="#FF5454"/>
<stop offset="1" stop-color="#BA4F4F" stop-opacity="0.74"/>
</linearGradient>
<linearGradient id="paint10_linear" x1="6.5" y1="0" x2="6.5" y2="13" gradientUnits="userSpaceOnUse">
<stop stop-color="#FF5454"/>
<stop offset="1" stop-color="#BA4F4F" stop-opacity="0.74"/>
</linearGradient>
<linearGradient id="paint11_linear" x1="6.5" y1="0" x2="6.5" y2="13" gradientUnits="userSpaceOnUse">
<stop stop-color="#FF5454"/>
<stop offset="1" stop-color="#BA4F4F" stop-opacity="0.74"/>
</linearGradient>
<linearGradient id="paint12_linear" x1="6.5" y1="0" x2="6.5" y2="13" gradientUnits="userSpaceOnUse">
<stop stop-color="#FF5454"/>
<stop offset="1" stop-color="#BA4F4F" stop-opacity="0.74"/>
</linearGradient>
<linearGradient id="paint13_linear" x1="6.5" y1="0" x2="6.5" y2="13" gradientUnits="userSpaceOnUse">
<stop stop-color="#FF5454"/>
<stop offset="1" stop-color="#BA4F4F" stop-opacity="0.74"/>
</linearGradient>
<linearGradient id="paint14_linear" x1="2.5" y1="0" x2="2.5" y2="5" gradientUnits="userSpaceOnUse">
<stop stop-color="#FF5454"/>
<stop offset="1" stop-color="#BA4F4F" stop-opacity="0.74"/>
</linearGradient>
<linearGradient id="paint15_linear" x1="2.5" y1="0" x2="2.5" y2="5" gradientUnits="userSpaceOnUse">
<stop stop-color="#FF5454"/>
<stop offset="1" stop-color="#BA4F4F" stop-opacity="0.74"/>
</linearGradient>
<linearGradient id="paint16_linear" x1="2.5" y1="0" x2="2.5" y2="5" gradientUnits="userSpaceOnUse">
<stop stop-color="#FF5454"/>
<stop offset="1" stop-color="#BA4F4F" stop-opacity="0.74"/>
</linearGradient>
<linearGradient id="paint17_linear" x1="2.5" y1="0" x2="2.5" y2="5" gradientUnits="userSpaceOnUse">
<stop stop-color="#FF5454"/>
<stop offset="1" stop-color="#BA4F4F" stop-opacity="0.74"/>
</linearGradient>
<linearGradient id="paint18_linear" x1="2.5" y1="0" x2="2.5" y2="5" gradientUnits="userSpaceOnUse">
<stop stop-color="#FF5454"/>
<stop offset="1" stop-color="#BA4F4F" stop-opacity="0.74"/>
</linearGradient>
<linearGradient id="paint19_linear" x1="2.5" y1="0" x2="2.5" y2="5" gradientUnits="userSpaceOnUse">
<stop stop-color="#FF5454"/>
<stop offset="1" stop-color="#BA4F4F" stop-opacity="0.74"/>
</linearGradient>
</defs>
</svg>
