<svg width="343" height="288" fill="none" xmlns="http://www.w3.org/2000/svg"><path stroke="#DCDCDC" stroke-width="2" d="M209.722 123.459h37.984M248.706 99.762v24.697M248.706 164.954v24.698M209.04 143.986h72.561M210.49 165.986h37.216"/><circle cx="248.669" cy="99.437" r="4.283" transform="rotate(90 248.669 99.437)" fill="#fff" stroke="#A5A5A5" stroke-width="4.5"/><circle cx="281.601" cy="144.006" r="4.283" transform="rotate(90 281.601 144.006)" fill="#fff" stroke="#A5A5A5" stroke-width="4.5"/><circle cx="248.669" cy="189.652" r="4.283" transform="rotate(90 248.669 189.652)" fill="#fff" stroke="#A5A5A5" stroke-width="4.5"/><path stroke="#DCDCDC" stroke-width="2" d="M133.278 123.459H95.294M94.294 99.762v24.698M94.294 164.954v24.698M134.578 145.986H61.399M132.51 165.986H95.294"/><circle r="4.283" transform="matrix(0 1 1 0 94.33 99.437)" fill="#fff" stroke="#A5A5A5" stroke-width="4.5"/><circle r="4.283" transform="matrix(0 1 1 0 61.399 144.006)" fill="#fff" stroke="#A5A5A5" stroke-width="4.5"/><circle r="4.283" transform="matrix(0 1 1 0 94.33 189.652)" fill="#fff" stroke="#A5A5A5" stroke-width="4.5"/><path stroke="#DCDCDC" stroke-width="2" d="M187.489 93.41V68.712"/><circle cx="187.526" cy="68.712" r="4.283" transform="rotate(-90 187.526 68.712)" fill="#fff" stroke="#A5A5A5" stroke-width="4.5"/><path stroke="#DCDCDC" stroke-width="2" d="M153.628 93.41V68.712"/><circle r="4.283" transform="matrix(0 -1 -1 0 153.591 68.712)" fill="#fff" stroke="#A5A5A5" stroke-width="4.5"/><path stroke="#DCDCDC" stroke-width="2" d="M153.628 194.59v24.697"/><circle cx="153.591" cy="219.287" r="4.283" transform="rotate(90 153.591 219.287)" fill="#fff" stroke="#A5A5A5" stroke-width="4.5"/><path stroke="#DCDCDC" stroke-width="2" d="M187.489 194.59v24.698"/><circle r="4.283" transform="matrix(0 1 1 0 187.526 219.287)" fill="#fff" stroke="#A5A5A5" stroke-width="4.5"/><rect width="76.963" height="102.543" rx="2.746" transform="matrix(-1 0 0 1 209.04 92.734)" fill="#393939"/><rect x="-.082" y=".082" width="56.256" height="3.001" rx="1.501" transform="matrix(-1 0 0 1 198.336 180.486)" fill="#fff" stroke="#393939" stroke-width=".165"/><rect x="-.082" y=".082" width="20.755" height="3.001" rx="1.501" transform="matrix(-1 0 0 1 162.834 127.251)" fill="#fff" stroke="#393939" stroke-width=".165"/><rect x="-.082" y=".082" width="47.94" height="3.07" rx="1.535" transform="matrix(-1 0 0 1 190.02 106.788)" fill="#fff" stroke="#393939" stroke-width=".165"/><rect x="-.082" y=".082" width="20.755" height="3.07" rx="1.535" transform="matrix(-1 0 0 1 162.834 111.812)" fill="#fff" stroke="#393939" stroke-width=".165"/><rect x="-.082" y=".082" width="33.842" height="3.07" rx="1.535" transform="matrix(-1 0 0 1 175.922 117.073)" fill="#fff" stroke="#393939" stroke-width=".165"/><rect x="-.082" y=".082" width="7.331" height="3.07" rx="1.535" transform="matrix(-1 0 0 1 149.411 122.229)" fill="#fff" stroke="#393939" stroke-width=".165"/></svg>
