<svg width="624" height="510" viewBox="0 0 624 510" fill="none" xmlns="http://www.w3.org/2000/svg">
<line x1="114" y1="244.5" x2="1.31134e-07" y2="244.5" stroke="#EEEEEE" stroke-width="3"/>
<path d="M116 244L-5.96046e-06 244" stroke="#EEEEEE" stroke-width="3"/>
<path d="M624 244L510 244" stroke="#EEEEEE" stroke-width="3"/>
<path d="M116 350L-5.96046e-06 350" stroke="#EEEEEE" stroke-width="3"/>
<path d="M624 350L510 350" stroke="#EEEEEE" stroke-width="3"/>
<path d="M116 138L-5.96046e-06 138" stroke="#EEEEEE" stroke-width="3"/>
<path d="M48 138H41" stroke="#393939" stroke-width="3"/>
<path d="M61 138H54" stroke="#393939" stroke-width="3"/>
<path d="M106 138H85" stroke="#393939" stroke-width="3"/>
<path d="M624 138L510 138" stroke="#EEEEEE" stroke-width="3"/>
<path d="M528 138H510" stroke="#393939" stroke-width="3"/>
<path d="M576 138H558" stroke="#393939" stroke-width="3"/>
<path d="M620 138L614 138" stroke="#393939" stroke-width="3"/>
<path d="M611 138L605 138" stroke="#393939" stroke-width="3"/>
<path d="M534 244H516" stroke="#393939" stroke-width="3"/>
<path d="M57 244L25 244" stroke="#393939" stroke-width="3"/>
<path d="M114 244L108 244" stroke="#393939" stroke-width="3"/>
<path d="M548 350H542" stroke="#393939" stroke-width="3"/>
<path d="M557 350H551" stroke="#393939" stroke-width="3"/>
<path d="M567 350H561" stroke="#393939" stroke-width="3"/>
<path d="M617 350L611 350" stroke="#393939" stroke-width="3"/>
<path d="M28 350H22" stroke="#393939" stroke-width="3"/>
<path d="M7 244H-5.21541e-08" stroke="#393939" stroke-width="3"/>
<path d="M83 350L71 350" stroke="#393939" stroke-width="3"/>
<path d="M624 244H604" stroke="#393939" stroke-width="3"/>
<path d="M598 244H588" stroke="#393939" stroke-width="3"/>
<g filter="url(#filter0_d)">
<rect x="116" y="59" width="394" height="386" rx="20" fill="white"/>
</g>
<rect x="140" y="76" width="188" height="19" rx="9.5" fill="#EEEEEE"/>
<rect x="365" y="76" width="46" height="19" rx="9.5" fill="#EEEEEE"/>
<rect x="428" y="76" width="46" height="19" rx="9.5" fill="#EEEEEE"/>
<rect x="140" y="153" width="188" height="50" rx="10" fill="#EEEEEE"/>
<rect x="140" y="249" width="338" height="152" rx="10" fill="#EEEEEE"/>
<rect x="160.421" y="191.678" width="9.65686" height="18.348" rx="2" fill="#393939"/>
<rect x="174.907" y="187.815" width="9.65686" height="22.2108" rx="2" fill="#393939"/>
<rect x="189.392" y="200.369" width="10.6225" height="9.65686" rx="2" fill="#393939"/>
<rect x="204.843" y="183.953" width="9.65686" height="26.0735" rx="2" fill="#393939"/>
<rect x="219.328" y="195.541" width="9.65686" height="14.4853" rx="2" fill="#393939"/>
<rect x="233.813" y="191.678" width="9.65686" height="18.348" rx="2" fill="#393939"/>
<rect x="248.299" y="185.884" width="9.65686" height="24.1422" rx="2" fill="#393939"/>
<rect x="262.784" y="175.261" width="9.65686" height="34.7647" rx="2" fill="#393939"/>
<rect x="278.235" y="151.119" width="9.65686" height="58.9069" rx="2" fill="#393939"/>
<rect x="293.686" y="126.977" width="9.65686" height="83.049" rx="2" fill="#393939"/>
<rect x="158" y="263" width="156" height="19" rx="9.5" fill="white"/>
<rect x="157" y="290" width="85" height="18" rx="9" fill="white"/>
<rect x="158" y="370" width="113" height="18" rx="9" fill="white"/>
<rect x="358" y="125" width="116" height="26" rx="5" fill="#EEEEEE"/>
<rect x="358" y="160" width="116" height="26" rx="5" fill="#EEEEEE"/>
<rect x="358" y="197" width="116" height="26" rx="5" fill="#EEEEEE"/>
<rect x="181" y="468" width="194" height="20" rx="10" fill="#EEEEEE"/>
<rect x="117" y="468" width="48" height="20" rx="10" fill="#EEEEEE"/>
<rect x="392" y="468" width="48" height="20" rx="10" fill="#EEEEEE"/>
<rect x="462" y="468" width="48" height="20" rx="10" fill="#EEEEEE"/>
<defs>
<filter id="filter0_d" x="103" y="48" width="420" height="412" filterUnits="userSpaceOnUse" color-interpolation-filters="sRGB">
<feFlood flood-opacity="0" result="BackgroundImageFix"/>
<feColorMatrix in="SourceAlpha" type="matrix" values="0 0 0 0 0 0 0 0 0 0 0 0 0 0 0 0 0 0 127 0"/>
<feOffset dy="2"/>
<feGaussianBlur stdDeviation="6.5"/>
<feColorMatrix type="matrix" values="0 0 0 0 0 0 0 0 0 0 0 0 0 0 0 0 0 0 0.07 0"/>
<feBlend mode="normal" in2="BackgroundImageFix" result="effect1_dropShadow"/>
<feBlend mode="normal" in="SourceGraphic" in2="effect1_dropShadow" result="shape"/>
</filter>
</defs>
</svg>
