<svg width="830" height="510" viewBox="0 0 830 510" fill="none" xmlns="http://www.w3.org/2000/svg">
<rect x="236.235" y="102.361" width="357.53" height="305.278" rx="9.5" fill="white" stroke="#9A9A9A"/>
<path d="M236.419 127.84H261.976C261.976 127.84 266.32 212.003 270.44 266.861C274.549 321.578 302.52 407.255 302.52 407.255H245.419C240.448 407.255 236.419 403.226 236.419 398.255V127.84Z" fill="#F8F8F8"/>
<path d="M236.235 106.861C236.235 104.376 238.25 102.361 240.735 102.361H584.265C589.512 102.361 593.765 106.614 593.765 111.861V127.34H236.235V106.861Z" fill="white" stroke="#9A9A9A"/>
<rect x="252.023" y="110.115" width="9.3264" height="10.4694" rx="4.6632" fill="#393939" stroke="#393939" stroke-width="0.3"/>
<rect x="264.477" y="110.115" width="9.3264" height="10.4694" rx="4.6632" fill="#9F9F9F" stroke="#9A9A9A" stroke-width="0.3"/>
<rect x="276.932" y="110.115" width="9.3264" height="10.4694" rx="4.6632" fill="#EEEEEE" stroke="#9A9A9A" stroke-width="0.3"/>
<rect x="540.726" y="110.115" width="41.5588" height="10.4694" rx="5.23472" fill="#8C8C8C" stroke="#9A9A9A" stroke-width="0.3"/>
<rect x="495.498" y="110.115" width="37.8133" height="10.4694" rx="5.23472" fill="#EEEEEE" stroke="#767676" stroke-width="0.3"/>
<rect x="258.074" y="176.947" width="170.075" height="38.6733" rx="4.5" fill="#EEEEEE" stroke="#9A9A9A"/>
<rect x="258.074" y="253.12" width="170.075" height="119.607" rx="1.5" fill="#EEEEEE" stroke="#9A9A9A"/>
<rect x="276.157" y="201.562" width="8.7875" height="14.5586" rx="2" fill="#393939"/>
<rect x="289.339" y="198.497" width="8.7875" height="17.6235" rx="2" fill="#393939"/>
<rect x="302.52" y="208.458" width="9.66625" height="7.6624" rx="2" fill="#393939"/>
<rect x="316.58" y="195.432" width="8.7875" height="20.6885" rx="2" fill="#393939"/>
<rect x="329.761" y="204.627" width="8.7875" height="11.4936" rx="2" fill="#393939"/>
<rect x="342.942" y="201.562" width="8.7875" height="14.5586" rx="2" fill="#393939"/>
<rect x="356.124" y="196.964" width="8.7875" height="19.156" rx="2" fill="#393939"/>
<rect x="369.305" y="188.536" width="8.7875" height="27.5846" rx="2" fill="#393939"/>
<rect x="383.365" y="169.38" width="8.7875" height="46.7406" rx="2" fill="#393939"/>
<rect x="397.425" y="150.224" width="8.7875" height="65.8966" rx="2" fill="#393939"/>
<rect x="274.254" y="348.929" width="102.227" height="13.6824" rx="1.7" fill="white" stroke="#9A9A9A" stroke-width="0.6"/>
<rect x="456.449" y="154.73" width="104.557" height="19.6301" rx="9.81506" fill="#EEEEEE" stroke="#9A9A9A"/>
<rect x="456.449" y="327.705" width="104.557" height="19.6301" rx="9.81506" fill="#EEEEEE" stroke="#9A9A9A"/>
<rect x="456.449" y="182.501" width="104.557" height="19.6301" rx="9.81506" fill="#393939" stroke="#9A9A9A"/>
<rect x="456.449" y="253.12" width="104.557" height="121.987" rx="4.5" fill="#EEEEEE" stroke="#9A9A9A"/>
<rect x="456.449" y="211.859" width="104.557" height="19.6301" rx="9.81506" fill="#EEEEEE" stroke="#9A9A9A"/>
<rect x="-0.15" y="0.15" width="41.2312" height="6.12194" rx="3.06097" transform="matrix(-1 0 0 1 507.177 267.547)" fill="#393939" stroke="#A5A5A5" stroke-width="0.3"/>
<rect x="-0.15" y="0.15" width="56.999" height="6.12194" rx="3.06097" transform="matrix(-1 0 0 1 333.156 267.547)" fill="#393939" stroke="#A5A5A5" stroke-width="0.3"/>
<rect x="-0.15" y="0.15" width="41.2312" height="6.12194" rx="3.06097" transform="matrix(-1 0 0 1 507.177 290.999)" fill="#393939" stroke="#A5A5A5" stroke-width="0.3"/>
<rect x="-0.15" y="0.15" width="129.755" height="6.12194" rx="3.06097" transform="matrix(-1 0 0 1 405.912 290.999)" fill="#393939" stroke="#A5A5A5" stroke-width="0.3"/>
<rect x="-0.15" y="0.15" width="67.2148" height="6.12194" rx="3.06097" transform="matrix(-1 0 0 1 533.161 277.996)" fill="#393939" stroke="#A5A5A5" stroke-width="0.3"/>
<rect x="-0.15" y="0.15" width="92.8474" height="6.12194" rx="3.06097" transform="matrix(-1 0 0 1 369.005 277.996)" fill="#393939" stroke="#A5A5A5" stroke-width="0.3"/>
<rect x="-0.15" y="0.15" width="67.2148" height="6.12194" rx="3.06097" transform="matrix(-1 0 0 1 533.161 301.448)" fill="#393939" stroke="#A5A5A5" stroke-width="0.3"/>
<rect x="-0.15" y="0.15" width="92.8474" height="6.12194" rx="3.06097" transform="matrix(-1 0 0 1 369.005 301.448)" fill="#393939" stroke="#A5A5A5" stroke-width="0.3"/>
</svg>
