<svg width="830" height="510" fill="none" xmlns="http://www.w3.org/2000/svg"><path fill="#F5F5F4" d="M0 0h830v510H0z"/><rect x="236.235" y="102.361" width="357.53" height="305.278" rx="9.5" fill="#fff" stroke="#9A9A9A"/><path d="M236.419 127.84h25.557s4.344 84.163 8.464 139.021c4.109 54.717 32.08 140.394 32.08 140.394h-57.101a9 9 0 01-9-9V127.84z" fill="#F8F8F8"/><path d="M236.235 106.861a4.5 4.5 0 014.5-4.5h343.53a9.5 9.5 0 019.5 9.5v15.479h-357.53v-20.479z" fill="#fff" stroke="#9A9A9A"/><rect x="252.023" y="110.115" width="9.326" height="10.469" rx="4.663" fill="#393939" stroke="#393939" stroke-width=".3"/><rect x="264.477" y="110.115" width="9.326" height="10.469" rx="4.663" fill="#9F9F9F" stroke="#9A9A9A" stroke-width=".3"/><rect x="276.932" y="110.115" width="9.326" height="10.469" rx="4.663" fill="#EEE" stroke="#9A9A9A" stroke-width=".3"/><rect x="540.726" y="110.115" width="41.559" height="10.469" rx="5.235" fill="#8C8C8C" stroke="#9A9A9A" stroke-width=".3"/><rect x="495.498" y="110.115" width="37.813" height="10.469" rx="5.235" fill="#EEE" stroke="#767676" stroke-width=".3"/><rect x="258.074" y="176.947" width="170.075" height="38.673" rx="4.5" fill="#EEE" stroke="#9A9A9A"/><rect x="258.074" y="253.12" width="170.075" height="119.607" rx="1.5" fill="#EEE" stroke="#9A9A9A"/><rect x="276.157" y="201.562" width="8.787" height="14.559" rx="2" fill="#393939"/><rect x="289.339" y="198.497" width="8.787" height="17.623" rx="2" fill="#393939"/><rect x="302.52" y="208.458" width="9.666" height="7.662" rx="2" fill="#393939"/><rect x="316.58" y="195.432" width="8.787" height="20.689" rx="2" fill="#393939"/><rect x="329.761" y="204.627" width="8.787" height="11.494" rx="2" fill="#393939"/><rect x="342.942" y="201.562" width="8.787" height="14.559" rx="2" fill="#393939"/><rect x="356.124" y="196.964" width="8.787" height="19.156" rx="2" fill="#393939"/><rect x="369.305" y="188.536" width="8.787" height="27.585" rx="2" fill="#393939"/><rect x="383.365" y="169.38" width="8.787" height="46.741" rx="2" fill="#393939"/><rect x="397.425" y="150.224" width="8.787" height="65.897" rx="2" fill="#393939"/><rect x="274.254" y="348.929" width="102.227" height="13.682" rx="1.7" fill="#fff" stroke="#9A9A9A" stroke-width=".6"/><rect x="456.449" y="154.73" width="104.557" height="19.63" rx="9.815" fill="#EEE" stroke="#9A9A9A"/><rect x="456.449" y="327.705" width="104.557" height="19.63" rx="9.815" fill="#EEE" stroke="#9A9A9A"/><rect x="456.449" y="182.501" width="104.557" height="19.63" rx="9.815" fill="#393939" stroke="#9A9A9A"/><rect x="456.449" y="253.12" width="104.557" height="121.987" rx="4.5" fill="#EEE" stroke="#9A9A9A"/><rect x="456.449" y="211.859" width="104.557" height="19.63" rx="9.815" fill="#EEE" stroke="#9A9A9A"/><rect x="-.15" y=".15" width="41.231" height="6.122" rx="3.061" transform="matrix(-1 0 0 1 507.177 267.547)" fill="#393939" stroke="#A5A5A5" stroke-width=".3"/><rect x="-.15" y=".15" width="56.999" height="6.122" rx="3.061" transform="matrix(-1 0 0 1 333.156 267.547)" fill="#393939" stroke="#A5A5A5" stroke-width=".3"/><rect x="-.15" y=".15" width="41.231" height="6.122" rx="3.061" transform="matrix(-1 0 0 1 507.177 290.999)" fill="#393939" stroke="#A5A5A5" stroke-width=".3"/><rect x="-.15" y=".15" width="129.755" height="6.122" rx="3.061" transform="matrix(-1 0 0 1 405.912 290.999)" fill="#393939" stroke="#A5A5A5" stroke-width=".3"/><rect x="-.15" y=".15" width="67.215" height="6.122" rx="3.061" transform="matrix(-1 0 0 1 533.161 277.996)" fill="#393939" stroke="#A5A5A5" stroke-width=".3"/><rect x="-.15" y=".15" width="92.847" height="6.122" rx="3.061" transform="matrix(-1 0 0 1 369.005 277.996)" fill="#393939" stroke="#A5A5A5" stroke-width=".3"/><rect x="-.15" y=".15" width="67.215" height="6.122" rx="3.061" transform="matrix(-1 0 0 1 533.161 301.448)" fill="#393939" stroke="#A5A5A5" stroke-width=".3"/><rect x="-.15" y=".15" width="92.847" height="6.122" rx="3.061" transform="matrix(-1 0 0 1 369.005 301.448)" fill="#393939" stroke="#A5A5A5" stroke-width=".3"/></svg>
