<svg width="196" height="34" fill="none" xmlns="http://www.w3.org/2000/svg"><path d="M4.768 11.736c.576-1.104 1.26-1.968 2.052-2.592.792-.636 1.728-.954 2.808-.954.852 0 1.536.186 2.052.558l-.288 3.33c-.06.216-.15.372-.27.468-.108.084-.258.126-.45.126-.18 0-.45-.03-.81-.09-.348-.06-.69-.09-1.026-.09-.492 0-.93.072-1.314.216a3.327 3.327 0 00-1.044.63c-.3.264-.57.588-.81.972-.228.384-.444.822-.648 1.314V27H.574V8.532h2.61c.456 0 .774.084.954.252.18.156.3.444.36.864l.27 2.088zm21.687 3.906c0-.576-.084-1.116-.252-1.62a3.748 3.748 0 00-.72-1.35 3.289 3.289 0 00-1.242-.9c-.492-.228-1.068-.342-1.728-.342-1.284 0-2.298.366-3.042 1.098-.732.732-1.2 1.77-1.404 3.114h8.388zm-8.478 2.682c.072.948.24 1.77.504 2.466.264.684.612 1.254 1.044 1.71.432.444.942.78 1.53 1.008.6.216 1.26.324 1.98.324s1.338-.084 1.854-.252a8.28 8.28 0 001.368-.558c.396-.204.738-.39 1.026-.558.3-.168.588-.252.864-.252.372 0 .648.138.828.414l1.278 1.62a7.608 7.608 0 01-1.656 1.458 9.844 9.844 0 01-1.926.936c-.66.228-1.338.39-2.034.486-.684.096-1.35.144-1.998.144-1.284 0-2.478-.21-3.582-.63a8.179 8.179 0 01-2.88-1.89c-.816-.84-1.458-1.872-1.926-3.096-.468-1.236-.702-2.664-.702-4.284 0-1.26.204-2.442.612-3.546a8.507 8.507 0 011.746-2.898 8.32 8.32 0 012.79-1.962c1.104-.48 2.346-.72 3.726-.72 1.164 0 2.238.186 3.222.558.984.372 1.83.918 2.538 1.638.708.708 1.26 1.584 1.656 2.628.408 1.032.612 2.214.612 3.546 0 .672-.072 1.128-.216 1.368-.144.228-.42.342-.828.342h-11.43zm28.482-5.076c-.504-.612-1.056-1.044-1.656-1.296a4.792 4.792 0 00-1.908-.378c-.672 0-1.278.126-1.818.378a3.632 3.632 0 00-1.386 1.152c-.384.504-.678 1.152-.882 1.944-.204.78-.306 1.704-.306 2.772 0 1.08.084 1.998.252 2.754.18.744.432 1.356.756 1.836.324.468.72.81 1.188 1.026.468.204.99.306 1.566.306.924 0 1.71-.192 2.358-.576.648-.384 1.26-.93 1.836-1.638v-8.28zM50.905.252V27h-2.718c-.588 0-.96-.27-1.116-.81l-.378-1.782a9.272 9.272 0 01-2.574 2.07c-.96.528-2.082.792-3.366.792-1.008 0-1.932-.21-2.772-.63a6.294 6.294 0 01-2.178-1.818c-.6-.804-1.068-1.794-1.404-2.97-.324-1.176-.486-2.52-.486-4.032 0-1.368.186-2.64.558-3.816.372-1.176.906-2.196 1.602-3.06a7.377 7.377 0 012.502-2.016c.972-.492 2.064-.738 3.276-.738 1.032 0 1.914.162 2.646.486A6.78 6.78 0 0146.46 9.99V.252h4.446zm9.914 21.96c.504.612 1.05 1.044 1.638 1.296.6.252 1.248.378 1.944.378.672 0 1.278-.126 1.818-.378s.996-.636 1.368-1.152c.384-.516.678-1.164.882-1.944.204-.792.306-1.722.306-2.79 0-1.08-.09-1.992-.27-2.736-.168-.756-.414-1.368-.738-1.836a2.935 2.935 0 00-1.188-1.026c-.456-.216-.978-.324-1.566-.324-.924 0-1.71.198-2.358.594-.648.384-1.26.93-1.836 1.638v8.28zm-.234-11.16a9.633 9.633 0 012.574-2.07c.96-.528 2.088-.792 3.384-.792 1.008 0 1.926.21 2.754.63.84.42 1.56 1.032 2.16 1.836.612.792 1.08 1.776 1.404 2.952.336 1.164.504 2.502.504 4.014 0 1.38-.186 2.658-.558 3.834-.372 1.176-.906 2.196-1.602 3.06a7.342 7.342 0 01-2.502 2.034c-.972.48-2.064.72-3.276.72-1.032 0-1.914-.156-2.646-.468a6.604 6.604 0 01-1.962-1.332v7.56h-4.446V8.532h2.718c.576 0 .954.27 1.134.81l.36 1.71zm29.227 4.59c0-.576-.084-1.116-.252-1.62a3.748 3.748 0 00-.72-1.35 3.289 3.289 0 00-1.242-.9c-.492-.228-1.068-.342-1.728-.342-1.284 0-2.298.366-3.042 1.098-.732.732-1.2 1.77-1.404 3.114h8.388zm-8.478 2.682c.072.948.24 1.77.504 2.466.264.684.612 1.254 1.044 1.71.432.444.942.78 1.53 1.008.6.216 1.26.324 1.98.324s1.338-.084 1.854-.252a8.28 8.28 0 001.368-.558c.396-.204.738-.39 1.026-.558.3-.168.588-.252.864-.252.372 0 .648.138.828.414l1.278 1.62a7.608 7.608 0 01-1.656 1.458 9.844 9.844 0 01-1.926.936c-.66.228-1.338.39-2.034.486-.684.096-1.35.144-1.998.144-1.284 0-2.478-.21-3.582-.63a8.179 8.179 0 01-2.88-1.89c-.816-.84-1.458-1.872-1.926-3.096-.468-1.236-.702-2.664-.702-4.284 0-1.26.204-2.442.612-3.546a8.507 8.507 0 011.746-2.898 8.32 8.32 0 012.79-1.962c1.104-.48 2.346-.72 3.726-.72 1.164 0 2.238.186 3.222.558.984.372 1.83.918 2.538 1.638.708.708 1.26 1.584 1.656 2.628.408 1.032.612 2.214.612 3.546 0 .672-.072 1.128-.216 1.368-.144.228-.42.342-.828.342h-11.43zm21.048-7.524c.372-.372.762-.714 1.17-1.026.42-.324.858-.594 1.314-.81a6.88 6.88 0 011.494-.522 7.116 7.116 0 011.728-.198c1.008 0 1.902.174 2.682.522.78.336 1.428.816 1.944 1.44.528.612.924 1.35 1.188 2.214.276.852.414 1.794.414 2.826V27h-4.446V15.246c0-1.128-.258-1.998-.774-2.61-.516-.624-1.302-.936-2.358-.936a4.63 4.63 0 00-2.16.522 7.741 7.741 0 00-1.908 1.422V27h-4.446V8.532h2.718c.576 0 .954.27 1.134.81l.306 1.458zm30.473 1.638c-.132.168-.264.3-.396.396-.12.096-.3.144-.54.144-.228 0-.45-.066-.666-.198-.216-.144-.474-.3-.774-.468-.3-.18-.66-.336-1.08-.468-.408-.144-.918-.216-1.53-.216-.78 0-1.464.144-2.052.432a3.884 3.884 0 00-1.476 1.206c-.384.528-.672 1.17-.864 1.926-.192.744-.288 1.59-.288 2.538 0 .984.102 1.86.306 2.628.216.768.522 1.416.918 1.944.396.516.876.912 1.44 1.188.564.264 1.2.396 1.908.396s1.278-.084 1.71-.252c.444-.18.816-.372 1.116-.576.3-.216.558-.408.774-.576.228-.18.48-.27.756-.27.36 0 .63.138.81.414l1.278 1.62a8.279 8.279 0 01-1.602 1.458 9.18 9.18 0 01-1.8.936 9.272 9.272 0 01-1.908.486c-.648.096-1.296.144-1.944.144-1.14 0-2.214-.21-3.222-.63a7.715 7.715 0 01-2.646-1.872c-.756-.816-1.356-1.812-1.8-2.988-.432-1.188-.648-2.538-.648-4.05 0-1.356.192-2.61.576-3.762.396-1.164.972-2.166 1.728-3.006.756-.852 1.692-1.518 2.808-1.998 1.116-.48 2.4-.72 3.852-.72 1.38 0 2.586.222 3.618.666a8.833 8.833 0 012.808 1.908l-1.17 1.62zm9.825-3.906V27h-4.464V8.532h4.464zm.612-5.382c0 .384-.078.744-.234 1.08a2.89 2.89 0 01-.63.882 2.985 2.985 0 01-.9.612 2.89 2.89 0 01-1.116.216c-.384 0-.75-.072-1.098-.216a3.054 3.054 0 01-.882-.612 3.054 3.054 0 01-.612-.882 2.712 2.712 0 01-.216-1.08c0-.396.072-.768.216-1.116.156-.348.36-.648.612-.9s.546-.45.882-.594a2.654 2.654 0 011.098-.234c.396 0 .768.078 1.116.234.348.144.648.342.9.594.264.252.474.552.63.9.156.348.234.72.234 1.116zm9.5-2.898V27h-4.446V.252h4.446zm19.741 8.28V27h-4.464V8.532h4.464zm.612-5.382c0 .384-.078.744-.234 1.08a2.89 2.89 0 01-.63.882 2.985 2.985 0 01-.9.612 2.89 2.89 0 01-1.116.216c-.384 0-.75-.072-1.098-.216a3.054 3.054 0 01-.882-.612 3.054 3.054 0 01-.612-.882 2.712 2.712 0 01-.216-1.08c0-.396.072-.768.216-1.116.156-.348.36-.648.612-.9s.546-.45.882-.594a2.654 2.654 0 011.098-.234c.396 0 .768.078 1.116.234.348.144.648.342.9.594.264.252.474.552.63.9.156.348.234.72.234 1.116zm13.173 5.094c1.368 0 2.61.222 3.726.666 1.128.444 2.088 1.074 2.88 1.89.804.816 1.422 1.812 1.854 2.988.432 1.176.648 2.49.648 3.942 0 1.464-.216 2.784-.648 3.96-.432 1.176-1.05 2.178-1.854 3.006-.792.828-1.752 1.464-2.88 1.908-1.116.444-2.358.666-3.726.666-1.38 0-2.634-.222-3.762-.666a8.136 8.136 0 01-2.898-1.908c-.792-.828-1.41-1.83-1.854-3.006-.432-1.176-.648-2.496-.648-3.96 0-1.452.216-2.766.648-3.942.444-1.176 1.062-2.172 1.854-2.988a8.257 8.257 0 012.898-1.89c1.128-.444 2.382-.666 3.762-.666zm0 15.606c1.536 0 2.67-.516 3.402-1.548.744-1.032 1.116-2.544 1.116-4.536 0-1.992-.372-3.51-1.116-4.554-.732-1.044-1.866-1.566-3.402-1.566-1.56 0-2.718.528-3.474 1.584-.744 1.044-1.116 2.556-1.116 4.536 0 1.98.372 3.492 1.116 4.536.756 1.032 1.914 1.548 3.474 1.548z" fill="#fff"/><path d="M157.654 24.552c0-.372.066-.726.198-1.062.144-.336.336-.624.576-.864.24-.24.528-.432.864-.576a2.712 2.712 0 011.08-.216c.384 0 .738.072 1.062.216.336.144.624.336.864.576a2.668 2.668 0 01.81 1.926c0 .384-.072.744-.216 1.08a2.632 2.632 0 01-.594.846c-.24.24-.528.426-.864.558a2.585 2.585 0 01-1.062.216c-.384 0-.744-.072-1.08-.216a2.495 2.495 0 01-.864-.558 2.78 2.78 0 01-.576-.846 2.927 2.927 0 01-.198-1.08z" fill="#FC2121"/></svg>
