<svg width="627" height="114" viewBox="0 0 627 114" fill="none" xmlns="http://www.w3.org/2000/svg">
<g clip-path="url(#clip0)">
<mask id="path-1-outside-1" maskUnits="userSpaceOnUse" x="-1.19638" y="-0.843964" width="628" height="116" fill="black">
<rect fill="white" x="-1.19638" y="-0.843964" width="628" height="116"/>
<path d="M11.3321 41.195C13.3788 37.018 15.8433 33.7391 18.7254 31.3582C21.6075 28.9773 25.0744 27.7868 29.1261 27.7868C30.5045 27.7868 31.7994 27.9539 33.0107 28.2881C34.2638 28.5805 35.3498 29.0399 36.2688 29.6665L35.4543 38.8768C35.1619 40.0046 34.4727 40.5685 33.3866 40.5685C32.8019 40.5685 31.9247 40.464 30.7551 40.2552C29.5856 40.0046 28.3325 39.8792 26.9958 39.8792C25.0327 39.8792 23.2992 40.1716 21.7955 40.7564C20.2918 41.2994 18.9342 42.1348 17.7229 43.2626C16.5534 44.3486 15.5091 45.7062 14.5902 47.3352C13.6712 48.9224 12.815 50.7394 12.0213 52.7862V92.6347H-0.196381V28.9773H6.82097C8.15761 28.9773 9.05566 29.2279 9.51513 29.7292C10.0164 30.1886 10.3714 31.024 10.5803 32.2353L11.3321 41.195Z"/>
<path d="M85.5351 53.726C85.5351 51.3033 85.1801 49.0686 84.47 47.0219C83.8016 44.9752 82.7992 43.2 81.4625 41.6962C80.1259 40.1925 78.4969 39.023 76.5755 38.1876C74.654 37.3522 72.4402 36.9345 69.934 36.9345C64.7963 36.9345 60.7446 38.4173 57.779 41.383C54.8551 44.3486 52.9963 48.463 52.2027 53.726H85.5351ZM95.6225 83.5497C94.1188 85.304 92.3854 86.8286 90.4222 88.1235C88.459 89.3766 86.3705 90.4 84.1567 91.1936C81.9429 91.9872 79.6455 92.572 77.2646 92.9479C74.9255 93.3239 72.6073 93.5118 70.31 93.5118C65.9241 93.5118 61.8515 92.7809 58.0922 91.3189C54.3747 89.8152 51.1376 87.6432 48.3807 84.8028C45.6657 81.9207 43.5354 78.3702 41.9899 74.1515C40.4862 69.8909 39.7344 65.0039 39.7344 59.4902C39.7344 55.0626 40.4236 50.9483 41.802 47.1472C43.1804 43.3044 45.1436 39.9628 47.6915 37.1224C50.2813 34.2821 53.4349 32.0474 57.1524 30.4184C60.87 28.7893 65.0469 27.9748 69.6834 27.9748C73.568 27.9748 77.1393 28.6222 80.3974 29.9171C83.6972 31.1702 86.5376 33.0081 88.9185 35.4307C91.2993 37.8534 93.1581 40.84 94.4947 44.3904C95.8732 47.9408 96.5624 51.9925 96.5624 56.5454C96.5624 58.4251 96.3535 59.6991 95.9358 60.3674C95.5181 60.9939 94.7454 61.3072 93.6176 61.3072H51.8894C52.0147 65.1083 52.5577 68.429 53.5184 71.2693C54.4792 74.0679 55.7949 76.407 57.4657 78.2867C59.1783 80.1663 61.2041 81.5656 63.5432 82.4846C65.8823 83.4035 68.493 83.863 71.3751 83.863C74.0901 83.863 76.4293 83.5497 78.3924 82.9232C80.3974 82.2966 82.11 81.6283 83.5301 80.9182C84.9921 80.1664 86.2034 79.4771 87.1641 78.8506C88.1666 78.224 89.0438 77.9108 89.7956 77.9108C90.7981 77.9108 91.5708 78.2867 92.1138 79.0386L95.6225 83.5497Z"/>
<path d="M150.733 44.3904C148.728 41.7589 146.556 39.921 144.217 38.8768C141.92 37.8325 139.33 37.3104 136.448 37.3104C130.851 37.3104 126.507 39.3362 123.416 43.3879C120.367 47.3978 118.842 53.2665 118.842 60.9939C118.842 65.0456 119.176 68.5125 119.845 71.3947C120.555 74.235 121.557 76.5741 122.852 78.412C124.189 80.2081 125.818 81.5448 127.739 82.4219C129.66 83.2573 131.832 83.675 134.255 83.675C137.806 83.675 140.876 82.8814 143.465 81.2941C146.055 79.7069 148.478 77.4722 150.733 74.5901V44.3904ZM163.014 0.156036V92.6347H155.62C153.908 92.6347 152.843 91.8202 152.425 90.1911L151.36 82.8605C148.645 86.0768 145.554 88.6665 142.087 90.6297C138.662 92.5511 134.694 93.5118 130.183 93.5118C126.549 93.5118 123.249 92.8017 120.283 91.3816C117.359 89.9614 114.853 87.8938 112.765 85.1787C110.676 82.4219 109.068 79.0177 107.94 74.966C106.812 70.9143 106.248 66.257 106.248 60.9939C106.248 56.2739 106.875 51.8881 108.128 47.8364C109.381 43.7847 111.198 40.2761 113.579 37.3104C115.96 34.3447 118.842 32.0265 122.225 30.3557C125.609 28.6431 129.431 27.7868 133.691 27.7868C137.534 27.7868 140.792 28.4134 143.465 29.6665C146.18 30.9196 148.603 32.6948 150.733 34.9922V0.156036H163.014Z"/>
<path d="M192.277 76.9709C194.281 79.6025 196.433 81.4403 198.73 82.4846C201.069 83.5288 203.68 84.051 206.562 84.051C212.159 84.051 216.482 82.046 219.531 78.0361C222.622 73.9844 224.168 68.0948 224.168 60.3674C224.168 56.3157 223.813 52.8697 223.103 50.0293C222.434 47.1472 221.432 44.8081 220.095 43.012C218.8 41.1741 217.192 39.8375 215.271 39.0021C213.349 38.1249 211.177 37.6863 208.755 37.6863C205.204 37.6863 202.113 38.48 199.482 40.0672C196.892 41.6545 194.49 43.91 192.277 46.8339V76.9709ZM191.65 38.5008C192.987 36.9136 194.407 35.4725 195.91 34.1776C197.456 32.841 199.106 31.7132 200.86 30.7943C202.615 29.8336 204.473 29.1026 206.437 28.6014C208.441 28.0584 210.572 27.7868 212.827 27.7868C216.461 27.7868 219.74 28.4969 222.664 29.9171C225.63 31.3373 228.157 33.4258 230.245 36.1826C232.334 38.9394 233.942 42.3437 235.07 46.3954C236.239 50.447 236.824 55.1044 236.824 60.3674C236.824 65.0874 236.177 69.4732 234.882 73.5249C233.629 77.5348 231.812 81.0226 229.431 83.9883C227.092 86.954 224.21 89.2931 220.784 91.0057C217.401 92.6764 213.579 93.5118 209.319 93.5118C205.518 93.5118 202.26 92.8853 199.544 91.6322C196.829 90.3791 194.407 88.6248 192.277 86.3692V114H180.059V28.9773H187.389C189.102 28.9773 190.167 29.7918 190.585 31.4208L191.65 38.5008Z"/>
<path d="M292.712 53.726C292.712 51.3033 292.357 49.0686 291.647 47.0219C290.979 44.9752 289.976 43.2 288.64 41.6962C287.303 40.1925 285.674 39.023 283.753 38.1876C281.831 37.3522 279.617 36.9345 277.111 36.9345C271.974 36.9345 267.922 38.4173 264.956 41.383C262.032 44.3486 260.174 48.463 259.38 53.726H292.712ZM302.8 83.5497C301.296 85.304 299.563 86.8286 297.599 88.1235C295.636 89.3766 293.548 90.4 291.334 91.1936C289.12 91.9872 286.823 92.572 284.442 92.9479C282.103 93.3239 279.785 93.5118 277.487 93.5118C273.101 93.5118 269.029 92.7809 265.269 91.3189C261.552 89.8152 258.315 87.6432 255.558 84.8028C252.843 81.9207 250.713 78.3702 249.167 74.1515C247.663 69.8909 246.912 65.0039 246.912 59.4902C246.912 55.0626 247.601 50.9483 248.979 47.1472C250.358 43.3044 252.321 39.9628 254.869 37.1224C257.458 34.2821 260.612 32.0474 264.33 30.4184C268.047 28.7893 272.224 27.9748 276.861 27.9748C280.745 27.9748 284.317 28.6222 287.575 29.9171C290.874 31.1702 293.715 33.0081 296.096 35.4307C298.477 37.8534 300.335 40.84 301.672 44.3904C303.05 47.9408 303.74 51.9925 303.74 56.5454C303.74 58.4251 303.531 59.6991 303.113 60.3674C302.695 60.9939 301.923 61.3072 300.795 61.3072H259.067C259.192 65.1083 259.735 68.429 260.696 71.2693C261.656 74.0679 262.972 76.407 264.643 78.2867C266.355 80.1663 268.381 81.5656 270.72 82.4846C273.06 83.4035 275.67 83.863 278.552 83.863C281.267 83.863 283.606 83.5497 285.57 82.9232C287.575 82.2966 289.287 81.6283 290.707 80.9182C292.169 80.1664 293.381 79.4771 294.341 78.8506C295.344 78.224 296.221 77.9108 296.973 77.9108C297.975 77.9108 298.748 78.2867 299.291 79.0386L302.8 83.5497Z"/>
<path d="M328.338 37.8116C329.716 36.3497 331.157 35.013 332.661 33.8017C334.164 32.5904 335.752 31.567 337.422 30.7316C339.135 29.8545 340.952 29.1861 342.873 28.7267C344.837 28.2254 346.925 27.9748 349.139 27.9748C352.648 27.9748 355.718 28.5596 358.349 29.7292C361.022 30.8987 363.257 32.5486 365.053 34.6789C366.849 36.7674 368.207 39.2945 369.126 42.2601C370.045 45.2258 370.504 48.5047 370.504 52.097V92.6347H358.224V52.097C358.224 47.544 357.18 44.0145 355.091 41.5083C353.003 38.9603 349.807 37.6863 345.505 37.6863C342.372 37.6863 339.427 38.4382 336.671 39.9419C333.956 41.4038 331.428 43.4088 329.089 45.9568V92.6347H316.872V28.9773H324.202C325.915 28.9773 326.98 29.7918 327.398 31.4208L328.338 37.8116Z"/>
<path d="M431.602 40.8817C431.226 41.3412 430.85 41.7171 430.474 42.0095C430.14 42.2601 429.638 42.3854 428.97 42.3854C428.302 42.3854 427.592 42.1348 426.84 41.6336C426.13 41.0906 425.211 40.5267 424.083 39.9419C422.997 39.3154 421.66 38.7515 420.073 38.2502C418.528 37.7072 416.606 37.4357 414.309 37.4357C411.301 37.4357 408.649 37.9787 406.352 39.0647C404.054 40.1507 402.133 41.6962 400.587 43.7012C399.084 45.7062 397.935 48.1497 397.141 51.0318C396.348 53.9139 395.951 57.1511 395.951 60.7433C395.951 64.4609 396.369 67.7816 397.204 70.7055C398.039 73.5876 399.23 76.0311 400.775 78.0361C402.321 79.9993 404.2 81.503 406.414 82.5472C408.628 83.5497 411.093 84.051 413.808 84.051C416.439 84.051 418.611 83.7377 420.324 83.1111C422.036 82.4428 423.456 81.7327 424.584 80.9809C425.712 80.229 426.652 79.5398 427.404 78.9133C428.156 78.2449 428.928 77.9108 429.722 77.9108C430.724 77.9108 431.497 78.2867 432.04 79.0386L435.549 83.5497C434.087 85.3458 432.437 86.8704 430.599 88.1235C428.803 89.3766 426.882 90.4 424.835 91.1936C422.788 91.9872 420.637 92.572 418.381 92.9479C416.168 93.3239 413.912 93.5118 411.615 93.5118C407.647 93.5118 403.929 92.7809 400.462 91.3189C397.037 89.857 394.05 87.7267 391.502 84.9281C388.996 82.1295 387.012 78.7044 385.55 74.6527C384.088 70.5593 383.357 65.9228 383.357 60.7433C383.357 56.0233 384.005 51.6584 385.3 47.6484C386.636 43.6385 388.579 40.1925 391.126 37.3104C393.716 34.3865 396.891 32.11 400.65 30.481C404.409 28.8102 408.712 27.9748 413.557 27.9748C418.11 27.9748 422.12 28.7058 425.587 30.1677C429.054 31.6297 432.145 33.6973 434.86 36.3706L431.602 40.8817Z"/>
<path d="M459.736 28.9773V92.6347H447.518V28.9773H459.736ZM462.054 9.30365C462.054 10.4314 461.824 11.5175 461.365 12.5617C460.905 13.5642 460.279 14.4622 459.485 15.2559C458.733 16.0077 457.835 16.6134 456.791 17.0729C455.747 17.4906 454.661 17.6994 453.533 17.6994C452.405 17.6994 451.34 17.4906 450.337 17.0729C449.335 16.6134 448.437 16.0077 447.643 15.2559C446.891 14.4622 446.286 13.5642 445.826 12.5617C445.409 11.5175 445.2 10.4314 445.2 9.30365C445.2 8.13409 445.409 7.04808 445.826 6.0456C446.286 5.00135 446.891 4.1033 447.643 3.35144C448.437 2.55781 449.335 1.95214 450.337 1.53444C451.34 1.07498 452.405 0.845243 453.533 0.845243C454.661 0.845243 455.747 1.07498 456.791 1.53444C457.835 1.95214 458.733 2.55781 459.485 3.35144C460.279 4.1033 460.905 5.00135 461.365 6.0456C461.824 7.04808 462.054 8.13409 462.054 9.30365Z"/>
<path d="M489.956 0.156036V92.6347H477.675V0.156036H489.956Z"/>
<path d="M505.401 85.3041C505.401 84.1763 505.61 83.1111 506.028 82.1086C506.445 81.1062 507.009 80.229 507.719 79.4771C508.471 78.7253 509.348 78.1405 510.351 77.7228C511.353 77.2633 512.439 77.0336 513.609 77.0336C514.737 77.0336 515.802 77.2633 516.804 77.7228C517.807 78.1405 518.684 78.7253 519.436 79.4771C520.188 80.229 520.773 81.1062 521.19 82.1086C521.65 83.1111 521.879 84.1763 521.879 85.3041C521.879 86.4736 521.65 87.5596 521.19 88.5621C520.773 89.5646 520.188 90.4418 519.436 91.1936C518.684 91.9455 517.807 92.5302 516.804 92.9479C515.802 93.3656 514.737 93.5745 513.609 93.5745C512.439 93.5745 511.353 93.3656 510.351 92.9479C509.348 92.5302 508.471 91.9455 507.719 91.1936C507.009 90.4418 506.445 89.5646 506.028 88.5621C505.61 87.5596 505.401 86.4736 505.401 85.3041Z"/>
<path d="M549.802 28.9773V92.6347H537.584V28.9773H549.802ZM552.12 9.30365C552.12 10.4314 551.89 11.5175 551.431 12.5617C550.972 13.5642 550.345 14.4622 549.551 15.2559C548.8 16.0077 547.901 16.6134 546.857 17.0729C545.813 17.4906 544.727 17.6994 543.599 17.6994C542.471 17.6994 541.406 17.4906 540.404 17.0729C539.401 16.6134 538.503 16.0077 537.71 15.2559C536.958 14.4622 536.352 13.5642 535.893 12.5617C535.475 11.5175 535.266 10.4314 535.266 9.30365C535.266 8.13409 535.475 7.04808 535.893 6.0456C536.352 5.00135 536.958 4.1033 537.71 3.35144C538.503 2.55781 539.401 1.95214 540.404 1.53444C541.406 1.07498 542.471 0.845243 543.599 0.845243C544.727 0.845243 545.813 1.07498 546.857 1.53444C547.901 1.95214 548.8 2.55781 549.551 3.35144C550.345 4.1033 550.972 5.00135 551.431 6.0456C551.89 7.04808 552.12 8.13409 552.12 9.30365Z"/>
<path d="M594.621 27.9748C599.299 27.9748 603.518 28.7476 607.277 30.293C611.078 31.7968 614.294 33.9897 616.926 36.8718C619.599 39.7122 621.646 43.1582 623.066 47.2099C624.486 51.2198 625.196 55.7309 625.196 60.7433C625.196 65.7557 624.486 70.2878 623.066 74.3394C621.646 78.3911 619.599 81.8371 616.926 84.6775C614.294 87.5178 611.078 89.7108 607.277 91.2563C603.518 92.76 599.299 93.5118 594.621 93.5118C589.901 93.5118 585.64 92.76 581.839 91.2563C578.08 89.7108 574.864 87.5178 572.19 84.6775C569.517 81.8371 567.449 78.3911 565.988 74.3394C564.567 70.2878 563.857 65.7557 563.857 60.7433C563.857 55.7309 564.567 51.2198 565.988 47.2099C567.449 43.1582 569.517 39.7122 572.19 36.8718C574.864 33.9897 578.08 31.7968 581.839 30.293C585.64 28.7476 589.901 27.9748 594.621 27.9748ZM594.621 83.9883C600.636 83.9883 605.126 81.9625 608.092 77.9108C611.057 73.8591 612.54 68.1575 612.54 60.806C612.54 53.4545 611.057 47.7529 608.092 43.7012C605.126 39.6077 600.636 37.561 594.621 37.561C588.522 37.561 583.969 39.6077 580.962 43.7012C577.996 47.7529 576.514 53.4545 576.514 60.806C576.514 68.1575 577.996 73.8591 580.962 77.9108C583.969 81.9625 588.522 83.9883 594.621 83.9883Z"/>
</mask>
<path d="M11.3321 41.195C13.3788 37.018 15.8433 33.7391 18.7254 31.3582C21.6075 28.9773 25.0744 27.7868 29.1261 27.7868C30.5045 27.7868 31.7994 27.9539 33.0107 28.2881C34.2638 28.5805 35.3498 29.0399 36.2688 29.6665L35.4543 38.8768C35.1619 40.0046 34.4727 40.5685 33.3866 40.5685C32.8019 40.5685 31.9247 40.464 30.7551 40.2552C29.5856 40.0046 28.3325 39.8792 26.9958 39.8792C25.0327 39.8792 23.2992 40.1716 21.7955 40.7564C20.2918 41.2994 18.9342 42.1348 17.7229 43.2626C16.5534 44.3486 15.5091 45.7062 14.5902 47.3352C13.6712 48.9224 12.815 50.7394 12.0213 52.7862V92.6347H-0.196381V28.9773H6.82097C8.15761 28.9773 9.05566 29.2279 9.51513 29.7292C10.0164 30.1886 10.3714 31.024 10.5803 32.2353L11.3321 41.195Z" fill="black"/>
<path d="M85.5351 53.726C85.5351 51.3033 85.1801 49.0686 84.47 47.0219C83.8016 44.9752 82.7992 43.2 81.4625 41.6962C80.1259 40.1925 78.4969 39.023 76.5755 38.1876C74.654 37.3522 72.4402 36.9345 69.934 36.9345C64.7963 36.9345 60.7446 38.4173 57.779 41.383C54.8551 44.3486 52.9963 48.463 52.2027 53.726H85.5351ZM95.6225 83.5497C94.1188 85.304 92.3854 86.8286 90.4222 88.1235C88.459 89.3766 86.3705 90.4 84.1567 91.1936C81.9429 91.9872 79.6455 92.572 77.2646 92.9479C74.9255 93.3239 72.6073 93.5118 70.31 93.5118C65.9241 93.5118 61.8515 92.7809 58.0922 91.3189C54.3747 89.8152 51.1376 87.6432 48.3807 84.8028C45.6657 81.9207 43.5354 78.3702 41.9899 74.1515C40.4862 69.8909 39.7344 65.0039 39.7344 59.4902C39.7344 55.0626 40.4236 50.9483 41.802 47.1472C43.1804 43.3044 45.1436 39.9628 47.6915 37.1224C50.2813 34.2821 53.4349 32.0474 57.1524 30.4184C60.87 28.7893 65.0469 27.9748 69.6834 27.9748C73.568 27.9748 77.1393 28.6222 80.3974 29.9171C83.6972 31.1702 86.5376 33.0081 88.9185 35.4307C91.2993 37.8534 93.1581 40.84 94.4947 44.3904C95.8732 47.9408 96.5624 51.9925 96.5624 56.5454C96.5624 58.4251 96.3535 59.6991 95.9358 60.3674C95.5181 60.9939 94.7454 61.3072 93.6176 61.3072H51.8894C52.0147 65.1083 52.5577 68.429 53.5184 71.2693C54.4792 74.0679 55.7949 76.407 57.4657 78.2867C59.1783 80.1663 61.2041 81.5656 63.5432 82.4846C65.8823 83.4035 68.493 83.863 71.3751 83.863C74.0901 83.863 76.4293 83.5497 78.3924 82.9232C80.3974 82.2966 82.11 81.6283 83.5301 80.9182C84.9921 80.1664 86.2034 79.4771 87.1641 78.8506C88.1666 78.224 89.0438 77.9108 89.7956 77.9108C90.7981 77.9108 91.5708 78.2867 92.1138 79.0386L95.6225 83.5497Z" fill="black"/>
<path d="M150.733 44.3904C148.728 41.7589 146.556 39.921 144.217 38.8768C141.92 37.8325 139.33 37.3104 136.448 37.3104C130.851 37.3104 126.507 39.3362 123.416 43.3879C120.367 47.3978 118.842 53.2665 118.842 60.9939C118.842 65.0456 119.176 68.5125 119.845 71.3947C120.555 74.235 121.557 76.5741 122.852 78.412C124.189 80.2081 125.818 81.5448 127.739 82.4219C129.66 83.2573 131.832 83.675 134.255 83.675C137.806 83.675 140.876 82.8814 143.465 81.2941C146.055 79.7069 148.478 77.4722 150.733 74.5901V44.3904ZM163.014 0.156036V92.6347H155.62C153.908 92.6347 152.843 91.8202 152.425 90.1911L151.36 82.8605C148.645 86.0768 145.554 88.6665 142.087 90.6297C138.662 92.5511 134.694 93.5118 130.183 93.5118C126.549 93.5118 123.249 92.8017 120.283 91.3816C117.359 89.9614 114.853 87.8938 112.765 85.1787C110.676 82.4219 109.068 79.0177 107.94 74.966C106.812 70.9143 106.248 66.257 106.248 60.9939C106.248 56.2739 106.875 51.8881 108.128 47.8364C109.381 43.7847 111.198 40.2761 113.579 37.3104C115.96 34.3447 118.842 32.0265 122.225 30.3557C125.609 28.6431 129.431 27.7868 133.691 27.7868C137.534 27.7868 140.792 28.4134 143.465 29.6665C146.18 30.9196 148.603 32.6948 150.733 34.9922V0.156036H163.014Z" fill="black"/>
<path d="M192.277 76.9709C194.281 79.6025 196.433 81.4403 198.73 82.4846C201.069 83.5288 203.68 84.051 206.562 84.051C212.159 84.051 216.482 82.046 219.531 78.0361C222.622 73.9844 224.168 68.0948 224.168 60.3674C224.168 56.3157 223.813 52.8697 223.103 50.0293C222.434 47.1472 221.432 44.8081 220.095 43.012C218.8 41.1741 217.192 39.8375 215.271 39.0021C213.349 38.1249 211.177 37.6863 208.755 37.6863C205.204 37.6863 202.113 38.48 199.482 40.0672C196.892 41.6545 194.49 43.91 192.277 46.8339V76.9709ZM191.65 38.5008C192.987 36.9136 194.407 35.4725 195.91 34.1776C197.456 32.841 199.106 31.7132 200.86 30.7943C202.615 29.8336 204.473 29.1026 206.437 28.6014C208.441 28.0584 210.572 27.7868 212.827 27.7868C216.461 27.7868 219.74 28.4969 222.664 29.9171C225.63 31.3373 228.157 33.4258 230.245 36.1826C232.334 38.9394 233.942 42.3437 235.07 46.3954C236.239 50.447 236.824 55.1044 236.824 60.3674C236.824 65.0874 236.177 69.4732 234.882 73.5249C233.629 77.5348 231.812 81.0226 229.431 83.9883C227.092 86.954 224.21 89.2931 220.784 91.0057C217.401 92.6764 213.579 93.5118 209.319 93.5118C205.518 93.5118 202.26 92.8853 199.544 91.6322C196.829 90.3791 194.407 88.6248 192.277 86.3692V114H180.059V28.9773H187.389C189.102 28.9773 190.167 29.7918 190.585 31.4208L191.65 38.5008Z" fill="black"/>
<path d="M292.712 53.726C292.712 51.3033 292.357 49.0686 291.647 47.0219C290.979 44.9752 289.976 43.2 288.64 41.6962C287.303 40.1925 285.674 39.023 283.753 38.1876C281.831 37.3522 279.617 36.9345 277.111 36.9345C271.974 36.9345 267.922 38.4173 264.956 41.383C262.032 44.3486 260.174 48.463 259.38 53.726H292.712ZM302.8 83.5497C301.296 85.304 299.563 86.8286 297.599 88.1235C295.636 89.3766 293.548 90.4 291.334 91.1936C289.12 91.9872 286.823 92.572 284.442 92.9479C282.103 93.3239 279.785 93.5118 277.487 93.5118C273.101 93.5118 269.029 92.7809 265.269 91.3189C261.552 89.8152 258.315 87.6432 255.558 84.8028C252.843 81.9207 250.713 78.3702 249.167 74.1515C247.663 69.8909 246.912 65.0039 246.912 59.4902C246.912 55.0626 247.601 50.9483 248.979 47.1472C250.358 43.3044 252.321 39.9628 254.869 37.1224C257.458 34.2821 260.612 32.0474 264.33 30.4184C268.047 28.7893 272.224 27.9748 276.861 27.9748C280.745 27.9748 284.317 28.6222 287.575 29.9171C290.874 31.1702 293.715 33.0081 296.096 35.4307C298.477 37.8534 300.335 40.84 301.672 44.3904C303.05 47.9408 303.74 51.9925 303.74 56.5454C303.74 58.4251 303.531 59.6991 303.113 60.3674C302.695 60.9939 301.923 61.3072 300.795 61.3072H259.067C259.192 65.1083 259.735 68.429 260.696 71.2693C261.656 74.0679 262.972 76.407 264.643 78.2867C266.355 80.1663 268.381 81.5656 270.72 82.4846C273.06 83.4035 275.67 83.863 278.552 83.863C281.267 83.863 283.606 83.5497 285.57 82.9232C287.575 82.2966 289.287 81.6283 290.707 80.9182C292.169 80.1664 293.381 79.4771 294.341 78.8506C295.344 78.224 296.221 77.9108 296.973 77.9108C297.975 77.9108 298.748 78.2867 299.291 79.0386L302.8 83.5497Z" fill="black"/>
<path d="M328.338 37.8116C329.716 36.3497 331.157 35.013 332.661 33.8017C334.164 32.5904 335.752 31.567 337.422 30.7316C339.135 29.8545 340.952 29.1861 342.873 28.7267C344.837 28.2254 346.925 27.9748 349.139 27.9748C352.648 27.9748 355.718 28.5596 358.349 29.7292C361.022 30.8987 363.257 32.5486 365.053 34.6789C366.849 36.7674 368.207 39.2945 369.126 42.2601C370.045 45.2258 370.504 48.5047 370.504 52.097V92.6347H358.224V52.097C358.224 47.544 357.18 44.0145 355.091 41.5083C353.003 38.9603 349.807 37.6863 345.505 37.6863C342.372 37.6863 339.427 38.4382 336.671 39.9419C333.956 41.4038 331.428 43.4088 329.089 45.9568V92.6347H316.872V28.9773H324.202C325.915 28.9773 326.98 29.7918 327.398 31.4208L328.338 37.8116Z" fill="black"/>
<path d="M431.602 40.8817C431.226 41.3412 430.85 41.7171 430.474 42.0095C430.14 42.2601 429.638 42.3854 428.97 42.3854C428.302 42.3854 427.592 42.1348 426.84 41.6336C426.13 41.0906 425.211 40.5267 424.083 39.9419C422.997 39.3154 421.66 38.7515 420.073 38.2502C418.528 37.7072 416.606 37.4357 414.309 37.4357C411.301 37.4357 408.649 37.9787 406.352 39.0647C404.054 40.1507 402.133 41.6962 400.587 43.7012C399.084 45.7062 397.935 48.1497 397.141 51.0318C396.348 53.9139 395.951 57.1511 395.951 60.7433C395.951 64.4609 396.369 67.7816 397.204 70.7055C398.039 73.5876 399.23 76.0311 400.775 78.0361C402.321 79.9993 404.2 81.503 406.414 82.5472C408.628 83.5497 411.093 84.051 413.808 84.051C416.439 84.051 418.611 83.7377 420.324 83.1111C422.036 82.4428 423.456 81.7327 424.584 80.9809C425.712 80.229 426.652 79.5398 427.404 78.9133C428.156 78.2449 428.928 77.9108 429.722 77.9108C430.724 77.9108 431.497 78.2867 432.04 79.0386L435.549 83.5497C434.087 85.3458 432.437 86.8704 430.599 88.1235C428.803 89.3766 426.882 90.4 424.835 91.1936C422.788 91.9872 420.637 92.572 418.381 92.9479C416.168 93.3239 413.912 93.5118 411.615 93.5118C407.647 93.5118 403.929 92.7809 400.462 91.3189C397.037 89.857 394.05 87.7267 391.502 84.9281C388.996 82.1295 387.012 78.7044 385.55 74.6527C384.088 70.5593 383.357 65.9228 383.357 60.7433C383.357 56.0233 384.005 51.6584 385.3 47.6484C386.636 43.6385 388.579 40.1925 391.126 37.3104C393.716 34.3865 396.891 32.11 400.65 30.481C404.409 28.8102 408.712 27.9748 413.557 27.9748C418.11 27.9748 422.12 28.7058 425.587 30.1677C429.054 31.6297 432.145 33.6973 434.86 36.3706L431.602 40.8817Z" fill="black"/>
<path d="M459.736 28.9773V92.6347H447.518V28.9773H459.736ZM462.054 9.30365C462.054 10.4314 461.824 11.5175 461.365 12.5617C460.905 13.5642 460.279 14.4622 459.485 15.2559C458.733 16.0077 457.835 16.6134 456.791 17.0729C455.747 17.4906 454.661 17.6994 453.533 17.6994C452.405 17.6994 451.34 17.4906 450.337 17.0729C449.335 16.6134 448.437 16.0077 447.643 15.2559C446.891 14.4622 446.286 13.5642 445.826 12.5617C445.409 11.5175 445.2 10.4314 445.2 9.30365C445.2 8.13409 445.409 7.04808 445.826 6.0456C446.286 5.00135 446.891 4.1033 447.643 3.35144C448.437 2.55781 449.335 1.95214 450.337 1.53444C451.34 1.07498 452.405 0.845243 453.533 0.845243C454.661 0.845243 455.747 1.07498 456.791 1.53444C457.835 1.95214 458.733 2.55781 459.485 3.35144C460.279 4.1033 460.905 5.00135 461.365 6.0456C461.824 7.04808 462.054 8.13409 462.054 9.30365Z" fill="black"/>
<path d="M489.956 0.156036V92.6347H477.675V0.156036H489.956Z" fill="black"/>
<path d="M505.401 85.3041C505.401 84.1763 505.61 83.1111 506.028 82.1086C506.445 81.1062 507.009 80.229 507.719 79.4771C508.471 78.7253 509.348 78.1405 510.351 77.7228C511.353 77.2633 512.439 77.0336 513.609 77.0336C514.737 77.0336 515.802 77.2633 516.804 77.7228C517.807 78.1405 518.684 78.7253 519.436 79.4771C520.188 80.229 520.773 81.1062 521.19 82.1086C521.65 83.1111 521.879 84.1763 521.879 85.3041C521.879 86.4736 521.65 87.5596 521.19 88.5621C520.773 89.5646 520.188 90.4418 519.436 91.1936C518.684 91.9455 517.807 92.5302 516.804 92.9479C515.802 93.3656 514.737 93.5745 513.609 93.5745C512.439 93.5745 511.353 93.3656 510.351 92.9479C509.348 92.5302 508.471 91.9455 507.719 91.1936C507.009 90.4418 506.445 89.5646 506.028 88.5621C505.61 87.5596 505.401 86.4736 505.401 85.3041Z" fill="black"/>
<path d="M549.802 28.9773V92.6347H537.584V28.9773H549.802ZM552.12 9.30365C552.12 10.4314 551.89 11.5175 551.431 12.5617C550.972 13.5642 550.345 14.4622 549.551 15.2559C548.8 16.0077 547.901 16.6134 546.857 17.0729C545.813 17.4906 544.727 17.6994 543.599 17.6994C542.471 17.6994 541.406 17.4906 540.404 17.0729C539.401 16.6134 538.503 16.0077 537.71 15.2559C536.958 14.4622 536.352 13.5642 535.893 12.5617C535.475 11.5175 535.266 10.4314 535.266 9.30365C535.266 8.13409 535.475 7.04808 535.893 6.0456C536.352 5.00135 536.958 4.1033 537.71 3.35144C538.503 2.55781 539.401 1.95214 540.404 1.53444C541.406 1.07498 542.471 0.845243 543.599 0.845243C544.727 0.845243 545.813 1.07498 546.857 1.53444C547.901 1.95214 548.8 2.55781 549.551 3.35144C550.345 4.1033 550.972 5.00135 551.431 6.0456C551.89 7.04808 552.12 8.13409 552.12 9.30365Z" fill="black"/>
<path d="M594.621 27.9748C599.299 27.9748 603.518 28.7476 607.277 30.293C611.078 31.7968 614.294 33.9897 616.926 36.8718C619.599 39.7122 621.646 43.1582 623.066 47.2099C624.486 51.2198 625.196 55.7309 625.196 60.7433C625.196 65.7557 624.486 70.2878 623.066 74.3394C621.646 78.3911 619.599 81.8371 616.926 84.6775C614.294 87.5178 611.078 89.7108 607.277 91.2563C603.518 92.76 599.299 93.5118 594.621 93.5118C589.901 93.5118 585.64 92.76 581.839 91.2563C578.08 89.7108 574.864 87.5178 572.19 84.6775C569.517 81.8371 567.449 78.3911 565.988 74.3394C564.567 70.2878 563.857 65.7557 563.857 60.7433C563.857 55.7309 564.567 51.2198 565.988 47.2099C567.449 43.1582 569.517 39.7122 572.19 36.8718C574.864 33.9897 578.08 31.7968 581.839 30.293C585.64 28.7476 589.901 27.9748 594.621 27.9748ZM594.621 83.9883C600.636 83.9883 605.126 81.9625 608.092 77.9108C611.057 73.8591 612.54 68.1575 612.54 60.806C612.54 53.4545 611.057 47.7529 608.092 43.7012C605.126 39.6077 600.636 37.561 594.621 37.561C588.522 37.561 583.969 39.6077 580.962 43.7012C577.996 47.7529 576.514 53.4545 576.514 60.806C576.514 68.1575 577.996 73.8591 580.962 77.9108C583.969 81.9625 588.522 83.9883 594.621 83.9883Z" fill="black"/>
<path d="M11.3321 41.195C13.3788 37.018 15.8433 33.7391 18.7254 31.3582C21.6075 28.9773 25.0744 27.7868 29.1261 27.7868C30.5045 27.7868 31.7994 27.9539 33.0107 28.2881C34.2638 28.5805 35.3498 29.0399 36.2688 29.6665L35.4543 38.8768C35.1619 40.0046 34.4727 40.5685 33.3866 40.5685C32.8019 40.5685 31.9247 40.464 30.7551 40.2552C29.5856 40.0046 28.3325 39.8792 26.9958 39.8792C25.0327 39.8792 23.2992 40.1716 21.7955 40.7564C20.2918 41.2994 18.9342 42.1348 17.7229 43.2626C16.5534 44.3486 15.5091 45.7062 14.5902 47.3352C13.6712 48.9224 12.815 50.7394 12.0213 52.7862V92.6347H-0.196381V28.9773H6.82097C8.15761 28.9773 9.05566 29.2279 9.51513 29.7292C10.0164 30.1886 10.3714 31.024 10.5803 32.2353L11.3321 41.195Z" stroke="black" stroke-width="2" mask="url(#path-1-outside-1)"/>
<path d="M85.5351 53.726C85.5351 51.3033 85.1801 49.0686 84.47 47.0219C83.8016 44.9752 82.7992 43.2 81.4625 41.6962C80.1259 40.1925 78.4969 39.023 76.5755 38.1876C74.654 37.3522 72.4402 36.9345 69.934 36.9345C64.7963 36.9345 60.7446 38.4173 57.779 41.383C54.8551 44.3486 52.9963 48.463 52.2027 53.726H85.5351ZM95.6225 83.5497C94.1188 85.304 92.3854 86.8286 90.4222 88.1235C88.459 89.3766 86.3705 90.4 84.1567 91.1936C81.9429 91.9872 79.6455 92.572 77.2646 92.9479C74.9255 93.3239 72.6073 93.5118 70.31 93.5118C65.9241 93.5118 61.8515 92.7809 58.0922 91.3189C54.3747 89.8152 51.1376 87.6432 48.3807 84.8028C45.6657 81.9207 43.5354 78.3702 41.9899 74.1515C40.4862 69.8909 39.7344 65.0039 39.7344 59.4902C39.7344 55.0626 40.4236 50.9483 41.802 47.1472C43.1804 43.3044 45.1436 39.9628 47.6915 37.1224C50.2813 34.2821 53.4349 32.0474 57.1524 30.4184C60.87 28.7893 65.0469 27.9748 69.6834 27.9748C73.568 27.9748 77.1393 28.6222 80.3974 29.9171C83.6972 31.1702 86.5376 33.0081 88.9185 35.4307C91.2993 37.8534 93.1581 40.84 94.4947 44.3904C95.8732 47.9408 96.5624 51.9925 96.5624 56.5454C96.5624 58.4251 96.3535 59.6991 95.9358 60.3674C95.5181 60.9939 94.7454 61.3072 93.6176 61.3072H51.8894C52.0147 65.1083 52.5577 68.429 53.5184 71.2693C54.4792 74.0679 55.7949 76.407 57.4657 78.2867C59.1783 80.1663 61.2041 81.5656 63.5432 82.4846C65.8823 83.4035 68.493 83.863 71.3751 83.863C74.0901 83.863 76.4293 83.5497 78.3924 82.9232C80.3974 82.2966 82.11 81.6283 83.5301 80.9182C84.9921 80.1664 86.2034 79.4771 87.1641 78.8506C88.1666 78.224 89.0438 77.9108 89.7956 77.9108C90.7981 77.9108 91.5708 78.2867 92.1138 79.0386L95.6225 83.5497Z" stroke="black" stroke-width="2" mask="url(#path-1-outside-1)"/>
<path d="M150.733 44.3904C148.728 41.7589 146.556 39.921 144.217 38.8768C141.92 37.8325 139.33 37.3104 136.448 37.3104C130.851 37.3104 126.507 39.3362 123.416 43.3879C120.367 47.3978 118.842 53.2665 118.842 60.9939C118.842 65.0456 119.176 68.5125 119.845 71.3947C120.555 74.235 121.557 76.5741 122.852 78.412C124.189 80.2081 125.818 81.5448 127.739 82.4219C129.66 83.2573 131.832 83.675 134.255 83.675C137.806 83.675 140.876 82.8814 143.465 81.2941C146.055 79.7069 148.478 77.4722 150.733 74.5901V44.3904ZM163.014 0.156036V92.6347H155.62C153.908 92.6347 152.843 91.8202 152.425 90.1911L151.36 82.8605C148.645 86.0768 145.554 88.6665 142.087 90.6297C138.662 92.5511 134.694 93.5118 130.183 93.5118C126.549 93.5118 123.249 92.8017 120.283 91.3816C117.359 89.9614 114.853 87.8938 112.765 85.1787C110.676 82.4219 109.068 79.0177 107.94 74.966C106.812 70.9143 106.248 66.257 106.248 60.9939C106.248 56.2739 106.875 51.8881 108.128 47.8364C109.381 43.7847 111.198 40.2761 113.579 37.3104C115.96 34.3447 118.842 32.0265 122.225 30.3557C125.609 28.6431 129.431 27.7868 133.691 27.7868C137.534 27.7868 140.792 28.4134 143.465 29.6665C146.18 30.9196 148.603 32.6948 150.733 34.9922V0.156036H163.014Z" stroke="black" stroke-width="2" mask="url(#path-1-outside-1)"/>
<path d="M192.277 76.9709C194.281 79.6025 196.433 81.4403 198.73 82.4846C201.069 83.5288 203.68 84.051 206.562 84.051C212.159 84.051 216.482 82.046 219.531 78.0361C222.622 73.9844 224.168 68.0948 224.168 60.3674C224.168 56.3157 223.813 52.8697 223.103 50.0293C222.434 47.1472 221.432 44.8081 220.095 43.012C218.8 41.1741 217.192 39.8375 215.271 39.0021C213.349 38.1249 211.177 37.6863 208.755 37.6863C205.204 37.6863 202.113 38.48 199.482 40.0672C196.892 41.6545 194.49 43.91 192.277 46.8339V76.9709ZM191.65 38.5008C192.987 36.9136 194.407 35.4725 195.91 34.1776C197.456 32.841 199.106 31.7132 200.86 30.7943C202.615 29.8336 204.473 29.1026 206.437 28.6014C208.441 28.0584 210.572 27.7868 212.827 27.7868C216.461 27.7868 219.74 28.4969 222.664 29.9171C225.63 31.3373 228.157 33.4258 230.245 36.1826C232.334 38.9394 233.942 42.3437 235.07 46.3954C236.239 50.447 236.824 55.1044 236.824 60.3674C236.824 65.0874 236.177 69.4732 234.882 73.5249C233.629 77.5348 231.812 81.0226 229.431 83.9883C227.092 86.954 224.21 89.2931 220.784 91.0057C217.401 92.6764 213.579 93.5118 209.319 93.5118C205.518 93.5118 202.26 92.8853 199.544 91.6322C196.829 90.3791 194.407 88.6248 192.277 86.3692V114H180.059V28.9773H187.389C189.102 28.9773 190.167 29.7918 190.585 31.4208L191.65 38.5008Z" stroke="black" stroke-width="2" mask="url(#path-1-outside-1)"/>
<path d="M292.712 53.726C292.712 51.3033 292.357 49.0686 291.647 47.0219C290.979 44.9752 289.976 43.2 288.64 41.6962C287.303 40.1925 285.674 39.023 283.753 38.1876C281.831 37.3522 279.617 36.9345 277.111 36.9345C271.974 36.9345 267.922 38.4173 264.956 41.383C262.032 44.3486 260.174 48.463 259.38 53.726H292.712ZM302.8 83.5497C301.296 85.304 299.563 86.8286 297.599 88.1235C295.636 89.3766 293.548 90.4 291.334 91.1936C289.12 91.9872 286.823 92.572 284.442 92.9479C282.103 93.3239 279.785 93.5118 277.487 93.5118C273.101 93.5118 269.029 92.7809 265.269 91.3189C261.552 89.8152 258.315 87.6432 255.558 84.8028C252.843 81.9207 250.713 78.3702 249.167 74.1515C247.663 69.8909 246.912 65.0039 246.912 59.4902C246.912 55.0626 247.601 50.9483 248.979 47.1472C250.358 43.3044 252.321 39.9628 254.869 37.1224C257.458 34.2821 260.612 32.0474 264.33 30.4184C268.047 28.7893 272.224 27.9748 276.861 27.9748C280.745 27.9748 284.317 28.6222 287.575 29.9171C290.874 31.1702 293.715 33.0081 296.096 35.4307C298.477 37.8534 300.335 40.84 301.672 44.3904C303.05 47.9408 303.74 51.9925 303.74 56.5454C303.74 58.4251 303.531 59.6991 303.113 60.3674C302.695 60.9939 301.923 61.3072 300.795 61.3072H259.067C259.192 65.1083 259.735 68.429 260.696 71.2693C261.656 74.0679 262.972 76.407 264.643 78.2867C266.355 80.1663 268.381 81.5656 270.72 82.4846C273.06 83.4035 275.67 83.863 278.552 83.863C281.267 83.863 283.606 83.5497 285.57 82.9232C287.575 82.2966 289.287 81.6283 290.707 80.9182C292.169 80.1664 293.381 79.4771 294.341 78.8506C295.344 78.224 296.221 77.9108 296.973 77.9108C297.975 77.9108 298.748 78.2867 299.291 79.0386L302.8 83.5497Z" stroke="black" stroke-width="2" mask="url(#path-1-outside-1)"/>
<path d="M328.338 37.8116C329.716 36.3497 331.157 35.013 332.661 33.8017C334.164 32.5904 335.752 31.567 337.422 30.7316C339.135 29.8545 340.952 29.1861 342.873 28.7267C344.837 28.2254 346.925 27.9748 349.139 27.9748C352.648 27.9748 355.718 28.5596 358.349 29.7292C361.022 30.8987 363.257 32.5486 365.053 34.6789C366.849 36.7674 368.207 39.2945 369.126 42.2601C370.045 45.2258 370.504 48.5047 370.504 52.097V92.6347H358.224V52.097C358.224 47.544 357.18 44.0145 355.091 41.5083C353.003 38.9603 349.807 37.6863 345.505 37.6863C342.372 37.6863 339.427 38.4382 336.671 39.9419C333.956 41.4038 331.428 43.4088 329.089 45.9568V92.6347H316.872V28.9773H324.202C325.915 28.9773 326.98 29.7918 327.398 31.4208L328.338 37.8116Z" stroke="black" stroke-width="2" mask="url(#path-1-outside-1)"/>
<path d="M431.602 40.8817C431.226 41.3412 430.85 41.7171 430.474 42.0095C430.14 42.2601 429.638 42.3854 428.97 42.3854C428.302 42.3854 427.592 42.1348 426.84 41.6336C426.13 41.0906 425.211 40.5267 424.083 39.9419C422.997 39.3154 421.66 38.7515 420.073 38.2502C418.528 37.7072 416.606 37.4357 414.309 37.4357C411.301 37.4357 408.649 37.9787 406.352 39.0647C404.054 40.1507 402.133 41.6962 400.587 43.7012C399.084 45.7062 397.935 48.1497 397.141 51.0318C396.348 53.9139 395.951 57.1511 395.951 60.7433C395.951 64.4609 396.369 67.7816 397.204 70.7055C398.039 73.5876 399.23 76.0311 400.775 78.0361C402.321 79.9993 404.2 81.503 406.414 82.5472C408.628 83.5497 411.093 84.051 413.808 84.051C416.439 84.051 418.611 83.7377 420.324 83.1111C422.036 82.4428 423.456 81.7327 424.584 80.9809C425.712 80.229 426.652 79.5398 427.404 78.9133C428.156 78.2449 428.928 77.9108 429.722 77.9108C430.724 77.9108 431.497 78.2867 432.04 79.0386L435.549 83.5497C434.087 85.3458 432.437 86.8704 430.599 88.1235C428.803 89.3766 426.882 90.4 424.835 91.1936C422.788 91.9872 420.637 92.572 418.381 92.9479C416.168 93.3239 413.912 93.5118 411.615 93.5118C407.647 93.5118 403.929 92.7809 400.462 91.3189C397.037 89.857 394.05 87.7267 391.502 84.9281C388.996 82.1295 387.012 78.7044 385.55 74.6527C384.088 70.5593 383.357 65.9228 383.357 60.7433C383.357 56.0233 384.005 51.6584 385.3 47.6484C386.636 43.6385 388.579 40.1925 391.126 37.3104C393.716 34.3865 396.891 32.11 400.65 30.481C404.409 28.8102 408.712 27.9748 413.557 27.9748C418.11 27.9748 422.12 28.7058 425.587 30.1677C429.054 31.6297 432.145 33.6973 434.86 36.3706L431.602 40.8817Z" stroke="black" stroke-width="2" mask="url(#path-1-outside-1)"/>
<path d="M459.736 28.9773V92.6347H447.518V28.9773H459.736ZM462.054 9.30365C462.054 10.4314 461.824 11.5175 461.365 12.5617C460.905 13.5642 460.279 14.4622 459.485 15.2559C458.733 16.0077 457.835 16.6134 456.791 17.0729C455.747 17.4906 454.661 17.6994 453.533 17.6994C452.405 17.6994 451.34 17.4906 450.337 17.0729C449.335 16.6134 448.437 16.0077 447.643 15.2559C446.891 14.4622 446.286 13.5642 445.826 12.5617C445.409 11.5175 445.2 10.4314 445.2 9.30365C445.2 8.13409 445.409 7.04808 445.826 6.0456C446.286 5.00135 446.891 4.1033 447.643 3.35144C448.437 2.55781 449.335 1.95214 450.337 1.53444C451.34 1.07498 452.405 0.845243 453.533 0.845243C454.661 0.845243 455.747 1.07498 456.791 1.53444C457.835 1.95214 458.733 2.55781 459.485 3.35144C460.279 4.1033 460.905 5.00135 461.365 6.0456C461.824 7.04808 462.054 8.13409 462.054 9.30365Z" stroke="black" stroke-width="2" mask="url(#path-1-outside-1)"/>
<path d="M489.956 0.156036V92.6347H477.675V0.156036H489.956Z" stroke="black" stroke-width="2" mask="url(#path-1-outside-1)"/>
<path d="M505.401 85.3041C505.401 84.1763 505.61 83.1111 506.028 82.1086C506.445 81.1062 507.009 80.229 507.719 79.4771C508.471 78.7253 509.348 78.1405 510.351 77.7228C511.353 77.2633 512.439 77.0336 513.609 77.0336C514.737 77.0336 515.802 77.2633 516.804 77.7228C517.807 78.1405 518.684 78.7253 519.436 79.4771C520.188 80.229 520.773 81.1062 521.19 82.1086C521.65 83.1111 521.879 84.1763 521.879 85.3041C521.879 86.4736 521.65 87.5596 521.19 88.5621C520.773 89.5646 520.188 90.4418 519.436 91.1936C518.684 91.9455 517.807 92.5302 516.804 92.9479C515.802 93.3656 514.737 93.5745 513.609 93.5745C512.439 93.5745 511.353 93.3656 510.351 92.9479C509.348 92.5302 508.471 91.9455 507.719 91.1936C507.009 90.4418 506.445 89.5646 506.028 88.5621C505.61 87.5596 505.401 86.4736 505.401 85.3041Z" stroke="black" stroke-width="2" mask="url(#path-1-outside-1)"/>
<path d="M549.802 28.9773V92.6347H537.584V28.9773H549.802ZM552.12 9.30365C552.12 10.4314 551.89 11.5175 551.431 12.5617C550.972 13.5642 550.345 14.4622 549.551 15.2559C548.8 16.0077 547.901 16.6134 546.857 17.0729C545.813 17.4906 544.727 17.6994 543.599 17.6994C542.471 17.6994 541.406 17.4906 540.404 17.0729C539.401 16.6134 538.503 16.0077 537.71 15.2559C536.958 14.4622 536.352 13.5642 535.893 12.5617C535.475 11.5175 535.266 10.4314 535.266 9.30365C535.266 8.13409 535.475 7.04808 535.893 6.0456C536.352 5.00135 536.958 4.1033 537.71 3.35144C538.503 2.55781 539.401 1.95214 540.404 1.53444C541.406 1.07498 542.471 0.845243 543.599 0.845243C544.727 0.845243 545.813 1.07498 546.857 1.53444C547.901 1.95214 548.8 2.55781 549.551 3.35144C550.345 4.1033 550.972 5.00135 551.431 6.0456C551.89 7.04808 552.12 8.13409 552.12 9.30365Z" stroke="black" stroke-width="2" mask="url(#path-1-outside-1)"/>
<path d="M594.621 27.9748C599.299 27.9748 603.518 28.7476 607.277 30.293C611.078 31.7968 614.294 33.9897 616.926 36.8718C619.599 39.7122 621.646 43.1582 623.066 47.2099C624.486 51.2198 625.196 55.7309 625.196 60.7433C625.196 65.7557 624.486 70.2878 623.066 74.3394C621.646 78.3911 619.599 81.8371 616.926 84.6775C614.294 87.5178 611.078 89.7108 607.277 91.2563C603.518 92.76 599.299 93.5118 594.621 93.5118C589.901 93.5118 585.64 92.76 581.839 91.2563C578.08 89.7108 574.864 87.5178 572.19 84.6775C569.517 81.8371 567.449 78.3911 565.988 74.3394C564.567 70.2878 563.857 65.7557 563.857 60.7433C563.857 55.7309 564.567 51.2198 565.988 47.2099C567.449 43.1582 569.517 39.7122 572.19 36.8718C574.864 33.9897 578.08 31.7968 581.839 30.293C585.64 28.7476 589.901 27.9748 594.621 27.9748ZM594.621 83.9883C600.636 83.9883 605.126 81.9625 608.092 77.9108C611.057 73.8591 612.54 68.1575 612.54 60.806C612.54 53.4545 611.057 47.7529 608.092 43.7012C605.126 39.6077 600.636 37.561 594.621 37.561C588.522 37.561 583.969 39.6077 580.962 43.7012C577.996 47.7529 576.514 53.4545 576.514 60.806C576.514 68.1575 577.996 73.8591 580.962 77.9108C583.969 81.9625 588.522 83.9883 594.621 83.9883Z" stroke="black" stroke-width="2" mask="url(#path-1-outside-1)"/>
<ellipse cx="513.588" cy="85.2898" rx="9.33962" ry="9.36433" fill="#FF0000"/>
</g>
<defs>
<clipPath id="clip0">
<rect width="627" height="114" fill="white"/>
</clipPath>
</defs>
</svg>
