<svg width="585" height="254" viewBox="0 0 585 254" fill="none" xmlns="http://www.w3.org/2000/svg">
<line y1="-0.5" x2="92.0272" y2="-0.5" transform="matrix(-0.0293204 -0.99957 -0.99957 0.0293204 294.786 128.777)" stroke="#DCDCDC" stroke-dasharray="2 2"/>
<circle r="15.5" transform="matrix(-0.954525 -0.298132 -0.298132 0.954525 292.416 37.4162)" fill="url(#paint0_linear)"/>
<line x1="292.406" y1="126.708" x2="346.798" y2="202.202" stroke="#DCDCDC" stroke-dasharray="2 2"/>
<line x1="292.281" y1="127.28" x2="240.786" y2="203.551" stroke="#DCDCDC" stroke-dasharray="2 2"/>
<line x1="345.001" y1="203.5" x2="240.372" y2="203.771" stroke="#DCDCDC" stroke-dasharray="2 2"/>
<circle r="15.5" transform="matrix(-0.965926 -0.258819 -0.258819 0.965926 240.984 202.917)" fill="url(#paint1_linear)"/>
<circle r="15.5" transform="matrix(-0.965926 0.258819 0.258819 0.965926 344.815 202.4)" fill="url(#paint2_linear)"/>
<line y1="-0.5" x2="92.0272" y2="-0.5" transform="matrix(-0.0293204 -0.99957 -0.99957 0.0293204 294.786 128.777)" stroke="#DCDCDC" stroke-dasharray="2 2"/>
<line x1="243.52" y1="202.861" x2="291.608" y2="36.6508" stroke="#DCDCDC" stroke-dasharray="2 2"/>
<line x1="344.524" y1="203.152" x2="291.612" y2="36.9414" stroke="#DCDCDC" stroke-dasharray="2 2"/>
<circle r="11" transform="matrix(-1 0 0 1 293 127)" fill="#393939"/>
<line x1="292.406" y1="126.708" x2="346.798" y2="202.202" stroke="#DCDCDC" stroke-dasharray="2 2"/>
<circle r="15.5" transform="matrix(-0.954525 -0.298132 -0.298132 0.954525 292.416 37.4162)" fill="url(#paint3_linear)"/>
<circle r="15.5" transform="matrix(-0.965926 -0.258819 -0.258819 0.965926 240.984 202.917)" fill="url(#paint4_linear)"/>
<circle r="15.5" transform="matrix(-0.965926 0.258819 0.258819 0.965926 344.815 202.4)" fill="url(#paint5_linear)"/>
<circle r="44" transform="matrix(-1 0 0 1 293 127)" fill="#393939"/>
<rect x="50" y="187" width="130" height="25" fill="#EEEEEE"/>
<rect x="88" y="156" width="92" height="25" fill="#EEEEEE"/>
<rect x="50" y="125" width="130" height="25" fill="#EEEEEE"/>
<rect x="50" y="61" width="130" height="25" fill="#EEEEEE"/>
<rect x="135" y="94" width="45" height="25" fill="#EEEEEE"/>
<rect x="135" y="28" width="45" height="25" fill="#EEEEEE"/>
<rect width="130" height="25" transform="matrix(-1 0 0 1 536 187)" fill="#EEEEEE"/>
<rect width="92" height="25" transform="matrix(-1 0 0 1 498 156)" fill="#EEEEEE"/>
<rect width="130" height="25" transform="matrix(-1 0 0 1 536 125)" fill="#EEEEEE"/>
<rect width="130" height="25" transform="matrix(-1 0 0 1 536 61)" fill="#EEEEEE"/>
<rect width="45" height="25" transform="matrix(-1 0 0 1 451 94)" fill="#EEEEEE"/>
<rect width="45" height="25" transform="matrix(-1 0 0 1 451 28)" fill="#EEEEEE"/>
<defs>
<linearGradient id="paint0_linear" x1="15.5" y1="0" x2="15.5" y2="31" gradientUnits="userSpaceOnUse">
<stop stop-color="#FF5454"/>
<stop offset="1" stop-color="#BA4F4F" stop-opacity="0.74"/>
</linearGradient>
<linearGradient id="paint1_linear" x1="15.5" y1="0" x2="15.5" y2="31" gradientUnits="userSpaceOnUse">
<stop stop-color="#FF5454"/>
<stop offset="1" stop-color="#BA4F4F" stop-opacity="0.74"/>
</linearGradient>
<linearGradient id="paint2_linear" x1="15.5" y1="0" x2="15.5" y2="31" gradientUnits="userSpaceOnUse">
<stop stop-color="#FF5454"/>
<stop offset="1" stop-color="#BA4F4F" stop-opacity="0.74"/>
</linearGradient>
<linearGradient id="paint3_linear" x1="15.5" y1="0" x2="15.5" y2="31" gradientUnits="userSpaceOnUse">
<stop stop-color="#FF5454"/>
<stop offset="1" stop-color="#BA4F4F" stop-opacity="0.74"/>
</linearGradient>
<linearGradient id="paint4_linear" x1="15.5" y1="0" x2="15.5" y2="31" gradientUnits="userSpaceOnUse">
<stop stop-color="#FF5454"/>
<stop offset="1" stop-color="#BA4F4F" stop-opacity="0.74"/>
</linearGradient>
<linearGradient id="paint5_linear" x1="15.5" y1="0" x2="15.5" y2="31" gradientUnits="userSpaceOnUse">
<stop stop-color="#FF5454"/>
<stop offset="1" stop-color="#BA4F4F" stop-opacity="0.74"/>
</linearGradient>
</defs>
</svg>
