<svg width="361" height="254" viewBox="0 0 361 254" fill="none" xmlns="http://www.w3.org/2000/svg">
<path d="M268.5 130.5C268.5 180.763 228.2 221.5 178.5 221.5C128.8 221.5 88.5 180.763 88.5 130.5C88.5 80.2369 128.8 39.5 178.5 39.5C228.2 39.5 268.5 80.2369 268.5 130.5Z" stroke="#E6E6E6"/>
<path d="M180.311 89.6C180.311 89.6 190.015 95.6 197.737 95.6C215.568 95.6 218 82 218 82C218 82 215.974 94.4 204.626 109.6C195.679 121.584 179.702 126 179.702 126L141 106.4L180.311 89.6Z" fill="#393939"/>
<path d="M138.243 115.063L174.881 134.022L174.881 177.064L138.243 157.848L138.243 115.063Z" fill="#393939"/>
<path d="M221.099 114.254L184.461 133.213L184.461 176.255L221.099 157.04L221.099 114.254Z" fill="#393939"/>
<ellipse cx="118" cy="62" rx="12" ry="13" fill="#393939"/>
<ellipse cx="90.5" cy="119" rx="12.5" ry="13" fill="#B1B1B1"/>
<circle cx="104.5" cy="178.5" r="12.5" fill="#393939"/>
<circle cx="148.5" cy="213.5" r="12.5" fill="#B1B1B1"/>
<ellipse cx="211" cy="213.5" rx="13" ry="12.5" fill="#393939"/>
<ellipse cx="252" cy="178.5" rx="13" ry="12.5" fill="#B1B1B1"/>
<circle cx="270.5" cy="127.5" r="12.5" fill="#393939"/>
<ellipse cx="252" cy="79.5" rx="13" ry="12.5" fill="#B1B1B1"/>
<ellipse cx="212" cy="45.5" rx="13" ry="13.5" fill="#393939"/>
<circle cx="164.5" cy="40.5" r="12.5" fill="#B1B1B1"/>
</svg>
