<svg width="830" height="510" viewBox="0 0 830 510" fill="none" xmlns="http://www.w3.org/2000/svg">
<rect x="395.635" y="64.6509" width="41.0168" height="342.997" rx="20.5084" fill="#393939"/>
<path d="M395.635 84.6509C395.635 73.6052 404.59 64.6509 415.635 64.6509H417.496V407.648H415.635C404.59 407.648 395.635 398.694 395.635 387.648V84.6509Z" fill="#5C5C5C"/>
<rect x="342.929" y="359.963" width="66.6261" height="65.844" rx="2.85698" transform="rotate(180 342.929 359.963)" fill="white" stroke="#9A9A9A" stroke-width="0.634884"/>
<rect x="144.104" y="336.703" width="52.9698" height="52.348" rx="2.27138" transform="rotate(180 144.104 336.703)" fill="white" stroke="#9A9A9A" stroke-width="0.504752"/>
<rect x="335.384" y="333.821" width="20.9747" height="15.9436" rx="1.17453" transform="rotate(180 335.384 333.821)" fill="#8C8C8C" stroke="#9A9A9A" stroke-width="0.190465"/>
<rect x="138.105" y="315.919" width="16.6755" height="12.6757" rx="0.933792" transform="rotate(180 138.105 315.919)" fill="#8C8C8C" stroke="#9A9A9A" stroke-width="0.151426"/>
<rect x="333.398" y="332.008" width="11.45" height="1.05094" rx="0.525469" transform="rotate(180 333.398 332.008)" fill="white"/>
<rect x="136.526" y="314.478" width="9.10311" height="0.835529" rx="0.417764" transform="rotate(180 136.526 314.478)" fill="white"/>
<rect x="333.398" y="330.537" width="6.9394" height="1.05094" rx="0.525469" transform="rotate(180 333.398 330.537)" fill="white"/>
<rect x="136.526" y="313.309" width="5.51704" height="0.835529" rx="0.417764" transform="rotate(180 136.526 313.309)" fill="white"/>
<rect x="333.398" y="320.93" width="15.9606" height="1.23952" rx="0.619759" transform="rotate(180 333.398 320.93)" fill="white"/>
<rect x="136.526" y="305.671" width="12.6892" height="0.985456" rx="0.492728" transform="rotate(180 136.526 305.671)" fill="white"/>
<line x1="323.871" y1="316.944" x2="323.871" y2="312.895" stroke="#EEEEEE" stroke-width="0.634884" stroke-linecap="round"/>
<line x1="128.952" y1="302.502" x2="128.952" y2="299.283" stroke="#EEEEEE" stroke-width="0.504752" stroke-linecap="round"/>
<line x1="309.299" y1="337.589" x2="309.299" y2="312.895" stroke="#EEEEEE" stroke-width="0.634884" stroke-linecap="round"/>
<line x1="117.366" y1="318.915" x2="117.366" y2="299.283" stroke="#EEEEEE" stroke-width="0.504752" stroke-linecap="round"/>
<line x1="295.031" y1="337.673" x2="295.031" y2="313.28" stroke="#EEEEEE" stroke-width="0.634884" stroke-linecap="round"/>
<line x1="106.024" y1="318.982" x2="106.023" y2="299.589" stroke="#EEEEEE" stroke-width="0.504752" stroke-linecap="round"/>
<path d="M291.754 359.515H279.502C278.099 359.515 276.962 358.378 276.962 356.975V297.107C276.962 295.704 278.099 294.567 279.502 294.567H287.664C286.69 320.355 287.528 334.504 291.754 359.515Z" fill="#F8F8F8"/>
<rect x="342.795" y="279.406" width="66.6261" height="65.844" rx="2.85698" transform="rotate(180 342.795 279.406)" fill="white" stroke="#9A9A9A" stroke-width="0.634884"/>
<path d="M291.464 278.972H279.212C277.81 278.972 276.673 277.835 276.673 276.433V216.564C276.673 215.162 277.81 214.025 279.212 214.025H287.374C286.401 239.813 287.238 253.961 291.464 278.972Z" fill="#F8F8F8"/>
<rect x="342.795" y="198.849" width="66.6261" height="65.844" rx="2.85698" transform="rotate(180 342.795 198.849)" fill="white" stroke="#9A9A9A" stroke-width="0.634884"/>
<path d="M291.464 198.415H279.212C277.81 198.415 276.673 197.278 276.673 195.876V136.007C276.673 134.605 277.81 133.468 279.212 133.468H287.374C286.401 159.256 287.238 173.405 291.464 198.415Z" fill="#F8F8F8"/>
<rect x="334.369" y="151.957" width="49.7732" height="13.5148" rx="1.17453" transform="rotate(180 334.369 151.957)" fill="#8C8C8C" stroke="#9A9A9A" stroke-width="0.190465"/>
<rect x="284.596" y="173.009" width="16.9007" height="18.58" rx="1.17453" transform="rotate(-90 284.596 173.009)" fill="#EEEEEE" stroke="#9A9A9A" stroke-width="0.190465"/>
<rect x="315.789" y="173.009" width="16.9008" height="18.58" rx="1.17453" transform="rotate(-90 315.789 173.009)" fill="#EEEEEE" stroke="#9A9A9A" stroke-width="0.190465"/>
<line x1="325.1" y1="154.811" x2="325.1" y2="152.89" stroke="#EEEEEE" stroke-width="0.634884" stroke-linecap="round"/>
<line x1="325.1" y1="176.075" x2="325.1" y2="174.155" stroke="#EEEEEE" stroke-width="0.634884" stroke-linecap="round"/>
<line x1="293.568" y1="176.075" x2="293.568" y2="174.155" stroke="#EEEEEE" stroke-width="0.634884" stroke-linecap="round"/>
<line x1="293.568" y1="154.811" x2="293.568" y2="152.89" stroke="#EEEEEE" stroke-width="0.634884" stroke-linecap="round"/>
<line x1="305.232" y1="165.546" x2="313.733" y2="165.546" stroke="#EEEEEE" stroke-width="0.634884" stroke-linecap="round"/>
<rect x="334.369" y="193.425" width="49.7732" height="16.2906" rx="1.17453" transform="rotate(180 334.369 193.425)" fill="#EEEEEE" stroke="#9A9A9A" stroke-width="0.190465"/>
<rect x="330.261" y="148.322" width="12.1439" height="1.22431" rx="0.612155" transform="rotate(180 330.261 148.322)" fill="white"/>
<rect x="330.261" y="188.401" width="12.1439" height="1.22431" rx="0.612155" transform="rotate(180 330.261 188.401)" fill="#8C8C8C"/>
<rect x="330.261" y="145.873" width="7.28637" height="1.22431" rx="0.612155" transform="rotate(180 330.261 145.873)" fill="white"/>
<rect x="330.261" y="185.952" width="7.28637" height="1.22431" rx="0.612155" transform="rotate(180 330.261 185.952)" fill="#8C8C8C"/>
<rect x="330.261" y="143.302" width="17.0015" height="1.22431" rx="0.612155" transform="rotate(180 330.261 143.302)" fill="white"/>
<rect x="330.261" y="183.382" width="17.0015" height="1.22431" rx="0.612155" transform="rotate(180 330.261 183.382)" fill="#8C8C8C"/>
<path d="M103.418 336.347H93.6769C92.5618 336.347 91.6579 335.443 91.6579 334.328V286.731C91.6579 285.616 92.5618 284.712 93.6769 284.712H100.166C99.392 305.214 100.058 316.463 103.418 336.347Z" fill="#F8F8F8"/>
<rect x="143.997" y="272.658" width="52.9698" height="52.348" rx="2.27138" transform="rotate(180 143.997 272.658)" fill="white" stroke="#9A9A9A" stroke-width="0.504752"/>
<path d="M103.188 272.313H93.4468C92.3317 272.313 91.4278 271.409 91.4278 270.294V222.697C91.4278 221.582 92.3317 220.678 93.4468 220.678H99.9358C99.1619 241.18 99.8277 252.429 103.188 272.313Z" fill="#F8F8F8"/>
<rect x="143.997" y="208.613" width="52.9698" height="52.348" rx="2.27138" transform="rotate(180 143.997 208.613)" fill="white" stroke="#9A9A9A" stroke-width="0.504752"/>
<path d="M103.188 208.268H93.4468C92.3317 208.268 91.4278 207.364 91.4278 206.249V158.652C91.4278 157.536 92.3317 156.633 93.4468 156.633H99.9358C99.1619 177.135 99.8277 188.383 103.188 208.268Z" fill="#F8F8F8"/>
<rect x="137.298" y="171.332" width="39.5712" height="10.7447" rx="0.933792" transform="rotate(180 137.298 171.332)" fill="#8C8C8C" stroke="#9A9A9A" stroke-width="0.151426"/>
<rect x="97.7268" y="188.069" width="13.4366" height="14.7717" rx="0.933792" transform="rotate(-90 97.7268 188.069)" fill="#EEEEEE" stroke="#9A9A9A" stroke-width="0.151426"/>
<rect x="122.526" y="188.069" width="13.4367" height="14.7717" rx="0.933792" transform="rotate(-90 122.526 188.069)" fill="#EEEEEE" stroke="#9A9A9A" stroke-width="0.151426"/>
<line x1="129.929" y1="173.601" x2="129.929" y2="172.074" stroke="#EEEEEE" stroke-width="0.504752" stroke-linecap="round"/>
<line x1="129.929" y1="190.507" x2="129.929" y2="188.98" stroke="#EEEEEE" stroke-width="0.504752" stroke-linecap="round"/>
<line x1="104.86" y1="190.507" x2="104.86" y2="188.98" stroke="#EEEEEE" stroke-width="0.504752" stroke-linecap="round"/>
<line x1="104.86" y1="173.601" x2="104.86" y2="172.074" stroke="#EEEEEE" stroke-width="0.504752" stroke-linecap="round"/>
<line x1="114.133" y1="182.135" x2="120.892" y2="182.135" stroke="#EEEEEE" stroke-width="0.504752" stroke-linecap="round"/>
<rect x="137.298" y="204.3" width="39.5712" height="12.9515" rx="0.933792" transform="rotate(180 137.298 204.3)" fill="#EEEEEE" stroke="#9A9A9A" stroke-width="0.151426"/>
<rect x="134.032" y="168.442" width="9.65481" height="0.973364" rx="0.486682" transform="rotate(180 134.032 168.442)" fill="white"/>
<rect x="134.032" y="200.306" width="9.65481" height="0.973364" rx="0.486682" transform="rotate(180 134.032 200.306)" fill="#8C8C8C"/>
<rect x="134.032" y="166.495" width="5.79289" height="0.973364" rx="0.486682" transform="rotate(180 134.032 166.495)" fill="white"/>
<rect x="134.032" y="198.359" width="5.79289" height="0.973364" rx="0.486682" transform="rotate(180 134.032 198.359)" fill="#8C8C8C"/>
<rect x="134.032" y="164.451" width="13.5167" height="0.973364" rx="0.486682" transform="rotate(180 134.032 164.451)" fill="white"/>
<rect x="134.032" y="196.316" width="13.5167" height="0.973364" rx="0.486682" transform="rotate(180 134.032 196.316)" fill="#8C8C8C"/>
<rect x="334.369" y="231.405" width="49.7732" height="13.5148" rx="1.17453" transform="rotate(-180 334.369 231.405)" fill="white" stroke="#9A9A9A" stroke-width="0.190465"/>
<rect x="326.839" y="226.122" width="8.50076" height="3.64318" rx="1.82159" transform="rotate(-180 326.839 226.122)" fill="#EEEEEE"/>
<rect x="313.646" y="226.122" width="8.32728" height="3.64318" rx="1.82159" transform="rotate(-180 313.646 226.122)" fill="#EEEEEE"/>
<rect x="300.626" y="226.122" width="8.50076" height="3.64318" rx="1.82159" transform="rotate(-180 300.626 226.122)" fill="#EEEEEE"/>
<rect x="334.329" y="253.264" width="20.9747" height="15.9436" rx="1.17453" transform="rotate(-180 334.329 253.264)" fill="#EEEEEE" stroke="#9A9A9A" stroke-width="0.190465"/>
<rect x="305.57" y="253.264" width="20.9747" height="15.9436" rx="1.17453" transform="rotate(-180 305.57 253.264)" fill="white" stroke="#9A9A9A" stroke-width="0.190465"/>
<rect x="332.278" y="251.451" width="10.3301" height="1.03744" rx="0.518719" transform="rotate(-180 332.278 251.451)" fill="white"/>
<rect x="332.278" y="249.999" width="6.26066" height="1.03744" rx="0.518719" transform="rotate(-180 332.278 249.999)" fill="white"/>
<rect x="332.278" y="240.28" width="14.8407" height="1.1461" rx="0.57305" transform="rotate(-180 332.278 240.28)" fill="white"/>
<line x1="325.1" y1="236.387" x2="325.1" y2="232.338" stroke="#EEEEEE" stroke-width="0.634884" stroke-linecap="round"/>
<line x1="309.513" y1="257.032" x2="309.513" y2="233.803" stroke="#8C8C8C" stroke-width="0.634884" stroke-linecap="round"/>
<line x1="296.301" y1="236.387" x2="296.301" y2="232.338" stroke="#EEEEEE" stroke-width="0.634884" stroke-linecap="round"/>
<rect x="334.328" y="274.936" width="49.7732" height="16.2906" rx="1.17453" transform="rotate(-180 334.328 274.936)" fill="#EEEEEE" stroke="#9A9A9A" stroke-width="0.190465"/>
<rect x="330.26" y="269.652" width="12.1439" height="1.12215" rx="0.561076" transform="rotate(-180 330.26 269.652)" fill="white"/>
<rect x="330.26" y="267.407" width="7.28637" height="1.12215" rx="0.561076" transform="rotate(-180 330.26 267.407)" fill="white"/>
<rect x="330.26" y="265.051" width="17.0015" height="1.12215" rx="0.561076" transform="rotate(-180 330.26 265.051)" fill="white"/>
<rect x="137.298" y="234.496" width="39.5712" height="10.7447" rx="0.933792" transform="rotate(-180 137.298 234.496)" fill="white" stroke="#9A9A9A" stroke-width="0.151426"/>
<rect x="131.312" y="230.296" width="6.75837" height="2.89644" rx="1.44822" transform="rotate(-180 131.312 230.296)" fill="#EEEEEE"/>
<rect x="120.823" y="230.296" width="6.62044" height="2.89644" rx="1.44822" transform="rotate(-180 120.823 230.296)" fill="#EEEEEE"/>
<rect x="110.472" y="230.296" width="6.75837" height="2.89644" rx="1.44822" transform="rotate(-180 110.472 230.296)" fill="#EEEEEE"/>
<rect x="137.266" y="251.874" width="16.6755" height="12.6757" rx="0.933792" transform="rotate(-180 137.266 251.874)" fill="#EEEEEE" stroke="#9A9A9A" stroke-width="0.151426"/>
<rect x="114.402" y="251.874" width="16.6755" height="12.6757" rx="0.933792" transform="rotate(-180 114.402 251.874)" fill="white" stroke="#9A9A9A" stroke-width="0.151426"/>
<rect x="135.635" y="250.433" width="8.21274" height="0.824795" rx="0.412398" transform="rotate(-180 135.635 250.433)" fill="white"/>
<rect x="135.635" y="249.278" width="4.97742" height="0.824795" rx="0.412398" transform="rotate(-180 135.635 249.278)" fill="white"/>
<rect x="135.635" y="241.551" width="11.7988" height="0.911186" rx="0.455593" transform="rotate(-180 135.635 241.551)" fill="white"/>
<line x1="129.929" y1="238.457" x2="129.929" y2="235.237" stroke="#EEEEEE" stroke-width="0.504752" stroke-linecap="round"/>
<line x1="117.536" y1="254.87" x2="117.536" y2="236.402" stroke="#8C8C8C" stroke-width="0.504752" stroke-linecap="round"/>
<line x1="107.033" y1="238.457" x2="107.033" y2="235.237" stroke="#EEEEEE" stroke-width="0.504752" stroke-linecap="round"/>
<rect x="137.265" y="269.104" width="39.5712" height="12.9515" rx="0.933792" transform="rotate(-180 137.265 269.104)" fill="#EEEEEE" stroke="#9A9A9A" stroke-width="0.151426"/>
<rect x="134.032" y="264.903" width="9.65481" height="0.892146" rx="0.446073" transform="rotate(-180 134.032 264.903)" fill="white"/>
<rect x="134.032" y="263.119" width="5.79289" height="0.892146" rx="0.446073" transform="rotate(-180 134.032 263.119)" fill="white"/>
<rect x="134.032" y="261.245" width="13.5167" height="0.892146" rx="0.446073" transform="rotate(-180 134.032 261.245)" fill="white"/>
<rect x="335.197" y="355.492" width="49.7732" height="16.2906" rx="1.17453" transform="rotate(180 335.197 355.492)" fill="#EEEEEE" stroke="#9A9A9A" stroke-width="0.190465"/>
<rect x="137.956" y="333.149" width="39.5712" height="12.9515" rx="0.933792" transform="rotate(180 137.956 333.149)" fill="#EEEEEE" stroke="#9A9A9A" stroke-width="0.151426"/>
<rect x="330.261" y="350.419" width="12.1439" height="1.20478" rx="0.60239" transform="rotate(180 330.261 350.419)" fill="white"/>
<rect x="134.032" y="329.115" width="9.65481" height="0.957837" rx="0.478918" transform="rotate(180 134.032 329.115)" fill="white"/>
<rect x="330.261" y="348.01" width="7.28637" height="1.20478" rx="0.60239" transform="rotate(180 330.261 348.01)" fill="white"/>
<rect x="134.032" y="327.2" width="5.79289" height="0.957837" rx="0.478918" transform="rotate(180 134.032 327.2)" fill="white"/>
<rect x="330.261" y="345.479" width="17.0015" height="1.20478" rx="0.60239" transform="rotate(180 330.261 345.479)" fill="white"/>
<rect x="134.032" y="325.188" width="13.5167" height="0.957837" rx="0.478918" transform="rotate(180 134.032 325.188)" fill="white"/>
<rect x="335.384" y="311.062" width="50.1002" height="12.6147" rx="1.17453" transform="rotate(180 335.384 311.062)" stroke="#9A9A9A" stroke-width="0.190465"/>
<rect x="138.105" y="297.825" width="39.8313" height="10.0291" rx="0.933792" transform="rotate(180 138.105 297.825)" stroke="#9A9A9A" stroke-width="0.151426"/>
<rect x="328.193" y="306.679" width="8.50076" height="3.64318" rx="1.82159" transform="rotate(180 328.193 306.679)" fill="#EEEEEE"/>
<rect x="132.388" y="294.341" width="6.75837" height="2.89644" rx="1.44822" transform="rotate(180 132.388 294.341)" fill="#EEEEEE"/>
<rect x="315.529" y="306.679" width="8.32728" height="3.64318" rx="1.82159" transform="rotate(180 315.529 306.679)" fill="#EEEEEE"/>
<rect x="122.32" y="294.341" width="6.62044" height="2.89644" rx="1.44822" transform="rotate(180 122.32 294.341)" fill="#EEEEEE"/>
<rect x="301.997" y="306.679" width="8.50076" height="3.64318" rx="1.82159" transform="rotate(180 301.997 306.679)" fill="#EEEEEE"/>
<rect x="111.561" y="294.341" width="6.75837" height="2.89644" rx="1.44822" transform="rotate(180 111.561 294.341)" fill="#EEEEEE"/>
<rect x="179.057" y="133.004" width="77.5137" height="103.488" rx="4.20211" fill="white" stroke="#9A9A9A" stroke-width="0.632575"/>
<rect x="176.929" y="254.26" width="77.5137" height="104.752" rx="4.20211" fill="white" stroke="#9A9A9A" stroke-width="0.632575"/>
<rect x="186.691" y="208.77" width="20.94" height="3.40373" rx="1.67181" fill="#EEEEEE" stroke="#9A9A9A" stroke-width="0.271104"/>
<rect x="197.959" y="273.686" width="35.4529" height="2.17971" rx="1.08985" fill="#EEEEEE" stroke="#9A9A9A" stroke-width="0.271104"/>
<rect x="186.691" y="216.119" width="12.009" height="2.17879" rx="1.08939" fill="#EEEEEE" stroke="#9A9A9A" stroke-width="0.271104"/>
<rect x="197.959" y="281.038" width="19.8237" height="2.17971" rx="1.08985" fill="#EEEEEE" stroke="#9A9A9A" stroke-width="0.271104"/>
<rect x="197.959" y="285.94" width="49.9658" height="4.63052" rx="1.67181" fill="#EEEEEE" stroke="#9A9A9A" stroke-width="0.271104"/>
<rect x="186.691" y="141.398" width="62.2459" height="7.07857" rx="1.67181" fill="#EEEEEE" stroke="#9A9A9A" stroke-width="0.271104"/>
<rect x="184.563" y="271.235" width="5.31077" height="78.1548" rx="1.67181" fill="#EEEEEE" stroke="#9A9A9A" stroke-width="0.271104"/>
<path d="M486.205 236.688L437.631 236.688C437.334 236.688 437.094 236.929 437.094 237.225C437.094 237.522 437.334 237.762 437.631 237.762L486.205 237.762C486.501 237.762 486.742 237.522 486.742 237.225C486.742 236.929 486.501 236.688 486.205 236.688Z" fill="#484848" stroke="#A5A5A5" stroke-width="0.5"/>
<path d="M540.469 236.688L491.895 236.688C491.599 236.688 491.358 236.929 491.358 237.225C491.358 237.522 491.599 237.762 491.895 237.762L540.469 237.762C540.766 237.762 541.006 237.522 541.006 237.225C541.006 236.929 540.766 236.688 540.469 236.688Z" fill="#484848" stroke="#A5A5A5" stroke-width="0.5"/>
<circle r="10.8182" transform="matrix(4.37114e-08 -1 -1 -4.37114e-08 491.108 237.225)" fill="#484848" stroke="#A5A5A5" stroke-width="1.5"/>
<circle r="10.8182" transform="matrix(4.37114e-08 -1 -1 -4.37114e-08 532.247 237.225)" fill="#484848" stroke="#A5A5A5" stroke-width="1.5"/>
<circle r="2.87575" transform="matrix(4.37114e-08 -1 -1 -4.37114e-08 607.106 132.131)" fill="#484848" stroke="#A5A5A5" stroke-width="1.5"/>
<circle cx="607.106" cy="342.32" r="2.87575" transform="rotate(90 607.106 342.32)" fill="#484848" stroke="#A5A5A5" stroke-width="1.5"/>
<circle r="2.87575" transform="matrix(4.37114e-08 -1 -1 -4.37114e-08 698.047 132.131)" fill="#484848" stroke="#A5A5A5" stroke-width="1.5"/>
<circle cx="698.047" cy="342.32" r="2.87575" transform="rotate(90 698.047 342.32)" fill="#484848" stroke="#A5A5A5" stroke-width="1.5"/>
<path d="M436.844 202.898H531.821V132.131H603.511" stroke="#A5A5A5" stroke-width="2"/>
<path d="M436.844 271.552H531.821V342.319H603.511" stroke="#A5A5A5" stroke-width="2"/>
<path d="M530.196 202.898H625.173V132.131H694.784" stroke="#A5A5A5" stroke-width="2"/>
<path d="M530.196 271.552H625.173V342.319H694.784" stroke="#A5A5A5" stroke-width="2"/>
<rect x="0.5" y="-0.5" width="55.6748" height="55.0158" rx="4.5" transform="matrix(1 0 0 -1 546.805 194.522)" fill="white" stroke="#9A9A9A"/>
<rect x="0.5" y="-0.5" width="55.6748" height="55.0158" rx="4.5" transform="matrix(1 0 0 -1 546.805 333.944)" fill="white" stroke="#9A9A9A"/>
<rect x="0.5" y="-0.5" width="55.6748" height="55.0158" rx="4.5" transform="matrix(1 0 0 -1 638.438 194.534)" fill="white" stroke="#9A9A9A"/>
<rect x="0.5" y="-0.5" width="55.6748" height="55.0158" rx="4.5" transform="matrix(1 0 0 -1 638.438 333.932)" fill="white" stroke="#9A9A9A"/>
<path d="M590.325 194.534H598.482C600.691 194.534 602.482 192.744 602.482 190.534V144.447C602.482 142.238 600.691 140.447 598.482 140.447H593.686C594.486 161.923 593.798 173.706 590.325 194.534Z" fill="#F8F8F8"/>
<path d="M590.325 333.956H598.482C600.691 333.956 602.482 332.165 602.482 329.956V283.868C602.482 281.659 600.691 279.868 598.482 279.868H593.686C594.486 301.344 593.798 313.127 590.325 333.956Z" fill="#F8F8F8"/>
<path d="M681.958 194.532H690.421C692.63 194.532 694.421 192.741 694.421 190.532V144.501C694.421 142.292 692.63 140.501 690.421 140.501H685.404C686.224 161.955 685.519 173.725 681.958 194.532Z" fill="#F8F8F8"/>
<path d="M681.958 333.929H690.421C692.63 333.929 694.421 332.138 694.421 329.929V283.899C694.421 281.689 692.63 279.899 690.421 279.899H685.404C686.224 301.352 685.519 313.122 681.958 333.929Z" fill="#F8F8F8"/>
<rect x="0.15" y="-0.15" width="41.7999" height="11.2482" rx="1.85" transform="matrix(1 0 0 -1 554.092 155.523)" fill="#8C8C8C" stroke="#9A9A9A" stroke-width="0.3"/>
<rect x="0.15" y="-0.15" width="41.7999" height="11.2482" rx="1.85" transform="matrix(1 0 0 -1 554.092 294.945)" fill="#8C8C8C" stroke="#9A9A9A" stroke-width="0.3"/>
<rect x="0.15" y="-0.15" width="41.7999" height="11.2482" rx="1.85" transform="matrix(1 0 0 -1 645.725 155.535)" fill="#8C8C8C" stroke="#9A9A9A" stroke-width="0.3"/>
<rect x="0.15" y="-0.15" width="41.7999" height="11.2482" rx="1.85" transform="matrix(1 0 0 -1 645.725 294.933)" fill="#8C8C8C" stroke="#9A9A9A" stroke-width="0.3"/>
<rect x="-0.15" y="-0.15" width="14.1012" height="15.5162" rx="1.85" transform="matrix(-5.24537e-08 -1 -1 3.64262e-08 595.893 173.261)" fill="#EEEEEE" stroke="#9A9A9A" stroke-width="0.3"/>
<rect x="-0.15" y="-0.15" width="14.1012" height="15.5162" rx="1.85" transform="matrix(-5.24537e-08 -1 -1 3.64262e-08 595.893 312.683)" fill="#EEEEEE" stroke="#9A9A9A" stroke-width="0.3"/>
<rect x="-0.15" y="-0.15" width="14.1012" height="15.5162" rx="1.85" transform="matrix(-5.24537e-08 -1 -1 3.64262e-08 687.525 173.273)" fill="#EEEEEE" stroke="#9A9A9A" stroke-width="0.3"/>
<rect x="-0.15" y="-0.15" width="14.1012" height="15.5162" rx="1.85" transform="matrix(-5.24537e-08 -1 -1 3.64262e-08 687.525 312.671)" fill="#EEEEEE" stroke="#9A9A9A" stroke-width="0.3"/>
<rect x="-0.15" y="-0.15" width="14.1013" height="15.5162" rx="1.85" transform="matrix(-5.24537e-08 -1 -1 3.64262e-08 569.609 173.261)" fill="#EEEEEE" stroke="#9A9A9A" stroke-width="0.3"/>
<rect x="-0.15" y="-0.15" width="14.1013" height="15.5162" rx="1.85" transform="matrix(-5.24537e-08 -1 -1 3.64262e-08 569.609 312.683)" fill="#EEEEEE" stroke="#9A9A9A" stroke-width="0.3"/>
<rect x="-0.15" y="-0.15" width="14.1013" height="15.5162" rx="1.85" transform="matrix(-5.24537e-08 -1 -1 3.64262e-08 661.242 173.273)" fill="#EEEEEE" stroke="#9A9A9A" stroke-width="0.3"/>
<rect x="-0.15" y="-0.15" width="14.1013" height="15.5162" rx="1.85" transform="matrix(-5.24537e-08 -1 -1 3.64262e-08 661.242 312.671)" fill="#EEEEEE" stroke="#9A9A9A" stroke-width="0.3"/>
<line x1="0.5" y1="-0.5" x2="1.65319" y2="-0.5" transform="matrix(-4.37114e-08 -1 -1 4.37114e-08 561.715 158.415)" stroke="#EEEEEE" stroke-linecap="round"/>
<line x1="0.5" y1="-0.5" x2="1.65319" y2="-0.5" transform="matrix(-4.37114e-08 -1 -1 4.37114e-08 561.715 297.837)" stroke="#EEEEEE" stroke-linecap="round"/>
<line x1="0.5" y1="-0.5" x2="1.65319" y2="-0.5" transform="matrix(-4.37114e-08 -1 -1 4.37114e-08 653.348 158.427)" stroke="#EEEEEE" stroke-linecap="round"/>
<line x1="0.5" y1="-0.5" x2="1.65319" y2="-0.5" transform="matrix(-4.37114e-08 -1 -1 4.37114e-08 653.348 297.825)" stroke="#EEEEEE" stroke-linecap="round"/>
<line x1="0.5" y1="-0.5" x2="1.65319" y2="-0.5" transform="matrix(-4.37114e-08 -1 -1 4.37114e-08 561.715 176.333)" stroke="#EEEEEE" stroke-linecap="round"/>
<line x1="0.5" y1="-0.5" x2="1.65319" y2="-0.5" transform="matrix(-4.37114e-08 -1 -1 4.37114e-08 561.715 315.754)" stroke="#EEEEEE" stroke-linecap="round"/>
<line x1="0.5" y1="-0.5" x2="1.65319" y2="-0.5" transform="matrix(-4.37114e-08 -1 -1 4.37114e-08 653.348 176.345)" stroke="#EEEEEE" stroke-linecap="round"/>
<line x1="0.5" y1="-0.5" x2="1.65319" y2="-0.5" transform="matrix(-4.37114e-08 -1 -1 4.37114e-08 653.348 315.742)" stroke="#EEEEEE" stroke-linecap="round"/>
<line x1="0.5" y1="-0.5" x2="1.65319" y2="-0.5" transform="matrix(-4.37114e-08 -1 -1 4.37114e-08 588.285 176.333)" stroke="#EEEEEE" stroke-linecap="round"/>
<line x1="0.5" y1="-0.5" x2="1.65319" y2="-0.5" transform="matrix(-4.37114e-08 -1 -1 4.37114e-08 588.285 315.754)" stroke="#EEEEEE" stroke-linecap="round"/>
<line x1="0.5" y1="-0.5" x2="1.65319" y2="-0.5" transform="matrix(-4.37114e-08 -1 -1 4.37114e-08 679.917 176.345)" stroke="#EEEEEE" stroke-linecap="round"/>
<line x1="0.5" y1="-0.5" x2="1.65319" y2="-0.5" transform="matrix(-4.37114e-08 -1 -1 4.37114e-08 679.917 315.742)" stroke="#EEEEEE" stroke-linecap="round"/>
<line x1="0.5" y1="-0.5" x2="1.65319" y2="-0.5" transform="matrix(-4.37114e-08 -1 -1 4.37114e-08 588.285 158.415)" stroke="#EEEEEE" stroke-linecap="round"/>
<line x1="0.5" y1="-0.5" x2="1.65319" y2="-0.5" transform="matrix(-4.37114e-08 -1 -1 4.37114e-08 588.285 297.837)" stroke="#EEEEEE" stroke-linecap="round"/>
<line x1="0.5" y1="-0.5" x2="1.65319" y2="-0.5" transform="matrix(-4.37114e-08 -1 -1 4.37114e-08 679.917 158.427)" stroke="#EEEEEE" stroke-linecap="round"/>
<line x1="0.5" y1="-0.5" x2="1.65319" y2="-0.5" transform="matrix(-4.37114e-08 -1 -1 4.37114e-08 679.917 297.825)" stroke="#EEEEEE" stroke-linecap="round"/>
<line x1="0.5" y1="-0.5" x2="7.19832" y2="-0.5" transform="matrix(-1 8.74228e-08 8.74228e-08 1 578.992 167.46)" stroke="#EEEEEE" stroke-linecap="round"/>
<line x1="0.5" y1="-0.5" x2="7.19832" y2="-0.5" transform="matrix(-1 8.74228e-08 8.74228e-08 1 578.992 306.882)" stroke="#EEEEEE" stroke-linecap="round"/>
<line x1="0.5" y1="-0.5" x2="7.19832" y2="-0.5" transform="matrix(-1 8.74228e-08 8.74228e-08 1 670.625 167.473)" stroke="#EEEEEE" stroke-linecap="round"/>
<line x1="0.5" y1="-0.5" x2="7.19832" y2="-0.5" transform="matrix(-1 8.74228e-08 8.74228e-08 1 670.625 306.87)" stroke="#EEEEEE" stroke-linecap="round"/>
<rect x="0.15" y="-0.15" width="41.7999" height="13.5871" rx="1.85" transform="matrix(1 0 0 -1 554.093 190.464)" fill="#EEEEEE" stroke="#9A9A9A" stroke-width="0.3"/>
<rect x="0.15" y="-0.15" width="41.7999" height="13.5871" rx="1.85" transform="matrix(1 0 0 -1 554.093 329.886)" fill="#EEEEEE" stroke="#9A9A9A" stroke-width="0.3"/>
<rect x="0.15" y="-0.15" width="41.7999" height="13.5871" rx="1.85" transform="matrix(1 0 0 -1 645.725 190.476)" fill="#EEEEEE" stroke="#9A9A9A" stroke-width="0.3"/>
<rect x="0.15" y="-0.15" width="41.7999" height="13.5871" rx="1.85" transform="matrix(1 0 0 -1 645.725 329.873)" fill="#EEEEEE" stroke="#9A9A9A" stroke-width="0.3"/>
<rect width="10.2326" height="1.03162" rx="0.515808" transform="matrix(1 0 0 -1 557.635 152.68)" fill="white"/>
<rect width="10.2326" height="1.03162" rx="0.515808" transform="matrix(1 0 0 -1 557.635 292.102)" fill="white"/>
<rect width="10.2326" height="1.03162" rx="0.515808" transform="matrix(1 0 0 -1 649.267 152.692)" fill="white"/>
<rect width="10.2326" height="1.03162" rx="0.515808" transform="matrix(1 0 0 -1 649.267 292.089)" fill="white"/>
<rect width="6.13958" height="1.03162" rx="0.515808" transform="matrix(1 0 0 -1 557.635 150.617)" fill="white"/>
<rect width="6.13958" height="1.03162" rx="0.515808" transform="matrix(1 0 0 -1 557.635 290.038)" fill="white"/>
<rect width="6.13958" height="1.03162" rx="0.515808" transform="matrix(1 0 0 -1 649.267 150.629)" fill="white"/>
<rect width="6.13958" height="1.03162" rx="0.515808" transform="matrix(1 0 0 -1 649.267 290.026)" fill="white"/>
<rect width="6.13958" height="1.03162" rx="0.515808" transform="matrix(1 0 0 -1 557.635 184.388)" fill="white"/>
<rect width="6.13958" height="1.03162" rx="0.515808" transform="matrix(1 0 0 -1 557.635 323.809)" fill="white"/>
<rect width="6.13958" height="1.03162" rx="0.515808" transform="matrix(1 0 0 -1 649.267 184.4)" fill="white"/>
<rect width="6.13958" height="1.03162" rx="0.515808" transform="matrix(1 0 0 -1 649.267 323.797)" fill="white"/>
<rect width="14.3257" height="1.03162" rx="0.515808" transform="matrix(1 0 0 -1 557.635 148.45)" fill="white"/>
<rect width="14.3257" height="1.03162" rx="0.515808" transform="matrix(1 0 0 -1 557.635 287.872)" fill="white"/>
<rect width="14.3257" height="1.03162" rx="0.515808" transform="matrix(1 0 0 -1 649.267 148.463)" fill="white"/>
<rect width="14.3257" height="1.03162" rx="0.515808" transform="matrix(1 0 0 -1 649.267 287.86)" fill="white"/>
<rect width="14.3257" height="1.03162" rx="0.515808" transform="matrix(1 0 0 -1 557.635 182.222)" fill="white"/>
<rect width="14.3257" height="1.03162" rx="0.515808" transform="matrix(1 0 0 -1 557.635 321.643)" fill="white"/>
<rect width="14.3257" height="1.03162" rx="0.515808" transform="matrix(1 0 0 -1 649.267 182.234)" fill="white"/>
<rect width="14.3257" height="1.03162" rx="0.515808" transform="matrix(1 0 0 -1 649.267 321.631)" fill="white"/>
</svg>
