<svg width="469" height="453" viewBox="0 0 469 453" fill="none" xmlns="http://www.w3.org/2000/svg">
<g clip-path="url(#clip0)">
<rect x="12.2444" y="62.6981" width="134.203" height="145.386" rx="5" fill="#ECECEC"/>
<rect x="25.6648" y="170.06" width="35.7874" height="4.47343" rx="2.23671" fill="#C2C2C2"/>
<rect x="25.6648" y="179.007" width="20.1304" height="4.47343" rx="2.23671" fill="#C2C2C2"/>
<rect x="25.6648" y="187.954" width="49.2077" height="4.47343" rx="2.23671" fill="#C2C2C2"/>
<rect x="25.6648" y="73.8817" width="107.362" height="11.1836" rx="2.5" fill="#C2C2C2"/>
<rect x="315.624" y="51.0049" width="134.203" height="145.386" rx="5" fill="#ECECEC"/>
<rect x="329.044" y="158.367" width="35.7874" height="4.47343" rx="2.23671" fill="#C2C2C2"/>
<rect x="329.044" y="167.314" width="20.1304" height="4.47343" rx="2.23671" fill="#C2C2C2"/>
<rect x="329.044" y="176.261" width="49.2077" height="4.47343" rx="2.23671" fill="#C2C2C2"/>
<rect x="329.044" y="62.1885" width="107.362" height="11.1836" rx="2.5" fill="#C2C2C2"/>
<rect x="12.2444" y="225.085" width="134.203" height="145.386" rx="5" fill="#ECECEC"/>
<rect x="163.549" y="302.302" width="134.203" height="145.386" rx="5" fill="#ECECEC"/>
<rect x="29.0198" y="334.608" width="63.3736" height="3.72786" rx="1.86393" fill="#C2C2C2"/>
<rect x="198.964" y="410.41" width="63.3736" height="3.72786" rx="1.86393" fill="#C2C2C2"/>
<rect x="29.0198" y="343.927" width="37.2786" height="3.72786" rx="1.86393" fill="#C2C2C2"/>
<rect x="198.964" y="419.73" width="37.2786" height="3.72786" rx="1.86393" fill="#C2C2C2"/>
<rect x="29.0198" y="351.384" width="87.6047" height="5.59179" rx="2.79589" fill="#C2C2C2"/>
<rect x="198.964" y="427.186" width="87.6047" height="5.59179" rx="2.79589" fill="#C2C2C2"/>
<rect x="25.292" y="245.139" width="108.108" height="11.1836" rx="2.5" fill="#C2C2C2"/>
<rect x="176.597" y="320.941" width="108.108" height="11.1836" rx="2.5" fill="#C2C2C2"/>
<rect x="25.292" y="263.779" width="108.108" height="11.1836" rx="2.5" fill="#C2C2C2"/>
<rect x="176.597" y="339.581" width="108.108" height="11.1836" rx="2.5" fill="#C2C2C2"/>
<rect x="163.549" y="-22.5216" width="134.972" height="146.22" rx="5" fill="#ECECEC"/>
<rect x="11.4751" y="387.471" width="134.972" height="146.22" rx="5" fill="#ECECEC"/>
<rect x="184.17" y="-0.0262451" width="35.6176" height="5.62384" rx="2.81192" fill="#C2C2C2"/>
<rect x="34.6116" y="411.158" width="35.6176" height="5.62384" rx="2.81192" fill="#C2C2C2"/>
<rect x="184.17" y="9.3468" width="20.6207" height="3.74922" rx="1.87461" fill="#C2C2C2"/>
<rect x="34.6116" y="420.531" width="20.6207" height="3.74922" rx="1.87461" fill="#C2C2C2"/>
<rect x="184.17" y="18.7198" width="48.7399" height="3.74922" rx="1.87461" fill="#C2C2C2"/>
<rect x="34.6116" y="429.904" width="48.7399" height="3.74922" rx="1.87461" fill="#C2C2C2"/>
<rect x="314.854" y="212.701" width="134.972" height="150.894" rx="5" fill="#ECECEC"/>
<rect x="335.475" y="235.915" width="35.6177" height="5.80361" rx="2.9018" fill="#C2C2C2"/>
<rect x="335.475" y="245.588" width="20.6208" height="3.86907" rx="1.93454" fill="#C2C2C2"/>
<rect x="335.475" y="255.26" width="48.74" height="3.86907" rx="1.93454" fill="#C2C2C2"/>
<rect x="335.475" y="272.671" width="97.4799" height="69.6433" rx="2" fill="#C2C2C2"/>
<rect x="184.17" y="35.5913" width="97.4799" height="67.486" rx="2" fill="#C2C2C2"/>
<rect x="34.6116" y="446.775" width="97.4799" height="67.486" rx="2" fill="#C2C2C2"/>
<rect x="12.2444" y="-99.6884" width="134.203" height="145.386" rx="5" fill="#ECECEC"/>
<rect x="25.6648" y="-77.3212" width="8.94686" height="109.599" rx="2.5" fill="#C2C2C2"/>
<rect x="314.854" y="380.307" width="134.203" height="145.386" rx="5" fill="#ECECEC"/>
<rect x="350.641" y="407.147" width="62.628" height="4.47343" rx="2.23671" fill="#C2C2C2"/>
<rect x="350.641" y="416.094" width="35.7874" height="4.47343" rx="2.23671" fill="#C2C2C2"/>
<rect x="350.641" y="425.041" width="87.2319" height="4.47343" rx="2.23671" fill="#C2C2C2"/>
<rect x="328.275" y="402.674" width="8.94686" height="109.599" rx="2.5" fill="#C2C2C2"/>
<g filter="url(#filter0_d)">
<rect x="162.78" y="139.474" width="135.742" height="147.053" rx="5" fill="url(#paint0_linear)"/>
</g>
<rect x="198.977" y="166.622" width="63.3461" height="4.52472" rx="2.26236" fill="white"/>
<rect x="198.977" y="175.671" width="36.1978" height="4.52472" rx="2.26236" fill="white"/>
<rect x="198.977" y="184.721" width="88.232" height="4.52472" rx="2.26236" fill="white"/>
<rect x="176.354" y="162.097" width="9.04944" height="110.856" rx="2.5" fill="white"/>
<rect x="315.624" y="-109.795" width="134.203" height="145.386" rx="5" fill="#ECECEC"/>
<rect x="329.044" y="-2.43286" width="35.7874" height="4.47343" rx="2.23671" fill="#C2C2C2"/>
<rect x="329.044" y="6.51404" width="20.1304" height="4.47343" rx="2.23671" fill="#C2C2C2"/>
<rect x="329.044" y="15.4608" width="49.2077" height="4.47343" rx="2.23671" fill="#C2C2C2"/>
</g>
<defs>
<filter id="filter0_d" x="144.78" y="125.474" width="171.742" height="183.053" filterUnits="userSpaceOnUse" color-interpolation-filters="sRGB">
<feFlood flood-opacity="0" result="BackgroundImageFix"/>
<feColorMatrix in="SourceAlpha" type="matrix" values="0 0 0 0 0 0 0 0 0 0 0 0 0 0 0 0 0 0 127 0"/>
<feOffset dy="4"/>
<feGaussianBlur stdDeviation="9"/>
<feColorMatrix type="matrix" values="0 0 0 0 0.921569 0 0 0 0 0.294118 0 0 0 0 0.294118 0 0 0 0.5 0"/>
<feBlend mode="normal" in2="BackgroundImageFix" result="effect1_dropShadow"/>
<feBlend mode="normal" in="SourceGraphic" in2="effect1_dropShadow" result="shape"/>
</filter>
<linearGradient id="paint0_linear" x1="230.651" y1="139.474" x2="272.865" y2="301.234" gradientUnits="userSpaceOnUse">
<stop stop-color="#FB5353"/>
<stop offset="1" stop-color="#BD3131" stop-opacity="0.97"/>
</linearGradient>
<clipPath id="clip0">
<rect width="469" height="453" fill="white"/>
</clipPath>
</defs>
</svg>
