<?xml version="1.0" standalone="no"?><svg xmlns:xlink="http://www.w3.org/1999/xlink" xmlns="http://www.w3.org/2000/svg" viewBox="0 0 1000 571.4285714285714" preserveAspectRatio="xMaxYMax slice"><g transform="scale(0.7817080320500294)"><rect x="0" y="0" width="1279.25" height="731" fill="#ffffff"/><rect x="0" y="0" width="91.38" height="91.38" fill="#e9cdd3"/><polygon points="0,0 91.38,91.38 0,91.38" fill="#f2c5c5"/><rect x="91.38" y="0" width="91.38" height="91.38" fill="#f4cece"/><polygon points="91.38,0 182.76,0 91.38,91.38" fill="#fca154"/><rect x="182.75" y="0" width="91.38" height="91.38" fill="#7b6691"/><path d="M 182.75 0 A 91.38 91.38 0 0 1  274.13 91.38 L 182.75 0 A 91.38 91.38 0 0 0 274.13 91.38" fill="#dc6362"/><rect x="274.13" y="0" width="91.38" height="91.38" fill="#db5e5d"/><rect x="274.13" y="0" width="91.38" height="91.38" fill="#fff6ef"/><rect x="365.5" y="0" width="91.38" height="91.38" fill="#d74d4c"/><rect x="365.5" y="0" width="91.38" height="91.38" fill="#edd6db"/><rect x="456.88" y="0" width="91.38" height="91.38" fill="#7c5883"/><rect x="456.88" y="0" width="91.38" height="91.38" fill="#4c1a55"/><rect x="548.25" y="0" width="91.38" height="91.38" fill="#f0bdbd"/><path d="M 548.25 91.38 A 91.38 91.38 0 0 0 639.63 0 L 548.25 0" fill="#f4f1f5"/><rect x="639.63" y="0" width="91.38" height="91.38" fill="#95789b"/><rect x="639.63" y="0" width="91.38" height="91.38" fill="#c9c0d2"/><rect x="731" y="0" width="91.38" height="91.38" fill="#60477a"/><polygon points="731,0 822.38,91.38 731,91.38" fill="#ba6373"/><rect x="822.38" y="0" width="91.38" height="91.38" fill="#4f1d57"/><polygon points="822.38,0 913.76,0 913.76,91.38" fill="#e89998"/><rect x="913.75" y="0" width="91.38" height="91.38" fill="#fb9d4e"/><rect x="913.75" y="0" width="91.38" height="91.38" fill="#77628d"/><rect x="1005.13" y="0" width="91.38" height="91.38" fill="#d64a4a"/><rect x="1005.13" y="0" width="91.38" height="91.38" fill="#6f5987"/><rect x="1096.5" y="0" width="91.38" height="91.38" fill="#eba7a7"/><rect x="1096.5" y="0" width="91.38" height="91.38" fill="#5d3065"/><rect x="1187.88" y="0" width="91.38" height="91.38" fill="#d2c5d4"/><rect x="1187.88" y="0" width="91.38" height="91.38" fill="#fff5ec"/><rect x="0" y="91.38" width="91.38" height="91.38" fill="#b4a8c0"/><polygon points="0,91.38 91.38,91.38 0,182.76" fill="#311153"/><rect x="91.38" y="91.38" width="91.38" height="91.38" fill="#ca8794"/><path d="M 91.38 91.38 A 91.38 91.38 0 0 1 182.76 182.76 L 91.38 182.76" fill="#fdc393"/><rect x="182.75" y="91.38" width="91.38" height="91.38" fill="#fcb980"/><path d="M 182.75 182.76 A 91.38 91.38 0 0 1  274.13 91.38 L 182.75 182.76 A 91.38 91.38 0 0 0 274.13 91.38" fill="#fcb87f"/><rect x="274.13" y="91.38" width="91.38" height="91.38" fill="#7b5681"/><path d="M 274.13 91.38 A 91.38 91.38 0 0 0 365.51 182.76 L 365.51 91.38" fill="#fcfcfd"/><rect x="365.5" y="91.38" width="91.38" height="91.38" fill="#442662"/><path d="M 365.5 182.76 A 91.38 91.38 0 0 1  456.88 91.38 L 365.5 182.76 A 91.38 91.38 0 0 0 456.88 91.38" fill="#f3cac9"/><rect x="456.88" y="91.38" width="91.38" height="91.38" fill="#fdf6f6"/><rect x="456.88" y="91.38" width="91.38" height="91.38" fill="#bba8be"/><rect x="548.25" y="91.38" width="91.38" height="91.38" fill="#6d5685"/><polygon points="639.63,91.38 639.63,182.76 548.25,182.76" fill="#f0dce0"/><rect x="639.63" y="91.38" width="91.38" height="91.38" fill="#fefefe"/><path d="M 639.63 182.76 A 91.38 91.38 0 0 1  731.01 91.38 L 639.63 182.76 A 91.38 91.38 0 0 0 731.01 91.38" fill="#997c9e"/><rect x="731" y="91.38" width="91.38" height="91.38" fill="#fffaf7"/><rect x="731" y="91.38" width="91.38" height="91.38" fill="#fb9d4e"/><rect x="822.38" y="91.38" width="91.38" height="91.38" fill="#e99d9d"/><path d="M 822.38 91.38 A 91.38 91.38 0 0 0 913.76 182.76 L 913.76 91.38" fill="#6e4575"/><rect x="913.75" y="91.38" width="91.38" height="91.38" fill="#f5f2f5"/><polygon points="913.75,91.38 1005.13,182.76 913.75,182.76" fill="#fcad6c"/><rect x="1005.13" y="91.38" width="91.38" height="91.38" fill="#e0b9c0"/><polygon points="1005.13,91.38 1096.51,91.38 1005.13,182.76" fill="#a89bb7"/><rect x="1096.5" y="91.38" width="91.38" height="91.38" fill="#e2dde6"/><rect x="1096.5" y="91.38" width="91.38" height="91.38" fill="#fedbbe"/><rect x="1187.88" y="91.38" width="91.38" height="91.38" fill="#f2c5c4"/><path d="M 1187.88 91.38 A 91.38 91.38 0 0 1 1279.2600000000002 182.76 L 1187.88 182.76" fill="#5b4176"/><rect x="0" y="182.75" width="91.38" height="91.38" fill="#feead8"/><path d="M 0 182.75 A 91.38 91.38 0 0 0 91.38 274.13 L 91.38 182.75" fill="#fdc99e"/><rect x="91.38" y="182.75" width="91.38" height="91.38" fill="#df7373"/><rect x="91.38" y="182.75" width="91.38" height="91.38" fill="#5a4075"/><rect x="182.75" y="182.75" width="91.38" height="91.38" fill="#fdbd87"/><rect x="182.75" y="182.75" width="91.38" height="91.38" fill="#ab94af"/><rect x="274.13" y="182.75" width="91.38" height="91.38" fill="#fcb071"/><rect x="274.13" y="182.75" width="91.38" height="91.38" fill="#b04d60"/><rect x="365.5" y="182.75" width="91.38" height="91.38" fill="#edaead"/><polygon points="365.5,182.75 456.88,182.75 456.88,274.13" fill="#cac1d2"/><rect x="456.88" y="182.75" width="91.38" height="91.38" fill="#fdbe89"/><rect x="456.88" y="182.75" width="91.38" height="91.38" fill="#2b0a4e"/><rect x="548.25" y="182.75" width="91.38" height="91.38" fill="#fedabd"/><path d="M 548.25 182.75 A 91.38 91.38 0 0 0 639.63 274.13 L 639.63 182.75" fill="#fff3ea"/><rect x="639.63" y="182.75" width="91.38" height="91.38" fill="#230047"/><rect x="639.63" y="182.75" width="91.38" height="91.38" fill="#fcaf6e"/><rect x="731" y="182.75" width="91.38" height="91.38" fill="#d5c9d7"/><path d="M 731 274.13 A 91.38 91.38 0 0 1  822.38 182.75 L 731 274.13 A 91.38 91.38 0 0 0 822.38 182.75" fill="#9686a7"/><rect x="822.38" y="182.75" width="91.38" height="91.38" fill="#d5c9d7"/><path d="M 822.38 274.13 A 91.38 91.38 0 0 1  913.76 182.75 L 822.38 274.13 A 91.38 91.38 0 0 0 913.76 182.75" fill="#efb9b9"/><rect x="913.75" y="182.75" width="91.38" height="91.38" fill="#fcb478"/><polygon points="913.75,182.75 1005.13,274.13 913.75,274.13" fill="#230147"/><rect x="1005.13" y="182.75" width="91.38" height="91.38" fill="#e5e1ea"/><path d="M 1005.13 182.75 A 91.38 91.38 0 0 0 1096.51 274.13 L 1096.51 182.75" fill="#ddd3de"/><rect x="1096.5" y="182.75" width="91.38" height="91.38" fill="#8b789e"/><polygon points="1096.5,182.75 1187.88,182.75 1187.88,274.13" fill="#d39ca7"/><rect x="1187.88" y="182.75" width="91.38" height="91.38" fill="#f0dde1"/><path d="M 1187.88 182.75 A 91.38 91.38 0 0 1  1279.2600000000002 274.13 L 1187.88 182.75 A 91.38 91.38 0 0 0 1279.2600000000002 274.13" fill="#592a61"/><rect x="0" y="274.13" width="91.38" height="91.38" fill="#9f84a4"/><polygon points="0,274.13 91.38,274.13 91.38,365.51" fill="#fcb274"/><rect x="91.38" y="274.13" width="91.38" height="91.38" fill="#fcf2f2"/><polygon points="91.38,274.13 182.76,274.13 91.38,365.51" fill="#b45567"/><rect x="182.75" y="274.13" width="91.38" height="91.38" fill="#a79ab6"/><rect x="182.75" y="274.13" width="91.38" height="91.38" fill="#fed8b8"/><rect x="274.13" y="274.13" width="91.38" height="91.38" fill="#e4c2c8"/><polygon points="274.13,274.13 365.51,274.13 365.51,365.51" fill="#c07180"/><rect x="365.5" y="274.13" width="91.38" height="91.38" fill="#fee0c7"/><path d="M 365.5 274.13 A 91.38 91.38 0 0 1  456.88 365.51 L 365.5 274.13 A 91.38 91.38 0 0 0 456.88 365.51" fill="#381859"/><rect x="456.88" y="274.13" width="91.38" height="91.38" fill="#fb9c4c"/><path d="M 456.88 274.13 A 91.38 91.38 0 0 1  548.26 365.51 L 456.88 274.13 A 91.38 91.38 0 0 0 548.26 365.51" fill="#fdc495"/><rect x="548.25" y="274.13" width="91.38" height="91.38" fill="#cc8c99"/><path d="M 548.25 274.13 A 91.38 91.38 0 0 1 639.63 365.51 L 548.25 365.51" fill="#fdc393"/><rect x="639.63" y="274.13" width="91.38" height="91.38" fill="#c8bfd1"/><rect x="639.63" y="274.13" width="91.38" height="91.38" fill="#fcac6a"/><rect x="731" y="274.13" width="91.38" height="91.38" fill="#bba7be"/><rect x="731" y="274.13" width="91.38" height="91.38" fill="#663c6e"/><rect x="822.38" y="274.13" width="91.38" height="91.38" fill="#e99f9e"/><path d="M 822.38 365.51 A 91.38 91.38 0 0 0 913.76 274.13 L 822.38 274.13" fill="#fcf2f2"/><rect x="913.75" y="274.13" width="91.38" height="91.38" fill="#b96071"/><rect x="913.75" y="274.13" width="91.38" height="91.38" fill="#d64847"/><rect x="1005.13" y="274.13" width="91.38" height="91.38" fill="#f6ebed"/><rect x="1005.13" y="274.13" width="91.38" height="91.38" fill="#c1b7cb"/><rect x="1096.5" y="274.13" width="91.38" height="91.38" fill="#e69291"/><polygon points="1187.88,274.13 1187.88,365.51 1096.5,365.51" fill="#beb4c9"/><rect x="1187.88" y="274.13" width="91.38" height="91.38" fill="#fdc597"/><rect x="1187.88" y="274.13" width="91.38" height="91.38" fill="#cc8b97"/><rect x="0" y="365.5" width="91.38" height="91.38" fill="#e58e8d"/><polygon points="91.38,365.5 91.38,456.88 0,456.88" fill="#eacfd4"/><rect x="91.38" y="365.5" width="91.38" height="91.38" fill="#b5a0b9"/><path d="M 91.38 365.5 A 91.38 91.38 0 0 0 182.76 456.88 L 182.76 365.5" fill="#f1c2c2"/><rect x="182.75" y="365.5" width="91.38" height="91.38" fill="#f6f5f8"/><polygon points="182.75,365.5 274.13,456.88 182.75,456.88" fill="#88759b"/><rect x="274.13" y="365.5" width="91.38" height="91.38" fill="#f5d3d2"/><path d="M 274.13 365.5 A 91.38 91.38 0 0 1 365.51 456.88 L 274.13 456.88" fill="#e89b9a"/><rect x="365.5" y="365.5" width="91.38" height="91.38" fill="#997c9e"/><polygon points="456.88,365.5 456.88,456.88 365.5,456.88" fill="#c6b6c9"/><rect x="456.88" y="365.5" width="91.38" height="91.38" fill="#f3e4e7"/><rect x="456.88" y="365.5" width="91.38" height="91.38" fill="#eba6a6"/><rect x="548.25" y="365.5" width="91.38" height="91.38" fill="#5a2b62"/><rect x="548.25" y="365.5" width="91.38" height="91.38" fill="#de6c6c"/><rect x="639.63" y="365.5" width="91.38" height="91.38" fill="#fca964"/><path d="M 639.63 365.5 A 91.38 91.38 0 0 0 731.01 456.88 L 731.01 365.5" fill="#c17382"/><rect x="731" y="365.5" width="91.38" height="91.38" fill="#fca55c"/><path d="M 731 365.5 A 91.38 91.38 0 0 0 822.38 456.88 L 822.38 365.5" fill="#7a5581"/><rect x="822.38" y="365.5" width="91.38" height="91.38" fill="#78527f"/><polygon points="822.38,365.5 913.76,456.88 822.38,456.88" fill="#e68f8f"/><rect x="913.75" y="365.5" width="91.38" height="91.38" fill="#fcb172"/><path d="M 913.75 456.88 A 91.38 91.38 0 0 1  1005.13 365.5 L 1005.13 456.88" fill="#ca8794"/><rect x="1005.13" y="365.5" width="91.38" height="91.38" fill="#fdbd87"/><polygon points="1005.13,365.5 1096.51,365.5 1096.51,456.88" fill="#dc6564"/><rect x="1096.5" y="365.5" width="91.38" height="91.38" fill="#e69090"/><rect x="1096.5" y="365.5" width="91.38" height="91.38" fill="#7b6690"/><rect x="1187.88" y="365.5" width="91.38" height="91.38" fill="#d8a7b0"/><polygon points="1187.88,365.5 1279.2600000000002,365.5 1187.88,456.88" fill="#553a71"/><rect x="0" y="456.88" width="91.38" height="91.38" fill="#9e83a3"/><polygon points="0,456.88 91.38,456.88 0,548.26" fill="#fdc79a"/><rect x="91.38" y="456.88" width="91.38" height="91.38" fill="#e3c0c6"/><rect x="91.38" y="456.88" width="91.38" height="91.38" fill="#fbefef"/><rect x="182.75" y="456.88" width="91.38" height="91.38" fill="#dad4e0"/><path d="M 182.75 548.26 A 91.38 91.38 0 0 1  274.13 456.88 L 274.13 548.26" fill="#d95655"/><rect x="274.13" y="456.88" width="91.38" height="91.38" fill="#331254"/><polygon points="365.51,456.88 365.51,548.26 274.13,548.26" fill="#b45466"/><rect x="365.5" y="456.88" width="91.38" height="91.38" fill="#fdf7f7"/><path d="M 365.5 548.26 A 91.38 91.38 0 0 1  456.88 456.88 L 456.88 548.26" fill="#e9e3ea"/><rect x="456.88" y="456.88" width="91.38" height="91.38" fill="#e4dce5"/><path d="M 456.88 548.26 A 91.38 91.38 0 0 1  548.26 456.88 L 548.26 548.26" fill="#8c6c92"/><rect x="548.25" y="456.88" width="91.38" height="91.38" fill="#fdd1ac"/><rect x="548.25" y="456.88" width="91.38" height="91.38" fill="#ecabaa"/><rect x="639.63" y="456.88" width="91.38" height="91.38" fill="#cac1d3"/><path d="M 639.63 456.88 A 91.38 91.38 0 0 1  731.01 548.26 L 639.63 456.88 A 91.38 91.38 0 0 0 731.01 548.26" fill="#e68e8e"/><rect x="731" y="456.88" width="91.38" height="91.38" fill="#fedbbe"/><path d="M 731 456.88 A 91.38 91.38 0 0 1 822.38 548.26 L 731 548.26" fill="#d74f4e"/><rect x="822.38" y="456.88" width="91.38" height="91.38" fill="#fedbbe"/><path d="M 822.38 548.26 A 91.38 91.38 0 0 1  913.76 456.88 L 913.76 548.26" fill="#fb9742"/><rect x="913.75" y="456.88" width="91.38" height="91.38" fill="#e5c4ca"/><rect x="913.75" y="456.88" width="91.38" height="91.38" fill="#c8b9cb"/><rect x="1005.13" y="456.88" width="91.38" height="91.38" fill="#4f336c"/><path d="M 1005.13 456.88 A 91.38 91.38 0 0 1 1096.51 548.26 L 1005.13 548.26" fill="#fcb070"/><rect x="1096.5" y="456.88" width="91.38" height="91.38" fill="#e8e5ec"/><polygon points="1187.88,456.88 1187.88,548.26 1096.5,548.26" fill="#f8eef0"/><rect x="1187.88" y="456.88" width="91.38" height="91.38" fill="#f0bdbd"/><path d="M 1187.88 548.26 A 91.38 91.38 0 0 1  1279.2600000000002 456.88 L 1187.88 548.26 A 91.38 91.38 0 0 0 1279.2600000000002 456.88" fill="#aa92ae"/><rect x="0" y="548.25" width="91.38" height="91.38" fill="#fca55d"/><path d="M 0 639.63 A 91.38 91.38 0 0 1  91.38 548.25 L 0 639.63 A 91.38 91.38 0 0 0 91.38 548.25" fill="#5e4478"/><rect x="91.38" y="548.25" width="91.38" height="91.38" fill="#bb6575"/><path d="M 91.38 639.63 A 91.38 91.38 0 0 1  182.76 548.25 L 91.38 639.63 A 91.38 91.38 0 0 0 182.76 548.25" fill="#9685a7"/><rect x="182.75" y="548.25" width="91.38" height="91.38" fill="#e2807f"/><rect x="182.75" y="548.25" width="91.38" height="91.38" fill="#fb9c4b"/><rect x="274.13" y="548.25" width="91.38" height="91.38" fill="#b7a3bb"/><path d="M 274.13 548.25 A 91.38 91.38 0 0 0 365.51 639.63 L 365.51 548.25" fill="#fef1e6"/><rect x="365.5" y="548.25" width="91.38" height="91.38" fill="#9786a8"/><rect x="365.5" y="548.25" width="91.38" height="91.38" fill="#ac4256"/><rect x="456.88" y="548.25" width="91.38" height="91.38" fill="#5a4075"/><path d="M 456.88 548.25 A 91.38 91.38 0 0 1 548.26 639.63 L 456.88 639.63" fill="#ad96b1"/><rect x="548.25" y="548.25" width="91.38" height="91.38" fill="#9f84a4"/><polygon points="548.25,548.25 639.63,639.63 548.25,639.63" fill="#fefcfc"/><rect x="639.63" y="548.25" width="91.38" height="91.38" fill="#fca155"/><polygon points="731.01,548.25 731.01,639.63 639.63,639.63" fill="#fcb275"/><rect x="731" y="548.25" width="91.38" height="91.38" fill="#c8b8ca"/><rect x="731" y="548.25" width="91.38" height="91.38" fill="#e2dee7"/><rect x="822.38" y="548.25" width="91.38" height="91.38" fill="#c7b7ca"/><rect x="822.38" y="548.25" width="91.38" height="91.38" fill="#dbd1dd"/><rect x="913.75" y="548.25" width="91.38" height="91.38" fill="#fefdfd"/><path d="M 913.75 548.25 A 91.38 91.38 0 0 0 1005.13 639.63 L 1005.13 548.25" fill="#fee3cd"/><rect x="1005.13" y="548.25" width="91.38" height="91.38" fill="#26044a"/><path d="M 1005.13 548.25 A 91.38 91.38 0 0 1  1096.51 639.63 L 1005.13 548.25 A 91.38 91.38 0 0 0 1096.51 639.63" fill="#deb4bc"/><rect x="1096.5" y="548.25" width="91.38" height="91.38" fill="#c47a88"/><rect x="1096.5" y="548.25" width="91.38" height="91.38" fill="#e79493"/><rect x="1187.88" y="548.25" width="91.38" height="91.38" fill="#4f1e58"/><path d="M 1187.88 639.63 A 91.38 91.38 0 0 1  1279.2600000000002 548.25 L 1187.88 639.63 A 91.38 91.38 0 0 0 1279.2600000000002 548.25" fill="#f8dfdf"/><rect x="0" y="639.63" width="91.38" height="91.38" fill="#f9e6e6"/><polygon points="0,639.63 91.38,639.63 0,731.01" fill="#fdcba0"/><rect x="91.38" y="639.63" width="91.38" height="91.38" fill="#c17483"/><path d="M 91.38 731.01 A 91.38 91.38 0 0 1  182.76 639.63 L 182.76 731.01" fill="#edaeae"/><rect x="182.75" y="639.63" width="91.38" height="91.38" fill="#fdc18f"/><rect x="182.75" y="639.63" width="91.38" height="91.38" fill="#efb8b8"/><rect x="274.13" y="639.63" width="91.38" height="91.38" fill="#f9f8fa"/><rect x="274.13" y="639.63" width="91.38" height="91.38" fill="#d9a8b2"/><rect x="365.5" y="639.63" width="91.38" height="91.38" fill="#fcab68"/><rect x="365.5" y="639.63" width="91.38" height="91.38" fill="#9c80a1"/><rect x="456.88" y="639.63" width="91.38" height="91.38" fill="#ede8ee"/><rect x="456.88" y="639.63" width="91.38" height="91.38" fill="#da5958"/><rect x="548.25" y="639.63" width="91.38" height="91.38" fill="#fefbfb"/><polygon points="548.25,639.63 639.63,639.63 548.25,731.01" fill="#e38484"/><rect x="639.63" y="639.63" width="91.38" height="91.38" fill="#b75c6d"/><path d="M 639.63 731.01 A 91.38 91.38 0 0 1  731.01 639.63 L 731.01 731.01" fill="#fdfdfe"/><rect x="731" y="639.63" width="91.38" height="91.38" fill="#e4c2c8"/><rect x="731" y="639.63" width="91.38" height="91.38" fill="#eae6ed"/><rect x="822.38" y="639.63" width="91.38" height="91.38" fill="#673d6f"/><rect x="822.38" y="639.63" width="91.38" height="91.38" fill="#755f8b"/><rect x="913.75" y="639.63" width="91.38" height="91.38" fill="#fffdfc"/><rect x="913.75" y="639.63" width="91.38" height="91.38" fill="#583d73"/><rect x="1005.13" y="639.63" width="91.38" height="91.38" fill="#95789b"/><rect x="1005.13" y="639.63" width="91.38" height="91.38" fill="#e79392"/><rect x="1096.5" y="639.63" width="91.38" height="91.38" fill="#e17a79"/><polygon points="1096.5,639.63 1187.88,639.63 1096.5,731.01" fill="#a58caa"/><rect x="1187.88" y="639.63" width="91.38" height="91.38" fill="#fca761"/><rect x="1187.88" y="639.63" width="91.38" height="91.38" fill="#d1c4d3"/></g></svg>