<?xml version="1.0"?>
<svg xmlns="http://www.w3.org/2000/svg" xmlns:xlink="http://www.w3.org/1999/xlink" xmlns:svgjs="http://svgjs.com/svgjs" version="1.1" width="512" height="512" x="0" y="0" viewBox="0 0 512 512" style="enable-background:new 0 0 512 512" xml:space="preserve" class=""><g><linearGradient xmlns="http://www.w3.org/2000/svg" id="SVGID_1_" gradientUnits="userSpaceOnUse" x1="256" x2="256" y1="512" y2="0"><stop stop-opacity="1" stop-color="#a8a8a8" offset="0"/><stop stop-opacity="1" stop-color="#ffffff" offset="1"/></linearGradient><linearGradient xmlns="http://www.w3.org/2000/svg" id="SVGID_2_" gradientUnits="userSpaceOnUse" x1="256" x2="256" y1="398" y2="114"><stop stop-opacity="1" stop-color="#6b6b6b" offset="1"/><stop stop-opacity="1" stop-color="#fd5900" offset="1"/></linearGradient><g xmlns="http://www.w3.org/2000/svg"><g><circle cx="256" cy="256" fill="url(#SVGID_1_)" r="256" data-original="url(#SVGID_1_)" style=""/></g><g><g><path d="m211.588 238.25h-53.294v35.5h53.294zm186.53-124.25h-284.236c-4.91 0-8.882 3.97-8.882 8.875v62.125h302v-62.125c0-4.905-3.973-8.875-8.882-8.875zm-248.706 44.375c-4.905 0-8.882-3.974-8.882-8.875 0-4.902 3.977-8.875 8.882-8.875s8.883 3.973 8.883 8.875c-.001 4.901-3.978 8.875-8.883 8.875zm35.529 0c-4.905 0-8.882-3.974-8.882-8.875 0-4.902 3.977-8.875 8.882-8.875s8.882 3.973 8.882 8.875c0 4.901-3.977 8.875-8.882 8.875zm35.53 0c-4.905 0-8.882-3.974-8.882-8.875 0-4.902 3.977-8.875 8.882-8.875s8.882 3.973 8.882 8.875c0 4.901-3.977 8.875-8.882 8.875zm142.117 0h-88.824c-4.91 0-8.882-3.97-8.882-8.875s3.973-8.875 8.882-8.875h88.824c4.909 0 8.882 3.97 8.882 8.875s-3.972 8.875-8.882 8.875zm-8.882 168.625h-195.412v17.75h195.412zm-248.706 62.125c0 4.905 3.973 8.875 8.882 8.875h284.235c4.91 0 8.882-3.97 8.882-8.875v-186.375h-301.999zm151-150.875h106.588c4.909 0 8.882 3.97 8.882 8.875s-3.972 8.875-8.882 8.875h-106.588c-4.91 0-8.882-3.97-8.882-8.875s3.972-8.875 8.882-8.875zm0 35.5h106.588c4.909 0 8.882 3.97 8.882 8.875s-3.973 8.875-8.882 8.875h-106.588c-4.91 0-8.882-3.97-8.882-8.875s3.972-8.875 8.882-8.875zm-115.471-44.375c0-4.905 3.973-8.875 8.882-8.875h71.059c4.909 0 8.882 3.97 8.882 8.875v53.25c0 4.905-3.973 8.875-8.882 8.875h-71.059c-4.909 0-8.882-3.97-8.882-8.875zm0 88.75c0-4.905 3.973-8.875 8.882-8.875h213.177c4.909 0 8.882 3.97 8.882 8.875v35.5c0 4.905-3.973 8.875-8.882 8.875h-213.176c-4.909 0-8.882-3.97-8.882-8.875v-35.5z" fill="url(#SVGID_2_)" data-original="url(#SVGID_2_)" style=""/></g></g></g></g></svg>
