<svg width="64" height="46" viewBox="0 0 64 46" fill="none" xmlns="http://www.w3.org/2000/svg">
<path d="M63.9436 20.8745C60.9157 24.5625 54.9827 24.2745 54.9827 24.2745C51.3237 40.038 29.2264 48.061 13.8841 44.1197C-1.45668 40.1798 0.653667 21.8819 0.653667 21.8819H45.5531C49.2584 21.8819 49.5407 20.7558 49.5407 20.7558C46.2565 12.9674 51.3239 8.79175 51.3239 8.79175C55.2652 9.49667 56.2494 16.2516 56.2494 16.2516C59.4842 15.6712 62.0823 16.3616 63.6715 17.0259C63.8307 18.2895 63.9233 19.5733 63.9436 20.8745Z" fill="#006BC0"/>
<path d="M11.7262 14.7505H5.43884V20.4741H11.7262V14.7505Z" fill="#006BC0"/>
<path d="M19.6274 14.7505H13.34V20.4741H19.6274V14.7505Z" fill="#006BC0"/>
<path d="M43.3283 14.7505H37.0409V20.4741H43.3283V14.7505Z" fill="#006BC0"/>
<path d="M35.4285 14.7505H29.1411V20.4741H35.4285V14.7505Z" fill="#006BC0"/>
<path d="M35.4285 0.113037H29.1411V5.83667H35.4285V0.113037Z" fill="#006BC0"/>
<path d="M27.5272 14.7505H21.2397V20.4741H27.5272V14.7505Z" fill="#006BC0"/>
<path d="M19.6274 7.43091H13.34V13.1545H19.6274V7.43091Z" fill="#006BC0"/>
<path d="M35.4285 7.43091H29.1411V13.1545H35.4285V7.43091Z" fill="#006BC0"/>
<path d="M27.5272 7.43091H21.2397V13.1545H27.5272V7.43091Z" fill="#006BC0"/>
</svg>
