<svg width="160" height="60" viewBox="0 0 160 60" fill="none" xmlns="http://www.w3.org/2000/svg">
<path d="M47.5926 33.9562C46.1316 33.9562 44.9628 33.5179 44.1227 32.6778C43.2826 31.8377 42.8809 30.6324 42.8809 29.1349C42.8809 27.6008 43.2826 26.359 44.0497 25.4824C44.8167 24.6058 45.8759 24.1675 47.2273 24.1675C48.4692 24.1675 49.4554 24.5327 50.1859 25.2998C50.9164 26.0668 51.2816 27.0895 51.2816 28.4409V29.5367H44.9628C44.9993 30.4498 45.255 31.1438 45.6933 31.6551C46.1316 32.1665 46.8256 32.3856 47.6656 32.3856C48.2135 32.3856 48.7614 32.3491 49.2362 32.2395C49.711 32.1299 50.2224 31.9473 50.8068 31.7282V33.3718C50.332 33.5909 49.8206 33.7736 49.3093 33.8831C48.7979 33.9927 48.2135 33.9562 47.5926 33.9562V33.9562ZM47.1908 25.7015C46.5334 25.7015 46.022 25.9207 45.6568 26.3225C45.2915 26.7242 45.0358 27.3086 44.9628 28.1122H49.2727C49.2727 27.3452 49.0901 26.7242 48.7249 26.3225C48.3596 25.9207 47.8483 25.7015 47.1908 25.7015V25.7015Z" fill="#394D54"/>
<path d="M55.5548 33.8101H53.5459V20.4785H55.5548V33.8101Z" fill="#394D54"/>
<path d="M64.3576 33.8098L63.9558 32.4949H63.8828C63.4445 33.0793 62.9697 33.4811 62.4948 33.6637C62.02 33.8463 61.4356 33.9924 60.7051 33.9924C59.792 33.9924 59.0615 33.7367 58.5136 33.2254C57.9657 32.714 57.7466 32.0201 57.7466 31.1069C57.7466 30.1208 58.1118 29.3903 58.8423 28.9154C59.5728 28.4406 60.6686 28.1484 62.1661 28.1119L63.8097 28.0754V27.564C63.8097 26.9431 63.6636 26.5048 63.3714 26.2126C63.0792 25.9204 62.6409 25.7743 62.0565 25.7743C61.5817 25.7743 61.1069 25.8473 60.6686 25.9934C60.2303 26.1395 59.792 26.3222 59.3902 26.5048L58.7328 25.0803C59.2441 24.8246 59.792 24.6055 60.4129 24.4594C61.0338 24.3133 61.5817 24.2402 62.1296 24.2402C63.3349 24.2402 64.248 24.4959 64.869 25.0438C65.4899 25.5917 65.7821 26.3952 65.7821 27.5275V33.8098H64.3576ZM61.3626 32.4218C62.0931 32.4218 62.6775 32.2027 63.1158 31.8009C63.5541 31.3991 63.7732 30.8147 63.7732 30.0842V29.2807L62.5679 29.3172C61.6182 29.3537 60.9243 29.4998 60.486 29.792C60.0477 30.0842 59.8285 30.5225 59.8285 31.1069C59.8285 31.5452 59.9381 31.874 60.1938 32.0931C60.4494 32.3123 60.8512 32.4218 61.3626 32.4218Z" fill="#394D54"/>
<path d="M74.9498 31.107C74.9498 32.0202 74.6211 32.7507 73.9271 33.2255C73.2331 33.7003 72.2835 33.956 71.0416 33.956C69.7633 33.956 68.7771 33.7734 68.0101 33.3716V31.6184C69.1058 32.1297 70.165 32.3854 71.1147 32.3854C72.3565 32.3854 72.9775 32.0202 72.9775 31.2531C72.9775 30.9975 72.9044 30.8148 72.7583 30.6687C72.6122 30.5226 72.3931 30.34 72.0643 30.1574C71.7356 29.9748 71.2973 29.7921 70.7494 29.573C69.6537 29.1347 68.9232 28.7329 68.5214 28.2946C68.1196 27.8563 67.937 27.3084 67.937 26.651C67.937 25.8474 68.2657 25.2265 68.9232 24.7517C69.5806 24.2769 70.4572 24.0942 71.5895 24.0942C72.6853 24.0942 73.7445 24.3134 74.7307 24.7882L74.0732 26.2857C73.0505 25.8474 72.2104 25.6648 71.4799 25.6648C70.4207 25.6648 69.8728 25.957 69.8728 26.5779C69.8728 26.8701 70.0189 27.1258 70.2746 27.345C70.5303 27.5641 71.1512 27.8198 72.1009 28.185C72.8679 28.4772 73.4523 28.7694 73.8175 29.0251C74.1828 29.2808 74.4385 29.573 74.6211 29.9017C74.8768 30.267 74.9498 30.6322 74.9498 31.107V31.107Z" fill="#394D54"/>
<path d="M80.6475 32.349C81.1223 32.349 81.6336 32.2759 82.1085 32.1298V33.6273C81.8893 33.7369 81.5971 33.81 81.2319 33.883C80.8666 33.9561 80.5014 33.9926 80.1361 33.9926C78.2368 33.9926 77.2872 32.9699 77.2872 30.9975V25.884H76.0088V25.0074L77.3967 24.2769L78.0907 22.2681H79.3326V24.3865H82.0354V25.9206H79.3326V30.9975C79.3326 31.4724 79.4421 31.8376 79.6978 32.0568C79.9535 32.2759 80.2822 32.349 80.6475 32.349V32.349Z" fill="#394D54"/>
<path d="M83.8984 21.83C83.8984 21.4648 84.008 21.2091 84.1906 20.99C84.3733 20.7708 84.6655 20.6978 85.0307 20.6978C85.396 20.6978 85.6516 20.8073 85.8708 20.99C86.0899 21.1726 86.163 21.4648 86.163 21.83C86.163 22.1588 86.0534 22.451 85.8708 22.6336C85.6882 22.8162 85.396 22.9258 85.0307 22.9258C84.6655 22.9258 84.3733 22.8162 84.1906 22.6336C84.008 22.451 83.8984 22.1588 83.8984 21.83ZM86.0534 33.8102H84.0445V24.3503H86.0534V33.8102Z" fill="#394D54"/>
<path d="M92.7375 33.9561C91.313 33.9561 90.2173 33.5543 89.4868 32.7142C88.7563 31.8742 88.3545 30.6688 88.3545 29.0983C88.3545 27.4912 88.7563 26.2858 89.5233 25.4092C90.2903 24.5326 91.4226 24.1309 92.8836 24.1309C93.8698 24.1309 94.7829 24.3135 95.5865 24.6787L94.9655 26.2858C94.1254 25.9571 93.4315 25.7745 92.8471 25.7745C91.2035 25.7745 90.3999 26.8702 90.3999 29.0252C90.3999 30.0844 90.619 30.888 91.0208 31.4359C91.4226 31.9837 92.0435 32.2394 92.8105 32.2394C93.7237 32.2394 94.5637 32.0203 95.3673 31.582V33.3352C95.002 33.5543 94.6368 33.7004 94.1985 33.7735C93.7602 33.8465 93.3219 33.9561 92.7375 33.9561V33.9561Z" fill="#394D54"/>
<path d="M103.951 31.107C103.951 32.0202 103.622 32.7507 102.928 33.2255C102.234 33.7003 101.284 33.956 100.043 33.956C98.7642 33.956 97.7781 33.7734 97.011 33.3716V31.6184C98.1068 32.1297 99.166 32.3854 100.116 32.3854C101.358 32.3854 101.978 32.0202 101.978 31.2531C101.978 30.9975 101.905 30.8148 101.759 30.6687C101.613 30.5226 101.394 30.34 101.065 30.1574C100.737 29.9748 100.298 29.7921 99.7504 29.573C98.6547 29.1347 97.9242 28.7329 97.5224 28.2946C97.1206 27.8563 96.938 27.3084 96.938 26.651C96.938 25.8474 97.2667 25.2265 97.9242 24.7517C98.5816 24.2769 99.4582 24.0942 100.59 24.0942C101.686 24.0942 102.745 24.3134 103.732 24.7882L103.074 26.2857C102.051 25.8474 101.211 25.6648 100.481 25.6648C99.4217 25.6648 98.8738 25.957 98.8738 26.5779C98.8738 26.8701 99.0199 27.1258 99.2756 27.345C99.5313 27.5641 100.152 27.8198 101.102 28.185C101.869 28.4772 102.453 28.7694 102.819 29.0251C103.184 29.2808 103.439 29.573 103.622 29.9017C103.878 30.267 103.951 30.6322 103.951 31.107V31.107Z" fill="#394D54"/>
<path d="M110.27 33.9562C108.809 33.9562 107.64 33.5179 106.8 32.6778C105.96 31.8377 105.558 30.6324 105.558 29.1349C105.558 27.6008 105.96 26.359 106.727 25.4824C107.494 24.6058 108.553 24.1675 109.905 24.1675C111.146 24.1675 112.133 24.5327 112.863 25.2998C113.594 26.0668 113.959 27.0895 113.959 28.4409V29.5367H107.64C107.677 30.4498 107.932 31.1438 108.371 31.6551C108.809 32.1665 109.503 32.3856 110.343 32.3856C110.891 32.3856 111.439 32.3491 111.913 32.2395C112.388 32.1299 112.9 31.9473 113.484 31.7282V33.3718C113.009 33.5909 112.498 33.7736 111.987 33.8831C111.475 33.9927 110.927 33.9562 110.27 33.9562V33.9562ZM109.905 25.7015C109.247 25.7015 108.736 25.9207 108.371 26.3225C108.005 26.7242 107.75 27.3086 107.677 28.1122H111.987C111.987 27.3452 111.804 26.7242 111.439 26.3225C111.073 25.9207 110.526 25.7015 109.905 25.7015V25.7015Z" fill="#394D54"/>
<path d="M122.14 33.8098L121.739 32.4949H121.666C121.227 33.0793 120.752 33.4811 120.278 33.6637C119.803 33.8463 119.218 33.9924 118.488 33.9924C117.575 33.9924 116.844 33.7367 116.296 33.2254C115.748 32.714 115.529 32.0201 115.529 31.1069C115.529 30.1208 115.895 29.3903 116.625 28.9154C117.356 28.4406 118.451 28.1484 119.949 28.1119L121.592 28.0754V27.564C121.592 26.9431 121.446 26.5048 121.154 26.2126C120.862 25.9204 120.424 25.7743 119.839 25.7743C119.364 25.7743 118.89 25.8473 118.451 25.9934C118.013 26.1395 117.575 26.3222 117.173 26.5048L116.515 25.0803C117.027 24.8246 117.575 24.6055 118.196 24.4594C118.817 24.3133 119.364 24.2402 119.912 24.2402C121.118 24.2402 122.031 24.4959 122.652 25.0438C123.273 25.5917 123.565 26.3952 123.565 27.5275V33.8098H122.14ZM119.145 32.4218C119.876 32.4218 120.46 32.2027 120.898 31.8009C121.337 31.3991 121.556 30.8147 121.556 30.0842V29.2807L120.351 29.3172C119.401 29.3537 118.707 29.4998 118.269 29.792C117.83 30.0842 117.611 30.5225 117.611 31.1069C117.611 31.5452 117.721 31.874 117.976 32.0931C118.232 32.3123 118.67 32.4218 119.145 32.4218Z" fill="#394D54"/>
<path d="M131.198 24.1675C131.6 24.1675 131.929 24.204 132.184 24.2405L132.002 26.1033C131.71 26.0303 131.417 25.9937 131.125 25.9937C130.322 25.9937 129.664 26.2494 129.153 26.7973C128.642 27.3452 128.386 28.0026 128.386 28.8427V33.8101H126.377V24.3501H127.948L128.203 26.0303H128.313C128.641 25.4824 129.043 25.0076 129.555 24.6788C130.066 24.3501 130.614 24.1675 131.198 24.1675V24.1675Z" fill="#394D54"/>
<path d="M137.773 33.9561C136.349 33.9561 135.253 33.5543 134.522 32.7142C133.792 31.8742 133.39 30.6688 133.39 29.0983C133.39 27.4912 133.792 26.2858 134.559 25.4092C135.326 24.5326 136.458 24.1309 137.919 24.1309C138.905 24.1309 139.819 24.3135 140.622 24.6787L140.001 26.2858C139.161 25.9571 138.467 25.7745 137.883 25.7745C136.239 25.7745 135.436 26.8702 135.436 29.0252C135.436 30.0844 135.655 30.888 136.056 31.4359C136.458 31.9837 137.079 32.2394 137.846 32.2394C138.759 32.2394 139.599 32.0203 140.403 31.582V33.3352C140.038 33.5543 139.672 33.7004 139.234 33.7735C138.796 33.8465 138.358 33.9561 137.773 33.9561V33.9561Z" fill="#394D54"/>
<path d="M150.958 33.8101H148.949V27.9661C148.949 27.2356 148.803 26.6878 148.511 26.3225C148.219 25.9573 147.744 25.7746 147.123 25.7746C146.283 25.7746 145.662 26.0303 145.26 26.5417C144.858 27.053 144.676 27.8931 144.676 29.0619V33.8101H142.667V20.4785H144.676V23.8753C144.676 24.4232 144.639 25.0076 144.566 25.6285H144.712C145.005 25.1902 145.37 24.825 145.845 24.5693C146.319 24.3136 146.904 24.2041 147.561 24.2041C149.862 24.2041 150.995 25.3729 150.995 27.6739V33.8101H150.958Z" fill="#394D54"/>
<path d="M28.7817 25.2271H21.1479C21.1845 25.4097 21.2575 25.5923 21.294 25.7384C21.5497 26.615 21.6958 27.5281 21.7689 28.4778C21.8054 28.843 21.8054 29.2448 21.8054 29.6101C21.8054 29.9753 21.8054 30.3771 21.7689 30.7423C21.6958 31.692 21.5497 32.6051 21.294 33.4817C21.2575 33.6643 21.1845 33.847 21.1479 33.9931H28.7817C31.1923 33.9931 33.1282 32.0207 33.1282 29.6101C33.1282 27.1994 31.1923 25.2271 28.7817 25.2271Z" fill="#00A9E5"/>
<path d="M21.7688 30.7423C21.8054 30.3771 21.8053 29.9753 21.8053 29.6101C21.8053 29.2448 21.8054 28.843 21.7688 28.4778C21.6958 27.5281 21.5497 26.615 21.294 25.7384C21.2575 25.5558 21.1844 25.3732 21.1479 25.2271H9.35032C8.91202 26.615 8.69287 28.076 8.69287 29.6101C8.69287 31.1441 8.91202 32.6051 9.35032 33.9931H21.1479C21.1844 33.8104 21.2575 33.6278 21.294 33.4817C21.5497 32.6051 21.6958 31.692 21.7688 30.7423Z" fill="#353535"/>
<path d="M30.0966 35.4536H20.6001C20.3079 36.1111 19.9792 36.732 19.614 37.3164C19.0661 38.2295 18.4086 39.0331 17.6781 39.8001C17.4225 40.0558 17.1668 40.2749 16.9111 40.5306C16.3998 41.0054 15.8154 41.4072 15.231 41.809C17.532 43.343 20.3079 44.2196 23.2665 44.2196C28.3434 44.2196 32.7995 41.6263 35.4293 37.7182C34.0779 36.3302 32.1786 35.4536 30.0966 35.4536Z" fill="#00BFB3"/>
<path d="M19.6141 37.3164C19.9793 36.732 20.3081 36.1111 20.6003 35.4536H9.89844C11.0307 38.0469 12.8935 40.2749 15.2676 41.809C15.852 41.4072 16.3999 41.0054 16.9478 40.5306C17.2034 40.3114 17.4591 40.0558 17.7148 39.8001C18.4088 39.0696 19.0662 38.2295 19.6141 37.3164Z" fill="#019B8F"/>
<path d="M17.6782 19.419C17.4225 19.1634 17.1668 18.9442 16.9111 18.6885C16.3998 18.2137 15.8154 17.8119 15.231 17.4102C12.8934 18.9442 11.0306 21.1722 9.86182 23.7655H20.5636C20.2714 23.1081 19.9427 22.4871 19.5775 21.9027C19.0661 20.9896 18.4087 20.1495 17.6782 19.419V19.419Z" fill="#F9B110"/>
<path d="M23.2665 15C20.3079 15 17.532 15.8766 15.231 17.4107C15.8154 17.8124 16.3632 18.2142 16.9111 18.689C17.1668 18.9082 17.4225 19.1639 17.6781 19.4195C18.4086 20.1866 19.0661 20.9901 19.614 21.9032C19.9792 22.4876 20.3079 23.1086 20.6001 23.766H30.0966C32.1786 23.766 34.0779 22.8894 35.4293 21.5015C32.7995 17.5933 28.3434 15 23.2665 15V15Z" fill="#FED10A"/>
</svg>
