<svg width="42" height="46" viewBox="0 0 42 46" fill="none" xmlns="http://www.w3.org/2000/svg">
<path d="M31.08 16.22H19.3237C19.38 16.5012 19.4925 16.7825 19.5487 17.0075C19.9425 18.3575 20.1675 19.7637 20.28 21.2262C20.3362 21.7887 20.3362 22.4075 20.3362 22.97C20.3362 23.5325 20.3362 24.1512 20.28 24.7137C20.1675 26.1762 19.9425 27.5825 19.5487 28.9325C19.4925 29.2137 19.38 29.495 19.3237 29.72H31.08C34.7925 29.72 37.7737 26.6825 37.7737 22.97C37.7737 19.2575 34.7925 16.22 31.08 16.22Z" fill="#00A9E5"/>
<path d="M20.28 24.7137C20.3362 24.1512 20.3362 23.5325 20.3362 22.97C20.3362 22.4075 20.3362 21.7887 20.28 21.2262C20.1675 19.7637 19.9425 18.3575 19.5487 17.0075C19.4925 16.7262 19.38 16.445 19.3237 16.22H1.15495C0.479953 18.3575 0.142456 20.6075 0.142456 22.97C0.142456 25.3325 0.479953 27.5825 1.15495 29.72H19.3237C19.38 29.4387 19.4925 29.1575 19.5487 28.9325C19.9425 27.5825 20.1675 26.1762 20.28 24.7137Z" fill="#353535"/>
<path d="M33.1051 31.97H18.4801C18.0301 32.9825 17.5238 33.9387 16.9613 34.8387C16.1176 36.245 15.1051 37.4825 13.9801 38.6637C13.5863 39.0575 13.1926 39.395 12.7988 39.7887C12.0113 40.52 11.1113 41.1387 10.2113 41.7575C13.7551 44.12 18.0301 45.47 22.5863 45.47C30.4051 45.47 37.2676 41.4762 41.3176 35.4575C39.2363 33.32 36.3113 31.97 33.1051 31.97Z" fill="#00BFB3"/>
<path d="M16.9613 34.8387C17.5238 33.9387 18.03 32.9825 18.48 31.97H1.99878C3.74253 35.9637 6.61128 39.395 10.2675 41.7575C11.1675 41.1387 12.0113 40.52 12.855 39.7887C13.2488 39.4512 13.6425 39.0575 14.0363 38.6637C15.105 37.5387 16.1175 36.245 16.9613 34.8387Z" fill="#019B8F"/>
<path d="M13.98 7.27637C13.5863 6.88262 13.1925 6.54512 12.7988 6.15137C12.0113 5.42012 11.1113 4.80137 10.2113 4.18262C6.61125 6.54512 3.7425 9.97637 1.9425 13.9701H18.4238C17.9738 12.9576 17.4675 12.0014 16.905 11.1014C16.1175 9.69512 15.105 8.40137 13.98 7.27637Z" fill="#F9B110"/>
<path d="M22.5863 0.469971C18.0301 0.469971 13.7551 1.81997 10.2113 4.18247C11.1113 4.80122 11.9551 5.41997 12.7988 6.15122C13.1926 6.48872 13.5863 6.88247 13.9801 7.27622C15.1051 8.45747 16.1176 9.69497 16.9613 11.1012C17.5238 12.0012 18.0301 12.9575 18.4801 13.97H33.1051C36.3113 13.97 39.2363 12.62 41.3176 10.4825C37.2676 4.46372 30.4051 0.469971 22.5863 0.469971Z" fill="#FED10A"/>
</svg>
