<svg width="160" height="60" viewBox="0 0 160 60" fill="none" xmlns="http://www.w3.org/2000/svg">
<path fill-rule="evenodd" clip-rule="evenodd" d="M54.7229 12.0854C52.0726 13.0259 49.5933 15.7616 47.1141 20.2072C43.4379 26.961 38.7359 36.5361 45.2333 44.1449C48.2255 47.6501 53.2695 49.7019 59.7669 46.4532C64.9819 43.803 66.5207 36.1942 64.5544 32.689C60.6218 25.3367 56.6892 23.5414 55.6633 19.0103C54.9793 15.9326 54.6374 13.6243 54.7229 12.0854Z" fill="url(#paint0_linear_601_282)"/>
<path fill-rule="evenodd" clip-rule="evenodd" d="M54.7229 12C52.0726 12.9404 49.5079 15.6762 47.1141 20.1217C43.4379 26.8756 38.7359 36.4507 45.2333 44.0595C48.2255 47.5646 53.184 48.676 55.9197 46.6242C57.7151 45.2564 58.912 43.974 59.5959 41.2382C60.3653 38.1605 59.7669 34.1424 59.3394 32.1761C58.8265 29.7823 58.6555 27.2176 58.8265 24.3108C58.8265 24.3108 58.741 24.3108 58.741 24.2253C57.2876 22.5155 56.2617 20.9767 55.7488 18.8394C54.9793 15.8471 54.6374 13.5389 54.7229 12Z" fill="url(#paint1_linear_601_282)"/>
<path fill-rule="evenodd" clip-rule="evenodd" d="M52.4998 13.1968C50.0206 15.1631 48.2252 18.4118 47.0283 22.9429C45.233 29.7822 45.062 36.1086 45.6605 39.8703C46.8574 47.0516 53.2692 49.7018 59.7666 46.3676C63.7848 44.3158 65.4946 39.9558 65.4091 35.1682C65.3236 30.2097 55.7485 24.6527 54.1242 20.5491C53.0128 17.7278 52.4998 15.3341 52.4998 13.1968Z" fill="url(#paint2_linear_601_282)"/>
<path fill-rule="evenodd" clip-rule="evenodd" d="M58.7411 26.0213C61.7333 29.783 62.3318 32.4332 60.7074 33.8866C58.2282 36.1094 52.0728 37.5628 48.3111 34.9125C45.7464 33.1172 44.8059 29.27 45.4044 23.3711C44.3785 25.5939 43.4381 27.7312 42.7541 30.0395C42.0702 32.2623 41.8137 34.656 42.1557 37.0498C43.0961 38.8451 45.2334 40.1275 48.7386 40.726C53.9536 41.6664 58.9121 41.1534 62.2463 39.5291C64.4691 38.4177 65.495 37.3063 65.4095 36.1949C65.495 34.5705 64.982 33.0317 63.8706 31.4928C62.8447 29.954 61.1349 28.1586 58.7411 26.0213Z" fill="url(#paint3_linear_601_282)"/>
<path fill-rule="evenodd" clip-rule="evenodd" d="M47.1995 22.2598C47.1995 24.9955 47.8835 27.5603 49.3368 30.0395C51.4741 33.7157 53.9534 37.3918 57.715 40.3841C60.1943 42.4359 62.2461 43.0343 63.6995 42.3504C62.5026 44.5732 61.1347 45.5991 59.7669 45.5991C57.715 45.5136 55.1503 44.6587 51.1322 39.7856C48.3964 36.5369 46.6011 33.4592 45.5752 30.5525C45.7462 29.4411 45.9172 28.2442 46.0881 27.1328C46.3446 26.0214 46.6866 24.3971 47.1995 22.2598Z" fill="url(#paint4_linear_601_282)"/>
<path fill-rule="evenodd" clip-rule="evenodd" d="M53.6108 26.0209C53.8673 28.2437 54.7222 31.8343 53.6108 34.1426C52.4994 36.5364 47.4554 40.811 48.8232 44.5726C50.1911 48.3343 53.6108 47.4794 55.7481 45.7695C57.8854 44.0597 58.9968 41.2384 59.2532 39.1866C59.5097 37.2203 58.6548 33.3732 58.3983 30.039C58.2273 27.8162 58.3128 25.9354 58.7403 24.311L58.0564 23.4561L54.2092 22.3447C53.6963 23.2851 53.4398 24.482 53.6108 26.0209Z" fill="url(#paint5_linear_601_282)"/>
<path fill-rule="evenodd" clip-rule="evenodd" d="M54.9795 14.9927C53.6971 15.5056 52.5857 16.5315 51.4743 18.1559C49.7645 20.4642 48.9096 21.9175 49.5935 26.5341C50.021 29.6118 50.2775 32.433 50.5339 35.0833L55.9199 19.4383C55.7489 18.6688 55.578 17.8994 55.407 17.301C55.1505 16.5315 55.065 15.8476 54.9795 14.9927Z" fill="url(#paint6_linear_601_282)"/>
<path fill-rule="evenodd" clip-rule="evenodd" d="M55.8341 19.353C54.4663 20.1225 53.4404 21.8323 52.6709 24.2261C51.9015 26.7053 51.2176 30.125 50.6191 34.5706C51.4741 31.7494 51.987 29.6976 52.2435 28.4152C52.6709 26.5343 52.7564 23.7986 53.8678 22.0033C54.5518 20.8064 55.2357 19.9515 55.8341 19.353Z" fill="#330A4C" fill-opacity="0.3163"/>
<path fill-rule="evenodd" clip-rule="evenodd" d="M49.4233 45.855C51.6461 46.1969 52.843 46.4534 52.9285 46.7099C53.0995 47.0519 52.672 47.3938 51.3897 47.2228C50.6202 47.0519 49.9363 46.6244 49.4233 45.855Z" fill="white"/>
<path fill-rule="evenodd" clip-rule="evenodd" d="M50.6189 14.9927C49.422 16.446 48.3106 18.0704 47.3702 19.6947C46.4298 21.3191 45.8314 22.6015 45.4039 23.3709C45.3184 23.9693 45.2329 24.9097 45.2329 26.1066C45.2329 27.3035 45.3184 28.5859 45.5749 30.0393C45.7459 27.218 46.2588 24.3968 47.1992 21.7465C48.0541 19.0963 49.251 16.788 50.6189 14.9927Z" fill="#EDEDED" fill-opacity="0.6033"/>
<path d="M74.5599 35.9998H81.4849C81.6602 35.9998 81.7479 35.9121 81.7479 35.7368C82.4491 28.8994 77.4526 29.4254 77.4526 29.4254C73.9463 29.4254 72.4561 32.1428 72.4561 35.4738C72.4561 38.8048 75.1735 41.3469 78.5045 41.084C80.5206 40.9086 81.0466 40.1197 81.3972 39.7691C81.4849 39.6814 81.4849 39.5061 81.3972 39.4184L80.7836 38.8048C80.696 38.7172 80.5206 38.7172 80.433 38.8048C78.1539 40.3827 74.4722 39.3308 74.2969 36.2627C74.2969 36.0874 74.3845 35.9998 74.5599 35.9998ZM77.4526 31.1785C78.7675 31.1785 79.7317 31.9675 79.907 33.9836C79.907 34.1589 79.8194 34.2466 79.6441 34.2466H74.6475C74.4722 34.2466 74.3845 34.1589 74.3845 33.9836C74.4722 32.0551 76.1377 31.1785 77.4526 31.1785Z" fill="#394D54"/>
<path d="M84.7286 24.7788H86.1311C86.3064 24.7788 86.3941 24.8665 86.3941 25.0418V37.6646C86.3941 39.5931 87.6213 39.3301 88.2349 39.2425C88.4102 39.2425 88.4979 39.3301 88.4979 39.5055V40.8203C88.4979 40.9956 88.4102 41.0833 88.2349 41.0833C84.7286 40.9956 84.3779 39.4178 84.3779 37.9276V25.0418C84.4656 24.9541 84.5532 24.7788 84.7286 24.7788Z" fill="#394D54"/>
<path d="M91.3025 29.7759H92.7927C92.968 29.7759 93.0557 29.8635 93.0557 30.0389V40.7332C93.0557 40.9085 92.968 40.9962 92.7927 40.9962H91.3025C91.1272 40.9962 91.0396 40.9085 91.0396 40.7332V30.0389C91.0396 29.8635 91.1272 29.7759 91.3025 29.7759Z" fill="#394D54"/>
<path d="M91.3025 26.7073H92.7927C92.968 26.7073 93.0557 26.6196 93.0557 26.4443V25.0418C93.0557 24.8665 92.968 24.7788 92.7927 24.7788H91.3025C91.1272 24.7788 91.0396 24.8665 91.0396 25.0418V26.4443C91.0396 26.6196 91.1272 26.7073 91.3025 26.7073Z" fill="#394D54"/>
<path d="M107.431 29.7759H108.922C109.097 29.7759 109.185 29.8635 109.185 30.0389V40.7332C109.185 40.9085 109.097 40.9962 108.922 40.9962H107.431C107.256 40.9962 107.168 40.9085 107.168 40.7332V30.0389C107.168 29.8635 107.256 29.7759 107.431 29.7759Z" fill="#394D54"/>
<path d="M118.126 29.6877V31.1779C118.126 31.3532 118.038 31.4409 117.863 31.4409C115.408 31.5286 114.707 32.3175 114.707 33.6324V40.6451C114.707 40.8204 114.619 40.908 114.444 40.908H112.954C112.779 40.908 112.691 40.8204 112.691 40.6451V30.0384C112.691 29.8631 112.779 29.7754 112.954 29.7754H114.444C114.619 29.7754 114.707 29.8631 114.707 30.0384V30.8273C115.058 30.3013 115.934 29.6001 117.863 29.5124C118.038 29.4248 118.126 29.5124 118.126 29.6877Z" fill="#394D54"/>
<path d="M107.431 26.7073H108.922C109.097 26.7073 109.185 26.6196 109.185 26.4443V25.0418C109.185 24.8665 109.097 24.7788 108.922 24.7788H107.431C107.256 24.7788 107.168 24.8665 107.168 25.0418V26.4443C107.168 26.6196 107.256 26.7073 107.431 26.7073Z" fill="#394D54"/>
<path d="M104.889 40.5571L101.208 35.2976C101.12 35.21 101.12 35.1223 101.208 35.0347L104.451 30.2134C104.539 30.0381 104.451 29.8628 104.276 29.8628H102.873C102.786 29.8628 102.698 29.8628 102.698 29.9505L100.331 33.3691C100.244 33.5445 99.9806 33.5445 99.8929 33.3691L97.5261 29.9505C97.4385 29.8628 97.4385 29.8628 97.3508 29.8628H95.9483C95.773 29.8628 95.5977 30.1258 95.773 30.2134L99.0163 35.0347C99.104 35.1223 99.104 35.21 99.0163 35.2976L95.3347 40.5571C95.247 40.7325 95.3347 40.9954 95.51 40.9954H97.1755C97.2632 40.9954 97.3508 40.9954 97.3508 40.9078L99.8929 37.1385C99.9806 36.9631 100.244 36.9631 100.331 37.1385L102.873 40.9078C102.961 40.9954 102.961 40.9954 103.049 40.9954H104.714C104.889 40.9078 105.065 40.7325 104.889 40.5571Z" fill="#394D54"/>
<defs>
<linearGradient id="paint0_linear_601_282" x1="54.0203" y1="14.7255" x2="52.765" y2="48.1191" gradientUnits="userSpaceOnUse">
<stop stop-color="#D9D8DC"/>
<stop offset="1" stop-color="white" stop-opacity="0.3853"/>
</linearGradient>
<linearGradient id="paint1_linear_601_282" x1="53.5636" y1="14.17" x2="40.4496" y2="42.9119" gradientUnits="userSpaceOnUse">
<stop stop-color="#8D67AF" stop-opacity="0.6719"/>
<stop offset="1" stop-color="#9F8DAF"/>
</linearGradient>
<linearGradient id="paint2_linear_601_282" x1="55.4077" y1="24.0387" x2="55.4077" y2="47.1582" gradientUnits="userSpaceOnUse">
<stop stop-color="#26053D" stop-opacity="0.7616"/>
<stop offset="1" stop-color="#B7B4B4" stop-opacity="0.2777"/>
</linearGradient>
<linearGradient id="paint3_linear_601_282" x1="46.7788" y1="24.7016" x2="52.6645" y2="40.2917" gradientUnits="userSpaceOnUse">
<stop stop-color="#91739F" stop-opacity="0.4595"/>
<stop offset="1" stop-color="#32054F" stop-opacity="0.5399"/>
</linearGradient>
<linearGradient id="paint4_linear_601_282" x1="60.0817" y1="44.801" x2="43.8988" y2="31.3975" gradientUnits="userSpaceOnUse">
<stop stop-color="#463D49" stop-opacity="0.3312"/>
<stop offset="1" stop-color="#340A50" stop-opacity="0.8214"/>
</linearGradient>
<linearGradient id="paint5_linear_601_282" x1="56.0763" y1="23.7799" x2="44.6632" y2="41.1457" gradientUnits="userSpaceOnUse">
<stop stop-color="#715383" stop-opacity="0.1452"/>
<stop offset="1" stop-color="#F4F4F4" stop-opacity="0.2336"/>
</linearGradient>
<linearGradient id="paint6_linear_601_282" x1="57.9722" y1="28.0732" x2="49.8898" y2="27.5799" gradientUnits="userSpaceOnUse">
<stop stop-color="#A5A1A8" stop-opacity="0.3561"/>
<stop offset="1" stop-color="#370C50" stop-opacity="0.582"/>
</linearGradient>
</defs>
</svg>
