<svg width="46" height="46" viewBox="0 0 46 46" fill="none" xmlns="http://www.w3.org/2000/svg">
<g clip-path="url(#clip0)">
<path fill-rule="evenodd" clip-rule="evenodd" d="M24.0604 1.06152C20.7911 2.22037 17.6351 5.60273 14.5925 11.2086C10.0285 19.6174 4.13395 31.5665 12.2508 41.0272C16.0059 45.4041 22.2061 47.9872 30.3429 43.8961C36.8795 40.6094 38.6974 31.1776 36.3507 26.7454C31.5098 17.6027 26.5985 15.3477 25.2834 9.67778C24.4066 5.89784 23.999 3.02576 24.0604 1.06152V1.06152Z" fill="url(#paint0_linear)"/>
<path fill-rule="evenodd" clip-rule="evenodd" d="M24.0605 0.948242C20.7745 2.11903 17.6186 5.50139 14.5925 11.0953C10.0534 19.4862 4.13397 31.4532 12.2508 40.914C16.006 45.2908 22.1263 46.7051 25.5224 44.1093C27.7363 42.4171 29.2421 40.804 30.1096 37.4052C31.0756 33.6208 30.3344 28.5258 29.8266 26.1852C29.184 23.2235 28.9736 19.9728 29.1956 16.4331C29.1174 16.3378 29.0589 16.2665 29.0203 16.2191C27.2522 14.0554 25.8879 12.1707 25.2834 9.5645C24.4066 5.78456 23.999 2.91248 24.0605 0.948242V0.948242Z" fill="url(#paint1_linear)"/>
<path fill-rule="evenodd" clip-rule="evenodd" d="M21.3396 2.42041C18.279 4.83927 16.0034 8.89654 14.5128 14.5922C12.2768 23.1357 12.0346 31.0142 12.8231 35.5967C14.3519 44.4802 22.2772 47.8522 30.4065 43.7173C35.4093 41.1726 37.493 35.7105 37.3826 29.7815C37.2683 23.6425 25.4052 16.685 23.3042 11.5617C21.9036 8.14606 21.2487 5.09898 21.3396 2.42041V2.42041Z" fill="url(#paint2_linear)"/>
<path fill-rule="evenodd" clip-rule="evenodd" d="M29.0988 18.4377C32.7694 23.1451 33.5695 26.422 31.4992 28.2685C28.3937 31.0381 20.7994 32.8452 16.075 29.4949C12.9254 27.2613 11.7337 22.4698 12.4999 15.1204C11.1997 17.8356 10.1004 20.5862 9.202 23.3721C8.30357 26.158 8.04121 29.0734 8.41492 32.1183C9.54087 34.3962 12.2785 35.9176 16.6277 36.6824C23.1516 37.8296 29.3262 37.2628 33.4695 35.1742C36.2316 33.7818 37.5381 32.3957 37.3889 31.0159C37.4886 28.9783 36.8602 27.0387 35.5039 25.197C34.1476 23.3553 32.0126 21.1022 29.0988 18.4377V18.4377Z" fill="url(#paint3_linear)"/>
<path fill-rule="evenodd" clip-rule="evenodd" d="M14.7549 13.7373C14.7243 17.137 15.5984 20.3688 17.3774 23.4328C20.0459 28.0287 23.1608 32.57 27.8219 36.3344C30.9293 38.8439 33.4122 39.6547 35.2707 38.7667C33.7443 41.4987 32.1212 42.8373 30.4014 42.7827C27.8219 42.7008 24.6765 41.5735 19.6369 35.5173C16.2771 31.4799 13.9787 27.6607 12.7416 24.0598C12.9378 22.6313 13.1458 21.2084 13.3656 19.7913C13.5855 18.3741 14.0486 16.3561 14.7549 13.7373V13.7373Z" fill="url(#paint4_linear)"/>
<path fill-rule="evenodd" clip-rule="evenodd" d="M22.6385 18.403C22.9236 21.1725 24.0013 25.6027 22.6385 28.5523C21.2757 31.502 14.981 36.8306 16.7185 41.5246C18.4561 46.2186 22.6906 45.1648 25.3468 43.0016C28.003 40.8383 29.4248 37.3208 29.74 34.847C30.0551 32.3733 28.986 27.6135 28.6382 23.4733C28.4064 20.7132 28.5637 18.3467 29.1101 16.3738L28.2962 15.3496L23.5055 13.9312C22.7374 15.0661 22.4484 16.5567 22.6385 18.403V18.403Z" fill="url(#paint5_linear)"/>
<path fill-rule="evenodd" clip-rule="evenodd" d="M24.3485 4.6853C22.7979 5.34049 21.3288 6.63872 19.9412 8.58C17.8598 11.4919 16.7997 13.2374 17.5844 19.0096C18.1076 22.8577 18.482 26.3979 18.7077 29.6301L25.4177 10.1346C25.171 9.14121 24.9658 8.24406 24.8022 7.44314C24.6385 6.64221 24.4873 5.72294 24.3485 4.6853V4.6853Z" fill="url(#paint6_linear)"/>
<path fill-rule="evenodd" clip-rule="evenodd" d="M25.4048 10.0957C23.7014 11.0899 22.3815 13.1268 21.4452 16.2064C20.5088 19.286 19.6521 23.5912 18.8751 29.1219C19.9114 25.6041 20.5988 23.0562 20.9373 21.4782C21.4452 19.1111 21.6186 15.7638 22.967 13.4913C23.8659 11.9763 24.6785 10.8444 25.4048 10.0957V10.0957Z" fill="#330A4C" fill-opacity="0.316321"/>
<path fill-rule="evenodd" clip-rule="evenodd" d="M17.5179 43.092C20.3211 43.4925 21.7868 43.8485 21.9152 44.1601C22.1079 44.6275 21.5604 45.0551 20.0044 44.7678C18.9671 44.5762 18.1383 44.0177 17.5179 43.092Z" fill="white"/>
<path fill-rule="evenodd" clip-rule="evenodd" d="M18.9261 4.6853C17.3843 6.5272 16.0483 8.47989 14.9181 10.5434C13.7879 12.6069 12.9804 14.1464 12.4955 15.1617C12.3452 15.9191 12.2718 17.0365 12.2754 18.5141C12.279 19.9917 12.4068 21.6346 12.6588 23.4429C12.8795 19.902 13.5549 16.4649 14.6853 13.1318C15.8156 9.79859 17.2292 6.98311 18.9261 4.6853V4.6853Z" fill="#EDEDED" fill-opacity="0.603261"/>
</g>
<defs>
<linearGradient id="paint0_linear" x1="23.4307" y1="4.37821" x2="21.8696" y2="45.9143" gradientUnits="userSpaceOnUse">
<stop stop-color="#D9D8DC"/>
<stop offset="1" stop-color="white" stop-opacity="0.385275"/>
</linearGradient>
<linearGradient id="paint1_linear" x1="24.1363" y1="4.3677" x2="7.82187" y2="40.1243" gradientUnits="userSpaceOnUse">
<stop stop-color="#8D67AF" stop-opacity="0.671932"/>
<stop offset="1" stop-color="#9F8DAF"/>
</linearGradient>
<linearGradient id="paint2_linear" x1="25.9574" y1="15.9528" x2="25.9574" y2="44.7068" gradientUnits="userSpaceOnUse">
<stop stop-color="#26053D" stop-opacity="0.761634"/>
<stop offset="1" stop-color="#B7B4B4" stop-opacity="0.277683"/>
</linearGradient>
<linearGradient id="paint3_linear" x1="11.204" y1="17.8971" x2="18.5241" y2="37.2878" gradientUnits="userSpaceOnUse">
<stop stop-color="#91739F" stop-opacity="0.45955"/>
<stop offset="1" stop-color="#32054F" stop-opacity="0.539912"/>
</linearGradient>
<linearGradient id="paint4_linear" x1="30.77" y1="41.7416" x2="10.6403" y2="25.0621" gradientUnits="userSpaceOnUse">
<stop stop-color="#463D49" stop-opacity="0.331182"/>
<stop offset="1" stop-color="#340A50" stop-opacity="0.821388"/>
</linearGradient>
<linearGradient id="paint5_linear" x1="26.6326" y1="16.2239" x2="12.4354" y2="37.8218" gradientUnits="userSpaceOnUse">
<stop stop-color="#715383" stop-opacity="0.145239"/>
<stop offset="1" stop-color="#F4F4F4" stop-opacity="0.233639"/>
</linearGradient>
<linearGradient id="paint6_linear" x1="27.9903" y1="22.8115" x2="17.9361" y2="22.1977" gradientUnits="userSpaceOnUse">
<stop stop-color="#A5A1A8" stop-opacity="0.356091"/>
<stop offset="1" stop-color="#370C50" stop-opacity="0.581975"/>
</linearGradient>
<clipPath id="clip0">
<rect width="45" height="45" fill="white" transform="translate(0.130493 0.948242)"/>
</clipPath>
</defs>
</svg>
