<svg width="50" height="51" viewBox="0 0 50 51" fill="none" xmlns="http://www.w3.org/2000/svg">
<g opacity="0.405" filter="url(#filter0_f)">
<path d="M47.5449 25.5C47.5449 37.9264 37.5732 48 25.2725 48C12.9717 48 3 37.9264 3 25.5C3 13.0736 12.9717 3 25.2725 3C37.5732 3 47.5449 13.0736 47.5449 25.5V25.5Z" fill="#211F46" fill-opacity="0.996078"/>
<path d="M47.5449 25.5C47.5449 37.9264 37.5732 48 25.2725 48C12.9717 48 3 37.9264 3 25.5C3 13.0736 12.9717 3 25.2725 3C37.5732 3 47.5449 13.0736 47.5449 25.5V25.5Z" stroke="#0A0B1B" stroke-width="0.78948"/>
</g>
<path d="M47.5449 25.5C47.5449 37.9264 37.5732 48 25.2725 48C12.9717 48 3 37.9264 3 25.5C3 13.0736 12.9717 3 25.2725 3C37.5732 3 47.5449 13.0736 47.5449 25.5Z" fill="url(#paint0_linear)" stroke="url(#paint1_linear)" stroke-width="1.25045"/>
<path fill-rule="evenodd" clip-rule="evenodd" d="M17.6173 41.3044C17.6173 41.3044 19.5032 41.4378 21.9293 41.2239C22.9118 41.1374 26.6421 40.771 29.431 40.1593C29.431 40.1593 32.8313 39.4316 34.6505 38.7612C36.5539 38.0598 37.5897 37.4644 38.056 36.6208C38.0356 36.448 38.1995 35.835 37.3217 35.4669C35.0775 34.5256 32.4748 34.6958 27.3247 34.5866C21.6134 34.3904 19.7135 33.4344 18.7014 32.6645C17.7309 31.8834 18.2189 29.7225 22.3774 27.819C24.4721 26.8054 32.6836 24.9349 32.6836 24.9349C29.9181 23.5679 24.7613 21.1649 23.7013 20.646C22.7716 20.1908 21.2838 19.5056 20.9613 18.6765C20.5956 17.8805 21.8248 17.1949 22.5115 16.9985C24.7228 16.3607 27.8445 15.9642 30.6856 15.9197C32.1137 15.8973 32.3455 15.8055 32.3455 15.8055C34.316 15.4786 35.6132 14.1304 35.0727 11.9953C34.5875 9.81596 32.0286 8.53538 29.5968 8.9787C27.3068 9.39618 21.7874 10.9994 21.7874 10.9994C28.6098 10.9404 29.7517 11.0543 30.2617 11.7673C30.5629 12.1884 30.1249 12.7658 28.3053 13.0629C26.3244 13.3865 22.2067 13.7761 22.2067 13.7761C18.2565 14.0107 15.474 14.0264 14.6394 15.7933C14.0942 16.9476 15.2209 17.9682 15.7147 18.607C17.8014 20.9276 20.8155 22.1792 22.7557 23.1009C23.4857 23.4476 25.6275 24.1025 25.6275 24.1025C19.3334 23.7563 14.793 25.6891 12.1296 27.9143C9.11727 30.7006 10.4498 34.0218 16.6213 36.0667C20.2664 37.2745 22.0742 37.8425 27.5114 37.3529C30.714 37.1803 31.2189 37.283 31.2508 37.5458C31.2957 37.9158 27.6936 38.8348 26.7102 39.1185C24.2084 39.8401 17.6501 41.2973 17.6173 41.3044V41.3044Z" fill="white"/>
<defs>
<filter id="filter0_f" x="0.979728" y="0.979728" width="48.5854" height="49.0405" filterUnits="userSpaceOnUse" color-interpolation-filters="sRGB">
<feFlood flood-opacity="0" result="BackgroundImageFix"/>
<feBlend mode="normal" in="SourceGraphic" in2="BackgroundImageFix" result="shape"/>
<feGaussianBlur stdDeviation="0.812749" result="effect1_foregroundBlur"/>
</filter>
<linearGradient id="paint0_linear" x1="14.1988" y1="12.0614" x2="42.1766" y2="50.1202" gradientUnits="userSpaceOnUse">
<stop stop-color="#8381C5"/>
<stop offset="0.566394" stop-color="#7E55B3" stop-opacity="0.996078"/>
<stop offset="1" stop-color="#A52ECB" stop-opacity="0.992157"/>
</linearGradient>
<linearGradient id="paint1_linear" x1="43.4095" y1="38.5914" x2="17.5879" y2="7.42146" gradientUnits="userSpaceOnUse">
<stop stop-color="#411F5D"/>
<stop offset="1" stop-color="#5B2A85"/>
</linearGradient>
</defs>
</svg>
