<svg width="58" height="46" viewBox="0 0 58 46" fill="none" xmlns="http://www.w3.org/2000/svg">
<path fill-rule="evenodd" clip-rule="evenodd" d="M23.3238 23.5122C23.6206 11.7752 31.3132 6.6459 33.9773 9.21336C36.6413 11.7752 35.653 17.2979 30.6231 20.7502C25.5945 24.2038 23.3238 23.5122 23.3238 23.5122ZM30.6231 35.4466C23.7886 35.6188 24.5082 31.1292 24.5082 31.1292C24.5082 31.1292 49.4605 22.5897 42.6568 5.72195C39.5994 1.38218 36.0464 0.0186494 31.0178 0.118044C25.9879 0.216039 19.7946 3.28328 15.7502 12.359C13.8211 16.6904 13.166 20.7935 12.7726 23.9028C12.7726 23.9028 8.35304 24.7903 5.98576 22.822C3.61989 20.8509 2.37536 22.822 2.37536 22.822C2.37536 22.822 -1.69983 27.5902 2.34596 29.1707C6.39034 30.7498 12.6886 31.069 12.6886 31.069H12.6858C13.2654 35.2688 14.6919 39.3062 19.8772 42.6786C28.5722 48.3357 41.4753 42.3608 41.4753 42.3608C49.2085 39.1284 54.3448 34.125 56.5343 31.6878C57.2398 30.8996 57.216 29.7111 56.4825 28.9495L53.964 26.3331C53.2361 25.5757 52.0517 25.5057 51.2398 26.1721C47.8757 28.9271 39.0338 35.4466 30.6231 35.4466Z" fill="#E05C43"/>
</svg>
