<svg width="507" height="84" viewBox="0 0 507 84" fill="none" xmlns="http://www.w3.org/2000/svg">
<g clip-path="url(#clip0_901_512)">
<path d="M107.722 66.0245H100.332V22.9536H107.722V66.0245Z" fill="#323232"/>
<path d="M132.865 50.0129V66.0242H125.371V22.9533H141.837C145.993 22.7293 150.081 24.0736 153.292 26.7198C154.69 27.9576 155.796 29.49 156.529 31.2064C157.263 32.9228 157.606 34.7805 157.534 36.6456C157.634 38.4948 157.311 40.3424 156.592 42.0491C155.872 43.7557 154.774 45.2768 153.381 46.4975C150.612 48.851 146.734 50.0228 141.748 50.0129H132.865ZM132.865 43.9865H141.852C144.044 44.1368 146.214 43.4683 147.942 42.1107C148.667 41.4154 149.23 40.5697 149.593 39.6331C149.956 38.6965 150.108 37.6919 150.04 36.6899C150.092 35.6649 149.93 34.6403 149.563 33.6815C149.197 32.7228 148.634 31.8508 147.912 31.1214C146.303 29.6524 144.177 28.882 142 28.9797H132.806L132.865 43.9865Z" fill="#323232"/>
<path d="M192.581 47.7386H175.257V66.0245H167.778V22.9536H195.123V28.98H175.257V41.7713H192.581V47.7386Z" fill="#323232"/>
<path d="M227.464 54.8873C227.519 54.042 227.366 53.1961 227.018 52.4236C226.67 51.6512 226.138 50.9756 225.468 50.4561C223.253 49.0383 220.822 47.9906 218.27 47.3543C215.369 46.5615 212.586 45.3894 209.993 43.8685C206.076 41.4165 204.08 38.1966 204.08 34.2381C204.059 32.5766 204.432 30.9337 205.17 29.4444C205.907 27.9551 206.988 26.6619 208.322 25.6711C211.497 23.3179 215.386 22.1287 219.334 22.3035C222.094 22.2587 224.83 22.8236 227.346 23.9578C229.593 24.98 231.509 26.6126 232.874 28.6696C234.207 30.6778 234.907 33.0393 234.884 35.4492H227.493C227.546 34.4696 227.384 33.4904 227.019 32.5797C226.654 31.6691 226.094 30.8488 225.38 30.1762C223.675 28.8058 221.517 28.1256 219.334 28.2708C217.317 28.1524 215.316 28.7027 213.644 29.8365C212.973 30.3562 212.438 31.031 212.085 31.8028C211.732 32.5746 211.572 33.4204 211.619 34.2676C211.626 35.055 211.829 35.8282 212.212 36.517C212.594 37.2057 213.142 37.7881 213.806 38.2114C216.032 39.6114 218.467 40.6484 221.019 41.2836C223.847 42.0572 226.56 43.1994 229.09 44.6808C230.91 45.7715 232.433 47.2934 233.524 49.112C234.521 50.8718 235.031 52.8652 235.002 54.8873C235.058 56.5398 234.712 58.1812 233.994 59.6708C233.276 61.1603 232.207 62.4535 230.878 63.4394C227.606 65.7122 223.668 66.8296 219.689 66.6151C216.737 66.6477 213.811 66.0589 211.101 64.8869C208.677 63.876 206.573 62.2272 205.012 60.116C203.545 58.0469 202.783 55.5612 202.839 53.0262H210.318C210.261 54.0939 210.449 55.1605 210.87 56.1439C211.29 57.1272 211.931 58.0011 212.742 58.6981C214.751 60.1598 217.209 60.8707 219.689 60.7069C221.782 60.8643 223.867 60.3071 225.601 59.1264C226.226 58.6177 226.72 57.9681 227.044 57.2311C227.368 56.4941 227.512 55.6908 227.464 54.8873V54.8873Z" fill="#323232"/>
<path d="M283.616 54.8872C283.671 54.0419 283.518 53.196 283.17 52.4236C282.822 51.6511 282.29 50.9755 281.621 50.456C279.404 49.041 276.974 47.9935 274.422 47.3542C271.522 46.5614 268.739 45.3894 266.145 43.8684C262.228 41.4165 260.233 38.1965 260.233 34.238C260.211 32.5765 260.584 30.9336 261.322 29.4443C262.059 27.955 263.14 26.6619 264.475 25.6711C267.648 23.3157 271.538 22.1262 275.487 22.3034C278.246 22.2601 280.982 22.8249 283.498 23.9577C285.742 24.9853 287.657 26.6167 289.026 28.6695C290.353 30.6804 291.053 33.0402 291.036 35.4492H283.646C283.698 34.4696 283.536 33.4904 283.171 32.5797C282.806 31.669 282.247 30.8488 281.532 30.1761C279.826 28.8083 277.669 28.1285 275.487 28.2707C273.469 28.1501 271.468 28.7006 269.796 29.8364C269.125 30.3562 268.59 31.0309 268.237 31.8027C267.885 32.5745 267.725 33.4203 267.771 34.2676C267.775 35.0555 267.978 35.8297 268.36 36.5189C268.743 37.2081 269.292 37.7901 269.959 38.2113C272.185 39.6113 274.619 40.6484 277.172 41.2836C279.997 42.0635 282.71 43.2054 285.242 44.6808C287.062 45.7715 288.585 47.2933 289.676 49.1119C290.673 50.8717 291.184 52.8651 291.154 54.8872C291.211 56.5397 290.865 58.1812 290.146 59.6707C289.428 61.1603 288.359 62.4535 287.031 63.4394C283.757 65.71 279.82 66.8273 275.841 66.615C272.889 66.6476 269.963 66.0588 267.254 64.8869C264.827 63.8804 262.721 62.2308 261.164 60.116C259.697 58.0469 258.935 55.5612 258.991 53.0262H266.47C266.413 54.0939 266.602 55.1605 267.022 56.1438C267.442 57.1272 268.083 58.001 268.894 58.698C270.902 60.162 273.361 60.8732 275.841 60.7068C277.934 60.8642 280.019 60.307 281.754 59.1263C282.375 58.6153 282.868 57.9653 283.191 57.2289C283.515 56.4925 283.66 55.6903 283.616 54.8872V54.8872Z" fill="#323232"/>
<path d="M327.397 46.8228H309.66V60.1163H330.353V66.0245H302.27V22.9536H330.205V28.98H309.719V40.7964H327.456L327.397 46.8228Z" fill="#323232"/>
<path d="M366.523 55.951H349.85L346.362 66.0245H338.602L354.861 23.0127H361.571L377.83 66.0245H370.026L366.523 55.951ZM351.949 49.9246H364.424L358.186 32.0523L351.949 49.9246Z" fill="#323232"/>
<path d="M403.105 49.4224H394.768V66.0245H387.289V22.9536H402.425C407.352 22.9536 411.185 24.0712 413.924 26.3065C415.297 27.4973 416.376 28.9883 417.079 30.6636C417.781 32.3389 418.088 34.1535 417.974 35.9664C418.067 38.5344 417.337 41.0648 415.89 43.1893C414.406 45.1793 412.393 46.7142 410.081 47.6204L419.748 65.5223V66.0245H411.737L403.105 49.4224ZM394.768 43.396H402.454C404.594 43.5248 406.705 42.8447 408.367 41.4907C409.082 40.8309 409.644 40.0217 410.012 39.1206C410.38 38.2195 410.545 37.2485 410.495 36.2766C410.556 35.2979 410.413 34.3172 410.074 33.3967C409.736 32.4763 409.21 31.6361 408.529 30.9297C406.882 29.5452 404.765 28.8471 402.617 28.98H394.724L394.768 43.396Z" fill="#323232"/>
<path d="M461.859 51.9626C461.76 53.9987 461.26 55.9953 460.388 57.838C459.515 59.6806 458.287 61.3331 456.775 62.7007C453.446 65.403 449.233 66.7765 444.95 66.5558C441.759 66.6204 438.616 65.775 435.889 64.1187C433.241 62.4389 431.145 60.0201 429.859 57.1618C428.39 53.882 427.639 50.3268 427.656 46.7338V42.7162C427.601 39.0432 428.353 35.4029 429.859 32.0519C431.168 29.108 433.324 26.6197 436.052 24.903C438.854 23.1981 442.084 22.3271 445.364 22.3919C449.536 22.1903 453.631 23.5668 456.834 26.2471C459.864 29.0982 461.675 33.0088 461.889 37.1625H454.498C454.403 34.6855 453.447 32.3192 451.793 30.4714C450.014 28.9915 447.732 28.2559 445.423 28.4184C443.975 28.346 442.532 28.6349 441.224 29.2589C439.915 29.8829 438.783 30.8224 437.929 31.9928C436.185 34.3561 435.293 37.837 435.254 42.4356V46.2463C435.254 50.8991 436.096 54.444 437.752 56.8959C438.557 58.0968 439.663 59.0665 440.96 59.709C442.256 60.3515 443.698 60.6445 445.142 60.559C447.518 60.7359 449.875 60.0312 451.764 58.5797C453.462 56.7926 454.459 54.4539 454.572 51.9921L461.859 51.9626Z" fill="#323232"/>
<path d="M507 66.0245H499.609V46.8228H480.394V66.0245H472.93V22.9536H480.394V40.9146H499.609V22.9536H507V66.0245Z" fill="#323232"/>
<path d="M40.0858 7.32618L68.9973 26.646L66.6915 61.3272L35.489 76.6886L6.5775 57.3687L8.86855 22.6727L40.0858 7.32618M40.5588 -0.059082L2.77881 18.537L0 60.5444L35.0012 83.9557L72.796 65.3448L75.5748 23.3522L40.5588 -3.23689e-05V-0.059082Z" fill="#323232"/>
</g>
<defs>
<clipPath id="clip0_901_512">
<rect width="507" height="84" fill="white"/>
</clipPath>
</defs>
</svg>
