<svg width="160" height="60" viewBox="0 0 160 60" fill="none" xmlns="http://www.w3.org/2000/svg">
<path d="M68.4788 31.271L69.5781 29.8978L72.3591 26.9534H74.5658L70.8853 30.882L74.801 36.104H72.5298L69.5942 32.0916L68.5263 32.9743V36.1088H66.6104V23.2229H68.5392V29.5088L68.4377 31.2742L68.4788 31.271ZM76.1725 24.5477C76.154 24.2522 76.2579 23.9614 76.4592 23.744C76.5702 23.646 76.6995 23.5709 76.8397 23.5232C76.9799 23.4755 77.1281 23.4561 77.2759 23.4661C77.569 23.4484 77.8557 23.5483 78.0748 23.744C78.1738 23.8518 78.2499 23.9787 78.2984 24.1169C78.3468 24.255 78.3667 24.4016 78.3567 24.5477C78.3649 24.6903 78.344 24.833 78.2955 24.9673C78.2469 25.1016 78.1715 25.2246 78.074 25.3289C77.8589 25.5303 77.5698 25.635 77.275 25.6156C76.9746 25.6366 76.6791 25.5327 76.4584 25.3289C76.3601 25.225 76.2841 25.1021 76.2348 24.9678C76.1855 24.8335 76.164 24.6906 76.1717 24.5477H76.1725ZM78.2342 36.1265H76.2909V26.9453H78.2334L78.2342 36.1265ZM85.6936 26.7867C86.7244 26.7464 87.7134 27.2079 88.3513 28.0269C88.9956 28.857 89.3177 30.0194 89.3177 31.5142C89.3177 33.0154 88.9956 34.1719 88.3465 35.0191C87.6756 35.81 86.6906 36.2658 85.6541 36.2658C85.1419 36.265 84.636 36.1531 84.1712 35.9378C83.7064 35.7226 83.2938 35.4092 82.9618 35.0191H82.8297L82.4721 36.1007H81.0224V23.2148H82.9779V26.305L82.9424 27.3118L82.8941 28.1638H82.9779C83.5819 27.2481 84.624 26.7206 85.7193 26.7786L85.6936 26.7867ZM85.1862 28.3756C84.5419 28.3152 83.9113 28.5746 83.4949 29.0683C83.1502 29.5096 82.9698 30.3005 82.961 31.3813V31.5134C82.961 32.6258 83.1376 33.4323 83.4909 33.9327C83.8936 34.461 84.554 34.7437 85.2224 34.6833C85.5328 34.6966 85.8412 34.6278 86.1164 34.4837C86.3916 34.3396 86.6239 34.1253 86.7897 33.8626C87.1897 33.141 87.375 32.32 87.3236 31.4965C87.3236 29.4159 86.6114 28.3756 85.187 28.3756H85.1862ZM97.2949 36.1128L96.9067 34.8403H96.8407C96.4952 35.3179 96.0415 35.7068 95.5167 35.9751C94.9706 36.1966 94.3843 36.3005 93.7948 36.2795C93.024 36.3254 92.267 36.0637 91.6895 35.5515C91.4275 35.2789 91.2247 34.955 91.094 34.6001C90.9632 34.2453 90.9074 33.8672 90.9301 33.4897C90.9071 33.0729 90.9921 32.6572 91.1769 32.2828C91.3618 31.9085 91.6402 31.5883 91.9851 31.3531C92.6831 30.8736 93.7499 30.6116 95.1857 30.5671L96.7658 30.5187V30.0291C96.8044 29.5523 96.6595 29.0787 96.3599 28.705C96.1902 28.5471 95.9895 28.4263 95.7706 28.3503C95.5516 28.2743 95.3192 28.2448 95.0882 28.2637C94.6302 28.2613 94.1746 28.3297 93.7376 28.4667C93.3116 28.6095 92.8945 28.7776 92.4885 28.97L91.8571 27.5791C92.3741 27.3134 92.9226 27.1144 93.4903 26.988C94.0383 26.8565 94.5996 26.7884 95.1631 26.785C96.3228 26.785 97.2087 27.0395 97.8208 27.5485C98.4275 28.0575 98.7218 28.8535 98.7035 29.9365V36.1161L97.2949 36.1128ZM94.3988 34.7888C95.0206 34.8204 95.6302 34.6084 96.0981 34.1977C96.5443 33.7644 96.7795 33.1507 96.7424 32.5386V31.7437L95.5642 31.7969C94.8721 31.7678 94.1845 31.9199 93.5693 32.2382C93.3633 32.3732 93.1969 32.5604 93.0868 32.7806C92.9767 33.0009 92.927 33.2464 92.9427 33.4922C92.9327 33.6662 92.9598 33.8405 93.0221 34.0033C93.0844 34.1662 93.1806 34.3139 93.3043 34.4369C93.6172 34.6941 94.0175 34.8205 94.4214 34.7896L94.3988 34.7888ZM109.456 36.1128H107.501V30.4752C107.538 29.9137 107.382 29.3562 107.059 28.8951C106.888 28.7107 106.677 28.5679 106.442 28.4776C106.207 28.3872 105.954 28.3518 105.704 28.374C105.367 28.3455 105.028 28.3965 104.714 28.5229C104.401 28.6494 104.121 28.8478 103.898 29.1021C103.519 29.5875 103.329 30.4009 103.329 31.5424V36.1024H101.382V26.9534H102.912L103.186 28.1493H103.288C103.572 27.7057 103.98 27.3556 104.462 27.1426C104.99 26.8996 105.567 26.7774 106.148 26.785C108.346 26.785 109.446 27.9018 109.446 30.1354L109.456 36.1128ZM117.888 36.1128L117.5 34.8403H117.434C117.089 35.3179 116.635 35.7068 116.11 35.9751C115.564 36.1966 114.978 36.3005 114.388 36.2795C114.007 36.3025 113.624 36.2501 113.263 36.1251C112.902 36.0002 112.569 35.8053 112.283 35.5515C112.021 35.2789 111.818 34.955 111.687 34.6001C111.557 34.2453 111.501 33.8672 111.523 33.4897C111.5 33.0729 111.585 32.6572 111.77 32.2828C111.955 31.9085 112.233 31.5883 112.578 31.3531C113.276 30.8736 114.343 30.6116 115.779 30.5671L117.359 30.5187V30.0291C117.398 29.5523 117.253 29.0787 116.953 28.705C116.784 28.5471 116.583 28.4263 116.364 28.3503C116.145 28.2743 115.912 28.2448 115.681 28.2637C115.224 28.2613 114.768 28.3297 114.331 28.4667C113.905 28.6095 113.488 28.7776 113.082 28.97L112.45 27.5791C112.967 27.3134 113.516 27.1144 114.084 26.988C114.632 26.857 115.193 26.7889 115.756 26.785C116.916 26.785 117.802 27.0395 118.414 27.5485C119.021 28.0575 119.315 28.8535 119.297 29.9365V36.1161L117.888 36.1128ZM114.992 34.7888C115.614 34.8204 116.223 34.6084 116.691 34.1977C117.138 33.7644 117.373 33.1507 117.336 32.5386V31.7437L116.157 31.7969C115.465 31.7678 114.778 31.9199 114.163 32.2382C113.957 32.3732 113.79 32.5604 113.68 32.7806C113.57 33.0009 113.52 33.2464 113.536 33.4922C113.526 33.6662 113.553 33.8405 113.615 34.0033C113.678 34.1662 113.774 34.3139 113.898 34.4369C114.204 34.6893 114.596 34.8154 114.992 34.7896V34.7888Z" fill="#394D54"/>
<path fill-rule="evenodd" clip-rule="evenodd" d="M38.6562 26.0693V41.5478L49.6588 28.8769C46.2857 27.0277 42.5018 26.0693 38.6562 26.0693Z" fill="#343741"/>
<path fill-rule="evenodd" clip-rule="evenodd" d="M38.6562 15V26.0695C42.5011 26.0695 46.2844 27.0345 49.6588 28.8763L61.704 15H38.6562Z" fill="#F04E98"/>
<path fill-rule="evenodd" clip-rule="evenodd" d="M52.0238 30.3535L39.749 44.5002H61.2434C60.0709 38.7881 56.7755 33.7326 52.0238 30.3535Z" fill="#00BFB3"/>
</svg>
