<svg width="510" height="159" viewBox="0 0 510 159" fill="none" xmlns="http://www.w3.org/2000/svg">
<g clip-path="url(#clip0_901_484)">
<path d="M390.884 87.1792C391.703 86.1384 392.112 84.7701 392.112 83.0736C392.112 81.6172 391.738 80.312 390.984 79.1484C390.229 77.9893 388.165 77.4099 384.785 77.4099H381.362V88.7385H385.437C388.2 88.7385 390.015 88.2178 390.884 87.1792M391.226 110.948C392.363 110.054 392.938 108.469 392.938 106.198C392.938 104.08 392.424 102.511 391.396 101.496C390.369 100.508 388.379 100.016 385.437 100.016H381.362V112.293H385.505C388.152 112.293 390.058 111.847 391.226 110.948ZM509.928 126.794L496.161 14.3679C495.634 10.057 491.227 7.05292 486.32 7.65653L390.789 19.4195L388.364 0.00265452L355.898 23.7146C354.883 24.3838 349.872 28.0037 350.4 32.3128L354.34 64.4867L354.258 63.725L387.902 63.7188C393.609 63.7188 398.027 64.1521 401.156 65.0204C404.237 65.9184 406.656 67.6986 408.414 70.362C410.172 73.073 411.05 76.2316 411.05 79.8371C411.05 83.3506 410.218 86.1503 408.552 88.2346C406.838 90.3832 404.762 91.871 402.318 92.7059C405.676 94.0172 408.254 96.043 410.058 98.7807C411.883 101.581 412.799 104.722 412.799 108.21C412.799 112.38 411.772 115.926 409.717 118.846C407.662 121.733 404.842 123.627 401.254 124.519C397.719 125.444 392.547 125.906 382.831 126.013L361.875 126.026L364.167 144.741C364.697 149.051 369.102 152.057 374.008 151.454L472.545 139.32L474.989 158.999L507.07 133.533C507.07 133.533 507.2 133.454 507.405 133.285C508.881 132.076 510.344 130.081 509.928 126.794M381.808 21.3552V47.8433H384.164V55.2814H372.402V53.682C370.657 55.0377 368.637 55.7156 366.345 55.7156C363.788 55.7156 361.524 54.6996 359.555 52.6696C357.587 50.6386 356.602 47.7315 356.602 43.943C356.602 39.8645 357.51 36.7128 359.332 34.4861C361.15 32.2936 363.588 31.1929 366.645 31.1929C368.888 31.1929 370.808 31.8402 372.402 33.1296V28.7899H370.084V21.3552H381.808V21.3552ZM409.596 44.6811H395.325C395.363 48.5238 396.456 50.4456 398.613 50.4456C399.906 50.4456 400.842 49.5659 401.415 47.8084L409.167 49.0479C408.819 50.1023 408.333 51.0448 407.71 51.879C407.089 52.7132 406.329 53.4391 405.431 54.0558C403.623 55.3181 401.463 55.9497 398.948 55.9497C394.727 55.9497 391.551 54.8018 389.421 52.5123C387.292 50.2359 386.222 47.2519 386.222 43.5604C386.222 39.9527 387.277 36.9443 389.384 34.5377C391.462 32.1311 394.286 30.9283 397.845 30.9283C401.27 30.9283 404.06 32.0691 406.217 34.3481C408.333 36.6123 409.459 40.0549 409.596 44.6811M415.972 82.5344H436.607V112.27H439.484V125.906H415.972V112.27H419.396V96.1714H415.972V82.5344V82.5344ZM436.677 70.1192C436.677 72.4393 435.808 74.2758 434.078 75.6277C432.318 77.009 430.108 77.6976 427.438 77.6976C424.724 77.6976 422.462 77.0687 420.664 75.8045C418.858 74.5703 417.958 72.6874 417.958 70.1646C417.958 67.8437 418.881 65.9778 420.729 64.567C422.554 63.158 424.813 62.454 427.504 62.454C430.267 62.454 432.492 63.1886 434.178 64.6561C435.842 66.156 436.677 67.9747 436.677 70.1192M494.377 103.671C494.377 107.011 493.96 110.04 493.126 112.749C492.291 115.466 491.042 117.908 489.375 120.087C486.072 124.5 481.924 126.706 476.935 126.706C472.513 126.706 468.708 125.461 465.517 122.97V125.906H443.932V112.262H448.283V77.3307H443.863V63.7188H465.517V85.2888C468.435 82.9029 471.982 81.7121 476.152 81.7121C481.417 81.7121 485.771 83.6788 489.212 87.6142C492.654 91.5512 494.377 96.906 494.377 103.671ZM476.936 104.076C476.936 100.972 476.416 98.5999 475.368 96.9593C474.323 95.3521 472.928 94.5448 471.18 94.5448C469.312 94.5448 467.883 95.4255 466.881 97.1848C465.881 99.0042 465.381 101.284 465.381 104.03C465.381 110.563 467.359 113.827 471.314 113.827C475.064 113.827 476.936 110.579 476.936 104.076M395.417 41.1171C395.417 41.2944 395.425 41.4578 395.436 41.6045H400.722C400.746 41.1171 400.758 40.8393 400.758 40.7747C400.758 39.4897 400.509 38.4231 400.014 37.5793C399.516 36.7477 398.853 36.3345 398.033 36.3345C397.187 36.3345 396.536 36.7888 396.091 37.7016C395.642 38.6276 395.417 39.7666 395.417 41.1171M371.578 47.417C372.165 46.5566 372.461 45.2087 372.461 43.3691C372.461 41.8911 372.197 40.6585 371.674 39.6636C371.152 38.6896 370.371 38.2013 369.339 38.2013C367.204 38.2013 366.137 39.9973 366.137 43.5901C366.137 45.069 366.401 46.2902 366.924 47.2458C367.435 48.2233 368.217 48.7098 369.262 48.7098C370.209 48.7098 370.983 48.2783 371.578 47.417ZM362.938 78.6649L356.087 78.7362L360.042 111.073L362.938 111.035V78.6649Z" fill="#323232"/>
<path d="M5.44775 119.014V87.3598H0V82.0786H17.2208V87.3598H12.045V119.014H24.9385V104.659H30.8701V124.295H0V119.014H5.44775" fill="#323232"/>
<path d="M67.5654 119.166V124.296H56.7611V120.927C53.391 123.496 50.1631 124.781 47.0759 124.781C45.1186 124.781 43.4993 124.352 42.2185 123.491C40.937 122.631 40.0847 121.519 39.661 120.153C39.2374 118.787 39.0254 116.587 39.0254 113.551V100.046H34.8789V94.9171H44.7757V112.823C44.7757 114.989 44.8362 116.446 44.9574 117.194C45.0785 117.943 45.431 118.56 46.017 119.045C46.6019 119.53 47.3379 119.773 48.226 119.773C50.8896 119.773 53.7344 118.499 56.7611 115.949V100.046H51.5856V94.9171H62.5109V119.166H67.5654" fill="#323232"/>
<path d="M75.7795 84.9319C75.7795 84.0015 76.1069 83.1917 76.7629 82.5031C77.4183 81.8155 78.2509 81.4713 79.2599 81.4713C80.2082 81.4713 81.0252 81.8057 81.7112 82.4734C82.3968 83.1405 82.7402 83.9605 82.7402 84.9319C82.7402 85.9027 82.3968 86.7278 81.7112 87.4051C81.0252 88.0831 80.2082 88.422 79.2599 88.422C78.2914 88.422 77.469 88.0781 76.7932 87.3894C76.1167 86.7022 75.7795 85.8833 75.7795 84.9319V84.9319ZM76.5965 119.166V100.045H72.0566V94.9168H82.3468V119.166H86.8867V124.295H72.0566V119.166H76.5965" fill="#323232"/>
<path d="M92.5312 124.296V114.219H97.6759V115.191C97.8571 116.567 98.5993 117.699 99.9007 118.59C101.202 119.48 102.74 119.925 104.516 119.925C106.372 119.925 107.855 119.602 108.965 118.954C110.074 118.306 110.63 117.406 110.63 116.253C110.63 115.141 110.171 114.321 109.253 113.795C108.334 113.269 106.513 112.784 103.788 112.342C99.7526 111.658 96.8719 110.553 95.148 109.025C93.4233 107.496 92.5609 105.516 92.5609 103.087C92.5609 100.637 93.499 98.5865 95.3762 96.9375C97.2526 95.2866 99.7239 94.4619 102.791 94.4619C105.555 94.4619 107.936 95.0324 109.934 96.1741V94.9171H115.048V104.659H109.934V102.869C108.38 100.461 106.12 99.2567 103.154 99.2567C101.641 99.2567 100.395 99.586 99.4164 100.244C98.4373 100.901 97.9486 101.776 97.9486 102.869C97.9486 103.982 98.3972 104.745 99.2953 105.16C100.193 105.575 102.125 106.014 105.092 106.477C107.937 106.92 110.086 107.441 111.538 108.037C112.991 108.634 114.196 109.626 115.154 111.012C116.112 112.4 116.592 114.013 116.592 115.854C116.592 118.588 115.548 120.759 113.459 122.368C111.371 123.977 108.662 124.781 105.333 124.781C102.206 124.781 99.6533 124.068 97.6759 122.644V124.296H92.5312" fill="#323232"/>
<path d="M122.113 100.046V94.9171H125.927V90.3955L131.677 85.1137V94.9171H137.094V100.046H131.677V114.31C131.677 116.597 131.803 118.009 132.055 118.544C132.308 119.081 132.938 119.349 133.947 119.349C135.016 119.349 136.066 119.147 137.094 118.742V123.992C135.621 124.518 134.148 124.781 132.676 124.781C130.92 124.781 129.498 124.391 128.409 123.613C127.319 122.834 126.633 121.858 126.35 120.683C126.068 119.511 125.927 117.487 125.927 114.614V100.046H122.113" fill="#323232"/>
<path d="M168.099 106.875C167.696 104.81 166.626 102.945 164.891 101.275C163.155 99.605 161.026 98.7711 158.505 98.7711C156.205 98.7711 154.238 99.5255 152.604 101.032C150.969 102.54 149.97 104.487 149.607 106.875H168.099ZM174.031 111.063H149.395C149.758 113.775 150.828 115.97 152.604 117.649C154.378 119.329 156.648 120.168 159.413 120.168C163.428 120.168 166.606 118.549 168.946 115.312L174.031 117.558C172.377 120.128 170.228 122.034 167.585 123.279C164.941 124.523 162.177 125.146 159.292 125.146C154.813 125.146 150.984 123.744 147.807 120.942C144.628 118.14 143.04 114.361 143.04 109.606C143.04 105.094 144.588 101.382 147.686 98.4677C150.782 95.5547 154.338 94.0977 158.354 94.0977C162.289 94.0977 165.854 95.5195 169.053 98.3619C172.25 101.205 173.91 105.438 174.031 111.063" fill="#323232"/>
<path d="M185.454 119.166V100.045H179.553V94.9168H190.055V101.533C190.7 99.8137 191.598 98.3874 192.748 97.2535C193.898 96.1203 195.113 95.372 196.395 95.0076C197.676 94.6435 199.427 94.4616 201.646 94.4616H203.159V100.289H202.01C199.084 100.289 196.899 100.582 195.456 101.169C194.014 101.756 192.945 102.823 192.249 104.371C191.552 105.919 191.205 108.696 191.205 112.702V119.166H197.591V124.295H179.553V119.166H185.454" fill="#323232"/>
<path d="M218.276 110.031C218.276 111.65 218.608 113.198 219.274 114.674C219.939 116.151 220.999 117.391 222.452 118.392C223.905 119.394 225.609 119.894 227.567 119.894C230.311 119.894 232.575 118.974 234.361 117.133C236.147 115.292 237.04 112.762 237.04 109.545C237.04 106.41 236.106 103.961 234.24 102.2C232.373 100.441 230.25 99.5605 227.869 99.5605C225.327 99.5605 223.092 100.516 221.166 102.428C219.239 104.34 218.276 106.875 218.276 110.031V110.031ZM212.616 132.338V100.045H207.682V94.9168H218.366V99.5298C221.231 96.151 224.702 94.4616 228.777 94.4616C232.893 94.4616 236.298 95.8777 238.992 98.7105C241.685 101.543 243.032 105.225 243.032 109.758C243.032 114.513 241.569 118.266 238.643 121.018C235.718 123.77 232.389 125.145 228.656 125.145C224.782 125.145 221.351 123.648 218.366 120.654V132.338H224.056V137.467H207.259V132.338H212.616" fill="#323232"/>
<path d="M281.725 119.166V124.296H270.919V120.927C267.55 123.496 264.322 124.781 261.235 124.781C259.278 124.781 257.658 124.352 256.377 123.491C255.096 122.631 254.244 121.519 253.82 120.153C253.396 118.787 253.185 116.587 253.185 113.551V100.046H249.038V94.9171H258.935V112.823C258.935 114.989 258.995 116.446 259.116 117.194C259.238 117.943 259.59 118.56 260.176 119.045C260.76 119.53 261.497 119.773 262.385 119.773C265.049 119.773 267.894 118.499 270.919 115.949V100.046H265.745V94.9171H276.67V119.166H281.725" fill="#323232"/>
<path d="M296.75 94.9168V98.4676C300.442 95.7965 303.811 94.4616 306.858 94.4616C308.755 94.4616 310.324 94.9113 311.564 95.8122C312.805 96.7126 313.617 97.8151 314 99.1204C314.384 100.425 314.575 102.333 314.575 104.842V119.166H319.509V124.295H308.825V105.084C308.825 102.858 308.493 101.407 307.826 100.729C307.161 100.05 306.344 99.7123 305.375 99.7123C302.833 99.7123 299.958 100.956 296.75 103.445V119.166H301.803V124.295H285.854V119.166H290.999V100.045H285.854V94.9168H296.75" fill="#323232"/>
<path d="M323.457 100.046V94.9171H327.271V90.3955L333.02 85.1137V94.9171H338.438V100.046H333.02V114.31C333.02 116.597 333.146 118.009 333.399 118.544C333.651 119.081 334.281 119.349 335.291 119.349C336.36 119.349 337.408 119.147 338.438 118.742V123.992C336.965 124.518 335.492 124.781 334.019 124.781C332.264 124.781 330.841 124.391 329.752 123.613C328.662 122.834 327.976 121.858 327.694 120.683C327.411 119.511 327.271 117.487 327.271 114.614V100.046H323.457" fill="#323232"/>
<path d="M3.00583 52.465C2.27493 51.7461 1.91016 50.7869 1.91016 49.5885C1.91016 48.39 2.27493 47.4579 3.00583 46.7914C3.73605 46.1258 4.69936 45.7921 5.89474 45.7921C7.09044 45.7921 8.05273 46.1258 8.78364 46.7914C9.51388 47.4579 9.87931 48.39 9.87931 49.5885C9.87931 50.7869 9.51388 51.7531 8.78364 52.4851C8.05273 53.2189 7.09044 53.584 5.89474 53.584C4.69936 53.5578 3.73605 53.1848 3.00583 52.465V52.465ZM3.00583 40.6383C2.27493 39.9185 1.91016 38.9593 1.91016 37.7609C1.91016 36.5624 2.27493 35.5963 3.00583 34.8642C3.73605 34.1313 4.69936 33.7653 5.89474 33.7653C7.09044 33.7653 8.05273 34.1313 8.78364 34.8642C9.51388 35.5963 9.87931 36.5624 9.87931 37.7609C9.87931 38.9593 9.51388 39.9255 8.78364 40.6584C8.05273 41.3904 7.09044 41.7564 5.89474 41.7564C4.69936 41.731 3.73605 41.3572 3.00583 40.6383V40.6383ZM3.00583 28.6508C2.27493 27.931 1.91016 26.9719 1.91016 25.7734C1.91016 24.5749 2.27493 23.6097 3.00583 22.8768C3.73605 22.1447 4.69936 21.7779 5.89474 21.7779C7.09044 21.7779 8.05273 22.1447 8.78364 22.8768C9.51388 23.6097 9.87931 24.5749 9.87931 25.7734C9.87931 26.9719 9.51388 27.938 8.78364 28.6709C8.05273 29.4038 7.09044 29.7698 5.89474 29.7698C4.69936 29.7427 3.73605 29.3697 3.00583 28.6508" fill="#323232"/>
<path d="M46.4775 52.5054C45.7466 51.7865 45.3815 50.8273 45.3815 49.6288C45.3815 48.4295 45.7466 47.4843 46.4775 46.7916C47.2077 46.0998 48.1707 45.753 49.3661 45.753C50.5617 45.753 51.524 46.0998 52.255 46.7916C52.9852 47.4843 53.351 48.4295 53.351 49.6288C53.351 50.8273 52.9852 51.7926 52.255 52.5255C51.524 53.2584 50.5617 53.6244 49.3661 53.6244C48.1707 53.5982 47.2077 53.2252 46.4775 52.5054ZM34.5234 52.5456C33.7925 51.8266 33.4277 50.8666 33.4277 49.6681C33.4277 48.4705 33.7925 47.5245 34.5234 46.8318C35.2536 46.1391 36.217 45.7923 37.4123 45.7923C38.6077 45.7923 39.57 46.1391 40.3012 46.8318C41.0314 47.5245 41.3969 48.4705 41.3969 49.6681C41.3969 50.8666 41.0314 51.8336 40.3012 52.5657C39.57 53.2985 38.6077 53.6646 37.4123 53.6646C36.217 53.6383 35.2536 53.2645 34.5234 52.5456ZM34.5234 28.651C33.7925 27.9312 33.4277 26.9721 33.4277 25.7736C33.4277 24.5751 33.7925 23.6099 34.5234 22.877C35.2536 22.1449 36.217 21.7781 37.4123 21.7781C38.6077 21.7781 39.57 22.1449 40.3012 22.877C41.0314 23.6099 41.3969 24.5751 41.3969 25.7736C41.3969 26.9721 41.0314 27.9382 40.3012 28.6711C39.57 29.404 38.6077 29.77 37.4123 29.77C36.217 29.7429 35.2536 29.3699 34.5234 28.651Z" fill="#323232"/>
<path d="M78.4735 28.5303C77.7427 27.8114 77.3775 26.8522 77.3775 25.6537C77.3775 24.4553 77.7427 23.49 78.4735 22.7571C79.2041 22.0242 80.1671 21.6573 81.3624 21.6573C82.5578 21.6573 83.5205 22.0242 84.251 22.7571C84.9812 23.49 85.347 24.4553 85.347 25.6537C85.347 26.8522 84.9812 27.8183 84.251 28.5504C83.5205 29.2841 82.5578 29.6501 81.3624 29.6501C80.1671 29.6231 79.2041 29.2501 78.4735 28.5303ZM66.5195 40.5177C65.7889 39.7988 65.4238 38.8397 65.4238 37.6412C65.4238 36.4418 65.7889 35.4766 66.5195 34.7437C67.2497 34.0117 68.2133 33.6457 69.4084 33.6457C70.6041 33.6457 71.5667 34.0117 72.2973 34.7437C73.0279 35.4766 73.393 36.4418 73.393 37.6412C73.393 38.8397 73.0279 39.8058 72.2973 40.5378C71.5667 41.2707 70.6041 41.6367 69.4084 41.6367C68.2133 41.6105 67.2497 41.2375 66.5195 40.5177Z" fill="#323232"/>
<path d="M109.993 28.5305C109.262 27.8116 108.897 26.8524 108.897 25.654C108.897 24.4555 109.262 23.4902 109.993 22.7573C110.723 22.0244 111.687 21.6576 112.882 21.6576C114.078 21.6576 115.04 22.0244 115.77 22.7573C116.501 23.4902 116.867 24.4555 116.867 25.654C116.867 26.8524 116.501 27.8186 115.77 28.5506C115.04 29.2844 114.078 29.6504 112.882 29.6504C111.687 29.6233 110.723 29.2503 109.993 28.5305ZM98.0392 52.4259C97.3083 51.707 96.9434 50.747 96.9434 49.5485C96.9434 48.35 97.3083 47.4049 98.0392 46.7122C98.7692 46.0195 99.7326 45.6727 100.928 45.6727C102.123 45.6727 103.085 46.0195 103.817 46.7122C104.547 47.4049 104.913 48.35 104.913 49.5485C104.913 50.747 104.547 51.7131 103.817 52.446C103.085 53.178 102.123 53.5449 100.928 53.5449C99.7326 53.5187 98.7692 53.1448 98.0392 52.4259ZM98.0392 40.518C97.3083 39.799 96.9434 38.8399 96.9434 37.6414C96.9434 36.4421 97.3083 35.4768 98.0392 34.7439C98.7692 34.0119 99.7326 33.6459 100.928 33.6459C102.123 33.6459 103.085 34.0119 103.817 34.7439C104.547 35.4768 104.913 36.4421 104.913 37.6414C104.913 38.8399 104.547 39.806 103.817 40.5381C103.085 41.2709 102.123 41.6369 100.928 41.6369C99.7326 41.6107 98.7692 41.2378 98.0392 40.518Z" fill="#323232"/>
<path d="M141.869 40.6785C141.137 39.9587 140.773 38.9996 140.773 37.8011C140.773 36.6026 141.137 35.6374 141.869 34.9045C142.599 34.1716 143.563 33.8047 144.758 33.8047C145.953 33.8047 146.915 34.1716 147.646 34.9045C148.376 35.6374 148.742 36.6026 148.742 37.8011C148.742 38.9996 148.376 39.9657 147.646 40.6977C146.915 41.4306 145.953 41.7966 144.758 41.7966C143.563 41.7704 142.599 41.3974 141.869 40.6785ZM141.869 28.6902C141.137 27.9713 140.773 27.013 140.773 25.8136C140.773 24.6152 141.137 23.6499 141.869 22.9161C142.599 22.1841 143.563 21.8181 144.758 21.8181C145.953 21.8181 146.915 22.1841 147.646 22.9161C148.376 23.6499 148.742 24.6152 148.742 25.8136C148.742 27.013 148.376 27.9782 147.646 28.7103C146.915 29.444 145.953 29.8092 144.758 29.8092C143.563 29.783 142.599 29.41 141.869 28.6902ZM129.915 52.5856C129.184 51.8658 128.819 50.9067 128.819 49.7091C128.819 48.5097 129.184 47.5645 129.915 46.871C130.645 46.1791 131.609 45.8323 132.804 45.8323C133.999 45.8323 134.961 46.1791 135.692 46.871C136.423 47.5645 136.788 48.5097 136.788 49.7091C136.788 50.9067 136.423 51.8728 135.692 52.6057C134.961 53.3386 133.999 53.7046 132.804 53.7046C131.609 53.6775 130.645 53.3045 129.915 52.5856ZM129.915 40.6785C129.184 39.9587 128.819 38.9996 128.819 37.8011C128.819 36.6026 129.184 35.6374 129.915 34.9045C130.645 34.1716 131.609 33.8047 132.804 33.8047C133.999 33.8047 134.961 34.1716 135.692 34.9045C136.423 35.6374 136.788 36.6026 136.788 37.8011C136.788 38.9996 136.423 39.9657 135.692 40.6977C134.961 41.4306 133.999 41.7966 132.804 41.7966C131.609 41.7704 130.645 41.3974 129.915 40.6785Z" fill="#323232"/>
<path d="M173.308 40.7178C172.576 39.9989 172.211 39.0398 172.211 37.8404C172.211 36.6419 172.576 35.6767 173.308 34.9438C174.038 34.2118 175 33.8449 176.196 33.8449C177.391 33.8449 178.354 34.2118 179.085 34.9438C179.815 35.6767 180.181 36.6419 180.181 37.8404C180.181 39.0398 179.815 40.005 179.085 40.7379C178.354 41.4708 177.391 41.8359 176.196 41.8359C175 41.8106 174.038 41.4367 173.308 40.7178ZM161.353 28.7304C160.623 28.0114 160.258 27.0523 160.258 25.8538C160.258 24.6545 160.623 23.6892 161.353 22.9572C162.084 22.2243 163.047 21.8583 164.242 21.8583C165.437 21.8583 166.4 22.2243 167.131 22.9572C167.862 23.6892 168.227 24.6545 168.227 25.8538C168.227 27.0523 167.862 28.0184 167.131 28.7505C166.4 29.4834 165.437 29.8494 164.242 29.8494C163.047 29.8231 162.084 29.4493 161.353 28.7304Z" fill="#323232"/>
<path d="M204.905 40.718C204.174 39.999 203.81 39.0399 203.81 37.8405C203.81 36.6421 204.174 35.6768 204.905 34.9439C205.635 34.2119 206.598 33.845 207.794 33.845C208.989 33.845 209.952 34.2119 210.682 34.9439C211.413 35.6768 211.778 36.6421 211.778 37.8405C211.778 39.0399 211.413 40.0052 210.682 40.738C209.952 41.4709 208.989 41.8361 207.794 41.8361C206.598 41.8107 205.635 41.4369 204.905 40.718ZM192.95 52.5456C192.22 51.8266 191.855 50.8666 191.855 49.6681C191.855 48.4705 192.22 47.5376 192.95 46.8711C193.681 46.2063 194.645 45.8727 195.84 45.8727C197.035 45.8727 197.998 46.2063 198.728 46.8711C199.459 47.5376 199.824 48.4705 199.824 49.6681C199.824 50.8666 199.459 51.8336 198.728 52.5657C197.998 53.2985 197.035 53.6646 195.84 53.6646C194.645 53.6383 193.681 53.2645 192.95 52.5456ZM192.95 40.718C192.22 39.999 191.855 39.0399 191.855 37.8405C191.855 36.6421 192.22 35.6768 192.95 34.9439C193.681 34.2119 194.645 33.845 195.84 33.845C197.035 33.845 197.998 34.2119 198.728 34.9439C199.459 35.6768 199.824 36.6421 199.824 37.8405C199.824 39.0399 199.459 40.0052 198.728 40.738C197.998 41.4709 197.035 41.8361 195.84 41.8361C194.645 41.8107 193.681 41.4369 192.95 40.718ZM192.95 28.7305C192.22 28.0116 191.855 27.0524 191.855 25.854C191.855 24.6546 192.22 23.6894 192.95 22.9573C193.681 22.2244 194.645 21.8584 195.84 21.8584C197.035 21.8584 197.998 22.2244 198.728 22.9573C199.459 23.6894 199.824 24.6546 199.824 25.854C199.824 27.0524 199.459 28.0186 198.728 28.7506C197.998 29.4835 197.035 29.8495 195.84 29.8495C194.645 29.8233 193.681 29.4494 192.95 28.7305Z" fill="#323232"/>
<path d="M236.662 28.8098C235.931 28.0909 235.566 27.1326 235.566 25.9333C235.566 24.7348 235.931 23.7695 236.662 23.0366C237.392 22.3038 238.356 21.9377 239.552 21.9377C240.747 21.9377 241.709 22.3038 242.44 23.0366C243.17 23.7695 243.536 24.7348 243.536 25.9333C243.536 27.1326 243.17 28.0979 242.44 28.8299C241.709 29.5637 240.747 29.9288 239.552 29.9288C238.356 29.9026 237.392 29.5296 236.662 28.8098ZM224.708 52.7052C223.977 51.9863 223.612 51.0272 223.612 49.8287C223.612 48.6293 223.977 47.6842 224.708 46.9915C225.438 46.2988 226.402 45.9528 227.597 45.9528C228.793 45.9528 229.755 46.2988 230.486 46.9915C231.216 47.6842 231.582 48.6293 231.582 49.8287C231.582 51.0272 231.216 51.9933 230.486 52.7253C229.755 53.4582 228.793 53.8242 227.597 53.8242C226.402 53.7971 225.438 53.4241 224.708 52.7052ZM224.708 40.7981C223.977 40.0783 223.612 39.1192 223.612 37.9207C223.612 36.7222 223.977 35.757 224.708 35.0241C225.438 34.2912 226.402 33.9243 227.597 33.9243C228.793 33.9243 229.755 34.2912 230.486 35.0241C231.216 35.757 231.582 36.7222 231.582 37.9207C231.582 39.1192 231.216 40.0853 230.486 40.8173C229.755 41.5502 228.793 41.9163 227.597 41.9163C226.402 41.8901 225.438 41.517 224.708 40.7981ZM224.708 28.8098C223.977 28.0909 223.612 27.1326 223.612 25.9333C223.612 24.7348 223.977 23.7695 224.708 23.0366C225.438 22.3038 226.402 21.9377 227.597 21.9377C228.793 21.9377 229.755 22.3038 230.486 23.0366C231.216 23.7695 231.582 24.7348 231.582 25.9333C231.582 27.1326 231.216 28.0979 230.486 28.8299C229.755 29.5637 228.793 29.9288 227.597 29.9288C226.402 29.9026 225.438 29.5296 224.708 28.8098Z" fill="#323232"/>
<path d="M268.459 52.5054C267.728 51.7865 267.363 50.8273 267.363 49.6288C267.363 48.4295 267.728 47.4843 268.459 46.7916C269.19 46.0998 270.153 45.753 271.348 45.753C272.544 45.753 273.506 46.0998 274.237 46.7916C274.968 47.4843 275.333 48.4295 275.333 49.6288C275.333 50.8273 274.968 51.7926 274.237 52.5255C273.506 53.2584 272.544 53.6244 271.348 53.6244C270.153 53.5982 269.19 53.2252 268.459 52.5054ZM256.505 52.5456C255.775 51.8266 255.41 50.8666 255.41 49.6681C255.41 48.4705 255.775 47.5245 256.505 46.8318C257.236 46.1391 258.199 45.7923 259.395 45.7923C260.59 45.7923 261.552 46.1391 262.283 46.8318C263.014 47.5245 263.379 48.4705 263.379 49.6681C263.379 50.8666 263.014 51.8336 262.283 52.5657C261.552 53.2985 260.59 53.6646 259.395 53.6646C258.199 53.6383 257.236 53.2645 256.505 52.5456ZM256.505 28.651C255.775 27.9312 255.41 26.9721 255.41 25.7736C255.41 24.5751 255.775 23.6099 256.505 22.877C257.236 22.1449 258.199 21.7781 259.395 21.7781C260.59 21.7781 261.552 22.1449 262.283 22.877C263.014 23.6099 263.379 24.5751 263.379 25.7736C263.379 26.9721 263.014 27.9382 262.283 28.6711C261.552 29.404 260.59 29.77 259.395 29.77C258.199 29.7429 257.236 29.3699 256.505 28.651Z" fill="#323232"/>
<path d="M303.225 41.8362C302.03 41.8108 301.067 41.437 300.337 40.7181C299.606 39.9991 299.241 39.04 299.241 37.8406C299.241 36.6422 299.606 35.6769 300.337 34.944C301.067 34.212 302.03 33.8451 303.225 33.8451C304.421 33.8451 305.383 34.212 306.115 34.944C306.844 35.6769 307.21 36.6422 307.21 37.8406C307.21 39.04 306.844 40.0053 306.115 40.7381C305.383 41.471 304.421 41.8362 303.225 41.8362ZM303.225 29.8496C302.03 29.8234 301.067 29.4495 300.337 28.7306C299.606 28.0117 299.241 27.0525 299.241 25.8541C299.241 24.6547 299.606 23.6894 300.337 22.9574C301.067 22.2245 302.03 21.8585 303.225 21.8585C304.421 21.8585 305.383 22.2245 306.115 22.9574C306.844 23.6894 307.21 24.6547 307.21 25.8541C307.21 27.0525 306.844 28.0187 306.115 28.7507C305.383 29.4836 304.421 29.8496 303.225 29.8496ZM291.272 53.7441C290.075 53.7179 289.113 53.3449 288.383 52.6251C287.651 51.9062 287.286 50.9471 287.286 49.7486C287.286 48.5501 287.651 47.605 288.383 46.9114C289.113 46.2195 290.075 45.8727 291.272 45.8727C292.467 45.8727 293.429 46.2195 294.16 46.9114C294.891 47.605 295.257 48.5501 295.257 49.7486C295.257 50.9471 294.891 51.9132 294.16 52.6452C293.429 53.3781 292.467 53.7441 291.272 53.7441ZM291.272 29.8496C290.075 29.8234 289.113 29.4495 288.383 28.7306C287.651 28.0117 287.286 27.0525 287.286 25.8541C287.286 24.6547 287.651 23.6894 288.383 22.9574C289.113 22.2245 290.075 21.8585 291.272 21.8585C292.467 21.8585 293.429 22.2245 294.16 22.9574C294.891 23.6894 295.257 24.6547 295.257 25.8541C295.257 27.0525 294.891 28.0187 294.16 28.7507C293.429 29.4836 292.467 29.8496 291.272 29.8496Z" fill="#323232"/>
<path d="M332.093 40.6785C331.362 39.9587 330.997 38.9996 330.997 37.8011C330.997 36.6026 331.362 35.6374 332.093 34.9045C332.823 34.1716 333.786 33.8047 334.981 33.8047C336.176 33.8047 337.139 34.1716 337.871 34.9045C338.601 35.6374 338.966 36.6026 338.966 37.8011C338.966 38.9996 338.601 39.9657 337.871 40.6977C337.139 41.4306 336.176 41.7966 334.981 41.7966C333.786 41.7704 332.823 41.3974 332.093 40.6785ZM332.093 28.6902C331.362 27.9713 330.997 27.013 330.997 25.8136C330.997 24.6152 331.362 23.6499 332.093 22.9161C332.823 22.1841 333.786 21.8181 334.981 21.8181C336.176 21.8181 337.139 22.1841 337.871 22.9161C338.601 23.6499 338.966 24.6152 338.966 25.8136C338.966 27.013 338.601 27.9782 337.871 28.7103C337.139 29.444 336.176 29.8092 334.981 29.8092C333.786 29.783 332.823 29.41 332.093 28.6902ZM320.139 52.5856C319.407 51.8658 319.042 50.9067 319.042 49.7091C319.042 48.5097 319.407 47.5645 320.139 46.871C320.869 46.1791 321.832 45.8323 323.028 45.8323C324.223 45.8323 325.185 46.1791 325.916 46.871C326.647 47.5645 327.013 48.5097 327.013 49.7091C327.013 50.9067 326.647 51.8728 325.916 52.6057C325.185 53.3386 324.223 53.7046 323.028 53.7046C321.832 53.6775 320.869 53.3045 320.139 52.5856ZM320.139 40.6785C319.407 39.9587 319.042 38.9996 319.042 37.8011C319.042 36.6026 319.407 35.6374 320.139 34.9045C320.869 34.1716 321.832 33.8047 323.028 33.8047C324.223 33.8047 325.185 34.1716 325.916 34.9045C326.647 35.6374 327.013 36.6026 327.013 37.8011C327.013 38.9996 326.647 39.9657 325.916 40.6977C325.185 41.4306 324.223 41.7966 323.028 41.7966C321.832 41.7704 320.869 41.3974 320.139 40.6785Z" fill="#323232"/>
</g>
<defs>
<clipPath id="clip0_901_484">
<rect width="510" height="159" fill="white"/>
</clipPath>
</defs>
</svg>
