<svg width="120" height="60" viewBox="0 0 120 60" fill="none" xmlns="http://www.w3.org/2000/svg">
<path d="M102.003 22.022C101.76 22.022 101.523 22.0723 101.314 22.1908L94.6826 26.0201C94.2535 26.2673 93.9927 26.7343 93.9927 27.2309V34.8758C93.9927 35.3722 94.2535 35.8385 94.6826 36.0864L96.4143 37.0843C97.2557 37.4992 97.566 37.4925 97.949 37.4925C99.1946 37.4925 99.9057 36.7366 99.9057 35.4229V27.8808C99.9057 27.7741 99.8133 27.6978 99.7086 27.6978H98.878C98.7716 27.6978 98.681 27.7761 98.681 27.8808V35.4268C98.681 36.0091 98.0744 36.595 97.0902 36.1027L95.29 35.0468C95.2264 35.0122 95.1773 34.949 95.1773 34.878V27.2331C95.1773 27.1607 95.2258 27.0867 95.29 27.0501L101.907 23.2345C101.969 23.1989 102.043 23.1989 102.104 23.2345L108.721 27.0501C108.784 27.0879 108.834 27.1583 108.834 27.2331V34.878C108.834 34.9509 108.797 35.0257 108.735 35.0609L102.104 38.8765C102.046 38.9103 101.967 38.9103 101.907 38.8765L100.204 37.8629C100.153 37.8332 100.084 37.8355 100.035 37.8629C99.5646 38.1294 99.4762 38.1603 99.0353 38.3133C98.9267 38.3511 98.7614 38.41 99.0917 38.5951L101.316 39.9061C101.528 40.0286 101.764 40.0891 102.006 40.0891C102.252 40.0891 102.484 40.0304 102.696 39.9061L109.327 36.0905C109.756 35.8408 110.017 35.3763 110.017 34.8799V27.235C110.017 26.7384 109.756 26.2723 109.327 26.0242L102.696 22.1949C102.488 22.0764 102.25 22.0261 102.006 22.0261L102.003 22.022ZM103.777 27.4847C101.889 27.4847 100.765 28.2883 100.765 29.6246C100.765 31.0725 101.881 31.4725 103.693 31.6517C105.861 31.864 106.03 32.1824 106.03 32.6091C106.03 33.3494 105.44 33.665 104.045 33.665C102.293 33.665 101.907 33.2275 101.778 32.354C101.763 32.2605 101.691 32.1851 101.595 32.1851H100.735C100.683 32.1863 100.633 32.2074 100.596 32.2441C100.56 32.2808 100.539 32.3303 100.537 32.3822C100.537 33.4981 101.144 34.8177 104.043 34.8177C106.141 34.8177 107.352 33.9959 107.352 32.551C107.352 31.1226 106.374 30.7366 104.339 30.4671C102.284 30.1932 102.086 30.0621 102.086 29.5802C102.086 29.1826 102.253 28.6507 103.776 28.6507C105.136 28.6507 105.639 28.9442 105.845 29.8615C105.863 29.9476 105.939 30.0181 106.028 30.0181H106.889C106.942 30.0181 106.993 29.9856 107.03 29.9476C107.066 29.9071 107.091 29.8615 107.086 29.8067C106.953 28.2269 105.9 27.4837 103.778 27.4837L103.777 27.4847Z" fill="#83CD29"/>
<path d="M63.0196 12.0003C62.9455 12.0004 62.8728 12.0198 62.8085 12.0566C62.7445 12.094 62.6914 12.1475 62.6544 12.2117C62.6174 12.2759 62.5977 12.3486 62.5974 12.4227V23.1928C62.5974 23.2985 62.5481 23.3932 62.4565 23.4462C62.4116 23.4724 62.3606 23.4862 62.3086 23.4862C62.2567 23.4862 62.2057 23.4724 62.1608 23.4462L60.401 22.4327C60.2726 22.3584 60.1269 22.3193 59.9786 22.3193C59.8303 22.3193 59.6846 22.3584 59.5562 22.4327L52.5313 26.4872C52.2687 26.6386 52.1086 26.9302 52.1086 27.2332V35.3424C52.1084 35.4908 52.1474 35.6367 52.2215 35.7652C52.2957 35.8937 52.4025 36.0004 52.5311 36.0745L59.5562 40.1291C59.6845 40.2036 59.8303 40.2428 59.9786 40.2428C60.1269 40.2428 60.2727 40.2036 60.401 40.1291L67.4261 36.0745C67.5547 36.0004 67.6615 35.8937 67.7357 35.7652C67.8098 35.6367 67.8488 35.4908 67.8486 35.3424V15.1257C67.8486 14.8181 67.6807 14.5295 67.4122 14.3796L63.2309 12.0423C63.1652 12.0057 63.0924 11.9993 63.0196 12.0001V12.0003ZM17.8274 22.1227C17.6934 22.1282 17.5676 22.1515 17.4472 22.2213L10.4223 26.2758C10.2936 26.3498 10.1867 26.4564 10.1126 26.585C10.0384 26.7135 9.99957 26.8594 10 27.0078L10.0143 37.8909C10.0143 38.0423 10.0926 38.1828 10.2256 38.2568C10.3561 38.335 10.5179 38.335 10.6479 38.2568L14.8151 35.8633C15.0792 35.7068 15.2514 35.4336 15.2514 35.1315V30.049C15.2514 29.7457 15.4109 29.4678 15.6741 29.3171L17.448 28.2895C17.5762 28.2149 17.722 28.176 17.8703 28.1768C18.0186 28.1759 18.1645 28.2148 18.2927 28.2895L20.0659 29.3166C20.3287 29.4672 20.4882 29.7455 20.4882 30.0484V35.1307C20.4882 35.4332 20.6643 35.708 20.9245 35.8625L25.0917 38.256C25.2228 38.3343 25.3842 38.3343 25.514 38.256C25.6431 38.1816 25.7253 38.0413 25.7253 37.8901L25.7394 27.0074C25.7402 26.859 25.7016 26.7129 25.6274 26.5843C25.5532 26.4556 25.4461 26.3491 25.3171 26.2754L18.2922 22.2211C18.1734 22.1515 18.047 22.128 17.912 22.1225H17.8278L17.8274 22.1227ZM80.9556 22.2213C80.8073 22.2209 80.6616 22.2598 80.5332 22.334L73.508 26.3887C73.2458 26.5404 73.0853 26.8176 73.0853 27.1205V35.2297C73.0853 35.5346 73.2571 35.8109 73.5217 35.9615L80.4905 39.9337C80.7478 40.0804 81.0619 40.0916 81.3211 39.9474L85.5447 37.5962C85.6787 37.5218 85.7693 37.3829 85.7697 37.2303C85.7701 37.0777 85.6909 36.9403 85.5584 36.8644L78.4907 32.8097C78.3585 32.7341 78.2657 32.5813 78.2657 32.4295V29.8938C78.2657 29.7423 78.3596 29.6034 78.4907 29.5279L80.687 28.2607C80.8177 28.1852 80.9781 28.1852 81.1096 28.2607L83.3068 29.5279C83.3711 29.5648 83.4245 29.6182 83.4616 29.6824C83.4987 29.7467 83.5181 29.8196 83.5179 29.8938V31.893C83.5177 31.9671 83.5372 32.0401 83.5742 32.1043C83.6113 32.1686 83.6647 32.2219 83.7291 32.2589C83.8607 32.3348 84.0202 32.3352 84.1517 32.2589L88.361 29.8096C88.6222 29.6578 88.7836 29.3798 88.7836 29.0778V27.1211C88.7836 26.9728 88.7446 26.827 88.6705 26.6985C88.5963 26.57 88.4896 26.4633 88.3612 26.3891L81.3783 22.3344C81.2499 22.2601 81.1041 22.2212 80.9558 22.2217L80.9556 22.2213ZM59.9503 28.2754C59.9896 28.2752 60.0284 28.2848 60.063 28.3034L62.4704 29.6971C62.5357 29.7349 62.5831 29.8048 62.5831 29.8801V32.6676C62.5831 32.7433 62.5361 32.813 62.4704 32.8506L60.063 34.2443C59.9975 34.2815 59.9175 34.2815 59.8517 34.2443L57.4444 32.8506C57.3788 32.8128 57.3317 32.743 57.3317 32.6676V29.8797C57.3317 29.8042 57.379 29.7349 57.4444 29.6967L59.8517 28.3032C59.8846 28.2842 59.9135 28.2752 59.9503 28.2752V28.275V28.2754Z" fill="#404137"/>
<path d="M38.9316 22.1789C38.7833 22.1787 38.6375 22.2175 38.509 22.2916L31.4838 26.3322C31.2212 26.4837 31.0615 26.7754 31.0615 27.0783V35.1875C31.0611 35.3359 31.1 35.4817 31.1741 35.6103C31.2483 35.7388 31.3551 35.8454 31.4838 35.9193L38.509 39.974C38.6373 40.0485 38.783 40.0877 38.9313 40.0877C39.0797 40.0877 39.2254 40.0485 39.3537 39.974L46.3789 35.9193C46.5074 35.8453 46.6142 35.7386 46.6884 35.6101C46.7626 35.4815 46.8015 35.3357 46.8013 35.1873V27.0781C46.8013 26.7748 46.6416 26.4833 46.3787 26.332L39.3535 22.2914C39.2251 22.217 39.0792 22.1781 38.9308 22.1787L38.9316 22.1789ZM80.9422 29.4154C80.9142 29.4154 80.8831 29.4154 80.8577 29.4291L79.5062 30.2177C79.481 30.2317 79.4599 30.252 79.4451 30.2767C79.4302 30.3014 79.4222 30.3296 79.4216 30.3584V31.9071C79.4216 31.9654 79.4555 32.0186 79.5062 32.048L80.8577 32.8222C80.8809 32.8366 80.9076 32.8442 80.935 32.8442C80.9623 32.8442 80.989 32.8366 81.0122 32.8222L82.3637 32.048C82.4138 32.0192 82.4483 31.9654 82.4483 31.9071V30.3584C82.4483 30.3 82.414 30.2468 82.3637 30.2175L81.0122 29.4289C80.9872 29.414 80.97 29.4152 80.9418 29.4152L80.9422 29.4154Z" fill="#83CD29"/>
</svg>
