<svg width="70" height="46" viewBox="0 0 70 46" fill="none" xmlns="http://www.w3.org/2000/svg">
<path d="M33.2491 23.9314V15.01L25.5229 10.5493L17.7969 15.01V23.9314L25.5229 28.392L33.2491 23.9314Z" fill="#3B8739"/>
<path d="M63.6767 22.5775L68.7117 25.4851L63.6767 28.3926L55.9512 23.9318V15.0103L63.6767 10.5496L68.3587 13.254C68.8279 15.233 69.1234 17.2778 69.2313 19.3716L66.3686 21.0243V17.9165L63.6767 16.3633L60.9848 17.9165V21.0243L63.6767 22.5775Z" fill="#333333"/>
<path d="M65.1764 20.3366V18.6049L63.6766 17.739L62.1768 18.6049V20.3366L63.6766 21.2027L65.1764 20.3366Z" fill="#66A060"/>
<path d="M14.1475 15.0105V26.775L8.99488 23.8353V17.8046L6.42217 16.3185L3.84932 17.8045V23.8352L0.923549 25.5048C0.744341 24.0873 0.651855 22.642 0.651855 21.1756C0.651855 18.4894 0.960007 15.8746 1.54401 13.3661L6.42217 10.5496L14.1475 15.0105Z" fill="#333333"/>
<path d="M33.2483 23.9302L25.5223 10.5488L17.7966 15.0094L25.5226 28.3908L33.2483 23.9302Z" fill="#6DA75D"/>
<path d="M17.7969 23.9312L20.4497 19.605L17.7969 15.0098V23.9312Z" fill="#55A344"/>
<path d="M30.6734 19.4703L33.249 15.0099L25.5228 10.5493L30.6734 19.4703Z" fill="#639D57"/>
<path d="M47.1027 0.209473V12.0455L44.5131 10.5497L36.7863 15.0104V23.9319L44.5131 28.3927L52.2386 23.9319V2.95871L47.1027 0.209473ZM47.0886 20.9573L44.513 22.4447L41.9373 20.9573V17.9839L44.513 16.4965L47.0886 17.9839V20.9573Z" fill="#333333"/>
<path d="M38.4704 34.9437C38.4704 34.9437 38.3187 33.6396 36.9238 33.6396C35.5287 33.6396 34.5736 33.8215 34.5736 34.5949C34.5736 35.3683 37.2878 35.3683 38.319 35.6715C39.3501 35.9747 40.2598 36.7632 39.8049 38.1583C39.35 39.5533 37.9549 39.7049 35.8017 39.7049C33.6486 39.7049 33.1632 37.9155 33.1632 37.2181H34.3762C34.3762 37.2181 34.2245 38.3099 35.6499 38.4918C37.0752 38.6736 38.4381 38.7761 38.6219 37.6731C38.8645 36.2173 34.0122 36.9452 33.5876 35.5199C33.2289 34.3156 33.4358 32.7299 35.8621 32.4872C38.2883 32.2444 39.6226 33.3156 39.6226 34.9134L38.4704 34.9437Z" fill="#66A060"/>
<path d="M26.7521 40.6287L29.4339 42.177C30.7814 42.9549 32.4657 41.9825 32.4657 40.4266V37.7134V32.7201H31.3726V40.1226C31.3726 40.9723 30.4529 41.5035 29.7169 41.0784L27.845 39.9978V32.0977L34.6867 28.148L41.5284 32.0977V39.9978L34.6867 43.9475L32.7158 42.8097L31.4288 43.3286L34.6866 45.2096L42.6213 40.6283V31.4667L34.6867 26.8857L26.752 31.467V40.6287H26.7521Z" fill="#66A060"/>
</svg>
