<svg width="45" height="45" viewBox="0 0 45 45" fill="none" xmlns="http://www.w3.org/2000/svg">
<path d="M21.9892 0.000368073C20.1539 0.00889581 18.4013 0.165418 16.8591 0.4383C12.3162 1.24089 11.4914 2.92079 11.4914 6.01881V10.1103H22.2269V11.4742H11.4914H7.46238C4.34232 11.4742 1.6103 13.3495 0.75576 16.9171C-0.229941 21.0063 -0.273662 23.558 0.75576 27.8278C1.51888 31.0061 3.34133 33.2707 6.46139 33.2707H10.1525V28.3659C10.1525 24.8224 13.2184 21.6968 16.8591 21.6968H27.5822C30.5672 21.6968 32.95 19.2391 32.95 16.2414V6.01881C32.95 3.1094 30.4956 0.923868 27.5822 0.4383C25.738 0.131307 23.8245 -0.00815966 21.9892 0.000368073ZM16.1835 3.29112C17.2924 3.29112 18.198 4.21148 18.198 5.34314C18.198 6.47079 17.2924 7.38265 16.1835 7.38265C15.0706 7.38265 14.169 6.47079 14.169 5.34314C14.169 4.21148 15.0706 3.29112 16.1835 3.29112Z" fill="url(#paint0_linear)"/>
<path d="M34.2888 11.4741V16.2413C34.2888 19.9373 31.1554 23.048 27.5822 23.048H16.8591C13.9219 23.048 11.4913 25.5619 11.4913 28.5034V38.726C11.4913 41.6354 14.0213 43.3467 16.8591 44.1814C20.2574 45.1806 23.5162 45.3612 27.5822 44.1814C30.2849 43.3989 32.95 41.824 32.95 38.726V34.6345H22.2269V33.2706H32.95H38.3178C41.4379 33.2706 42.6005 31.0943 43.6856 27.8278C44.8064 24.4649 44.7587 21.2309 43.6856 16.917C42.9145 13.811 41.4418 11.4741 38.3178 11.4741H34.2888ZM28.2579 37.3622C29.3708 37.3622 30.2724 38.274 30.2724 39.4017C30.2724 40.5333 29.3708 41.4537 28.2579 41.4537C27.149 41.4537 26.2434 40.5333 26.2434 39.4017C26.2434 38.274 27.149 37.3622 28.2579 37.3622Z" fill="url(#paint1_linear)"/>
<defs>
<linearGradient id="paint0_linear" x1="3.50395e-08" y1="3.04378e-08" x2="24.7551" y2="21.0948" gradientUnits="userSpaceOnUse">
<stop stop-color="#5A9FD4"/>
<stop offset="1" stop-color="#306998"/>
</linearGradient>
<linearGradient id="paint1_linear" x1="27.9999" y1="39.0577" x2="19.1187" y2="26.6125" gradientUnits="userSpaceOnUse">
<stop stop-color="#FFD43B"/>
<stop offset="1" stop-color="#FFE873"/>
</linearGradient>
</defs>
</svg>
