<svg width="158" height="60" viewBox="0 0 158 60" fill="none" xmlns="http://www.w3.org/2000/svg">
<path d="M67.2502 29.0575C67.2502 25.6176 66.2695 23.8525 64.3079 23.7555C63.5274 23.7189 62.7655 23.8401 62.024 24.1305C61.4324 24.342 61.0371 24.5518 60.8245 24.7635V32.9735C62.0792 33.7607 63.1936 34.1295 64.1652 34.0694C66.2235 33.9335 67.2499 32.2649 67.2499 29.0573L67.2502 29.0575ZM69.67 29.2002C69.67 30.9475 69.2603 32.3977 68.4358 33.5515C67.5172 34.857 66.2441 35.5292 64.6163 35.5661C63.3892 35.6056 62.1252 35.2207 60.8245 34.4148V41.8764L58.7202 41.1258V24.5639C59.0656 24.1404 59.5097 23.7767 60.0454 23.4679C61.2979 22.7382 62.82 22.3626 64.6132 22.3443L64.6431 22.3742C66.2799 22.3536 67.5417 23.0227 68.4279 24.3885C69.2541 25.6387 69.6686 27.2411 69.6686 29.2002H69.67ZM82.5275 34.0971C82.5275 36.4407 82.2926 38.0643 81.8226 38.9666C81.3506 39.8689 80.4528 40.5896 79.127 41.1264C78.0519 41.5499 76.8891 41.7806 75.6414 41.8195L75.2937 40.4934C76.5626 40.3208 77.4555 40.148 77.9735 39.9754C78.9934 39.63 79.6935 39.1005 80.0778 38.3914C80.3863 37.8133 80.5382 36.7109 80.5382 35.0783V34.5305C79.1185 35.1794 77.5751 35.5132 76.0141 35.5089C74.9782 35.5089 74.0641 35.1846 73.2768 34.5305C72.3929 33.8191 71.9508 32.9165 71.9508 31.823V23.0653L74.0551 22.3446V31.1599C74.0551 32.1016 74.359 32.8268 74.9666 33.3355C75.5743 33.8442 76.3618 34.0883 77.3267 34.07C78.291 34.0494 79.3249 33.6764 80.4232 32.9464V22.6621H82.5275V34.0971ZM90.7447 35.4511L90.0517 35.4809C88.8618 35.4809 87.9336 35.1979 87.2707 34.6294C86.61 34.0607 86.2782 33.276 86.2782 32.2742V23.9831H84.8401V22.6592H86.2782V19.1463L88.3802 18.3979V22.6618H90.7447V23.9856H88.3802V32.2189C88.3802 33.0084 88.5917 33.5681 89.0157 33.8949C89.3823 34.1642 89.9575 34.3184 90.7447 34.3573V35.4533V35.4511ZM103.486 35.2785H101.382V27.156C101.382 26.3298 101.188 25.6182 100.803 25.0243C100.359 24.3521 99.7422 24.016 98.9501 24.016C97.9858 24.016 96.779 24.5247 95.3309 25.5423V35.2785H93.2266V15.8634L95.3309 15.2002V24.0431C96.6753 23.0647 98.1443 22.5769 99.7396 22.5769C100.854 22.5769 101.757 22.9519 102.447 23.7005C103.14 24.4489 103.485 25.381 103.485 26.4954V35.2813L103.486 35.2785ZM114.67 28.7262C114.67 27.4047 114.416 26.3135 113.92 25.4498C113.325 24.3981 112.403 23.8426 111.155 23.7854C108.848 23.9191 107.697 25.5719 107.697 28.7395C107.697 30.1922 107.936 31.4055 108.42 32.3768C109.037 33.6175 109.962 34.2302 111.196 34.2096C113.512 34.1912 114.67 32.3633 114.67 28.7231L114.67 28.7262ZM116.975 28.7403C116.975 30.621 116.493 32.1868 115.537 33.437C114.48 34.8367 113.02 35.539 111.158 35.539C109.311 35.539 107.872 34.8341 106.834 33.437C105.892 32.1868 105.423 30.6213 105.423 28.7403C105.423 26.9724 105.932 25.4848 106.949 24.274C108.024 22.9894 109.438 22.3449 111.185 22.3449C112.933 22.3449 114.355 22.9894 115.451 24.274C116.467 25.4851 116.978 26.9724 116.978 28.7403H116.975ZM129.038 35.2785H126.934V26.6955C126.934 25.7538 126.651 25.0196 126.085 24.49C125.521 23.9628 124.763 23.7073 123.822 23.7279C122.822 23.7462 121.871 24.0733 120.969 24.7063V35.2785H118.865V24.4463C120.076 23.5646 121.19 22.9886 122.208 22.7196C123.168 22.4658 124.012 22.3446 124.745 22.3446C125.244 22.3446 125.714 22.3925 126.156 22.4895C126.982 22.6807 127.655 23.0351 128.173 23.5553C128.751 24.1305 129.038 24.8242 129.038 25.6297V35.2785V35.2785Z" fill="#394D54"/>
<path d="M37.9372 15.9414C36.8545 15.9465 35.8205 16.0387 34.9109 16.1997C32.2308 16.6734 31.7444 17.6642 31.7444 19.4916V21.9052H38.0773V22.7097H29.3647C27.524 22.7097 25.9123 23.8161 25.4087 25.9204C24.8273 28.3326 24.8014 29.838 25.4087 32.3567C25.859 34.2318 26.9341 35.5675 28.7745 35.5675H30.9521V32.6742C30.9521 30.5838 32.7606 28.74 34.9081 28.74H41.2339C42.9948 28.74 44.4003 27.2902 44.4003 25.5217V19.4913C44.4003 17.775 42.9525 16.4856 41.2339 16.1994C40.1461 16.0184 39.0171 15.9361 37.9344 15.9411L37.9372 15.9414ZM34.5094 17.8822C35.1635 17.8822 35.6978 18.4252 35.6978 19.0926C35.6978 19.7581 35.1635 20.2958 34.5094 20.2958C33.853 20.2958 33.3209 19.7578 33.3209 19.0926C33.3209 18.425 33.8527 17.8822 34.5094 17.8822V17.8822Z" fill="url(#paint0_linear_601_434)"/>
<path d="M45.1958 22.7095V25.5218C45.1958 27.7022 43.3472 29.5369 41.2398 29.5369H34.914C33.1813 29.5369 31.7476 31.0201 31.7476 32.7553V38.7859C31.7476 40.5022 33.24 41.5116 34.914 42.0042C36.9159 42.5935 38.8412 42.7001 41.2398 42.0042C42.8343 41.5426 44.4063 40.6136 44.4063 38.7859V36.3723H38.0804V35.5678H47.5727C49.4134 35.5678 50.0991 34.2841 50.7392 32.3571C51.4004 30.3732 51.3722 28.4655 50.7392 25.9207C50.2844 24.0886 49.4156 22.71 47.5727 22.71H45.1958V22.7095ZM41.638 37.9814C42.2944 37.9814 42.8264 38.5194 42.8264 39.1846C42.8264 39.8523 42.2947 40.395 41.638 40.395C40.9838 40.395 40.4495 39.852 40.4495 39.1846C40.4495 38.5191 40.9838 37.9814 41.638 37.9814Z" fill="url(#paint1_linear_601_434)"/>
<path d="M133.136 20.7858H133.505V18.4723H134.379V18.1966H132.262V18.4723H133.136V20.7858V20.7858ZM134.706 20.7858H135.021V18.6728L135.706 20.7858H136.057L136.77 18.6796V20.7858H137.114V18.1963H136.659L135.88 20.4148L135.215 18.1963H134.707V20.7858" fill="#646464"/>
<path opacity="0.444" d="M46.6363 46.1037C46.6363 47.0126 42.8366 47.7495 38.1495 47.7495C33.4623 47.7495 29.6626 47.0128 29.6626 46.1037C29.6626 45.1947 33.4623 44.458 38.1495 44.458C42.8366 44.458 46.6363 45.1947 46.6363 46.1037Z" fill="url(#paint2_radial_601_434)"/>
<defs>
<linearGradient id="paint0_linear_601_434" x1="24.9652" y1="15.9409" x2="39.4505" y2="28.5237" gradientUnits="userSpaceOnUse">
<stop stop-color="#5A9FD4"/>
<stop offset="1" stop-color="#306998"/>
</linearGradient>
<linearGradient id="paint1_linear_601_434" x1="41.4829" y1="38.9816" x2="36.3103" y2="31.5924" gradientUnits="userSpaceOnUse">
<stop stop-color="#FFD43B"/>
<stop offset="1" stop-color="#FFE873"/>
</linearGradient>
<radialGradient id="paint2_radial_601_434" cx="0" cy="0" r="1" gradientUnits="userSpaceOnUse" gradientTransform="translate(38.1495 46.1037) rotate(-90) scale(1.64569 7.23349)">
<stop stop-color="#B8B8B8" stop-opacity="0.498"/>
<stop offset="1" stop-color="#7F7F7F" stop-opacity="0"/>
</radialGradient>
</defs>
</svg>
