<svg width="158" height="60" viewBox="0 0 158 60" fill="none" xmlns="http://www.w3.org/2000/svg">
<g clip-path="url(#clip0_601_469)">
<path d="M64.1467 35.035C63.9347 34.9227 63.7187 34.827 63.5014 34.7421L63.6567 34.7294C63.6567 34.7294 62.2732 34.1168 62.1522 29.67C62.0326 25.2225 63.4711 24.4639 63.4711 24.4639L63.2644 24.4729C64.3513 23.9153 65.2862 23.0344 65.9031 21.8719C67.5106 18.8482 66.3604 15.0924 63.3361 13.4845C60.3105 11.8787 56.5556 13.0263 54.9491 16.0529C54.2885 17.2944 54.1008 18.6583 54.3095 19.9468L54.2388 19.8381C54.2388 19.8381 54.6031 21.4519 50.8199 23.8003C47.0373 26.1501 45.3309 24.9802 45.3309 24.9802L45.4395 25.1402C45.3312 25.0732 45.2276 25.0049 45.1146 24.9459C42.0889 23.3381 38.333 24.4869 36.7259 27.5126C35.1194 30.5379 36.2686 34.2921 39.2932 35.9006C41.5483 37.0975 44.2073 36.7638 46.0808 35.2627L46.0401 35.3413C46.0401 35.3413 47.4173 34.2085 51.3862 36.3392C54.5191 38.0203 54.9844 39.6682 55.0441 40.2874C54.9621 42.5848 56.1596 44.8382 58.326 45.9891C61.3507 47.5972 65.1066 46.4474 66.713 43.4224C68.3209 40.3977 67.1723 36.6415 64.1467 35.035ZM57.1528 35.8503C56.6516 36.0276 55.2194 36.2239 52.2044 34.6071C48.9391 32.8539 48.4545 31.3894 48.3835 30.9498C48.4298 30.4166 48.4002 29.8843 48.3092 29.365L48.3292 29.395C48.3292 29.395 48.0632 27.9705 51.7995 25.6505C55.1434 23.5747 56.6635 23.9876 56.9465 24.096C57.1285 24.2196 57.3171 24.3349 57.5151 24.4403C57.8914 24.6402 58.2794 24.7969 58.6723 24.9129C59.1323 25.3508 59.9788 26.5943 60.0668 29.8636C60.1568 33.1576 59.1889 34.4278 58.6613 34.877C58.118 35.123 57.6094 35.4513 57.1528 35.8503Z" fill="#0344A6"/>
<path d="M56.7437 15.4594C54.9389 17.4335 54.9009 20.3375 56.6397 21.9806C55.7801 21.1531 55.7988 19.4306 56.6674 17.7821C56.779 17.6345 57.1026 17.2855 57.5756 17.4442C57.6232 17.4605 57.6546 17.4648 57.6729 17.4618C57.7799 17.4848 57.8895 17.4985 58.0029 17.4935C58.7211 17.4608 59.2767 16.8532 59.2444 16.1347C59.2297 15.8124 59.0961 15.5271 58.8894 15.3081C60.5566 14.2159 62.4697 14.0909 63.2536 14.8068L63.2836 14.8088C61.4928 13.1737 58.5655 13.466 56.7437 15.4594Z" fill="white"/>
<path d="M38.5444 33.7065C38.5288 33.6905 38.5129 33.6719 38.4966 33.6562C38.5068 33.6668 38.5166 33.6797 38.5288 33.6909L38.5444 33.7065Z" fill="white"/>
<path d="M38.6013 27.1349C36.7961 29.1094 36.7585 32.0127 38.4969 33.6562C37.6377 32.8283 37.656 31.1058 38.5246 29.4573C38.6366 29.3094 38.9606 28.9607 39.4335 29.1194C39.4805 29.1357 39.5122 29.1397 39.5308 29.1374C39.6378 29.1604 39.7478 29.174 39.8608 29.169C40.5794 29.136 41.1346 28.5284 41.1023 27.8105C41.0873 27.4882 40.954 27.2026 40.748 26.984C42.4142 25.8921 44.3276 25.7661 45.1115 26.4823L45.1412 26.485C43.3504 24.8489 40.4224 25.1408 38.6013 27.1349Z" fill="white"/>
<path d="M57.7505 43.5917C57.7345 43.5754 57.7186 43.5571 57.7026 43.5415C57.7125 43.552 57.7227 43.5649 57.7345 43.5758L57.7505 43.5917Z" fill="white"/>
<path d="M57.8068 37.0188C56.0017 38.9939 55.964 41.8979 57.7025 43.541C56.8426 42.7135 56.8616 40.9903 57.7298 39.3425C57.8418 39.1942 58.1655 38.8459 58.6387 39.0046C58.6864 39.0202 58.7171 39.0249 58.7361 39.0222C58.8427 39.0452 58.953 39.0589 59.066 39.0542C59.7839 39.0209 60.3392 38.413 60.3069 37.6944C60.2922 37.3724 60.1586 37.0871 59.9526 36.8681C61.619 35.7766 63.5318 35.651 64.3164 36.3669L64.3457 36.3692C62.5559 34.7337 59.6276 35.026 57.8068 37.0188Z" fill="white"/>
</g>
<path d="M81.65 30.2605C81.842 30.5005 82.082 30.8185 82.37 31.2145C82.67 31.5985 82.976 32.0305 83.288 32.5105C83.6 32.9785 83.906 33.4705 84.206 33.9865C84.518 34.5025 84.782 35.0005 84.998 35.4805H83.09C82.85 35.0245 82.586 34.5625 82.298 34.0945C82.022 33.6265 81.74 33.1825 81.452 32.7625C81.164 32.3305 80.876 31.9285 80.588 31.5565C80.312 31.1845 80.06 30.8605 79.832 30.5845C79.676 30.5965 79.514 30.6025 79.346 30.6025C79.19 30.6025 79.028 30.6025 78.86 30.6025H77.294V35.4805H75.548V23.1865C76.04 23.0665 76.586 22.9885 77.186 22.9525C77.798 22.9045 78.356 22.8805 78.86 22.8805C80.612 22.8805 81.944 23.2105 82.856 23.8705C83.78 24.5305 84.242 25.5145 84.242 26.8225C84.242 27.6505 84.02 28.3585 83.576 28.9465C83.144 29.5345 82.502 29.9725 81.65 30.2605ZM79.004 24.4105C78.26 24.4105 77.69 24.4285 77.294 24.4645V29.1625H78.536C79.136 29.1625 79.676 29.1325 80.156 29.0725C80.636 29.0125 81.038 28.8985 81.362 28.7305C81.698 28.5625 81.956 28.3285 82.136 28.0285C82.316 27.7165 82.406 27.3085 82.406 26.8045C82.406 26.3365 82.316 25.9465 82.136 25.6345C81.956 25.3225 81.71 25.0765 81.398 24.8965C81.098 24.7165 80.738 24.5905 80.318 24.5185C79.91 24.4465 79.472 24.4105 79.004 24.4105ZM97.1103 29.2345C97.1103 30.3145 96.9423 31.2565 96.6063 32.0605C96.2703 32.8525 95.7963 33.5125 95.1843 34.0405C94.5723 34.5565 93.8403 34.9465 92.9883 35.2105C92.1363 35.4625 91.2003 35.5885 90.1803 35.5885C89.6763 35.5885 89.1183 35.5645 88.5063 35.5165C87.9063 35.4805 87.3603 35.4025 86.8683 35.2825V23.1865C87.3603 23.0665 87.9063 22.9885 88.5063 22.9525C89.1183 22.9045 89.6763 22.8805 90.1803 22.8805C91.2003 22.8805 92.1363 23.0125 92.9883 23.2765C93.8403 23.5285 94.5723 23.9185 95.1843 24.4465C95.7963 24.9625 96.2703 25.6225 96.6063 26.4265C96.9423 27.2185 97.1103 28.1545 97.1103 29.2345ZM90.3243 34.0585C91.9803 34.0585 93.2163 33.6385 94.0323 32.7985C94.8483 31.9465 95.2563 30.7585 95.2563 29.2345C95.2563 27.7105 94.8483 26.5285 94.0323 25.6885C93.2163 24.8365 91.9803 24.4105 90.3243 24.4105C89.8323 24.4105 89.4483 24.4165 89.1723 24.4285C88.9083 24.4405 88.7223 24.4525 88.6143 24.4645V34.0045C88.7223 34.0165 88.9083 34.0285 89.1723 34.0405C89.4483 34.0525 89.8323 34.0585 90.3243 34.0585ZM99.7003 35.4805V23.0065H107.224V24.5005H101.446V28.2625H106.576V29.7385H101.446V35.4805H99.7003Z" fill="#394D54"/>
<defs>
<clipPath id="clip0_601_469">
<rect width="31.4403" height="33.957" fill="white" transform="translate(36 12.7598)"/>
</clipPath>
</defs>
</svg>
