<svg width="43" height="46" viewBox="0 0 43 46" fill="none" xmlns="http://www.w3.org/2000/svg">
<g clip-path="url(#clip0)">
<path d="M37.9178 29.9148C37.6369 29.766 37.3506 29.6392 37.0627 29.5266L37.2685 29.5098C37.2685 29.5098 35.4351 28.698 35.2747 22.8051C35.1162 16.9113 37.0225 15.906 37.0225 15.906L36.7486 15.9179C38.189 15.179 39.4279 14.0116 40.2454 12.471C42.3757 8.46406 40.8514 3.48673 36.8436 1.35605C32.834 -0.771975 27.858 0.74874 25.7291 4.75966C24.8537 6.40493 24.605 8.2123 24.8815 9.91985L24.7879 9.77586C24.7879 9.77586 25.2706 11.9145 20.2571 15.0266C15.2444 18.1405 12.983 16.5901 12.983 16.5901L13.127 16.8022C12.9834 16.7134 12.8461 16.6228 12.6963 16.5447C8.68674 14.414 3.70941 15.9365 1.57961 19.9461C-0.5493 23.9552 0.973623 28.9303 4.9819 31.0619C7.97033 32.648 11.4941 32.2059 13.9768 30.2165L13.9229 30.3208C13.9229 30.3208 15.7479 28.8195 21.0075 31.6432C25.1593 33.871 25.7759 36.0547 25.855 36.8753C25.7463 39.9199 27.3333 42.9061 30.2042 44.4312C34.2125 46.5623 39.1898 45.0385 41.3187 41.0298C43.4494 37.0215 41.9274 32.0438 37.9178 29.9148ZM28.6495 30.9952C27.9852 31.2302 26.0873 31.4903 22.0918 29.3477C17.7646 27.0245 17.1224 25.0837 17.0284 24.5011C17.0898 23.7944 17.0504 23.0891 16.9299 22.4009L16.9564 22.4407C16.9564 22.4407 16.6039 20.5529 21.5552 17.4784C25.9866 14.7276 28.0011 15.2748 28.3761 15.4184C28.6172 15.5822 28.8672 15.735 29.1296 15.8746C29.6283 16.1396 30.1424 16.3472 30.6631 16.5009C31.2726 17.0813 32.3945 18.7292 32.5111 23.0617C32.6304 27.4268 31.3477 29.1101 30.6485 29.7055C29.9286 30.0315 29.2546 30.4665 28.6495 30.9952Z" fill="#0C479C"/>
<path d="M28.1075 3.97243C25.7157 6.58852 25.6654 10.4369 27.9697 12.6144C26.8305 11.5177 26.8553 9.23508 28.0063 7.05052C28.1543 6.85485 28.5832 6.39241 29.2099 6.60265C29.2731 6.6243 29.3146 6.63004 29.3389 6.62606C29.4807 6.65654 29.626 6.67465 29.7761 6.66802C30.728 6.62474 31.4642 5.81955 31.4214 4.86728C31.402 4.44017 31.2249 4.06209 30.951 3.77191C33.1603 2.32451 35.6956 2.15888 36.7344 3.10762L36.7742 3.11027C34.401 0.943368 30.5217 1.33072 28.1075 3.97243Z" fill="white"/>
<path d="M3.98855 28.1525C3.96823 28.1318 3.94747 28.1075 3.92627 28.0872C3.93952 28.1009 3.95233 28.1176 3.96823 28.1322L3.98855 28.1525Z" fill="white"/>
<path d="M4.06495 19.4447C1.6728 22.0612 1.62289 25.9087 3.9267 28.0866C2.78805 26.9895 2.81234 24.7069 3.96336 22.5223C4.11177 22.3262 4.54109 21.8642 5.16783 22.0744C5.23011 22.0961 5.27207 22.1014 5.29681 22.0983C5.43859 22.1288 5.58434 22.1469 5.73407 22.1403C6.68634 22.0965 7.42219 21.2913 7.37934 20.34C7.35947 19.9128 7.18279 19.5343 6.90983 19.2446C9.11781 17.7976 11.6535 17.6307 12.6923 18.5798L12.7317 18.5834C10.3585 16.4152 6.47831 16.8021 4.06495 19.4447Z" fill="white"/>
<path d="M29.4401 41.2521C29.4193 41.2309 29.3986 41.2071 29.3778 41.1868C29.3906 41.2005 29.4039 41.2172 29.4193 41.2314L29.4401 41.2521Z" fill="white"/>
<path d="M29.516 32.5431C27.1238 35.1605 27.0739 39.0089 29.3778 41.1864C28.2382 40.0897 28.2634 37.8062 29.414 35.6225C29.5624 35.4259 29.9913 34.9644 30.6184 35.1746C30.6816 35.1954 30.7222 35.2016 30.7474 35.198C30.8888 35.2285 31.035 35.2466 31.1847 35.2404C32.1361 35.1963 32.8719 34.3906 32.8291 33.4384C32.8096 33.0117 32.6325 32.6336 32.3596 32.3434C34.568 30.8969 37.1028 30.7304 38.1425 31.6791L38.1814 31.6822C35.8095 29.5149 31.9289 29.9023 29.516 32.5431Z" fill="white"/>
</g>
<defs>
<clipPath id="clip0">
<rect width="41.6649" height="45" fill="white" transform="translate(0.617554 0.394775)"/>
</clipPath>
</defs>
</svg>
