<svg width="160" height="60" viewBox="0 0 160 60" fill="none" xmlns="http://www.w3.org/2000/svg">
<path fill-rule="evenodd" clip-rule="evenodd" d="M52.8609 35.1211L34.54 45.9999L58.2621 44.3902L60.0892 20.4702L52.8609 35.1211Z" fill="url(#paint0_linear_601_441)"/>
<path fill-rule="evenodd" clip-rule="evenodd" d="M58.3012 44.3739L56.2623 30.3013L50.7085 37.6348L58.3012 44.3739Z" fill="url(#paint1_linear_601_441)"/>
<path fill-rule="evenodd" clip-rule="evenodd" d="M58.3283 44.3738L43.3909 43.2012L34.6191 45.9692L58.3283 44.3738Z" fill="url(#paint2_linear_601_441)"/>
<path fill-rule="evenodd" clip-rule="evenodd" d="M34.6405 45.9723L38.372 33.7476L30.1606 35.5034L34.6405 45.9723Z" fill="url(#paint3_linear_601_441)"/>
<path fill-rule="evenodd" clip-rule="evenodd" d="M50.7069 37.6752L47.2734 24.2261L37.4473 33.4367L50.7069 37.6752Z" fill="url(#paint4_linear_601_441)"/>
<path fill-rule="evenodd" clip-rule="evenodd" d="M59.3099 24.4158L50.0216 16.8296L47.4351 25.1916L59.3099 24.4158Z" fill="url(#paint5_linear_601_441)"/>
<path fill-rule="evenodd" clip-rule="evenodd" d="M54.966 14.125L49.5031 17.1439L46.0566 14.0845L54.966 14.125Z" fill="url(#paint6_linear_601_441)"/>
<path fill-rule="evenodd" clip-rule="evenodd" d="M28 39.6044L30.2885 35.4307L28.4373 30.4585L28 39.6044Z" fill="url(#paint7_linear_601_441)"/>
<path fill-rule="evenodd" clip-rule="evenodd" d="M28.3145 30.3012L30.177 35.5844L38.2701 33.7686L47.5099 25.1815L50.1175 16.8991L46.0116 14L39.0312 16.6124C36.8319 18.658 32.5643 22.7053 32.4104 22.7815C32.2582 22.8592 29.5923 27.8978 28.3145 30.3012Z" fill="white"/>
<path fill-rule="evenodd" clip-rule="evenodd" d="M34.854 20.8105C39.6204 16.0845 45.7652 13.2923 48.1233 15.6715C50.48 18.0507 47.9808 23.8327 43.2143 28.557C38.4478 33.2814 32.3792 36.2274 30.0227 33.8482C27.6646 31.4707 30.0875 25.5348 34.854 20.8105V20.8105Z" fill="url(#paint8_linear_601_441)"/>
<path fill-rule="evenodd" clip-rule="evenodd" d="M34.6401 45.9677L38.3425 33.7041L50.6385 37.6543C46.1927 41.8231 41.2481 45.3474 34.6401 45.9677Z" fill="url(#paint9_linear_601_441)"/>
<path fill-rule="evenodd" clip-rule="evenodd" d="M47.5259 25.1572L50.6825 37.6605C54.3962 33.7557 57.7293 29.5577 59.3617 24.3652L47.5259 25.1572V25.1572Z" fill="url(#paint10_linear_601_441)"/>
<path fill-rule="evenodd" clip-rule="evenodd" d="M59.3297 24.4283C60.593 20.6157 60.8845 15.1463 54.9275 14.1309L50.0396 16.8307L59.3297 24.4283V24.4283Z" fill="url(#paint11_linear_601_441)"/>
<path fill-rule="evenodd" clip-rule="evenodd" d="M28 39.5488C28.1749 45.8411 32.7146 45.9349 34.6484 45.9901L30.1816 35.5581L28 39.5488Z" fill="#9E1209"/>
<path fill-rule="evenodd" clip-rule="evenodd" d="M47.5435 25.1768C50.3972 26.9308 56.1485 30.4534 56.2652 30.5182C56.4464 30.6203 58.7448 26.6425 59.2663 24.3945L47.5435 25.1768V25.1768Z" fill="url(#paint12_radial_601_441)"/>
<path fill-rule="evenodd" clip-rule="evenodd" d="M38.3379 33.7041L43.2874 43.2532C46.214 41.666 48.5057 39.7322 50.6047 37.6608L38.3379 33.7041Z" fill="url(#paint13_radial_601_441)"/>
<path fill-rule="evenodd" clip-rule="evenodd" d="M30.1622 35.5714L29.4609 43.9221C30.7841 45.7295 32.6046 45.8866 34.5141 45.7457C33.1326 42.3073 30.3728 35.4321 30.1622 35.5714V35.5714Z" fill="url(#paint14_linear_601_441)"/>
<path fill-rule="evenodd" clip-rule="evenodd" d="M50.0103 16.8524L59.8428 18.2323C59.3181 16.0086 57.7066 14.5736 54.9597 14.125L50.0103 16.8524Z" fill="url(#paint15_linear_601_441)"/>
<path d="M80 36H76.1302C75.2725 34.6911 74.4959 33.5598 73.8003 32.6061C73.1114 31.6523 72.3618 30.669 71.5514 29.6561H70.0825V34.0958C70.0825 34.3261 70.1196 34.53 70.1939 34.7075C70.2682 34.8786 70.4269 35.0101 70.67 35.1022C70.7916 35.1482 71.0043 35.191 71.3082 35.2304C71.6121 35.2699 71.8688 35.2929 72.0781 35.2995V36H66V35.2995C66.1621 35.2864 66.3951 35.2633 66.699 35.2304C67.0096 35.1976 67.2258 35.1548 67.3473 35.1022C67.5499 35.0167 67.6951 34.8917 67.7829 34.7273C67.8775 34.5628 67.9247 34.3524 67.9247 34.0958V23.9732C67.9247 23.743 67.891 23.5391 67.8234 23.3615C67.7559 23.1839 67.5972 23.0491 67.3473 22.957C67.1785 22.8978 66.959 22.8452 66.6889 22.7992C66.4187 22.7466 66.1891 22.7137 66 22.7005V22H72.6353C73.2431 22 73.8138 22.0625 74.3473 22.1875C74.8808 22.3059 75.3637 22.4999 75.796 22.7696C76.2147 23.0327 76.549 23.378 76.7988 23.8055C77.0487 24.2265 77.1737 24.7362 77.1737 25.3347C77.1737 25.8741 77.0892 26.351 76.9204 26.7653C76.7516 27.1797 76.5017 27.5382 76.1708 27.8407C75.8668 28.1236 75.5022 28.3702 75.0767 28.5807C74.6512 28.7846 74.1819 28.9589 73.6686 29.1036C74.3777 30.0179 74.9653 30.7874 75.4313 31.4123C75.904 32.0371 76.4814 32.7968 77.1635 33.6913C77.4607 34.086 77.7274 34.3787 77.9638 34.5694C78.2069 34.7536 78.4467 34.9049 78.6831 35.0233C78.8586 35.1088 79.0781 35.1745 79.3415 35.2206C79.6049 35.2666 79.8244 35.2929 80 35.2995V36ZM74.6715 25.5617C74.6715 24.7132 74.4216 24.0423 73.9219 23.549C73.4221 23.0491 72.7163 22.7992 71.8046 22.7992H70.0825V28.8076H71.4096C72.3415 28.8076 73.1182 28.5182 73.7395 27.9394C74.3608 27.354 74.6715 26.5614 74.6715 25.5617Z" fill="#394D54"/>
<path d="M90 35.5797L86.7724 35.7947L86.6215 35.6579V34.436H86.5612C86.4004 34.5989 86.2194 34.7748 86.0183 34.9638C85.8172 35.1463 85.5859 35.3125 85.3245 35.4624C85.0228 35.6383 84.7313 35.7719 84.4497 35.8631C84.1682 35.9544 83.7693 36 83.2532 36C82.3751 36 81.7048 35.723 81.2422 35.1691C80.7864 34.6087 80.5585 33.7973 80.5585 32.7351V28.1212C80.5585 27.8866 80.5116 27.6911 80.4177 27.5347C80.3306 27.3718 80.1999 27.2317 80.0256 27.1144C79.9049 27.0362 79.7541 26.9808 79.5731 26.9482C79.3921 26.9091 79.2011 26.883 79 26.87V26.2346L82.308 26L82.4589 26.1369V32.8328C82.4589 33.5301 82.6197 34.0547 82.9415 34.4066C83.2632 34.7586 83.6487 34.9345 84.0978 34.9345C84.4665 34.9345 84.7949 34.8791 85.0832 34.7683C85.3714 34.6575 85.6127 34.5272 85.8071 34.3773C85.9881 34.2405 86.1456 34.0971 86.2797 33.9472C86.4205 33.7908 86.5277 33.6474 86.6015 33.5171V28.0528C86.6014 27.8377 86.5546 27.6488 86.4607 27.4858C86.3668 27.3164 86.2361 27.173 86.0686 27.0557C85.9479 26.9775 85.7669 26.9319 85.5256 26.9189C85.291 26.8993 85.0262 26.883 84.7313 26.87V26.2346L88.3309 26L88.4817 26.1369V33.7908C88.4817 34.0124 88.5286 34.2014 88.6225 34.3578C88.7163 34.5142 88.847 34.6478 89.0146 34.7586C89.1353 34.8302 89.2794 34.8791 89.447 34.9052C89.6146 34.9247 89.7989 34.9378 90 34.9443V35.5797" fill="#394D54"/>
<path d="M101 31.5334C101 33.0125 100.529 34.2551 99.5859 35.2611C98.6431 36.2671 97.5488 36.7701 96.303 36.7701C95.7576 36.7701 95.2189 36.6869 94.6869 36.5203C94.1616 36.3537 93.6667 36.1305 93.202 35.8507L92.4546 37L91.8283 36.8601C91.862 36.3671 91.8855 35.7741 91.899 35.0812C91.9125 34.3883 91.9192 33.7187 91.9192 33.0725V23.3186C91.9192 23.092 91.8653 22.8655 91.7576 22.639C91.6566 22.4125 91.5252 22.2492 91.3636 22.1493C91.2357 22.0627 91.0202 21.9994 90.7172 21.9594C90.4209 21.9128 90.1818 21.8828 90 21.8695V21.2299L93.6566 21L93.798 21.1499V27.6458L93.8687 27.6658C94.2862 27.2261 94.7407 26.8963 95.2323 26.6765C95.7306 26.4566 96.2188 26.3467 96.6969 26.3467C97.9225 26.3467 98.9461 26.8264 99.7676 27.7858C100.589 28.7452 101 29.9944 101 31.5334H101ZM98.8889 31.6034C98.8889 31.1104 98.835 30.6073 98.7272 30.0943C98.6195 29.5813 98.4511 29.1349 98.2222 28.7552C97.9932 28.3687 97.6936 28.0556 97.3232 27.8157C96.9528 27.5759 96.5084 27.456 95.9899 27.456C95.5185 27.456 95.1044 27.5492 94.7475 27.7358C94.3973 27.9157 94.0808 28.1622 93.798 28.4753V34.2117C93.8384 34.3716 93.9158 34.5582 94.0303 34.7714C94.1515 34.9846 94.3131 35.1878 94.5151 35.381C94.7172 35.5676 94.9461 35.7208 95.202 35.8407C95.4579 35.954 95.771 36.0106 96.1414 36.0106C96.9629 36.0106 97.6262 35.6175 98.1313 34.8314C98.6363 34.0452 98.8889 32.9692 98.8889 31.6034Z" fill="#394D54"/>
<path d="M102.151 38.8056C102.151 38.4793 102.237 38.2117 102.407 38.0028C102.583 37.8005 102.801 37.6993 103.06 37.6993C103.261 37.6993 103.435 37.7385 103.58 37.8168C103.725 37.8951 103.854 37.9963 103.968 38.1203C104.062 38.2182 104.163 38.352 104.271 38.5217C104.378 38.6914 104.463 38.8317 104.526 38.9427C104.841 38.7664 105.217 38.3063 105.652 37.5622C106.093 36.8182 106.412 36.1655 106.607 35.6042C106.008 34.0573 105.466 32.6737 104.98 31.4531C104.494 30.2326 103.987 28.9697 103.457 27.6643C103.337 27.3641 103.135 27.1324 102.851 26.9692C102.568 26.7995 102.284 26.6919 102 26.6462V26H106.257V26.6853C106.068 26.6918 105.841 26.7343 105.576 26.8126C105.311 26.8844 105.179 26.9856 105.179 27.1161C105.179 27.1161 105.195 27.165 105.226 27.2629C105.264 27.3608 105.295 27.4555 105.321 27.5469C105.56 28.193 105.926 29.1263 106.418 30.3469C106.91 31.5608 107.292 32.5333 107.563 33.2643C107.847 32.566 108.14 31.8448 108.443 31.1007C108.752 30.3501 109.096 29.4657 109.474 28.4476C109.518 28.3236 109.581 28.1539 109.663 27.9385C109.745 27.7166 109.786 27.5273 109.786 27.3706C109.786 27.2009 109.641 27.0443 109.351 26.9007C109.067 26.7506 108.796 26.6592 108.537 26.6266V26H112V26.607C111.811 26.6396 111.562 26.7539 111.253 26.9497C110.944 27.1389 110.713 27.4098 110.562 27.7622C109.811 29.5636 109.143 31.2051 108.556 32.6867C107.976 34.1683 107.535 35.2583 107.232 35.9566C106.834 36.8704 106.478 37.5818 106.163 38.0909C105.854 38.6065 105.551 39.0112 105.254 39.3049C104.964 39.579 104.699 39.7618 104.46 39.8531C104.226 39.951 103.984 40 103.731 40C103.239 40 102.851 39.8793 102.568 39.6378C102.29 39.3963 102.151 39.1189 102.151 38.8056" fill="#394D54"/>
<defs>
<linearGradient id="paint0_linear_601_441" x1="56.193" y1="48.9101" x2="49.4235" y2="36.9582" gradientUnits="userSpaceOnUse">
<stop stop-color="#FB7655"/>
<stop offset="0.41" stop-color="#E42B1E"/>
<stop offset="0.99" stop-color="#990000"/>
<stop offset="1" stop-color="#990000"/>
</linearGradient>
<linearGradient id="paint1_linear_601_441" x1="59.5654" y1="38.8702" x2="50.8411" y2="33.0156" gradientUnits="userSpaceOnUse">
<stop stop-color="#871101"/>
<stop offset="0.99" stop-color="#911209"/>
<stop offset="1" stop-color="#911209"/>
</linearGradient>
<linearGradient id="paint2_linear_601_441" x1="52.5846" y1="49.2723" x2="43.8605" y2="43.4179" gradientUnits="userSpaceOnUse">
<stop stop-color="#871101"/>
<stop offset="0.99" stop-color="#911209"/>
<stop offset="1" stop-color="#911209"/>
</linearGradient>
<linearGradient id="paint3_linear_601_441" x1="34.2673" y1="34.632" x2="35.6198" y2="43.4216" gradientUnits="userSpaceOnUse">
<stop stop-color="white"/>
<stop offset="0.23" stop-color="#E57252"/>
<stop offset="0.46" stop-color="#DE3B20"/>
<stop offset="0.99" stop-color="#A60003"/>
<stop offset="1" stop-color="#A60003"/>
</linearGradient>
<linearGradient id="paint4_linear_601_441" x1="43.5698" y1="26.4247" x2="44.0681" y2="35.3952" gradientUnits="userSpaceOnUse">
<stop stop-color="white"/>
<stop offset="0.23" stop-color="#E4714E"/>
<stop offset="0.56" stop-color="#BE1A0D"/>
<stop offset="0.99" stop-color="#A80D00"/>
<stop offset="1" stop-color="#A80D00"/>
</linearGradient>
<linearGradient id="paint5_linear_601_441" x1="51.8247" y1="18.1335" x2="53.3165" y2="24.5626" gradientUnits="userSpaceOnUse">
<stop stop-color="white"/>
<stop offset="0.18" stop-color="#E46342"/>
<stop offset="0.4" stop-color="#C82410"/>
<stop offset="0.99" stop-color="#A80D00"/>
<stop offset="1" stop-color="#A80D00"/>
</linearGradient>
<linearGradient id="paint6_linear_601_441" x1="47.2691" y1="15.8695" x2="53.6977" y2="12.6552" gradientUnits="userSpaceOnUse">
<stop stop-color="white"/>
<stop offset="0.54" stop-color="#C81F11"/>
<stop offset="0.99" stop-color="#BF0905"/>
<stop offset="1" stop-color="#BF0905"/>
</linearGradient>
<linearGradient id="paint7_linear_601_441" x1="28.6322" y1="32.3914" x2="29.1613" y2="37.6888" gradientUnits="userSpaceOnUse">
<stop stop-color="white"/>
<stop offset="0.31" stop-color="#DE4024"/>
<stop offset="0.99" stop-color="#BF190B"/>
<stop offset="1" stop-color="#BF190B"/>
</linearGradient>
<linearGradient id="paint8_linear_601_441" x1="24.9945" y1="39.1208" x2="49.8668" y2="13.5451" gradientUnits="userSpaceOnUse">
<stop stop-color="#BD0012"/>
<stop offset="0.07" stop-color="white"/>
<stop offset="0.17" stop-color="white"/>
<stop offset="0.27" stop-color="#C82F1C"/>
<stop offset="0.33" stop-color="#820C01"/>
<stop offset="0.46" stop-color="#A31601"/>
<stop offset="0.72" stop-color="#B31301"/>
<stop offset="0.99" stop-color="#E82609"/>
<stop offset="1" stop-color="#E82609"/>
</linearGradient>
<linearGradient id="paint9_linear_601_441" x1="44.0459" y1="41.7006" x2="36.5541" y2="39.8515" gradientUnits="userSpaceOnUse">
<stop stop-color="#8C0C01"/>
<stop offset="0.54" stop-color="#990C00"/>
<stop offset="0.99" stop-color="#A80D0E"/>
<stop offset="1" stop-color="#A80D0E"/>
</linearGradient>
<linearGradient id="paint10_linear_601_441" x1="56.914" y1="32.7085" x2="50.2586" y2="26.7434" gradientUnits="userSpaceOnUse">
<stop stop-color="#7E110B"/>
<stop offset="0.99" stop-color="#9E0C00"/>
<stop offset="1" stop-color="#9E0C00"/>
</linearGradient>
<linearGradient id="paint11_linear_601_441" x1="59.3594" y1="21.7635" x2="56.0442" y2="18.2193" gradientUnits="userSpaceOnUse">
<stop stop-color="#79130D"/>
<stop offset="0.99" stop-color="#9E120B"/>
<stop offset="1" stop-color="#9E120B"/>
</linearGradient>
<radialGradient id="paint12_radial_601_441" cx="0" cy="0" r="1" gradientUnits="userSpaceOnUse" gradientTransform="translate(51.2948 26.8576) scale(8.1559)">
<stop stop-color="#A80D00"/>
<stop offset="0.99" stop-color="#7E0E08"/>
<stop offset="1" stop-color="#7E0E08"/>
</radialGradient>
<radialGradient id="paint13_radial_601_441" cx="0" cy="0" r="1" gradientUnits="userSpaceOnUse" gradientTransform="translate(40 37.6059) scale(10.8422)">
<stop stop-color="#A30C00"/>
<stop offset="0.99" stop-color="#800E08"/>
<stop offset="1" stop-color="#800E08"/>
</radialGradient>
<linearGradient id="paint14_linear_601_441" x1="32.3195" y1="45.9605" x2="29.6178" y2="36.7945" gradientUnits="userSpaceOnUse">
<stop stop-color="#8B2114"/>
<stop offset="0.43" stop-color="#9E100A"/>
<stop offset="0.99" stop-color="#B3100C"/>
<stop offset="1" stop-color="#B3100C"/>
</linearGradient>
<linearGradient id="paint15_linear_601_441" x1="53.0456" y1="15.5872" x2="59.1025" y2="18.2608" gradientUnits="userSpaceOnUse">
<stop stop-color="#B31000"/>
<stop offset="0.44" stop-color="#910F08"/>
<stop offset="0.99" stop-color="#791C12"/>
<stop offset="1" stop-color="#791C12"/>
</linearGradient>
</defs>
</svg>
