<svg width="161" height="60" viewBox="0 0 161 60" fill="none" xmlns="http://www.w3.org/2000/svg">
<circle cx="23.5589" cy="14.6502" r="3.54666" fill="#F44336"/>
<circle cx="9.73953" cy="22.1629" r="3.54666" fill="#F44336"/>
<circle cx="34.9523" cy="21.9416" r="3.50211" fill="#F44336"/>
<circle cx="34.5006" cy="34.3835" r="3.50211" fill="#F44336"/>
<circle cx="20.6833" cy="41.8503" r="3.50211" fill="#F44336"/>
<circle cx="9.30679" cy="34.5421" r="3.50211" fill="#F44336"/>
<circle cx="21.1579" cy="29.4499" r="3.50211" fill="#F44336"/>
<path d="M23.6966 26.0015C23.6966 26.0015 22.678 25.391 21.5279 25.2525C20.9786 25.1863 20.1114 25.2678 20.1114 25.2678C20.7159 24.2172 21.8425 23.52 23.1417 23.52C24.2602 23.52 25.2562 24.0444 25.8974 24.8606L23.6966 26.0015Z" fill="#F44336"/>
<path d="M12.6941 19.0895L20.0503 15.2281L21.094 17.1899L13.814 20.9157C13.814 20.9157 13.5947 20.2845 13.3718 19.9221C13.1507 19.5624 12.6941 19.0895 12.6941 19.0895Z" fill="#F44336"/>
<path d="M23.6496 38.8175L31.0059 34.9562L32.0495 36.9179L24.7696 40.6438C24.7696 40.6438 24.5503 40.0125 24.3274 39.6501C24.1062 39.2905 23.6496 38.8175 23.6496 38.8175Z" fill="#F44336"/>
<path d="M30.8008 20.9006L25.7022 17.3386L26.9765 15.5184L31.8548 19.0275C31.8548 19.0275 31.4138 19.5256 31.1864 19.8845C30.9607 20.2406 30.8008 20.9006 30.8008 20.9006Z" fill="#F44336"/>
<path d="M16.4859 40.7849L11.3872 37.2229L12.6616 35.4026L17.5399 38.9118C17.5399 38.9118 17.0989 39.4099 16.8715 39.7688C16.6458 40.1249 16.4859 40.7849 16.4859 40.7849Z" fill="#F44336"/>
<path d="M12.9409 22.77L18.0951 26.4134C18.0951 26.4134 17.6539 26.9086 17.4121 27.2938C17.1407 27.7259 17.0137 28.3866 17.0137 28.3866L11.9574 24.7887L12.9409 22.77Z" fill="#F44336"/>
<path d="M27.0654 27.9502L31.616 31.0952C31.616 31.0952 31.1749 31.5905 30.933 31.9757C30.6616 32.4078 30.5346 33.0685 30.5346 33.0685L25.7509 29.7069L25.3479 29.7069L25.3479 28.8682L27.0654 27.9502Z" fill="#F44336"/>
<path d="M22.0166 23.938L22.0167 18.6114C22.0167 18.6114 22.5976 18.8524 23.0522 18.8693C23.5621 18.8882 24.266 18.8351 24.266 18.8351L24.266 23.9378L22.0166 23.938Z" fill="#F44336"/>
<path d="M8.36633 31.0901L8.36633 26.2053C8.36633 26.2053 8.95639 26.3776 9.41125 26.3776C9.93678 26.3776 10.566 26.3259 10.566 26.3259L10.566 31.2798L8.36633 31.0901Z" fill="#F44336"/>
<path d="M33.4943 31.1629L33.4538 25.9586C33.4538 25.9586 34.0459 26.1471 34.5012 26.1509C35.0273 26.1552 35.6568 26.1054 35.6568 26.1054L35.6978 31.3833L33.4943 31.1629Z" fill="#F44336"/>
<path d="M19.788 38.5565L19.7656 33.4949C19.7656 33.4949 20.3568 33.6761 20.8119 33.6782C21.3377 33.6806 21.9671 33.6299 21.9671 33.6299L21.9898 38.7632L19.788 38.5565Z" fill="#F44336"/>
<path d="M12.2615 31.4721L16.904 29.0614C16.904 29.0614 16.8837 29.9679 16.985 30.4439C17.0944 30.9579 17.2635 31.2795 17.2635 31.2795L13.3332 33.3535C13.3332 33.3535 13.1219 32.7271 12.9163 32.3621C12.7032 31.984 12.2615 31.4721 12.2615 31.4721Z" fill="#F44336"/>
<path d="M24.1492 26.4042L32.8638 21.8377C32.8638 21.8377 32.8436 22.7442 32.9449 23.2203C33.0542 23.7343 33.2234 24.0558 33.2234 24.0558L25.2209 28.2857C25.2209 28.2857 25.0096 27.6592 24.8039 27.2942C24.5909 26.9161 24.1492 26.4042 24.1492 26.4042Z" fill="#F44336"/>
<path d="M46.6508 31.7119C47.24 31.7119 47.6742 31.6344 47.9533 31.4793C48.2427 31.3243 48.3874 31.0762 48.3874 30.735C48.3874 30.3836 48.2479 30.1045 47.9688 29.8977C47.6897 29.691 47.2297 29.4584 46.5887 29.1999C46.2786 29.0759 45.9788 28.9518 45.6894 28.8278C45.4103 28.6934 45.1674 28.5383 44.9606 28.3626C44.7539 28.1869 44.5885 27.975 44.4644 27.7269C44.3404 27.4788 44.2783 27.1738 44.2783 26.812C44.2783 26.0987 44.5419 25.5353 45.0692 25.1219C45.5964 24.698 46.3148 24.4861 47.2245 24.4861C47.4519 24.4861 47.6793 24.5016 47.9068 24.5326C48.1342 24.5533 48.3461 24.5843 48.5425 24.6257C48.7389 24.6567 48.9095 24.6928 49.0542 24.7342C49.2093 24.7755 49.3281 24.8117 49.4108 24.8427L49.1472 26.0832C48.9922 26.0005 48.7492 25.9178 48.4185 25.8351C48.0877 25.7421 47.6897 25.6956 47.2245 25.6956C46.8213 25.6956 46.4699 25.7783 46.1701 25.9437C45.8703 26.0987 45.7204 26.3468 45.7204 26.688C45.7204 26.8637 45.7514 27.0188 45.8134 27.1531C45.8858 27.2875 45.9892 27.4116 46.1236 27.5253C46.2683 27.6287 46.444 27.7269 46.6508 27.8199C46.8575 27.9129 47.1056 28.0111 47.3951 28.1145C47.7775 28.2592 48.1187 28.404 48.4185 28.5487C48.7182 28.6831 48.9715 28.8433 49.1782 29.0294C49.3953 29.2154 49.5607 29.4429 49.6744 29.7116C49.7882 29.9701 49.845 30.2905 49.845 30.673C49.845 31.4173 49.5659 31.9807 49.0077 32.3632C48.4598 32.7456 47.6742 32.9369 46.6508 32.9369C45.9375 32.9369 45.3793 32.8749 44.9761 32.7508C44.573 32.6371 44.299 32.5492 44.1543 32.4872L44.4179 31.2467C44.5833 31.3088 44.8469 31.4018 45.2087 31.5258C45.5705 31.6499 46.0512 31.7119 46.6508 31.7119Z" fill="#394D54"/>
<path d="M51.245 28.7348C51.245 28.0215 51.3484 27.4012 51.5552 26.874C51.7619 26.3365 52.0358 25.892 52.377 25.5405C52.7181 25.189 53.1109 24.9254 53.5554 24.7497C53.9999 24.574 54.4548 24.4861 54.92 24.4861C56.0054 24.4861 56.8375 24.8272 57.4164 25.5095C57.9953 26.1814 58.2848 27.21 58.2848 28.5952C58.2848 28.6572 58.2848 28.7399 58.2848 28.8433C58.2848 28.9363 58.2796 29.0242 58.2693 29.1069H52.7491C52.8111 29.9442 53.0541 30.58 53.4779 31.0141C53.9017 31.4483 54.5633 31.6654 55.4627 31.6654C55.9692 31.6654 56.393 31.624 56.7342 31.5413C57.0856 31.4483 57.3492 31.3604 57.525 31.2777L57.7266 32.4872C57.5508 32.5802 57.2407 32.6785 56.7962 32.7818C56.362 32.8852 55.8658 32.9369 55.3076 32.9369C54.6047 32.9369 53.9948 32.8335 53.4779 32.6268C52.9714 32.4097 52.5527 32.1151 52.2219 31.7429C51.8911 31.3708 51.643 30.9314 51.4776 30.4249C51.3226 29.908 51.245 29.3447 51.245 28.7348ZM56.7807 27.9439C56.791 27.2927 56.6256 26.7603 56.2845 26.3468C55.9537 25.923 55.4937 25.7111 54.9045 25.7111C54.5737 25.7111 54.279 25.7783 54.0206 25.9127C53.7725 26.0367 53.5606 26.2021 53.3849 26.4089C53.2091 26.6156 53.0696 26.8534 52.9662 27.1221C52.8732 27.3909 52.8111 27.6648 52.7801 27.9439H56.7807Z" fill="#394D54"/>
<path d="M60.3563 24.9203C60.6871 24.8376 61.1212 24.7497 61.6588 24.6567C62.2067 24.5636 62.8372 24.5171 63.5505 24.5171C64.0674 24.5171 64.5016 24.5895 64.853 24.7342C65.2045 24.8686 65.4991 25.0702 65.7369 25.3389C65.8092 25.2872 65.9229 25.2149 66.078 25.1219C66.2331 25.0288 66.4243 24.9409 66.6517 24.8582C66.8791 24.7652 67.1324 24.6877 67.4115 24.6257C67.6906 24.5533 67.9904 24.5171 68.3109 24.5171C68.9311 24.5171 69.4376 24.6102 69.8305 24.7962C70.2233 24.972 70.5282 25.2252 70.7453 25.556C70.9727 25.8868 71.1226 26.2796 71.195 26.7345C71.2777 27.1893 71.319 27.6855 71.319 28.2231V32.7508H69.877V28.5332C69.877 28.0577 69.8511 27.6493 69.7994 27.3082C69.7581 26.9671 69.6702 26.6828 69.5358 26.4554C69.4118 26.2279 69.2361 26.0625 69.0086 25.9592C68.7916 25.8455 68.5073 25.7886 68.1558 25.7886C67.67 25.7886 67.2668 25.8558 66.9463 25.9902C66.6362 26.1142 66.4243 26.2279 66.3106 26.3313C66.3933 26.6001 66.4553 26.8947 66.4967 27.2152C66.538 27.5356 66.5587 27.8716 66.5587 28.2231V32.7508H65.1166V28.5332C65.1166 28.0577 65.0908 27.6493 65.0391 27.3082C64.9874 26.9671 64.8944 26.6828 64.76 26.4554C64.6359 26.2279 64.4602 26.0625 64.2328 25.9592C64.0157 25.8455 63.7366 25.7886 63.3955 25.7886C63.2507 25.7886 63.0957 25.7938 62.9303 25.8041C62.7649 25.8145 62.6047 25.83 62.4496 25.8506C62.3049 25.861 62.1705 25.8765 62.0464 25.8972C61.9224 25.9178 61.8397 25.9333 61.7983 25.9437V32.7508H60.3563V24.9203Z" fill="#394D54"/>
<path d="M76.4411 31.7119C76.7823 31.7119 77.082 31.7067 77.3405 31.6964C77.6092 31.6757 77.8315 31.6447 78.0072 31.6034V29.1999C77.9039 29.1482 77.7333 29.1069 77.4955 29.0759C77.2681 29.0345 76.989 29.0139 76.6582 29.0139C76.4411 29.0139 76.2085 29.0294 75.9604 29.0604C75.7227 29.0914 75.5004 29.1586 75.2937 29.262C75.0973 29.355 74.9319 29.4894 74.7975 29.6651C74.6631 29.8305 74.5959 30.0528 74.5959 30.3319C74.5959 30.8487 74.7613 31.2106 75.0921 31.4173C75.4229 31.6137 75.8726 31.7119 76.4411 31.7119ZM76.3171 24.4861C76.896 24.4861 77.3818 24.5636 77.7746 24.7187C78.1778 24.8634 78.4983 25.0753 78.736 25.3544C78.9841 25.6232 79.1598 25.9488 79.2632 26.3313C79.3666 26.7035 79.4183 27.117 79.4183 27.5718V32.6113C79.2942 32.6319 79.1185 32.6629 78.8911 32.7043C78.674 32.7353 78.4259 32.7663 78.1468 32.7973C77.8677 32.8283 77.5627 32.8542 77.2319 32.8749C76.9115 32.9059 76.591 32.9214 76.2706 32.9214C75.8157 32.9214 75.397 32.8749 75.0146 32.7818C74.6321 32.6888 74.3013 32.5441 74.0222 32.3477C73.7431 32.1409 73.526 31.8721 73.3709 31.5413C73.2159 31.2106 73.1383 30.8126 73.1383 30.3474C73.1383 29.9029 73.2262 29.5204 73.4019 29.1999C73.588 28.8795 73.8361 28.621 74.1462 28.4246C74.4563 28.2282 74.8182 28.0835 75.2316 27.9905C75.6451 27.8974 76.0793 27.8509 76.5342 27.8509C76.6789 27.8509 76.8288 27.8612 76.9838 27.8819C77.1389 27.8923 77.2836 27.9129 77.418 27.9439C77.5627 27.9646 77.6868 27.9853 77.7901 28.006C77.8935 28.0266 77.9659 28.0422 78.0072 28.0525V27.6493C78.0072 27.4116 77.9814 27.179 77.9297 26.9516C77.878 26.7138 77.785 26.5071 77.6506 26.3313C77.5162 26.1452 77.3301 26.0005 77.0924 25.8972C76.8649 25.7834 76.5652 25.7266 76.193 25.7266C75.7175 25.7266 75.2988 25.7628 74.937 25.8351C74.5856 25.8972 74.322 25.9643 74.1462 26.0367L73.9757 24.8427C74.1617 24.76 74.4719 24.6825 74.906 24.6102C75.3402 24.5275 75.8105 24.4861 76.3171 24.4861Z" fill="#394D54"/>
<path d="M81.8134 24.9203C82.1441 24.8376 82.5835 24.7497 83.1314 24.6567C83.6792 24.5636 84.3098 24.5171 85.0231 24.5171C85.664 24.5171 86.1964 24.6102 86.6202 24.7962C87.0441 24.972 87.38 25.2252 87.6281 25.556C87.8865 25.8765 88.0675 26.2641 88.1708 26.719C88.2742 27.1738 88.3259 27.6752 88.3259 28.2231V32.7508H86.8838V28.5332C86.8838 28.037 86.8476 27.6132 86.7753 27.2617C86.7133 26.9102 86.6047 26.6259 86.4497 26.4089C86.2946 26.1918 86.0878 26.0367 85.8294 25.9437C85.571 25.8403 85.2505 25.7886 84.868 25.7886C84.713 25.7886 84.5527 25.7938 84.3874 25.8041C84.222 25.8145 84.0617 25.83 83.9067 25.8506C83.7619 25.861 83.6276 25.8765 83.5035 25.8972C83.3898 25.9178 83.3071 25.9333 83.2554 25.9437V32.7508H81.8134V24.9203Z" fill="#394D54"/>
<path d="M92.0662 24.6877H95.1209V25.8972H92.0662V29.6186C92.0662 30.0218 92.0972 30.3577 92.1593 30.6265C92.2213 30.8849 92.3143 31.0917 92.4384 31.2467C92.5624 31.3915 92.7175 31.4948 92.9036 31.5569C93.0896 31.6189 93.3067 31.6499 93.5548 31.6499C93.989 31.6499 94.3353 31.6034 94.5937 31.5103C94.8625 31.407 95.0486 31.3346 95.1519 31.2932L95.431 32.4872C95.2863 32.5596 95.033 32.6474 94.6712 32.7508C94.3094 32.8645 93.8959 32.9214 93.4308 32.9214C92.8829 32.9214 92.428 32.8542 92.0662 32.7198C91.7148 32.5751 91.4305 32.3632 91.2134 32.0841C90.9963 31.8049 90.8413 31.4638 90.7482 31.0607C90.6655 30.6472 90.6242 30.1716 90.6242 29.6341V22.4393L92.0662 22.1912V24.6877Z" fill="#394D54"/>
<path d="M98.398 32.7508H96.956V24.6877H98.398V32.7508ZM97.6692 23.2301C97.4108 23.2301 97.1885 23.1474 97.0025 22.982C96.8267 22.8063 96.7389 22.5737 96.7389 22.2842C96.7389 21.9948 96.8267 21.7674 97.0025 21.602C97.1885 21.4262 97.4108 21.3384 97.6692 21.3384C97.9277 21.3384 98.1447 21.4262 98.3205 21.602C98.5066 21.7674 98.5996 21.9948 98.5996 22.2842C98.5996 22.5737 98.5066 22.8063 98.3205 22.982C98.1447 23.1474 97.9277 23.2301 97.6692 23.2301Z" fill="#394D54"/>
<path d="M104.382 32.9369C103.731 32.9369 103.157 32.8335 102.661 32.6268C102.175 32.42 101.762 32.1306 101.421 31.7584C101.09 31.3863 100.842 30.9469 100.676 30.4404C100.511 29.9236 100.428 29.355 100.428 28.7348C100.428 28.1145 100.516 27.546 100.692 27.0291C100.878 26.5122 101.136 26.0677 101.467 25.6956C101.798 25.3131 102.201 25.0185 102.677 24.8117C103.162 24.5946 103.7 24.4861 104.289 24.4861C104.651 24.4861 105.013 24.5171 105.375 24.5791C105.736 24.6412 106.083 24.7394 106.414 24.8738L106.088 26.0987C105.871 25.9954 105.618 25.9127 105.328 25.8506C105.049 25.7886 104.749 25.7576 104.429 25.7576C103.622 25.7576 103.002 26.0109 102.568 26.5174C102.144 27.0239 101.932 27.763 101.932 28.7348C101.932 29.1689 101.979 29.5669 102.072 29.9287C102.175 30.2905 102.33 30.6006 102.537 30.8591C102.754 31.1175 103.028 31.3191 103.359 31.4638C103.69 31.5982 104.093 31.6654 104.568 31.6654C104.951 31.6654 105.297 31.6292 105.607 31.5569C105.917 31.4845 106.16 31.407 106.336 31.3243L106.538 32.5337C106.455 32.5854 106.336 32.6371 106.181 32.6888C106.026 32.7301 105.85 32.7663 105.654 32.7973C105.457 32.8387 105.245 32.8697 105.018 32.8904C104.801 32.9214 104.589 32.9369 104.382 32.9369Z" fill="#394D54"/>
<path d="M121.633 32.7505C121.344 32.0062 121.034 31.1585 120.703 30.2075C120.383 29.2461 120.088 28.2485 119.819 27.2148C119.55 28.2485 119.256 29.2461 118.935 30.2075C118.615 31.1585 118.31 32.0062 118.021 32.7505H116.765C116.289 31.6857 115.824 30.4711 115.369 29.1065C114.914 27.742 114.485 26.2689 114.082 24.6873H115.633C115.736 25.1732 115.86 25.7004 116.005 26.2689C116.15 26.8375 116.299 27.406 116.454 27.9746C116.62 28.5431 116.79 29.091 116.966 29.6182C117.142 30.1454 117.307 30.6055 117.462 30.9983C117.638 30.5124 117.809 30.0007 117.974 29.4632C118.15 28.9153 118.315 28.3674 118.47 27.8195C118.625 27.2613 118.77 26.7186 118.904 26.1914C119.049 25.6539 119.173 25.1525 119.277 24.6873H120.471C120.564 25.1525 120.677 25.6539 120.812 26.1914C120.946 26.7186 121.091 27.2613 121.246 27.8195C121.401 28.3674 121.561 28.9153 121.727 29.4632C121.902 30.0007 122.078 30.5124 122.254 30.9983C122.409 30.6055 122.569 30.1454 122.734 29.6182C122.91 29.091 123.081 28.5431 123.246 27.9746C123.411 27.406 123.567 26.8375 123.711 26.2689C123.856 25.7004 123.98 25.1732 124.083 24.6873H125.572C125.169 26.2689 124.74 27.742 124.285 29.1065C123.83 30.4711 123.365 31.6857 122.889 32.7505H121.633Z" fill="#394D54"/>
<path d="M134.032 28.7189C134.032 29.3598 133.939 29.9387 133.753 30.4556C133.567 30.9724 133.304 31.4169 132.963 31.7891C132.632 32.1612 132.234 32.4507 131.769 32.6574C131.303 32.8538 130.797 32.952 130.249 32.952C129.701 32.952 129.195 32.8538 128.729 32.6574C128.264 32.4507 127.861 32.1612 127.52 31.7891C127.189 31.4169 126.931 30.9724 126.745 30.4556C126.559 29.9387 126.466 29.3598 126.466 28.7189C126.466 28.0883 126.559 27.5146 126.745 26.9977C126.931 26.4705 127.189 26.0208 127.52 25.6487C127.861 25.2765 128.264 24.9923 128.729 24.7959C129.195 24.5891 129.701 24.4857 130.249 24.4857C130.797 24.4857 131.303 24.5891 131.769 24.7959C132.234 24.9923 132.632 25.2765 132.963 25.6487C133.304 26.0208 133.567 26.4705 133.753 26.9977C133.939 27.5146 134.032 28.0883 134.032 28.7189ZM132.528 28.7189C132.528 27.8092 132.322 27.0908 131.908 26.5635C131.505 26.026 130.952 25.7572 130.249 25.7572C129.546 25.7572 128.988 26.026 128.574 26.5635C128.171 27.0908 127.97 27.8092 127.97 28.7189C127.97 29.6286 128.171 30.3522 128.574 30.8897C128.988 31.4169 129.546 31.6805 130.249 31.6805C130.952 31.6805 131.505 31.4169 131.908 30.8897C132.322 30.3522 132.528 29.6286 132.528 28.7189Z" fill="#394D54"/>
<path d="M139.038 24.5168C139.163 24.5168 139.302 24.5271 139.457 24.5478C139.623 24.5581 139.783 24.5788 139.938 24.6098C140.093 24.6305 140.232 24.6563 140.357 24.6873C140.491 24.708 140.589 24.7287 140.651 24.7493L140.403 26.0053C140.289 25.964 140.098 25.9175 139.829 25.8658C139.571 25.8038 139.235 25.7727 138.821 25.7727C138.553 25.7727 138.284 25.8038 138.015 25.8658C137.757 25.9175 137.586 25.9536 137.503 25.9743V32.7505H136.061V25.0284C136.402 24.9044 136.826 24.7907 137.333 24.6873C137.839 24.5736 138.408 24.5168 139.038 24.5168Z" fill="#394D54"/>
<path d="M144.958 28.3157C145.268 28.5535 145.594 28.8481 145.935 29.1996C146.286 29.551 146.627 29.9335 146.958 30.347C147.299 30.7502 147.62 31.1637 147.919 31.5875C148.219 32.001 148.473 32.3886 148.679 32.7505H146.989C146.772 32.3886 146.519 32.0217 146.229 31.6495C145.95 31.267 145.656 30.9052 145.345 30.5641C145.035 30.2126 144.72 29.8922 144.4 29.6027C144.079 29.3133 143.774 29.0704 143.485 28.8739V32.7505H142.043V20.9659L143.485 20.7178V28.0676C143.733 27.8195 144.007 27.5456 144.307 27.2458C144.606 26.946 144.901 26.6411 145.19 26.331C145.48 26.0208 145.754 25.7262 146.012 25.4471C146.271 25.1577 146.493 24.9044 146.679 24.6873H148.369C148.131 24.9457 147.873 25.23 147.594 25.5401C147.315 25.8503 147.025 26.1656 146.725 26.486C146.426 26.7961 146.121 27.1114 145.811 27.4319C145.511 27.742 145.227 28.0366 144.958 28.3157Z" fill="#394D54"/>
<path d="M152.02 31.7115C152.609 31.7115 153.044 31.634 153.323 31.479C153.612 31.3239 153.757 31.0758 153.757 30.7347C153.757 30.3832 153.617 30.1041 153.338 29.8973C153.059 29.6906 152.599 29.458 151.958 29.1996C151.648 29.0755 151.348 28.9515 151.059 28.8274C150.78 28.693 150.537 28.538 150.33 28.3622C150.123 28.1865 149.958 27.9746 149.834 27.7265C149.71 27.4784 149.648 27.1734 149.648 26.8116C149.648 26.0984 149.911 25.535 150.439 25.1215C150.966 24.6977 151.684 24.4857 152.594 24.4857C152.821 24.4857 153.049 24.5012 153.276 24.5323C153.504 24.5529 153.716 24.5839 153.912 24.6253C154.108 24.6563 154.279 24.6925 154.424 24.7338C154.579 24.7752 154.698 24.8114 154.78 24.8424L154.517 26.0829C154.362 26.0002 154.119 25.9175 153.788 25.8348C153.457 25.7417 153.059 25.6952 152.594 25.6952C152.191 25.6952 151.839 25.7779 151.54 25.9433C151.24 26.0984 151.09 26.3465 151.09 26.6876C151.09 26.8633 151.121 27.0184 151.183 27.1528C151.255 27.2872 151.359 27.4112 151.493 27.5249C151.638 27.6283 151.813 27.7265 152.02 27.8195C152.227 27.9126 152.475 28.0108 152.764 28.1141C153.147 28.2589 153.488 28.4036 153.788 28.5483C154.088 28.6827 154.341 28.8429 154.548 29.029C154.765 29.2151 154.93 29.4425 155.044 29.7113C155.158 29.9697 155.214 30.2902 155.214 30.6726C155.214 31.4169 154.935 31.9803 154.377 32.3628C153.829 32.7453 153.044 32.9365 152.02 32.9365C151.307 32.9365 150.749 32.8745 150.346 32.7505C149.942 32.6367 149.668 32.5489 149.524 32.4868L149.787 31.2464C149.953 31.3084 150.216 31.4014 150.578 31.5255C150.94 31.6495 151.421 31.7115 152.02 31.7115Z" fill="#394D54"/>
<path d="M109.034 28.9422C109.034 28.191 109.643 27.582 110.394 27.582V27.582C111.146 27.582 111.755 28.191 111.755 28.9422V28.9422C111.755 29.6935 111.146 30.3024 110.394 30.3024V30.3024C109.643 30.3024 109.034 29.6935 109.034 28.9422V28.9422Z" fill="#394D54"/>
</svg>
