<svg width="46" height="45" viewBox="0 0 46 45" fill="none" xmlns="http://www.w3.org/2000/svg">
<path d="M5.41892 27.1874C8.00774 27.1874 10.1064 25.0888 10.1064 22.5C10.1064 19.9112 8.00774 17.8125 5.41892 17.8125C2.8301 17.8125 0.731445 19.9112 0.731445 22.5C0.731445 25.0888 2.8301 27.1874 5.41892 27.1874Z" fill="#FF5722"/>
<path d="M36.3508 45.0002C38.9396 45.0002 41.0383 42.9015 41.0383 40.3127C41.0383 37.7239 38.9396 35.6252 36.3508 35.6252C33.762 35.6252 31.6633 37.7239 31.6633 40.3127C31.6633 42.9015 33.762 45.0002 36.3508 45.0002Z" fill="#FF5722"/>
<path d="M36.3508 9.37494C38.9396 9.37494 41.0383 7.27629 41.0383 4.68747C41.0383 2.09865 38.9396 0 36.3508 0C33.762 0 31.6633 2.09865 31.6633 4.68747C31.6633 7.27629 33.762 9.37494 36.3508 9.37494Z" fill="#FF5722"/>
<path d="M23.6495 12.9787C23.859 13.3416 24.2838 13.5215 24.6902 13.4193C29.6054 12.1537 34.6296 15.0533 35.9926 19.9424C36.1067 20.3461 36.4751 20.6248 36.8945 20.6249H44.5557C45.0735 20.6252 45.4934 20.2057 45.4938 19.6879C45.4938 19.6382 45.4898 19.5884 45.482 19.5393C44.9399 16.129 43.4641 12.9354 41.2183 10.3124C40.9085 9.95507 40.3812 9.88432 39.9882 10.1475C38.9135 10.8666 37.6495 11.2503 36.3563 11.25C32.7721 11.2372 29.856 8.36109 29.7938 4.77743C29.7869 4.30326 29.4272 3.9089 28.9557 3.85871C26.0159 3.55074 23.0449 3.94001 20.2838 4.99496C19.8003 5.18024 19.5586 5.72243 19.7439 6.20592C19.7615 6.25197 19.7828 6.29662 19.8075 6.33934L23.6495 12.9787Z" fill="#FF5722"/>
<path d="M44.5577 24.375H36.8964C36.477 24.3751 36.1087 24.6539 35.9946 25.0575C34.6332 29.9479 29.6076 32.8484 24.6921 31.5806C24.2857 31.4784 23.8609 31.6583 23.6515 32.0212L19.819 38.6606C19.56 39.1089 19.7135 39.6823 20.1618 39.9413C20.2045 39.966 20.2491 39.9873 20.2952 40.0049C23.0536 41.0708 26.0272 41.4604 28.9671 41.1412C29.4386 41.091 29.7984 40.6966 29.8052 40.2225C29.8467 36.6067 32.8115 33.709 36.4274 33.7505C37.6961 33.765 38.9332 34.1478 39.9883 34.8524C40.3831 35.1153 40.9118 35.042 41.2202 34.6818C43.4651 32.0604 44.9408 28.8689 45.484 25.4606C45.5658 24.9494 45.2177 24.4686 44.7064 24.3868C44.6572 24.379 44.6074 24.375 44.5577 24.375Z" fill="#FF5722"/>
<path d="M20.2614 29.0269C16.7234 25.3942 16.7234 19.6041 20.2614 15.9713C20.5548 15.6699 20.6114 15.21 20.4002 14.8463L16.5733 8.22191C16.4358 7.98364 16.2007 7.8177 15.9302 7.76813C15.6614 7.72181 15.3855 7.78975 15.169 7.9556C12.4461 10.1694 10.3986 13.1022 9.25896 16.4212C9.13143 16.7913 9.24727 17.2018 9.54961 17.4506C12.3388 19.6748 12.7969 23.7388 10.5727 26.528C10.2711 26.9063 9.92789 27.2495 9.54961 27.5512C9.24727 27.8 9.13143 28.2104 9.25896 28.5805C10.3993 31.8966 12.4461 34.8267 15.1671 37.0387C15.3345 37.1748 15.5438 37.2489 15.7595 37.2487C15.8161 37.2483 15.8726 37.2433 15.9283 37.2336C16.1988 37.1841 16.434 37.0181 16.5714 36.7799L20.3982 30.1518C20.6101 29.7887 20.5541 29.3288 20.2614 29.0269Z" fill="#FF5722"/>
</svg>
