<?xml version="1.0" encoding="UTF-8" standalone="no"?>
<!-- Generator: Adobe Illustrator 18.0.0, SVG Export Plug-In . SVG Version: 6.00 Build 0)  -->

<svg
   xmlns:dc="http://purl.org/dc/elements/1.1/"
   xmlns:cc="http://creativecommons.org/ns#"
   xmlns:rdf="http://www.w3.org/1999/02/22-rdf-syntax-ns#"
   xmlns:svg="http://www.w3.org/2000/svg"
   xmlns="http://www.w3.org/2000/svg"
   xmlns:sodipodi="http://sodipodi.sourceforge.net/DTD/sodipodi-0.dtd"
   xmlns:inkscape="http://www.inkscape.org/namespaces/inkscape"
   version="1.1"
   id="Capa_1"
   x="0px"
   y="0px"
   viewBox="0 0 295.92578 295.94568"
   xml:space="preserve"
   sodipodi:docname="icon-publication (copy).svg"
   inkscape:version="0.92.3 (2405546, 2018-03-11)"
   width="295.92578"
   height="295.94568"><metadata
   id="metadata39"><rdf:RDF><cc:Work
       rdf:about=""><dc:format>image/svg+xml</dc:format><dc:type
         rdf:resource="http://purl.org/dc/dcmitype/StillImage" /><dc:title></dc:title></cc:Work></rdf:RDF></metadata><defs
   id="defs37" /><sodipodi:namedview
   pagecolor="#ffffff"
   bordercolor="#666666"
   borderopacity="1"
   objecttolerance="10"
   gridtolerance="10"
   guidetolerance="10"
   inkscape:pageopacity="0"
   inkscape:pageshadow="2"
   inkscape:window-width="1604"
   inkscape:window-height="1120"
   id="namedview35"
   showgrid="false"
   inkscape:zoom="0.84285714"
   inkscape:cx="13.539149"
   inkscape:cy="240.73556"
   inkscape:window-x="1210"
   inkscape:window-y="656"
   inkscape:window-maximized="0"
   inkscape:current-layer="Capa_1"
   fit-margin-right="0"
   fit-margin-top="0"
   fit-margin-left="0"
   fit-margin-bottom="0" />
<rect
   style="fill:#cc0000;fill-opacity:1;stroke:none;stroke-width:10;stroke-miterlimit:4;stroke-dasharray:none;stroke-opacity:1"
   id="rect829"
   width="300.16949"
   height="297.7966"
   x="-2.711853"
   y="-0.25772095" /><ellipse
   style="fill:#ffffff;fill-opacity:1;stroke:#ffffff;stroke-width:9.57828426;stroke-miterlimit:4;stroke-dasharray:none;stroke-opacity:1"
   id="path827"
   cx="153.13721"
   cy="144.42357"
   rx="143.1813"
   ry="143.17288"
   transform="matrix(0.99932196,0.03681866,-0.03510838,0.99938351,0,0)" /><path
   d="m 267.71239,224.02238 c -14.464,-29.244 -33.785,-57.213 -53.916,-82.187 2.913,-11.34 5.439,-22.108 7.635,-32.194 9.816,-0.903 17.828,-8.067 20.032,-17.453005 10.895,-1.455 22.007,-2.499 33.285,-3.043 8.992,18.470005 14.045,39.197005 14.045,61.082005 0,27.065 -7.728,52.355 -21.081,73.795 z m -47.98,-194.445005 c -0.633,6.155 -2.052,18.339 -4.798,35.098 -9.919,1.95 -17.524,10.363 -18.274,20.655 -9.219,2.139 -18.202,4.503 -26.911,7.037 -3.934,-4.034 -7.78,-7.895 -11.496,-11.553 -7.995,-7.869 -15.755,-15.184 -23.078,-21.875 1.223,-2.789 1.911,-5.862 1.911,-9.098 0,-3.859 -0.972,-7.494 -2.676,-10.682 7.804,-10.228 16.523,-19.81 26.234,-28.424 21.422,1.804 41.484,8.451 59.088,18.842 z m -96.241,-0.549 c -2.806,-1.24 -5.9,-1.941 -9.159,-1.941 -4.359,0 -8.422,1.254 -11.886,3.388 -3.915004,-3.233 -7.361004,-6.018 -10.224004,-8.295 14.590004,-6.472 30.482004,-10.517 47.166004,-11.629 -5.662,5.876 -10.947,12.064 -15.897,18.477 z m -9.159,43.568 c 3.874,0 7.521,-0.977 10.717,-2.692 8.968,8.21 18.636,17.402 28.609,27.422 -23.364,7.604005 -44.398,16.191005 -62.249004,24.400005 5.726,-16.266 12.822004,-33.014005 21.587004,-49.198005 0.444,0.026 0.884,0.068 1.336,0.068 z M 63.571386,164.52638 c -0.871,3.743 -1.685,7.433 -2.447,11.064 -2.936,-6.116 -5.543,-12.018 -7.866,-17.658 4.348,-2.461 8.962,-5.004 13.849,-7.601 -1.29,4.862 -2.468,9.609 -3.536,14.195 z m 4.736,58.493 c 0.8,-0.072 1.59,-0.182 2.365,-0.335 14.313,21.876 32.603004,44.494 55.921004,65.776 -22.839,-3.654 -43.853004,-12.845 -61.611004,-26.159 0.245,-6.375 1.009,-20.521 3.325,-39.282 z m 15.192,-7.851 c 3.423,-3.982 5.506,-9.147 5.506,-14.798 0,-9.268 -5.577,-17.245 -13.544,-20.789 0.817,-3.936 1.695,-7.939 2.643,-11.999 1.949,-8.351 4.272,-17.238 7.008,-26.434 1.108,-0.542 2.216,-1.084 3.344,-1.627 20.844004,-10.032 47.032004,-21.08 76.788004,-30.307 10.762,11.277 21.683,23.408 32.285,36.206 -11.116,41.772 -27.46,90.688 -51.298,140.512 -26.746,-22.559 -47.179004,-47.106 -62.732004,-70.764 z m 97.842004,-110.651 c 6.243,-1.712 12.62,-3.329 19.114,-4.830005 1.727,2.562005 3.972,4.739005 6.569,6.417005 -1.493,6.878 -3.145,14.085 -4.975,21.585 -6.954,-8.139 -13.909,-15.887 -20.708,-23.172 z m 85.31,-29.777005 c -9.026,0.605 -17.938,1.51 -26.71,2.673 -2.151,-4.608 -5.792,-8.377 -10.311,-10.684 1.886,-11.533 3.159,-20.947 3.987,-27.8 12.978,9.916 24.182,22.038 33.034,35.811 z m -188.941004,-45.079 c 3.294,2.563 8.565,6.739 15.299,12.315 -0.909,2.455 -1.431,5.097 -1.431,7.864 0,6.745 2.966,12.796 7.644,16.967 -11.34,21.188 -19.93,43.174005 -26.427,63.869005 -9.062,4.547 -17.399,9.009 -24.951,13.243 -12.46,-34.568 -15.879,-61.591005 -16.667,-69.547005 11.821,-18.265 27.778,-33.61 46.533,-44.711 z m -58.25,66.985 c 2.616,13.849005 7.243,32.885005 15.333,54.808005 -10.636,6.325 -19.058,11.797 -24.9619995,15.795 -0.681,-5.581 -1.038,-11.26 -1.038,-17.022 0,-18.97 3.7999995,-37.067 10.6669995,-53.581005 z m -6.712,86.646005 c 4.912,-3.456 14.371,-9.878 27.566,-17.81 2.64,6.306 5.627,12.917 8.994,19.752 -3.6,4.026 -5.811,9.321 -5.811,15.136 0,7.937 4.091,14.927 10.268,19.001 -1.57,12.343 -2.484,22.82 -3.014,30.691 -18.333,-18.007 -31.741,-41.005 -38.003,-66.77 z m 148.135004,106.407 c 21.642,-45.704 37.12,-90.583 48.122,-129.988 19,24.447 36.295,50.906 48.87,78.165 -23.309,28.949 -57.876,48.461 -96.992,51.823 z"
   id="path2"
   style="fill:#cc0000;fill-opacity:1"
   inkscape:connector-curvature="0" />
<g
   id="g4"
   transform="translate(8.7933865,10.125375)">
</g>
<g
   id="g6"
   transform="translate(8.7933865,10.125375)">
</g>
<g
   id="g8"
   transform="translate(8.7933865,10.125375)">
</g>
<g
   id="g10"
   transform="translate(8.7933865,10.125375)">
</g>
<g
   id="g12"
   transform="translate(8.7933865,10.125375)">
</g>
<g
   id="g14"
   transform="translate(8.7933865,10.125375)">
</g>
<g
   id="g16"
   transform="translate(8.7933865,10.125375)">
</g>
<g
   id="g18"
   transform="translate(8.7933865,10.125375)">
</g>
<g
   id="g20"
   transform="translate(8.7933865,10.125375)">
</g>
<g
   id="g22"
   transform="translate(8.7933865,10.125375)">
</g>
<g
   id="g24"
   transform="translate(8.7933865,10.125375)">
</g>
<g
   id="g26"
   transform="translate(8.7933865,10.125375)">
</g>
<g
   id="g28"
   transform="translate(8.7933865,10.125375)">
</g>
<g
   id="g30"
   transform="translate(8.7933865,10.125375)">
</g>
<g
   id="g32"
   transform="translate(8.7933865,10.125375)">
</g>
</svg>