<?xml version="1.0" encoding="UTF-8" standalone="no"?>
<!-- Generator: Adobe Illustrator 19.0.0, SVG Export Plug-In . SVG Version: 6.00 Build 0)  -->

<svg
   xmlns:dc="http://purl.org/dc/elements/1.1/"
   xmlns:cc="http://creativecommons.org/ns#"
   xmlns:rdf="http://www.w3.org/1999/02/22-rdf-syntax-ns#"
   xmlns:svg="http://www.w3.org/2000/svg"
   xmlns="http://www.w3.org/2000/svg"
   xmlns:sodipodi="http://sodipodi.sourceforge.net/DTD/sodipodi-0.dtd"
   xmlns:inkscape="http://www.inkscape.org/namespaces/inkscape"
   version="1.1"
   id="Capa_1"
   x="0px"
   y="0px"
   viewBox="0 0 60 60"
   style="enable-background:new 0 0 60 60;"
   xml:space="preserve"
   sodipodi:docname="big-data-svgrepo-com.svg"
   inkscape:version="0.92.3 (2405546, 2018-03-11)"><metadata
   id="metadata45"><rdf:RDF><cc:Work
       rdf:about=""><dc:format>image/svg+xml</dc:format><dc:type
         rdf:resource="http://purl.org/dc/dcmitype/StillImage" /><dc:title></dc:title></cc:Work></rdf:RDF></metadata><defs
   id="defs43" /><sodipodi:namedview
   pagecolor="#ffffff"
   bordercolor="#666666"
   borderopacity="1"
   objecttolerance="10"
   gridtolerance="10"
   guidetolerance="10"
   inkscape:pageopacity="0"
   inkscape:pageshadow="2"
   inkscape:window-width="1422"
   inkscape:window-height="740"
   id="namedview41"
   showgrid="false"
   inkscape:zoom="3.9333333"
   inkscape:cx="1.779661"
   inkscape:cy="30"
   inkscape:window-x="748"
   inkscape:window-y="746"
   inkscape:window-maximized="0"
   inkscape:current-layer="g6" />
<g
   id="g8">
	<g
   id="g6">
		<path
   d="M59,14h-3v-4c0-0.6-0.4-1-1-1H28V1c0-0.6-0.4-1-1-1H1C0.4,0,0,0.4,0,1v59h2V2h24v8v4H8v2h19h28h3v44h2V15    C60,14.4,59.6,14,59,14z M28,14v-3h26v3H28z"
   id="path2"
   style="fill:#ffffff" />
		<path
   d="M51,39c-1.9,0-3.4,1.3-3.9,3H42V26.9c1.7-0.4,3-2,3-3.9c0-2.2-1.8-4-4-4s-4,1.8-4,4c0,1.9,1.3,3.4,3,3.9V42h-9v-7.1    c1.7-0.4,3-2,3-3.9c0-2.2-1.8-4-4-4s-4,1.8-4,4c0,1.9,1.3,3.4,3,3.9V50H18V36.9c1.7-0.4,3-2,3-3.9c0-2.2-1.8-4-4-4s-4,1.8-4,4    c0,1.9,1.3,3.4,3,3.9V50h-3.1c-0.4-1.7-2-3-3.9-3c-2.2,0-4,1.8-4,4s1.8,4,4,4c1.9,0,3.4-1.3,3.9-3H29v8h2V44h16.1    c0.4,1.7,2,3,3.9,3c2.2,0,4-1.8,4-4S53.2,39,51,39z M39,23c0-1.1,0.9-2,2-2s2,0.9,2,2s-0.9,2-2,2S39,24.1,39,23z M15,33    c0-1.1,0.9-2,2-2s2,0.9,2,2s-0.9,2-2,2S15,34.1,15,33z M9,53c-1.1,0-2-0.9-2-2s0.9-2,2-2s2,0.9,2,2S10.1,53,9,53z M28,31    c0-1.1,0.9-2,2-2s2,0.9,2,2s-0.9,2-2,2S28,32.1,28,31z M51,45c-1.1,0-2-0.9-2-2s0.9-2,2-2s2,0.9,2,2S52.1,45,51,45z"
   id="path4"
   style="fill:#ffffff" />
	</g>
</g>
<g
   id="g10">
</g>
<g
   id="g12">
</g>
<g
   id="g14">
</g>
<g
   id="g16">
</g>
<g
   id="g18">
</g>
<g
   id="g20">
</g>
<g
   id="g22">
</g>
<g
   id="g24">
</g>
<g
   id="g26">
</g>
<g
   id="g28">
</g>
<g
   id="g30">
</g>
<g
   id="g32">
</g>
<g
   id="g34">
</g>
<g
   id="g36">
</g>
<g
   id="g38">
</g>
</svg>