<svg width="54" height="54" viewBox="0 0 54 54" fill="none" xmlns="http://www.w3.org/2000/svg">
<rect width="54" height="54" rx="27" fill="currentColor"/>
<path d="M48.312 26.3969C46.3696 28.9542 42.5635 28.7545 42.5635 28.7545C40.2162 39.6855 26.0404 45.2488 16.198 42.5158C6.35666 39.7837 7.71049 27.0954 7.71049 27.0954H36.5143C38.8913 27.0954 39.0724 26.3146 39.0724 26.3146C36.9655 20.9139 40.2163 18.0183 40.2163 18.0183C42.7447 18.5071 43.3761 23.1912 43.3761 23.1912C45.4513 22.7887 47.118 23.2675 48.1375 23.7281C48.2396 24.6043 48.2991 25.4946 48.312 26.3969Z" fill="#111827"/>
<path d="M14.8136 22.1503H10.7802V26.1192H14.8136V22.1503Z" fill="#111827"/>
<path d="M19.8825 22.1503H15.849V26.1192H19.8825V22.1503Z" fill="#111827"/>
<path d="M35.0872 22.1503H31.0537V26.1192H35.0872V22.1503Z" fill="#111827"/>
<path d="M30.0192 22.1503H25.9857V26.1192H30.0192V22.1503Z" fill="#111827"/>
<path d="M30.0192 12H25.9857V15.9689H30.0192V12Z" fill="#111827"/>
<path d="M24.9503 22.1503H20.9169V26.1192H24.9503V22.1503Z" fill="#111827"/>
<path d="M19.8825 17.0742H15.849V21.0432H19.8825V17.0742Z" fill="#111827"/>
<path d="M30.0192 17.0742H25.9857V21.0432H30.0192V17.0742Z" fill="#111827"/>
<path d="M24.9503 17.0742H20.9169V21.0432H24.9503V17.0742Z" fill="#111827"/>
</svg>
