<?xml version="1.0" standalone="no"?><svg xmlns:xlink="http://www.w3.org/1999/xlink" xmlns="http://www.w3.org/2000/svg" viewBox="0 0 1000 333.3333333333333" preserveAspectRatio="xMaxYMax slice"><g transform="scale(0.522466039707419)"><rect x="0" y="0" width="1914" height="638" fill="#ffffff"/><rect x="0" y="0" width="91.14285714285714" height="91.14285714285714" fill="#ffffff"/><rect x="0" y="0" width="45.57" height="45.57" fill="#8c94a2"/><path d="M 0 45.57 A 45.57 45.57 0 0 0 45.57 0 L 0 0" fill="#717c8d"/><rect x="45.57" y="0" width="45.57" height="45.57" fill="#a6adb8"/><path d="M 45.57 0 A 45.57 45.57 0 0 0 91.14 45.57 L 91.14 0" fill="#f1eadc"/><rect x="0" y="45.57" width="45.57" height="45.57" fill="#16706f"/><path d="M 0 45.57 A 45.57 45.57 0 0 1 45.57 91.14 L 0 91.14" fill="#bcc1c9"/><rect x="45.57" y="45.57" width="45.57" height="45.57" fill="#f5f9f9"/><path d="M 45.57 91.14 A 45.57 45.57 0 0 1  91.14 45.57 L 91.14 91.14" fill="#fefefd"/><rect x="91.14285714285714" y="0" width="91.14285714285714" height="91.14285714285714" fill="#ffffff"/><rect x="91.14" y="0" width="45.57" height="45.57" fill="#5e6a7d"/><circle cx="113.925" cy="22.785" r="22.785" fill="#ddcba9"/><rect x="136.71" y="0" width="45.57" height="45.57" fill="#decdac"/><rect x="136.71" y="0" width="45.57" height="45.57" fill="#6a7587"/><rect x="91.14" y="45.57" width="45.57" height="45.57" fill="#f0e9da"/><circle cx="113.925" cy="68.355" r="22.785" fill="#435167"/><rect x="136.71" y="45.57" width="45.57" height="45.57" fill="#177170"/><rect x="136.71" y="45.57" width="45.57" height="45.57" fill="#7eb0af"/><rect x="182.29" y="0" width="91.14" height="91.14" fill="#e7dac1"/><polygon points="273.43,0 273.43,91.14 182.29,91.14" fill="#eee4d2"/><rect x="273.42857142857144" y="0" width="91.14285714285714" height="91.14285714285714" fill="#ffffff"/><rect x="273.43" y="0" width="45.57" height="45.57" fill="#efe6d6"/><path d="M 273.43 45.57 A 45.57 45.57 0 0 1 319 0 L 319 11.3925 A 34.1775 34.1775 0 0 0 284.8225 45.57" fill="#6c7789"/><rect x="319" y="0" width="45.57" height="45.57" fill="#c9cdd3"/><path d="M 319 0 A 45.57 45.57 0 0 1 364.57 45.57 L 353.1775 45.57 A 34.1775 34.1775 0 0 0 319 11.3925" fill="#f3ede1"/><rect x="273.43" y="45.57" width="45.57" height="45.57" fill="#34435c"/><path d="M 273.43 45.57 A 45.57 45.57 0 0 0 319 91.14 L 319 79.7475 A 34.1775 34.1775 0 0 1 284.8225 45.57" fill="#f8f9fa"/><rect x="319" y="45.57" width="45.57" height="45.57" fill="#5f9d9c"/><path d="M 319 91.14 A 45.57 45.57 0 0 0 364.57 45.57 L 353.1775 45.57 A 34.1775 34.1775 0 0 1 319 79.7475" fill="#c8dddd"/><rect x="364.57" y="0" width="91.14" height="91.14" fill="#c7dcdc"/><path d="M 364.57 0 A 91.14 91.14 0 0 1 455.71 91.14 L 364.57 91.14" fill="#e3d4b8"/><rect x="455.71" y="0" width="91.14" height="91.14" fill="#f9f6f1"/><polygon points="546.85,0 546.85,91.14 455.71,91.14" fill="#ebe1cc"/><rect x="546.86" y="0" width="91.14" height="91.14" fill="#eaecee"/><path d="M 546.86 0 A 91.14 91.14 0 0 0 638 91.14 L 638 0" fill="#b2b7c1"/><rect x="638" y="0" width="91.14" height="91.14" fill="#eadfca"/><polygon points="638,0 729.14,0 729.14,91.14" fill="#d1d5da"/><rect x="729.14" y="0" width="91.14" height="91.14" fill="#37465e"/><rect x="729.14" y="0" width="91.14" height="91.14" fill="#ece2cf"/><rect x="820.2857142857142" y="0" width="91.14285714285714" height="91.14285714285714" fill="#ffffff"/><rect x="820.29" y="0" width="45.57" height="45.57" fill="#dbc8a3"/><path d="M 820.29 0 A 45.57 45.57 0 0 0 865.86 45.57 L 865.86 0" fill="#e9dec7"/><rect x="865.86" y="0" width="45.57" height="45.57" fill="#f4efe4"/><path d="M 865.86 45.57 A 45.57 45.57 0 0 0 911.4300000000001 0 L 865.86 0" fill="#e5d7bc"/><rect x="820.29" y="45.57" width="45.57" height="45.57" fill="#b9d4d4"/><path d="M 820.29 91.14 A 45.57 45.57 0 0 1  865.86 45.57 L 865.86 91.14" fill="#d3bc8f"/><rect x="865.86" y="45.57" width="45.57" height="45.57" fill="#1f304a"/><path d="M 865.86 45.57 A 45.57 45.57 0 0 1 911.4300000000001 91.14 L 865.86 91.14" fill="#d4bd91"/><rect x="911.43" y="0" width="91.14" height="91.14" fill="#414f66"/><path d="M 911.43 0 A 91.14 91.14 0 0 1 1002.5699999999999 91.14 L 911.43 91.14" fill="#3e8887"/><rect x="1002.57" y="0" width="91.14" height="91.14" fill="#f8f4ed"/><polygon points="1002.57,0 1093.71,91.14 1002.57,91.14" fill="#d5be93"/><rect x="1093.71" y="0" width="91.14" height="91.14" fill="#e6d9bf"/><polygon points="1093.71,0 1184.8500000000001,0 1093.71,91.14" fill="#e5d8be"/><rect x="1184.86" y="0" width="91.14" height="91.14" fill="#dfceae"/><path d="M 1184.86 91.14 A 91.14 91.14 0 0 1  1276 0 L 1184.86 91.14 A 91.14 91.14 0 0 0 1276 0" fill="#abcbcb"/><rect x="1276" y="0" width="91.14" height="91.14" fill="#5a9999"/><polygon points="1276,0 1367.14,0 1367.14,91.14" fill="#1a7271"/><rect x="1367.14" y="0" width="91.14" height="91.14" fill="#ced2d8"/><path d="M 1367.14 0 A 91.14 91.14 0 0 1  1458.2800000000002 91.14 L 1367.14 0 A 91.14 91.14 0 0 0 1458.2800000000002 91.14" fill="#e2e4e7"/><rect x="1458.2857142857142" y="0" width="91.14285714285714" height="91.14285714285714" fill="#ffffff"/><rect x="1458.29" y="0" width="45.57" height="45.57" fill="#d0b787"/><path d="M 1458.29 0 A 45.57 45.57 0 0 0 1503.86 45.57 L 1503.86 0" fill="#33425b"/><rect x="1503.86" y="0" width="45.57" height="45.57" fill="#b0cece"/><path d="M 1503.86 45.57 A 45.57 45.57 0 0 0 1549.4299999999998 0 L 1503.86 0" fill="#d5d8dd"/><rect x="1458.29" y="45.57" width="45.57" height="45.57" fill="#99c0c0"/><path d="M 1458.29 91.14 A 45.57 45.57 0 0 1  1503.86 45.57 L 1503.86 91.14" fill="#dceae9"/><rect x="1503.86" y="45.57" width="45.57" height="45.57" fill="#d8e7e7"/><path d="M 1503.86 45.57 A 45.57 45.57 0 0 1 1549.4299999999998 91.14 L 1503.86 91.14" fill="#9099a6"/><rect x="1549.43" y="0" width="91.14" height="91.14" fill="#b8bdc5"/><path d="M 1549.43 91.14 A 91.14 91.14 0 0 1  1640.5700000000002 0 L 1549.43 91.14 A 91.14 91.14 0 0 0 1640.5700000000002 0" fill="#efe6d6"/><rect x="1640.5714285714284" y="0" width="91.14285714285714" height="91.14285714285714" fill="#ffffff"/><rect x="1640.57" y="0" width="45.57" height="45.57" fill="#babfc7"/><polygon points="1686.1399999999999,0 1686.1399999999999,45.57 1640.57,45.57" fill="#ebe0cc"/><rect x="1686.14" y="0" width="45.57" height="45.57" fill="#f3ece0"/><polygon points="1686.14,0 1731.71,0 1686.14,45.57" fill="#ece2cf"/><rect x="1640.57" y="45.57" width="45.57" height="45.57" fill="#959daa"/><polygon points="1640.57,45.57 1686.1399999999999,45.57 1686.1399999999999,91.14" fill="#505d72"/><rect x="1686.14" y="45.57" width="45.57" height="45.57" fill="#d9dce1"/><polygon points="1686.14,45.57 1731.71,91.14 1686.14,91.14" fill="#39475f"/><rect x="1731.7142857142856" y="0" width="91.14285714285714" height="91.14285714285714" fill="#ffffff"/><rect x="1731.71" y="0" width="45.57" height="45.57" fill="#f8f4ec"/><path d="M 1731.71 0 A 45.57 45.57 0 0 0 1777.28 45.57 L 1777.28 0" fill="#6da5a5"/><rect x="1777.29" y="0" width="45.57" height="45.57" fill="#ece2ce"/><path d="M 1777.29 45.57 A 45.57 45.57 0 0 0 1822.86 0 L 1777.29 0" fill="#d8c39b"/><rect x="1731.71" y="45.57" width="45.57" height="45.57" fill="#d0b787"/><path d="M 1731.71 91.14 A 45.57 45.57 0 0 1  1777.28 45.57 L 1777.28 91.14" fill="#dac6a0"/><rect x="1777.29" y="45.57" width="45.57" height="45.57" fill="#609d9d"/><path d="M 1777.29 45.57 A 45.57 45.57 0 0 1 1822.86 91.14 L 1777.29 91.14" fill="#dadce1"/><rect x="1822.8571428571427" y="0" width="91.14285714285714" height="91.14285714285714" fill="#ffffff"/><rect x="1822.86" y="0" width="45.57" height="45.57" fill="#388584"/><path d="M 1822.86 0 A 45.57 45.57 0 0 1 1868.4299999999998 45.57 L 1822.86 45.57" fill="#287b7a"/><rect x="1868.43" y="0" width="45.57" height="45.57" fill="#1a7372"/><path d="M 1868.43 45.57 A 45.57 45.57 0 0 1  1914 0 L 1914 45.57" fill="#d8dbe0"/><rect x="1822.86" y="45.57" width="45.57" height="45.57" fill="#d0b788"/><path d="M 1822.86 91.14 A 45.57 45.57 0 0 0 1868.4299999999998 45.57 L 1822.86 45.57" fill="#808998"/><rect x="1868.43" y="45.57" width="45.57" height="45.57" fill="#b7bcc5"/><path d="M 1868.43 45.57 A 45.57 45.57 0 0 0 1914 91.14 L 1914 45.57" fill="#5a667a"/><rect x="0" y="91.14" width="91.14" height="91.14" fill="#c9dede"/><polygon points="0,91.14 91.14,91.14 0,182.28" fill="#f8fbfb"/><rect x="91.14285714285714" y="91.14285714285714" width="91.14285714285714" height="91.14285714285714" fill="#ffffff"/><rect x="91.14" y="91.14" width="45.57" height="45.57" fill="#e2d3b6"/><polygon points="136.71,91.14 136.71,136.71 91.14,136.71" fill="#98bfbf"/><rect x="136.71" y="91.14" width="45.57" height="45.57" fill="#cbcfd5"/><polygon points="136.71,91.14 182.28,91.14 136.71,136.71" fill="#97bfbe"/><rect x="91.14" y="136.71" width="45.57" height="45.57" fill="#35445c"/><polygon points="91.14,136.71 136.71,136.71 136.71,182.28" fill="#7f8998"/><rect x="136.71" y="136.71" width="45.57" height="45.57" fill="#408a89"/><polygon points="136.71,136.71 182.28,182.28 136.71,182.28" fill="#4a908f"/><rect x="182.29" y="91.14" width="91.14" height="91.14" fill="#72a9a8"/><path d="M 182.29 91.14 A 91.14 91.14 0 0 1  273.43 182.28 L 182.29 91.14 A 91.14 91.14 0 0 0 273.43 182.28" fill="#e6e8eb"/><rect x="273.43" y="91.14" width="91.14" height="91.14" fill="#267a79"/><polygon points="273.43,91.14 364.57,91.14 273.43,182.28" fill="#569797"/><rect x="364.57142857142856" y="91.14285714285714" width="91.14285714285714" height="91.14285714285714" fill="#ffffff"/><rect x="364.57" y="91.14" width="45.57" height="45.57" fill="#c0c5cd"/><polygon points="410.14,91.14 410.14,136.71 364.57,136.71" fill="#d7dade"/><rect x="410.14" y="91.14" width="45.57" height="45.57" fill="#f9f6f0"/><polygon points="410.14,91.14 455.71,136.71 410.14,136.71" fill="#d0b787"/><rect x="364.57" y="136.71" width="45.57" height="45.57" fill="#dfceae"/><polygon points="364.57,136.71 410.14,136.71 410.14,182.28" fill="#e7dac2"/><rect x="410.14" y="136.71" width="45.57" height="45.57" fill="#e3e5e9"/><polygon points="410.14,136.71 455.71,136.71 410.14,182.28" fill="#85b4b3"/><rect x="455.71428571428567" y="91.14285714285714" width="91.14285714285714" height="91.14285714285714" fill="#ffffff"/><rect x="455.71" y="91.14" width="45.57" height="45.57" fill="#f6f1e8"/><path d="M 455.71 91.14 A 45.57 45.57 0 0 1 501.28 136.71 L 455.71 136.71" fill="#f1f6f6"/><rect x="501.29" y="91.14" width="45.57" height="45.57" fill="#eceef0"/><path d="M 501.29 136.71 A 45.57 45.57 0 0 1  546.86 91.14 L 546.86 136.71" fill="#f5f0e7"/><rect x="455.71" y="136.71" width="45.57" height="45.57" fill="#d0b686"/><path d="M 455.71 182.28 A 45.57 45.57 0 0 0 501.28 136.71 L 455.71 136.71" fill="#3e8887"/><rect x="501.29" y="136.71" width="45.57" height="45.57" fill="#bec3cb"/><path d="M 501.29 136.71 A 45.57 45.57 0 0 0 546.86 182.28 L 546.86 136.71" fill="#4c9190"/><rect x="546.86" y="91.14" width="91.14" height="91.14" fill="#828b9a"/><path d="M 546.86 182.28 A 91.14 91.14 0 0 1  638 91.14 L 546.86 182.28 A 91.14 91.14 0 0 0 638 91.14" fill="#f2f3f5"/><rect x="638" y="91.14" width="91.14" height="91.14" fill="#82b2b2"/><rect x="638" y="91.14" width="91.14" height="91.14" fill="#39485f"/><rect x="729.14" y="91.14" width="91.14" height="91.14" fill="#c6dcdc"/><path d="M 729.14 182.28 A 91.14 91.14 0 0 1  820.28 91.14 L 729.14 182.28 A 91.14 91.14 0 0 0 820.28 91.14" fill="#2f7f7e"/><rect x="820.29" y="91.14" width="91.14" height="91.14" fill="#273852"/><polygon points="911.43,91.14 911.43,182.28 820.29,182.28" fill="#bad4d4"/><rect x="911.4285714285713" y="91.14285714285714" width="91.14285714285714" height="91.14285714285714" fill="#ffffff"/><rect x="911.43" y="91.14" width="45.57" height="45.57" fill="#f9fafa"/><path d="M 911.43 136.71 A 45.57 45.57 0 0 1 957 91.14 L 957 102.5325 A 34.1775 34.1775 0 0 0 922.8225 136.71" fill="#515e73"/><rect x="957" y="91.14" width="45.57" height="45.57" fill="#bcd6d6"/><path d="M 957 91.14 A 45.57 45.57 0 0 1 1002.57 136.71 L 991.1775 136.71 A 34.1775 34.1775 0 0 0 957 102.5325" fill="#a4c7c7"/><rect x="911.43" y="136.71" width="45.57" height="45.57" fill="#768091"/><path d="M 911.43 136.71 A 45.57 45.57 0 0 0 957 182.28 L 957 170.88750000000002 A 34.1775 34.1775 0 0 1 922.8225 136.71" fill="#f6f7f8"/><rect x="957" y="136.71" width="45.57" height="45.57" fill="#85b4b3"/><path d="M 957 182.28 A 45.57 45.57 0 0 0 1002.57 136.71 L 991.1775 136.71 A 34.1775 34.1775 0 0 1 957 170.88750000000002" fill="#e1ecec"/><rect x="1002.57" y="91.14" width="91.14" height="91.14" fill="#dac7a1"/><polygon points="1002.57,91.14 1093.71,91.14 1093.71,182.28" fill="#fcfdfd"/><rect x="1093.71" y="91.14" width="91.14" height="91.14" fill="#e8eaec"/><polygon points="1093.71,91.14 1184.8500000000001,91.14 1093.71,182.28" fill="#eadfca"/><rect x="1184.86" y="91.14" width="91.14" height="91.14" fill="#fcfdfd"/><path d="M 1184.86 182.28 A 91.14 91.14 0 0 1  1276 91.14 L 1184.86 182.28 A 91.14 91.14 0 0 0 1276 91.14" fill="#f2ecdf"/><rect x="1276" y="91.14285714285714" width="91.14285714285714" height="91.14285714285714" fill="#ffffff"/><rect x="1276" y="91.14" width="45.57" height="45.57" fill="#408a89"/><path d="M 1276 136.71 A 45.57 45.57 0 0 1 1321.57 91.14 L 1321.57 102.5325 A 34.1775 34.1775 0 0 0 1287.3925 136.71" fill="#4c5a6f"/><rect x="1321.57" y="91.14" width="45.57" height="45.57" fill="#247978"/><path d="M 1321.57 91.14 A 45.57 45.57 0 0 1 1367.1399999999999 136.71 L 1355.7475 136.71 A 34.1775 34.1775 0 0 0 1321.57 102.5325" fill="#619e9d"/><rect x="1276" y="136.71" width="45.57" height="45.57" fill="#4b586e"/><path d="M 1276 136.71 A 45.57 45.57 0 0 0 1321.57 182.28 L 1321.57 170.88750000000002 A 34.1775 34.1775 0 0 1 1287.3925 136.71" fill="#bed7d7"/><rect x="1321.57" y="136.71" width="45.57" height="45.57" fill="#e2d2b5"/><path d="M 1321.57 182.28 A 45.57 45.57 0 0 0 1367.1399999999999 136.71 L 1355.7475 136.71 A 34.1775 34.1775 0 0 1 1321.57 170.88750000000002" fill="#e1d1b3"/><rect x="1367.142857142857" y="91.14285714285714" width="91.14285714285714" height="91.14285714285714" fill="#ffffff"/><rect x="1367.14" y="91.14" width="45.57" height="45.57" fill="#fdfcfb"/><path d="M 1367.14 136.71 A 45.57 45.57 0 0 1  1412.71 91.14 L 1412.71 136.71" fill="#fefdfc"/><rect x="1412.71" y="91.14" width="45.57" height="45.57" fill="#cfe2e2"/><path d="M 1412.71 91.14 A 45.57 45.57 0 0 1 1458.28 136.71 L 1412.71 136.71" fill="#d0d3d9"/><rect x="1367.14" y="136.71" width="45.57" height="45.57" fill="#aab0bb"/><path d="M 1367.14 136.71 A 45.57 45.57 0 0 0 1412.71 182.28 L 1412.71 136.71" fill="#f1f6f6"/><rect x="1412.71" y="136.71" width="45.57" height="45.57" fill="#394860"/><path d="M 1412.71 182.28 A 45.57 45.57 0 0 0 1458.28 136.71 L 1412.71 136.71" fill="#39485f"/><rect x="1458.2857142857142" y="91.14285714285714" width="91.14285714285714" height="91.14285714285714" fill="#ffffff"/><rect x="1458.29" y="91.14" width="45.57" height="45.57" fill="#16706f"/><circle cx="1481.075" cy="113.925" r="22.785" fill="#fefefe"/><rect x="1503.86" y="91.14" width="45.57" height="45.57" fill="#126e6d"/><rect x="1503.86" y="91.14" width="45.57" height="45.57" fill="#fdfdfe"/><rect x="1458.29" y="136.71" width="45.57" height="45.57" fill="#c2d9d9"/><circle cx="1481.075" cy="159.495" r="22.785" fill="#c5dcdb"/><rect x="1503.86" y="136.71" width="45.57" height="45.57" fill="#afcecd"/><rect x="1503.86" y="136.71" width="45.57" height="45.57" fill="#bec3cb"/><rect x="1549.4285714285713" y="91.14285714285714" width="91.14285714285714" height="91.14285714285714" fill="#ffffff"/><rect x="1549.43" y="91.14" width="45.57" height="45.57" fill="#293953"/><polygon points="1595,91.14 1595,136.71 1549.43,136.71" fill="#36455d"/><rect x="1595" y="91.14" width="45.57" height="45.57" fill="#fbf8f4"/><polygon points="1595,91.14 1640.57,136.71 1595,136.71" fill="#f1f6f6"/><rect x="1549.43" y="136.71" width="45.57" height="45.57" fill="#23334e"/><polygon points="1549.43,136.71 1595,136.71 1549.43,182.28" fill="#d3bc8f"/><rect x="1595" y="136.71" width="45.57" height="45.57" fill="#aeb4be"/><polygon points="1595,136.71 1640.57,136.71 1640.57,182.28" fill="#89b6b6"/><rect x="1640.57" y="91.14" width="91.14" height="91.14" fill="#619e9d"/><polygon points="1640.57,91.14 1731.71,182.28 1640.57,182.28" fill="#d0d4d9"/><rect x="1731.71" y="91.14" width="91.14" height="91.14" fill="#2f3f58"/><rect x="1731.71" y="91.14" width="91.14" height="91.14" fill="#37465e"/><rect x="1822.8571428571427" y="91.14285714285714" width="91.14285714285714" height="91.14285714285714" fill="#ffffff"/><rect x="1822.86" y="91.14" width="45.57" height="45.57" fill="#9fc4c3"/><polygon points="1868.4299999999998,91.14 1868.4299999999998,136.71 1822.86,136.71" fill="#b2b8c1"/><rect x="1868.43" y="91.14" width="45.57" height="45.57" fill="#c4c8cf"/><polygon points="1868.43,91.14 1914,136.71 1868.43,136.71" fill="#4a908f"/><rect x="1822.86" y="136.71" width="45.57" height="45.57" fill="#868f9d"/><polygon points="1822.86,136.71 1868.4299999999998,136.71 1822.86,182.28" fill="#2a7c7b"/><rect x="1868.43" y="136.71" width="45.57" height="45.57" fill="#566377"/><polygon points="1868.43,136.71 1914,136.71 1914,182.28" fill="#848d9c"/><rect x="0" y="182.28571428571428" width="91.14285714285714" height="91.14285714285714" fill="#ffffff"/><rect x="0" y="182.29" width="45.57" height="45.57" fill="#aeb4bd"/><polygon points="45.57,182.29 45.57,227.85999999999999 0,227.85999999999999" fill="#579897"/><rect x="45.57" y="182.29" width="45.57" height="45.57" fill="#a0c5c4"/><polygon points="45.57,182.29 91.14,227.85999999999999 45.57,227.85999999999999" fill="#decdab"/><rect x="0" y="227.86" width="45.57" height="45.57" fill="#d7c29a"/><polygon points="0,227.86 45.57,227.86 0,273.43" fill="#e3d5b8"/><rect x="45.57" y="227.86" width="45.57" height="45.57" fill="#d4bd90"/><polygon points="45.57,227.86 91.14,227.86 91.14,273.43" fill="#fafafb"/><rect x="91.14285714285714" y="182.28571428571428" width="91.14285714285714" height="91.14285714285714" fill="#ffffff"/><rect x="91.14" y="182.29" width="45.57" height="45.57" fill="#5a9999"/><circle cx="113.925" cy="205.075" r="22.785" fill="#caced4"/><rect x="136.71" y="182.29" width="45.57" height="45.57" fill="#d1b889"/><rect x="136.71" y="182.29" width="45.57" height="45.57" fill="#ddcca9"/><rect x="91.14" y="227.86" width="45.57" height="45.57" fill="#6da5a4"/><circle cx="113.925" cy="250.645" r="22.785" fill="#d9c59e"/><rect x="136.71" y="227.86" width="45.57" height="45.57" fill="#263650"/><rect x="136.71" y="227.86" width="45.57" height="45.57" fill="#418a89"/><rect x="182.28571428571428" y="182.28571428571428" width="91.14285714285714" height="91.14285714285714" fill="#ffffff"/><rect x="182.29" y="182.29" width="45.57" height="45.57" fill="#f4eee3"/><polygon points="227.85999999999999,182.29 227.85999999999999,227.85999999999999 182.29,227.85999999999999" fill="#ddeaea"/><rect x="227.86" y="182.29" width="45.57" height="45.57" fill="#fdfcfa"/><polygon points="227.86,182.29 273.43,227.85999999999999 227.86,227.85999999999999" fill="#c7cbd2"/><rect x="182.29" y="227.86" width="45.57" height="45.57" fill="#536075"/><polygon points="182.29,227.86 227.85999999999999,227.86 182.29,273.43" fill="#f4f5f6"/><rect x="227.86" y="227.86" width="45.57" height="45.57" fill="#68a2a2"/><polygon points="227.86,227.86 273.43,227.86 273.43,273.43" fill="#f1e9da"/><rect x="273.42857142857144" y="182.28571428571428" width="91.14285714285714" height="91.14285714285714" fill="#ffffff"/><rect x="273.43" y="182.29" width="45.57" height="45.57" fill="#b5bac3"/><polygon points="319,182.29 319,227.85999999999999 273.43,227.85999999999999" fill="#6f7a8b"/><rect x="319" y="182.29" width="45.57" height="45.57" fill="#f3f8f8"/><polygon points="319,182.29 364.57,227.85999999999999 319,227.85999999999999" fill="#a0c5c4"/><rect x="273.43" y="227.86" width="45.57" height="45.57" fill="#d8c39b"/><polygon points="273.43,227.86 319,227.86 319,273.43" fill="#aab0ba"/><rect x="319" y="227.86" width="45.57" height="45.57" fill="#a0a7b2"/><polygon points="319,227.86 364.57,227.86 319,273.43" fill="#f9f6f1"/><rect x="364.57" y="182.29" width="91.14" height="91.14" fill="#d0b787"/><polygon points="455.71,182.29 455.71,273.43 364.57,273.43" fill="#ceb483"/><rect x="455.71428571428567" y="182.28571428571428" width="91.14285714285714" height="91.14285714285714" fill="#ffffff"/><rect x="455.71" y="182.29" width="45.57" height="45.57" fill="#fbfdfd"/><circle cx="478.495" cy="205.075" r="22.785" fill="#438b8b"/><rect x="501.29" y="182.29" width="45.57" height="45.57" fill="#d2bb8d"/><rect x="501.29" y="182.29" width="45.57" height="45.57" fill="#2a3a53"/><rect x="455.71" y="227.86" width="45.57" height="45.57" fill="#838d9b"/><circle cx="478.495" cy="250.645" r="22.785" fill="#7d8796"/><rect x="501.29" y="227.86" width="45.57" height="45.57" fill="#e8dcc4"/><rect x="501.29" y="227.86" width="45.57" height="45.57" fill="#3f8988"/><rect x="546.8571428571429" y="182.28571428571428" width="91.14285714285714" height="91.14285714285714" fill="#ffffff"/><rect x="546.86" y="182.29" width="45.57" height="45.57" fill="#1b2c47"/><circle cx="569.645" cy="205.075" r="22.785" fill="#c5c9d0"/><rect x="592.43" y="182.29" width="45.57" height="45.57" fill="#cfe1e1"/><rect x="592.43" y="182.29" width="45.57" height="45.57" fill="#172844"/><rect x="546.86" y="227.86" width="45.57" height="45.57" fill="#fcfcfd"/><circle cx="569.645" cy="250.645" r="22.785" fill="#fcfbf8"/><rect x="592.43" y="227.86" width="45.57" height="45.57" fill="#d9c59e"/><rect x="592.43" y="227.86" width="45.57" height="45.57" fill="#9ea5b1"/><rect x="638" y="182.28571428571428" width="91.14285714285714" height="91.14285714285714" fill="#ffffff"/><rect x="638" y="182.29" width="45.57" height="45.57" fill="#9ca3af"/><path d="M 638 227.85999999999999 A 45.57 45.57 0 0 0 683.57 182.29 L 638 182.29" fill="#546175"/><rect x="683.57" y="182.29" width="45.57" height="45.57" fill="#d5d8dd"/><path d="M 683.57 182.29 A 45.57 45.57 0 0 0 729.1400000000001 227.85999999999999 L 729.1400000000001 182.29" fill="#6d788a"/><rect x="638" y="227.86" width="45.57" height="45.57" fill="#e4d6bb"/><path d="M 638 227.86 A 45.57 45.57 0 0 1 683.57 273.43 L 638 273.43" fill="#f1e9da"/><rect x="683.57" y="227.86" width="45.57" height="45.57" fill="#a1c5c5"/><path d="M 683.57 273.43 A 45.57 45.57 0 0 1  729.1400000000001 227.86 L 729.1400000000001 273.43" fill="#ecf3f3"/><rect x="729.1428571428571" y="182.28571428571428" width="91.14285714285714" height="91.14285714285714" fill="#ffffff"/><rect x="729.14" y="182.29" width="45.57" height="45.57" fill="#e2d3b6"/><polygon points="774.71,182.29 774.71,227.85999999999999 729.14,227.85999999999999" fill="#e3eeee"/><rect x="774.71" y="182.29" width="45.57" height="45.57" fill="#fefefe"/><polygon points="774.71,182.29 820.2800000000001,227.85999999999999 774.71,227.85999999999999" fill="#dae8e8"/><rect x="729.14" y="227.86" width="45.57" height="45.57" fill="#2a7c7b"/><polygon points="729.14,227.86 774.71,227.86 729.14,273.43" fill="#142642"/><rect x="774.71" y="227.86" width="45.57" height="45.57" fill="#a8afb9"/><polygon points="774.71,227.86 820.2800000000001,227.86 820.2800000000001,273.43" fill="#30807f"/><rect x="820.2857142857142" y="182.28571428571428" width="91.14285714285714" height="91.14285714285714" fill="#ffffff"/><rect x="820.29" y="182.29" width="45.57" height="45.57" fill="#f9f6f0"/><polygon points="865.86,182.29 865.86,227.85999999999999 820.29,227.85999999999999" fill="#edf4f4"/><rect x="865.86" y="182.29" width="45.57" height="45.57" fill="#dfcead"/><polygon points="865.86,182.29 911.4300000000001,227.85999999999999 865.86,227.85999999999999" fill="#dcc9a6"/><rect x="820.29" y="227.86" width="45.57" height="45.57" fill="#fbf9f5"/><polygon points="820.29,227.86 865.86,227.86 865.86,273.43" fill="#cfb583"/><rect x="865.86" y="227.86" width="45.57" height="45.57" fill="#498f8f"/><polygon points="865.86,227.86 911.4300000000001,227.86 865.86,273.43" fill="#f3ece0"/><rect x="911.4285714285713" y="182.28571428571428" width="91.14285714285714" height="91.14285714285714" fill="#ffffff"/><rect x="911.43" y="182.29" width="45.57" height="45.57" fill="#2b7d7c"/><path d="M 911.43 182.29 A 45.57 45.57 0 0 0 957 227.85999999999999 L 957 182.29" fill="#9ac1c0"/><rect x="957" y="182.29" width="45.57" height="45.57" fill="#ece1ce"/><path d="M 957 227.85999999999999 A 45.57 45.57 0 0 0 1002.57 182.29 L 957 182.29" fill="#172944"/><rect x="911.43" y="227.86" width="45.57" height="45.57" fill="#eee5d3"/><path d="M 911.43 273.43 A 45.57 45.57 0 0 1  957 227.86 L 957 273.43" fill="#435168"/><rect x="957" y="227.86" width="45.57" height="45.57" fill="#b0cfce"/><path d="M 957 227.86 A 45.57 45.57 0 0 1 1002.57 273.43 L 957 273.43" fill="#22334d"/><rect x="1002.5714285714286" y="182.28571428571428" width="91.14285714285714" height="91.14285714285714" fill="#ffffff"/><rect x="1002.57" y="182.29" width="45.57" height="45.57" fill="#468e8d"/><path d="M 1002.57 227.85999999999999 A 45.57 45.57 0 0 0 1048.14 182.29 L 1002.57 182.29" fill="#fefefe"/><rect x="1048.14" y="182.29" width="45.57" height="45.57" fill="#92bcbc"/><path d="M 1048.14 182.29 A 45.57 45.57 0 0 0 1093.71 227.85999999999999 L 1093.71 182.29" fill="#9bc2c1"/><rect x="1002.57" y="227.86" width="45.57" height="45.57" fill="#81b2b1"/><path d="M 1002.57 227.86 A 45.57 45.57 0 0 1 1048.14 273.43 L 1002.57 273.43" fill="#d4d7dd"/><rect x="1048.14" y="227.86" width="45.57" height="45.57" fill="#fefdfc"/><path d="M 1048.14 273.43 A 45.57 45.57 0 0 1  1093.71 227.86 L 1093.71 273.43" fill="#d5be93"/><rect x="1093.7142857142858" y="182.28571428571428" width="91.14285714285714" height="91.14285714285714" fill="#ffffff"/><rect x="1093.71" y="182.29" width="45.57" height="45.57" fill="#418a8a"/><path d="M 1093.71 182.29 A 45.57 45.57 0 0 0 1139.28 227.85999999999999 L 1139.28 182.29" fill="#dac6a1"/><rect x="1139.29" y="182.29" width="45.57" height="45.57" fill="#156f6e"/><path d="M 1139.29 227.85999999999999 A 45.57 45.57 0 0 0 1184.86 182.29 L 1139.29 182.29" fill="#868f9e"/><rect x="1093.71" y="227.86" width="45.57" height="45.57" fill="#d7c299"/><path d="M 1093.71 273.43 A 45.57 45.57 0 0 1  1139.28 227.86 L 1139.28 273.43" fill="#faf7f1"/><rect x="1139.29" y="227.86" width="45.57" height="45.57" fill="#358382"/><path d="M 1139.29 227.86 A 45.57 45.57 0 0 1 1184.86 273.43 L 1139.29 273.43" fill="#2c7d7c"/><rect x="1184.86" y="182.29" width="91.14" height="91.14" fill="#293953"/><rect x="1184.86" y="182.29" width="91.14" height="91.14" fill="#3b4a62"/><rect x="1276" y="182.29" width="91.14" height="91.14" fill="#d2ba8d"/><path d="M 1276 273.43 A 91.14 91.14 0 0 1  1367.14 182.29 L 1276 273.43 A 91.14 91.14 0 0 0 1367.14 182.29" fill="#a5c8c7"/><rect x="1367.142857142857" y="182.28571428571428" width="91.14285714285714" height="91.14285714285714" fill="#ffffff"/><rect x="1367.14" y="182.29" width="45.57" height="45.57" fill="#d5d8dd"/><path d="M 1367.14 227.85999999999999 A 45.57 45.57 0 0 1  1412.71 182.29 L 1412.71 227.85999999999999" fill="#fffefe"/><rect x="1412.71" y="182.29" width="45.57" height="45.57" fill="#182945"/><path d="M 1412.71 182.29 A 45.57 45.57 0 0 1 1458.28 227.85999999999999 L 1412.71 227.85999999999999" fill="#d3bb8e"/><rect x="1367.14" y="227.86" width="45.57" height="45.57" fill="#7dafae"/><path d="M 1367.14 227.86 A 45.57 45.57 0 0 0 1412.71 273.43 L 1412.71 227.86" fill="#d4bd91"/><rect x="1412.71" y="227.86" width="45.57" height="45.57" fill="#868f9d"/><path d="M 1412.71 273.43 A 45.57 45.57 0 0 0 1458.28 227.86 L 1412.71 227.86" fill="#faf7f2"/><rect x="1458.2857142857142" y="182.28571428571428" width="91.14285714285714" height="91.14285714285714" fill="#ffffff"/><rect x="1458.29" y="182.29" width="45.57" height="45.57" fill="#b6bcc4"/><path d="M 1458.29 227.85999999999999 A 45.57 45.57 0 0 1 1503.86 182.29 L 1503.86 193.6825 A 34.1775 34.1775 0 0 0 1469.6825 227.85999999999999" fill="#2a3a54"/><rect x="1503.86" y="182.29" width="45.57" height="45.57" fill="#d5be93"/><path d="M 1503.86 182.29 A 45.57 45.57 0 0 1 1549.4299999999998 227.85999999999999 L 1538.0375 227.85999999999999 A 34.1775 34.1775 0 0 0 1503.86 193.6825" fill="#d5be93"/><rect x="1458.29" y="227.86" width="45.57" height="45.57" fill="#f7f7f8"/><path d="M 1458.29 227.86 A 45.57 45.57 0 0 0 1503.86 273.43 L 1503.86 262.0375 A 34.1775 34.1775 0 0 1 1469.6825 227.86" fill="#eee5d4"/><rect x="1503.86" y="227.86" width="45.57" height="45.57" fill="#d2b98b"/><path d="M 1503.86 273.43 A 45.57 45.57 0 0 0 1549.4299999999998 227.86 L 1538.0375 227.86 A 34.1775 34.1775 0 0 1 1503.86 262.0375" fill="#38475f"/><rect x="1549.43" y="182.29" width="91.14" height="91.14" fill="#546075"/><rect x="1549.43" y="182.29" width="91.14" height="91.14" fill="#8a93a1"/><rect x="1640.57" y="182.29" width="91.14" height="91.14" fill="#d7c198"/><rect x="1640.57" y="182.29" width="91.14" height="91.14" fill="#d8dbdf"/><rect x="1731.7142857142856" y="182.28571428571428" width="91.14285714285714" height="91.14285714285714" fill="#ffffff"/><rect x="1731.71" y="182.29" width="45.57" height="45.57" fill="#636f82"/><polygon points="1777.28,182.29 1777.28,227.85999999999999 1731.71,227.85999999999999" fill="#d2e3e3"/><rect x="1777.29" y="182.29" width="45.57" height="45.57" fill="#ece3d0"/><polygon points="1777.29,182.29 1822.86,227.85999999999999 1777.29,227.85999999999999" fill="#e4d5b9"/><rect x="1731.71" y="227.86" width="45.57" height="45.57" fill="#e8f1f1"/><polygon points="1731.71,227.86 1777.28,227.86 1777.28,273.43" fill="#f2f3f5"/><rect x="1777.29" y="227.86" width="45.57" height="45.57" fill="#8d95a3"/><polygon points="1777.29,227.86 1822.86,227.86 1777.29,273.43" fill="#a2c6c6"/><rect x="1822.86" y="182.29" width="91.14" height="91.14" fill="#4c596f"/><path d="M 1822.86 273.43 A 91.14 91.14 0 0 1  1914 182.29 L 1822.86 273.43 A 91.14 91.14 0 0 0 1914 182.29" fill="#4d5a70"/><rect x="0" y="273.42857142857144" width="91.14285714285714" height="91.14285714285714" fill="#ffffff"/><rect x="0" y="273.43" width="45.57" height="45.57" fill="#d6c097"/><path d="M 0 319 A 45.57 45.57 0 0 1 45.57 273.43 L 45.57 284.8225 A 34.1775 34.1775 0 0 0 11.3925 319" fill="#f6fafa"/><rect x="45.57" y="273.43" width="45.57" height="45.57" fill="#f8f5ee"/><path d="M 45.57 273.43 A 45.57 45.57 0 0 1 91.14 319 L 79.7475 319 A 34.1775 34.1775 0 0 0 45.57 284.8225" fill="#619e9d"/><rect x="0" y="319" width="45.57" height="45.57" fill="#f8f5ee"/><path d="M 0 319 A 45.57 45.57 0 0 0 45.57 364.57 L 45.57 353.1775 A 34.1775 34.1775 0 0 1 11.3925 319" fill="#90bbba"/><rect x="45.57" y="319" width="45.57" height="45.57" fill="#283852"/><path d="M 45.57 364.57 A 45.57 45.57 0 0 0 91.14 319 L 79.7475 319 A 34.1775 34.1775 0 0 1 45.57 353.1775" fill="#2c3b55"/><rect x="91.14" y="273.43" width="91.14" height="91.14" fill="#0f6c6b"/><polygon points="182.28,273.43 182.28,364.57 91.14,364.57" fill="#dae8e8"/><rect x="182.28571428571428" y="273.42857142857144" width="91.14285714285714" height="91.14285714285714" fill="#ffffff"/><rect x="182.29" y="273.43" width="45.57" height="45.57" fill="#f1eadc"/><path d="M 182.29 273.43 A 45.57 45.57 0 0 0 227.85999999999999 319 L 227.85999999999999 273.43" fill="#38475f"/><rect x="227.86" y="273.43" width="45.57" height="45.57" fill="#277a79"/><path d="M 227.86 319 A 45.57 45.57 0 0 0 273.43 273.43 L 227.86 273.43" fill="#d7dadf"/><rect x="182.29" y="319" width="45.57" height="45.57" fill="#e4d6ba"/><path d="M 182.29 364.57 A 45.57 45.57 0 0 1  227.85999999999999 319 L 227.85999999999999 364.57" fill="#f0e8d9"/><rect x="227.86" y="319" width="45.57" height="45.57" fill="#babfc7"/><path d="M 227.86 319 A 45.57 45.57 0 0 1 273.43 364.57 L 227.86 364.57" fill="#dbe9e9"/><rect x="273.42857142857144" y="273.42857142857144" width="91.14285714285714" height="91.14285714285714" fill="#ffffff"/><rect x="273.43" y="273.43" width="45.57" height="45.57" fill="#9fa7b2"/><polygon points="319,273.43 319,319 273.43,319" fill="#e0e2e6"/><rect x="319" y="273.43" width="45.57" height="45.57" fill="#253550"/><polygon points="319,273.43 364.57,273.43 319,319" fill="#cbcfd5"/><rect x="273.43" y="319" width="45.57" height="45.57" fill="#abcbcb"/><polygon points="273.43,319 319,319 319,364.57" fill="#f5f0e6"/><rect x="319" y="319" width="45.57" height="45.57" fill="#ebe0cc"/><polygon points="319,319 364.57,364.57 319,364.57" fill="#1b7372"/><rect x="364.57142857142856" y="273.42857142857144" width="91.14285714285714" height="91.14285714285714" fill="#ffffff"/><rect x="364.57" y="273.43" width="45.57" height="45.57" fill="#d4e5e4"/><path d="M 364.57 319 A 45.57 45.57 0 0 0 410.14 273.43 L 364.57 273.43" fill="#b0b6c0"/><rect x="410.14" y="273.43" width="45.57" height="45.57" fill="#babfc7"/><path d="M 410.14 273.43 A 45.57 45.57 0 0 0 455.71 319 L 455.71 273.43" fill="#d0b786"/><rect x="364.57" y="319" width="45.57" height="45.57" fill="#eadec9"/><path d="M 364.57 319 A 45.57 45.57 0 0 1 410.14 364.57 L 364.57 364.57" fill="#4d9291"/><rect x="410.14" y="319" width="45.57" height="45.57" fill="#d1b889"/><path d="M 410.14 364.57 A 45.57 45.57 0 0 1  455.71 319 L 455.71 364.57" fill="#d3bc8f"/><rect x="455.71428571428567" y="273.42857142857144" width="91.14285714285714" height="91.14285714285714" fill="#ffffff"/><rect x="455.71" y="273.43" width="45.57" height="45.57" fill="#e5d8be"/><polygon points="501.28,273.43 501.28,319 455.71,319" fill="#b4bac3"/><rect x="501.29" y="273.43" width="45.57" height="45.57" fill="#9098a5"/><polygon points="501.29,273.43 546.86,319 501.29,319" fill="#f1eadc"/><rect x="455.71" y="319" width="45.57" height="45.57" fill="#f1f2f4"/><polygon points="455.71,319 501.28,319 455.71,364.57" fill="#7baeae"/><rect x="501.29" y="319" width="45.57" height="45.57" fill="#cadede"/><polygon points="501.29,319 546.86,319 546.86,364.57" fill="#fefefe"/><rect x="546.8571428571429" y="273.42857142857144" width="91.14285714285714" height="91.14285714285714" fill="#ffffff"/><rect x="546.86" y="273.43" width="45.57" height="45.57" fill="#b3b9c2"/><path d="M 546.86 319 A 45.57 45.57 0 0 1 592.4300000000001 273.43 L 592.4300000000001 284.8225 A 34.1775 34.1775 0 0 0 558.2525 319" fill="#2d7e7d"/><rect x="592.43" y="273.43" width="45.57" height="45.57" fill="#49566c"/><path d="M 592.43 273.43 A 45.57 45.57 0 0 1 638 319 L 626.6075 319 A 34.1775 34.1775 0 0 0 592.43 284.8225" fill="#36455d"/><rect x="546.86" y="319" width="45.57" height="45.57" fill="#bdc2ca"/><path d="M 546.86 319 A 45.57 45.57 0 0 0 592.4300000000001 364.57 L 592.4300000000001 353.1775 A 34.1775 34.1775 0 0 1 558.2525 319" fill="#d5d8dd"/><rect x="592.43" y="319" width="45.57" height="45.57" fill="#435268"/><path d="M 592.43 364.57 A 45.57 45.57 0 0 0 638 319 L 626.6075 319 A 34.1775 34.1775 0 0 1 592.43 353.1775" fill="#2f7f7e"/><rect x="638" y="273.43" width="91.14" height="91.14" fill="#cfe1e1"/><rect x="638" y="273.43" width="91.14" height="91.14" fill="#90bbba"/><rect x="729.1428571428571" y="273.42857142857144" width="91.14285714285714" height="91.14285714285714" fill="#ffffff"/><rect x="729.14" y="273.43" width="45.57" height="45.57" fill="#e7dac1"/><path d="M 729.14 319 A 45.57 45.57 0 0 1  774.71 273.43 L 774.71 319" fill="#177170"/><rect x="774.71" y="273.43" width="45.57" height="45.57" fill="#c0c5cc"/><path d="M 774.71 273.43 A 45.57 45.57 0 0 1 820.2800000000001 319 L 774.71 319" fill="#e0ecec"/><rect x="729.14" y="319" width="45.57" height="45.57" fill="#b6bcc5"/><path d="M 729.14 319 A 45.57 45.57 0 0 0 774.71 364.57 L 774.71 319" fill="#1c2d48"/><rect x="774.71" y="319" width="45.57" height="45.57" fill="#f2f7f7"/><path d="M 774.71 364.57 A 45.57 45.57 0 0 0 820.2800000000001 319 L 774.71 319" fill="#afcecd"/><rect x="820.29" y="273.43" width="91.14" height="91.14" fill="#cfb584"/><path d="M 820.29 364.57 A 91.14 91.14 0 0 1  911.43 273.43 L 820.29 364.57 A 91.14 91.14 0 0 0 911.43 273.43" fill="#fdfcfb"/><rect x="911.4285714285713" y="273.42857142857144" width="91.14285714285714" height="91.14285714285714" fill="#ffffff"/><rect x="911.43" y="273.43" width="45.57" height="45.57" fill="#4a908f"/><polygon points="957,273.43 957,319 911.43,319" fill="#e9ddc6"/><rect x="957" y="273.43" width="45.57" height="45.57" fill="#1b7372"/><polygon points="957,273.43 1002.57,319 957,319" fill="#e3d3b6"/><rect x="911.43" y="319" width="45.57" height="45.57" fill="#4c9190"/><polygon points="911.43,319 957,319 957,364.57" fill="#132541"/><rect x="957" y="319" width="45.57" height="45.57" fill="#f6f2e9"/><polygon points="957,319 1002.57,319 957,364.57" fill="#132541"/><rect x="1002.57" y="273.43" width="91.14" height="91.14" fill="#e9dec7"/><polygon points="1002.57,273.43 1093.71,364.57 1002.57,364.57" fill="#d8e7e7"/><rect x="1093.7142857142858" y="273.42857142857144" width="91.14285714285714" height="91.14285714285714" fill="#ffffff"/><rect x="1093.71" y="273.43" width="45.57" height="45.57" fill="#112340"/><polygon points="1139.28,273.43 1139.28,319 1093.71,319" fill="#546175"/><rect x="1139.29" y="273.43" width="45.57" height="45.57" fill="#a9caca"/><polygon points="1139.29,273.43 1184.86,319 1139.29,319" fill="#e2d2b4"/><rect x="1093.71" y="319" width="45.57" height="45.57" fill="#e8dcc4"/><polygon points="1093.71,319 1139.28,319 1093.71,364.57" fill="#d4bd91"/><rect x="1139.29" y="319" width="45.57" height="45.57" fill="#8992a0"/><polygon points="1139.29,319 1184.86,319 1184.86,364.57" fill="#e3d4b7"/><rect x="1184.857142857143" y="273.42857142857144" width="91.14285714285714" height="91.14285714285714" fill="#ffffff"/><rect x="1184.86" y="273.43" width="45.57" height="45.57" fill="#65a1a0"/><circle cx="1207.645" cy="296.21500000000003" r="22.785" fill="#e0e2e6"/><rect x="1230.43" y="273.43" width="45.57" height="45.57" fill="#318080"/><rect x="1230.43" y="273.43" width="45.57" height="45.57" fill="#2f7f7e"/><rect x="1184.86" y="319" width="45.57" height="45.57" fill="#263650"/><circle cx="1207.645" cy="341.785" r="22.785" fill="#f0e8d9"/><rect x="1230.43" y="319" width="45.57" height="45.57" fill="#cfb686"/><rect x="1230.43" y="319" width="45.57" height="45.57" fill="#8cb8b8"/><rect x="1276" y="273.43" width="91.14" height="91.14" fill="#d9c49d"/><polygon points="1276,273.43 1367.14,273.43 1276,364.57" fill="#eceef0"/><rect x="1367.142857142857" y="273.42857142857144" width="91.14285714285714" height="91.14285714285714" fill="#ffffff"/><rect x="1367.14" y="273.43" width="45.57" height="45.57" fill="#9ba3af"/><polygon points="1412.71,273.43 1412.71,319 1367.14,319" fill="#d0b787"/><rect x="1412.71" y="273.43" width="45.57" height="45.57" fill="#e7dbc3"/><polygon points="1412.71,273.43 1458.28,319 1412.71,319" fill="#2e3e57"/><rect x="1367.14" y="319" width="45.57" height="45.57" fill="#478e8d"/><polygon points="1367.14,319 1412.71,319 1412.71,364.57" fill="#f3ece0"/><rect x="1412.71" y="319" width="45.57" height="45.57" fill="#579897"/><polygon points="1412.71,319 1458.28,319 1412.71,364.57" fill="#abb1bc"/><rect x="1458.2857142857142" y="273.42857142857144" width="91.14285714285714" height="91.14285714285714" fill="#ffffff"/><rect x="1458.29" y="273.43" width="45.57" height="45.57" fill="#cfb584"/><path d="M 1458.29 319 A 45.57 45.57 0 0 1 1503.86 273.43 L 1503.86 284.8225 A 34.1775 34.1775 0 0 0 1469.6825 319" fill="#ede3d1"/><rect x="1503.86" y="273.43" width="45.57" height="45.57" fill="#e7dac2"/><path d="M 1503.86 273.43 A 45.57 45.57 0 0 1 1549.4299999999998 319 L 1538.0375 319 A 34.1775 34.1775 0 0 0 1503.86 284.8225" fill="#fcfaf7"/><rect x="1458.29" y="319" width="45.57" height="45.57" fill="#4d9291"/><path d="M 1458.29 319 A 45.57 45.57 0 0 0 1503.86 364.57 L 1503.86 353.1775 A 34.1775 34.1775 0 0 1 1469.6825 319" fill="#e3d4b8"/><rect x="1503.86" y="319" width="45.57" height="45.57" fill="#bed7d7"/><path d="M 1503.86 364.57 A 45.57 45.57 0 0 0 1549.4299999999998 319 L 1538.0375 319 A 34.1775 34.1775 0 0 1 1503.86 353.1775" fill="#3d8887"/><rect x="1549.4285714285713" y="273.42857142857144" width="91.14285714285714" height="91.14285714285714" fill="#ffffff"/><rect x="1549.43" y="273.43" width="45.57" height="45.57" fill="#f3ede1"/><path d="M 1549.43 319 A 45.57 45.57 0 0 0 1595 273.43 L 1549.43 273.43" fill="#1e2f4a"/><rect x="1595" y="273.43" width="45.57" height="45.57" fill="#c8ccd3"/><path d="M 1595 273.43 A 45.57 45.57 0 0 0 1640.57 319 L 1640.57 273.43" fill="#f1f6f6"/><rect x="1549.43" y="319" width="45.57" height="45.57" fill="#f9f5ef"/><path d="M 1549.43 319 A 45.57 45.57 0 0 1 1595 364.57 L 1549.43 364.57" fill="#525f74"/><rect x="1595" y="319" width="45.57" height="45.57" fill="#182a45"/><path d="M 1595 364.57 A 45.57 45.57 0 0 1  1640.57 319 L 1640.57 364.57" fill="#6b7688"/><rect x="1640.57" y="273.43" width="91.14" height="91.14" fill="#e7dac1"/><rect x="1640.57" y="273.43" width="91.14" height="91.14" fill="#90bbba"/><rect x="1731.71" y="273.43" width="91.14" height="91.14" fill="#36455d"/><polygon points="1731.71,273.43 1822.8500000000001,273.43 1822.8500000000001,364.57" fill="#529594"/><rect x="1822.86" y="273.43" width="91.14" height="91.14" fill="#bdd6d6"/><path d="M 1822.86 364.57 A 91.14 91.14 0 0 0 1914 273.43 L 1822.86 273.43" fill="#e2d3b6"/><rect x="0" y="364.57" width="91.14" height="91.14" fill="#d5bf95"/><path d="M 0 455.71 A 91.14 91.14 0 0 1  91.14 364.57 L 0 455.71 A 91.14 91.14 0 0 0 91.14 364.57" fill="#cfb685"/><rect x="91.14" y="364.57" width="91.14" height="91.14" fill="#dcc9a4"/><rect x="91.14" y="364.57" width="91.14" height="91.14" fill="#f4eee3"/><rect x="182.29" y="364.57" width="91.14" height="91.14" fill="#6da5a5"/><polygon points="182.29,364.57 273.43,455.71 182.29,455.71" fill="#606b7f"/><rect x="273.43" y="364.57" width="91.14" height="91.14" fill="#25354f"/><polygon points="273.43,364.57 364.57,364.57 364.57,455.71" fill="#d2ba8c"/><rect x="364.57" y="364.57" width="91.14" height="91.14" fill="#adb4bd"/><path d="M 364.57 455.71 A 91.14 91.14 0 0 1  455.71 364.57 L 364.57 455.71 A 91.14 91.14 0 0 0 455.71 364.57" fill="#b9bec7"/><rect x="455.71" y="364.57" width="91.14" height="91.14" fill="#e5d8bd"/><polygon points="455.71,364.57 546.85,455.71 455.71,455.71" fill="#d5bf94"/><rect x="546.86" y="364.57" width="91.14" height="91.14" fill="#7d8797"/><polygon points="638,364.57 638,455.71 546.86,455.71" fill="#142542"/><rect x="638" y="364.57" width="91.14" height="91.14" fill="#eeeff1"/><path d="M 638 455.71 A 91.14 91.14 0 0 1  729.14 364.57 L 638 455.71 A 91.14 91.14 0 0 0 729.14 364.57" fill="#a1c5c5"/><rect x="729.1428571428571" y="364.57142857142856" width="91.14285714285714" height="91.14285714285714" fill="#ffffff"/><rect x="729.14" y="364.57" width="45.57" height="45.57" fill="#adb3bd"/><polygon points="774.71,364.57 774.71,410.14 729.14,410.14" fill="#fefefe"/><rect x="774.71" y="364.57" width="45.57" height="45.57" fill="#132441"/><polygon points="774.71,364.57 820.2800000000001,410.14 774.71,410.14" fill="#949ca9"/><rect x="729.14" y="410.14" width="45.57" height="45.57" fill="#b1cfcf"/><polygon points="729.14,410.14 774.71,410.14 729.14,455.71" fill="#f5f0e6"/><rect x="774.71" y="410.14" width="45.57" height="45.57" fill="#536074"/><polygon points="774.71,410.14 820.2800000000001,410.14 820.2800000000001,455.71" fill="#647082"/><rect x="820.29" y="364.57" width="91.14" height="91.14" fill="#7eb0af"/><polygon points="911.43,364.57 911.43,455.71 820.29,455.71" fill="#f0e8d9"/><rect x="911.43" y="364.57" width="91.14" height="91.14" fill="#848d9c"/><polygon points="911.43,364.57 1002.5699999999999,364.57 1002.5699999999999,455.71" fill="#848d9c"/><rect x="1002.57" y="364.57" width="91.14" height="91.14" fill="#2e7e7e"/><path d="M 1002.57 364.57 A 91.14 91.14 0 0 1 1093.71 455.71 L 1002.57 455.71" fill="#f9f9fa"/><rect x="1093.7142857142858" y="364.57142857142856" width="91.14285714285714" height="91.14285714285714" fill="#ffffff"/><rect x="1093.71" y="364.57" width="45.57" height="45.57" fill="#91bbbb"/><path d="M 1093.71 410.14 A 45.57 45.57 0 0 0 1139.28 364.57 L 1093.71 364.57" fill="#1c2d48"/><rect x="1139.29" y="364.57" width="45.57" height="45.57" fill="#fbfcfc"/><path d="M 1139.29 364.57 A 45.57 45.57 0 0 0 1184.86 410.14 L 1184.86 364.57" fill="#f2ecdf"/><rect x="1093.71" y="410.14" width="45.57" height="45.57" fill="#d6c198"/><path d="M 1093.71 410.14 A 45.57 45.57 0 0 1 1139.28 455.71 L 1093.71 455.71" fill="#ece2cf"/><rect x="1139.29" y="410.14" width="45.57" height="45.57" fill="#e3eeee"/><path d="M 1139.29 455.71 A 45.57 45.57 0 0 1  1184.86 410.14 L 1184.86 455.71" fill="#e3d4b8"/><rect x="1184.857142857143" y="364.57142857142856" width="91.14285714285714" height="91.14285714285714" fill="#ffffff"/><rect x="1184.86" y="364.57" width="45.57" height="45.57" fill="#e1d1b3"/><path d="M 1184.86 410.14 A 45.57 45.57 0 0 1 1230.4299999999998 364.57 L 1230.4299999999998 375.9625 A 34.1775 34.1775 0 0 0 1196.2524999999998 410.14" fill="#d0b888"/><rect x="1230.43" y="364.57" width="45.57" height="45.57" fill="#f8f4ed"/><path d="M 1230.43 364.57 A 45.57 45.57 0 0 1 1276 410.14 L 1264.6075 410.14 A 34.1775 34.1775 0 0 0 1230.43 375.9625" fill="#b3d1d0"/><rect x="1184.86" y="410.14" width="45.57" height="45.57" fill="#e8eaed"/><path d="M 1184.86 410.14 A 45.57 45.57 0 0 0 1230.4299999999998 455.71 L 1230.4299999999998 444.3175 A 34.1775 34.1775 0 0 1 1196.2524999999998 410.14" fill="#ddcaa7"/><rect x="1230.43" y="410.14" width="45.57" height="45.57" fill="#d2e3e3"/><path d="M 1230.43 455.71 A 45.57 45.57 0 0 0 1276 410.14 L 1264.6075 410.14 A 34.1775 34.1775 0 0 1 1230.43 444.3175" fill="#768091"/><rect x="1276" y="364.57" width="91.14" height="91.14" fill="#35445c"/><path d="M 1276 455.71 A 91.14 91.14 0 0 1  1367.14 364.57 L 1276 455.71 A 91.14 91.14 0 0 0 1367.14 364.57" fill="#589998"/><rect x="1367.142857142857" y="364.57142857142856" width="91.14285714285714" height="91.14285714285714" fill="#ffffff"/><rect x="1367.14" y="364.57" width="45.57" height="45.57" fill="#529594"/><path d="M 1367.14 364.57 A 45.57 45.57 0 0 1 1412.71 410.14 L 1367.14 410.14" fill="#e4d5b9"/><rect x="1412.71" y="364.57" width="45.57" height="45.57" fill="#fdfefe"/><path d="M 1412.71 410.14 A 45.57 45.57 0 0 1  1458.28 364.57 L 1458.28 410.14" fill="#d2bb8d"/><rect x="1367.14" y="410.14" width="45.57" height="45.57" fill="#b3b8c2"/><path d="M 1367.14 455.71 A 45.57 45.57 0 0 0 1412.71 410.14 L 1367.14 410.14" fill="#e6e8eb"/><rect x="1412.71" y="410.14" width="45.57" height="45.57" fill="#1b2c48"/><path d="M 1412.71 410.14 A 45.57 45.57 0 0 0 1458.28 455.71 L 1458.28 410.14" fill="#ece1ce"/><rect x="1458.2857142857142" y="364.57142857142856" width="91.14285714285714" height="91.14285714285714" fill="#ffffff"/><rect x="1458.29" y="364.57" width="45.57" height="45.57" fill="#cfb686"/><path d="M 1458.29 410.14 A 45.57 45.57 0 0 1 1503.86 364.57 L 1503.86 375.9625 A 34.1775 34.1775 0 0 0 1469.6825 410.14" fill="#122440"/><rect x="1503.86" y="364.57" width="45.57" height="45.57" fill="#247978"/><path d="M 1503.86 364.57 A 45.57 45.57 0 0 1 1549.4299999999998 410.14 L 1538.0375 410.14 A 34.1775 34.1775 0 0 0 1503.86 375.9625" fill="#d8c39a"/><rect x="1458.29" y="410.14" width="45.57" height="45.57" fill="#a7aeb8"/><path d="M 1458.29 410.14 A 45.57 45.57 0 0 0 1503.86 455.71 L 1503.86 444.3175 A 34.1775 34.1775 0 0 1 1469.6825 410.14" fill="#88b6b5"/><rect x="1503.86" y="410.14" width="45.57" height="45.57" fill="#1a7271"/><path d="M 1503.86 455.71 A 45.57 45.57 0 0 0 1549.4299999999998 410.14 L 1538.0375 410.14 A 34.1775 34.1775 0 0 1 1503.86 444.3175" fill="#e7e9ec"/><rect x="1549.4285714285713" y="364.57142857142856" width="91.14285714285714" height="91.14285714285714" fill="#ffffff"/><rect x="1549.43" y="364.57" width="45.57" height="45.57" fill="#fafcfc"/><circle cx="1572.2150000000001" cy="387.355" r="22.785" fill="#d0b786"/><rect x="1595" y="364.57" width="45.57" height="45.57" fill="#eadfc9"/><rect x="1595" y="364.57" width="45.57" height="45.57" fill="#f1eadb"/><rect x="1549.43" y="410.14" width="45.57" height="45.57" fill="#314059"/><circle cx="1572.2150000000001" cy="432.925" r="22.785" fill="#65a0a0"/><rect x="1595" y="410.14" width="45.57" height="45.57" fill="#5b687b"/><rect x="1595" y="410.14" width="45.57" height="45.57" fill="#80b1b0"/><rect x="1640.5714285714284" y="364.57142857142856" width="91.14285714285714" height="91.14285714285714" fill="#ffffff"/><rect x="1640.57" y="364.57" width="45.57" height="45.57" fill="#939ba8"/><circle cx="1663.355" cy="387.355" r="22.785" fill="#e8dcc4"/><rect x="1686.14" y="364.57" width="45.57" height="45.57" fill="#4c9190"/><rect x="1686.14" y="364.57" width="45.57" height="45.57" fill="#b1cfcf"/><rect x="1640.57" y="410.14" width="45.57" height="45.57" fill="#e6f0f0"/><circle cx="1663.355" cy="432.925" r="22.785" fill="#eadfc9"/><rect x="1686.14" y="410.14" width="45.57" height="45.57" fill="#539695"/><rect x="1686.14" y="410.14" width="45.57" height="45.57" fill="#197271"/><rect x="1731.71" y="364.57" width="91.14" height="91.14" fill="#bbc0c8"/><polygon points="1731.71,364.57 1822.8500000000001,364.57 1822.8500000000001,455.71" fill="#969daa"/><rect x="1822.8571428571427" y="364.57142857142856" width="91.14285714285714" height="91.14285714285714" fill="#ffffff"/><rect x="1822.86" y="364.57" width="45.57" height="45.57" fill="#525f74"/><path d="M 1822.86 364.57 A 45.57 45.57 0 0 1 1868.4299999999998 410.14 L 1822.86 410.14" fill="#e5efef"/><rect x="1868.43" y="364.57" width="45.57" height="45.57" fill="#358382"/><path d="M 1868.43 410.14 A 45.57 45.57 0 0 1  1914 364.57 L 1914 410.14" fill="#ebe0cc"/><rect x="1822.86" y="410.14" width="45.57" height="45.57" fill="#7c8595"/><path d="M 1822.86 455.71 A 45.57 45.57 0 0 0 1868.4299999999998 410.14 L 1822.86 410.14" fill="#619e9d"/><rect x="1868.43" y="410.14" width="45.57" height="45.57" fill="#c4c9d0"/><path d="M 1868.43 410.14 A 45.57 45.57 0 0 0 1914 455.71 L 1914 410.14" fill="#33425a"/><rect x="0" y="455.71" width="91.14" height="91.14" fill="#8fbaba"/><path d="M 0 455.71 A 91.14 91.14 0 0 1  91.14 546.85 L 0 455.71 A 91.14 91.14 0 0 0 91.14 546.85" fill="#e5efef"/><rect x="91.14285714285714" y="455.71428571428567" width="91.14285714285714" height="91.14285714285714" fill="#ffffff"/><rect x="91.14" y="455.71" width="45.57" height="45.57" fill="#d5bf94"/><path d="M 91.14 501.28 A 45.57 45.57 0 0 1  136.71 455.71 L 136.71 501.28" fill="#267a79"/><rect x="136.71" y="455.71" width="45.57" height="45.57" fill="#dac6a0"/><path d="M 136.71 455.71 A 45.57 45.57 0 0 1 182.28 501.28 L 136.71 501.28" fill="#428b8a"/><rect x="91.14" y="501.29" width="45.57" height="45.57" fill="#24344f"/><path d="M 91.14 501.29 A 45.57 45.57 0 0 0 136.71 546.86 L 136.71 501.29" fill="#778191"/><rect x="136.71" y="501.29" width="45.57" height="45.57" fill="#ebe0cb"/><path d="M 136.71 546.86 A 45.57 45.57 0 0 0 182.28 501.29 L 136.71 501.29" fill="#e4d6bb"/><rect x="182.28571428571428" y="455.71428571428567" width="91.14285714285714" height="91.14285714285714" fill="#ffffff"/><rect x="182.29" y="455.71" width="45.57" height="45.57" fill="#7baead"/><path d="M 182.29 455.71 A 45.57 45.57 0 0 0 227.85999999999999 501.28 L 227.85999999999999 455.71" fill="#10223e"/><rect x="227.86" y="455.71" width="45.57" height="45.57" fill="#378483"/><path d="M 227.86 501.28 A 45.57 45.57 0 0 0 273.43 455.71 L 227.86 455.71" fill="#fffefe"/><rect x="182.29" y="501.29" width="45.57" height="45.57" fill="#f0f1f3"/><path d="M 182.29 546.86 A 45.57 45.57 0 0 1  227.85999999999999 501.29 L 227.85999999999999 546.86" fill="#91bbbb"/><rect x="227.86" y="501.29" width="45.57" height="45.57" fill="#afb5be"/><path d="M 227.86 501.29 A 45.57 45.57 0 0 1 273.43 546.86 L 227.86 546.86" fill="#197271"/><rect x="273.42857142857144" y="455.71428571428567" width="91.14285714285714" height="91.14285714285714" fill="#ffffff"/><rect x="273.43" y="455.71" width="45.57" height="45.57" fill="#5b677b"/><path d="M 273.43 455.71 A 45.57 45.57 0 0 0 319 501.28 L 319 455.71" fill="#247877"/><rect x="319" y="455.71" width="45.57" height="45.57" fill="#fdfcf9"/><path d="M 319 501.28 A 45.57 45.57 0 0 0 364.57 455.71 L 319 455.71" fill="#d8e7e7"/><rect x="273.43" y="501.29" width="45.57" height="45.57" fill="#bcc1c9"/><path d="M 273.43 546.86 A 45.57 45.57 0 0 1  319 501.29 L 319 546.86" fill="#f9f5ee"/><rect x="319" y="501.29" width="45.57" height="45.57" fill="#425067"/><path d="M 319 501.29 A 45.57 45.57 0 0 1 364.57 546.86 L 319 546.86" fill="#e0cfb0"/><rect x="364.57142857142856" y="455.71428571428567" width="91.14285714285714" height="91.14285714285714" fill="#ffffff"/><rect x="364.57" y="455.71" width="45.57" height="45.57" fill="#e8dbc3"/><circle cx="387.355" cy="478.495" r="22.785" fill="#94bebd"/><rect x="410.14" y="455.71" width="45.57" height="45.57" fill="#f5f0e6"/><rect x="410.14" y="455.71" width="45.57" height="45.57" fill="#e8dcc5"/><rect x="364.57" y="501.29" width="45.57" height="45.57" fill="#8ab7b6"/><circle cx="387.355" cy="524.075" r="22.785" fill="#94bdbd"/><rect x="410.14" y="501.29" width="45.57" height="45.57" fill="#d3bc90"/><rect x="410.14" y="501.29" width="45.57" height="45.57" fill="#dccaa7"/><rect x="455.71" y="455.71" width="91.14" height="91.14" fill="#c5c9d0"/><rect x="455.71" y="455.71" width="91.14" height="91.14" fill="#decdab"/><rect x="546.8571428571429" y="455.71428571428567" width="91.14285714285714" height="91.14285714285714" fill="#ffffff"/><rect x="546.86" y="455.71" width="45.57" height="45.57" fill="#b0b6bf"/><circle cx="569.645" cy="478.495" r="22.785" fill="#6a7587"/><rect x="592.43" y="455.71" width="45.57" height="45.57" fill="#bbd5d5"/><rect x="592.43" y="455.71" width="45.57" height="45.57" fill="#dbdee2"/><rect x="546.86" y="501.29" width="45.57" height="45.57" fill="#d0b787"/><circle cx="569.645" cy="524.075" r="22.785" fill="#ece2cf"/><rect x="592.43" y="501.29" width="45.57" height="45.57" fill="#106c6b"/><rect x="592.43" y="501.29" width="45.57" height="45.57" fill="#8a93a1"/><rect x="638" y="455.71428571428567" width="91.14285714285714" height="91.14285714285714" fill="#ffffff"/><rect x="638" y="455.71" width="45.57" height="45.57" fill="#0e6b6a"/><path d="M 638 501.28 A 45.57 45.57 0 0 0 683.57 455.71 L 638 455.71" fill="#4b9090"/><rect x="683.57" y="455.71" width="45.57" height="45.57" fill="#d9dce0"/><path d="M 683.57 455.71 A 45.57 45.57 0 0 0 729.1400000000001 501.28 L 729.1400000000001 455.71" fill="#90bbbb"/><rect x="638" y="501.29" width="45.57" height="45.57" fill="#277b7a"/><path d="M 638 501.29 A 45.57 45.57 0 0 1 683.57 546.86 L 638 546.86" fill="#959da9"/><rect x="683.57" y="501.29" width="45.57" height="45.57" fill="#deccaa"/><path d="M 683.57 546.86 A 45.57 45.57 0 0 1  729.1400000000001 501.29 L 729.1400000000001 546.86" fill="#b5d1d1"/><rect x="729.1428571428571" y="455.71428571428567" width="91.14285714285714" height="91.14285714285714" fill="#ffffff"/><rect x="729.14" y="455.71" width="45.57" height="45.57" fill="#faf8f3"/><path d="M 729.14 501.28 A 45.57 45.57 0 0 1 774.71 455.71 L 774.71 467.10249999999996 A 34.1775 34.1775 0 0 0 740.5325 501.28" fill="#ebe1cc"/><rect x="774.71" y="455.71" width="45.57" height="45.57" fill="#e8dcc5"/><path d="M 774.71 455.71 A 45.57 45.57 0 0 1 820.2800000000001 501.28 L 808.8875 501.28 A 34.1775 34.1775 0 0 0 774.71 467.10249999999996" fill="#8fbaba"/><rect x="729.14" y="501.29" width="45.57" height="45.57" fill="#fdfdfd"/><path d="M 729.14 501.29 A 45.57 45.57 0 0 0 774.71 546.86 L 774.71 535.4675 A 34.1775 34.1775 0 0 1 740.5325 501.29" fill="#378484"/><rect x="774.71" y="501.29" width="45.57" height="45.57" fill="#d0b787"/><path d="M 774.71 546.86 A 45.57 45.57 0 0 0 820.2800000000001 501.29 L 808.8875 501.29 A 34.1775 34.1775 0 0 1 774.71 535.4675" fill="#eee5d4"/><rect x="820.2857142857142" y="455.71428571428567" width="91.14285714285714" height="91.14285714285714" fill="#ffffff"/><rect x="820.29" y="455.71" width="45.57" height="45.57" fill="#404e65"/><polygon points="865.86,455.71 865.86,501.28 820.29,501.28" fill="#616d80"/><rect x="865.86" y="455.71" width="45.57" height="45.57" fill="#616d80"/><polygon points="865.86,455.71 911.4300000000001,501.28 865.86,501.28" fill="#d6c096"/><rect x="820.29" y="501.29" width="45.57" height="45.57" fill="#faf7f2"/><polygon points="820.29,501.29 865.86,501.29 820.29,546.86" fill="#f7f7f8"/><rect x="865.86" y="501.29" width="45.57" height="45.57" fill="#287b7a"/><polygon points="865.86,501.29 911.4300000000001,501.29 911.4300000000001,546.86" fill="#f9f9fa"/><rect x="911.4285714285713" y="455.71428571428567" width="91.14285714285714" height="91.14285714285714" fill="#ffffff"/><rect x="911.43" y="455.71" width="45.57" height="45.57" fill="#76abaa"/><path d="M 911.43 501.28 A 45.57 45.57 0 0 1 957 455.71 L 957 467.10249999999996 A 34.1775 34.1775 0 0 0 922.8225 501.28" fill="#455369"/><rect x="957" y="455.71" width="45.57" height="45.57" fill="#d2ba8d"/><path d="M 957 455.71 A 45.57 45.57 0 0 1 1002.57 501.28 L 991.1775 501.28 A 34.1775 34.1775 0 0 0 957 467.10249999999996" fill="#dfcfae"/><rect x="911.43" y="501.29" width="45.57" height="45.57" fill="#d6e6e6"/><path d="M 911.43 501.29 A 45.57 45.57 0 0 0 957 546.86 L 957 535.4675 A 34.1775 34.1775 0 0 1 922.8225 501.29" fill="#8992a0"/><rect x="957" y="501.29" width="45.57" height="45.57" fill="#5e6a7d"/><path d="M 957 546.86 A 45.57 45.57 0 0 0 1002.57 501.29 L 991.1775 501.29 A 34.1775 34.1775 0 0 1 957 535.4675" fill="#5c9b9a"/><rect x="1002.5714285714286" y="455.71428571428567" width="91.14285714285714" height="91.14285714285714" fill="#ffffff"/><rect x="1002.57" y="455.71" width="45.57" height="45.57" fill="#152743"/><path d="M 1002.57 501.28 A 45.57 45.57 0 0 1 1048.14 455.71 L 1048.14 467.10249999999996 A 34.1775 34.1775 0 0 0 1013.9625000000001 501.28" fill="#6aa4a3"/><rect x="1048.14" y="455.71" width="45.57" height="45.57" fill="#fcfaf6"/><path d="M 1048.14 455.71 A 45.57 45.57 0 0 1 1093.71 501.28 L 1082.3175 501.28 A 34.1775 34.1775 0 0 0 1048.14 467.10249999999996" fill="#589998"/><rect x="1002.57" y="501.29" width="45.57" height="45.57" fill="#a8aeb9"/><path d="M 1002.57 501.29 A 45.57 45.57 0 0 0 1048.14 546.86 L 1048.14 535.4675 A 34.1775 34.1775 0 0 1 1013.9625000000001 501.29" fill="#d6d9de"/><rect x="1048.14" y="501.29" width="45.57" height="45.57" fill="#d5e5e5"/><path d="M 1048.14 546.86 A 45.57 45.57 0 0 0 1093.71 501.29 L 1082.3175 501.29 A 34.1775 34.1775 0 0 1 1048.14 535.4675" fill="#4f9392"/><rect x="1093.71" y="455.71" width="91.14" height="91.14" fill="#e5d7bd"/><rect x="1093.71" y="455.71" width="91.14" height="91.14" fill="#f8f5ee"/><rect x="1184.857142857143" y="455.71428571428567" width="91.14285714285714" height="91.14285714285714" fill="#ffffff"/><rect x="1184.86" y="455.71" width="45.57" height="45.57" fill="#f2ecdf"/><path d="M 1184.86 501.28 A 45.57 45.57 0 0 1  1230.4299999999998 455.71 L 1230.4299999999998 501.28" fill="#88b6b6"/><rect x="1230.43" y="455.71" width="45.57" height="45.57" fill="#f8fbfb"/><path d="M 1230.43 455.71 A 45.57 45.57 0 0 1 1276 501.28 L 1230.43 501.28" fill="#d0b786"/><rect x="1184.86" y="501.29" width="45.57" height="45.57" fill="#e5efef"/><path d="M 1184.86 501.29 A 45.57 45.57 0 0 0 1230.4299999999998 546.86 L 1230.4299999999998 501.29" fill="#e2eded"/><rect x="1230.43" y="501.29" width="45.57" height="45.57" fill="#ede3d0"/><path d="M 1230.43 546.86 A 45.57 45.57 0 0 0 1276 501.29 L 1230.43 501.29" fill="#adb3bd"/><rect x="1276" y="455.71" width="91.14" height="91.14" fill="#468e8d"/><polygon points="1276,455.71 1367.14,455.71 1367.14,546.85" fill="#7c8595"/><rect x="1367.142857142857" y="455.71428571428567" width="91.14285714285714" height="91.14285714285714" fill="#ffffff"/><rect x="1367.14" y="455.71" width="45.57" height="45.57" fill="#116d6c"/><path d="M 1367.14 501.28 A 45.57 45.57 0 0 1  1412.71 455.71 L 1412.71 501.28" fill="#d2ba8c"/><rect x="1412.71" y="455.71" width="45.57" height="45.57" fill="#f5f0e5"/><path d="M 1412.71 455.71 A 45.57 45.57 0 0 1 1458.28 501.28 L 1412.71 501.28" fill="#a3aab5"/><rect x="1367.14" y="501.29" width="45.57" height="45.57" fill="#acb2bc"/><path d="M 1367.14 501.29 A 45.57 45.57 0 0 0 1412.71 546.86 L 1412.71 501.29" fill="#e8dcc5"/><rect x="1412.71" y="501.29" width="45.57" height="45.57" fill="#fafcfc"/><path d="M 1412.71 546.86 A 45.57 45.57 0 0 0 1458.28 501.29 L 1412.71 501.29" fill="#596579"/><rect x="1458.29" y="455.71" width="91.14" height="91.14" fill="#9fc4c4"/><path d="M 1458.29 455.71 A 91.14 91.14 0 0 1 1549.43 546.85 L 1458.29 546.85" fill="#f3ede1"/><rect x="1549.4285714285713" y="455.71428571428567" width="91.14285714285714" height="91.14285714285714" fill="#ffffff"/><rect x="1549.43" y="455.71" width="45.57" height="45.57" fill="#498f8e"/><polygon points="1595,455.71 1595,501.28 1549.43,501.28" fill="#505d72"/><rect x="1595" y="455.71" width="45.57" height="45.57" fill="#5e6a7d"/><polygon points="1595,455.71 1640.57,455.71 1595,501.28" fill="#2c3c55"/><rect x="1549.43" y="501.29" width="45.57" height="45.57" fill="#74aaa9"/><polygon points="1549.43,501.29 1595,501.29 1595,546.86" fill="#e3e6e9"/><rect x="1595" y="501.29" width="45.57" height="45.57" fill="#e8dcc5"/><polygon points="1595,501.29 1640.57,546.86 1595,546.86" fill="#f5efe5"/><rect x="1640.5714285714284" y="455.71428571428567" width="91.14285714285714" height="91.14285714285714" fill="#ffffff"/><rect x="1640.57" y="455.71" width="45.57" height="45.57" fill="#f9f6f0"/><path d="M 1640.57 455.71 A 45.57 45.57 0 0 0 1686.1399999999999 501.28 L 1686.1399999999999 455.71" fill="#438c8b"/><rect x="1686.14" y="455.71" width="45.57" height="45.57" fill="#2d3d56"/><path d="M 1686.14 501.28 A 45.57 45.57 0 0 0 1731.71 455.71 L 1686.14 455.71" fill="#297c7b"/><rect x="1640.57" y="501.29" width="45.57" height="45.57" fill="#f7fafa"/><path d="M 1640.57 546.86 A 45.57 45.57 0 0 1  1686.1399999999999 501.29 L 1686.1399999999999 546.86" fill="#505d72"/><rect x="1686.14" y="501.29" width="45.57" height="45.57" fill="#6ea6a5"/><path d="M 1686.14 501.29 A 45.57 45.57 0 0 1 1731.71 546.86 L 1686.14 546.86" fill="#619e9d"/><rect x="1731.71" y="455.71" width="91.14" height="91.14" fill="#e4e6e9"/><rect x="1731.71" y="455.71" width="91.14" height="91.14" fill="#428b8a"/><rect x="1822.8571428571427" y="455.71428571428567" width="91.14285714285714" height="91.14285714285714" fill="#ffffff"/><rect x="1822.86" y="455.71" width="45.57" height="45.57" fill="#9ec3c3"/><polygon points="1868.4299999999998,455.71 1868.4299999999998,501.28 1822.86,501.28" fill="#e4d6ba"/><rect x="1868.43" y="455.71" width="45.57" height="45.57" fill="#97bfbe"/><polygon points="1868.43,455.71 1914,501.28 1868.43,501.28" fill="#f8f4ed"/><rect x="1822.86" y="501.29" width="45.57" height="45.57" fill="#c1d9d8"/><polygon points="1822.86,501.29 1868.4299999999998,501.29 1822.86,546.86" fill="#fcfbf8"/><rect x="1868.43" y="501.29" width="45.57" height="45.57" fill="#e9f1f1"/><polygon points="1868.43,501.29 1914,501.29 1914,546.86" fill="#566377"/><rect x="0" y="546.86" width="91.14" height="91.14" fill="#f1e9db"/><polygon points="0,546.86 91.14,546.86 0,638" fill="#e3eeee"/><rect x="91.14" y="546.86" width="91.14" height="91.14" fill="#b0cfce"/><path d="M 91.14 546.86 A 91.14 91.14 0 0 1 182.28 638 L 91.14 638" fill="#e1d1b2"/><rect x="182.29" y="546.86" width="91.14" height="91.14" fill="#e6d9bf"/><polygon points="182.29,546.86 273.43,638 182.29,638" fill="#6ba4a3"/><rect x="273.42857142857144" y="546.8571428571429" width="91.14285714285714" height="91.14285714285714" fill="#ffffff"/><rect x="273.43" y="546.86" width="45.57" height="45.57" fill="#32425a"/><polygon points="319,546.86 319,592.4300000000001 273.43,592.4300000000001" fill="#f1f2f4"/><rect x="319" y="546.86" width="45.57" height="45.57" fill="#f9f6f0"/><polygon points="319,546.86 364.57,592.4300000000001 319,592.4300000000001" fill="#dfe1e5"/><rect x="273.43" y="592.43" width="45.57" height="45.57" fill="#85b4b3"/><polygon points="273.43,592.43 319,592.43 319,638" fill="#fbfbfc"/><rect x="319" y="592.43" width="45.57" height="45.57" fill="#267a79"/><polygon points="319,592.43 364.57,592.43 319,638" fill="#d9e7e7"/><rect x="364.57" y="546.86" width="91.14" height="91.14" fill="#757f90"/><polygon points="364.57,546.86 455.71,546.86 364.57,638" fill="#d2ba8c"/><rect x="455.71" y="546.86" width="91.14" height="91.14" fill="#f5f0e7"/><polygon points="546.85,546.86 546.85,638 455.71,638" fill="#7f8998"/><rect x="546.86" y="546.86" width="91.14" height="91.14" fill="#629f9e"/><path d="M 546.86 638 A 91.14 91.14 0 0 0 638 546.86 L 546.86 546.86" fill="#707b8c"/><rect x="638" y="546.86" width="91.14" height="91.14" fill="#f2ebde"/><polygon points="638,546.86 729.14,546.86 638,638" fill="#d1d4da"/><rect x="729.14" y="546.86" width="91.14" height="91.14" fill="#f7f3ea"/><path d="M 729.14 546.86 A 91.14 91.14 0 0 0 820.28 638 L 820.28 546.86" fill="#8d96a3"/><rect x="820.2857142857142" y="546.8571428571429" width="91.14285714285714" height="91.14285714285714" fill="#ffffff"/><rect x="820.29" y="546.86" width="45.57" height="45.57" fill="#94bdbd"/><polygon points="865.86,546.86 865.86,592.4300000000001 820.29,592.4300000000001" fill="#e9ebed"/><rect x="865.86" y="546.86" width="45.57" height="45.57" fill="#808a99"/><polygon points="865.86,546.86 911.4300000000001,592.4300000000001 865.86,592.4300000000001" fill="#172844"/><rect x="820.29" y="592.43" width="45.57" height="45.57" fill="#f5f0e6"/><polygon points="820.29,592.43 865.86,592.43 865.86,638" fill="#579897"/><rect x="865.86" y="592.43" width="45.57" height="45.57" fill="#ede4d2"/><polygon points="865.86,592.43 911.4300000000001,592.43 865.86,638" fill="#3e8887"/><rect x="911.43" y="546.86" width="91.14" height="91.14" fill="#438b8b"/><rect x="911.43" y="546.86" width="91.14" height="91.14" fill="#dfcead"/><rect x="1002.57" y="546.86" width="91.14" height="91.14" fill="#515e73"/><path d="M 1002.57 546.86 A 91.14 91.14 0 0 0 1093.71 638 L 1093.71 546.86" fill="#ede4d2"/><rect x="1093.7142857142858" y="546.8571428571429" width="91.14285714285714" height="91.14285714285714" fill="#ffffff"/><rect x="1093.71" y="546.86" width="45.57" height="45.57" fill="#dfcead"/><polygon points="1139.28,546.86 1139.28,592.4300000000001 1093.71,592.4300000000001" fill="#3c4a62"/><rect x="1139.29" y="546.86" width="45.57" height="45.57" fill="#d0b787"/><polygon points="1139.29,546.86 1184.86,546.86 1139.29,592.4300000000001" fill="#737d8e"/><rect x="1093.71" y="592.43" width="45.57" height="45.57" fill="#73a9a9"/><polygon points="1093.71,592.43 1139.28,592.43 1139.28,638" fill="#1b7372"/><rect x="1139.29" y="592.43" width="45.57" height="45.57" fill="#0f6c6b"/><polygon points="1139.29,592.43 1184.86,638 1139.29,638" fill="#e0d0b0"/><rect x="1184.86" y="546.86" width="91.14" height="91.14" fill="#8fbaba"/><polygon points="1184.86,546.86 1276,546.86 1276,638" fill="#f0e9da"/><rect x="1276" y="546.8571428571429" width="91.14285714285714" height="91.14285714285714" fill="#ffffff"/><rect x="1276" y="546.86" width="45.57" height="45.57" fill="#f1f7f7"/><path d="M 1276 546.86 A 45.57 45.57 0 0 1 1321.57 592.4300000000001 L 1276 592.4300000000001" fill="#1c2d49"/><rect x="1321.57" y="546.86" width="45.57" height="45.57" fill="#636f81"/><path d="M 1321.57 592.4300000000001 A 45.57 45.57 0 0 1  1367.1399999999999 546.86 L 1367.1399999999999 592.4300000000001" fill="#e2d3b6"/><rect x="1276" y="592.43" width="45.57" height="45.57" fill="#d0b888"/><path d="M 1276 638 A 45.57 45.57 0 0 0 1321.57 592.43 L 1276 592.43" fill="#d3bc90"/><rect x="1321.57" y="592.43" width="45.57" height="45.57" fill="#a5acb7"/><path d="M 1321.57 592.43 A 45.57 45.57 0 0 0 1367.1399999999999 638 L 1367.1399999999999 592.43" fill="#152743"/><rect x="1367.142857142857" y="546.8571428571429" width="91.14285714285714" height="91.14285714285714" fill="#ffffff"/><rect x="1367.14" y="546.86" width="45.57" height="45.57" fill="#e2d3b6"/><polygon points="1412.71,546.86 1412.71,592.4300000000001 1367.14,592.4300000000001" fill="#4a576d"/><rect x="1412.71" y="546.86" width="45.57" height="45.57" fill="#132541"/><polygon points="1412.71,546.86 1458.28,592.4300000000001 1412.71,592.4300000000001" fill="#d4d7dd"/><rect x="1367.14" y="592.43" width="45.57" height="45.57" fill="#e5e7ea"/><polygon points="1367.14,592.43 1412.71,592.43 1412.71,638" fill="#509393"/><rect x="1412.71" y="592.43" width="45.57" height="45.57" fill="#6fa6a6"/><polygon points="1412.71,592.43 1458.28,592.43 1412.71,638" fill="#c7ccd2"/><rect x="1458.29" y="546.86" width="91.14" height="91.14" fill="#7aaead"/><rect x="1458.29" y="546.86" width="91.14" height="91.14" fill="#ffffff"/><rect x="1549.43" y="546.86" width="91.14" height="91.14" fill="#7baead"/><polygon points="1549.43,546.86 1640.5700000000002,546.86 1549.43,638" fill="#faf7f1"/><rect x="1640.5714285714284" y="546.8571428571429" width="91.14285714285714" height="91.14285714285714" fill="#ffffff"/><rect x="1640.57" y="546.86" width="45.57" height="45.57" fill="#cfd2d8"/><circle cx="1663.355" cy="569.645" r="22.785" fill="#4f5d72"/><rect x="1686.14" y="546.86" width="45.57" height="45.57" fill="#d4bd90"/><rect x="1686.14" y="546.86" width="45.57" height="45.57" fill="#4b9190"/><rect x="1640.57" y="592.43" width="45.57" height="45.57" fill="#525f74"/><circle cx="1663.355" cy="615.2149999999999" r="22.785" fill="#dcc9a5"/><rect x="1686.14" y="592.43" width="45.57" height="45.57" fill="#adcdcc"/><rect x="1686.14" y="592.43" width="45.57" height="45.57" fill="#f2eadd"/><rect x="1731.7142857142856" y="546.8571428571429" width="91.14285714285714" height="91.14285714285714" fill="#ffffff"/><rect x="1731.71" y="546.86" width="45.57" height="45.57" fill="#5c687c"/><circle cx="1754.4950000000001" cy="569.645" r="22.785" fill="#decdab"/><rect x="1777.29" y="546.86" width="45.57" height="45.57" fill="#468e8d"/><rect x="1777.29" y="546.86" width="45.57" height="45.57" fill="#e9ddc6"/><rect x="1731.71" y="592.43" width="45.57" height="45.57" fill="#9fc4c4"/><circle cx="1754.4950000000001" cy="615.2149999999999" r="22.785" fill="#f4efe4"/><rect x="1777.29" y="592.43" width="45.57" height="45.57" fill="#dbc9a4"/><rect x="1777.29" y="592.43" width="45.57" height="45.57" fill="#5b9a9a"/><rect x="1822.86" y="546.86" width="91.14" height="91.14" fill="#858e9c"/><polygon points="1822.86,546.86 1914,638 1822.86,638" fill="#d9e8e7"/></g></svg>