<svg xmlns="http://www.w3.org/2000/svg" viewBox="0 0 1240 396.798" preserveAspectRatio="xMaxYMax slice"><path fill="#fcfcfc" d="M0 0h1240v396.8H0z"/><path fill="#fcfcfc" d="M0 0h49.6v49.6H0z"/><path fill="#1C1C1C" d="M0 0h24.801v24.801H0z"/><path fill="#FFE11E" d="M0 0h24.801v24.801H0z"/><path fill="#F4F4C8" d="M24.801 0h24.802v24.801H24.8z"/><path fill="#FFE11E" d="M24.801 0h24.802v24.801H24.8z"/><path fill="#8A8847" d="M0 24.801h24.801v24.802H0z"/><path d="M0 49.603A24.801 24.801 0 0024.801 24.8H0" fill="#FFE11E"/><path fill="#F4F4C8" d="M24.801 24.801h24.802v24.802H24.8z"/><path fill="#F4F4C8" d="M24.801 24.801h24.802v24.802H24.8z"/><path fill="#FFE11E" d="M49.599 0h49.599v49.599h-49.6z"/><path fill="#8A8847" d="M49.599 0h49.599v49.599h-49.6z"/><path fill="#fcfcfc" d="M99.2 0h49.6v49.6H99.2z"/><path fill="#1C1C1C" d="M99.201 0h24.802v24.801H99.2z"/><path fill="#FFE11E" d="M99.201 0h24.802v24.801H99.2z"/><path fill="#F4F4C8" d="M123.999 0H148.8v24.801H124z"/><path fill="#FFE11E" d="M123.999 0H148.8v24.801H124zM99.201 24.801h24.802v24.802H99.2z"/><path fill="#8A8847" d="M99.201 24.801h24.802v24.802H99.2z"/><path fill="#8A8847" d="M123.999 24.801H148.8v24.802H124z"/><path d="M123.999 24.801A24.801 24.801 0 01148.8 49.603H124" fill="#FFE11E"/><path fill="#1C1C1C" d="M148.8 0H198.4v49.599H148.8z"/><path d="M148.8 49.599A49.599 49.599 0 01198.4 0L148.8 49.599A49.599 49.599 0 00198.4 0" fill="#FFE11E"/><path fill="#8A8847" d="M198.399 0h49.599v49.599h-49.6z"/><path fill="#8A8847" d="M198.399 0h49.599v49.599h-49.6z"/><path fill="#fcfcfc" d="M248 0h49.6v49.6H248z"/><path fill="#F4F4C8" d="M248.002 0h24.8v24.801h-24.8z"/><path d="M248.002 24.801A24.801 24.801 0 01272.802 0l-24.8 24.801A24.801 24.801 0 00272.802 0" fill="#FFE11E"/><path fill="#8A8847" d="M272.799 0H297.6v24.801H272.8z"/><path d="M272.799 24.801A24.801 24.801 0 01297.6 0v24.801M248.002 24.801h24.8v24.802h-24.8z" fill="#8A8847"/><path d="M248.002 49.603a24.801 24.801 0 0124.8-24.802l-24.8 24.802a24.801 24.801 0 0024.8-24.802" fill="#1C1C1C"/><path fill="#1C1C1C" d="M272.799 24.801H297.6v24.802H272.8z"/><path d="M272.799 24.801A24.801 24.801 0 00297.6 49.603V24.8" fill="#1C1C1C"/><path fill="#fcfcfc" d="M297.6 0h49.6v49.6h-49.6z"/><path fill="#8A8847" d="M297.6 0h24.802v24.801H297.6z"/><path fill="#FFE11E" d="M297.6 0h24.802v24.801H297.6z"/><path fill="#8A8847" d="M322.402 0h24.8v24.801h-24.8z"/><path fill="#1C1C1C" d="M322.402 0h24.8v24.801h-24.8z"/><path fill="#F4F4C8" d="M297.6 24.801h24.802v24.802H297.6z"/><path fill="#F4F4C8" d="M297.6 24.801h24.802v24.802H297.6z"/><path fill="#F4F4C8" d="M322.402 24.801h24.8v24.802h-24.8z"/><path d="M322.402 49.603a24.801 24.801 0 0124.8-24.802l-24.8 24.802a24.801 24.801 0 0024.8-24.802" fill="#1C1C1C"/><path fill="#F4F4C8" d="M347.2 0h49.598v49.599h-49.599z"/><path fill="#FFE11E" d="M347.2 0h49.598v49.599h-49.599zM396.802 0H446.4v49.599h-49.598z"/><path d="M396.802 0A49.599 49.599 0 00446.4 49.599V0M446.4 0H496v49.599h-49.6z" fill="#F4F4C8"/><path d="M446.4 0A49.599 49.599 0 01496 49.599h-49.6" fill="#1C1C1C"/><path fill="#FFE11E" d="M496 0h49.598v49.599h-49.599z"/><path d="M496 49.599A49.599 49.599 0 01545.597 0l-49.599 49.599A49.599 49.599 0 00545.598 0M545.602 0H595.2v49.599h-49.6z" fill="#F4F4C8"/><path fill="#FFE11E" d="M545.602 0H595.2v49.599h-49.6z"/><path fill="#8A8847" d="M595.2 0h49.6v49.599h-49.6z"/><path d="M595.2 0a49.599 49.599 0 0149.6 49.599L595.2 0a49.599 49.599 0 0049.6 49.599" fill="#8A8847"/><path fill="#fcfcfc" d="M644.8 0h49.6v49.6h-49.6z"/><path fill="#F4F4C8" d="M644.8 0h24.8v24.801h-24.8z"/><path d="M644.8 24.801A24.801 24.801 0 01669.6 0l-24.8 24.801A24.801 24.801 0 00669.6 0" fill="#FFE11E"/><path fill="#F4F4C8" d="M669.6 0h24.802v24.801h-24.801z"/><path d="M669.6 0a24.801 24.801 0 0024.802 24.801V0" fill="#8A8847"/><path fill="#1C1C1C" d="M644.8 24.801h24.8v24.802h-24.8z"/><path d="M644.8 24.801a24.801 24.801 0 0024.8 24.802V24.8" fill="#1C1C1C"/><path fill="#FFE11E" d="M669.6 24.801h24.802v24.802h-24.801z"/><path fill="#F4F4C8" d="M669.6 24.801h24.802v24.802h-24.801z"/><path fill="#fcfcfc" d="M694.4 0H744v49.6h-49.6z"/><path fill="#1C1C1C" d="M694.398 0H719.2v24.801h-24.8z"/><path d="M694.398 24.801A24.801 24.801 0 01719.2 0l-24.8 24.801A24.801 24.801 0 00719.198 0" fill="#F4F4C8"/><path fill="#1C1C1C" d="M719.2 0H744v24.801h-24.8z"/><path d="M719.2 0A24.801 24.801 0 01744 24.801h-24.8" fill="#8A8847"/><path fill="#FFE11E" d="M694.398 24.801H719.2v24.802h-24.8z"/><path d="M694.398 24.801A24.801 24.801 0 01719.2 49.603h-24.8" fill="#F4F4C8"/><path fill="#1C1C1C" d="M719.2 24.801H744v24.802h-24.8z"/><path fill="#FFE11E" d="M719.2 24.801H744v24.802h-24.8z"/><path fill="#fcfcfc" d="M744 0h49.6v49.6H744z"/><path fill="#8A8847" d="M744 0h24.802v24.801h-24.801z"/><path d="M744 0a24.801 24.801 0 0024.802 24.801V0" fill="#1C1C1C"/><path fill="#FFE11E" d="M768.798 0H793.6v24.801h-24.802z"/><path fill="#8A8847" d="M768.798 0H793.6v24.801h-24.802z"/><path fill="#F4F4C8" d="M744 24.801h24.802v24.802h-24.801z"/><path d="M744 49.603A24.801 24.801 0 00768.803 24.8h-24.801" fill="#1C1C1C"/><path fill="#F4F4C8" d="M768.798 24.801H793.6v24.802h-24.802z"/><path fill="#8A8847" d="M768.798 24.801H793.6v24.802h-24.802z"/><path fill="#fcfcfc" d="M793.6 0h49.6v49.6h-49.6z"/><path fill="#8A8847" d="M793.6 0h24.8v24.801h-24.8z"/><path d="M793.6 24.801A24.801 24.801 0 01818.4 0l-24.8 24.801A24.801 24.801 0 00818.4 0" fill="#FFE11E"/><path fill="#8A8847" d="M818.4 0h24.802v24.801h-24.801z"/><path fill="#8A8847" d="M818.4 0h24.802v24.801h-24.801zM793.6 24.801h24.8v24.802h-24.8z"/><path fill="#8A8847" d="M793.6 24.801h24.8v24.802h-24.8z"/><path fill="#F4F4C8" d="M818.4 24.801h24.802v24.802h-24.801z"/><path d="M818.4 49.603A24.801 24.801 0 00843.203 24.8h-24.801" fill="#FFE11E"/><path fill="#fcfcfc" d="M843.2 0h49.6v49.6h-49.6z"/><path fill="#1C1C1C" d="M843.198 0H868v24.801h-24.802z"/><path fill="#F4F4C8" d="M843.198 0H868v24.801h-24.802zM868 0h24.8v24.801H868z"/><path d="M868 0a24.801 24.801 0 0124.8 24.801L868 0a24.801 24.801 0 0024.8 24.801" fill="#F4F4C8"/><path fill="#8A8847" d="M843.198 24.801H868v24.802h-24.802z"/><path d="M843.198 49.603A24.801 24.801 0 00868 24.8h-24.802" fill="#FFE11E"/><path fill="#1C1C1C" d="M868 24.801h24.8v24.802H868z"/><path d="M868 49.603A24.801 24.801 0 01892.8 24.8L868 49.603A24.801 24.801 0 00892.8 24.8" fill="#8A8847"/><path fill="#1C1C1C" d="M892.8 0h49.6v49.599h-49.6z"/><path fill="#FFE11E" d="M892.8 0h49.6v49.599h-49.6z"/><path fill="#fcfcfc" d="M942.4 0H992v49.6h-49.6z"/><path fill="#F4F4C8" d="M942.4 0H967.2v24.801H942.4z"/><path d="M942.4 24.801A24.801 24.801 0 01967.2 0v24.801M967.201 0h24.801v24.801h-24.801z" fill="#FFE11E"/><path fill="#8A8847" d="M967.201 0h24.801v24.801h-24.801z"/><path fill="#1C1C1C" d="M942.4 24.801H967.2v24.802H942.4z"/><path fill="#F4F4C8" d="M942.4 24.801H967.2v24.802H942.4zM967.201 24.801h24.801v24.802h-24.801z"/><path d="M967.201 24.801a24.801 24.801 0 0124.801 24.802h-24.801" fill="#8A8847"/><path fill="#FFE11E" d="M991.998 0h49.6v49.599h-49.6z"/><path d="M991.998 49.599A49.599 49.599 0 011041.598 0v49.599" fill="#8A8847"/><path fill="#fcfcfc" d="M1041.6 0h49.6v49.6h-49.6z"/><path fill="#8A8847" d="M1041.601 0h24.801v24.801h-24.8z"/><path d="M1041.601 24.801A24.801 24.801 0 001066.402 0h-24.8" fill="#8A8847"/><path fill="#FFE11E" d="M1066.399 0h24.8v24.801h-24.8z"/><path d="M1066.399 24.801A24.801 24.801 0 001091.199 0h-24.8M1041.601 24.801h24.801v24.802h-24.8z" fill="#F4F4C8"/><path d="M1041.601 24.801a24.801 24.801 0 0024.801 24.802V24.8" fill="#1C1C1C"/><path fill="#8A8847" d="M1066.399 24.801h24.8v24.802h-24.8z"/><path fill="#F4F4C8" d="M1066.399 24.801h24.8v24.802h-24.8z"/><path fill="#fcfcfc" d="M1091.2 0h49.6v49.6h-49.6z"/><path fill="#FFE11E" d="M1091.2 0H1116v24.801H1091.2z"/><path fill="#1C1C1C" d="M1091.2 0H1116v24.801H1091.2zM1116.001 0h24.801v24.801h-24.8z"/><path d="M1116.001 24.801A24.801 24.801 0 011140.802 0v24.801" fill="#1C1C1C"/><path fill="#F4F4C8" d="M1091.2 24.801H1116v24.802H1091.2z"/><path fill="#1C1C1C" d="M1091.2 24.801H1116v24.802H1091.2z"/><path fill="#FFE11E" d="M1116.001 24.801h24.801v24.802h-24.8z"/><path fill="#FFE11E" d="M1116.001 24.801h24.801v24.802h-24.8z"/><path fill="#fcfcfc" d="M1140.8 0h49.6v49.6h-49.6z"/><path fill="#FFE11E" d="M1140.799 0h24.8v24.801h-24.8z"/><path fill="#1C1C1C" d="M1140.799 0h24.8v24.801h-24.8z"/><path fill="#8A8847" d="M1165.6 0h24.801v24.801H1165.6z"/><path fill="#FFE11E" d="M1165.6 0h24.801v24.801H1165.6z"/><path fill="#8A8847" d="M1140.799 24.801h24.8v24.802h-24.8z"/><path fill="#1C1C1C" d="M1140.799 24.801h24.8v24.802h-24.8z"/><path fill="#FFE11E" d="M1165.6 24.801h24.801v24.802H1165.6z"/><path d="M1165.6 49.603A24.801 24.801 0 011190.4 24.8L1165.6 49.603A24.801 24.801 0 001190.4 24.8" fill="#F4F4C8"/><path fill="#8A8847" d="M1190.401 0H1240v49.599h-49.599z"/><path d="M1190.401 49.599A49.599 49.599 0 001240 0h-49.599" fill="#F4F4C8"/><path fill="#fcfcfc" d="M0 49.6h49.6v49.6H0z"/><path fill="#8A8847" d="M0 49.599h24.801V74.4H0z"/><path d="M0 74.4A24.801 24.801 0 0024.801 49.6H0" fill="#8A8847"/><path fill="#8A8847" d="M24.801 49.599h24.802V74.4H24.8z"/><path d="M24.801 49.599A24.801 24.801 0 0149.603 74.4H24.8" fill="#1C1C1C"/><path fill="#FFE11E" d="M0 74.4h24.801v24.801H0z"/><path fill="#8A8847" d="M0 74.4h24.801v24.801H0z"/><path fill="#F4F4C8" d="M24.801 74.4h24.802v24.801H24.8z"/><path d="M24.801 99.201a24.801 24.801 0 0024.802-24.8H24.8" fill="#1C1C1C"/><path fill="#F4F4C8" d="M49.599 49.599h49.599v49.599h-49.6z"/><path d="M49.599 99.198a49.599 49.599 0 0149.599-49.6l-49.6 49.6a49.599 49.599 0 0049.6-49.6" fill="#8A8847"/><path fill="#fcfcfc" d="M99.2 49.6h49.6v49.6H99.2z"/><path fill="#F4F4C8" d="M99.201 49.599h24.802V74.4H99.2z"/><path fill="#1C1C1C" d="M99.201 49.599h24.802V74.4H99.2z"/><path fill="#FFE11E" d="M123.999 49.599H148.8V74.4H124z"/><path fill="#1C1C1C" d="M123.999 49.599H148.8V74.4H124z"/><path fill="#FFE11E" d="M99.201 74.4h24.802v24.801H99.2z"/><path fill="#FFE11E" d="M99.201 74.4h24.802v24.801H99.2z"/><path fill="#F4F4C8" d="M123.999 74.4H148.8v24.801H124z"/><path fill="#1C1C1C" d="M123.999 74.4H148.8v24.801H124z"/><path fill="#F4F4C8" d="M148.8 49.599H198.4v49.599H148.8z"/><path d="M148.8 99.198a49.599 49.599 0 0149.599-49.6l-49.599 49.6a49.599 49.599 0 0049.599-49.6" fill="#8A8847"/><path fill="#8A8847" d="M198.399 49.599h49.599v49.599h-49.6z"/><path fill="#F4F4C8" d="M198.399 49.599h49.599v49.599h-49.6zM248.002 49.599H297.6v49.599h-49.598z"/><path d="M248.002 99.198a49.599 49.599 0 0149.598-49.6v49.6" fill="#F4F4C8"/><path fill="#fcfcfc" d="M297.6 49.6h49.6v49.6h-49.6z"/><path fill="#F4F4C8" d="M297.6 49.599h24.802V74.4H297.6z"/><path d="M297.6 74.4A24.801 24.801 0 01322.402 49.6V74.4M322.402 49.599h24.8V74.4h-24.8z" fill="#FFE11E"/><path d="M322.402 74.4a24.801 24.801 0 0024.8-24.801h-24.8" fill="#F4F4C8"/><path fill="#8A8847" d="M297.6 74.4h24.802v24.801H297.6z"/><path fill="#FFE11E" d="M297.6 74.4h24.802v24.801H297.6z"/><path fill="#8A8847" d="M322.402 74.4h24.8v24.801h-24.8z"/><path d="M322.402 99.201a24.801 24.801 0 0024.8-24.8h-24.8" fill="#F4F4C8"/><path fill="#fcfcfc" d="M347.2 49.6h49.6v49.6h-49.6z"/><path fill="#1C1C1C" d="M347.2 49.599H372V74.4h-24.8z"/><path fill="#1C1C1C" d="M347.2 49.599H372V74.4h-24.8zM372 49.599h24.802V74.4H372z"/><path fill="#FFE11E" d="M372 49.599h24.802V74.4H372z"/><path fill="#8A8847" d="M347.2 74.4H372v24.801h-24.8z"/><path d="M347.2 99.201a24.801 24.801 0 0024.8-24.8h-24.8" fill="#1C1C1C"/><path fill="#F4F4C8" d="M372 74.4h24.802v24.801H372z"/><path d="M372 74.4a24.801 24.801 0 0024.802 24.801v-24.8" fill="#1C1C1C"/><path fill="#1C1C1C" d="M396.802 49.599H446.4v49.599h-49.598z"/><path fill="#F4F4C8" d="M396.802 49.599H446.4v49.599h-49.598z"/><path fill="#1C1C1C" d="M446.4 49.599H496v49.599h-49.6z"/><path fill="#8A8847" d="M446.4 49.599H496v49.599h-49.6z"/><path fill="#fcfcfc" d="M496 49.6h49.6v49.6H496z"/><path fill="#1C1C1C" d="M496 49.599h24.8V74.4H496z"/><path fill="#F4F4C8" d="M496 49.599h24.8V74.4H496z"/><path fill="#FFE11E" d="M520.8 49.599h24.802V74.4H520.8z"/><path fill="#8A8847" d="M520.8 49.599h24.802V74.4H520.8zM496 74.4h24.8v24.801H496z"/><path fill="#F4F4C8" d="M496 74.4h24.8v24.801H496z"/><path fill="#FFE11E" d="M520.8 74.4h24.802v24.801H520.8z"/><path d="M520.8 74.4a24.801 24.801 0 0124.802 24.801H520.8" fill="#8A8847"/><path fill="#F4F4C8" d="M545.602 49.599H595.2v49.599h-49.6z"/><path d="M545.602 99.198a49.599 49.599 0 0049.599-49.6h-49.6" fill="#FFE11E"/><path fill="#F4F4C8" d="M595.2 49.599h49.6v49.599h-49.6z"/><path d="M595.2 49.599a49.599 49.599 0 0149.6 49.599h-49.6" fill="#1C1C1C"/><path fill="#1C1C1C" d="M644.8 49.599h49.598v49.599H644.8z"/><path d="M644.8 99.198a49.599 49.599 0 0049.598-49.6H644.8" fill="#8A8847"/><path fill="#F4F4C8" d="M694.398 49.599h49.599v49.599h-49.599z"/><path d="M694.398 49.599a49.599 49.599 0 0149.599 49.599l-49.599-49.6a49.599 49.599 0 0049.599 49.6" fill="#FFE11E"/><path fill="#fcfcfc" d="M744 49.6h49.6v49.6H744z"/><path fill="#8A8847" d="M744 49.599h24.802V74.4h-24.801z"/><path fill="#FFE11E" d="M744 49.599h24.802V74.4h-24.801z"/><path fill="#1C1C1C" d="M768.798 49.599H793.6V74.4h-24.802z"/><path d="M768.798 49.599A24.801 24.801 0 01793.6 74.4L768.798 49.6A24.801 24.801 0 00793.6 74.4" fill="#8A8847"/><path fill="#FFE11E" d="M744 74.4h24.802v24.801h-24.801z"/><path fill="#F4F4C8" d="M744 74.4h24.802v24.801h-24.801z"/><path fill="#FFE11E" d="M768.798 74.4H793.6v24.801h-24.802z"/><path d="M768.798 99.201a24.801 24.801 0 0024.802-24.8h-24.802" fill="#F4F4C8"/><path fill="#fcfcfc" d="M793.6 49.6h49.6v49.6h-49.6z"/><path fill="#FFE11E" d="M793.6 49.599h24.8V74.4h-24.8z"/><path fill="#1C1C1C" d="M793.6 49.599h24.8V74.4h-24.8z"/><path fill="#F4F4C8" d="M818.4 49.599h24.802V74.4h-24.801z"/><path fill="#1C1C1C" d="M818.4 49.599h24.802V74.4h-24.801zM793.6 74.4h24.8v24.801h-24.8z"/><path d="M793.6 74.4a24.801 24.801 0 0124.8 24.801h-24.8" fill="#8A8847"/><path fill="#F4F4C8" d="M818.4 74.4h24.802v24.801h-24.801z"/><path d="M818.4 99.201a24.801 24.801 0 0124.802-24.8v24.8" fill="#1C1C1C"/><path fill="#1C1C1C" d="M843.198 49.599h49.6v49.599h-49.6z"/><path fill="#F4F4C8" d="M843.198 49.599h49.6v49.599h-49.6z"/><path fill="#fcfcfc" d="M892.8 49.6h49.6v49.6h-49.6z"/><path fill="#FFE11E" d="M892.8 49.599h24.802V74.4h-24.801z"/><path d="M892.8 74.4A24.801 24.801 0 01917.603 49.6V74.4" fill="#F4F4C8"/><path fill="#8A8847" d="M917.598 49.599H942.4V74.4h-24.802z"/><path fill="#FFE11E" d="M917.598 49.599H942.4V74.4h-24.802zM892.8 74.4h24.802v24.801h-24.801z"/><path fill="#1C1C1C" d="M892.8 74.4h24.802v24.801h-24.801z"/><path fill="#FFE11E" d="M917.598 74.4H942.4v24.801h-24.802z"/><path d="M917.598 99.201a24.801 24.801 0 0124.802-24.8l-24.802 24.8a24.801 24.801 0 0024.802-24.8" fill="#F4F4C8"/><path fill="#1C1C1C" d="M942.4 49.599h49.598v49.599H942.4z"/><path d="M942.4 49.599a49.599 49.599 0 0149.598 49.599l-49.598-49.6a49.599 49.599 0 0049.598 49.6" fill="#FFE11E"/><path fill="#8A8847" d="M991.998 49.599h49.6v49.599h-49.6z"/><path d="M991.998 49.599a49.599 49.599 0 0149.6 49.599l-49.6-49.6a49.599 49.599 0 0049.6 49.6" fill="#1C1C1C"/><path fill="#FFE11E" d="M1041.601 49.599h49.599v49.599H1041.6z"/><path fill="#8A8847" d="M1041.601 49.599h49.599v49.599H1041.6z"/><path fill="#fcfcfc" d="M1091.2 49.6h49.6v49.6h-49.6z"/><path fill="#F4F4C8" d="M1091.2 49.599H1116V74.4H1091.2z"/><path d="M1091.2 74.4A24.801 24.801 0 011116 49.6V74.4" fill="#F4F4C8"/><path fill="#FFE11E" d="M1116.001 49.599h24.801V74.4h-24.8z"/><path fill="#F4F4C8" d="M1116.001 49.599h24.801V74.4h-24.8z"/><path fill="#1C1C1C" d="M1091.2 74.4H1116v24.801H1091.2z"/><path fill="#8A8847" d="M1091.2 74.4H1116v24.801H1091.2zM1116.001 74.4h24.801v24.801h-24.8z"/><path d="M1116.001 74.4a24.801 24.801 0 0024.801 24.801v-24.8" fill="#8A8847"/><path fill="#fcfcfc" d="M1140.8 49.6h49.6v49.6h-49.6z"/><path fill="#FFE11E" d="M1140.799 49.599h24.8V74.4h-24.8z"/><path fill="#FFE11E" d="M1140.799 49.599h24.8V74.4h-24.8z"/><path fill="#8A8847" d="M1165.6 49.599h24.801V74.4H1165.6z"/><path fill="#F4F4C8" d="M1165.6 49.599h24.801V74.4H1165.6z"/><path fill="#8A8847" d="M1140.799 74.4h24.8v24.801h-24.8z"/><path fill="#F4F4C8" d="M1140.799 74.4h24.8v24.801h-24.8z"/><path fill="#8A8847" d="M1165.6 74.4h24.801v24.801H1165.6z"/><path d="M1165.6 99.201a24.801 24.801 0 0124.801-24.8v24.8" fill="#1C1C1C"/><path fill="#fcfcfc" d="M1190.4 49.6h49.6v49.6h-49.6z"/><path fill="#F4F4C8" d="M1190.401 49.599h24.802V74.4H1190.4z"/><path fill="#1C1C1C" d="M1190.401 49.599h24.802V74.4H1190.4z"/><path fill="#1C1C1C" d="M1215.199 49.599H1240V74.4h-24.801z"/><path fill="#FFE11E" d="M1215.199 49.599H1240V74.4h-24.801z"/><path fill="#F4F4C8" d="M1190.401 74.4h24.802v24.801H1190.4z"/><path d="M1190.401 74.4a24.801 24.801 0 0024.802 24.801v-24.8" fill="#1C1C1C"/><path fill="#8A8847" d="M1215.199 74.4H1240v24.801h-24.801z"/><path d="M1215.199 99.201a24.801 24.801 0 0024.801-24.8h-24.801" fill="#F4F4C8"/><path fill="#fcfcfc" d="M0 99.2h49.6v49.6H0z"/><path fill="#8A8847" d="M0 99.201h24.801v24.802H0z"/><path d="M0 99.201a24.801 24.801 0 0024.801 24.802V99.2" fill="#F4F4C8"/><path fill="#F4F4C8" d="M24.801 99.201h24.802v24.802H24.8z"/><path fill="#FFE11E" d="M24.801 99.201h24.802v24.802H24.8z"/><path fill="#1C1C1C" d="M0 123.999h24.801V148.8H0z"/><path fill="#1C1C1C" d="M0 123.999h24.801V148.8H0z"/><path fill="#1C1C1C" d="M24.801 123.999h24.802V148.8H24.8z"/><path fill="#F4F4C8" d="M24.801 123.999h24.802V148.8H24.8z"/><path fill="#fcfcfc" d="M49.6 99.2h49.6v49.6H49.6z"/><path fill="#8A8847" d="M49.599 99.201H74.4v24.802H49.6z"/><path fill="#FFE11E" d="M49.599 99.201H74.4v24.802H49.6z"/><path fill="#1C1C1C" d="M74.4 99.201h24.801v24.802h-24.8z"/><path fill="#FFE11E" d="M74.4 99.201h24.801v24.802h-24.8z"/><path fill="#8A8847" d="M49.599 123.999H74.4V148.8H49.6z"/><path d="M49.599 148.8A24.801 24.801 0 0174.4 124L49.6 148.8A24.801 24.801 0 0074.4 124M74.4 123.999h24.801V148.8h-24.8z" fill="#1C1C1C"/><path fill="#8A8847" d="M74.4 123.999h24.801V148.8h-24.8z"/><path fill="#fcfcfc" d="M99.2 99.2h49.6v49.6H99.2z"/><path fill="#FFE11E" d="M99.201 99.201h24.802v24.802H99.2z"/><path fill="#FFE11E" d="M99.201 99.201h24.802v24.802H99.2z"/><path fill="#8A8847" d="M123.999 99.201H148.8v24.802H124z"/><path fill="#FFE11E" d="M123.999 99.201H148.8v24.802H124z"/><path fill="#FFE11E" d="M99.201 123.999h24.802V148.8H99.2z"/><path fill="#8A8847" d="M99.201 123.999h24.802V148.8H99.2z"/><path fill="#8A8847" d="M123.999 123.999H148.8V148.8H124z"/><path fill="#FFE11E" d="M123.999 123.999H148.8V148.8H124zM148.8 99.201H198.4v49.6H148.8z"/><path d="M148.8 99.201a49.599 49.599 0 0049.599 49.6V99.2" fill="#F4F4C8"/><path fill="#fcfcfc" d="M198.4 99.2H248v49.6h-49.6z"/><path fill="#1C1C1C" d="M198.399 99.201H223.2v24.802H198.4z"/><path fill="#F4F4C8" d="M198.399 99.201H223.2v24.802H198.4z"/><path fill="#1C1C1C" d="M223.2 99.201h24.802v24.802H223.2z"/><path d="M223.2 124.003A24.801 24.801 0 01248.002 99.2v24.802" fill="#F4F4C8"/><path fill="#FFE11E" d="M198.399 123.999H223.2V148.8H198.4z"/><path fill="#FFE11E" d="M198.399 123.999H223.2V148.8H198.4z"/><path fill="#F4F4C8" d="M223.2 123.999h24.802V148.8H223.2z"/><path fill="#1C1C1C" d="M223.2 123.999h24.802V148.8H223.2z"/><path fill="#8A8847" d="M248.002 99.201H297.6v49.6h-49.598z"/><path d="M248.002 99.201a49.599 49.599 0 0149.598 49.6l-49.598-49.6a49.599 49.599 0 0049.598 49.6" fill="#1C1C1C"/><path fill="#1C1C1C" d="M297.6 99.201h49.6v49.6h-49.6z"/><path fill="#F4F4C8" d="M297.6 99.201h49.6v49.6h-49.6z"/><path fill="#fcfcfc" d="M347.2 99.2h49.6v49.6h-49.6z"/><path fill="#F4F4C8" d="M347.2 99.201H372v24.802h-24.8z"/><path d="M347.2 124.003A24.801 24.801 0 00372 99.2h-24.8" fill="#FFE11E"/><path fill="#8A8847" d="M372 99.201h24.802v24.802H372z"/><path fill="#1C1C1C" d="M372 99.201h24.802v24.802H372z"/><path fill="#F4F4C8" d="M347.2 123.999H372V148.8h-24.8z"/><path fill="#1C1C1C" d="M347.2 123.999H372V148.8h-24.8zM372 123.999h24.802V148.8H372z"/><path d="M372 148.8A24.801 24.801 0 01396.802 124V148.8" fill="#1C1C1C"/><path fill="#fcfcfc" d="M396.8 99.2h49.6v49.6h-49.6z"/><path fill="#F4F4C8" d="M396.802 99.201h24.801v24.802h-24.801z"/><path fill="#8A8847" d="M396.802 99.201h24.801v24.802h-24.801z"/><path fill="#FFE11E" d="M421.6 99.201h24.8v24.802h-24.8z"/><path fill="#1C1C1C" d="M421.6 99.201h24.8v24.802h-24.8z"/><path fill="#FFE11E" d="M396.802 123.999h24.801V148.8h-24.801z"/><path d="M396.802 123.999a24.801 24.801 0 0124.801 24.801L396.802 124a24.801 24.801 0 0024.801 24.801" fill="#8A8847"/><path fill="#8A8847" d="M421.6 123.999h24.8V148.8h-24.8z"/><path fill="#1C1C1C" d="M421.6 123.999h24.8V148.8h-24.8z"/><path fill="#fcfcfc" d="M446.4 99.2H496v49.6h-49.6z"/><path fill="#F4F4C8" d="M446.4 99.201h24.802v24.802H446.4z"/><path d="M446.4 99.201a24.801 24.801 0 0124.802 24.802H446.4" fill="#1C1C1C"/><path fill="#8A8847" d="M471.202 99.201h24.801v24.802h-24.801z"/><path fill="#8A8847" d="M471.202 99.201h24.801v24.802h-24.801z"/><path fill="#1C1C1C" d="M446.4 123.999h24.802V148.8H446.4z"/><path fill="#8A8847" d="M446.4 123.999h24.802V148.8H446.4z"/><path fill="#F4F4C8" d="M471.202 123.999h24.801V148.8h-24.801z"/><path d="M471.202 123.999a24.801 24.801 0 0124.801 24.801L471.202 124a24.801 24.801 0 0024.801 24.801" fill="#FFE11E"/><path fill="#8A8847" d="M496 99.201h49.598v49.6h-49.599z"/><path fill="#8A8847" d="M496 99.201h49.598v49.6h-49.599z"/><path fill="#fcfcfc" d="M545.6 99.2h49.6v49.6h-49.6z"/><path fill="#8A8847" d="M545.602 99.201h24.801v24.802h-24.801z"/><path d="M545.602 99.201a24.801 24.801 0 0024.801 24.802V99.2" fill="#F4F4C8"/><path fill="#1C1C1C" d="M570.4 99.201h24.8v24.802h-24.8z"/><path fill="#8A8847" d="M570.4 99.201h24.8v24.802h-24.8z"/><path fill="#F4F4C8" d="M545.602 123.999h24.801V148.8h-24.801z"/><path fill="#8A8847" d="M545.602 123.999h24.801V148.8h-24.801z"/><path fill="#8A8847" d="M570.4 123.999h24.8V148.8h-24.8z"/><path fill="#FFE11E" d="M570.4 123.999h24.8V148.8h-24.8zM595.2 99.201h49.6v49.6h-49.6z"/><path fill="#F4F4C8" d="M595.2 99.201h49.6v49.6h-49.6z"/><path fill="#fcfcfc" d="M644.8 99.2h49.6v49.6h-49.6z"/><path fill="#F4F4C8" d="M644.8 99.201h24.8v24.802h-24.8z"/><path fill="#8A8847" d="M644.8 99.201h24.8v24.802h-24.8z"/><path fill="#1C1C1C" d="M669.6 99.201h24.802v24.802h-24.801z"/><path fill="#F4F4C8" d="M669.6 99.201h24.802v24.802h-24.801zM644.8 123.999h24.8V148.8h-24.8z"/><path d="M644.8 123.999a24.801 24.801 0 0124.8 24.801L644.8 124a24.801 24.801 0 0024.8 24.801M669.6 123.999h24.802V148.8h-24.801z" fill="#1C1C1C"/><path d="M669.6 123.999a24.801 24.801 0 0124.802 24.801h-24.801" fill="#F4F4C8"/><path fill="#fcfcfc" d="M694.4 99.2H744v49.6h-49.6z"/><path fill="#FFE11E" d="M694.398 99.201H719.2v24.802h-24.8z"/><path fill="#1C1C1C" d="M694.398 99.201H719.2v24.802h-24.8z"/><path fill="#FFE11E" d="M719.2 99.201H744v24.802h-24.8z"/><path d="M719.2 99.201a24.801 24.801 0 0024.8 24.802V99.2" fill="#1C1C1C"/><path fill="#FFE11E" d="M694.398 123.999H719.2V148.8h-24.8z"/><path fill="#F4F4C8" d="M694.398 123.999H719.2V148.8h-24.8zM719.2 123.999H744V148.8h-24.8z"/><path fill="#F4F4C8" d="M719.2 123.999H744V148.8h-24.8zM744 99.201h49.6v49.6H744z"/><path d="M744 148.8a49.599 49.599 0 0149.6-49.599l-49.6 49.6a49.599 49.599 0 0049.6-49.6" fill="#FFE11E"/><path fill="#fcfcfc" d="M793.6 99.2h49.6v49.6h-49.6z"/><path fill="#1C1C1C" d="M793.6 99.201h24.8v24.802h-24.8z"/><path d="M793.6 124.003A24.801 24.801 0 01818.4 99.2v24.802M818.4 99.201h24.802v24.802h-24.801z" fill="#1C1C1C"/><path fill="#1C1C1C" d="M818.4 99.201h24.802v24.802h-24.801zM793.6 123.999h24.8V148.8h-24.8z"/><path d="M793.6 123.999a24.801 24.801 0 0124.8 24.801L793.6 124a24.801 24.801 0 0024.8 24.801" fill="#8A8847"/><path fill="#FFE11E" d="M818.4 123.999h24.802V148.8h-24.801z"/><path d="M818.4 123.999a24.801 24.801 0 0124.802 24.801L818.401 124a24.801 24.801 0 0024.801 24.801" fill="#F4F4C8"/><path fill="#1C1C1C" d="M843.198 99.201h49.6v49.6h-49.6z"/><path fill="#FFE11E" d="M843.198 99.201h49.6v49.6h-49.6z"/><path fill="#fcfcfc" d="M892.8 99.2h49.6v49.6h-49.6z"/><path fill="#FFE11E" d="M892.8 99.201h24.802v24.802h-24.801z"/><path d="M892.8 124.003A24.801 24.801 0 01917.603 99.2v24.802" fill="#F4F4C8"/><path fill="#FFE11E" d="M917.598 99.201H942.4v24.802h-24.802z"/><path d="M917.598 124.003A24.801 24.801 0 01942.4 99.2v24.802" fill="#FFE11E"/><path fill="#FFE11E" d="M892.8 123.999h24.802V148.8h-24.801z"/><path fill="#F4F4C8" d="M892.8 123.999h24.802V148.8h-24.801z"/><path fill="#F4F4C8" d="M917.598 123.999H942.4V148.8h-24.802z"/><path fill="#1C1C1C" d="M917.598 123.999H942.4V148.8h-24.802z"/><path fill="#F4F4C8" d="M942.4 99.201h49.598v49.6H942.4z"/><path d="M942.4 148.8a49.599 49.599 0 0049.598-49.599H942.4" fill="#8A8847"/><path fill="#fcfcfc" d="M992 99.2h49.6v49.6H992z"/><path fill="#1C1C1C" d="M991.998 99.201h24.802v24.802h-24.802z"/><path d="M991.998 99.201a24.801 24.801 0 0024.802 24.802V99.2" fill="#1C1C1C"/><path fill="#1C1C1C" d="M1016.8 99.201h24.801v24.802H1016.8z"/><path d="M1016.8 124.003A24.801 24.801 0 001041.6 99.2H1016.8" fill="#FFE11E"/><path fill="#1C1C1C" d="M991.998 123.999h24.802V148.8h-24.802z"/><path d="M991.998 148.8A24.801 24.801 0 011016.8 124V148.8" fill="#F4F4C8"/><path fill="#FFE11E" d="M1016.8 123.999h24.801V148.8H1016.8z"/><path fill="#F4F4C8" d="M1016.8 123.999h24.801V148.8H1016.8z"/><path fill="#fcfcfc" d="M1041.6 99.2h49.6v49.6h-49.6z"/><path fill="#FFE11E" d="M1041.601 99.201h24.801v24.802h-24.8z"/><path fill="#8A8847" d="M1041.601 99.201h24.801v24.802h-24.8z"/><path fill="#1C1C1C" d="M1066.399 99.201h24.8v24.802h-24.8z"/><path fill="#F4F4C8" d="M1066.399 99.201h24.8v24.802h-24.8z"/><path fill="#F4F4C8" d="M1041.601 123.999h24.801V148.8h-24.8z"/><path d="M1041.601 123.999a24.801 24.801 0 0024.801 24.801V124" fill="#1C1C1C"/><path fill="#FFE11E" d="M1066.399 123.999h24.8V148.8h-24.8z"/><path fill="#FFE11E" d="M1066.399 123.999h24.8V148.8h-24.8z"/><path fill="#8A8847" d="M1091.2 99.201h49.599v49.6h-49.6z"/><path d="M1091.2 99.201a49.599 49.599 0 0049.599 49.6V99.2" fill="#FFE11E"/><path fill="#1C1C1C" d="M1140.799 99.201h49.598v49.6H1140.8z"/><path fill="#FFE11E" d="M1140.799 99.201h49.598v49.6H1140.8z"/><path fill="#fcfcfc" d="M1190.4 99.2h49.6v49.6h-49.6z"/><path fill="#1C1C1C" d="M1190.401 99.201h24.802v24.802H1190.4z"/><path d="M1190.401 99.201a24.801 24.801 0 0024.802 24.802V99.2" fill="#FFE11E"/><path fill="#FFE11E" d="M1215.199 99.201H1240v24.802h-24.801z"/><path d="M1215.199 124.003A24.801 24.801 0 011240 99.2l-24.801 24.802A24.801 24.801 0 001240 99.2" fill="#F4F4C8"/><path fill="#F4F4C8" d="M1190.401 123.999h24.802V148.8H1190.4z"/><path fill="#FFE11E" d="M1190.401 123.999h24.802V148.8H1190.4z"/><path fill="#1C1C1C" d="M1215.199 123.999H1240V148.8h-24.801z"/><path d="M1215.199 148.8A24.801 24.801 0 001240 124h-24.801" fill="#8A8847"/><path fill="#fcfcfc" d="M0 148.8h49.6v49.6H0z"/><path fill="#8A8847" d="M0 148.8h24.801v24.801H0z"/><path fill="#FFE11E" d="M0 148.8h24.801v24.801H0z"/><path fill="#FFE11E" d="M24.801 148.8h24.802v24.801H24.8z"/><path d="M24.801 173.601a24.801 24.801 0 0024.802-24.8H24.8" fill="#1C1C1C"/><path fill="#FFE11E" d="M0 173.601h24.801v24.802H0z"/><path d="M0 173.601a24.801 24.801 0 0124.801 24.802H0" fill="#F4F4C8"/><path fill="#1C1C1C" d="M24.801 173.601h24.802v24.802H24.8z"/><path fill="#F4F4C8" d="M24.801 173.601h24.802v24.802H24.8z"/><path fill="#1C1C1C" d="M49.599 148.8h49.599V198.4h-49.6z"/><path d="M49.599 198.399A49.599 49.599 0 0099.198 148.8h-49.6" fill="#1C1C1C"/><path fill="#fcfcfc" d="M99.2 148.8h49.6v49.6H99.2z"/><path fill="#1C1C1C" d="M99.201 148.8h24.802v24.801H99.2z"/><path d="M99.201 173.601a24.801 24.801 0 0124.802-24.8L99.2 173.6a24.801 24.801 0 0024.802-24.8" fill="#F4F4C8"/><path fill="#8A8847" d="M123.999 148.8H148.8v24.801H124z"/><path fill="#8A8847" d="M123.999 148.8H148.8v24.801H124z"/><path fill="#FFE11E" d="M99.201 173.601h24.802v24.802H99.2z"/><path fill="#1C1C1C" d="M99.201 173.601h24.802v24.802H99.2z"/><path fill="#F4F4C8" d="M123.999 173.601H148.8v24.802H124z"/><path d="M123.999 198.403A24.801 24.801 0 01148.8 173.6L124 198.403A24.801 24.801 0 00148.8 173.6" fill="#8A8847"/><path fill="#F4F4C8" d="M148.8 148.8H198.4V198.4H148.8z"/><path fill="#FFE11E" d="M148.8 148.8H198.4V198.4H148.8z"/><path fill="#fcfcfc" d="M198.4 148.8H248v49.6h-49.6z"/><path fill="#FFE11E" d="M198.399 148.8H223.2v24.801H198.4z"/><path d="M198.399 173.601a24.801 24.801 0 0124.801-24.8L198.4 173.6a24.801 24.801 0 0024.801-24.8" fill="#FFE11E"/><path fill="#8A8847" d="M223.2 148.8h24.802v24.801H223.2z"/><path d="M223.2 173.601a24.801 24.801 0 0124.802-24.8v24.8" fill="#F4F4C8"/><path fill="#FFE11E" d="M198.399 173.601H223.2v24.802H198.4z"/><path d="M198.399 173.601a24.801 24.801 0 0124.801 24.802L198.4 173.6a24.801 24.801 0 0024.801 24.802" fill="#F4F4C8"/><path fill="#1C1C1C" d="M223.2 173.601h24.802v24.802H223.2z"/><path fill="#1C1C1C" d="M223.2 173.601h24.802v24.802H223.2z"/><path fill="#fcfcfc" d="M248 148.8h49.6v49.6H248z"/><path fill="#FFE11E" d="M248.002 148.8h24.8v24.801h-24.8z"/><path fill="#FFE11E" d="M248.002 148.8h24.8v24.801h-24.8z"/><path fill="#FFE11E" d="M272.799 148.8H297.6v24.801H272.8z"/><path fill="#F4F4C8" d="M272.799 148.8H297.6v24.801H272.8z"/><path fill="#8A8847" d="M248.002 173.601h24.8v24.802h-24.8z"/><path fill="#FFE11E" d="M248.002 173.601h24.8v24.802h-24.8z"/><path fill="#8A8847" d="M272.799 173.601H297.6v24.802H272.8z"/><path d="M272.799 198.403A24.801 24.801 0 01297.6 173.6v24.802" fill="#FFE11E"/><path fill="#8A8847" d="M297.6 148.8h49.6V198.4h-49.6z"/><path d="M297.6 198.399a49.599 49.599 0 0149.6-49.599V198.4" fill="#F4F4C8"/><path fill="#8A8847" d="M347.2 148.8h49.598V198.4h-49.599z"/><path fill="#1C1C1C" d="M347.2 148.8h49.598V198.4h-49.599zM396.802 148.8H446.4V198.4h-49.598z"/><path d="M396.802 148.8A49.599 49.599 0 00446.4 198.4V148.8" fill="#8A8847"/><path fill="#fcfcfc" d="M446.4 148.8H496v49.6h-49.6z"/><path fill="#F4F4C8" d="M446.4 148.8h24.802v24.801H446.4z"/><path fill="#1C1C1C" d="M446.4 148.8h24.802v24.801H446.4z"/><path fill="#8A8847" d="M471.202 148.8h24.801v24.801h-24.801z"/><path fill="#FFE11E" d="M471.202 148.8h24.801v24.801h-24.801zM446.4 173.601h24.802v24.802H446.4z"/><path d="M446.4 173.601a24.801 24.801 0 0124.802 24.802H446.4" fill="#F4F4C8"/><path fill="#1C1C1C" d="M471.202 173.601h24.801v24.802h-24.801z"/><path fill="#1C1C1C" d="M471.202 173.601h24.801v24.802h-24.801z"/><path fill="#F4F4C8" d="M496 148.8h49.598V198.4h-49.599z"/><path d="M496 148.8a49.599 49.599 0 0049.598 49.599V148.8" fill="#1C1C1C"/><path fill="#8A8847" d="M545.602 148.8H595.2V198.4h-49.6z"/><path fill="#8A8847" d="M545.602 148.8H595.2V198.4h-49.6z"/><path fill="#fcfcfc" d="M595.2 148.8h49.6v49.6h-49.6z"/><path fill="#F4F4C8" d="M595.2 148.8h24.802v24.801H595.2z"/><path d="M595.2 148.8a24.801 24.801 0 0124.802 24.801H595.2" fill="#8A8847"/><path fill="#8A8847" d="M620.002 148.8h24.801v24.801h-24.801z"/><path d="M620.002 148.8a24.801 24.801 0 0024.801 24.801v-24.8" fill="#8A8847"/><path fill="#1C1C1C" d="M595.2 173.601h24.802v24.802H595.2z"/><path d="M595.2 198.403a24.801 24.801 0 0124.802-24.802v24.802" fill="#F4F4C8"/><path fill="#F4F4C8" d="M620.002 173.601h24.801v24.802h-24.801z"/><path fill="#1C1C1C" d="M620.002 173.601h24.801v24.802h-24.801z"/><path fill="#8A8847" d="M644.8 148.8h49.598V198.4H644.8z"/><path d="M644.8 198.399a49.599 49.599 0 0049.598-49.599H644.8" fill="#8A8847"/><path fill="#FFE11E" d="M694.398 148.8h49.599V198.4h-49.599z"/><path fill="#8A8847" d="M694.398 148.8h49.599V198.4h-49.599z"/><path fill="#FFE11E" d="M744 148.8h49.6V198.4H744z"/><path fill="#F4F4C8" d="M744 148.8h49.6V198.4H744z"/><path fill="#1C1C1C" d="M793.6 148.8h49.598V198.4H793.6z"/><path fill="#FFE11E" d="M793.6 148.8h49.598V198.4H793.6z"/><path fill="#1C1C1C" d="M843.198 148.8h49.6V198.4h-49.6z"/><path d="M843.198 148.8a49.599 49.599 0 0049.6 49.599V148.8" fill="#8A8847"/><path fill="#FFE11E" d="M892.8 148.8h49.6V198.4h-49.6z"/><path fill="#FFE11E" d="M892.8 148.8h49.6V198.4h-49.6z"/><path fill="#fcfcfc" d="M942.4 148.8H992v49.6h-49.6z"/><path fill="#8A8847" d="M942.4 148.8H967.2v24.801H942.4z"/><path fill="#FFE11E" d="M942.4 148.8H967.2v24.801H942.4z"/><path fill="#1C1C1C" d="M967.201 148.8h24.801v24.801h-24.801z"/><path fill="#FFE11E" d="M967.201 148.8h24.801v24.801h-24.801z"/><path fill="#F4F4C8" d="M942.4 173.601H967.2v24.802H942.4z"/><path fill="#F4F4C8" d="M942.4 173.601H967.2v24.802H942.4z"/><path fill="#1C1C1C" d="M967.201 173.601h24.801v24.802h-24.801z"/><path fill="#1C1C1C" d="M967.201 173.601h24.801v24.802h-24.801z"/><path fill="#8A8847" d="M991.998 148.8h49.6V198.4h-49.6z"/><path d="M991.998 198.399a49.599 49.599 0 0049.6-49.599h-49.6" fill="#8A8847"/><path fill="#fcfcfc" d="M1041.6 148.8h49.6v49.6h-49.6z"/><path fill="#FFE11E" d="M1041.601 148.8h24.801v24.801h-24.8z"/><path d="M1041.601 148.8a24.801 24.801 0 0024.801 24.801v-24.8" fill="#8A8847"/><path fill="#8A8847" d="M1066.399 148.8h24.8v24.801h-24.8z"/><path fill="#8A8847" d="M1066.399 148.8h24.8v24.801h-24.8zM1041.601 173.601h24.801v24.802h-24.8z"/><path d="M1041.601 173.601a24.801 24.801 0 0124.801 24.802h-24.8" fill="#8A8847"/><path fill="#F4F4C8" d="M1066.399 173.601h24.8v24.802h-24.8z"/><path fill="#1C1C1C" d="M1066.399 173.601h24.8v24.802h-24.8z"/><path fill="#FFE11E" d="M1091.2 148.8h49.599V198.4h-49.6z"/><path d="M1091.2 198.399a49.599 49.599 0 0149.599-49.599l-49.6 49.599a49.599 49.599 0 0049.6-49.599" fill="#1C1C1C"/><path fill="#fcfcfc" d="M1140.8 148.8h49.6v49.6h-49.6z"/><path fill="#FFE11E" d="M1140.799 148.8h24.8v24.801h-24.8z"/><path d="M1140.799 148.8a24.801 24.801 0 0124.8 24.801h-24.8" fill="#1C1C1C"/><path fill="#FFE11E" d="M1165.6 148.8h24.801v24.801H1165.6z"/><path fill="#F4F4C8" d="M1165.6 148.8h24.801v24.801H1165.6z"/><path fill="#FFE11E" d="M1140.799 173.601h24.8v24.802h-24.8z"/><path fill="#FFE11E" d="M1140.799 173.601h24.8v24.802h-24.8z"/><path fill="#8A8847" d="M1165.6 173.601h24.801v24.802H1165.6z"/><path d="M1165.6 173.601a24.801 24.801 0 0124.801 24.802H1165.6" fill="#8A8847"/><path fill="#8A8847" d="M1190.401 148.8H1240V198.4h-49.599z"/><path fill="#FFE11E" d="M1190.401 148.8H1240V198.4h-49.599z"/><path fill="#fcfcfc" d="M0 198.4h49.6V248H0z"/><path fill="#8A8847" d="M0 198.399h24.801V223.2H0z"/><path fill="#1C1C1C" d="M0 198.399h24.801V223.2H0z"/><path fill="#8A8847" d="M24.801 198.399h24.802V223.2H24.8z"/><path fill="#8A8847" d="M24.801 198.399h24.802V223.2H24.8z"/><path fill="#1C1C1C" d="M0 223.2h24.801v24.802H0z"/><path d="M0 223.2a24.801 24.801 0 0124.801 24.802H0" fill="#F4F4C8"/><path fill="#F4F4C8" d="M24.801 223.2h24.802v24.802H24.8z"/><path fill="#1C1C1C" d="M24.801 223.2h24.802v24.802H24.8z"/><path fill="#fcfcfc" d="M49.6 198.4h49.6V248H49.6z"/><path fill="#FFE11E" d="M49.599 198.399H74.4V223.2H49.6z"/><path d="M49.599 223.2A24.801 24.801 0 0174.4 198.4V223.2" fill="#1C1C1C"/><path fill="#FFE11E" d="M74.4 198.399h24.801V223.2h-24.8z"/><path fill="#F4F4C8" d="M74.4 198.399h24.801V223.2h-24.8z"/><path fill="#FFE11E" d="M49.599 223.2H74.4v24.802H49.6z"/><path d="M49.599 223.2A24.801 24.801 0 0074.4 248.002V223.2" fill="#1C1C1C"/><path fill="#FFE11E" d="M74.4 223.2h24.801v24.802h-24.8z"/><path fill="#F4F4C8" d="M74.4 223.2h24.801v24.802h-24.8z"/><path fill="#FFE11E" d="M99.201 198.399h49.6v49.599H99.2z"/><path d="M99.201 198.399a49.599 49.599 0 0149.6 49.599l-49.6-49.6a49.599 49.599 0 0049.6 49.6" fill="#F4F4C8"/><path fill="#F4F4C8" d="M148.8 198.399H198.4v49.599H148.8z"/><path d="M148.8 198.399a49.599 49.599 0 0049.599 49.599v-49.6" fill="#1C1C1C"/><path fill="#1C1C1C" d="M198.399 198.399h49.599v49.599h-49.6z"/><path fill="#F4F4C8" d="M198.399 198.399h49.599v49.599h-49.6z"/><path fill="#8A8847" d="M248.002 198.399H297.6v49.599h-49.598z"/><path fill="#1C1C1C" d="M248.002 198.399H297.6v49.599h-49.598z"/><path fill="#FFE11E" d="M297.6 198.399h49.6v49.599h-49.6z"/><path fill="#F4F4C8" d="M297.6 198.399h49.6v49.599h-49.6z"/><path fill="#1C1C1C" d="M347.2 198.399h49.598v49.599h-49.599z"/><path fill="#F4F4C8" d="M347.2 198.399h49.598v49.599h-49.599z"/><path fill="#fcfcfc" d="M396.8 198.4h49.6V248h-49.6z"/><path fill="#F4F4C8" d="M396.802 198.399h24.801V223.2h-24.801z"/><path fill="#8A8847" d="M396.802 198.399h24.801V223.2h-24.801z"/><path fill="#F4F4C8" d="M421.6 198.399h24.8V223.2h-24.8z"/><path fill="#8A8847" d="M421.6 198.399h24.8V223.2h-24.8z"/><path fill="#1C1C1C" d="M396.802 223.2h24.801v24.802h-24.801z"/><path fill="#8A8847" d="M396.802 223.2h24.801v24.802h-24.801z"/><path fill="#FFE11E" d="M421.6 223.2h24.8v24.802h-24.8z"/><path fill="#FFE11E" d="M421.6 223.2h24.8v24.802h-24.8z"/><path fill="#FFE11E" d="M446.4 198.399H496v49.599h-49.6z"/><path fill="#FFE11E" d="M446.4 198.399H496v49.599h-49.6z"/><path fill="#8A8847" d="M496 198.399h49.598v49.599h-49.599z"/><path d="M496 247.998a49.599 49.599 0 0049.598-49.6h-49.599" fill="#1C1C1C"/><path fill="#fcfcfc" d="M545.6 198.4h49.6V248h-49.6z"/><path fill="#1C1C1C" d="M545.602 198.399h24.801V223.2h-24.801z"/><path d="M545.602 223.2a24.801 24.801 0 0124.801-24.801L545.602 223.2a24.801 24.801 0 0024.801-24.801" fill="#FFE11E"/><path fill="#FFE11E" d="M570.4 198.399h24.8V223.2h-24.8z"/><path d="M570.4 198.399a24.801 24.801 0 0124.8 24.801h-24.8" fill="#FFE11E"/><path fill="#F4F4C8" d="M545.602 223.2h24.801v24.802h-24.801z"/><path fill="#F4F4C8" d="M545.602 223.2h24.801v24.802h-24.801z"/><path fill="#F4F4C8" d="M570.4 223.2h24.8v24.802h-24.8z"/><path d="M570.4 248.002a24.801 24.801 0 0024.8-24.802h-24.8" fill="#FFE11E"/><path fill="#fcfcfc" d="M595.2 198.4h49.6V248h-49.6z"/><path fill="#1C1C1C" d="M595.2 198.399h24.802V223.2H595.2z"/><path fill="#8A8847" d="M595.2 198.399h24.802V223.2H595.2z"/><path fill="#8A8847" d="M620.002 198.399h24.801V223.2h-24.801z"/><path fill="#8A8847" d="M620.002 198.399h24.801V223.2h-24.801z"/><path fill="#FFE11E" d="M595.2 223.2h24.802v24.802H595.2z"/><path d="M595.2 223.2a24.801 24.801 0 0024.802 24.802V223.2" fill="#8A8847"/><path fill="#8A8847" d="M620.002 223.2h24.801v24.802h-24.801z"/><path d="M620.002 248.002a24.801 24.801 0 0024.801-24.802h-24.801" fill="#FFE11E"/><path fill="#fcfcfc" d="M644.8 198.4h49.6V248h-49.6z"/><path fill="#FFE11E" d="M644.8 198.399h24.8V223.2h-24.8z"/><path fill="#8A8847" d="M644.8 198.399h24.8V223.2h-24.8z"/><path fill="#1C1C1C" d="M669.6 198.399h24.802V223.2h-24.801z"/><path fill="#8A8847" d="M669.6 198.399h24.802V223.2h-24.801z"/><path fill="#F4F4C8" d="M644.8 223.2h24.8v24.802h-24.8z"/><path d="M644.8 223.2a24.801 24.801 0 0024.8 24.802V223.2M669.6 223.2h24.802v24.802h-24.801z" fill="#F4F4C8"/><path fill="#F4F4C8" d="M669.6 223.2h24.802v24.802h-24.801z"/><path fill="#fcfcfc" d="M694.4 198.4H744V248h-49.6z"/><path fill="#F4F4C8" d="M694.398 198.399H719.2V223.2h-24.8z"/><path d="M694.398 198.399A24.801 24.801 0 00719.2 223.2V198.4" fill="#8A8847"/><path fill="#FFE11E" d="M719.2 198.399H744V223.2h-24.8z"/><path fill="#FFE11E" d="M719.2 198.399H744V223.2h-24.8zM694.398 223.2H719.2v24.802h-24.8z"/><path fill="#8A8847" d="M694.398 223.2H719.2v24.802h-24.8zM719.2 223.2H744v24.802h-24.8z"/><path fill="#FFE11E" d="M719.2 223.2H744v24.802h-24.8z"/><path fill="#fcfcfc" d="M744 198.4h49.6V248H744z"/><path fill="#1C1C1C" d="M744 198.399h24.802V223.2h-24.801z"/><path d="M744 223.2a24.801 24.801 0 0124.802-24.801V223.2" fill="#8A8847"/><path fill="#8A8847" d="M768.798 198.399H793.6V223.2h-24.802z"/><path fill="#8A8847" d="M768.798 198.399H793.6V223.2h-24.802z"/><path fill="#FFE11E" d="M744 223.2h24.802v24.802h-24.801z"/><path d="M744 223.2a24.801 24.801 0 0124.802 24.802L744.001 223.2a24.801 24.801 0 0024.801 24.802" fill="#1C1C1C"/><path fill="#F4F4C8" d="M768.798 223.2H793.6v24.802h-24.802z"/><path fill="#1C1C1C" d="M768.798 223.2H793.6v24.802h-24.802z"/><path fill="#8A8847" d="M793.6 198.399h49.598v49.599H793.6z"/><path fill="#F4F4C8" d="M793.6 198.399h49.598v49.599H793.6z"/><path fill="#fcfcfc" d="M843.2 198.4h49.6V248h-49.6z"/><path fill="#1C1C1C" d="M843.198 198.399H868V223.2h-24.802z"/><path d="M843.198 198.399A24.801 24.801 0 00868 223.2V198.4" fill="#1C1C1C"/><path fill="#8A8847" d="M868 198.399h24.8V223.2H868z"/><path d="M868 223.2a24.801 24.801 0 0124.8-24.801L868 223.2a24.801 24.801 0 0024.8-24.801" fill="#FFE11E"/><path fill="#1C1C1C" d="M843.198 223.2H868v24.802h-24.802z"/><path d="M843.198 223.2A24.801 24.801 0 01868 248.002L843.198 223.2A24.801 24.801 0 00868 248.002" fill="#8A8847"/><path fill="#1C1C1C" d="M868 223.2h24.8v24.802H868z"/><path d="M868 248.002a24.801 24.801 0 0024.8-24.802H868" fill="#FFE11E"/><path fill="#fcfcfc" d="M892.8 198.4h49.6V248h-49.6z"/><path fill="#FFE11E" d="M892.8 198.399h24.802V223.2h-24.801z"/><path fill="#8A8847" d="M892.8 198.399h24.802V223.2h-24.801z"/><path fill="#F4F4C8" d="M917.598 198.399H942.4V223.2h-24.802z"/><path fill="#F4F4C8" d="M917.598 198.399H942.4V223.2h-24.802z"/><path fill="#1C1C1C" d="M892.8 223.2h24.802v24.802h-24.801z"/><path fill="#8A8847" d="M892.8 223.2h24.802v24.802h-24.801z"/><path fill="#8A8847" d="M917.598 223.2H942.4v24.802h-24.802z"/><path d="M917.598 248.002A24.801 24.801 0 00942.4 223.2h-24.802" fill="#F4F4C8"/><path fill="#fcfcfc" d="M942.4 198.4H992V248h-49.6z"/><path fill="#FFE11E" d="M942.4 198.399H967.2V223.2H942.4z"/><path d="M942.4 223.2A24.801 24.801 0 01967.2 198.4V223.2M967.201 198.399h24.801V223.2h-24.801z" fill="#FFE11E"/><path d="M967.201 198.399a24.801 24.801 0 0024.801 24.801V198.4" fill="#8A8847"/><path fill="#FFE11E" d="M942.4 223.2H967.2v24.802H942.4z"/><path d="M942.4 248.002A24.801 24.801 0 01967.2 223.2L942.4 248.002A24.801 24.801 0 00967.2 223.2" fill="#F4F4C8"/><path fill="#1C1C1C" d="M967.201 223.2h24.801v24.802h-24.801z"/><path d="M967.201 248.002a24.801 24.801 0 0024.801-24.802h-24.801" fill="#1C1C1C"/><path fill="#fcfcfc" d="M992 198.4h49.6V248H992z"/><path fill="#F4F4C8" d="M991.998 198.399h24.802V223.2h-24.802z"/><path fill="#F4F4C8" d="M991.998 198.399h24.802V223.2h-24.802z"/><path fill="#FFE11E" d="M1016.8 198.399h24.801V223.2H1016.8z"/><path d="M1016.8 223.2A24.801 24.801 0 011041.6 198.4L1016.8 223.2A24.801 24.801 0 001041.6 198.4M991.998 223.2h24.802v24.802h-24.802z" fill="#8A8847"/><path fill="#8A8847" d="M991.998 223.2h24.802v24.802h-24.802z"/><path fill="#1C1C1C" d="M1016.8 223.2h24.801v24.802H1016.8z"/><path fill="#1C1C1C" d="M1016.8 223.2h24.801v24.802H1016.8z"/><path fill="#8A8847" d="M1041.601 198.399h49.599v49.599H1041.6z"/><path d="M1041.601 247.998a49.599 49.599 0 0149.599-49.6v49.6" fill="#FFE11E"/><path fill="#FFE11E" d="M1091.2 198.399h49.599v49.599h-49.6z"/><path fill="#F4F4C8" d="M1091.2 198.399h49.599v49.599h-49.6z"/><path fill="#fcfcfc" d="M1140.8 198.4h49.6V248h-49.6z"/><path fill="#1C1C1C" d="M1140.799 198.399h24.8V223.2h-24.8z"/><path d="M1140.799 198.399a24.801 24.801 0 0124.8 24.801l-24.8-24.801a24.801 24.801 0 0024.8 24.801" fill="#8A8847"/><path fill="#F4F4C8" d="M1165.6 198.399h24.801V223.2H1165.6z"/><path fill="#8A8847" d="M1165.6 198.399h24.801V223.2H1165.6z"/><path fill="#FFE11E" d="M1140.799 223.2h24.8v24.802h-24.8z"/><path d="M1140.799 248.002a24.801 24.801 0 0124.8-24.802v24.802" fill="#8A8847"/><path fill="#F4F4C8" d="M1165.6 223.2h24.801v24.802H1165.6z"/><path fill="#1C1C1C" d="M1165.6 223.2h24.801v24.802H1165.6z"/><path fill="#fcfcfc" d="M1190.4 198.4h49.6V248h-49.6z"/><path fill="#F4F4C8" d="M1190.401 198.399h24.802V223.2H1190.4z"/><path d="M1190.401 198.399a24.801 24.801 0 0124.802 24.801L1190.4 198.4a24.801 24.801 0 0024.802 24.801" fill="#1C1C1C"/><path fill="#F4F4C8" d="M1215.199 198.399H1240V223.2h-24.801z"/><path d="M1215.199 198.399A24.801 24.801 0 001240 223.2V198.4" fill="#8A8847"/><path fill="#1C1C1C" d="M1190.401 223.2h24.802v24.802H1190.4z"/><path d="M1190.401 248.002a24.801 24.801 0 0124.802-24.802l-24.802 24.802a24.801 24.801 0 0024.802-24.802" fill="#F4F4C8"/><path fill="#1C1C1C" d="M1215.199 223.2H1240v24.802h-24.801z"/><path fill="#8A8847" d="M1215.199 223.2H1240v24.802h-24.801zM0 248.002h49.599V297.6H0z"/><path d="M0 248.002A49.599 49.599 0 0149.599 297.6H0" fill="#FFE11E"/><path fill="#fcfcfc" d="M49.6 248h49.6v49.6H49.6z"/><path fill="#F4F4C8" d="M49.599 248.002H74.4v24.8H49.6z"/><path d="M49.599 272.803A24.801 24.801 0 0174.4 248.002l-24.801 24.8a24.801 24.801 0 0024.801-24.8M74.4 248.002h24.801v24.8h-24.8z" fill="#8A8847"/><path d="M74.4 248.002a24.801 24.801 0 0124.801 24.8l-24.8-24.8a24.801 24.801 0 0024.8 24.8M49.599 272.799H74.4V297.6H49.6z" fill="#1C1C1C"/><path fill="#8A8847" d="M49.599 272.799H74.4V297.6H49.6z"/><path fill="#F4F4C8" d="M74.4 272.799h24.801V297.6h-24.8z"/><path d="M74.4 297.6A24.801 24.801 0 0199.201 272.8l-24.8 24.801A24.801 24.801 0 0099.2 272.8" fill="#F4F4C8"/><path fill="#FFE11E" d="M99.201 248.002h49.6V297.6H99.2z"/><path d="M99.201 248.002a49.599 49.599 0 0149.6 49.598H99.2" fill="#FFE11E"/><path fill="#fcfcfc" d="M148.8 248h49.6v49.6h-49.6z"/><path fill="#F4F4C8" d="M148.8 248.002h24.801v24.8h-24.8z"/><path fill="#8A8847" d="M148.8 248.002h24.801v24.8h-24.8z"/><path fill="#F4F4C8" d="M173.601 248.002h24.802v24.8H173.6z"/><path fill="#8A8847" d="M173.601 248.002h24.802v24.8H173.6z"/><path fill="#FFE11E" d="M148.8 272.799h24.801V297.6h-24.8z"/><path fill="#F4F4C8" d="M148.8 272.799h24.801V297.6h-24.8z"/><path fill="#8A8847" d="M173.601 272.799h24.802V297.6H173.6z"/><path fill="#1C1C1C" d="M173.601 272.799h24.802V297.6H173.6z"/><path fill="#fcfcfc" d="M198.4 248H248v49.6h-49.6z"/><path fill="#8A8847" d="M198.399 248.002H223.2v24.8H198.4z"/><path d="M198.399 272.803a24.801 24.801 0 0124.801-24.801l-24.801 24.8a24.801 24.801 0 0024.801-24.8M223.2 248.002h24.802v24.8H223.2z" fill="#1C1C1C"/><path fill="#F4F4C8" d="M223.2 248.002h24.802v24.8H223.2z"/><path fill="#1C1C1C" d="M198.399 272.799H223.2V297.6H198.4z"/><path fill="#F4F4C8" d="M198.399 272.799H223.2V297.6H198.4z"/><path fill="#1C1C1C" d="M223.2 272.799h24.802V297.6H223.2z"/><path d="M223.2 272.799a24.801 24.801 0 0124.802 24.801L223.2 272.8a24.801 24.801 0 0024.802 24.801" fill="#1C1C1C"/><path fill="#fcfcfc" d="M248 248h49.6v49.6H248z"/><path fill="#F4F4C8" d="M248.002 248.002h24.8v24.8h-24.8z"/><path fill="#FFE11E" d="M248.002 248.002h24.8v24.8h-24.8z"/><path fill="#8A8847" d="M272.799 248.002H297.6v24.8H272.8z"/><path fill="#FFE11E" d="M272.799 248.002H297.6v24.8H272.8z"/><path fill="#FFE11E" d="M248.002 272.799h24.8V297.6h-24.8z"/><path d="M248.002 272.799a24.801 24.801 0 0024.8 24.801V272.8" fill="#F4F4C8"/><path fill="#8A8847" d="M272.799 272.799H297.6V297.6H272.8z"/><path fill="#F4F4C8" d="M272.799 272.799H297.6V297.6H272.8z"/><path fill="#fcfcfc" d="M297.6 248h49.6v49.6h-49.6z"/><path fill="#FFE11E" d="M297.6 248.002h24.802v24.8H297.6z"/><path d="M297.6 248.002a24.801 24.801 0 0024.802 24.8v-24.8" fill="#FFE11E"/><path fill="#FFE11E" d="M322.402 248.002h24.8v24.8h-24.8z"/><path d="M322.402 272.803a24.801 24.801 0 0124.8-24.801l-24.8 24.8a24.801 24.801 0 0024.8-24.8" fill="#1C1C1C"/><path fill="#FFE11E" d="M297.6 272.799h24.802V297.6H297.6z"/><path fill="#1C1C1C" d="M297.6 272.799h24.802V297.6H297.6z"/><path fill="#F4F4C8" d="M322.402 272.799h24.8V297.6h-24.8z"/><path fill="#1C1C1C" d="M322.402 272.799h24.8V297.6h-24.8z"/><path fill="#8A8847" d="M347.2 248.002h49.598V297.6h-49.599z"/><path d="M347.2 297.6a49.599 49.599 0 0049.598-49.598h-49.599" fill="#F4F4C8"/><path fill="#8A8847" d="M396.802 248.002H446.4V297.6h-49.598z"/><path d="M396.802 297.6a49.599 49.599 0 0149.598-49.598L396.802 297.6a49.599 49.599 0 0049.598-49.598" fill="#1C1C1C"/><path fill="#fcfcfc" d="M446.4 248H496v49.6h-49.6z"/><path fill="#F4F4C8" d="M446.4 248.002h24.802v24.8H446.4z"/><path d="M446.4 272.803a24.801 24.801 0 0024.802-24.801H446.4" fill="#FFE11E"/><path fill="#8A8847" d="M471.202 248.002h24.801v24.8h-24.801z"/><path fill="#8A8847" d="M471.202 248.002h24.801v24.8h-24.801z"/><path fill="#FFE11E" d="M446.4 272.799h24.802V297.6H446.4z"/><path fill="#F4F4C8" d="M446.4 272.799h24.802V297.6H446.4zM471.202 272.799h24.801V297.6h-24.801z"/><path fill="#8A8847" d="M471.202 272.799h24.801V297.6h-24.801z"/><path fill="#FFE11E" d="M496 248.002h49.598V297.6h-49.599z"/><path d="M496 248.002a49.599 49.599 0 0149.598 49.598l-49.599-49.598a49.599 49.599 0 0049.599 49.598M545.602 248.002H595.2V297.6h-49.6z" fill="#FFE11E"/><path d="M545.602 297.6a49.599 49.599 0 0149.599-49.598V297.6" fill="#1C1C1C"/><path fill="#1C1C1C" d="M595.2 248.002h49.6V297.6h-49.6z"/><path d="M595.2 297.6a49.599 49.599 0 0049.6-49.598h-49.6" fill="#8A8847"/><path fill="#fcfcfc" d="M644.8 248h49.6v49.6h-49.6z"/><path fill="#8A8847" d="M644.8 248.002h24.8v24.8h-24.8z"/><path d="M644.8 248.002a24.801 24.801 0 0124.8 24.8l-24.8-24.8a24.801 24.801 0 0024.8 24.8" fill="#FFE11E"/><path fill="#1C1C1C" d="M669.6 248.002h24.802v24.8h-24.801z"/><path fill="#F4F4C8" d="M669.6 248.002h24.802v24.8h-24.801zM644.8 272.799h24.8V297.6h-24.8z"/><path fill="#8A8847" d="M644.8 272.799h24.8V297.6h-24.8zM669.6 272.799h24.802V297.6h-24.801z"/><path d="M669.6 297.6a24.801 24.801 0 0024.802-24.801h-24.801" fill="#8A8847"/><path fill="#fcfcfc" d="M694.4 248H744v49.6h-49.6z"/><path fill="#1C1C1C" d="M694.398 248.002H719.2v24.8h-24.8z"/><path fill="#1C1C1C" d="M694.398 248.002H719.2v24.8h-24.8z"/><path fill="#8A8847" d="M719.2 248.002H744v24.8h-24.8z"/><path fill="#FFE11E" d="M719.2 248.002H744v24.8h-24.8z"/><path fill="#F4F4C8" d="M694.398 272.799H719.2V297.6h-24.8z"/><path d="M694.398 272.799A24.801 24.801 0 01719.2 297.6L694.4 272.8a24.801 24.801 0 0024.8 24.801" fill="#FFE11E"/><path fill="#FFE11E" d="M719.2 272.799H744V297.6h-24.8z"/><path fill="#FFE11E" d="M719.2 272.799H744V297.6h-24.8z"/><path fill="#fcfcfc" d="M744 248h49.6v49.6H744z"/><path fill="#FFE11E" d="M744 248.002h24.802v24.8h-24.801z"/><path fill="#1C1C1C" d="M744 248.002h24.802v24.8h-24.801z"/><path fill="#1C1C1C" d="M768.798 248.002H793.6v24.8h-24.802z"/><path fill="#8A8847" d="M768.798 248.002H793.6v24.8h-24.802z"/><path fill="#8A8847" d="M744 272.799h24.802V297.6h-24.801z"/><path fill="#FFE11E" d="M744 272.799h24.802V297.6h-24.801z"/><path fill="#1C1C1C" d="M768.798 272.799H793.6V297.6h-24.802z"/><path d="M768.798 272.799A24.801 24.801 0 00793.6 297.6V272.8" fill="#F4F4C8"/><path fill="#fcfcfc" d="M793.6 248h49.6v49.6h-49.6z"/><path fill="#8A8847" d="M793.6 248.002h24.8v24.8h-24.8z"/><path d="M793.6 248.002a24.801 24.801 0 0024.8 24.8v-24.8" fill="#FFE11E"/><path fill="#8A8847" d="M818.4 248.002h24.802v24.8h-24.801z"/><path fill="#F4F4C8" d="M818.4 248.002h24.802v24.8h-24.801zM793.6 272.799h24.8V297.6h-24.8z"/><path d="M793.6 297.6a24.801 24.801 0 0024.8-24.801h-24.8M818.4 272.799h24.802V297.6h-24.801z" fill="#8A8847"/><path fill="#8A8847" d="M818.4 272.799h24.802V297.6h-24.801z"/><path fill="#FFE11E" d="M843.198 248.002h49.6V297.6h-49.6z"/><path d="M843.198 297.6a49.599 49.599 0 0049.6-49.598h-49.6" fill="#FFE11E"/><path fill="#fcfcfc" d="M892.8 248h49.6v49.6h-49.6z"/><path fill="#F4F4C8" d="M892.8 248.002h24.802v24.8h-24.801z"/><path d="M892.8 272.803a24.801 24.801 0 0124.802-24.801v24.8" fill="#F4F4C8"/><path fill="#F4F4C8" d="M917.598 248.002H942.4v24.8h-24.802z"/><path fill="#8A8847" d="M917.598 248.002H942.4v24.8h-24.802z"/><path fill="#8A8847" d="M892.8 272.799h24.802V297.6h-24.801z"/><path fill="#FFE11E" d="M892.8 272.799h24.802V297.6h-24.801z"/><path fill="#F4F4C8" d="M917.598 272.799H942.4V297.6h-24.802z"/><path fill="#FFE11E" d="M917.598 272.799H942.4V297.6h-24.802z"/><path fill="#fcfcfc" d="M942.4 248H992v49.6h-49.6z"/><path fill="#1C1C1C" d="M942.4 248.002H967.2v24.8H942.4z"/><path d="M942.4 272.803a24.801 24.801 0 0124.801-24.801v24.8" fill="#F4F4C8"/><path fill="#FFE11E" d="M967.201 248.002h24.801v24.8h-24.801z"/><path d="M967.201 248.002a24.801 24.801 0 0124.801 24.8l-24.801-24.8a24.801 24.801 0 0024.801 24.8" fill="#FFE11E"/><path fill="#8A8847" d="M942.4 272.799H967.2V297.6H942.4z"/><path d="M942.4 272.799A24.801 24.801 0 00967.2 297.6V272.8" fill="#8A8847"/><path fill="#FFE11E" d="M967.201 272.799h24.801V297.6h-24.801z"/><path fill="#F4F4C8" d="M967.201 272.799h24.801V297.6h-24.801z"/><path fill="#1C1C1C" d="M991.998 248.002h49.6V297.6h-49.6z"/><path d="M991.998 248.002a49.599 49.599 0 0149.6 49.598l-49.6-49.598a49.599 49.599 0 0049.6 49.598" fill="#1C1C1C"/><path fill="#FFE11E" d="M1041.601 248.002h49.599V297.6H1041.6z"/><path d="M1041.601 248.002A49.599 49.599 0 011091.2 297.6l-49.599-49.598A49.599 49.599 0 001091.2 297.6" fill="#FFE11E"/><path fill="#1C1C1C" d="M1091.2 248.002h49.599V297.6h-49.6z"/><path fill="#1C1C1C" d="M1091.2 248.002h49.599V297.6h-49.6z"/><path fill="#F4F4C8" d="M1140.799 248.002h49.598V297.6H1140.8z"/><path d="M1140.799 248.002a49.599 49.599 0 0149.598 49.598l-49.598-49.598a49.599 49.599 0 0049.598 49.598" fill="#F4F4C8"/><path fill="#fcfcfc" d="M1190.4 248h49.6v49.6h-49.6z"/><path fill="#FFE11E" d="M1190.401 248.002h24.802v24.8H1190.4z"/><path fill="#F4F4C8" d="M1190.401 248.002h24.802v24.8H1190.4z"/><path fill="#FFE11E" d="M1215.199 248.002H1240v24.8h-24.801z"/><path fill="#FFE11E" d="M1215.199 248.002H1240v24.8h-24.801z"/><path fill="#FFE11E" d="M1190.401 272.799h24.802V297.6H1190.4z"/><path d="M1190.401 297.6a24.801 24.801 0 0124.802-24.801V297.6" fill="#8A8847"/><path fill="#F4F4C8" d="M1215.199 272.799H1240V297.6h-24.801z"/><path d="M1215.199 272.799A24.801 24.801 0 011240 297.6l-24.801-24.801A24.801 24.801 0 001240 297.6M0 297.6h49.599v49.6H0z" fill="#8A8847"/><path d="M0 297.6a49.599 49.599 0 0149.599 49.6H0" fill="#FFE11E"/><path fill="#fcfcfc" d="M49.6 297.6h49.6v49.6H49.6z"/><path fill="#8A8847" d="M49.599 297.6H74.4v24.802H49.6z"/><path fill="#8A8847" d="M49.599 297.6H74.4v24.802H49.6z"/><path fill="#1C1C1C" d="M74.4 297.6h24.801v24.802h-24.8z"/><path d="M74.4 322.402A24.801 24.801 0 0099.201 297.6h-24.8" fill="#8A8847"/><path fill="#FFE11E" d="M49.599 322.402H74.4v24.8H49.6z"/><path fill="#F4F4C8" d="M49.599 322.402H74.4v24.8H49.6z"/><path fill="#FFE11E" d="M74.4 322.402h24.801v24.8h-24.8z"/><path d="M74.4 322.402a24.801 24.801 0 0024.801 24.8v-24.8" fill="#F4F4C8"/><path fill="#8A8847" d="M99.201 297.6h49.6v49.6H99.2z"/><path d="M99.201 297.6a49.599 49.599 0 0149.6 49.6H99.2" fill="#F4F4C8"/><path fill="#fcfcfc" d="M148.8 297.6h49.6v49.6h-49.6z"/><path fill="#1C1C1C" d="M148.8 297.6h24.801v24.802h-24.8z"/><path d="M148.8 297.6a24.801 24.801 0 0024.801 24.802V297.6" fill="#1C1C1C"/><path fill="#FFE11E" d="M173.601 297.6h24.802v24.802H173.6z"/><path d="M173.601 297.6a24.801 24.801 0 0024.802 24.802V297.6" fill="#8A8847"/><path fill="#F4F4C8" d="M148.8 322.402h24.801v24.8h-24.8z"/><path d="M148.8 347.203a24.801 24.801 0 0124.801-24.801l-24.8 24.8a24.801 24.801 0 0024.8-24.8" fill="#1C1C1C"/><path fill="#1C1C1C" d="M173.601 322.402h24.802v24.8H173.6z"/><path fill="#1C1C1C" d="M173.601 322.402h24.802v24.8H173.6z"/><path fill="#fcfcfc" d="M198.4 297.6H248v49.6h-49.6z"/><path fill="#8A8847" d="M198.399 297.6H223.2v24.802H198.4z"/><path d="M198.399 322.402A24.801 24.801 0 01223.2 297.6L198.4 322.402A24.801 24.801 0 00223.2 297.6" fill="#FFE11E"/><path fill="#F4F4C8" d="M223.2 297.6h24.802v24.802H223.2z"/><path fill="#1C1C1C" d="M223.2 297.6h24.802v24.802H223.2zM198.399 322.402H223.2v24.8H198.4z"/><path d="M198.399 322.402a24.801 24.801 0 0024.801 24.8v-24.8" fill="#FFE11E"/><path fill="#1C1C1C" d="M223.2 322.402h24.802v24.8H223.2z"/><path fill="#1C1C1C" d="M223.2 322.402h24.802v24.8H223.2z"/><path fill="#F4F4C8" d="M248.002 297.6H297.6v49.6h-49.598z"/><path fill="#8A8847" d="M248.002 297.6H297.6v49.6h-49.598z"/><path fill="#fcfcfc" d="M297.6 297.6h49.6v49.6h-49.6z"/><path fill="#1C1C1C" d="M297.6 297.6h24.802v24.802H297.6z"/><path d="M297.6 322.402a24.801 24.801 0 0124.802-24.802L297.6 322.402a24.801 24.801 0 0024.802-24.802" fill="#F4F4C8"/><path fill="#FFE11E" d="M322.402 297.6h24.8v24.802h-24.8z"/><path fill="#F4F4C8" d="M322.402 297.6h24.8v24.802h-24.8z"/><path fill="#F4F4C8" d="M297.6 322.402h24.802v24.8H297.6z"/><path d="M297.6 347.203a24.801 24.801 0 0124.802-24.801l-24.802 24.8a24.801 24.801 0 0024.802-24.8" fill="#8A8847"/><path fill="#F4F4C8" d="M322.402 322.402h24.8v24.8h-24.8z"/><path d="M322.402 347.203a24.801 24.801 0 0124.8-24.801l-24.8 24.8a24.801 24.801 0 0024.8-24.8" fill="#FFE11E"/><path fill="#fcfcfc" d="M347.2 297.6h49.6v49.6h-49.6z"/><path fill="#8A8847" d="M347.2 297.6H372v24.802h-24.8z"/><path fill="#8A8847" d="M347.2 297.6H372v24.802h-24.8z"/><path fill="#F4F4C8" d="M372 297.6h24.802v24.802H372z"/><path fill="#F4F4C8" d="M372 297.6h24.802v24.802H372z"/><path fill="#8A8847" d="M347.2 322.402H372v24.8h-24.8z"/><path d="M347.2 322.402a24.801 24.801 0 0124.8 24.8l-24.8-24.8a24.801 24.801 0 0024.8 24.8M372 322.402h24.802v24.8H372z" fill="#FFE11E"/><path fill="#8A8847" d="M372 322.402h24.802v24.8H372z"/><path fill="#1C1C1C" d="M396.802 297.6H446.4v49.6h-49.598z"/><path d="M396.802 297.6a49.599 49.599 0 0149.598 49.6l-49.598-49.6a49.599 49.599 0 0049.598 49.6" fill="#F4F4C8"/><path fill="#fcfcfc" d="M446.4 297.6H496v49.6h-49.6z"/><path fill="#F4F4C8" d="M446.4 297.6h24.802v24.802H446.4z"/><path fill="#F4F4C8" d="M446.4 297.6h24.802v24.802H446.4zM471.202 297.6h24.801v24.802h-24.801z"/><path d="M471.202 322.402a24.801 24.801 0 0124.801-24.802v24.802" fill="#FFE11E"/><path fill="#F4F4C8" d="M446.4 322.402h24.802v24.8H446.4z"/><path fill="#8A8847" d="M446.4 322.402h24.802v24.8H446.4z"/><path fill="#1C1C1C" d="M471.202 322.402h24.801v24.8h-24.801z"/><path fill="#F4F4C8" d="M471.202 322.402h24.801v24.8h-24.801z"/><path fill="#F4F4C8" d="M496 297.6h49.598v49.6h-49.599z"/><path d="M496 347.2a49.599 49.599 0 0049.598-49.6h-49.599" fill="#1C1C1C"/><path fill="#FFE11E" d="M545.602 297.6H595.2v49.6h-49.6z"/><path d="M545.602 347.2a49.599 49.599 0 0049.599-49.6h-49.6" fill="#8A8847"/><path fill="#fcfcfc" d="M595.2 297.6h49.6v49.6h-49.6z"/><path fill="#FFE11E" d="M595.2 297.6h24.802v24.802H595.2z"/><path d="M595.2 297.6a24.801 24.801 0 0124.802 24.802L595.2 297.6a24.801 24.801 0 0024.8 24.802" fill="#FFE11E"/><path fill="#FFE11E" d="M620.002 297.6h24.801v24.802h-24.801z"/><path fill="#FFE11E" d="M620.002 297.6h24.801v24.802h-24.801z"/><path fill="#1C1C1C" d="M595.2 322.402h24.802v24.8H595.2z"/><path fill="#F4F4C8" d="M595.2 322.402h24.802v24.8H595.2z"/><path fill="#8A8847" d="M620.002 322.402h24.801v24.8h-24.801z"/><path fill="#8A8847" d="M620.002 322.402h24.801v24.8h-24.801z"/><path fill="#fcfcfc" d="M644.8 297.6h49.6v49.6h-49.6z"/><path fill="#FFE11E" d="M644.8 297.6h24.8v24.802h-24.8z"/><path fill="#8A8847" d="M644.8 297.6h24.8v24.802h-24.8z"/><path fill="#1C1C1C" d="M669.6 297.6h24.802v24.802h-24.801z"/><path fill="#FFE11E" d="M669.6 297.6h24.802v24.802h-24.801z"/><path fill="#F4F4C8" d="M644.8 322.402h24.8v24.8h-24.8z"/><path fill="#1C1C1C" d="M644.8 322.402h24.8v24.8h-24.8zM669.6 322.402h24.802v24.8h-24.801z"/><path d="M669.6 322.402a24.801 24.801 0 0024.802 24.8v-24.8" fill="#8A8847"/><path fill="#8A8847" d="M694.398 297.6h49.599v49.6h-49.599z"/><path d="M694.398 347.2a49.599 49.599 0 0049.599-49.6h-49.599" fill="#FFE11E"/><path fill="#1C1C1C" d="M744 297.6h49.6v49.6H744z"/><path d="M744 297.6a49.599 49.599 0 0049.6 49.6v-49.6" fill="#FFE11E"/><path fill="#fcfcfc" d="M793.6 297.6h49.6v49.6h-49.6z"/><path fill="#1C1C1C" d="M793.6 297.6h24.8v24.802h-24.8z"/><path fill="#FFE11E" d="M793.6 297.6h24.8v24.802h-24.8z"/><path fill="#1C1C1C" d="M818.4 297.6h24.802v24.802h-24.801z"/><path d="M818.4 297.6a24.801 24.801 0 0024.802 24.802V297.6" fill="#F4F4C8"/><path fill="#8A8847" d="M793.6 322.402h24.8v24.8h-24.8z"/><path fill="#F4F4C8" d="M793.6 322.402h24.8v24.8h-24.8z"/><path fill="#1C1C1C" d="M818.4 322.402h24.802v24.8h-24.801z"/><path fill="#FFE11E" d="M818.4 322.402h24.802v24.8h-24.801z"/><path fill="#1C1C1C" d="M843.198 297.6h49.6v49.6h-49.6z"/><path d="M843.198 347.2a49.599 49.599 0 0149.6-49.6v49.6" fill="#F4F4C8"/><path fill="#fcfcfc" d="M892.8 297.6h49.6v49.6h-49.6z"/><path fill="#FFE11E" d="M892.8 297.6h24.802v24.802h-24.801z"/><path d="M892.8 297.6a24.801 24.801 0 0124.802 24.802h-24.801" fill="#F4F4C8"/><path fill="#8A8847" d="M917.598 297.6H942.4v24.802h-24.802z"/><path d="M917.598 322.402A24.801 24.801 0 01942.4 297.6v24.802" fill="#FFE11E"/><path fill="#8A8847" d="M892.8 322.402h24.802v24.8h-24.801z"/><path fill="#F4F4C8" d="M892.8 322.402h24.802v24.8h-24.801z"/><path fill="#8A8847" d="M917.598 322.402H942.4v24.8h-24.802z"/><path fill="#8A8847" d="M917.598 322.402H942.4v24.8h-24.802z"/><path fill="#FFE11E" d="M942.4 297.6h49.598v49.6H942.4z"/><path fill="#1C1C1C" d="M942.4 297.6h49.598v49.6H942.4zM991.998 297.6h49.6v49.6h-49.6z"/><path d="M991.998 297.6a49.599 49.599 0 0049.6 49.6v-49.6" fill="#F4F4C8"/><path fill="#1C1C1C" d="M1041.601 297.6h49.599v49.6H1041.6z"/><path d="M1041.601 297.6a49.599 49.599 0 0149.599 49.6l-49.599-49.6a49.599 49.599 0 0049.599 49.6" fill="#F4F4C8"/><path fill="#fcfcfc" d="M1091.2 297.6h49.6v49.6h-49.6z"/><path fill="#FFE11E" d="M1091.2 297.6H1116v24.802H1091.2z"/><path fill="#1C1C1C" d="M1091.2 297.6H1116v24.802H1091.2z"/><path fill="#FFE11E" d="M1116.001 297.6h24.801v24.802h-24.8z"/><path d="M1116.001 322.402a24.801 24.801 0 0124.801-24.802l-24.8 24.802a24.801 24.801 0 0024.8-24.802" fill="#FFE11E"/><path fill="#F4F4C8" d="M1091.2 322.402H1116v24.8H1091.2z"/><path fill="#F4F4C8" d="M1091.2 322.402H1116v24.8H1091.2zM1116.001 322.402h24.801v24.8h-24.8z"/><path fill="#8A8847" d="M1116.001 322.402h24.801v24.8h-24.8z"/><path fill="#fcfcfc" d="M1140.8 297.6h49.6v49.6h-49.6z"/><path fill="#8A8847" d="M1140.799 297.6h24.8v24.802h-24.8z"/><path d="M1140.799 297.6a24.801 24.801 0 0124.8 24.802l-24.8-24.802a24.801 24.801 0 0024.8 24.802" fill="#F4F4C8"/><path fill="#8A8847" d="M1165.6 297.6h24.801v24.802H1165.6z"/><path d="M1165.6 297.6a24.801 24.801 0 0124.801 24.802H1165.6" fill="#F4F4C8"/><path fill="#FFE11E" d="M1140.799 322.402h24.8v24.8h-24.8z"/><path d="M1140.799 322.402a24.801 24.801 0 0024.8 24.8v-24.8" fill="#8A8847"/><path fill="#FFE11E" d="M1165.6 322.402h24.801v24.8H1165.6z"/><path d="M1165.6 347.203a24.801 24.801 0 0124.801-24.801v24.8" fill="#FFE11E"/><path fill="#fcfcfc" d="M1190.4 297.6h49.6v49.6h-49.6z"/><path fill="#F4F4C8" d="M1190.401 297.6h24.802v24.802H1190.4z"/><path fill="#F4F4C8" d="M1190.401 297.6h24.802v24.802H1190.4z"/><path fill="#8A8847" d="M1215.199 297.6H1240v24.802h-24.801z"/><path fill="#F4F4C8" d="M1215.199 297.6H1240v24.802h-24.801z"/><path fill="#FFE11E" d="M1190.401 322.402h24.802v24.8H1190.4z"/><path d="M1190.401 347.203a24.801 24.801 0 0124.802-24.801v24.8" fill="#F4F4C8"/><path fill="#FFE11E" d="M1215.199 322.402H1240v24.8h-24.801z"/><path fill="#8A8847" d="M1215.199 322.402H1240v24.8h-24.801z"/><path fill="#fcfcfc" d="M0 347.2h49.6v49.6H0z"/><path fill="#FFE11E" d="M0 347.2h24.801V372H0z"/><path fill="#8A8847" d="M0 347.2h24.801V372H0z"/><path fill="#8A8847" d="M24.801 347.2h24.802V372H24.8z"/><path fill="#F4F4C8" d="M24.801 347.2h24.802V372H24.8z"/><path fill="#FFE11E" d="M0 372h24.801v24.802H0z"/><path d="M0 396.802A24.801 24.801 0 0124.801 372v24.802" fill="#F4F4C8"/><path fill="#FFE11E" d="M24.801 372h24.802v24.802H24.8z"/><path d="M24.801 372a24.801 24.801 0 0024.802 24.802V372" fill="#FFE11E"/><path fill="#fcfcfc" d="M49.6 347.2h49.6v49.6H49.6z"/><path fill="#1C1C1C" d="M49.599 347.2H74.4V372H49.6z"/><path d="M49.599 372A24.801 24.801 0 0074.4 347.2H49.6" fill="#1C1C1C"/><path fill="#F4F4C8" d="M74.4 347.2h24.801V372h-24.8z"/><path d="M74.4 372a24.801 24.801 0 0124.801-24.8l-24.8 24.8a24.801 24.801 0 0024.8-24.8" fill="#1C1C1C"/><path fill="#F4F4C8" d="M49.599 372H74.4v24.802H49.6z"/><path d="M49.599 372A24.801 24.801 0 0074.4 396.802V372" fill="#8A8847"/><path fill="#FFE11E" d="M74.4 372h24.801v24.802h-24.8z"/><path fill="#F4F4C8" d="M74.4 372h24.801v24.802h-24.8z"/><path fill="#FFE11E" d="M99.201 347.2h49.6v49.598H99.2z"/><path fill="#1C1C1C" d="M99.201 347.2h49.6v49.598H99.2z"/><path fill="#8A8847" d="M148.8 347.2H198.4v49.598H148.8z"/><path fill="#F4F4C8" d="M148.8 347.2H198.4v49.598H148.8z"/><path fill="#FFE11E" d="M198.399 347.2h49.599v49.598h-49.6z"/><path d="M198.399 347.2a49.599 49.599 0 0149.599 49.598h-49.6" fill="#F4F4C8"/><path fill="#fcfcfc" d="M248 347.2h49.6v49.6H248z"/><path fill="#F4F4C8" d="M248.002 347.2h24.8V372h-24.8z"/><path d="M248.002 372a24.801 24.801 0 0124.8-24.8l-24.8 24.8a24.801 24.801 0 0024.8-24.8" fill="#1C1C1C"/><path fill="#1C1C1C" d="M272.799 347.2H297.6V372H272.8z"/><path d="M272.799 372a24.801 24.801 0 0024.801-24.8H272.8" fill="#8A8847"/><path fill="#F4F4C8" d="M248.002 372h24.8v24.802h-24.8z"/><path d="M248.002 372a24.801 24.801 0 0124.8 24.802h-24.8" fill="#1C1C1C"/><path fill="#1C1C1C" d="M272.799 372H297.6v24.802H272.8z"/><path fill="#8A8847" d="M272.799 372H297.6v24.802H272.8z"/><path fill="#fcfcfc" d="M297.6 347.2h49.6v49.6h-49.6z"/><path fill="#8A8847" d="M297.6 347.2h24.802V372H297.6z"/><path fill="#1C1C1C" d="M297.6 347.2h24.802V372H297.6z"/><path fill="#1C1C1C" d="M322.402 347.2h24.8V372h-24.8z"/><path fill="#FFE11E" d="M322.402 347.2h24.8V372h-24.8z"/><path fill="#1C1C1C" d="M297.6 372h24.802v24.802H297.6z"/><path fill="#8A8847" d="M297.6 372h24.802v24.802H297.6z"/><path fill="#8A8847" d="M322.402 372h24.8v24.802h-24.8z"/><path d="M322.402 372a24.801 24.801 0 0124.8 24.802L322.403 372a24.801 24.801 0 0024.8 24.802" fill="#8A8847"/><path fill="#FFE11E" d="M347.2 347.2h49.598v49.598h-49.599z"/><path d="M347.2 347.2a49.599 49.599 0 0149.598 49.598h-49.599" fill="#8A8847"/><path fill="#fcfcfc" d="M396.8 347.2h49.6v49.6h-49.6z"/><path fill="#1C1C1C" d="M396.802 347.2h24.801V372h-24.801z"/><path fill="#8A8847" d="M396.802 347.2h24.801V372h-24.801z"/><path fill="#F4F4C8" d="M421.6 347.2h24.8V372h-24.8z"/><path d="M421.6 372a24.801 24.801 0 0124.8-24.8V372" fill="#1C1C1C"/><path fill="#F4F4C8" d="M396.802 372h24.801v24.802h-24.801z"/><path d="M396.802 396.802A24.801 24.801 0 00421.603 372h-24.801" fill="#F4F4C8"/><path fill="#FFE11E" d="M421.6 372h24.8v24.802h-24.8z"/><path d="M421.6 396.802A24.801 24.801 0 00446.4 372h-24.8" fill="#F4F4C8"/><path fill="#1C1C1C" d="M446.4 347.2H496v49.598h-49.6z"/><path fill="#1C1C1C" d="M446.4 347.2H496v49.598h-49.6z"/><path fill="#1C1C1C" d="M496 347.2h49.598v49.598h-49.599z"/><path fill="#FFE11E" d="M496 347.2h49.598v49.598h-49.599z"/><path fill="#fcfcfc" d="M545.6 347.2h49.6v49.6h-49.6z"/><path fill="#8A8847" d="M545.602 347.2h24.801V372h-24.801z"/><path fill="#8A8847" d="M545.602 347.2h24.801V372h-24.801z"/><path fill="#8A8847" d="M570.4 347.2h24.8V372h-24.8z"/><path d="M570.4 372a24.801 24.801 0 0024.8-24.8h-24.8" fill="#1C1C1C"/><path fill="#FFE11E" d="M545.602 372h24.801v24.802h-24.801z"/><path d="M545.602 396.802A24.801 24.801 0 00570.403 372h-24.801" fill="#F4F4C8"/><path fill="#F4F4C8" d="M570.4 372h24.8v24.802h-24.8z"/><path d="M570.4 372a24.801 24.801 0 0024.8 24.802V372" fill="#FFE11E"/><path fill="#8A8847" d="M595.2 347.2h49.6v49.598h-49.6z"/><path fill="#1C1C1C" d="M595.2 347.2h49.6v49.598h-49.6z"/><path fill="#FFE11E" d="M644.8 347.2h49.598v49.598H644.8z"/><path d="M644.8 347.2a49.599 49.599 0 0049.598 49.598v-49.599" fill="#8A8847"/><path fill="#fcfcfc" d="M694.4 347.2H744v49.6h-49.6z"/><path fill="#FFE11E" d="M694.398 347.2H719.2V372h-24.8z"/><path d="M694.398 347.2A24.801 24.801 0 01719.2 372h-24.8" fill="#FFE11E"/><path fill="#8A8847" d="M719.2 347.2H744V372h-24.8z"/><path fill="#FFE11E" d="M719.2 347.2H744V372h-24.8zM694.398 372H719.2v24.802h-24.8z"/><path d="M694.398 372a24.801 24.801 0 0124.801 24.802h-24.8" fill="#F4F4C8"/><path fill="#1C1C1C" d="M719.2 372H744v24.802h-24.8z"/><path d="M719.2 372a24.801 24.801 0 0024.8 24.802V372" fill="#F4F4C8"/><path fill="#FFE11E" d="M744 347.2h49.6v49.598H744z"/><path d="M744 347.2a49.599 49.599 0 0149.6 49.598L744 347.199a49.599 49.599 0 0049.6 49.599" fill="#1C1C1C"/><path fill="#F4F4C8" d="M793.6 347.2h49.598v49.598H793.6z"/><path fill="#F4F4C8" d="M793.6 347.2h49.598v49.598H793.6z"/><path fill="#FFE11E" d="M843.198 347.2h49.6v49.598h-49.6z"/><path fill="#8A8847" d="M843.198 347.2h49.6v49.598h-49.6z"/><path fill="#fcfcfc" d="M892.8 347.2h49.6v49.6h-49.6z"/><path fill="#8A8847" d="M892.8 347.2h24.802V372h-24.801z"/><path d="M892.8 347.2a24.801 24.801 0 0124.802 24.8h-24.801" fill="#8A8847"/><path fill="#F4F4C8" d="M917.598 347.2H942.4V372h-24.802z"/><path d="M917.598 347.2A24.801 24.801 0 01942.4 372h-24.802" fill="#FFE11E"/><path fill="#1C1C1C" d="M892.8 372h24.802v24.802h-24.801z"/><path d="M892.8 396.802A24.801 24.801 0 01917.603 372l-24.801 24.802A24.801 24.801 0 00917.602 372" fill="#1C1C1C"/><path fill="#FFE11E" d="M917.598 372H942.4v24.802h-24.802z"/><path fill="#FFE11E" d="M917.598 372H942.4v24.802h-24.802z"/><path fill="#fcfcfc" d="M942.4 347.2H992v49.6h-49.6z"/><path fill="#FFE11E" d="M942.4 347.2H967.2V372H942.4z"/><path d="M942.4 372a24.801 24.801 0 0124.801-24.8V372M967.201 347.2h24.801V372h-24.801z" fill="#FFE11E"/><path fill="#8A8847" d="M967.201 347.2h24.801V372h-24.801z"/><path fill="#FFE11E" d="M942.4 372H967.2v24.802H942.4z"/><path fill="#F4F4C8" d="M942.4 372H967.2v24.802H942.4z"/><path fill="#FFE11E" d="M967.201 372h24.801v24.802h-24.801z"/><path d="M967.201 396.802A24.801 24.801 0 01992.002 372l-24.801 24.802A24.801 24.801 0 00992.002 372" fill="#F4F4C8"/><path fill="#FFE11E" d="M991.998 347.2h49.6v49.598h-49.6z"/><path d="M991.998 396.798a49.599 49.599 0 0049.6-49.599h-49.6M1041.601 347.2h49.599v49.598H1041.6z" fill="#F4F4C8"/><path d="M1041.601 347.2a49.599 49.599 0 0149.599 49.598l-49.599-49.599a49.599 49.599 0 0049.599 49.599" fill="#FFE11E"/><path fill="#fcfcfc" d="M1091.2 347.2h49.6v49.6h-49.6z"/><path fill="#8A8847" d="M1091.2 347.2H1116V372H1091.2z"/><path d="M1091.2 372A24.801 24.801 0 011116 347.2V372" fill="#FFE11E"/><path fill="#8A8847" d="M1116.001 347.2h24.801V372h-24.8z"/><path d="M1116.001 347.2a24.801 24.801 0 0124.801 24.8h-24.8M1091.2 372H1116v24.802H1091.2z" fill="#F4F4C8"/><path d="M1091.2 396.802A24.801 24.801 0 011116 372v24.802" fill="#1C1C1C"/><path fill="#8A8847" d="M1116.001 372h24.801v24.802h-24.8z"/><path d="M1116.001 396.802A24.801 24.801 0 001140.802 372h-24.8" fill="#8A8847"/><path fill="#fcfcfc" d="M1140.8 347.2h49.6v49.6h-49.6z"/><path fill="#8A8847" d="M1140.799 347.2h24.8V372h-24.8z"/><path fill="#FFE11E" d="M1140.799 347.2h24.8V372h-24.8zM1165.6 347.2h24.801V372H1165.6z"/><path d="M1165.6 372a24.801 24.801 0 0124.801-24.8V372" fill="#FFE11E"/><path fill="#8A8847" d="M1140.799 372h24.8v24.802h-24.8z"/><path d="M1140.799 396.802a24.801 24.801 0 0124.8-24.802l-24.8 24.802a24.801 24.801 0 0024.8-24.802" fill="#8A8847"/><path fill="#1C1C1C" d="M1165.6 372h24.801v24.802H1165.6z"/><path fill="#F4F4C8" d="M1165.6 372h24.801v24.802H1165.6z"/><path fill="#fcfcfc" d="M1190.4 347.2h49.6v49.6h-49.6z"/><path fill="#F4F4C8" d="M1190.401 347.2h24.802V372H1190.4z"/><path d="M1190.401 372a24.801 24.801 0 0124.802-24.8V372" fill="#F4F4C8"/><path fill="#1C1C1C" d="M1215.199 347.2H1240V372h-24.801z"/><path fill="#FFE11E" d="M1215.199 347.2H1240V372h-24.801z"/><path fill="#1C1C1C" d="M1190.401 372h24.802v24.802H1190.4z"/><path d="M1190.401 396.802A24.801 24.801 0 011215.203 372v24.802" fill="#8A8847"/><path fill="#FFE11E" d="M1215.199 372H1240v24.802h-24.801z"/><path fill="#FFE11E" d="M1215.199 372H1240v24.802h-24.801z"/></svg>
