<?xml version="1.0" standalone="no"?><svg xmlns:xlink="http://www.w3.org/1999/xlink" xmlns="http://www.w3.org/2000/svg" viewBox="0 0 1240 396.797869500787" preserveAspectRatio="xMaxYMax slice"><g transform="scale(0.38044628804079367)"><rect x="0" y="0" width="3259.33" height="1042.9856" fill="#fcfcfc"/><rect x="0" y="0" width="130.3732" height="130.3732" fill="#fcfcfc"/><rect x="0" y="0" width="65.19" height="65.19" fill="#1C1C1C"/><rect x="0" y="0" width="65.19" height="65.19" fill="#FFE11E"/><rect x="65.19" y="0" width="65.19" height="65.19" fill="#F4F4C8"/><rect x="65.19" y="0" width="65.19" height="65.19" fill="#FFE11E"/><rect x="0" y="65.19" width="65.19" height="65.19" fill="#8A8847"/><path d="M 0 130.38 A 65.19 65.19 0 0 0 65.19 65.19 L 0 65.19" fill="#FFE11E"/><rect x="65.19" y="65.19" width="65.19" height="65.19" fill="#F4F4C8"/><rect x="65.19" y="65.19" width="65.19" height="65.19" fill="#F4F4C8"/><rect x="130.37" y="0" width="130.37" height="130.37" fill="#FFE11E"/><rect x="130.37" y="0" width="130.37" height="130.37" fill="#8A8847"/><rect x="260.7464" y="0" width="130.3732" height="130.3732" fill="#fcfcfc"/><rect x="260.75" y="0" width="65.19" height="65.19" fill="#1C1C1C"/><rect x="260.75" y="0" width="65.19" height="65.19" fill="#FFE11E"/><rect x="325.93" y="0" width="65.19" height="65.19" fill="#F4F4C8"/><rect x="325.93" y="0" width="65.19" height="65.19" fill="#FFE11E"/><rect x="260.75" y="65.19" width="65.19" height="65.19" fill="#FFE11E"/><rect x="260.75" y="65.19" width="65.19" height="65.19" fill="#8A8847"/><rect x="325.93" y="65.19" width="65.19" height="65.19" fill="#8A8847"/><path d="M 325.93 65.19 A 65.19 65.19 0 0 1 391.12 130.38 L 325.93 130.38" fill="#FFE11E"/><rect x="391.12" y="0" width="130.37" height="130.37" fill="#1C1C1C"/><path d="M 391.12 130.37 A 130.37 130.37 0 0 1  521.49 0 L 391.12 130.37 A 130.37 130.37 0 0 0 521.49 0" fill="#FFE11E"/><rect x="521.49" y="0" width="130.37" height="130.37" fill="#8A8847"/><rect x="521.49" y="0" width="130.37" height="130.37" fill="#8A8847"/><rect x="651.866" y="0" width="130.3732" height="130.3732" fill="#fcfcfc"/><rect x="651.87" y="0" width="65.19" height="65.19" fill="#F4F4C8"/><path d="M 651.87 65.19 A 65.19 65.19 0 0 1  717.06 0 L 651.87 65.19 A 65.19 65.19 0 0 0 717.06 0" fill="#FFE11E"/><rect x="717.05" y="0" width="65.19" height="65.19" fill="#8A8847"/><path d="M 717.05 65.19 A 65.19 65.19 0 0 1  782.24 0 L 782.24 65.19" fill="#8A8847"/><rect x="651.87" y="65.19" width="65.19" height="65.19" fill="#8A8847"/><path d="M 651.87 130.38 A 65.19 65.19 0 0 1  717.06 65.19 L 651.87 130.38 A 65.19 65.19 0 0 0 717.06 65.19" fill="#1C1C1C"/><rect x="717.05" y="65.19" width="65.19" height="65.19" fill="#1C1C1C"/><path d="M 717.05 65.19 A 65.19 65.19 0 0 0 782.24 130.38 L 782.24 65.19" fill="#1C1C1C"/><rect x="782.2392" y="0" width="130.3732" height="130.3732" fill="#fcfcfc"/><rect x="782.24" y="0" width="65.19" height="65.19" fill="#8A8847"/><rect x="782.24" y="0" width="65.19" height="65.19" fill="#FFE11E"/><rect x="847.43" y="0" width="65.19" height="65.19" fill="#8A8847"/><rect x="847.43" y="0" width="65.19" height="65.19" fill="#1C1C1C"/><rect x="782.24" y="65.19" width="65.19" height="65.19" fill="#F4F4C8"/><rect x="782.24" y="65.19" width="65.19" height="65.19" fill="#F4F4C8"/><rect x="847.43" y="65.19" width="65.19" height="65.19" fill="#F4F4C8"/><path d="M 847.43 130.38 A 65.19 65.19 0 0 1  912.6199999999999 65.19 L 847.43 130.38 A 65.19 65.19 0 0 0 912.6199999999999 65.19" fill="#1C1C1C"/><rect x="912.61" y="0" width="130.37" height="130.37" fill="#F4F4C8"/><rect x="912.61" y="0" width="130.37" height="130.37" fill="#FFE11E"/><rect x="1042.99" y="0" width="130.37" height="130.37" fill="#FFE11E"/><path d="M 1042.99 0 A 130.37 130.37 0 0 0 1173.3600000000001 130.37 L 1173.3600000000001 0" fill="#F4F4C8"/><rect x="1173.36" y="0" width="130.37" height="130.37" fill="#F4F4C8"/><path d="M 1173.36 0 A 130.37 130.37 0 0 1 1303.73 130.37 L 1173.36 130.37" fill="#1C1C1C"/><rect x="1303.73" y="0" width="130.37" height="130.37" fill="#FFE11E"/><path d="M 1303.73 130.37 A 130.37 130.37 0 0 1  1434.1 0 L 1303.73 130.37 A 130.37 130.37 0 0 0 1434.1 0" fill="#F4F4C8"/><rect x="1434.11" y="0" width="130.37" height="130.37" fill="#F4F4C8"/><rect x="1434.11" y="0" width="130.37" height="130.37" fill="#FFE11E"/><rect x="1564.48" y="0" width="130.37" height="130.37" fill="#8A8847"/><path d="M 1564.48 0 A 130.37 130.37 0 0 1  1694.85 130.37 L 1564.48 0 A 130.37 130.37 0 0 0 1694.85 130.37" fill="#8A8847"/><rect x="1694.8516" y="0" width="130.3732" height="130.3732" fill="#fcfcfc"/><rect x="1694.85" y="0" width="65.19" height="65.19" fill="#F4F4C8"/><path d="M 1694.85 65.19 A 65.19 65.19 0 0 1  1760.04 0 L 1694.85 65.19 A 65.19 65.19 0 0 0 1760.04 0" fill="#FFE11E"/><rect x="1760.04" y="0" width="65.19" height="65.19" fill="#F4F4C8"/><path d="M 1760.04 0 A 65.19 65.19 0 0 0 1825.23 65.19 L 1825.23 0" fill="#8A8847"/><rect x="1694.85" y="65.19" width="65.19" height="65.19" fill="#1C1C1C"/><path d="M 1694.85 65.19 A 65.19 65.19 0 0 0 1760.04 130.38 L 1760.04 65.19" fill="#1C1C1C"/><rect x="1760.04" y="65.19" width="65.19" height="65.19" fill="#FFE11E"/><rect x="1760.04" y="65.19" width="65.19" height="65.19" fill="#F4F4C8"/><rect x="1825.2248" y="0" width="130.3732" height="130.3732" fill="#fcfcfc"/><rect x="1825.22" y="0" width="65.19" height="65.19" fill="#1C1C1C"/><path d="M 1825.22 65.19 A 65.19 65.19 0 0 1  1890.41 0 L 1825.22 65.19 A 65.19 65.19 0 0 0 1890.41 0" fill="#F4F4C8"/><rect x="1890.41" y="0" width="65.19" height="65.19" fill="#1C1C1C"/><path d="M 1890.41 0 A 65.19 65.19 0 0 1 1955.6000000000001 65.19 L 1890.41 65.19" fill="#8A8847"/><rect x="1825.22" y="65.19" width="65.19" height="65.19" fill="#FFE11E"/><path d="M 1825.22 65.19 A 65.19 65.19 0 0 1 1890.41 130.38 L 1825.22 130.38" fill="#F4F4C8"/><rect x="1890.41" y="65.19" width="65.19" height="65.19" fill="#1C1C1C"/><rect x="1890.41" y="65.19" width="65.19" height="65.19" fill="#FFE11E"/><rect x="1955.598" y="0" width="130.3732" height="130.3732" fill="#fcfcfc"/><rect x="1955.6" y="0" width="65.19" height="65.19" fill="#8A8847"/><path d="M 1955.6 0 A 65.19 65.19 0 0 0 2020.79 65.19 L 2020.79 0" fill="#1C1C1C"/><rect x="2020.78" y="0" width="65.19" height="65.19" fill="#FFE11E"/><rect x="2020.78" y="0" width="65.19" height="65.19" fill="#8A8847"/><rect x="1955.6" y="65.19" width="65.19" height="65.19" fill="#F4F4C8"/><path d="M 1955.6 130.38 A 65.19 65.19 0 0 0 2020.79 65.19 L 1955.6 65.19" fill="#1C1C1C"/><rect x="2020.78" y="65.19" width="65.19" height="65.19" fill="#F4F4C8"/><rect x="2020.78" y="65.19" width="65.19" height="65.19" fill="#8A8847"/><rect x="2085.9712" y="0" width="130.3732" height="130.3732" fill="#fcfcfc"/><rect x="2085.97" y="0" width="65.19" height="65.19" fill="#8A8847"/><path d="M 2085.97 65.19 A 65.19 65.19 0 0 1  2151.16 0 L 2085.97 65.19 A 65.19 65.19 0 0 0 2151.16 0" fill="#FFE11E"/><rect x="2151.16" y="0" width="65.19" height="65.19" fill="#8A8847"/><rect x="2151.16" y="0" width="65.19" height="65.19" fill="#8A8847"/><rect x="2085.97" y="65.19" width="65.19" height="65.19" fill="#8A8847"/><rect x="2085.97" y="65.19" width="65.19" height="65.19" fill="#8A8847"/><rect x="2151.16" y="65.19" width="65.19" height="65.19" fill="#F4F4C8"/><path d="M 2151.16 130.38 A 65.19 65.19 0 0 0 2216.35 65.19 L 2151.16 65.19" fill="#FFE11E"/><rect x="2216.3444" y="0" width="130.3732" height="130.3732" fill="#fcfcfc"/><rect x="2216.34" y="0" width="65.19" height="65.19" fill="#1C1C1C"/><rect x="2216.34" y="0" width="65.19" height="65.19" fill="#F4F4C8"/><rect x="2281.53" y="0" width="65.19" height="65.19" fill="#F4F4C8"/><path d="M 2281.53 0 A 65.19 65.19 0 0 1  2346.7200000000003 65.19 L 2281.53 0 A 65.19 65.19 0 0 0 2346.7200000000003 65.19" fill="#F4F4C8"/><rect x="2216.34" y="65.19" width="65.19" height="65.19" fill="#8A8847"/><path d="M 2216.34 130.38 A 65.19 65.19 0 0 0 2281.53 65.19 L 2216.34 65.19" fill="#FFE11E"/><rect x="2281.53" y="65.19" width="65.19" height="65.19" fill="#1C1C1C"/><path d="M 2281.53 130.38 A 65.19 65.19 0 0 1  2346.7200000000003 65.19 L 2281.53 130.38 A 65.19 65.19 0 0 0 2346.7200000000003 65.19" fill="#8A8847"/><rect x="2346.72" y="0" width="130.37" height="130.37" fill="#1C1C1C"/><rect x="2346.72" y="0" width="130.37" height="130.37" fill="#FFE11E"/><rect x="2477.0908" y="0" width="130.3732" height="130.3732" fill="#fcfcfc"/><rect x="2477.09" y="0" width="65.19" height="65.19" fill="#F4F4C8"/><path d="M 2477.09 65.19 A 65.19 65.19 0 0 1  2542.28 0 L 2542.28 65.19" fill="#FFE11E"/><rect x="2542.28" y="0" width="65.19" height="65.19" fill="#FFE11E"/><rect x="2542.28" y="0" width="65.19" height="65.19" fill="#8A8847"/><rect x="2477.09" y="65.19" width="65.19" height="65.19" fill="#1C1C1C"/><rect x="2477.09" y="65.19" width="65.19" height="65.19" fill="#F4F4C8"/><rect x="2542.28" y="65.19" width="65.19" height="65.19" fill="#F4F4C8"/><path d="M 2542.28 65.19 A 65.19 65.19 0 0 1 2607.4700000000003 130.38 L 2542.28 130.38" fill="#8A8847"/><rect x="2607.46" y="0" width="130.37" height="130.37" fill="#FFE11E"/><path d="M 2607.46 130.37 A 130.37 130.37 0 0 1  2737.83 0 L 2737.83 130.37" fill="#8A8847"/><rect x="2737.8372" y="0" width="130.3732" height="130.3732" fill="#fcfcfc"/><rect x="2737.84" y="0" width="65.19" height="65.19" fill="#8A8847"/><path d="M 2737.84 65.19 A 65.19 65.19 0 0 0 2803.03 0 L 2737.84 0" fill="#8A8847"/><rect x="2803.02" y="0" width="65.19" height="65.19" fill="#FFE11E"/><path d="M 2803.02 65.19 A 65.19 65.19 0 0 0 2868.21 0 L 2803.02 0" fill="#F4F4C8"/><rect x="2737.84" y="65.19" width="65.19" height="65.19" fill="#F4F4C8"/><path d="M 2737.84 65.19 A 65.19 65.19 0 0 0 2803.03 130.38 L 2803.03 65.19" fill="#1C1C1C"/><rect x="2803.02" y="65.19" width="65.19" height="65.19" fill="#8A8847"/><rect x="2803.02" y="65.19" width="65.19" height="65.19" fill="#F4F4C8"/><rect x="2868.2104" y="0" width="130.3732" height="130.3732" fill="#fcfcfc"/><rect x="2868.21" y="0" width="65.19" height="65.19" fill="#FFE11E"/><rect x="2868.21" y="0" width="65.19" height="65.19" fill="#1C1C1C"/><rect x="2933.4" y="0" width="65.19" height="65.19" fill="#1C1C1C"/><path d="M 2933.4 65.19 A 65.19 65.19 0 0 1  2998.59 0 L 2998.59 65.19" fill="#1C1C1C"/><rect x="2868.21" y="65.19" width="65.19" height="65.19" fill="#F4F4C8"/><rect x="2868.21" y="65.19" width="65.19" height="65.19" fill="#1C1C1C"/><rect x="2933.4" y="65.19" width="65.19" height="65.19" fill="#FFE11E"/><rect x="2933.4" y="65.19" width="65.19" height="65.19" fill="#FFE11E"/><rect x="2998.5836" y="0" width="130.3732" height="130.3732" fill="#fcfcfc"/><rect x="2998.58" y="0" width="65.19" height="65.19" fill="#FFE11E"/><rect x="2998.58" y="0" width="65.19" height="65.19" fill="#1C1C1C"/><rect x="3063.77" y="0" width="65.19" height="65.19" fill="#8A8847"/><rect x="3063.77" y="0" width="65.19" height="65.19" fill="#FFE11E"/><rect x="2998.58" y="65.19" width="65.19" height="65.19" fill="#8A8847"/><rect x="2998.58" y="65.19" width="65.19" height="65.19" fill="#1C1C1C"/><rect x="3063.77" y="65.19" width="65.19" height="65.19" fill="#FFE11E"/><path d="M 3063.77 130.38 A 65.19 65.19 0 0 1  3128.96 65.19 L 3063.77 130.38 A 65.19 65.19 0 0 0 3128.96 65.19" fill="#F4F4C8"/><rect x="3128.96" y="0" width="130.37" height="130.37" fill="#8A8847"/><path d="M 3128.96 130.37 A 130.37 130.37 0 0 0 3259.33 0 L 3128.96 0" fill="#F4F4C8"/><rect x="0" y="130.3732" width="130.3732" height="130.3732" fill="#fcfcfc"/><rect x="0" y="130.37" width="65.19" height="65.19" fill="#8A8847"/><path d="M 0 195.56 A 65.19 65.19 0 0 0 65.19 130.37 L 0 130.37" fill="#8A8847"/><rect x="65.19" y="130.37" width="65.19" height="65.19" fill="#8A8847"/><path d="M 65.19 130.37 A 65.19 65.19 0 0 1 130.38 195.56 L 65.19 195.56" fill="#1C1C1C"/><rect x="0" y="195.56" width="65.19" height="65.19" fill="#FFE11E"/><rect x="0" y="195.56" width="65.19" height="65.19" fill="#8A8847"/><rect x="65.19" y="195.56" width="65.19" height="65.19" fill="#F4F4C8"/><path d="M 65.19 260.75 A 65.19 65.19 0 0 0 130.38 195.56 L 65.19 195.56" fill="#1C1C1C"/><rect x="130.37" y="130.37" width="130.37" height="130.37" fill="#F4F4C8"/><path d="M 130.37 260.74 A 130.37 130.37 0 0 1  260.74 130.37 L 130.37 260.74 A 130.37 130.37 0 0 0 260.74 130.37" fill="#8A8847"/><rect x="260.7464" y="130.3732" width="130.3732" height="130.3732" fill="#fcfcfc"/><rect x="260.75" y="130.37" width="65.19" height="65.19" fill="#F4F4C8"/><rect x="260.75" y="130.37" width="65.19" height="65.19" fill="#1C1C1C"/><rect x="325.93" y="130.37" width="65.19" height="65.19" fill="#FFE11E"/><rect x="325.93" y="130.37" width="65.19" height="65.19" fill="#1C1C1C"/><rect x="260.75" y="195.56" width="65.19" height="65.19" fill="#FFE11E"/><rect x="260.75" y="195.56" width="65.19" height="65.19" fill="#FFE11E"/><rect x="325.93" y="195.56" width="65.19" height="65.19" fill="#F4F4C8"/><rect x="325.93" y="195.56" width="65.19" height="65.19" fill="#1C1C1C"/><rect x="391.12" y="130.37" width="130.37" height="130.37" fill="#F4F4C8"/><path d="M 391.12 260.74 A 130.37 130.37 0 0 1  521.49 130.37 L 391.12 260.74 A 130.37 130.37 0 0 0 521.49 130.37" fill="#8A8847"/><rect x="521.49" y="130.37" width="130.37" height="130.37" fill="#8A8847"/><rect x="521.49" y="130.37" width="130.37" height="130.37" fill="#F4F4C8"/><rect x="651.87" y="130.37" width="130.37" height="130.37" fill="#F4F4C8"/><path d="M 651.87 260.74 A 130.37 130.37 0 0 1  782.24 130.37 L 782.24 260.74" fill="#F4F4C8"/><rect x="782.2392" y="130.3732" width="130.3732" height="130.3732" fill="#fcfcfc"/><rect x="782.24" y="130.37" width="65.19" height="65.19" fill="#F4F4C8"/><path d="M 782.24 195.56 A 65.19 65.19 0 0 1  847.4300000000001 130.37 L 847.4300000000001 195.56" fill="#FFE11E"/><rect x="847.43" y="130.37" width="65.19" height="65.19" fill="#FFE11E"/><path d="M 847.43 195.56 A 65.19 65.19 0 0 0 912.6199999999999 130.37 L 847.43 130.37" fill="#F4F4C8"/><rect x="782.24" y="195.56" width="65.19" height="65.19" fill="#8A8847"/><rect x="782.24" y="195.56" width="65.19" height="65.19" fill="#FFE11E"/><rect x="847.43" y="195.56" width="65.19" height="65.19" fill="#8A8847"/><path d="M 847.43 260.75 A 65.19 65.19 0 0 0 912.6199999999999 195.56 L 847.43 195.56" fill="#F4F4C8"/><rect x="912.6124" y="130.3732" width="130.3732" height="130.3732" fill="#fcfcfc"/><rect x="912.61" y="130.37" width="65.19" height="65.19" fill="#1C1C1C"/><rect x="912.61" y="130.37" width="65.19" height="65.19" fill="#1C1C1C"/><rect x="977.8" y="130.37" width="65.19" height="65.19" fill="#1C1C1C"/><rect x="977.8" y="130.37" width="65.19" height="65.19" fill="#FFE11E"/><rect x="912.61" y="195.56" width="65.19" height="65.19" fill="#8A8847"/><path d="M 912.61 260.75 A 65.19 65.19 0 0 0 977.8 195.56 L 912.61 195.56" fill="#1C1C1C"/><rect x="977.8" y="195.56" width="65.19" height="65.19" fill="#F4F4C8"/><path d="M 977.8 195.56 A 65.19 65.19 0 0 0 1042.99 260.75 L 1042.99 195.56" fill="#1C1C1C"/><rect x="1042.99" y="130.37" width="130.37" height="130.37" fill="#1C1C1C"/><rect x="1042.99" y="130.37" width="130.37" height="130.37" fill="#F4F4C8"/><rect x="1173.36" y="130.37" width="130.37" height="130.37" fill="#1C1C1C"/><rect x="1173.36" y="130.37" width="130.37" height="130.37" fill="#8A8847"/><rect x="1303.732" y="130.3732" width="130.3732" height="130.3732" fill="#fcfcfc"/><rect x="1303.73" y="130.37" width="65.19" height="65.19" fill="#1C1C1C"/><rect x="1303.73" y="130.37" width="65.19" height="65.19" fill="#F4F4C8"/><rect x="1368.92" y="130.37" width="65.19" height="65.19" fill="#FFE11E"/><rect x="1368.92" y="130.37" width="65.19" height="65.19" fill="#8A8847"/><rect x="1303.73" y="195.56" width="65.19" height="65.19" fill="#8A8847"/><rect x="1303.73" y="195.56" width="65.19" height="65.19" fill="#F4F4C8"/><rect x="1368.92" y="195.56" width="65.19" height="65.19" fill="#FFE11E"/><path d="M 1368.92 195.56 A 65.19 65.19 0 0 1 1434.1100000000001 260.75 L 1368.92 260.75" fill="#8A8847"/><rect x="1434.11" y="130.37" width="130.37" height="130.37" fill="#F4F4C8"/><path d="M 1434.11 260.74 A 130.37 130.37 0 0 0 1564.48 130.37 L 1434.11 130.37" fill="#FFE11E"/><rect x="1564.48" y="130.37" width="130.37" height="130.37" fill="#F4F4C8"/><path d="M 1564.48 130.37 A 130.37 130.37 0 0 1 1694.85 260.74 L 1564.48 260.74" fill="#1C1C1C"/><rect x="1694.85" y="130.37" width="130.37" height="130.37" fill="#1C1C1C"/><path d="M 1694.85 260.74 A 130.37 130.37 0 0 0 1825.2199999999998 130.37 L 1694.85 130.37" fill="#8A8847"/><rect x="1825.22" y="130.37" width="130.37" height="130.37" fill="#F4F4C8"/><path d="M 1825.22 130.37 A 130.37 130.37 0 0 1  1955.5900000000001 260.74 L 1825.22 130.37 A 130.37 130.37 0 0 0 1955.5900000000001 260.74" fill="#FFE11E"/><rect x="1955.598" y="130.3732" width="130.3732" height="130.3732" fill="#fcfcfc"/><rect x="1955.6" y="130.37" width="65.19" height="65.19" fill="#8A8847"/><rect x="1955.6" y="130.37" width="65.19" height="65.19" fill="#FFE11E"/><rect x="2020.78" y="130.37" width="65.19" height="65.19" fill="#1C1C1C"/><path d="M 2020.78 130.37 A 65.19 65.19 0 0 1  2085.97 195.56 L 2020.78 130.37 A 65.19 65.19 0 0 0 2085.97 195.56" fill="#8A8847"/><rect x="1955.6" y="195.56" width="65.19" height="65.19" fill="#FFE11E"/><rect x="1955.6" y="195.56" width="65.19" height="65.19" fill="#F4F4C8"/><rect x="2020.78" y="195.56" width="65.19" height="65.19" fill="#FFE11E"/><path d="M 2020.78 260.75 A 65.19 65.19 0 0 0 2085.97 195.56 L 2020.78 195.56" fill="#F4F4C8"/><rect x="2085.9712" y="130.3732" width="130.3732" height="130.3732" fill="#fcfcfc"/><rect x="2085.97" y="130.37" width="65.19" height="65.19" fill="#FFE11E"/><rect x="2085.97" y="130.37" width="65.19" height="65.19" fill="#1C1C1C"/><rect x="2151.16" y="130.37" width="65.19" height="65.19" fill="#F4F4C8"/><rect x="2151.16" y="130.37" width="65.19" height="65.19" fill="#1C1C1C"/><rect x="2085.97" y="195.56" width="65.19" height="65.19" fill="#1C1C1C"/><path d="M 2085.97 195.56 A 65.19 65.19 0 0 1 2151.16 260.75 L 2085.97 260.75" fill="#8A8847"/><rect x="2151.16" y="195.56" width="65.19" height="65.19" fill="#F4F4C8"/><path d="M 2151.16 260.75 A 65.19 65.19 0 0 1  2216.35 195.56 L 2216.35 260.75" fill="#1C1C1C"/><rect x="2216.34" y="130.37" width="130.37" height="130.37" fill="#1C1C1C"/><rect x="2216.34" y="130.37" width="130.37" height="130.37" fill="#F4F4C8"/><rect x="2346.7176" y="130.3732" width="130.3732" height="130.3732" fill="#fcfcfc"/><rect x="2346.72" y="130.37" width="65.19" height="65.19" fill="#FFE11E"/><path d="M 2346.72 195.56 A 65.19 65.19 0 0 1  2411.91 130.37 L 2411.91 195.56" fill="#F4F4C8"/><rect x="2411.9" y="130.37" width="65.19" height="65.19" fill="#8A8847"/><rect x="2411.9" y="130.37" width="65.19" height="65.19" fill="#FFE11E"/><rect x="2346.72" y="195.56" width="65.19" height="65.19" fill="#FFE11E"/><rect x="2346.72" y="195.56" width="65.19" height="65.19" fill="#1C1C1C"/><rect x="2411.9" y="195.56" width="65.19" height="65.19" fill="#FFE11E"/><path d="M 2411.9 260.75 A 65.19 65.19 0 0 1  2477.09 195.56 L 2411.9 260.75 A 65.19 65.19 0 0 0 2477.09 195.56" fill="#F4F4C8"/><rect x="2477.09" y="130.37" width="130.37" height="130.37" fill="#1C1C1C"/><path d="M 2477.09 130.37 A 130.37 130.37 0 0 1  2607.46 260.74 L 2477.09 130.37 A 130.37 130.37 0 0 0 2607.46 260.74" fill="#FFE11E"/><rect x="2607.46" y="130.37" width="130.37" height="130.37" fill="#8A8847"/><path d="M 2607.46 130.37 A 130.37 130.37 0 0 1  2737.83 260.74 L 2607.46 130.37 A 130.37 130.37 0 0 0 2737.83 260.74" fill="#1C1C1C"/><rect x="2737.84" y="130.37" width="130.37" height="130.37" fill="#FFE11E"/><rect x="2737.84" y="130.37" width="130.37" height="130.37" fill="#8A8847"/><rect x="2868.2104" y="130.3732" width="130.3732" height="130.3732" fill="#fcfcfc"/><rect x="2868.21" y="130.37" width="65.19" height="65.19" fill="#F4F4C8"/><path d="M 2868.21 195.56 A 65.19 65.19 0 0 1  2933.4 130.37 L 2933.4 195.56" fill="#F4F4C8"/><rect x="2933.4" y="130.37" width="65.19" height="65.19" fill="#FFE11E"/><rect x="2933.4" y="130.37" width="65.19" height="65.19" fill="#F4F4C8"/><rect x="2868.21" y="195.56" width="65.19" height="65.19" fill="#1C1C1C"/><rect x="2868.21" y="195.56" width="65.19" height="65.19" fill="#8A8847"/><rect x="2933.4" y="195.56" width="65.19" height="65.19" fill="#8A8847"/><path d="M 2933.4 195.56 A 65.19 65.19 0 0 0 2998.59 260.75 L 2998.59 195.56" fill="#8A8847"/><rect x="2998.5836" y="130.3732" width="130.3732" height="130.3732" fill="#fcfcfc"/><rect x="2998.58" y="130.37" width="65.19" height="65.19" fill="#FFE11E"/><rect x="2998.58" y="130.37" width="65.19" height="65.19" fill="#FFE11E"/><rect x="3063.77" y="130.37" width="65.19" height="65.19" fill="#8A8847"/><rect x="3063.77" y="130.37" width="65.19" height="65.19" fill="#F4F4C8"/><rect x="2998.58" y="195.56" width="65.19" height="65.19" fill="#8A8847"/><rect x="2998.58" y="195.56" width="65.19" height="65.19" fill="#F4F4C8"/><rect x="3063.77" y="195.56" width="65.19" height="65.19" fill="#8A8847"/><path d="M 3063.77 260.75 A 65.19 65.19 0 0 1  3128.96 195.56 L 3128.96 260.75" fill="#1C1C1C"/><rect x="3128.9568" y="130.3732" width="130.3732" height="130.3732" fill="#fcfcfc"/><rect x="3128.96" y="130.37" width="65.19" height="65.19" fill="#F4F4C8"/><rect x="3128.96" y="130.37" width="65.19" height="65.19" fill="#1C1C1C"/><rect x="3194.14" y="130.37" width="65.19" height="65.19" fill="#1C1C1C"/><rect x="3194.14" y="130.37" width="65.19" height="65.19" fill="#FFE11E"/><rect x="3128.96" y="195.56" width="65.19" height="65.19" fill="#F4F4C8"/><path d="M 3128.96 195.56 A 65.19 65.19 0 0 0 3194.15 260.75 L 3194.15 195.56" fill="#1C1C1C"/><rect x="3194.14" y="195.56" width="65.19" height="65.19" fill="#8A8847"/><path d="M 3194.14 260.75 A 65.19 65.19 0 0 0 3259.33 195.56 L 3194.14 195.56" fill="#F4F4C8"/><rect x="0" y="260.7464" width="130.3732" height="130.3732" fill="#fcfcfc"/><rect x="0" y="260.75" width="65.19" height="65.19" fill="#8A8847"/><path d="M 0 260.75 A 65.19 65.19 0 0 0 65.19 325.94 L 65.19 260.75" fill="#F4F4C8"/><rect x="65.19" y="260.75" width="65.19" height="65.19" fill="#F4F4C8"/><rect x="65.19" y="260.75" width="65.19" height="65.19" fill="#FFE11E"/><rect x="0" y="325.93" width="65.19" height="65.19" fill="#1C1C1C"/><rect x="0" y="325.93" width="65.19" height="65.19" fill="#1C1C1C"/><rect x="65.19" y="325.93" width="65.19" height="65.19" fill="#1C1C1C"/><rect x="65.19" y="325.93" width="65.19" height="65.19" fill="#F4F4C8"/><rect x="130.3732" y="260.7464" width="130.3732" height="130.3732" fill="#fcfcfc"/><rect x="130.37" y="260.75" width="65.19" height="65.19" fill="#8A8847"/><rect x="130.37" y="260.75" width="65.19" height="65.19" fill="#FFE11E"/><rect x="195.56" y="260.75" width="65.19" height="65.19" fill="#1C1C1C"/><rect x="195.56" y="260.75" width="65.19" height="65.19" fill="#FFE11E"/><rect x="130.37" y="325.93" width="65.19" height="65.19" fill="#8A8847"/><path d="M 130.37 391.12 A 65.19 65.19 0 0 1  195.56 325.93 L 130.37 391.12 A 65.19 65.19 0 0 0 195.56 325.93" fill="#1C1C1C"/><rect x="195.56" y="325.93" width="65.19" height="65.19" fill="#1C1C1C"/><rect x="195.56" y="325.93" width="65.19" height="65.19" fill="#8A8847"/><rect x="260.7464" y="260.7464" width="130.3732" height="130.3732" fill="#fcfcfc"/><rect x="260.75" y="260.75" width="65.19" height="65.19" fill="#FFE11E"/><rect x="260.75" y="260.75" width="65.19" height="65.19" fill="#FFE11E"/><rect x="325.93" y="260.75" width="65.19" height="65.19" fill="#8A8847"/><rect x="325.93" y="260.75" width="65.19" height="65.19" fill="#FFE11E"/><rect x="260.75" y="325.93" width="65.19" height="65.19" fill="#FFE11E"/><rect x="260.75" y="325.93" width="65.19" height="65.19" fill="#8A8847"/><rect x="325.93" y="325.93" width="65.19" height="65.19" fill="#8A8847"/><rect x="325.93" y="325.93" width="65.19" height="65.19" fill="#FFE11E"/><rect x="391.12" y="260.75" width="130.37" height="130.37" fill="#FFE11E"/><path d="M 391.12 260.75 A 130.37 130.37 0 0 0 521.49 391.12 L 521.49 260.75" fill="#F4F4C8"/><rect x="521.4928" y="260.7464" width="130.3732" height="130.3732" fill="#fcfcfc"/><rect x="521.49" y="260.75" width="65.19" height="65.19" fill="#1C1C1C"/><rect x="521.49" y="260.75" width="65.19" height="65.19" fill="#F4F4C8"/><rect x="586.68" y="260.75" width="65.19" height="65.19" fill="#1C1C1C"/><path d="M 586.68 325.94 A 65.19 65.19 0 0 1  651.8699999999999 260.75 L 651.8699999999999 325.94" fill="#F4F4C8"/><rect x="521.49" y="325.93" width="65.19" height="65.19" fill="#FFE11E"/><rect x="521.49" y="325.93" width="65.19" height="65.19" fill="#FFE11E"/><rect x="586.68" y="325.93" width="65.19" height="65.19" fill="#F4F4C8"/><rect x="586.68" y="325.93" width="65.19" height="65.19" fill="#1C1C1C"/><rect x="651.87" y="260.75" width="130.37" height="130.37" fill="#8A8847"/><path d="M 651.87 260.75 A 130.37 130.37 0 0 1  782.24 391.12 L 651.87 260.75 A 130.37 130.37 0 0 0 782.24 391.12" fill="#1C1C1C"/><rect x="782.24" y="260.75" width="130.37" height="130.37" fill="#1C1C1C"/><rect x="782.24" y="260.75" width="130.37" height="130.37" fill="#F4F4C8"/><rect x="912.6124" y="260.7464" width="130.3732" height="130.3732" fill="#fcfcfc"/><rect x="912.61" y="260.75" width="65.19" height="65.19" fill="#F4F4C8"/><path d="M 912.61 325.94 A 65.19 65.19 0 0 0 977.8 260.75 L 912.61 260.75" fill="#FFE11E"/><rect x="977.8" y="260.75" width="65.19" height="65.19" fill="#8A8847"/><rect x="977.8" y="260.75" width="65.19" height="65.19" fill="#1C1C1C"/><rect x="912.61" y="325.93" width="65.19" height="65.19" fill="#F4F4C8"/><rect x="912.61" y="325.93" width="65.19" height="65.19" fill="#1C1C1C"/><rect x="977.8" y="325.93" width="65.19" height="65.19" fill="#1C1C1C"/><path d="M 977.8 391.12 A 65.19 65.19 0 0 1  1042.99 325.93 L 1042.99 391.12" fill="#1C1C1C"/><rect x="1042.9856" y="260.7464" width="130.3732" height="130.3732" fill="#fcfcfc"/><rect x="1042.99" y="260.75" width="65.19" height="65.19" fill="#F4F4C8"/><rect x="1042.99" y="260.75" width="65.19" height="65.19" fill="#8A8847"/><rect x="1108.17" y="260.75" width="65.19" height="65.19" fill="#FFE11E"/><rect x="1108.17" y="260.75" width="65.19" height="65.19" fill="#1C1C1C"/><rect x="1042.99" y="325.93" width="65.19" height="65.19" fill="#FFE11E"/><path d="M 1042.99 325.93 A 65.19 65.19 0 0 1  1108.18 391.12 L 1042.99 325.93 A 65.19 65.19 0 0 0 1108.18 391.12" fill="#8A8847"/><rect x="1108.17" y="325.93" width="65.19" height="65.19" fill="#8A8847"/><rect x="1108.17" y="325.93" width="65.19" height="65.19" fill="#1C1C1C"/><rect x="1173.3588" y="260.7464" width="130.3732" height="130.3732" fill="#fcfcfc"/><rect x="1173.36" y="260.75" width="65.19" height="65.19" fill="#F4F4C8"/><path d="M 1173.36 260.75 A 65.19 65.19 0 0 1 1238.55 325.94 L 1173.36 325.94" fill="#1C1C1C"/><rect x="1238.55" y="260.75" width="65.19" height="65.19" fill="#8A8847"/><rect x="1238.55" y="260.75" width="65.19" height="65.19" fill="#8A8847"/><rect x="1173.36" y="325.93" width="65.19" height="65.19" fill="#1C1C1C"/><rect x="1173.36" y="325.93" width="65.19" height="65.19" fill="#8A8847"/><rect x="1238.55" y="325.93" width="65.19" height="65.19" fill="#F4F4C8"/><path d="M 1238.55 325.93 A 65.19 65.19 0 0 1  1303.74 391.12 L 1238.55 325.93 A 65.19 65.19 0 0 0 1303.74 391.12" fill="#FFE11E"/><rect x="1303.73" y="260.75" width="130.37" height="130.37" fill="#8A8847"/><rect x="1303.73" y="260.75" width="130.37" height="130.37" fill="#8A8847"/><rect x="1434.1052" y="260.7464" width="130.3732" height="130.3732" fill="#fcfcfc"/><rect x="1434.11" y="260.75" width="65.19" height="65.19" fill="#8A8847"/><path d="M 1434.11 260.75 A 65.19 65.19 0 0 0 1499.3 325.94 L 1499.3 260.75" fill="#F4F4C8"/><rect x="1499.29" y="260.75" width="65.19" height="65.19" fill="#1C1C1C"/><rect x="1499.29" y="260.75" width="65.19" height="65.19" fill="#8A8847"/><rect x="1434.11" y="325.93" width="65.19" height="65.19" fill="#F4F4C8"/><rect x="1434.11" y="325.93" width="65.19" height="65.19" fill="#8A8847"/><rect x="1499.29" y="325.93" width="65.19" height="65.19" fill="#8A8847"/><rect x="1499.29" y="325.93" width="65.19" height="65.19" fill="#FFE11E"/><rect x="1564.48" y="260.75" width="130.37" height="130.37" fill="#FFE11E"/><rect x="1564.48" y="260.75" width="130.37" height="130.37" fill="#F4F4C8"/><rect x="1694.8516" y="260.7464" width="130.3732" height="130.3732" fill="#fcfcfc"/><rect x="1694.85" y="260.75" width="65.19" height="65.19" fill="#F4F4C8"/><rect x="1694.85" y="260.75" width="65.19" height="65.19" fill="#8A8847"/><rect x="1760.04" y="260.75" width="65.19" height="65.19" fill="#1C1C1C"/><rect x="1760.04" y="260.75" width="65.19" height="65.19" fill="#F4F4C8"/><rect x="1694.85" y="325.93" width="65.19" height="65.19" fill="#F4F4C8"/><path d="M 1694.85 325.93 A 65.19 65.19 0 0 1  1760.04 391.12 L 1694.85 325.93 A 65.19 65.19 0 0 0 1760.04 391.12" fill="#1C1C1C"/><rect x="1760.04" y="325.93" width="65.19" height="65.19" fill="#1C1C1C"/><path d="M 1760.04 325.93 A 65.19 65.19 0 0 1 1825.23 391.12 L 1760.04 391.12" fill="#F4F4C8"/><rect x="1825.2248" y="260.7464" width="130.3732" height="130.3732" fill="#fcfcfc"/><rect x="1825.22" y="260.75" width="65.19" height="65.19" fill="#FFE11E"/><rect x="1825.22" y="260.75" width="65.19" height="65.19" fill="#1C1C1C"/><rect x="1890.41" y="260.75" width="65.19" height="65.19" fill="#FFE11E"/><path d="M 1890.41 260.75 A 65.19 65.19 0 0 0 1955.6000000000001 325.94 L 1955.6000000000001 260.75" fill="#1C1C1C"/><rect x="1825.22" y="325.93" width="65.19" height="65.19" fill="#FFE11E"/><rect x="1825.22" y="325.93" width="65.19" height="65.19" fill="#F4F4C8"/><rect x="1890.41" y="325.93" width="65.19" height="65.19" fill="#F4F4C8"/><rect x="1890.41" y="325.93" width="65.19" height="65.19" fill="#F4F4C8"/><rect x="1955.6" y="260.75" width="130.37" height="130.37" fill="#F4F4C8"/><path d="M 1955.6 391.12 A 130.37 130.37 0 0 1  2085.97 260.75 L 1955.6 391.12 A 130.37 130.37 0 0 0 2085.97 260.75" fill="#FFE11E"/><rect x="2085.9712" y="260.7464" width="130.3732" height="130.3732" fill="#fcfcfc"/><rect x="2085.97" y="260.75" width="65.19" height="65.19" fill="#1C1C1C"/><path d="M 2085.97 325.94 A 65.19 65.19 0 0 1  2151.16 260.75 L 2151.16 325.94" fill="#1C1C1C"/><rect x="2151.16" y="260.75" width="65.19" height="65.19" fill="#1C1C1C"/><rect x="2151.16" y="260.75" width="65.19" height="65.19" fill="#1C1C1C"/><rect x="2085.97" y="325.93" width="65.19" height="65.19" fill="#1C1C1C"/><path d="M 2085.97 325.93 A 65.19 65.19 0 0 1  2151.16 391.12 L 2085.97 325.93 A 65.19 65.19 0 0 0 2151.16 391.12" fill="#8A8847"/><rect x="2151.16" y="325.93" width="65.19" height="65.19" fill="#FFE11E"/><path d="M 2151.16 325.93 A 65.19 65.19 0 0 1  2216.35 391.12 L 2151.16 325.93 A 65.19 65.19 0 0 0 2216.35 391.12" fill="#F4F4C8"/><rect x="2216.34" y="260.75" width="130.37" height="130.37" fill="#1C1C1C"/><rect x="2216.34" y="260.75" width="130.37" height="130.37" fill="#FFE11E"/><rect x="2346.7176" y="260.7464" width="130.3732" height="130.3732" fill="#fcfcfc"/><rect x="2346.72" y="260.75" width="65.19" height="65.19" fill="#FFE11E"/><path d="M 2346.72 325.94 A 65.19 65.19 0 0 1  2411.91 260.75 L 2411.91 325.94" fill="#F4F4C8"/><rect x="2411.9" y="260.75" width="65.19" height="65.19" fill="#FFE11E"/><path d="M 2411.9 325.94 A 65.19 65.19 0 0 1  2477.09 260.75 L 2477.09 325.94" fill="#FFE11E"/><rect x="2346.72" y="325.93" width="65.19" height="65.19" fill="#FFE11E"/><rect x="2346.72" y="325.93" width="65.19" height="65.19" fill="#F4F4C8"/><rect x="2411.9" y="325.93" width="65.19" height="65.19" fill="#F4F4C8"/><rect x="2411.9" y="325.93" width="65.19" height="65.19" fill="#1C1C1C"/><rect x="2477.09" y="260.75" width="130.37" height="130.37" fill="#F4F4C8"/><path d="M 2477.09 391.12 A 130.37 130.37 0 0 0 2607.46 260.75 L 2477.09 260.75" fill="#8A8847"/><rect x="2607.464" y="260.7464" width="130.3732" height="130.3732" fill="#fcfcfc"/><rect x="2607.46" y="260.75" width="65.19" height="65.19" fill="#1C1C1C"/><path d="M 2607.46 260.75 A 65.19 65.19 0 0 0 2672.65 325.94 L 2672.65 260.75" fill="#1C1C1C"/><rect x="2672.65" y="260.75" width="65.19" height="65.19" fill="#1C1C1C"/><path d="M 2672.65 325.94 A 65.19 65.19 0 0 0 2737.84 260.75 L 2672.65 260.75" fill="#FFE11E"/><rect x="2607.46" y="325.93" width="65.19" height="65.19" fill="#1C1C1C"/><path d="M 2607.46 391.12 A 65.19 65.19 0 0 1  2672.65 325.93 L 2672.65 391.12" fill="#F4F4C8"/><rect x="2672.65" y="325.93" width="65.19" height="65.19" fill="#FFE11E"/><rect x="2672.65" y="325.93" width="65.19" height="65.19" fill="#F4F4C8"/><rect x="2737.8372" y="260.7464" width="130.3732" height="130.3732" fill="#fcfcfc"/><rect x="2737.84" y="260.75" width="65.19" height="65.19" fill="#FFE11E"/><rect x="2737.84" y="260.75" width="65.19" height="65.19" fill="#8A8847"/><rect x="2803.02" y="260.75" width="65.19" height="65.19" fill="#1C1C1C"/><rect x="2803.02" y="260.75" width="65.19" height="65.19" fill="#F4F4C8"/><rect x="2737.84" y="325.93" width="65.19" height="65.19" fill="#F4F4C8"/><path d="M 2737.84 325.93 A 65.19 65.19 0 0 0 2803.03 391.12 L 2803.03 325.93" fill="#1C1C1C"/><rect x="2803.02" y="325.93" width="65.19" height="65.19" fill="#FFE11E"/><rect x="2803.02" y="325.93" width="65.19" height="65.19" fill="#FFE11E"/><rect x="2868.21" y="260.75" width="130.37" height="130.37" fill="#8A8847"/><path d="M 2868.21 260.75 A 130.37 130.37 0 0 0 2998.58 391.12 L 2998.58 260.75" fill="#FFE11E"/><rect x="2998.58" y="260.75" width="130.37" height="130.37" fill="#1C1C1C"/><rect x="2998.58" y="260.75" width="130.37" height="130.37" fill="#FFE11E"/><rect x="3128.9568" y="260.7464" width="130.3732" height="130.3732" fill="#fcfcfc"/><rect x="3128.96" y="260.75" width="65.19" height="65.19" fill="#1C1C1C"/><path d="M 3128.96 260.75 A 65.19 65.19 0 0 0 3194.15 325.94 L 3194.15 260.75" fill="#FFE11E"/><rect x="3194.14" y="260.75" width="65.19" height="65.19" fill="#FFE11E"/><path d="M 3194.14 325.94 A 65.19 65.19 0 0 1  3259.33 260.75 L 3194.14 325.94 A 65.19 65.19 0 0 0 3259.33 260.75" fill="#F4F4C8"/><rect x="3128.96" y="325.93" width="65.19" height="65.19" fill="#F4F4C8"/><rect x="3128.96" y="325.93" width="65.19" height="65.19" fill="#FFE11E"/><rect x="3194.14" y="325.93" width="65.19" height="65.19" fill="#1C1C1C"/><path d="M 3194.14 391.12 A 65.19 65.19 0 0 0 3259.33 325.93 L 3194.14 325.93" fill="#8A8847"/><rect x="0" y="391.1196" width="130.3732" height="130.3732" fill="#fcfcfc"/><rect x="0" y="391.12" width="65.19" height="65.19" fill="#8A8847"/><rect x="0" y="391.12" width="65.19" height="65.19" fill="#FFE11E"/><rect x="65.19" y="391.12" width="65.19" height="65.19" fill="#FFE11E"/><path d="M 65.19 456.31 A 65.19 65.19 0 0 0 130.38 391.12 L 65.19 391.12" fill="#1C1C1C"/><rect x="0" y="456.31" width="65.19" height="65.19" fill="#FFE11E"/><path d="M 0 456.31 A 65.19 65.19 0 0 1 65.19 521.5 L 0 521.5" fill="#F4F4C8"/><rect x="65.19" y="456.31" width="65.19" height="65.19" fill="#1C1C1C"/><rect x="65.19" y="456.31" width="65.19" height="65.19" fill="#F4F4C8"/><rect x="130.37" y="391.12" width="130.37" height="130.37" fill="#1C1C1C"/><path d="M 130.37 521.49 A 130.37 130.37 0 0 0 260.74 391.12 L 130.37 391.12" fill="#1C1C1C"/><rect x="260.7464" y="391.1196" width="130.3732" height="130.3732" fill="#fcfcfc"/><rect x="260.75" y="391.12" width="65.19" height="65.19" fill="#1C1C1C"/><path d="M 260.75 456.31 A 65.19 65.19 0 0 1  325.94 391.12 L 260.75 456.31 A 65.19 65.19 0 0 0 325.94 391.12" fill="#F4F4C8"/><rect x="325.93" y="391.12" width="65.19" height="65.19" fill="#8A8847"/><rect x="325.93" y="391.12" width="65.19" height="65.19" fill="#8A8847"/><rect x="260.75" y="456.31" width="65.19" height="65.19" fill="#FFE11E"/><rect x="260.75" y="456.31" width="65.19" height="65.19" fill="#1C1C1C"/><rect x="325.93" y="456.31" width="65.19" height="65.19" fill="#F4F4C8"/><path d="M 325.93 521.5 A 65.19 65.19 0 0 1  391.12 456.31 L 325.93 521.5 A 65.19 65.19 0 0 0 391.12 456.31" fill="#8A8847"/><rect x="391.12" y="391.12" width="130.37" height="130.37" fill="#F4F4C8"/><rect x="391.12" y="391.12" width="130.37" height="130.37" fill="#FFE11E"/><rect x="521.4928" y="391.1196" width="130.3732" height="130.3732" fill="#fcfcfc"/><rect x="521.49" y="391.12" width="65.19" height="65.19" fill="#FFE11E"/><path d="M 521.49 456.31 A 65.19 65.19 0 0 1  586.6800000000001 391.12 L 521.49 456.31 A 65.19 65.19 0 0 0 586.6800000000001 391.12" fill="#FFE11E"/><rect x="586.68" y="391.12" width="65.19" height="65.19" fill="#8A8847"/><path d="M 586.68 456.31 A 65.19 65.19 0 0 1  651.8699999999999 391.12 L 651.8699999999999 456.31" fill="#F4F4C8"/><rect x="521.49" y="456.31" width="65.19" height="65.19" fill="#FFE11E"/><path d="M 521.49 456.31 A 65.19 65.19 0 0 1  586.6800000000001 521.5 L 521.49 456.31 A 65.19 65.19 0 0 0 586.6800000000001 521.5" fill="#F4F4C8"/><rect x="586.68" y="456.31" width="65.19" height="65.19" fill="#1C1C1C"/><rect x="586.68" y="456.31" width="65.19" height="65.19" fill="#1C1C1C"/><rect x="651.866" y="391.1196" width="130.3732" height="130.3732" fill="#fcfcfc"/><rect x="651.87" y="391.12" width="65.19" height="65.19" fill="#FFE11E"/><rect x="651.87" y="391.12" width="65.19" height="65.19" fill="#FFE11E"/><rect x="717.05" y="391.12" width="65.19" height="65.19" fill="#FFE11E"/><rect x="717.05" y="391.12" width="65.19" height="65.19" fill="#F4F4C8"/><rect x="651.87" y="456.31" width="65.19" height="65.19" fill="#8A8847"/><rect x="651.87" y="456.31" width="65.19" height="65.19" fill="#FFE11E"/><rect x="717.05" y="456.31" width="65.19" height="65.19" fill="#8A8847"/><path d="M 717.05 521.5 A 65.19 65.19 0 0 1  782.24 456.31 L 782.24 521.5" fill="#FFE11E"/><rect x="782.24" y="391.12" width="130.37" height="130.37" fill="#8A8847"/><path d="M 782.24 521.49 A 130.37 130.37 0 0 1  912.61 391.12 L 912.61 521.49" fill="#F4F4C8"/><rect x="912.61" y="391.12" width="130.37" height="130.37" fill="#8A8847"/><rect x="912.61" y="391.12" width="130.37" height="130.37" fill="#1C1C1C"/><rect x="1042.99" y="391.12" width="130.37" height="130.37" fill="#1C1C1C"/><path d="M 1042.99 391.12 A 130.37 130.37 0 0 0 1173.3600000000001 521.49 L 1173.3600000000001 391.12" fill="#8A8847"/><rect x="1173.3588" y="391.1196" width="130.3732" height="130.3732" fill="#fcfcfc"/><rect x="1173.36" y="391.12" width="65.19" height="65.19" fill="#F4F4C8"/><rect x="1173.36" y="391.12" width="65.19" height="65.19" fill="#1C1C1C"/><rect x="1238.55" y="391.12" width="65.19" height="65.19" fill="#8A8847"/><rect x="1238.55" y="391.12" width="65.19" height="65.19" fill="#FFE11E"/><rect x="1173.36" y="456.31" width="65.19" height="65.19" fill="#FFE11E"/><path d="M 1173.36 456.31 A 65.19 65.19 0 0 1 1238.55 521.5 L 1173.36 521.5" fill="#F4F4C8"/><rect x="1238.55" y="456.31" width="65.19" height="65.19" fill="#1C1C1C"/><rect x="1238.55" y="456.31" width="65.19" height="65.19" fill="#1C1C1C"/><rect x="1303.73" y="391.12" width="130.37" height="130.37" fill="#F4F4C8"/><path d="M 1303.73 391.12 A 130.37 130.37 0 0 0 1434.1 521.49 L 1434.1 391.12" fill="#1C1C1C"/><rect x="1434.11" y="391.12" width="130.37" height="130.37" fill="#8A8847"/><rect x="1434.11" y="391.12" width="130.37" height="130.37" fill="#8A8847"/><rect x="1564.4784" y="391.1196" width="130.3732" height="130.3732" fill="#fcfcfc"/><rect x="1564.48" y="391.12" width="65.19" height="65.19" fill="#F4F4C8"/><path d="M 1564.48 391.12 A 65.19 65.19 0 0 1 1629.67 456.31 L 1564.48 456.31" fill="#8A8847"/><rect x="1629.67" y="391.12" width="65.19" height="65.19" fill="#8A8847"/><path d="M 1629.67 391.12 A 65.19 65.19 0 0 0 1694.8600000000001 456.31 L 1694.8600000000001 391.12" fill="#8A8847"/><rect x="1564.48" y="456.31" width="65.19" height="65.19" fill="#1C1C1C"/><path d="M 1564.48 521.5 A 65.19 65.19 0 0 1  1629.67 456.31 L 1629.67 521.5" fill="#F4F4C8"/><rect x="1629.67" y="456.31" width="65.19" height="65.19" fill="#F4F4C8"/><rect x="1629.67" y="456.31" width="65.19" height="65.19" fill="#1C1C1C"/><rect x="1694.85" y="391.12" width="130.37" height="130.37" fill="#8A8847"/><path d="M 1694.85 521.49 A 130.37 130.37 0 0 0 1825.2199999999998 391.12 L 1694.85 391.12" fill="#8A8847"/><rect x="1825.22" y="391.12" width="130.37" height="130.37" fill="#FFE11E"/><rect x="1825.22" y="391.12" width="130.37" height="130.37" fill="#8A8847"/><rect x="1955.6" y="391.12" width="130.37" height="130.37" fill="#FFE11E"/><rect x="1955.6" y="391.12" width="130.37" height="130.37" fill="#F4F4C8"/><rect x="2085.97" y="391.12" width="130.37" height="130.37" fill="#1C1C1C"/><rect x="2085.97" y="391.12" width="130.37" height="130.37" fill="#FFE11E"/><rect x="2216.34" y="391.12" width="130.37" height="130.37" fill="#1C1C1C"/><path d="M 2216.34 391.12 A 130.37 130.37 0 0 0 2346.71 521.49 L 2346.71 391.12" fill="#8A8847"/><rect x="2346.72" y="391.12" width="130.37" height="130.37" fill="#FFE11E"/><rect x="2346.72" y="391.12" width="130.37" height="130.37" fill="#FFE11E"/><rect x="2477.0908" y="391.1196" width="130.3732" height="130.3732" fill="#fcfcfc"/><rect x="2477.09" y="391.12" width="65.19" height="65.19" fill="#8A8847"/><rect x="2477.09" y="391.12" width="65.19" height="65.19" fill="#FFE11E"/><rect x="2542.28" y="391.12" width="65.19" height="65.19" fill="#1C1C1C"/><rect x="2542.28" y="391.12" width="65.19" height="65.19" fill="#FFE11E"/><rect x="2477.09" y="456.31" width="65.19" height="65.19" fill="#F4F4C8"/><rect x="2477.09" y="456.31" width="65.19" height="65.19" fill="#F4F4C8"/><rect x="2542.28" y="456.31" width="65.19" height="65.19" fill="#1C1C1C"/><rect x="2542.28" y="456.31" width="65.19" height="65.19" fill="#1C1C1C"/><rect x="2607.46" y="391.12" width="130.37" height="130.37" fill="#8A8847"/><path d="M 2607.46 521.49 A 130.37 130.37 0 0 0 2737.83 391.12 L 2607.46 391.12" fill="#8A8847"/><rect x="2737.8372" y="391.1196" width="130.3732" height="130.3732" fill="#fcfcfc"/><rect x="2737.84" y="391.12" width="65.19" height="65.19" fill="#FFE11E"/><path d="M 2737.84 391.12 A 65.19 65.19 0 0 0 2803.03 456.31 L 2803.03 391.12" fill="#8A8847"/><rect x="2803.02" y="391.12" width="65.19" height="65.19" fill="#8A8847"/><rect x="2803.02" y="391.12" width="65.19" height="65.19" fill="#8A8847"/><rect x="2737.84" y="456.31" width="65.19" height="65.19" fill="#8A8847"/><path d="M 2737.84 456.31 A 65.19 65.19 0 0 1 2803.03 521.5 L 2737.84 521.5" fill="#8A8847"/><rect x="2803.02" y="456.31" width="65.19" height="65.19" fill="#F4F4C8"/><rect x="2803.02" y="456.31" width="65.19" height="65.19" fill="#1C1C1C"/><rect x="2868.21" y="391.12" width="130.37" height="130.37" fill="#FFE11E"/><path d="M 2868.21 521.49 A 130.37 130.37 0 0 1  2998.58 391.12 L 2868.21 521.49 A 130.37 130.37 0 0 0 2998.58 391.12" fill="#1C1C1C"/><rect x="2998.5836" y="391.1196" width="130.3732" height="130.3732" fill="#fcfcfc"/><rect x="2998.58" y="391.12" width="65.19" height="65.19" fill="#FFE11E"/><path d="M 2998.58 391.12 A 65.19 65.19 0 0 1 3063.77 456.31 L 2998.58 456.31" fill="#1C1C1C"/><rect x="3063.77" y="391.12" width="65.19" height="65.19" fill="#FFE11E"/><rect x="3063.77" y="391.12" width="65.19" height="65.19" fill="#F4F4C8"/><rect x="2998.58" y="456.31" width="65.19" height="65.19" fill="#FFE11E"/><rect x="2998.58" y="456.31" width="65.19" height="65.19" fill="#FFE11E"/><rect x="3063.77" y="456.31" width="65.19" height="65.19" fill="#8A8847"/><path d="M 3063.77 456.31 A 65.19 65.19 0 0 1 3128.96 521.5 L 3063.77 521.5" fill="#8A8847"/><rect x="3128.96" y="391.12" width="130.37" height="130.37" fill="#8A8847"/><rect x="3128.96" y="391.12" width="130.37" height="130.37" fill="#FFE11E"/><rect x="0" y="521.4928" width="130.3732" height="130.3732" fill="#fcfcfc"/><rect x="0" y="521.49" width="65.19" height="65.19" fill="#8A8847"/><rect x="0" y="521.49" width="65.19" height="65.19" fill="#1C1C1C"/><rect x="65.19" y="521.49" width="65.19" height="65.19" fill="#8A8847"/><rect x="65.19" y="521.49" width="65.19" height="65.19" fill="#8A8847"/><rect x="0" y="586.68" width="65.19" height="65.19" fill="#1C1C1C"/><path d="M 0 586.68 A 65.19 65.19 0 0 1 65.19 651.8699999999999 L 0 651.8699999999999" fill="#F4F4C8"/><rect x="65.19" y="586.68" width="65.19" height="65.19" fill="#F4F4C8"/><rect x="65.19" y="586.68" width="65.19" height="65.19" fill="#1C1C1C"/><rect x="130.3732" y="521.4928" width="130.3732" height="130.3732" fill="#fcfcfc"/><rect x="130.37" y="521.49" width="65.19" height="65.19" fill="#FFE11E"/><path d="M 130.37 586.6800000000001 A 65.19 65.19 0 0 1  195.56 521.49 L 195.56 586.6800000000001" fill="#1C1C1C"/><rect x="195.56" y="521.49" width="65.19" height="65.19" fill="#FFE11E"/><rect x="195.56" y="521.49" width="65.19" height="65.19" fill="#F4F4C8"/><rect x="130.37" y="586.68" width="65.19" height="65.19" fill="#FFE11E"/><path d="M 130.37 586.68 A 65.19 65.19 0 0 0 195.56 651.8699999999999 L 195.56 586.68" fill="#1C1C1C"/><rect x="195.56" y="586.68" width="65.19" height="65.19" fill="#FFE11E"/><rect x="195.56" y="586.68" width="65.19" height="65.19" fill="#F4F4C8"/><rect x="260.75" y="521.49" width="130.37" height="130.37" fill="#FFE11E"/><path d="M 260.75 521.49 A 130.37 130.37 0 0 1  391.12 651.86 L 260.75 521.49 A 130.37 130.37 0 0 0 391.12 651.86" fill="#F4F4C8"/><rect x="391.12" y="521.49" width="130.37" height="130.37" fill="#F4F4C8"/><path d="M 391.12 521.49 A 130.37 130.37 0 0 0 521.49 651.86 L 521.49 521.49" fill="#1C1C1C"/><rect x="521.49" y="521.49" width="130.37" height="130.37" fill="#1C1C1C"/><rect x="521.49" y="521.49" width="130.37" height="130.37" fill="#F4F4C8"/><rect x="651.87" y="521.49" width="130.37" height="130.37" fill="#8A8847"/><rect x="651.87" y="521.49" width="130.37" height="130.37" fill="#1C1C1C"/><rect x="782.24" y="521.49" width="130.37" height="130.37" fill="#FFE11E"/><rect x="782.24" y="521.49" width="130.37" height="130.37" fill="#F4F4C8"/><rect x="912.61" y="521.49" width="130.37" height="130.37" fill="#1C1C1C"/><rect x="912.61" y="521.49" width="130.37" height="130.37" fill="#F4F4C8"/><rect x="1042.9856" y="521.4928" width="130.3732" height="130.3732" fill="#fcfcfc"/><rect x="1042.99" y="521.49" width="65.19" height="65.19" fill="#F4F4C8"/><rect x="1042.99" y="521.49" width="65.19" height="65.19" fill="#8A8847"/><rect x="1108.17" y="521.49" width="65.19" height="65.19" fill="#F4F4C8"/><rect x="1108.17" y="521.49" width="65.19" height="65.19" fill="#8A8847"/><rect x="1042.99" y="586.68" width="65.19" height="65.19" fill="#1C1C1C"/><rect x="1042.99" y="586.68" width="65.19" height="65.19" fill="#8A8847"/><rect x="1108.17" y="586.68" width="65.19" height="65.19" fill="#FFE11E"/><rect x="1108.17" y="586.68" width="65.19" height="65.19" fill="#FFE11E"/><rect x="1173.36" y="521.49" width="130.37" height="130.37" fill="#FFE11E"/><rect x="1173.36" y="521.49" width="130.37" height="130.37" fill="#FFE11E"/><rect x="1303.73" y="521.49" width="130.37" height="130.37" fill="#8A8847"/><path d="M 1303.73 651.86 A 130.37 130.37 0 0 0 1434.1 521.49 L 1303.73 521.49" fill="#1C1C1C"/><rect x="1434.1052" y="521.4928" width="130.3732" height="130.3732" fill="#fcfcfc"/><rect x="1434.11" y="521.49" width="65.19" height="65.19" fill="#1C1C1C"/><path d="M 1434.11 586.6800000000001 A 65.19 65.19 0 0 1  1499.3 521.49 L 1434.11 586.6800000000001 A 65.19 65.19 0 0 0 1499.3 521.49" fill="#FFE11E"/><rect x="1499.29" y="521.49" width="65.19" height="65.19" fill="#FFE11E"/><path d="M 1499.29 521.49 A 65.19 65.19 0 0 1 1564.48 586.6800000000001 L 1499.29 586.6800000000001" fill="#FFE11E"/><rect x="1434.11" y="586.68" width="65.19" height="65.19" fill="#F4F4C8"/><rect x="1434.11" y="586.68" width="65.19" height="65.19" fill="#F4F4C8"/><rect x="1499.29" y="586.68" width="65.19" height="65.19" fill="#F4F4C8"/><path d="M 1499.29 651.8699999999999 A 65.19 65.19 0 0 0 1564.48 586.68 L 1499.29 586.68" fill="#FFE11E"/><rect x="1564.4784" y="521.4928" width="130.3732" height="130.3732" fill="#fcfcfc"/><rect x="1564.48" y="521.49" width="65.19" height="65.19" fill="#1C1C1C"/><rect x="1564.48" y="521.49" width="65.19" height="65.19" fill="#8A8847"/><rect x="1629.67" y="521.49" width="65.19" height="65.19" fill="#8A8847"/><rect x="1629.67" y="521.49" width="65.19" height="65.19" fill="#8A8847"/><rect x="1564.48" y="586.68" width="65.19" height="65.19" fill="#FFE11E"/><path d="M 1564.48 586.68 A 65.19 65.19 0 0 0 1629.67 651.8699999999999 L 1629.67 586.68" fill="#8A8847"/><rect x="1629.67" y="586.68" width="65.19" height="65.19" fill="#8A8847"/><path d="M 1629.67 651.8699999999999 A 65.19 65.19 0 0 0 1694.8600000000001 586.68 L 1629.67 586.68" fill="#FFE11E"/><rect x="1694.8516" y="521.4928" width="130.3732" height="130.3732" fill="#fcfcfc"/><rect x="1694.85" y="521.49" width="65.19" height="65.19" fill="#FFE11E"/><rect x="1694.85" y="521.49" width="65.19" height="65.19" fill="#8A8847"/><rect x="1760.04" y="521.49" width="65.19" height="65.19" fill="#1C1C1C"/><rect x="1760.04" y="521.49" width="65.19" height="65.19" fill="#8A8847"/><rect x="1694.85" y="586.68" width="65.19" height="65.19" fill="#F4F4C8"/><path d="M 1694.85 586.68 A 65.19 65.19 0 0 0 1760.04 651.8699999999999 L 1760.04 586.68" fill="#F4F4C8"/><rect x="1760.04" y="586.68" width="65.19" height="65.19" fill="#F4F4C8"/><rect x="1760.04" y="586.68" width="65.19" height="65.19" fill="#F4F4C8"/><rect x="1825.2248" y="521.4928" width="130.3732" height="130.3732" fill="#fcfcfc"/><rect x="1825.22" y="521.49" width="65.19" height="65.19" fill="#F4F4C8"/><path d="M 1825.22 521.49 A 65.19 65.19 0 0 0 1890.41 586.6800000000001 L 1890.41 521.49" fill="#8A8847"/><rect x="1890.41" y="521.49" width="65.19" height="65.19" fill="#FFE11E"/><rect x="1890.41" y="521.49" width="65.19" height="65.19" fill="#FFE11E"/><rect x="1825.22" y="586.68" width="65.19" height="65.19" fill="#FFE11E"/><rect x="1825.22" y="586.68" width="65.19" height="65.19" fill="#8A8847"/><rect x="1890.41" y="586.68" width="65.19" height="65.19" fill="#8A8847"/><rect x="1890.41" y="586.68" width="65.19" height="65.19" fill="#FFE11E"/><rect x="1955.598" y="521.4928" width="130.3732" height="130.3732" fill="#fcfcfc"/><rect x="1955.6" y="521.49" width="65.19" height="65.19" fill="#1C1C1C"/><path d="M 1955.6 586.6800000000001 A 65.19 65.19 0 0 1  2020.79 521.49 L 2020.79 586.6800000000001" fill="#8A8847"/><rect x="2020.78" y="521.49" width="65.19" height="65.19" fill="#8A8847"/><rect x="2020.78" y="521.49" width="65.19" height="65.19" fill="#8A8847"/><rect x="1955.6" y="586.68" width="65.19" height="65.19" fill="#FFE11E"/><path d="M 1955.6 586.68 A 65.19 65.19 0 0 1  2020.79 651.8699999999999 L 1955.6 586.68 A 65.19 65.19 0 0 0 2020.79 651.8699999999999" fill="#1C1C1C"/><rect x="2020.78" y="586.68" width="65.19" height="65.19" fill="#F4F4C8"/><rect x="2020.78" y="586.68" width="65.19" height="65.19" fill="#1C1C1C"/><rect x="2085.97" y="521.49" width="130.37" height="130.37" fill="#8A8847"/><rect x="2085.97" y="521.49" width="130.37" height="130.37" fill="#F4F4C8"/><rect x="2216.3444" y="521.4928" width="130.3732" height="130.3732" fill="#fcfcfc"/><rect x="2216.34" y="521.49" width="65.19" height="65.19" fill="#1C1C1C"/><path d="M 2216.34 521.49 A 65.19 65.19 0 0 0 2281.53 586.6800000000001 L 2281.53 521.49" fill="#1C1C1C"/><rect x="2281.53" y="521.49" width="65.19" height="65.19" fill="#8A8847"/><path d="M 2281.53 586.6800000000001 A 65.19 65.19 0 0 1  2346.7200000000003 521.49 L 2281.53 586.6800000000001 A 65.19 65.19 0 0 0 2346.7200000000003 521.49" fill="#FFE11E"/><rect x="2216.34" y="586.68" width="65.19" height="65.19" fill="#1C1C1C"/><path d="M 2216.34 586.68 A 65.19 65.19 0 0 1  2281.53 651.8699999999999 L 2216.34 586.68 A 65.19 65.19 0 0 0 2281.53 651.8699999999999" fill="#8A8847"/><rect x="2281.53" y="586.68" width="65.19" height="65.19" fill="#1C1C1C"/><path d="M 2281.53 651.8699999999999 A 65.19 65.19 0 0 0 2346.7200000000003 586.68 L 2281.53 586.68" fill="#FFE11E"/><rect x="2346.7176" y="521.4928" width="130.3732" height="130.3732" fill="#fcfcfc"/><rect x="2346.72" y="521.49" width="65.19" height="65.19" fill="#FFE11E"/><rect x="2346.72" y="521.49" width="65.19" height="65.19" fill="#8A8847"/><rect x="2411.9" y="521.49" width="65.19" height="65.19" fill="#F4F4C8"/><rect x="2411.9" y="521.49" width="65.19" height="65.19" fill="#F4F4C8"/><rect x="2346.72" y="586.68" width="65.19" height="65.19" fill="#1C1C1C"/><rect x="2346.72" y="586.68" width="65.19" height="65.19" fill="#8A8847"/><rect x="2411.9" y="586.68" width="65.19" height="65.19" fill="#8A8847"/><path d="M 2411.9 651.8699999999999 A 65.19 65.19 0 0 0 2477.09 586.68 L 2411.9 586.68" fill="#F4F4C8"/><rect x="2477.0908" y="521.4928" width="130.3732" height="130.3732" fill="#fcfcfc"/><rect x="2477.09" y="521.49" width="65.19" height="65.19" fill="#FFE11E"/><path d="M 2477.09 586.6800000000001 A 65.19 65.19 0 0 1  2542.28 521.49 L 2542.28 586.6800000000001" fill="#FFE11E"/><rect x="2542.28" y="521.49" width="65.19" height="65.19" fill="#FFE11E"/><path d="M 2542.28 521.49 A 65.19 65.19 0 0 0 2607.4700000000003 586.6800000000001 L 2607.4700000000003 521.49" fill="#8A8847"/><rect x="2477.09" y="586.68" width="65.19" height="65.19" fill="#FFE11E"/><path d="M 2477.09 651.8699999999999 A 65.19 65.19 0 0 1  2542.28 586.68 L 2477.09 651.8699999999999 A 65.19 65.19 0 0 0 2542.28 586.68" fill="#F4F4C8"/><rect x="2542.28" y="586.68" width="65.19" height="65.19" fill="#1C1C1C"/><path d="M 2542.28 651.8699999999999 A 65.19 65.19 0 0 0 2607.4700000000003 586.68 L 2542.28 586.68" fill="#1C1C1C"/><rect x="2607.464" y="521.4928" width="130.3732" height="130.3732" fill="#fcfcfc"/><rect x="2607.46" y="521.49" width="65.19" height="65.19" fill="#F4F4C8"/><rect x="2607.46" y="521.49" width="65.19" height="65.19" fill="#F4F4C8"/><rect x="2672.65" y="521.49" width="65.19" height="65.19" fill="#FFE11E"/><path d="M 2672.65 586.6800000000001 A 65.19 65.19 0 0 1  2737.84 521.49 L 2672.65 586.6800000000001 A 65.19 65.19 0 0 0 2737.84 521.49" fill="#8A8847"/><rect x="2607.46" y="586.68" width="65.19" height="65.19" fill="#8A8847"/><rect x="2607.46" y="586.68" width="65.19" height="65.19" fill="#8A8847"/><rect x="2672.65" y="586.68" width="65.19" height="65.19" fill="#1C1C1C"/><rect x="2672.65" y="586.68" width="65.19" height="65.19" fill="#1C1C1C"/><rect x="2737.84" y="521.49" width="130.37" height="130.37" fill="#8A8847"/><path d="M 2737.84 651.86 A 130.37 130.37 0 0 1  2868.21 521.49 L 2868.21 651.86" fill="#FFE11E"/><rect x="2868.21" y="521.49" width="130.37" height="130.37" fill="#FFE11E"/><rect x="2868.21" y="521.49" width="130.37" height="130.37" fill="#F4F4C8"/><rect x="2998.5836" y="521.4928" width="130.3732" height="130.3732" fill="#fcfcfc"/><rect x="2998.58" y="521.49" width="65.19" height="65.19" fill="#1C1C1C"/><path d="M 2998.58 521.49 A 65.19 65.19 0 0 1  3063.77 586.6800000000001 L 2998.58 521.49 A 65.19 65.19 0 0 0 3063.77 586.6800000000001" fill="#8A8847"/><rect x="3063.77" y="521.49" width="65.19" height="65.19" fill="#F4F4C8"/><rect x="3063.77" y="521.49" width="65.19" height="65.19" fill="#8A8847"/><rect x="2998.58" y="586.68" width="65.19" height="65.19" fill="#FFE11E"/><path d="M 2998.58 651.8699999999999 A 65.19 65.19 0 0 1  3063.77 586.68 L 3063.77 651.8699999999999" fill="#8A8847"/><rect x="3063.77" y="586.68" width="65.19" height="65.19" fill="#F4F4C8"/><rect x="3063.77" y="586.68" width="65.19" height="65.19" fill="#1C1C1C"/><rect x="3128.9568" y="521.4928" width="130.3732" height="130.3732" fill="#fcfcfc"/><rect x="3128.96" y="521.49" width="65.19" height="65.19" fill="#F4F4C8"/><path d="M 3128.96 521.49 A 65.19 65.19 0 0 1  3194.15 586.6800000000001 L 3128.96 521.49 A 65.19 65.19 0 0 0 3194.15 586.6800000000001" fill="#1C1C1C"/><rect x="3194.14" y="521.49" width="65.19" height="65.19" fill="#F4F4C8"/><path d="M 3194.14 521.49 A 65.19 65.19 0 0 0 3259.33 586.6800000000001 L 3259.33 521.49" fill="#8A8847"/><rect x="3128.96" y="586.68" width="65.19" height="65.19" fill="#1C1C1C"/><path d="M 3128.96 651.8699999999999 A 65.19 65.19 0 0 1  3194.15 586.68 L 3128.96 651.8699999999999 A 65.19 65.19 0 0 0 3194.15 586.68" fill="#F4F4C8"/><rect x="3194.14" y="586.68" width="65.19" height="65.19" fill="#1C1C1C"/><rect x="3194.14" y="586.68" width="65.19" height="65.19" fill="#8A8847"/><rect x="0" y="651.87" width="130.37" height="130.37" fill="#8A8847"/><path d="M 0 651.87 A 130.37 130.37 0 0 1 130.37 782.24 L 0 782.24" fill="#FFE11E"/><rect x="130.3732" y="651.866" width="130.3732" height="130.3732" fill="#fcfcfc"/><rect x="130.37" y="651.87" width="65.19" height="65.19" fill="#F4F4C8"/><path d="M 130.37 717.06 A 65.19 65.19 0 0 1  195.56 651.87 L 130.37 717.06 A 65.19 65.19 0 0 0 195.56 651.87" fill="#8A8847"/><rect x="195.56" y="651.87" width="65.19" height="65.19" fill="#8A8847"/><path d="M 195.56 651.87 A 65.19 65.19 0 0 1  260.75 717.06 L 195.56 651.87 A 65.19 65.19 0 0 0 260.75 717.06" fill="#1C1C1C"/><rect x="130.37" y="717.05" width="65.19" height="65.19" fill="#1C1C1C"/><rect x="130.37" y="717.05" width="65.19" height="65.19" fill="#8A8847"/><rect x="195.56" y="717.05" width="65.19" height="65.19" fill="#F4F4C8"/><path d="M 195.56 782.24 A 65.19 65.19 0 0 1  260.75 717.05 L 195.56 782.24 A 65.19 65.19 0 0 0 260.75 717.05" fill="#F4F4C8"/><rect x="260.75" y="651.87" width="130.37" height="130.37" fill="#FFE11E"/><path d="M 260.75 651.87 A 130.37 130.37 0 0 1 391.12 782.24 L 260.75 782.24" fill="#FFE11E"/><rect x="391.1196" y="651.866" width="130.3732" height="130.3732" fill="#fcfcfc"/><rect x="391.12" y="651.87" width="65.19" height="65.19" fill="#F4F4C8"/><rect x="391.12" y="651.87" width="65.19" height="65.19" fill="#8A8847"/><rect x="456.31" y="651.87" width="65.19" height="65.19" fill="#F4F4C8"/><rect x="456.31" y="651.87" width="65.19" height="65.19" fill="#8A8847"/><rect x="391.12" y="717.05" width="65.19" height="65.19" fill="#FFE11E"/><rect x="391.12" y="717.05" width="65.19" height="65.19" fill="#F4F4C8"/><rect x="456.31" y="717.05" width="65.19" height="65.19" fill="#8A8847"/><rect x="456.31" y="717.05" width="65.19" height="65.19" fill="#1C1C1C"/><rect x="521.4928" y="651.866" width="130.3732" height="130.3732" fill="#fcfcfc"/><rect x="521.49" y="651.87" width="65.19" height="65.19" fill="#8A8847"/><path d="M 521.49 717.06 A 65.19 65.19 0 0 1  586.6800000000001 651.87 L 521.49 717.06 A 65.19 65.19 0 0 0 586.6800000000001 651.87" fill="#1C1C1C"/><rect x="586.68" y="651.87" width="65.19" height="65.19" fill="#1C1C1C"/><rect x="586.68" y="651.87" width="65.19" height="65.19" fill="#F4F4C8"/><rect x="521.49" y="717.05" width="65.19" height="65.19" fill="#1C1C1C"/><rect x="521.49" y="717.05" width="65.19" height="65.19" fill="#F4F4C8"/><rect x="586.68" y="717.05" width="65.19" height="65.19" fill="#1C1C1C"/><path d="M 586.68 717.05 A 65.19 65.19 0 0 1  651.8699999999999 782.24 L 586.68 717.05 A 65.19 65.19 0 0 0 651.8699999999999 782.24" fill="#1C1C1C"/><rect x="651.866" y="651.866" width="130.3732" height="130.3732" fill="#fcfcfc"/><rect x="651.87" y="651.87" width="65.19" height="65.19" fill="#F4F4C8"/><rect x="651.87" y="651.87" width="65.19" height="65.19" fill="#FFE11E"/><rect x="717.05" y="651.87" width="65.19" height="65.19" fill="#8A8847"/><rect x="717.05" y="651.87" width="65.19" height="65.19" fill="#FFE11E"/><rect x="651.87" y="717.05" width="65.19" height="65.19" fill="#FFE11E"/><path d="M 651.87 717.05 A 65.19 65.19 0 0 0 717.06 782.24 L 717.06 717.05" fill="#F4F4C8"/><rect x="717.05" y="717.05" width="65.19" height="65.19" fill="#8A8847"/><rect x="717.05" y="717.05" width="65.19" height="65.19" fill="#F4F4C8"/><rect x="782.2392" y="651.866" width="130.3732" height="130.3732" fill="#fcfcfc"/><rect x="782.24" y="651.87" width="65.19" height="65.19" fill="#FFE11E"/><path d="M 782.24 651.87 A 65.19 65.19 0 0 0 847.4300000000001 717.06 L 847.4300000000001 651.87" fill="#FFE11E"/><rect x="847.43" y="651.87" width="65.19" height="65.19" fill="#FFE11E"/><path d="M 847.43 717.06 A 65.19 65.19 0 0 1  912.6199999999999 651.87 L 847.43 717.06 A 65.19 65.19 0 0 0 912.6199999999999 651.87" fill="#1C1C1C"/><rect x="782.24" y="717.05" width="65.19" height="65.19" fill="#FFE11E"/><rect x="782.24" y="717.05" width="65.19" height="65.19" fill="#1C1C1C"/><rect x="847.43" y="717.05" width="65.19" height="65.19" fill="#F4F4C8"/><rect x="847.43" y="717.05" width="65.19" height="65.19" fill="#1C1C1C"/><rect x="912.61" y="651.87" width="130.37" height="130.37" fill="#8A8847"/><path d="M 912.61 782.24 A 130.37 130.37 0 0 0 1042.98 651.87 L 912.61 651.87" fill="#F4F4C8"/><rect x="1042.99" y="651.87" width="130.37" height="130.37" fill="#8A8847"/><path d="M 1042.99 782.24 A 130.37 130.37 0 0 1  1173.3600000000001 651.87 L 1042.99 782.24 A 130.37 130.37 0 0 0 1173.3600000000001 651.87" fill="#1C1C1C"/><rect x="1173.3588" y="651.866" width="130.3732" height="130.3732" fill="#fcfcfc"/><rect x="1173.36" y="651.87" width="65.19" height="65.19" fill="#F4F4C8"/><path d="M 1173.36 717.06 A 65.19 65.19 0 0 0 1238.55 651.87 L 1173.36 651.87" fill="#FFE11E"/><rect x="1238.55" y="651.87" width="65.19" height="65.19" fill="#8A8847"/><rect x="1238.55" y="651.87" width="65.19" height="65.19" fill="#8A8847"/><rect x="1173.36" y="717.05" width="65.19" height="65.19" fill="#FFE11E"/><rect x="1173.36" y="717.05" width="65.19" height="65.19" fill="#F4F4C8"/><rect x="1238.55" y="717.05" width="65.19" height="65.19" fill="#F4F4C8"/><rect x="1238.55" y="717.05" width="65.19" height="65.19" fill="#8A8847"/><rect x="1303.73" y="651.87" width="130.37" height="130.37" fill="#FFE11E"/><path d="M 1303.73 651.87 A 130.37 130.37 0 0 1  1434.1 782.24 L 1303.73 651.87 A 130.37 130.37 0 0 0 1434.1 782.24" fill="#FFE11E"/><rect x="1434.11" y="651.87" width="130.37" height="130.37" fill="#FFE11E"/><path d="M 1434.11 782.24 A 130.37 130.37 0 0 1  1564.48 651.87 L 1564.48 782.24" fill="#1C1C1C"/><rect x="1564.48" y="651.87" width="130.37" height="130.37" fill="#1C1C1C"/><path d="M 1564.48 782.24 A 130.37 130.37 0 0 0 1694.85 651.87 L 1564.48 651.87" fill="#8A8847"/><rect x="1694.8516" y="651.866" width="130.3732" height="130.3732" fill="#fcfcfc"/><rect x="1694.85" y="651.87" width="65.19" height="65.19" fill="#8A8847"/><path d="M 1694.85 651.87 A 65.19 65.19 0 0 1  1760.04 717.06 L 1694.85 651.87 A 65.19 65.19 0 0 0 1760.04 717.06" fill="#FFE11E"/><rect x="1760.04" y="651.87" width="65.19" height="65.19" fill="#1C1C1C"/><rect x="1760.04" y="651.87" width="65.19" height="65.19" fill="#F4F4C8"/><rect x="1694.85" y="717.05" width="65.19" height="65.19" fill="#F4F4C8"/><rect x="1694.85" y="717.05" width="65.19" height="65.19" fill="#8A8847"/><rect x="1760.04" y="717.05" width="65.19" height="65.19" fill="#8A8847"/><path d="M 1760.04 782.24 A 65.19 65.19 0 0 0 1825.23 717.05 L 1760.04 717.05" fill="#8A8847"/><rect x="1825.2248" y="651.866" width="130.3732" height="130.3732" fill="#fcfcfc"/><rect x="1825.22" y="651.87" width="65.19" height="65.19" fill="#1C1C1C"/><rect x="1825.22" y="651.87" width="65.19" height="65.19" fill="#1C1C1C"/><rect x="1890.41" y="651.87" width="65.19" height="65.19" fill="#8A8847"/><rect x="1890.41" y="651.87" width="65.19" height="65.19" fill="#FFE11E"/><rect x="1825.22" y="717.05" width="65.19" height="65.19" fill="#F4F4C8"/><path d="M 1825.22 717.05 A 65.19 65.19 0 0 1  1890.41 782.24 L 1825.22 717.05 A 65.19 65.19 0 0 0 1890.41 782.24" fill="#FFE11E"/><rect x="1890.41" y="717.05" width="65.19" height="65.19" fill="#FFE11E"/><rect x="1890.41" y="717.05" width="65.19" height="65.19" fill="#FFE11E"/><rect x="1955.598" y="651.866" width="130.3732" height="130.3732" fill="#fcfcfc"/><rect x="1955.6" y="651.87" width="65.19" height="65.19" fill="#FFE11E"/><rect x="1955.6" y="651.87" width="65.19" height="65.19" fill="#1C1C1C"/><rect x="2020.78" y="651.87" width="65.19" height="65.19" fill="#1C1C1C"/><rect x="2020.78" y="651.87" width="65.19" height="65.19" fill="#8A8847"/><rect x="1955.6" y="717.05" width="65.19" height="65.19" fill="#8A8847"/><rect x="1955.6" y="717.05" width="65.19" height="65.19" fill="#FFE11E"/><rect x="2020.78" y="717.05" width="65.19" height="65.19" fill="#1C1C1C"/><path d="M 2020.78 717.05 A 65.19 65.19 0 0 0 2085.97 782.24 L 2085.97 717.05" fill="#F4F4C8"/><rect x="2085.9712" y="651.866" width="130.3732" height="130.3732" fill="#fcfcfc"/><rect x="2085.97" y="651.87" width="65.19" height="65.19" fill="#8A8847"/><path d="M 2085.97 651.87 A 65.19 65.19 0 0 0 2151.16 717.06 L 2151.16 651.87" fill="#FFE11E"/><rect x="2151.16" y="651.87" width="65.19" height="65.19" fill="#8A8847"/><rect x="2151.16" y="651.87" width="65.19" height="65.19" fill="#F4F4C8"/><rect x="2085.97" y="717.05" width="65.19" height="65.19" fill="#F4F4C8"/><path d="M 2085.97 782.24 A 65.19 65.19 0 0 0 2151.16 717.05 L 2085.97 717.05" fill="#8A8847"/><rect x="2151.16" y="717.05" width="65.19" height="65.19" fill="#8A8847"/><rect x="2151.16" y="717.05" width="65.19" height="65.19" fill="#8A8847"/><rect x="2216.34" y="651.87" width="130.37" height="130.37" fill="#FFE11E"/><path d="M 2216.34 782.24 A 130.37 130.37 0 0 0 2346.71 651.87 L 2216.34 651.87" fill="#FFE11E"/><rect x="2346.7176" y="651.866" width="130.3732" height="130.3732" fill="#fcfcfc"/><rect x="2346.72" y="651.87" width="65.19" height="65.19" fill="#F4F4C8"/><path d="M 2346.72 717.06 A 65.19 65.19 0 0 1  2411.91 651.87 L 2411.91 717.06" fill="#F4F4C8"/><rect x="2411.9" y="651.87" width="65.19" height="65.19" fill="#F4F4C8"/><rect x="2411.9" y="651.87" width="65.19" height="65.19" fill="#8A8847"/><rect x="2346.72" y="717.05" width="65.19" height="65.19" fill="#8A8847"/><rect x="2346.72" y="717.05" width="65.19" height="65.19" fill="#FFE11E"/><rect x="2411.9" y="717.05" width="65.19" height="65.19" fill="#F4F4C8"/><rect x="2411.9" y="717.05" width="65.19" height="65.19" fill="#FFE11E"/><rect x="2477.0908" y="651.866" width="130.3732" height="130.3732" fill="#fcfcfc"/><rect x="2477.09" y="651.87" width="65.19" height="65.19" fill="#1C1C1C"/><path d="M 2477.09 717.06 A 65.19 65.19 0 0 1  2542.28 651.87 L 2542.28 717.06" fill="#F4F4C8"/><rect x="2542.28" y="651.87" width="65.19" height="65.19" fill="#FFE11E"/><path d="M 2542.28 651.87 A 65.19 65.19 0 0 1  2607.4700000000003 717.06 L 2542.28 651.87 A 65.19 65.19 0 0 0 2607.4700000000003 717.06" fill="#FFE11E"/><rect x="2477.09" y="717.05" width="65.19" height="65.19" fill="#8A8847"/><path d="M 2477.09 717.05 A 65.19 65.19 0 0 0 2542.28 782.24 L 2542.28 717.05" fill="#8A8847"/><rect x="2542.28" y="717.05" width="65.19" height="65.19" fill="#FFE11E"/><rect x="2542.28" y="717.05" width="65.19" height="65.19" fill="#F4F4C8"/><rect x="2607.46" y="651.87" width="130.37" height="130.37" fill="#1C1C1C"/><path d="M 2607.46 651.87 A 130.37 130.37 0 0 1  2737.83 782.24 L 2607.46 651.87 A 130.37 130.37 0 0 0 2737.83 782.24" fill="#1C1C1C"/><rect x="2737.84" y="651.87" width="130.37" height="130.37" fill="#FFE11E"/><path d="M 2737.84 651.87 A 130.37 130.37 0 0 1  2868.21 782.24 L 2737.84 651.87 A 130.37 130.37 0 0 0 2868.21 782.24" fill="#FFE11E"/><rect x="2868.21" y="651.87" width="130.37" height="130.37" fill="#1C1C1C"/><rect x="2868.21" y="651.87" width="130.37" height="130.37" fill="#1C1C1C"/><rect x="2998.58" y="651.87" width="130.37" height="130.37" fill="#F4F4C8"/><path d="M 2998.58 651.87 A 130.37 130.37 0 0 1  3128.95 782.24 L 2998.58 651.87 A 130.37 130.37 0 0 0 3128.95 782.24" fill="#F4F4C8"/><rect x="3128.9568" y="651.866" width="130.3732" height="130.3732" fill="#fcfcfc"/><rect x="3128.96" y="651.87" width="65.19" height="65.19" fill="#FFE11E"/><rect x="3128.96" y="651.87" width="65.19" height="65.19" fill="#F4F4C8"/><rect x="3194.14" y="651.87" width="65.19" height="65.19" fill="#FFE11E"/><rect x="3194.14" y="651.87" width="65.19" height="65.19" fill="#FFE11E"/><rect x="3128.96" y="717.05" width="65.19" height="65.19" fill="#FFE11E"/><path d="M 3128.96 782.24 A 65.19 65.19 0 0 1  3194.15 717.05 L 3194.15 782.24" fill="#8A8847"/><rect x="3194.14" y="717.05" width="65.19" height="65.19" fill="#F4F4C8"/><path d="M 3194.14 717.05 A 65.19 65.19 0 0 1  3259.33 782.24 L 3194.14 717.05 A 65.19 65.19 0 0 0 3259.33 782.24" fill="#8A8847"/><rect x="0" y="782.24" width="130.37" height="130.37" fill="#8A8847"/><path d="M 0 782.24 A 130.37 130.37 0 0 1 130.37 912.61 L 0 912.61" fill="#FFE11E"/><rect x="130.3732" y="782.2392" width="130.3732" height="130.3732" fill="#fcfcfc"/><rect x="130.37" y="782.24" width="65.19" height="65.19" fill="#8A8847"/><rect x="130.37" y="782.24" width="65.19" height="65.19" fill="#8A8847"/><rect x="195.56" y="782.24" width="65.19" height="65.19" fill="#1C1C1C"/><path d="M 195.56 847.4300000000001 A 65.19 65.19 0 0 0 260.75 782.24 L 195.56 782.24" fill="#8A8847"/><rect x="130.37" y="847.43" width="65.19" height="65.19" fill="#FFE11E"/><rect x="130.37" y="847.43" width="65.19" height="65.19" fill="#F4F4C8"/><rect x="195.56" y="847.43" width="65.19" height="65.19" fill="#FFE11E"/><path d="M 195.56 847.43 A 65.19 65.19 0 0 0 260.75 912.6199999999999 L 260.75 847.43" fill="#F4F4C8"/><rect x="260.75" y="782.24" width="130.37" height="130.37" fill="#8A8847"/><path d="M 260.75 782.24 A 130.37 130.37 0 0 1 391.12 912.61 L 260.75 912.61" fill="#F4F4C8"/><rect x="391.1196" y="782.2392" width="130.3732" height="130.3732" fill="#fcfcfc"/><rect x="391.12" y="782.24" width="65.19" height="65.19" fill="#1C1C1C"/><path d="M 391.12 782.24 A 65.19 65.19 0 0 0 456.31 847.4300000000001 L 456.31 782.24" fill="#1C1C1C"/><rect x="456.31" y="782.24" width="65.19" height="65.19" fill="#FFE11E"/><path d="M 456.31 782.24 A 65.19 65.19 0 0 0 521.5 847.4300000000001 L 521.5 782.24" fill="#8A8847"/><rect x="391.12" y="847.43" width="65.19" height="65.19" fill="#F4F4C8"/><path d="M 391.12 912.6199999999999 A 65.19 65.19 0 0 1  456.31 847.43 L 391.12 912.6199999999999 A 65.19 65.19 0 0 0 456.31 847.43" fill="#1C1C1C"/><rect x="456.31" y="847.43" width="65.19" height="65.19" fill="#1C1C1C"/><rect x="456.31" y="847.43" width="65.19" height="65.19" fill="#1C1C1C"/><rect x="521.4928" y="782.2392" width="130.3732" height="130.3732" fill="#fcfcfc"/><rect x="521.49" y="782.24" width="65.19" height="65.19" fill="#8A8847"/><path d="M 521.49 847.4300000000001 A 65.19 65.19 0 0 1  586.6800000000001 782.24 L 521.49 847.4300000000001 A 65.19 65.19 0 0 0 586.6800000000001 782.24" fill="#FFE11E"/><rect x="586.68" y="782.24" width="65.19" height="65.19" fill="#F4F4C8"/><rect x="586.68" y="782.24" width="65.19" height="65.19" fill="#1C1C1C"/><rect x="521.49" y="847.43" width="65.19" height="65.19" fill="#1C1C1C"/><path d="M 521.49 847.43 A 65.19 65.19 0 0 0 586.6800000000001 912.6199999999999 L 586.6800000000001 847.43" fill="#FFE11E"/><rect x="586.68" y="847.43" width="65.19" height="65.19" fill="#1C1C1C"/><rect x="586.68" y="847.43" width="65.19" height="65.19" fill="#1C1C1C"/><rect x="651.87" y="782.24" width="130.37" height="130.37" fill="#F4F4C8"/><rect x="651.87" y="782.24" width="130.37" height="130.37" fill="#8A8847"/><rect x="782.2392" y="782.2392" width="130.3732" height="130.3732" fill="#fcfcfc"/><rect x="782.24" y="782.24" width="65.19" height="65.19" fill="#1C1C1C"/><path d="M 782.24 847.4300000000001 A 65.19 65.19 0 0 1  847.4300000000001 782.24 L 782.24 847.4300000000001 A 65.19 65.19 0 0 0 847.4300000000001 782.24" fill="#F4F4C8"/><rect x="847.43" y="782.24" width="65.19" height="65.19" fill="#FFE11E"/><rect x="847.43" y="782.24" width="65.19" height="65.19" fill="#F4F4C8"/><rect x="782.24" y="847.43" width="65.19" height="65.19" fill="#F4F4C8"/><path d="M 782.24 912.6199999999999 A 65.19 65.19 0 0 1  847.4300000000001 847.43 L 782.24 912.6199999999999 A 65.19 65.19 0 0 0 847.4300000000001 847.43" fill="#8A8847"/><rect x="847.43" y="847.43" width="65.19" height="65.19" fill="#F4F4C8"/><path d="M 847.43 912.6199999999999 A 65.19 65.19 0 0 1  912.6199999999999 847.43 L 847.43 912.6199999999999 A 65.19 65.19 0 0 0 912.6199999999999 847.43" fill="#FFE11E"/><rect x="912.6124" y="782.2392" width="130.3732" height="130.3732" fill="#fcfcfc"/><rect x="912.61" y="782.24" width="65.19" height="65.19" fill="#8A8847"/><rect x="912.61" y="782.24" width="65.19" height="65.19" fill="#8A8847"/><rect x="977.8" y="782.24" width="65.19" height="65.19" fill="#F4F4C8"/><rect x="977.8" y="782.24" width="65.19" height="65.19" fill="#F4F4C8"/><rect x="912.61" y="847.43" width="65.19" height="65.19" fill="#8A8847"/><path d="M 912.61 847.43 A 65.19 65.19 0 0 1  977.8 912.6199999999999 L 912.61 847.43 A 65.19 65.19 0 0 0 977.8 912.6199999999999" fill="#FFE11E"/><rect x="977.8" y="847.43" width="65.19" height="65.19" fill="#FFE11E"/><rect x="977.8" y="847.43" width="65.19" height="65.19" fill="#8A8847"/><rect x="1042.99" y="782.24" width="130.37" height="130.37" fill="#1C1C1C"/><path d="M 1042.99 782.24 A 130.37 130.37 0 0 1  1173.3600000000001 912.61 L 1042.99 782.24 A 130.37 130.37 0 0 0 1173.3600000000001 912.61" fill="#F4F4C8"/><rect x="1173.3588" y="782.2392" width="130.3732" height="130.3732" fill="#fcfcfc"/><rect x="1173.36" y="782.24" width="65.19" height="65.19" fill="#F4F4C8"/><rect x="1173.36" y="782.24" width="65.19" height="65.19" fill="#F4F4C8"/><rect x="1238.55" y="782.24" width="65.19" height="65.19" fill="#F4F4C8"/><path d="M 1238.55 847.4300000000001 A 65.19 65.19 0 0 1  1303.74 782.24 L 1303.74 847.4300000000001" fill="#FFE11E"/><rect x="1173.36" y="847.43" width="65.19" height="65.19" fill="#F4F4C8"/><rect x="1173.36" y="847.43" width="65.19" height="65.19" fill="#8A8847"/><rect x="1238.55" y="847.43" width="65.19" height="65.19" fill="#1C1C1C"/><rect x="1238.55" y="847.43" width="65.19" height="65.19" fill="#F4F4C8"/><rect x="1303.73" y="782.24" width="130.37" height="130.37" fill="#F4F4C8"/><path d="M 1303.73 912.61 A 130.37 130.37 0 0 0 1434.1 782.24 L 1303.73 782.24" fill="#1C1C1C"/><rect x="1434.11" y="782.24" width="130.37" height="130.37" fill="#FFE11E"/><path d="M 1434.11 912.61 A 130.37 130.37 0 0 0 1564.48 782.24 L 1434.11 782.24" fill="#8A8847"/><rect x="1564.4784" y="782.2392" width="130.3732" height="130.3732" fill="#fcfcfc"/><rect x="1564.48" y="782.24" width="65.19" height="65.19" fill="#FFE11E"/><path d="M 1564.48 782.24 A 65.19 65.19 0 0 1  1629.67 847.4300000000001 L 1564.48 782.24 A 65.19 65.19 0 0 0 1629.67 847.4300000000001" fill="#FFE11E"/><rect x="1629.67" y="782.24" width="65.19" height="65.19" fill="#FFE11E"/><rect x="1629.67" y="782.24" width="65.19" height="65.19" fill="#FFE11E"/><rect x="1564.48" y="847.43" width="65.19" height="65.19" fill="#1C1C1C"/><rect x="1564.48" y="847.43" width="65.19" height="65.19" fill="#F4F4C8"/><rect x="1629.67" y="847.43" width="65.19" height="65.19" fill="#8A8847"/><rect x="1629.67" y="847.43" width="65.19" height="65.19" fill="#8A8847"/><rect x="1694.8516" y="782.2392" width="130.3732" height="130.3732" fill="#fcfcfc"/><rect x="1694.85" y="782.24" width="65.19" height="65.19" fill="#FFE11E"/><rect x="1694.85" y="782.24" width="65.19" height="65.19" fill="#8A8847"/><rect x="1760.04" y="782.24" width="65.19" height="65.19" fill="#1C1C1C"/><rect x="1760.04" y="782.24" width="65.19" height="65.19" fill="#FFE11E"/><rect x="1694.85" y="847.43" width="65.19" height="65.19" fill="#F4F4C8"/><rect x="1694.85" y="847.43" width="65.19" height="65.19" fill="#1C1C1C"/><rect x="1760.04" y="847.43" width="65.19" height="65.19" fill="#1C1C1C"/><path d="M 1760.04 847.43 A 65.19 65.19 0 0 0 1825.23 912.6199999999999 L 1825.23 847.43" fill="#8A8847"/><rect x="1825.22" y="782.24" width="130.37" height="130.37" fill="#8A8847"/><path d="M 1825.22 912.61 A 130.37 130.37 0 0 0 1955.5900000000001 782.24 L 1825.22 782.24" fill="#FFE11E"/><rect x="1955.6" y="782.24" width="130.37" height="130.37" fill="#1C1C1C"/><path d="M 1955.6 782.24 A 130.37 130.37 0 0 0 2085.97 912.61 L 2085.97 782.24" fill="#FFE11E"/><rect x="2085.9712" y="782.2392" width="130.3732" height="130.3732" fill="#fcfcfc"/><rect x="2085.97" y="782.24" width="65.19" height="65.19" fill="#1C1C1C"/><rect x="2085.97" y="782.24" width="65.19" height="65.19" fill="#FFE11E"/><rect x="2151.16" y="782.24" width="65.19" height="65.19" fill="#1C1C1C"/><path d="M 2151.16 782.24 A 65.19 65.19 0 0 0 2216.35 847.4300000000001 L 2216.35 782.24" fill="#F4F4C8"/><rect x="2085.97" y="847.43" width="65.19" height="65.19" fill="#8A8847"/><rect x="2085.97" y="847.43" width="65.19" height="65.19" fill="#F4F4C8"/><rect x="2151.16" y="847.43" width="65.19" height="65.19" fill="#1C1C1C"/><rect x="2151.16" y="847.43" width="65.19" height="65.19" fill="#FFE11E"/><rect x="2216.34" y="782.24" width="130.37" height="130.37" fill="#1C1C1C"/><path d="M 2216.34 912.61 A 130.37 130.37 0 0 1  2346.71 782.24 L 2346.71 912.61" fill="#F4F4C8"/><rect x="2346.7176" y="782.2392" width="130.3732" height="130.3732" fill="#fcfcfc"/><rect x="2346.72" y="782.24" width="65.19" height="65.19" fill="#FFE11E"/><path d="M 2346.72 782.24 A 65.19 65.19 0 0 1 2411.91 847.4300000000001 L 2346.72 847.4300000000001" fill="#F4F4C8"/><rect x="2411.9" y="782.24" width="65.19" height="65.19" fill="#8A8847"/><path d="M 2411.9 847.4300000000001 A 65.19 65.19 0 0 1  2477.09 782.24 L 2477.09 847.4300000000001" fill="#FFE11E"/><rect x="2346.72" y="847.43" width="65.19" height="65.19" fill="#8A8847"/><rect x="2346.72" y="847.43" width="65.19" height="65.19" fill="#F4F4C8"/><rect x="2411.9" y="847.43" width="65.19" height="65.19" fill="#8A8847"/><rect x="2411.9" y="847.43" width="65.19" height="65.19" fill="#8A8847"/><rect x="2477.09" y="782.24" width="130.37" height="130.37" fill="#FFE11E"/><rect x="2477.09" y="782.24" width="130.37" height="130.37" fill="#1C1C1C"/><rect x="2607.46" y="782.24" width="130.37" height="130.37" fill="#1C1C1C"/><path d="M 2607.46 782.24 A 130.37 130.37 0 0 0 2737.83 912.61 L 2737.83 782.24" fill="#F4F4C8"/><rect x="2737.84" y="782.24" width="130.37" height="130.37" fill="#1C1C1C"/><path d="M 2737.84 782.24 A 130.37 130.37 0 0 1  2868.21 912.61 L 2737.84 782.24 A 130.37 130.37 0 0 0 2868.21 912.61" fill="#F4F4C8"/><rect x="2868.2104" y="782.2392" width="130.3732" height="130.3732" fill="#fcfcfc"/><rect x="2868.21" y="782.24" width="65.19" height="65.19" fill="#FFE11E"/><rect x="2868.21" y="782.24" width="65.19" height="65.19" fill="#1C1C1C"/><rect x="2933.4" y="782.24" width="65.19" height="65.19" fill="#FFE11E"/><path d="M 2933.4 847.4300000000001 A 65.19 65.19 0 0 1  2998.59 782.24 L 2933.4 847.4300000000001 A 65.19 65.19 0 0 0 2998.59 782.24" fill="#FFE11E"/><rect x="2868.21" y="847.43" width="65.19" height="65.19" fill="#F4F4C8"/><rect x="2868.21" y="847.43" width="65.19" height="65.19" fill="#F4F4C8"/><rect x="2933.4" y="847.43" width="65.19" height="65.19" fill="#F4F4C8"/><rect x="2933.4" y="847.43" width="65.19" height="65.19" fill="#8A8847"/><rect x="2998.5836" y="782.2392" width="130.3732" height="130.3732" fill="#fcfcfc"/><rect x="2998.58" y="782.24" width="65.19" height="65.19" fill="#8A8847"/><path d="M 2998.58 782.24 A 65.19 65.19 0 0 1  3063.77 847.4300000000001 L 2998.58 782.24 A 65.19 65.19 0 0 0 3063.77 847.4300000000001" fill="#F4F4C8"/><rect x="3063.77" y="782.24" width="65.19" height="65.19" fill="#8A8847"/><path d="M 3063.77 782.24 A 65.19 65.19 0 0 1 3128.96 847.4300000000001 L 3063.77 847.4300000000001" fill="#F4F4C8"/><rect x="2998.58" y="847.43" width="65.19" height="65.19" fill="#FFE11E"/><path d="M 2998.58 847.43 A 65.19 65.19 0 0 0 3063.77 912.6199999999999 L 3063.77 847.43" fill="#8A8847"/><rect x="3063.77" y="847.43" width="65.19" height="65.19" fill="#FFE11E"/><path d="M 3063.77 912.6199999999999 A 65.19 65.19 0 0 1  3128.96 847.43 L 3128.96 912.6199999999999" fill="#FFE11E"/><rect x="3128.9568" y="782.2392" width="130.3732" height="130.3732" fill="#fcfcfc"/><rect x="3128.96" y="782.24" width="65.19" height="65.19" fill="#F4F4C8"/><rect x="3128.96" y="782.24" width="65.19" height="65.19" fill="#F4F4C8"/><rect x="3194.14" y="782.24" width="65.19" height="65.19" fill="#8A8847"/><rect x="3194.14" y="782.24" width="65.19" height="65.19" fill="#F4F4C8"/><rect x="3128.96" y="847.43" width="65.19" height="65.19" fill="#FFE11E"/><path d="M 3128.96 912.6199999999999 A 65.19 65.19 0 0 1  3194.15 847.43 L 3194.15 912.6199999999999" fill="#F4F4C8"/><rect x="3194.14" y="847.43" width="65.19" height="65.19" fill="#FFE11E"/><rect x="3194.14" y="847.43" width="65.19" height="65.19" fill="#8A8847"/><rect x="0" y="912.6124" width="130.3732" height="130.3732" fill="#fcfcfc"/><rect x="0" y="912.61" width="65.19" height="65.19" fill="#FFE11E"/><rect x="0" y="912.61" width="65.19" height="65.19" fill="#8A8847"/><rect x="65.19" y="912.61" width="65.19" height="65.19" fill="#8A8847"/><rect x="65.19" y="912.61" width="65.19" height="65.19" fill="#F4F4C8"/><rect x="0" y="977.8" width="65.19" height="65.19" fill="#FFE11E"/><path d="M 0 1042.99 A 65.19 65.19 0 0 1  65.19 977.8 L 65.19 1042.99" fill="#F4F4C8"/><rect x="65.19" y="977.8" width="65.19" height="65.19" fill="#FFE11E"/><path d="M 65.19 977.8 A 65.19 65.19 0 0 0 130.38 1042.99 L 130.38 977.8" fill="#FFE11E"/><rect x="130.3732" y="912.6124" width="130.3732" height="130.3732" fill="#fcfcfc"/><rect x="130.37" y="912.61" width="65.19" height="65.19" fill="#1C1C1C"/><path d="M 130.37 977.8 A 65.19 65.19 0 0 0 195.56 912.61 L 130.37 912.61" fill="#1C1C1C"/><rect x="195.56" y="912.61" width="65.19" height="65.19" fill="#F4F4C8"/><path d="M 195.56 977.8 A 65.19 65.19 0 0 1  260.75 912.61 L 195.56 977.8 A 65.19 65.19 0 0 0 260.75 912.61" fill="#1C1C1C"/><rect x="130.37" y="977.8" width="65.19" height="65.19" fill="#F4F4C8"/><path d="M 130.37 977.8 A 65.19 65.19 0 0 0 195.56 1042.99 L 195.56 977.8" fill="#8A8847"/><rect x="195.56" y="977.8" width="65.19" height="65.19" fill="#FFE11E"/><rect x="195.56" y="977.8" width="65.19" height="65.19" fill="#F4F4C8"/><rect x="260.75" y="912.61" width="130.37" height="130.37" fill="#FFE11E"/><rect x="260.75" y="912.61" width="130.37" height="130.37" fill="#1C1C1C"/><rect x="391.12" y="912.61" width="130.37" height="130.37" fill="#8A8847"/><rect x="391.12" y="912.61" width="130.37" height="130.37" fill="#F4F4C8"/><rect x="521.49" y="912.61" width="130.37" height="130.37" fill="#FFE11E"/><path d="M 521.49 912.61 A 130.37 130.37 0 0 1 651.86 1042.98 L 521.49 1042.98" fill="#F4F4C8"/><rect x="651.866" y="912.6124" width="130.3732" height="130.3732" fill="#fcfcfc"/><rect x="651.87" y="912.61" width="65.19" height="65.19" fill="#F4F4C8"/><path d="M 651.87 977.8 A 65.19 65.19 0 0 1  717.06 912.61 L 651.87 977.8 A 65.19 65.19 0 0 0 717.06 912.61" fill="#1C1C1C"/><rect x="717.05" y="912.61" width="65.19" height="65.19" fill="#1C1C1C"/><path d="M 717.05 977.8 A 65.19 65.19 0 0 0 782.24 912.61 L 717.05 912.61" fill="#8A8847"/><rect x="651.87" y="977.8" width="65.19" height="65.19" fill="#F4F4C8"/><path d="M 651.87 977.8 A 65.19 65.19 0 0 1 717.06 1042.99 L 651.87 1042.99" fill="#1C1C1C"/><rect x="717.05" y="977.8" width="65.19" height="65.19" fill="#1C1C1C"/><rect x="717.05" y="977.8" width="65.19" height="65.19" fill="#8A8847"/><rect x="782.2392" y="912.6124" width="130.3732" height="130.3732" fill="#fcfcfc"/><rect x="782.24" y="912.61" width="65.19" height="65.19" fill="#8A8847"/><rect x="782.24" y="912.61" width="65.19" height="65.19" fill="#1C1C1C"/><rect x="847.43" y="912.61" width="65.19" height="65.19" fill="#1C1C1C"/><rect x="847.43" y="912.61" width="65.19" height="65.19" fill="#FFE11E"/><rect x="782.24" y="977.8" width="65.19" height="65.19" fill="#1C1C1C"/><rect x="782.24" y="977.8" width="65.19" height="65.19" fill="#8A8847"/><rect x="847.43" y="977.8" width="65.19" height="65.19" fill="#8A8847"/><path d="M 847.43 977.8 A 65.19 65.19 0 0 1  912.6199999999999 1042.99 L 847.43 977.8 A 65.19 65.19 0 0 0 912.6199999999999 1042.99" fill="#8A8847"/><rect x="912.61" y="912.61" width="130.37" height="130.37" fill="#FFE11E"/><path d="M 912.61 912.61 A 130.37 130.37 0 0 1 1042.98 1042.98 L 912.61 1042.98" fill="#8A8847"/><rect x="1042.9856" y="912.6124" width="130.3732" height="130.3732" fill="#fcfcfc"/><rect x="1042.99" y="912.61" width="65.19" height="65.19" fill="#1C1C1C"/><rect x="1042.99" y="912.61" width="65.19" height="65.19" fill="#8A8847"/><rect x="1108.17" y="912.61" width="65.19" height="65.19" fill="#F4F4C8"/><path d="M 1108.17 977.8 A 65.19 65.19 0 0 1  1173.3600000000001 912.61 L 1173.3600000000001 977.8" fill="#1C1C1C"/><rect x="1042.99" y="977.8" width="65.19" height="65.19" fill="#F4F4C8"/><path d="M 1042.99 1042.99 A 65.19 65.19 0 0 0 1108.18 977.8 L 1042.99 977.8" fill="#F4F4C8"/><rect x="1108.17" y="977.8" width="65.19" height="65.19" fill="#FFE11E"/><path d="M 1108.17 1042.99 A 65.19 65.19 0 0 0 1173.3600000000001 977.8 L 1108.17 977.8" fill="#F4F4C8"/><rect x="1173.36" y="912.61" width="130.37" height="130.37" fill="#1C1C1C"/><rect x="1173.36" y="912.61" width="130.37" height="130.37" fill="#1C1C1C"/><rect x="1303.73" y="912.61" width="130.37" height="130.37" fill="#1C1C1C"/><rect x="1303.73" y="912.61" width="130.37" height="130.37" fill="#FFE11E"/><rect x="1434.1052" y="912.6124" width="130.3732" height="130.3732" fill="#fcfcfc"/><rect x="1434.11" y="912.61" width="65.19" height="65.19" fill="#8A8847"/><rect x="1434.11" y="912.61" width="65.19" height="65.19" fill="#8A8847"/><rect x="1499.29" y="912.61" width="65.19" height="65.19" fill="#8A8847"/><path d="M 1499.29 977.8 A 65.19 65.19 0 0 0 1564.48 912.61 L 1499.29 912.61" fill="#1C1C1C"/><rect x="1434.11" y="977.8" width="65.19" height="65.19" fill="#FFE11E"/><path d="M 1434.11 1042.99 A 65.19 65.19 0 0 0 1499.3 977.8 L 1434.11 977.8" fill="#F4F4C8"/><rect x="1499.29" y="977.8" width="65.19" height="65.19" fill="#F4F4C8"/><path d="M 1499.29 977.8 A 65.19 65.19 0 0 0 1564.48 1042.99 L 1564.48 977.8" fill="#FFE11E"/><rect x="1564.48" y="912.61" width="130.37" height="130.37" fill="#8A8847"/><rect x="1564.48" y="912.61" width="130.37" height="130.37" fill="#1C1C1C"/><rect x="1694.85" y="912.61" width="130.37" height="130.37" fill="#FFE11E"/><path d="M 1694.85 912.61 A 130.37 130.37 0 0 0 1825.2199999999998 1042.98 L 1825.2199999999998 912.61" fill="#8A8847"/><rect x="1825.2248" y="912.6124" width="130.3732" height="130.3732" fill="#fcfcfc"/><rect x="1825.22" y="912.61" width="65.19" height="65.19" fill="#FFE11E"/><path d="M 1825.22 912.61 A 65.19 65.19 0 0 1 1890.41 977.8 L 1825.22 977.8" fill="#FFE11E"/><rect x="1890.41" y="912.61" width="65.19" height="65.19" fill="#8A8847"/><rect x="1890.41" y="912.61" width="65.19" height="65.19" fill="#FFE11E"/><rect x="1825.22" y="977.8" width="65.19" height="65.19" fill="#FFE11E"/><path d="M 1825.22 977.8 A 65.19 65.19 0 0 1 1890.41 1042.99 L 1825.22 1042.99" fill="#F4F4C8"/><rect x="1890.41" y="977.8" width="65.19" height="65.19" fill="#1C1C1C"/><path d="M 1890.41 977.8 A 65.19 65.19 0 0 0 1955.6000000000001 1042.99 L 1955.6000000000001 977.8" fill="#F4F4C8"/><rect x="1955.6" y="912.61" width="130.37" height="130.37" fill="#FFE11E"/><path d="M 1955.6 912.61 A 130.37 130.37 0 0 1  2085.97 1042.98 L 1955.6 912.61 A 130.37 130.37 0 0 0 2085.97 1042.98" fill="#1C1C1C"/><rect x="2085.97" y="912.61" width="130.37" height="130.37" fill="#F4F4C8"/><rect x="2085.97" y="912.61" width="130.37" height="130.37" fill="#F4F4C8"/><rect x="2216.34" y="912.61" width="130.37" height="130.37" fill="#FFE11E"/><rect x="2216.34" y="912.61" width="130.37" height="130.37" fill="#8A8847"/><rect x="2346.7176" y="912.6124" width="130.3732" height="130.3732" fill="#fcfcfc"/><rect x="2346.72" y="912.61" width="65.19" height="65.19" fill="#8A8847"/><path d="M 2346.72 912.61 A 65.19 65.19 0 0 1 2411.91 977.8 L 2346.72 977.8" fill="#8A8847"/><rect x="2411.9" y="912.61" width="65.19" height="65.19" fill="#F4F4C8"/><path d="M 2411.9 912.61 A 65.19 65.19 0 0 1 2477.09 977.8 L 2411.9 977.8" fill="#FFE11E"/><rect x="2346.72" y="977.8" width="65.19" height="65.19" fill="#1C1C1C"/><path d="M 2346.72 1042.99 A 65.19 65.19 0 0 1  2411.91 977.8 L 2346.72 1042.99 A 65.19 65.19 0 0 0 2411.91 977.8" fill="#1C1C1C"/><rect x="2411.9" y="977.8" width="65.19" height="65.19" fill="#FFE11E"/><rect x="2411.9" y="977.8" width="65.19" height="65.19" fill="#FFE11E"/><rect x="2477.0908" y="912.6124" width="130.3732" height="130.3732" fill="#fcfcfc"/><rect x="2477.09" y="912.61" width="65.19" height="65.19" fill="#FFE11E"/><path d="M 2477.09 977.8 A 65.19 65.19 0 0 1  2542.28 912.61 L 2542.28 977.8" fill="#FFE11E"/><rect x="2542.28" y="912.61" width="65.19" height="65.19" fill="#FFE11E"/><rect x="2542.28" y="912.61" width="65.19" height="65.19" fill="#8A8847"/><rect x="2477.09" y="977.8" width="65.19" height="65.19" fill="#FFE11E"/><rect x="2477.09" y="977.8" width="65.19" height="65.19" fill="#F4F4C8"/><rect x="2542.28" y="977.8" width="65.19" height="65.19" fill="#FFE11E"/><path d="M 2542.28 1042.99 A 65.19 65.19 0 0 1  2607.4700000000003 977.8 L 2542.28 1042.99 A 65.19 65.19 0 0 0 2607.4700000000003 977.8" fill="#F4F4C8"/><rect x="2607.46" y="912.61" width="130.37" height="130.37" fill="#FFE11E"/><path d="M 2607.46 1042.98 A 130.37 130.37 0 0 0 2737.83 912.61 L 2607.46 912.61" fill="#F4F4C8"/><rect x="2737.84" y="912.61" width="130.37" height="130.37" fill="#F4F4C8"/><path d="M 2737.84 912.61 A 130.37 130.37 0 0 1  2868.21 1042.98 L 2737.84 912.61 A 130.37 130.37 0 0 0 2868.21 1042.98" fill="#FFE11E"/><rect x="2868.2104" y="912.6124" width="130.3732" height="130.3732" fill="#fcfcfc"/><rect x="2868.21" y="912.61" width="65.19" height="65.19" fill="#8A8847"/><path d="M 2868.21 977.8 A 65.19 65.19 0 0 1  2933.4 912.61 L 2933.4 977.8" fill="#FFE11E"/><rect x="2933.4" y="912.61" width="65.19" height="65.19" fill="#8A8847"/><path d="M 2933.4 912.61 A 65.19 65.19 0 0 1 2998.59 977.8 L 2933.4 977.8" fill="#F4F4C8"/><rect x="2868.21" y="977.8" width="65.19" height="65.19" fill="#F4F4C8"/><path d="M 2868.21 1042.99 A 65.19 65.19 0 0 1  2933.4 977.8 L 2933.4 1042.99" fill="#1C1C1C"/><rect x="2933.4" y="977.8" width="65.19" height="65.19" fill="#8A8847"/><path d="M 2933.4 1042.99 A 65.19 65.19 0 0 0 2998.59 977.8 L 2933.4 977.8" fill="#8A8847"/><rect x="2998.5836" y="912.6124" width="130.3732" height="130.3732" fill="#fcfcfc"/><rect x="2998.58" y="912.61" width="65.19" height="65.19" fill="#8A8847"/><rect x="2998.58" y="912.61" width="65.19" height="65.19" fill="#FFE11E"/><rect x="3063.77" y="912.61" width="65.19" height="65.19" fill="#FFE11E"/><path d="M 3063.77 977.8 A 65.19 65.19 0 0 1  3128.96 912.61 L 3128.96 977.8" fill="#FFE11E"/><rect x="2998.58" y="977.8" width="65.19" height="65.19" fill="#8A8847"/><path d="M 2998.58 1042.99 A 65.19 65.19 0 0 1  3063.77 977.8 L 2998.58 1042.99 A 65.19 65.19 0 0 0 3063.77 977.8" fill="#8A8847"/><rect x="3063.77" y="977.8" width="65.19" height="65.19" fill="#1C1C1C"/><rect x="3063.77" y="977.8" width="65.19" height="65.19" fill="#F4F4C8"/><rect x="3128.9568" y="912.6124" width="130.3732" height="130.3732" fill="#fcfcfc"/><rect x="3128.96" y="912.61" width="65.19" height="65.19" fill="#F4F4C8"/><path d="M 3128.96 977.8 A 65.19 65.19 0 0 1  3194.15 912.61 L 3194.15 977.8" fill="#F4F4C8"/><rect x="3194.14" y="912.61" width="65.19" height="65.19" fill="#1C1C1C"/><rect x="3194.14" y="912.61" width="65.19" height="65.19" fill="#FFE11E"/><rect x="3128.96" y="977.8" width="65.19" height="65.19" fill="#1C1C1C"/><path d="M 3128.96 1042.99 A 65.19 65.19 0 0 1  3194.15 977.8 L 3194.15 1042.99" fill="#8A8847"/><rect x="3194.14" y="977.8" width="65.19" height="65.19" fill="#FFE11E"/><rect x="3194.14" y="977.8" width="65.19" height="65.19" fill="#FFE11E"/></g></svg>