<?xml version="1.0" encoding="UTF-8"?>
<svg preserveAspectRatio="xMaxYMax slice" viewBox="0 0 1e3 307.69" xmlns="http://www.w3.org/2000/svg">
<g transform="scale(.46512)">
<rect width="2150" height="661.54" fill="#f8fafc"/>
<rect width="82.692" height="82.692" fill="#f8fafc"/>
<rect width="41.35" height="41.35" fill="#1e293b"/>
<polygon points="41.35 0 41.35 41.35 0 41.35" fill="#475569"/>
<rect x="41.35" width="41.35" height="41.35" fill="#1e293b"/>
<polygon points="41.35 0 82.7 41.35 41.35 41.35" fill="#1e293b"/>
<rect y="41.35" width="41.35" height="41.35" fill="#dc2626"/>
<polygon points="0 41.35 41.35 41.35 41.35 82.7" fill="#1e293b"/>
<rect x="41.35" y="41.35" width="41.35" height="41.35" fill="#dc2626"/>
<polygon points="41.35 41.35 82.7 41.35 41.35 82.7" fill="#dc2626"/>
<rect x="82.692" width="82.692" height="82.692" fill="#f8fafc"/>
<rect x="82.69" width="41.35" height="41.35" fill="#334155"/>
<circle cx="103.36" cy="20.675" r="20.675" fill="#334155"/>
<rect x="124.04" width="41.35" height="41.35" fill="#dc2626"/>
<rect x="124.04" width="41.35" height="41.35" fill="#dc2626"/>
<rect x="82.69" y="41.35" width="41.35" height="41.35" fill="#1e293b"/>
<circle cx="103.36" cy="62.025" r="20.675" fill="#475569"/>
<rect x="124.04" y="41.35" width="41.35" height="41.35" fill="#dc2626"/>
<rect x="124.04" y="41.35" width="41.35" height="41.35" fill="#e2e8f0"/>
<rect x="165.38" width="82.692" height="82.692" fill="#f8fafc"/>
<rect x="165.38" width="41.35" height="41.35" fill="#475569"/>
<polygon points="206.73 0 206.73 41.35 165.38 41.35" fill="#e2e8f0"/>
<rect x="206.73" width="41.35" height="41.35" fill="#e2e8f0"/>
<polygon points="206.73 0 248.08 41.35 206.73 41.35" fill="#1e293b"/>
<rect x="165.38" y="41.35" width="41.35" height="41.35" fill="#475569"/>
<polygon points="165.38 41.35 206.73 41.35 165.38 82.7" fill="#e2e8f0"/>
<rect x="206.73" y="41.35" width="41.35" height="41.35" fill="#dc2626"/>
<polygon points="206.73 41.35 248.08 41.35 248.08 82.7" fill="#dc2626"/>
<rect x="248.08" width="82.69" height="82.69" fill="#334155"/>
<path d="m248.08 82.69a82.69 82.69 0 0 1 82.69-82.69l-82.69 82.69a82.69 82.69 0 0 0 82.69-82.69" fill="#1e293b"/>
<rect x="330.77" width="82.692" height="82.692" fill="#f8fafc"/>
<rect x="330.77" width="41.35" height="41.35" fill="#475569"/>
<path d="m330.77 41.35a41.35 41.35 0 0 1 41.35-41.35v10.338a31.013 31.013 0 0 0-31.013 31.012" fill="#e2e8f0"/>
<rect x="372.12" width="41.35" height="41.35" fill="#e2e8f0"/>
<path d="m372.12 0a41.35 41.35 0 0 1 41.35 41.35h-10.338a31.013 31.013 0 0 0-31.012-31.012" fill="#dc2626"/>
<rect x="330.77" y="41.35" width="41.35" height="41.35" fill="#1e293b"/>
<path d="m330.77 41.35a41.35 41.35 0 0 0 41.35 41.35v-10.337a31.013 31.013 0 0 1-31.013-31.013" fill="#1e293b"/>
<rect x="372.12" y="41.35" width="41.35" height="41.35" fill="#e2e8f0"/>
<path d="m372.12 82.7a41.35 41.35 0 0 0 41.35-41.35h-10.338a31.013 31.013 0 0 1-31.012 31.013" fill="#475569"/>
<rect x="413.46" width="82.69" height="82.69" fill="#e2e8f0"/>
<rect x="413.46" width="82.69" height="82.69" fill="#dc2626"/>
<rect x="496.15" width="82.692" height="82.692" fill="#f8fafc"/>
<rect x="496.15" width="41.35" height="41.35" fill="#475569"/>
<path d="m496.15 41.35a41.35 41.35 0 0 0 41.35-41.35h-41.35" fill="#334155"/>
<rect x="537.5" width="41.35" height="41.35" fill="#475569"/>
<path d="m537.5 0a41.35 41.35 0 0 0 41.35 41.35v-41.35" fill="#475569"/>
<rect x="496.15" y="41.35" width="41.35" height="41.35" fill="#1e293b"/>
<path d="m496.15 41.35a41.35 41.35 0 0 1 41.35 41.35h-41.35" fill="#e2e8f0"/>
<rect x="537.5" y="41.35" width="41.35" height="41.35" fill="#475569"/>
<path d="m537.5 82.7a41.35 41.35 0 0 1 41.35-41.35v41.35" fill="#e2e8f0"/>
<rect x="578.85" width="82.692" height="82.692" fill="#f8fafc"/>
<rect x="578.85" width="41.35" height="41.35" fill="#dc2626"/>
<polygon points="620.2 0 620.2 41.35 578.85 41.35" fill="#e2e8f0"/>
<rect x="620.19" width="41.35" height="41.35" fill="#475569"/>
<polygon points="620.19 0 661.54 41.35 620.19 41.35" fill="#dc2626"/>
<rect x="578.85" y="41.35" width="41.35" height="41.35" fill="#e2e8f0"/>
<polygon points="578.85 41.35 620.2 41.35 578.85 82.7" fill="#334155"/>
<rect x="620.19" y="41.35" width="41.35" height="41.35" fill="#e2e8f0"/>
<polygon points="620.19 41.35 661.54 41.35 661.54 82.7" fill="#e2e8f0"/>
<rect x="661.54" width="82.692" height="82.692" fill="#f8fafc"/>
<rect x="661.54" width="41.35" height="41.35" fill="#e2e8f0"/>
<path d="m661.54 41.35a41.35 41.35 0 0 0 41.35-41.35h-41.35" fill="#e2e8f0"/>
<rect x="702.88" width="41.35" height="41.35" fill="#334155"/>
<path d="m702.88 0a41.35 41.35 0 0 0 41.35 41.35v-41.35" fill="#334155"/>
<rect x="661.54" y="41.35" width="41.35" height="41.35" fill="#1e293b"/>
<path d="m661.54 41.35a41.35 41.35 0 0 1 41.35 41.35h-41.35" fill="#475569"/>
<rect x="702.88" y="41.35" width="41.35" height="41.35" fill="#475569"/>
<path d="m702.88 82.7a41.35 41.35 0 0 1 41.35-41.35v41.35" fill="#dc2626"/>
<rect x="744.23" width="82.692" height="82.692" fill="#f8fafc"/>
<rect x="744.23" width="41.35" height="41.35" fill="#dc2626"/>
<path d="m744.23 41.35a41.35 41.35 0 0 1 41.35-41.35v41.35" fill="#e2e8f0"/>
<rect x="785.58" width="41.35" height="41.35" fill="#334155"/>
<path d="m785.58 0a41.35 41.35 0 0 1 41.35 41.35h-41.35" fill="#475569"/>
<rect x="744.23" y="41.35" width="41.35" height="41.35" fill="#dc2626"/>
<path d="m744.23 41.35a41.35 41.35 0 0 0 41.35 41.35v-41.35" fill="#dc2626"/>
<rect x="785.58" y="41.35" width="41.35" height="41.35" fill="#475569"/>
<path d="m785.58 82.7a41.35 41.35 0 0 0 41.35-41.35h-41.35" fill="#334155"/>
<rect x="826.92" width="82.692" height="82.692" fill="#f8fafc"/>
<rect x="826.92" width="41.35" height="41.35" fill="#334155"/>
<polygon points="868.27 0 868.27 41.35 826.92 41.35" fill="#1e293b"/>
<rect x="868.27" width="41.35" height="41.35" fill="#e2e8f0"/>
<polygon points="868.27 0 909.62 41.35 868.27 41.35" fill="#475569"/>
<rect x="826.92" y="41.35" width="41.35" height="41.35" fill="#e2e8f0"/>
<polygon points="826.92 41.35 868.27 41.35 868.27 82.7" fill="#dc2626"/>
<rect x="868.27" y="41.35" width="41.35" height="41.35" fill="#dc2626"/>
<polygon points="868.27 41.35 909.62 41.35 868.27 82.7" fill="#dc2626"/>
<rect x="909.62" width="82.69" height="82.69" fill="#1e293b"/>
<path d="m909.62 0a82.69 82.69 0 0 1 82.69 82.69l-82.69-82.69a82.69 82.69 0 0 0 82.69 82.69" fill="#1e293b"/>
<rect x="992.31" width="82.692" height="82.692" fill="#f8fafc"/>
<rect x="992.31" width="41.35" height="41.35" fill="#dc2626"/>
<path d="m992.31 41.35a41.35 41.35 0 0 1 41.35-41.35v10.338a31.013 31.013 0 0 0-31.012 31.012" fill="#334155"/>
<rect x="1033.6" width="41.35" height="41.35" fill="#475569"/>
<path d="m1033.6 0a41.35 41.35 0 0 1 41.35 41.35h-10.337a31.013 31.013 0 0 0-31.013-31.012" fill="#1e293b"/>
<rect x="992.31" y="41.35" width="41.35" height="41.35" fill="#1e293b"/>
<path d="m992.31 41.35a41.35 41.35 0 0 0 41.35 41.35v-10.337a31.013 31.013 0 0 1-31.012-31.013" fill="#dc2626"/>
<rect x="1033.6" y="41.35" width="41.35" height="41.35" fill="#475569"/>
<path d="m1033.6 82.7a41.35 41.35 0 0 0 41.35-41.35h-10.337a31.013 31.013 0 0 1-31.013 31.013" fill="#dc2626"/>
<rect x="1075" width="82.692" height="82.692" fill="#f8fafc"/>
<rect x="1075" width="41.35" height="41.35" fill="#475569"/>
<path d="m1075 0a41.35 41.35 0 0 1 41.35 41.35h-41.35" fill="#1e293b"/>
<rect x="1116.4" width="41.35" height="41.35" fill="#dc2626"/>
<path d="m1116.4 41.35a41.35 41.35 0 0 1 41.35-41.35v41.35" fill="#1e293b"/>
<rect x="1075" y="41.35" width="41.35" height="41.35" fill="#1e293b"/>
<path d="m1075 82.7a41.35 41.35 0 0 0 41.35-41.35h-41.35" fill="#1e293b"/>
<rect x="1116.4" y="41.35" width="41.35" height="41.35" fill="#dc2626"/>
<path d="m1116.4 41.35a41.35 41.35 0 0 0 41.35 41.35v-41.35" fill="#1e293b"/>
<rect x="1157.7" width="82.69" height="82.69" fill="#1e293b"/>
<polygon points="1157.7 0 1240.4 0 1240.4 82.69" fill="#334155"/>
<rect x="1240.4" width="82.692" height="82.692" fill="#f8fafc"/>
<rect x="1240.4" width="41.35" height="41.35" fill="#dc2626"/>
<path d="m1240.4 41.35a41.35 41.35 0 0 0 41.35-41.35h-41.35" fill="#1e293b"/>
<rect x="1281.7" width="41.35" height="41.35" fill="#e2e8f0"/>
<path d="m1281.7 0a41.35 41.35 0 0 0 41.35 41.35v-41.35" fill="#334155"/>
<rect x="1240.4" y="41.35" width="41.35" height="41.35" fill="#dc2626"/>
<path d="m1240.4 41.35a41.35 41.35 0 0 1 41.35 41.35h-41.35" fill="#334155"/>
<rect x="1281.7" y="41.35" width="41.35" height="41.35" fill="#475569"/>
<path d="m1281.7 82.7a41.35 41.35 0 0 1 41.35-41.35v41.35" fill="#1e293b"/>
<rect x="1323.1" width="82.69" height="82.69" fill="#334155"/>
<rect x="1323.1" width="82.69" height="82.69" fill="#475569"/>
<rect x="1405.8" width="82.69" height="82.69" fill="#475569"/>
<rect x="1405.8" width="82.69" height="82.69" fill="#334155"/>
<rect x="1488.5" width="82.692" height="82.692" fill="#f8fafc"/>
<rect x="1488.5" width="41.35" height="41.35" fill="#e2e8f0"/>
<polygon points="1529.8 0 1529.8 41.35 1488.5 41.35" fill="#475569"/>
<rect x="1529.8" width="41.35" height="41.35" fill="#dc2626"/>
<polygon points="1529.8 0 1571.2 0 1529.8 41.35" fill="#475569"/>
<rect x="1488.5" y="41.35" width="41.35" height="41.35" fill="#475569"/>
<polygon points="1488.5 41.35 1529.8 41.35 1529.8 82.7" fill="#1e293b"/>
<rect x="1529.8" y="41.35" width="41.35" height="41.35" fill="#334155"/>
<polygon points="1529.8 41.35 1571.2 82.7 1529.8 82.7" fill="#475569"/>
<rect x="1571.2" width="82.692" height="82.692" fill="#f8fafc"/>
<rect x="1571.2" width="41.35" height="41.35" fill="#e2e8f0"/>
<path d="m1571.2 0a41.35 41.35 0 0 0 41.35 41.35v-41.35" fill="#1e293b"/>
<rect x="1612.5" width="41.35" height="41.35" fill="#e2e8f0"/>
<path d="m1612.5 41.35a41.35 41.35 0 0 0 41.35-41.35h-41.35" fill="#334155"/>
<rect x="1571.2" y="41.35" width="41.35" height="41.35" fill="#334155"/>
<path d="m1571.2 82.7a41.35 41.35 0 0 1 41.35-41.35v41.35" fill="#334155"/>
<rect x="1612.5" y="41.35" width="41.35" height="41.35" fill="#1e293b"/>
<path d="m1612.5 41.35a41.35 41.35 0 0 1 41.35 41.35h-41.35" fill="#dc2626"/>
<rect x="1653.8" width="82.69" height="82.69" fill="#334155"/>
<polygon points="1653.8 0 1736.5 82.69 1653.8 82.69" fill="#e2e8f0"/>
<rect x="1736.5" width="82.692" height="82.692" fill="#f8fafc"/>
<rect x="1736.5" width="41.35" height="41.35" fill="#475569"/>
<polygon points="1777.9 0 1777.9 41.35 1736.5 41.35" fill="#e2e8f0"/>
<rect x="1777.9" width="41.35" height="41.35" fill="#dc2626"/>
<polygon points="1777.9 0 1819.2 0 1777.9 41.35" fill="#dc2626"/>
<rect x="1736.5" y="41.35" width="41.35" height="41.35" fill="#dc2626"/>
<polygon points="1736.5 41.35 1777.9 41.35 1777.9 82.7" fill="#334155"/>
<rect x="1777.9" y="41.35" width="41.35" height="41.35" fill="#1e293b"/>
<polygon points="1777.9 41.35 1819.2 82.7 1777.9 82.7" fill="#dc2626"/>
<rect x="1819.2" width="82.692" height="82.692" fill="#f8fafc"/>
<rect x="1819.2" width="41.35" height="41.35" fill="#1e293b"/>
<polygon points="1860.6 0 1860.6 41.35 1819.2 41.35" fill="#475569"/>
<rect x="1860.6" width="41.35" height="41.35" fill="#dc2626"/>
<polygon points="1860.6 0 1901.9 41.35 1860.6 41.35" fill="#334155"/>
<rect x="1819.2" y="41.35" width="41.35" height="41.35" fill="#1e293b"/>
<polygon points="1819.2 41.35 1860.6 41.35 1819.2 82.7" fill="#e2e8f0"/>
<rect x="1860.6" y="41.35" width="41.35" height="41.35" fill="#e2e8f0"/>
<polygon points="1860.6 41.35 1901.9 41.35 1901.9 82.7" fill="#475569"/>
<rect x="1901.9" width="82.692" height="82.692" fill="#f8fafc"/>
<rect x="1901.9" width="41.35" height="41.35" fill="#475569"/>
<polygon points="1943.3 0 1943.3 41.35 1901.9 41.35" fill="#dc2626"/>
<rect x="1943.3" width="41.35" height="41.35" fill="#334155"/>
<polygon points="1943.3 0 1984.6 41.35 1943.3 41.35" fill="#475569"/>
<rect x="1901.9" y="41.35" width="41.35" height="41.35" fill="#475569"/>
<polygon points="1901.9 41.35 1943.3 41.35 1901.9 82.7" fill="#dc2626"/>
<rect x="1943.3" y="41.35" width="41.35" height="41.35" fill="#334155"/>
<polygon points="1943.3 41.35 1984.6 41.35 1984.6 82.7" fill="#e2e8f0"/>
<rect x="1984.6" width="82.69" height="82.69" fill="#e2e8f0"/>
<polygon points="1984.6 0 2067.3 0 2067.3 82.69" fill="#475569"/>
<rect x="2067.3" width="82.69" height="82.69" fill="#1e293b"/>
<polygon points="2150 0 2150 82.69 2067.3 82.69" fill="#e2e8f0"/>
<rect y="82.69" width="82.69" height="82.69" fill="#475569"/>
<path d="m0 82.69a82.69 82.69 0 0 1 82.69 82.69l-82.69-82.69a82.69 82.69 0 0 0 82.69 82.69" fill="#e2e8f0"/>
<rect x="82.692" y="82.692" width="82.692" height="82.692" fill="#f8fafc"/>
<rect x="82.69" y="82.69" width="41.35" height="41.35" fill="#334155"/>
<polygon points="124.04 82.69 124.04 124.04 82.69 124.04" fill="#dc2626"/>
<rect x="124.04" y="82.69" width="41.35" height="41.35" fill="#1e293b"/>
<polygon points="124.04 82.69 165.39 124.04 124.04 124.04" fill="#e2e8f0"/>
<rect x="82.69" y="124.04" width="41.35" height="41.35" fill="#1e293b"/>
<polygon points="82.69 124.04 124.04 124.04 124.04 165.39" fill="#1e293b"/>
<rect x="124.04" y="124.04" width="41.35" height="41.35" fill="#475569"/>
<polygon points="124.04 124.04 165.39 124.04 124.04 165.39" fill="#1e293b"/>
<rect x="165.38" y="82.692" width="82.692" height="82.692" fill="#f8fafc"/>
<rect x="165.38" y="82.69" width="41.35" height="41.35" fill="#e2e8f0"/>
<path d="m165.38 82.69a41.35 41.35 0 0 0 41.35 41.35v-41.35" fill="#1e293b"/>
<rect x="206.73" y="82.69" width="41.35" height="41.35" fill="#334155"/>
<path d="m206.73 124.04a41.35 41.35 0 0 0 41.35-41.35h-41.35" fill="#1e293b"/>
<rect x="165.38" y="124.04" width="41.35" height="41.35" fill="#475569"/>
<path d="m165.38 165.39a41.35 41.35 0 0 1 41.35-41.35v41.35" fill="#1e293b"/>
<rect x="206.73" y="124.04" width="41.35" height="41.35" fill="#e2e8f0"/>
<path d="m206.73 124.04a41.35 41.35 0 0 1 41.35 41.35h-41.35" fill="#475569"/>
<rect x="248.08" y="82.69" width="82.69" height="82.69" fill="#e2e8f0"/>
<polygon points="248.08 82.69 330.77 82.69 330.77 165.38" fill="#dc2626"/>
<rect x="330.77" y="82.692" width="82.692" height="82.692" fill="#f8fafc"/>
<rect x="330.77" y="82.69" width="41.35" height="41.35" fill="#dc2626"/>
<path d="m330.77 124.04a41.35 41.35 0 0 1 41.35-41.35v10.338a31.013 31.013 0 0 0-31.013 31.012" fill="#dc2626"/>
<rect x="372.12" y="82.69" width="41.35" height="41.35" fill="#e2e8f0"/>
<path d="m372.12 82.69a41.35 41.35 0 0 1 41.35 41.35h-10.338a31.013 31.013 0 0 0-31.012-31.012" fill="#334155"/>
<rect x="330.77" y="124.04" width="41.35" height="41.35" fill="#e2e8f0"/>
<path d="m330.77 124.04a41.35 41.35 0 0 0 41.35 41.35v-10.338a31.013 31.013 0 0 1-31.013-31.012" fill="#e2e8f0"/>
<rect x="372.12" y="124.04" width="41.35" height="41.35" fill="#334155"/>
<path d="m372.12 165.39a41.35 41.35 0 0 0 41.35-41.35h-10.338a31.013 31.013 0 0 1-31.012 31.012" fill="#475569"/>
<rect x="413.46" y="82.692" width="82.692" height="82.692" fill="#f8fafc"/>
<rect x="413.46" y="82.69" width="41.35" height="41.35" fill="#334155"/>
<polygon points="454.81 82.69 454.81 124.04 413.46 124.04" fill="#475569"/>
<rect x="454.81" y="82.69" width="41.35" height="41.35" fill="#e2e8f0"/>
<polygon points="454.81 82.69 496.16 124.04 454.81 124.04" fill="#dc2626"/>
<rect x="413.46" y="124.04" width="41.35" height="41.35" fill="#1e293b"/>
<polygon points="413.46 124.04 454.81 124.04 454.81 165.39" fill="#334155"/>
<rect x="454.81" y="124.04" width="41.35" height="41.35" fill="#e2e8f0"/>
<polygon points="454.81 124.04 496.16 124.04 454.81 165.39" fill="#dc2626"/>
<rect x="496.15" y="82.69" width="82.69" height="82.69" fill="#334155"/>
<path d="m496.15 165.38a82.69 82.69 0 0 1 82.69-82.69l-82.69 82.69a82.69 82.69 0 0 0 82.69-82.69" fill="#334155"/>
<rect x="578.85" y="82.69" width="82.69" height="82.69" fill="#475569"/>
<path d="m578.85 165.38a82.69 82.69 0 0 0 82.69-82.69h-82.69" fill="#334155"/>
<rect x="661.54" y="82.69" width="82.69" height="82.69" fill="#dc2626"/>
<polygon points="661.54 82.69 744.23 165.38 661.54 165.38" fill="#1e293b"/>
<rect x="744.23" y="82.692" width="82.692" height="82.692" fill="#f8fafc"/>
<rect x="744.23" y="82.69" width="41.35" height="41.35" fill="#dc2626"/>
<path d="m744.23 124.04a41.35 41.35 0 0 1 41.35-41.35v41.35" fill="#e2e8f0"/>
<rect x="785.58" y="82.69" width="41.35" height="41.35" fill="#1e293b"/>
<path d="m785.58 82.69a41.35 41.35 0 0 1 41.35 41.35h-41.35" fill="#dc2626"/>
<rect x="744.23" y="124.04" width="41.35" height="41.35" fill="#dc2626"/>
<path d="m744.23 124.04a41.35 41.35 0 0 0 41.35 41.35v-41.35" fill="#475569"/>
<rect x="785.58" y="124.04" width="41.35" height="41.35" fill="#475569"/>
<path d="m785.58 165.39a41.35 41.35 0 0 0 41.35-41.35h-41.35" fill="#1e293b"/>
<rect x="826.92" y="82.69" width="82.69" height="82.69" fill="#475569"/>
<polygon points="826.92 82.69 909.61 82.69 909.61 165.38" fill="#475569"/>
<rect x="909.62" y="82.69" width="82.69" height="82.69" fill="#dc2626"/>
<path d="m909.62 165.38a82.69 82.69 0 0 1 82.69-82.69l-82.69 82.69a82.69 82.69 0 0 0 82.69-82.69" fill="#475569"/>
<rect x="992.31" y="82.692" width="82.692" height="82.692" fill="#f8fafc"/>
<rect x="992.31" y="82.69" width="41.35" height="41.35" fill="#e2e8f0"/>
<polygon points="1033.7 82.69 1033.7 124.04 992.31 124.04" fill="#e2e8f0"/>
<rect x="1033.6" y="82.69" width="41.35" height="41.35" fill="#475569"/>
<polygon points="1033.6 82.69 1075 124.04 1033.6 124.04" fill="#475569"/>
<rect x="992.31" y="124.04" width="41.35" height="41.35" fill="#e2e8f0"/>
<polygon points="992.31 124.04 1033.7 124.04 992.31 165.39" fill="#334155"/>
<rect x="1033.6" y="124.04" width="41.35" height="41.35" fill="#dc2626"/>
<polygon points="1033.6 124.04 1075 124.04 1075 165.39" fill="#e2e8f0"/>
<rect x="1075" y="82.692" width="82.692" height="82.692" fill="#f8fafc"/>
<rect x="1075" y="82.69" width="41.35" height="41.35" fill="#334155"/>
<path d="m1075 124.04a41.35 41.35 0 0 1 41.35-41.35v41.35" fill="#e2e8f0"/>
<rect x="1116.4" y="82.69" width="41.35" height="41.35" fill="#1e293b"/>
<path d="m1116.4 82.69a41.35 41.35 0 0 1 41.35 41.35h-41.35" fill="#dc2626"/>
<rect x="1075" y="124.04" width="41.35" height="41.35" fill="#dc2626"/>
<path d="m1075 124.04a41.35 41.35 0 0 0 41.35 41.35v-41.35" fill="#475569"/>
<rect x="1116.4" y="124.04" width="41.35" height="41.35" fill="#334155"/>
<path d="m1116.4 165.39a41.35 41.35 0 0 0 41.35-41.35h-41.35" fill="#334155"/>
<rect x="1157.7" y="82.69" width="82.69" height="82.69" fill="#dc2626"/>
<rect x="1157.7" y="82.69" width="82.69" height="82.69" fill="#1e293b"/>
<rect x="1240.4" y="82.692" width="82.692" height="82.692" fill="#f8fafc"/>
<rect x="1240.4" y="82.69" width="41.35" height="41.35" fill="#334155"/>
<polygon points="1281.7 82.69 1281.7 124.04 1240.4 124.04" fill="#475569"/>
<rect x="1281.7" y="82.69" width="41.35" height="41.35" fill="#1e293b"/>
<polygon points="1281.7 82.69 1323.1 124.04 1281.7 124.04" fill="#1e293b"/>
<rect x="1240.4" y="124.04" width="41.35" height="41.35" fill="#475569"/>
<polygon points="1240.4 124.04 1281.7 124.04 1281.7 165.39" fill="#e2e8f0"/>
<rect x="1281.7" y="124.04" width="41.35" height="41.35" fill="#e2e8f0"/>
<polygon points="1281.7 124.04 1323.1 124.04 1281.7 165.39" fill="#475569"/>
<rect x="1323.1" y="82.692" width="82.692" height="82.692" fill="#f8fafc"/>
<rect x="1323.1" y="82.69" width="41.35" height="41.35" fill="#e2e8f0"/>
<path d="m1323.1 82.69a41.35 41.35 0 0 1 41.35 41.35h-41.35" fill="#1e293b"/>
<rect x="1364.4" y="82.69" width="41.35" height="41.35" fill="#e2e8f0"/>
<path d="m1364.4 124.04a41.35 41.35 0 0 1 41.35-41.35v41.35" fill="#dc2626"/>
<rect x="1323.1" y="124.04" width="41.35" height="41.35" fill="#e2e8f0"/>
<path d="m1323.1 165.39a41.35 41.35 0 0 0 41.35-41.35h-41.35" fill="#dc2626"/>
<rect x="1364.4" y="124.04" width="41.35" height="41.35" fill="#dc2626"/>
<path d="m1364.4 124.04a41.35 41.35 0 0 0 41.35 41.35v-41.35" fill="#475569"/>
<rect x="1405.8" y="82.69" width="82.69" height="82.69" fill="#dc2626"/>
<path d="m1405.8 165.38a82.69 82.69 0 0 1 82.69-82.69l-82.69 82.69a82.69 82.69 0 0 0 82.69-82.69" fill="#334155"/>
<rect x="1488.5" y="82.692" width="82.692" height="82.692" fill="#f8fafc"/>
<rect x="1488.5" y="82.69" width="41.35" height="41.35" fill="#475569"/>
<path d="m1488.5 82.69a41.35 41.35 0 0 1 41.35 41.35h-41.35" fill="#dc2626"/>
<rect x="1529.8" y="82.69" width="41.35" height="41.35" fill="#475569"/>
<path d="m1529.8 124.04a41.35 41.35 0 0 1 41.35-41.35v41.35" fill="#1e293b"/>
<rect x="1488.5" y="124.04" width="41.35" height="41.35" fill="#334155"/>
<path d="m1488.5 165.39a41.35 41.35 0 0 0 41.35-41.35h-41.35" fill="#475569"/>
<rect x="1529.8" y="124.04" width="41.35" height="41.35" fill="#dc2626"/>
<path d="m1529.8 124.04a41.35 41.35 0 0 0 41.35 41.35v-41.35" fill="#e2e8f0"/>
<rect x="1571.2" y="82.692" width="82.692" height="82.692" fill="#f8fafc"/>
<rect x="1571.2" y="82.69" width="41.35" height="41.35" fill="#1e293b"/>
<polygon points="1612.5 82.69 1612.5 124.04 1571.2 124.04" fill="#1e293b"/>
<rect x="1612.5" y="82.69" width="41.35" height="41.35" fill="#475569"/>
<polygon points="1612.5 82.69 1653.8 124.04 1612.5 124.04" fill="#334155"/>
<rect x="1571.2" y="124.04" width="41.35" height="41.35" fill="#e2e8f0"/>
<polygon points="1571.2 124.04 1612.5 124.04 1612.5 165.39" fill="#e2e8f0"/>
<rect x="1612.5" y="124.04" width="41.35" height="41.35" fill="#475569"/>
<polygon points="1612.5 124.04 1653.8 124.04 1612.5 165.39" fill="#1e293b"/>
<rect x="1653.8" y="82.692" width="82.692" height="82.692" fill="#f8fafc"/>
<rect x="1653.8" y="82.69" width="41.35" height="41.35" fill="#1e293b"/>
<path d="m1653.8 124.04a41.35 41.35 0 0 1 41.35-41.35v41.35" fill="#475569"/>
<rect x="1695.2" y="82.69" width="41.35" height="41.35" fill="#1e293b"/>
<path d="m1695.2 82.69a41.35 41.35 0 0 1 41.35 41.35h-41.35" fill="#334155"/>
<rect x="1653.8" y="124.04" width="41.35" height="41.35" fill="#e2e8f0"/>
<path d="m1653.8 124.04a41.35 41.35 0 0 0 41.35 41.35v-41.35" fill="#1e293b"/>
<rect x="1695.2" y="124.04" width="41.35" height="41.35" fill="#e2e8f0"/>
<path d="m1695.2 165.39a41.35 41.35 0 0 0 41.35-41.35h-41.35" fill="#334155"/>
<rect x="1736.5" y="82.69" width="82.69" height="82.69" fill="#475569"/>
<path d="m1736.5 82.69a82.69 82.69 0 0 1 82.69 82.69l-82.69-82.69a82.69 82.69 0 0 0 82.69 82.69" fill="#334155"/>
<rect x="1819.2" y="82.69" width="82.69" height="82.69" fill="#dc2626"/>
<polygon points="1819.2 82.69 1901.9 82.69 1901.9 165.38" fill="#475569"/>
<rect x="1901.9" y="82.692" width="82.692" height="82.692" fill="#f8fafc"/>
<rect x="1901.9" y="82.69" width="41.35" height="41.35" fill="#dc2626"/>
<polygon points="1943.3 82.69 1943.3 124.04 1901.9 124.04" fill="#334155"/>
<rect x="1943.3" y="82.69" width="41.35" height="41.35" fill="#e2e8f0"/>
<polygon points="1943.3 82.69 1984.6 124.04 1943.3 124.04" fill="#475569"/>
<rect x="1901.9" y="124.04" width="41.35" height="41.35" fill="#dc2626"/>
<polygon points="1901.9 124.04 1943.3 124.04 1943.3 165.39" fill="#334155"/>
<rect x="1943.3" y="124.04" width="41.35" height="41.35" fill="#1e293b"/>
<polygon points="1943.3 124.04 1984.6 124.04 1943.3 165.39" fill="#1e293b"/>
<rect x="1984.6" y="82.692" width="82.692" height="82.692" fill="#f8fafc"/>
<rect x="1984.6" y="82.69" width="41.35" height="41.35" fill="#334155"/>
<polygon points="2026 82.69 2026 124.04 1984.6 124.04" fill="#e2e8f0"/>
<rect x="2026" y="82.69" width="41.35" height="41.35" fill="#1e293b"/>
<polygon points="2026 82.69 2067.3 124.04 2026 124.04" fill="#475569"/>
<rect x="1984.6" y="124.04" width="41.35" height="41.35" fill="#475569"/>
<polygon points="1984.6 124.04 2026 124.04 1984.6 165.39" fill="#1e293b"/>
<rect x="2026" y="124.04" width="41.35" height="41.35" fill="#334155"/>
<polygon points="2026 124.04 2067.3 124.04 2067.3 165.39" fill="#e2e8f0"/>
<rect x="2067.3" y="82.692" width="82.692" height="82.692" fill="#f8fafc"/>
<rect x="2067.3" y="82.69" width="41.35" height="41.35" fill="#e2e8f0"/>
<path d="m2067.3 82.69a41.35 41.35 0 0 1 41.35 41.35h-41.35" fill="#334155"/>
<rect x="2108.6" y="82.69" width="41.35" height="41.35" fill="#1e293b"/>
<path d="m2108.6 124.04a41.35 41.35 0 0 1 41.35-41.35v41.35" fill="#334155"/>
<rect x="2067.3" y="124.04" width="41.35" height="41.35" fill="#dc2626"/>
<path d="m2067.3 165.39a41.35 41.35 0 0 0 41.35-41.35h-41.35" fill="#475569"/>
<rect x="2108.6" y="124.04" width="41.35" height="41.35" fill="#dc2626"/>
<path d="m2108.6 124.04a41.35 41.35 0 0 0 41.35 41.35v-41.35" fill="#475569"/>
<rect y="165.38" width="82.69" height="82.69" fill="#dc2626"/>
<path d="m0 165.38a82.69 82.69 0 0 1 82.69 82.69l-82.69-82.69a82.69 82.69 0 0 0 82.69 82.69" fill="#1e293b"/>
<rect x="82.69" y="165.38" width="82.69" height="82.69" fill="#334155"/>
<polygon points="82.69 165.38 165.38 248.07 82.69 248.07" fill="#dc2626"/>
<rect x="165.38" y="165.38" width="82.69" height="82.69" fill="#1e293b"/>
<polygon points="165.38 165.38 248.07 165.38 165.38 248.07" fill="#334155"/>
<rect x="248.08" y="165.38" width="82.69" height="82.69" fill="#475569"/>
<rect x="248.08" y="165.38" width="82.69" height="82.69" fill="#334155"/>
<rect x="330.77" y="165.38" width="82.69" height="82.69" fill="#475569"/>
<polygon points="413.46 165.38 413.46 248.07 330.77 248.07" fill="#475569"/>
<rect x="413.46" y="165.38" width="82.692" height="82.692" fill="#f8fafc"/>
<rect x="413.46" y="165.38" width="41.35" height="41.35" fill="#e2e8f0"/>
<circle cx="434.14" cy="186.06" r="20.675" fill="#1e293b"/>
<rect x="454.81" y="165.38" width="41.35" height="41.35" fill="#e2e8f0"/>
<rect x="454.81" y="165.38" width="41.35" height="41.35" fill="#dc2626"/>
<rect x="413.46" y="206.73" width="41.35" height="41.35" fill="#e2e8f0"/>
<circle cx="434.14" cy="227.4" r="20.675" fill="#475569"/>
<rect x="454.81" y="206.73" width="41.35" height="41.35" fill="#334155"/>
<rect x="454.81" y="206.73" width="41.35" height="41.35" fill="#e2e8f0"/>
<rect x="496.15" y="165.38" width="82.692" height="82.692" fill="#f8fafc"/>
<rect x="496.15" y="165.38" width="41.35" height="41.35" fill="#e2e8f0"/>
<polygon points="537.5 165.38 537.5 206.73 496.15 206.73" fill="#dc2626"/>
<rect x="537.5" y="165.38" width="41.35" height="41.35" fill="#1e293b"/>
<polygon points="537.5 165.38 578.85 206.73 537.5 206.73" fill="#334155"/>
<rect x="496.15" y="206.73" width="41.35" height="41.35" fill="#dc2626"/>
<polygon points="496.15 206.73 537.5 206.73 537.5 248.08" fill="#dc2626"/>
<rect x="537.5" y="206.73" width="41.35" height="41.35" fill="#1e293b"/>
<polygon points="537.5 206.73 578.85 206.73 537.5 248.08" fill="#1e293b"/>
<rect x="578.85" y="165.38" width="82.69" height="82.69" fill="#e2e8f0"/>
<rect x="578.85" y="165.38" width="82.69" height="82.69" fill="#334155"/>
<rect x="661.54" y="165.38" width="82.69" height="82.69" fill="#e2e8f0"/>
<rect x="661.54" y="165.38" width="82.69" height="82.69" fill="#334155"/>
<rect x="744.23" y="165.38" width="82.692" height="82.692" fill="#f8fafc"/>
<rect x="744.23" y="165.38" width="41.35" height="41.35" fill="#e2e8f0"/>
<path d="m744.23 165.38a41.35 41.35 0 0 1 41.35 41.35h-41.35" fill="#e2e8f0"/>
<rect x="785.58" y="165.38" width="41.35" height="41.35" fill="#1e293b"/>
<path d="m785.58 206.73a41.35 41.35 0 0 1 41.35-41.35v41.35" fill="#dc2626"/>
<rect x="744.23" y="206.73" width="41.35" height="41.35" fill="#475569"/>
<path d="m744.23 248.08a41.35 41.35 0 0 0 41.35-41.35h-41.35" fill="#475569"/>
<rect x="785.58" y="206.73" width="41.35" height="41.35" fill="#1e293b"/>
<path d="m785.58 206.73a41.35 41.35 0 0 0 41.35 41.35v-41.35" fill="#334155"/>
<rect x="826.92" y="165.38" width="82.69" height="82.69" fill="#1e293b"/>
<path d="m826.92 165.38a82.69 82.69 0 0 1 82.69 82.69h-82.69" fill="#e2e8f0"/>
<rect x="909.62" y="165.38" width="82.69" height="82.69" fill="#e2e8f0"/>
<polygon points="992.31 165.38 992.31 248.07 909.62 248.07" fill="#e2e8f0"/>
<rect x="992.31" y="165.38" width="82.69" height="82.69" fill="#475569"/>
<path d="m992.31 248.07a82.69 82.69 0 0 1 82.69-82.69v82.69" fill="#e2e8f0"/>
<rect x="1075" y="165.38" width="82.692" height="82.692" fill="#f8fafc"/>
<rect x="1075" y="165.38" width="41.35" height="41.35" fill="#475569"/>
<polygon points="1116.4 165.38 1116.4 206.73 1075 206.73" fill="#e2e8f0"/>
<rect x="1116.4" y="165.38" width="41.35" height="41.35" fill="#475569"/>
<polygon points="1116.4 165.38 1157.7 206.73 1116.4 206.73" fill="#e2e8f0"/>
<rect x="1075" y="206.73" width="41.35" height="41.35" fill="#334155"/>
<polygon points="1075 206.73 1116.4 206.73 1075 248.08" fill="#e2e8f0"/>
<rect x="1116.4" y="206.73" width="41.35" height="41.35" fill="#dc2626"/>
<polygon points="1116.4 206.73 1157.7 206.73 1157.7 248.08" fill="#1e293b"/>
<rect x="1157.7" y="165.38" width="82.692" height="82.692" fill="#f8fafc"/>
<rect x="1157.7" y="165.38" width="41.35" height="41.35" fill="#e2e8f0"/>
<path d="m1157.7 206.73a41.35 41.35 0 0 1 41.35-41.35v41.35" fill="#475569"/>
<rect x="1199" y="165.38" width="41.35" height="41.35" fill="#dc2626"/>
<path d="m1199 165.38a41.35 41.35 0 0 1 41.35 41.35h-41.35" fill="#e2e8f0"/>
<rect x="1157.7" y="206.73" width="41.35" height="41.35" fill="#475569"/>
<path d="m1157.7 206.73a41.35 41.35 0 0 0 41.35 41.35v-41.35" fill="#1e293b"/>
<rect x="1199" y="206.73" width="41.35" height="41.35" fill="#e2e8f0"/>
<path d="m1199 248.08a41.35 41.35 0 0 0 41.35-41.35h-41.35" fill="#1e293b"/>
<rect x="1240.4" y="165.38" width="82.692" height="82.692" fill="#f8fafc"/>
<rect x="1240.4" y="165.38" width="41.35" height="41.35" fill="#dc2626"/>
<polygon points="1281.7 165.38 1281.7 206.73 1240.4 206.73" fill="#475569"/>
<rect x="1281.7" y="165.38" width="41.35" height="41.35" fill="#e2e8f0"/>
<polygon points="1281.7 165.38 1323.1 206.73 1281.7 206.73" fill="#1e293b"/>
<rect x="1240.4" y="206.73" width="41.35" height="41.35" fill="#dc2626"/>
<polygon points="1240.4 206.73 1281.7 206.73 1281.7 248.08" fill="#e2e8f0"/>
<rect x="1281.7" y="206.73" width="41.35" height="41.35" fill="#475569"/>
<polygon points="1281.7 206.73 1323.1 206.73 1281.7 248.08" fill="#475569"/>
<rect x="1323.1" y="165.38" width="82.692" height="82.692" fill="#f8fafc"/>
<rect x="1323.1" y="165.38" width="41.35" height="41.35" fill="#475569"/>
<polygon points="1364.4 165.38 1364.4 206.73 1323.1 206.73" fill="#1e293b"/>
<rect x="1364.4" y="165.38" width="41.35" height="41.35" fill="#334155"/>
<polygon points="1364.4 165.38 1405.8 206.73 1364.4 206.73" fill="#dc2626"/>
<rect x="1323.1" y="206.73" width="41.35" height="41.35" fill="#1e293b"/>
<polygon points="1323.1 206.73 1364.4 206.73 1323.1 248.08" fill="#dc2626"/>
<rect x="1364.4" y="206.73" width="41.35" height="41.35" fill="#1e293b"/>
<polygon points="1364.4 206.73 1405.8 206.73 1405.8 248.08" fill="#dc2626"/>
<rect x="1405.8" y="165.38" width="82.692" height="82.692" fill="#f8fafc"/>
<rect x="1405.8" y="165.38" width="41.35" height="41.35" fill="#dc2626"/>
<path d="m1405.8 206.73a41.35 41.35 0 0 1 41.35-41.35v10.338a31.013 31.013 0 0 0-31.012 31.012" fill="#dc2626"/>
<rect x="1447.1" y="165.38" width="41.35" height="41.35" fill="#dc2626"/>
<path d="m1447.1 165.38a41.35 41.35 0 0 1 41.35 41.35h-10.337a31.013 31.013 0 0 0-31.012-31.012" fill="#475569"/>
<rect x="1405.8" y="206.73" width="41.35" height="41.35" fill="#dc2626"/>
<path d="m1405.8 206.73a41.35 41.35 0 0 0 41.35 41.35v-10.337a31.013 31.013 0 0 1-31.012-31.012" fill="#475569"/>
<rect x="1447.1" y="206.73" width="41.35" height="41.35" fill="#475569"/>
<path d="m1447.1 248.08a41.35 41.35 0 0 0 41.35-41.35h-10.337a31.013 31.013 0 0 1-31.012 31.012" fill="#475569"/>
<rect x="1488.5" y="165.38" width="82.692" height="82.692" fill="#f8fafc"/>
<rect x="1488.5" y="165.38" width="41.35" height="41.35" fill="#1e293b"/>
<circle cx="1509.1" cy="186.06" r="20.675" fill="#334155"/>
<rect x="1529.8" y="165.38" width="41.35" height="41.35" fill="#334155"/>
<rect x="1529.8" y="165.38" width="41.35" height="41.35" fill="#dc2626"/>
<rect x="1488.5" y="206.73" width="41.35" height="41.35" fill="#334155"/>
<circle cx="1509.1" cy="227.4" r="20.675" fill="#334155"/>
<rect x="1529.8" y="206.73" width="41.35" height="41.35" fill="#1e293b"/>
<rect x="1529.8" y="206.73" width="41.35" height="41.35" fill="#1e293b"/>
<rect x="1571.2" y="165.38" width="82.692" height="82.692" fill="#f8fafc"/>
<rect x="1571.2" y="165.38" width="41.35" height="41.35" fill="#334155"/>
<path d="m1571.2 165.38a41.35 41.35 0 0 0 41.35 41.35v-41.35" fill="#1e293b"/>
<rect x="1612.5" y="165.38" width="41.35" height="41.35" fill="#1e293b"/>
<path d="m1612.5 206.73a41.35 41.35 0 0 0 41.35-41.35h-41.35" fill="#475569"/>
<rect x="1571.2" y="206.73" width="41.35" height="41.35" fill="#dc2626"/>
<path d="m1571.2 248.08a41.35 41.35 0 0 1 41.35-41.35v41.35" fill="#e2e8f0"/>
<rect x="1612.5" y="206.73" width="41.35" height="41.35" fill="#e2e8f0"/>
<path d="m1612.5 206.73a41.35 41.35 0 0 1 41.35 41.35h-41.35" fill="#1e293b"/>
<rect x="1653.8" y="165.38" width="82.692" height="82.692" fill="#f8fafc"/>
<rect x="1653.8" y="165.38" width="41.35" height="41.35" fill="#dc2626"/>
<path d="m1653.8 206.73a41.35 41.35 0 0 0 41.35-41.35h-41.35" fill="#e2e8f0"/>
<rect x="1695.2" y="165.38" width="41.35" height="41.35" fill="#dc2626"/>
<path d="m1695.2 165.38a41.35 41.35 0 0 0 41.35 41.35v-41.35" fill="#dc2626"/>
<rect x="1653.8" y="206.73" width="41.35" height="41.35" fill="#dc2626"/>
<path d="m1653.8 206.73a41.35 41.35 0 0 1 41.35 41.35h-41.35" fill="#475569"/>
<rect x="1695.2" y="206.73" width="41.35" height="41.35" fill="#dc2626"/>
<path d="m1695.2 248.08a41.35 41.35 0 0 1 41.35-41.35v41.35" fill="#1e293b"/>
<rect x="1736.5" y="165.38" width="82.69" height="82.69" fill="#e2e8f0"/>
<rect x="1736.5" y="165.38" width="82.69" height="82.69" fill="#dc2626"/>
<rect x="1819.2" y="165.38" width="82.692" height="82.692" fill="#f8fafc"/>
<rect x="1819.2" y="165.38" width="41.35" height="41.35" fill="#1e293b"/>
<polygon points="1860.6 165.38 1860.6 206.73 1819.2 206.73" fill="#334155"/>
<rect x="1860.6" y="165.38" width="41.35" height="41.35" fill="#dc2626"/>
<polygon points="1860.6 165.38 1901.9 206.73 1860.6 206.73" fill="#dc2626"/>
<rect x="1819.2" y="206.73" width="41.35" height="41.35" fill="#e2e8f0"/>
<polygon points="1819.2 206.73 1860.6 206.73 1860.6 248.08" fill="#334155"/>
<rect x="1860.6" y="206.73" width="41.35" height="41.35" fill="#e2e8f0"/>
<polygon points="1860.6 206.73 1901.9 206.73 1860.6 248.08" fill="#1e293b"/>
<rect x="1901.9" y="165.38" width="82.692" height="82.692" fill="#f8fafc"/>
<rect x="1901.9" y="165.38" width="41.35" height="41.35" fill="#475569"/>
<polygon points="1943.3 165.38 1943.3 206.73 1901.9 206.73" fill="#1e293b"/>
<rect x="1943.3" y="165.38" width="41.35" height="41.35" fill="#475569"/>
<polygon points="1943.3 165.38 1984.6 206.73 1943.3 206.73" fill="#334155"/>
<rect x="1901.9" y="206.73" width="41.35" height="41.35" fill="#e2e8f0"/>
<polygon points="1901.9 206.73 1943.3 206.73 1901.9 248.08" fill="#1e293b"/>
<rect x="1943.3" y="206.73" width="41.35" height="41.35" fill="#dc2626"/>
<polygon points="1943.3 206.73 1984.6 206.73 1984.6 248.08" fill="#475569"/>
<rect x="1984.6" y="165.38" width="82.69" height="82.69" fill="#1e293b"/>
<polygon points="1984.6 165.38 2067.3 248.07 1984.6 248.07" fill="#1e293b"/>
<rect x="2067.3" y="165.38" width="82.692" height="82.692" fill="#f8fafc"/>
<rect x="2067.3" y="165.38" width="41.35" height="41.35" fill="#e2e8f0"/>
<path d="m2067.3 206.73a41.35 41.35 0 0 1 41.35-41.35v10.338a31.013 31.013 0 0 0-31.012 31.012" fill="#1e293b"/>
<rect x="2108.6" y="165.38" width="41.35" height="41.35" fill="#475569"/>
<path d="m2108.6 165.38a41.35 41.35 0 0 1 41.35 41.35h-10.338a31.013 31.013 0 0 0-31.012-31.012" fill="#e2e8f0"/>
<rect x="2067.3" y="206.73" width="41.35" height="41.35" fill="#475569"/>
<path d="m2067.3 206.73a41.35 41.35 0 0 0 41.35 41.35v-10.337a31.013 31.013 0 0 1-31.012-31.012" fill="#e2e8f0"/>
<rect x="2108.6" y="206.73" width="41.35" height="41.35" fill="#334155"/>
<path d="m2108.6 248.08a41.35 41.35 0 0 0 41.35-41.35h-10.338a31.013 31.013 0 0 1-31.012 31.012" fill="#475569"/>
<rect y="248.08" width="82.69" height="82.69" fill="#475569"/>
<rect y="248.08" width="82.69" height="82.69" fill="#1e293b"/>
<rect x="82.69" y="248.08" width="82.69" height="82.69" fill="#475569"/>
<polygon points="165.38 248.08 165.38 330.77 82.69 330.77" fill="#1e293b"/>
<rect x="165.38" y="248.08" width="82.692" height="82.692" fill="#f8fafc"/>
<rect x="165.38" y="248.08" width="41.35" height="41.35" fill="#475569"/>
<polygon points="206.73 248.08 206.73 289.43 165.38 289.43" fill="#334155"/>
<rect x="206.73" y="248.08" width="41.35" height="41.35" fill="#475569"/>
<polygon points="206.73 248.08 248.08 248.08 206.73 289.43" fill="#475569"/>
<rect x="165.38" y="289.42" width="41.35" height="41.35" fill="#475569"/>
<polygon points="165.38 289.42 206.73 289.42 206.73 330.77" fill="#1e293b"/>
<rect x="206.73" y="289.42" width="41.35" height="41.35" fill="#e2e8f0"/>
<polygon points="206.73 289.42 248.08 330.77 206.73 330.77" fill="#1e293b"/>
<rect x="248.08" y="248.08" width="82.69" height="82.69" fill="#334155"/>
<path d="m248.08 248.08a82.69 82.69 0 0 1 82.69 82.69h-82.69" fill="#475569"/>
<rect x="330.77" y="248.08" width="82.69" height="82.69" fill="#e2e8f0"/>
<path d="m330.77 330.77a82.69 82.69 0 0 1 82.69-82.69v82.69" fill="#334155"/>
<rect x="413.46" y="248.08" width="82.692" height="82.692" fill="#f8fafc"/>
<rect x="413.46" y="248.08" width="41.35" height="41.35" fill="#dc2626"/>
<polygon points="454.81 248.08 454.81 289.43 413.46 289.43" fill="#334155"/>
<rect x="454.81" y="248.08" width="41.35" height="41.35" fill="#475569"/>
<polygon points="454.81 248.08 496.16 289.43 454.81 289.43" fill="#e2e8f0"/>
<rect x="413.46" y="289.42" width="41.35" height="41.35" fill="#e2e8f0"/>
<polygon points="413.46 289.42 454.81 289.42 454.81 330.77" fill="#e2e8f0"/>
<rect x="454.81" y="289.42" width="41.35" height="41.35" fill="#dc2626"/>
<polygon points="454.81 289.42 496.16 289.42 454.81 330.77" fill="#e2e8f0"/>
<rect x="496.15" y="248.08" width="82.69" height="82.69" fill="#334155"/>
<polygon points="578.84 248.08 578.84 330.77 496.15 330.77" fill="#1e293b"/>
<rect x="578.85" y="248.08" width="82.692" height="82.692" fill="#f8fafc"/>
<rect x="578.85" y="248.08" width="41.35" height="41.35" fill="#334155"/>
<circle cx="599.52" cy="268.76" r="20.675" fill="#1e293b"/>
<rect x="620.19" y="248.08" width="41.35" height="41.35" fill="#dc2626"/>
<rect x="620.19" y="248.08" width="41.35" height="41.35" fill="#1e293b"/>
<rect x="578.85" y="289.42" width="41.35" height="41.35" fill="#1e293b"/>
<circle cx="599.52" cy="310.1" r="20.675" fill="#e2e8f0"/>
<rect x="620.19" y="289.42" width="41.35" height="41.35" fill="#475569"/>
<rect x="620.19" y="289.42" width="41.35" height="41.35" fill="#475569"/>
<rect x="661.54" y="248.08" width="82.692" height="82.692" fill="#f8fafc"/>
<rect x="661.54" y="248.08" width="41.35" height="41.35" fill="#1e293b"/>
<path d="m661.54 289.43a41.35 41.35 0 0 0 41.35-41.35h-41.35" fill="#475569"/>
<rect x="702.88" y="248.08" width="41.35" height="41.35" fill="#475569"/>
<path d="m702.88 248.08a41.35 41.35 0 0 0 41.35 41.35v-41.35" fill="#475569"/>
<rect x="661.54" y="289.42" width="41.35" height="41.35" fill="#dc2626"/>
<path d="m661.54 289.42a41.35 41.35 0 0 1 41.35 41.35h-41.35" fill="#475569"/>
<rect x="702.88" y="289.42" width="41.35" height="41.35" fill="#334155"/>
<path d="m702.88 330.77a41.35 41.35 0 0 1 41.35-41.35v41.35" fill="#475569"/>
<rect x="744.23" y="248.08" width="82.692" height="82.692" fill="#f8fafc"/>
<rect x="744.23" y="248.08" width="41.35" height="41.35" fill="#dc2626"/>
<path d="m744.23 289.43a41.35 41.35 0 0 0 41.35-41.35h-41.35" fill="#dc2626"/>
<rect x="785.58" y="248.08" width="41.35" height="41.35" fill="#1e293b"/>
<path d="m785.58 248.08a41.35 41.35 0 0 0 41.35 41.35v-41.35" fill="#e2e8f0"/>
<rect x="744.23" y="289.42" width="41.35" height="41.35" fill="#334155"/>
<path d="m744.23 289.42a41.35 41.35 0 0 1 41.35 41.35h-41.35" fill="#e2e8f0"/>
<rect x="785.58" y="289.42" width="41.35" height="41.35" fill="#e2e8f0"/>
<path d="m785.58 330.77a41.35 41.35 0 0 1 41.35-41.35v41.35" fill="#334155"/>
<rect x="826.92" y="248.08" width="82.692" height="82.692" fill="#f8fafc"/>
<rect x="826.92" y="248.08" width="41.35" height="41.35" fill="#e2e8f0"/>
<path d="m826.92 248.08a41.35 41.35 0 0 1 41.35 41.35h-41.35" fill="#e2e8f0"/>
<rect x="868.27" y="248.08" width="41.35" height="41.35" fill="#334155"/>
<path d="m868.27 289.43a41.35 41.35 0 0 1 41.35-41.35v41.35" fill="#1e293b"/>
<rect x="826.92" y="289.42" width="41.35" height="41.35" fill="#e2e8f0"/>
<path d="m826.92 330.77a41.35 41.35 0 0 0 41.35-41.35h-41.35" fill="#475569"/>
<rect x="868.27" y="289.42" width="41.35" height="41.35" fill="#dc2626"/>
<path d="m868.27 289.42a41.35 41.35 0 0 0 41.35 41.35v-41.35" fill="#1e293b"/>
<rect x="909.62" y="248.08" width="82.69" height="82.69" fill="#334155"/>
<rect x="909.62" y="248.08" width="82.69" height="82.69" fill="#334155"/>
<rect x="992.31" y="248.08" width="82.692" height="82.692" fill="#f8fafc"/>
<rect x="992.31" y="248.08" width="41.35" height="41.35" fill="#334155"/>
<path d="m992.31 289.43a41.35 41.35 0 0 1 41.35-41.35v41.35" fill="#1e293b"/>
<rect x="1033.6" y="248.08" width="41.35" height="41.35" fill="#334155"/>
<path d="m1033.6 248.08a41.35 41.35 0 0 1 41.35 41.35h-41.35" fill="#334155"/>
<rect x="992.31" y="289.42" width="41.35" height="41.35" fill="#334155"/>
<path d="m992.31 289.42a41.35 41.35 0 0 0 41.35 41.35v-41.35" fill="#dc2626"/>
<rect x="1033.6" y="289.42" width="41.35" height="41.35" fill="#475569"/>
<path d="m1033.6 330.77a41.35 41.35 0 0 0 41.35-41.35h-41.35" fill="#1e293b"/>
<rect x="1075" y="248.08" width="82.692" height="82.692" fill="#f8fafc"/>
<rect x="1075" y="248.08" width="41.35" height="41.35" fill="#334155"/>
<path d="m1075 289.43a41.35 41.35 0 0 1 41.35-41.35v41.35" fill="#e2e8f0"/>
<rect x="1116.4" y="248.08" width="41.35" height="41.35" fill="#475569"/>
<path d="m1116.4 248.08a41.35 41.35 0 0 1 41.35 41.35h-41.35" fill="#1e293b"/>
<rect x="1075" y="289.42" width="41.35" height="41.35" fill="#334155"/>
<path d="m1075 289.42a41.35 41.35 0 0 0 41.35 41.35v-41.35" fill="#dc2626"/>
<rect x="1116.4" y="289.42" width="41.35" height="41.35" fill="#1e293b"/>
<path d="m1116.4 330.77a41.35 41.35 0 0 0 41.35-41.35h-41.35" fill="#475569"/>
<rect x="1157.7" y="248.08" width="82.69" height="82.69" fill="#475569"/>
<rect x="1157.7" y="248.08" width="82.69" height="82.69" fill="#334155"/>
<rect x="1240.4" y="248.08" width="82.692" height="82.692" fill="#f8fafc"/>
<rect x="1240.4" y="248.08" width="41.35" height="41.35" fill="#e2e8f0"/>
<polygon points="1281.7 248.08 1281.7 289.43 1240.4 289.43" fill="#1e293b"/>
<rect x="1281.7" y="248.08" width="41.35" height="41.35" fill="#e2e8f0"/>
<polygon points="1281.7 248.08 1323.1 289.43 1281.7 289.43" fill="#334155"/>
<rect x="1240.4" y="289.42" width="41.35" height="41.35" fill="#475569"/>
<polygon points="1240.4 289.42 1281.7 289.42 1281.7 330.77" fill="#dc2626"/>
<rect x="1281.7" y="289.42" width="41.35" height="41.35" fill="#e2e8f0"/>
<polygon points="1281.7 289.42 1323.1 289.42 1281.7 330.77" fill="#dc2626"/>
<rect x="1323.1" y="248.08" width="82.692" height="82.692" fill="#f8fafc"/>
<rect x="1323.1" y="248.08" width="41.35" height="41.35" fill="#e2e8f0"/>
<path d="m1323.1 248.08a41.35 41.35 0 0 0 41.35 41.35v-41.35" fill="#334155"/>
<rect x="1364.4" y="248.08" width="41.35" height="41.35" fill="#dc2626"/>
<path d="m1364.4 289.43a41.35 41.35 0 0 0 41.35-41.35h-41.35" fill="#475569"/>
<rect x="1323.1" y="289.42" width="41.35" height="41.35" fill="#1e293b"/>
<path d="m1323.1 330.77a41.35 41.35 0 0 1 41.35-41.35v41.35" fill="#334155"/>
<rect x="1364.4" y="289.42" width="41.35" height="41.35" fill="#1e293b"/>
<path d="m1364.4 289.42a41.35 41.35 0 0 1 41.35 41.35h-41.35" fill="#e2e8f0"/>
<rect x="1405.8" y="248.08" width="82.69" height="82.69" fill="#334155"/>
<polygon points="1405.8 248.08 1488.5 248.08 1405.8 330.77" fill="#334155"/>
<rect x="1488.5" y="248.08" width="82.69" height="82.69" fill="#1e293b"/>
<path d="m1488.5 248.08a82.69 82.69 0 0 0 82.69 82.69v-82.69" fill="#1e293b"/>
<rect x="1571.2" y="248.08" width="82.69" height="82.69" fill="#dc2626"/>
<polygon points="1653.8 248.08 1653.8 330.77 1571.2 330.77" fill="#475569"/>
<rect x="1653.8" y="248.08" width="82.69" height="82.69" fill="#475569"/>
<path d="m1653.8 330.77a82.69 82.69 0 0 0 82.69-82.69h-82.69" fill="#334155"/>
<rect x="1736.5" y="248.08" width="82.692" height="82.692" fill="#f8fafc"/>
<rect x="1736.5" y="248.08" width="41.35" height="41.35" fill="#dc2626"/>
<polygon points="1777.9 248.08 1777.9 289.43 1736.5 289.43" fill="#dc2626"/>
<rect x="1777.9" y="248.08" width="41.35" height="41.35" fill="#dc2626"/>
<polygon points="1777.9 248.08 1819.2 248.08 1777.9 289.43" fill="#334155"/>
<rect x="1736.5" y="289.42" width="41.35" height="41.35" fill="#e2e8f0"/>
<polygon points="1736.5 289.42 1777.9 289.42 1777.9 330.77" fill="#dc2626"/>
<rect x="1777.9" y="289.42" width="41.35" height="41.35" fill="#475569"/>
<polygon points="1777.9 289.42 1819.2 330.77 1777.9 330.77" fill="#334155"/>
<rect x="1819.2" y="248.08" width="82.69" height="82.69" fill="#e2e8f0"/>
<path d="m1819.2 330.77a82.69 82.69 0 0 1 82.69-82.69v82.69" fill="#334155"/>
<rect x="1901.9" y="248.08" width="82.692" height="82.692" fill="#f8fafc"/>
<rect x="1901.9" y="248.08" width="41.35" height="41.35" fill="#e2e8f0"/>
<path d="m1901.9 289.43a41.35 41.35 0 0 1 41.35-41.35v10.338a31.013 31.013 0 0 0-31.012 31.012" fill="#1e293b"/>
<rect x="1943.3" y="248.08" width="41.35" height="41.35" fill="#1e293b"/>
<path d="m1943.3 248.08a41.35 41.35 0 0 1 41.35 41.35h-10.338a31.013 31.013 0 0 0-31.012-31.012" fill="#334155"/>
<rect x="1901.9" y="289.42" width="41.35" height="41.35" fill="#334155"/>
<path d="m1901.9 289.42a41.35 41.35 0 0 0 41.35 41.35v-10.338a31.013 31.013 0 0 1-31.012-31.012" fill="#dc2626"/>
<rect x="1943.3" y="289.42" width="41.35" height="41.35" fill="#1e293b"/>
<path d="m1943.3 330.77a41.35 41.35 0 0 0 41.35-41.35h-10.338a31.013 31.013 0 0 1-31.012 31.012" fill="#1e293b"/>
<rect x="1984.6" y="248.08" width="82.69" height="82.69" fill="#475569"/>
<rect x="1984.6" y="248.08" width="82.69" height="82.69" fill="#e2e8f0"/>
<rect x="2067.3" y="248.08" width="82.69" height="82.69" fill="#e2e8f0"/>
<rect x="2067.3" y="248.08" width="82.69" height="82.69" fill="#475569"/>
<rect y="330.77" width="82.69" height="82.69" fill="#475569"/>
<polygon points="82.69 330.77 82.69 413.46 0 413.46" fill="#334155"/>
<rect x="82.69" y="330.77" width="82.69" height="82.69" fill="#1e293b"/>
<rect x="82.69" y="330.77" width="82.69" height="82.69" fill="#475569"/>
<rect x="165.38" y="330.77" width="82.69" height="82.69" fill="#e2e8f0"/>
<rect x="165.38" y="330.77" width="82.69" height="82.69" fill="#334155"/>
<rect x="248.08" y="330.77" width="82.692" height="82.692" fill="#f8fafc"/>
<rect x="248.08" y="330.77" width="41.35" height="41.35" fill="#e2e8f0"/>
<path d="m248.08 330.77a41.35 41.35 0 0 0 41.35 41.35v-41.35" fill="#dc2626"/>
<rect x="289.42" y="330.77" width="41.35" height="41.35" fill="#dc2626"/>
<path d="m289.42 372.12a41.35 41.35 0 0 0 41.35-41.35h-41.35" fill="#334155"/>
<rect x="248.08" y="372.12" width="41.35" height="41.35" fill="#e2e8f0"/>
<path d="m248.08 413.47a41.35 41.35 0 0 1 41.35-41.35v41.35" fill="#1e293b"/>
<rect x="289.42" y="372.12" width="41.35" height="41.35" fill="#475569"/>
<path d="m289.42 372.12a41.35 41.35 0 0 1 41.35 41.35h-41.35" fill="#334155"/>
<rect x="330.77" y="330.77" width="82.692" height="82.692" fill="#f8fafc"/>
<rect x="330.77" y="330.77" width="41.35" height="41.35" fill="#475569"/>
<polygon points="372.12 330.77 372.12 372.12 330.77 372.12" fill="#1e293b"/>
<rect x="372.12" y="330.77" width="41.35" height="41.35" fill="#dc2626"/>
<polygon points="372.12 330.77 413.47 372.12 372.12 372.12" fill="#e2e8f0"/>
<rect x="330.77" y="372.12" width="41.35" height="41.35" fill="#1e293b"/>
<polygon points="330.77 372.12 372.12 372.12 330.77 413.47" fill="#e2e8f0"/>
<rect x="372.12" y="372.12" width="41.35" height="41.35" fill="#1e293b"/>
<polygon points="372.12 372.12 413.47 372.12 413.47 413.47" fill="#dc2626"/>
<rect x="413.46" y="330.77" width="82.692" height="82.692" fill="#f8fafc"/>
<rect x="413.46" y="330.77" width="41.35" height="41.35" fill="#dc2626"/>
<path d="m413.46 372.12a41.35 41.35 0 0 0 41.35-41.35h-41.35" fill="#1e293b"/>
<rect x="454.81" y="330.77" width="41.35" height="41.35" fill="#1e293b"/>
<path d="m454.81 330.77a41.35 41.35 0 0 0 41.35 41.35v-41.35" fill="#e2e8f0"/>
<rect x="413.46" y="372.12" width="41.35" height="41.35" fill="#dc2626"/>
<path d="m413.46 372.12a41.35 41.35 0 0 1 41.35 41.35h-41.35" fill="#334155"/>
<rect x="454.81" y="372.12" width="41.35" height="41.35" fill="#dc2626"/>
<path d="m454.81 413.47a41.35 41.35 0 0 1 41.35-41.35v41.35" fill="#e2e8f0"/>
<rect x="496.15" y="330.77" width="82.69" height="82.69" fill="#dc2626"/>
<polygon points="496.15 330.77 578.84 330.77 578.84 413.46" fill="#475569"/>
<rect x="578.85" y="330.77" width="82.692" height="82.692" fill="#f8fafc"/>
<rect x="578.85" y="330.77" width="41.35" height="41.35" fill="#475569"/>
<path d="m578.85 330.77a41.35 41.35 0 0 0 41.35 41.35v-41.35" fill="#475569"/>
<rect x="620.19" y="330.77" width="41.35" height="41.35" fill="#475569"/>
<path d="m620.19 372.12a41.35 41.35 0 0 0 41.35-41.35h-41.35" fill="#e2e8f0"/>
<rect x="578.85" y="372.12" width="41.35" height="41.35" fill="#475569"/>
<path d="m578.85 413.47a41.35 41.35 0 0 1 41.35-41.35v41.35" fill="#1e293b"/>
<rect x="620.19" y="372.12" width="41.35" height="41.35" fill="#dc2626"/>
<path d="m620.19 372.12a41.35 41.35 0 0 1 41.35 41.35h-41.35" fill="#dc2626"/>
<rect x="661.54" y="330.77" width="82.69" height="82.69" fill="#e2e8f0"/>
<path d="m661.54 330.77a82.69 82.69 0 0 1 82.69 82.69l-82.69-82.69a82.69 82.69 0 0 0 82.69 82.69" fill="#dc2626"/>
<rect x="744.23" y="330.77" width="82.69" height="82.69" fill="#334155"/>
<polygon points="744.23 330.77 826.92 413.46 744.23 413.46" fill="#334155"/>
<rect x="826.92" y="330.77" width="82.69" height="82.69" fill="#334155"/>
<path d="m826.92 413.46a82.69 82.69 0 0 1 82.69-82.69v82.69" fill="#1e293b"/>
<rect x="909.62" y="330.77" width="82.69" height="82.69" fill="#1e293b"/>
<rect x="909.62" y="330.77" width="82.69" height="82.69" fill="#1e293b"/>
<rect x="992.31" y="330.77" width="82.692" height="82.692" fill="#f8fafc"/>
<rect x="992.31" y="330.77" width="41.35" height="41.35" fill="#334155"/>
<path d="m992.31 330.77a41.35 41.35 0 0 1 41.35 41.35h-41.35" fill="#1e293b"/>
<rect x="1033.6" y="330.77" width="41.35" height="41.35" fill="#e2e8f0"/>
<path d="m1033.6 372.12a41.35 41.35 0 0 1 41.35-41.35v41.35" fill="#1e293b"/>
<rect x="992.31" y="372.12" width="41.35" height="41.35" fill="#475569"/>
<path d="m992.31 413.47a41.35 41.35 0 0 0 41.35-41.35h-41.35" fill="#dc2626"/>
<rect x="1033.6" y="372.12" width="41.35" height="41.35" fill="#475569"/>
<path d="m1033.6 372.12a41.35 41.35 0 0 0 41.35 41.35v-41.35" fill="#dc2626"/>
<rect x="1075" y="330.77" width="82.69" height="82.69" fill="#475569"/>
<path d="m1075 413.46a82.69 82.69 0 0 1 82.69-82.69v82.69" fill="#e2e8f0"/>
<rect x="1157.7" y="330.77" width="82.692" height="82.692" fill="#f8fafc"/>
<rect x="1157.7" y="330.77" width="41.35" height="41.35" fill="#e2e8f0"/>
<path d="m1157.7 330.77a41.35 41.35 0 0 1 41.35 41.35h-41.35" fill="#334155"/>
<rect x="1199" y="330.77" width="41.35" height="41.35" fill="#475569"/>
<path d="m1199 372.12a41.35 41.35 0 0 1 41.35-41.35v41.35" fill="#dc2626"/>
<rect x="1157.7" y="372.12" width="41.35" height="41.35" fill="#dc2626"/>
<path d="m1157.7 413.47a41.35 41.35 0 0 0 41.35-41.35h-41.35" fill="#334155"/>
<rect x="1199" y="372.12" width="41.35" height="41.35" fill="#475569"/>
<path d="m1199 372.12a41.35 41.35 0 0 0 41.35 41.35v-41.35" fill="#dc2626"/>
<rect x="1240.4" y="330.77" width="82.69" height="82.69" fill="#e2e8f0"/>
<path d="m1240.4 413.46a82.69 82.69 0 0 1 82.69-82.69l-82.69 82.69a82.69 82.69 0 0 0 82.69-82.69" fill="#334155"/>
<rect x="1323.1" y="330.77" width="82.692" height="82.692" fill="#f8fafc"/>
<rect x="1323.1" y="330.77" width="41.35" height="41.35" fill="#dc2626"/>
<path d="m1323.1 330.77a41.35 41.35 0 0 1 41.35 41.35h-41.35" fill="#dc2626"/>
<rect x="1364.4" y="330.77" width="41.35" height="41.35" fill="#475569"/>
<path d="m1364.4 372.12a41.35 41.35 0 0 1 41.35-41.35v41.35" fill="#475569"/>
<rect x="1323.1" y="372.12" width="41.35" height="41.35" fill="#e2e8f0"/>
<path d="m1323.1 413.47a41.35 41.35 0 0 0 41.35-41.35h-41.35" fill="#475569"/>
<rect x="1364.4" y="372.12" width="41.35" height="41.35" fill="#1e293b"/>
<path d="m1364.4 372.12a41.35 41.35 0 0 0 41.35 41.35v-41.35" fill="#dc2626"/>
<rect x="1405.8" y="330.77" width="82.692" height="82.692" fill="#f8fafc"/>
<rect x="1405.8" y="330.77" width="41.35" height="41.35" fill="#1e293b"/>
<polygon points="1447.1 330.77 1447.1 372.12 1405.8 372.12" fill="#334155"/>
<rect x="1447.1" y="330.77" width="41.35" height="41.35" fill="#dc2626"/>
<polygon points="1447.1 330.77 1488.5 372.12 1447.1 372.12" fill="#1e293b"/>
<rect x="1405.8" y="372.12" width="41.35" height="41.35" fill="#475569"/>
<polygon points="1405.8 372.12 1447.1 372.12 1405.8 413.47" fill="#475569"/>
<rect x="1447.1" y="372.12" width="41.35" height="41.35" fill="#475569"/>
<polygon points="1447.1 372.12 1488.5 372.12 1488.5 413.47" fill="#334155"/>
<rect x="1488.5" y="330.77" width="82.69" height="82.69" fill="#e2e8f0"/>
<path d="m1488.5 413.46a82.69 82.69 0 0 0 82.69-82.69h-82.69" fill="#1e293b"/>
<rect x="1571.2" y="330.77" width="82.692" height="82.692" fill="#f8fafc"/>
<rect x="1571.2" y="330.77" width="41.35" height="41.35" fill="#475569"/>
<polygon points="1612.5 330.77 1612.5 372.12 1571.2 372.12" fill="#e2e8f0"/>
<rect x="1612.5" y="330.77" width="41.35" height="41.35" fill="#1e293b"/>
<polygon points="1612.5 330.77 1653.8 372.12 1612.5 372.12" fill="#475569"/>
<rect x="1571.2" y="372.12" width="41.35" height="41.35" fill="#334155"/>
<polygon points="1571.2 372.12 1612.5 372.12 1571.2 413.47" fill="#dc2626"/>
<rect x="1612.5" y="372.12" width="41.35" height="41.35" fill="#e2e8f0"/>
<polygon points="1612.5 372.12 1653.8 372.12 1653.8 413.47" fill="#475569"/>
<rect x="1653.8" y="330.77" width="82.69" height="82.69" fill="#e2e8f0"/>
<rect x="1653.8" y="330.77" width="82.69" height="82.69" fill="#475569"/>
<rect x="1736.5" y="330.77" width="82.692" height="82.692" fill="#f8fafc"/>
<rect x="1736.5" y="330.77" width="41.35" height="41.35" fill="#dc2626"/>
<path d="m1736.5 372.12a41.35 41.35 0 0 1 41.35-41.35v41.35" fill="#e2e8f0"/>
<rect x="1777.9" y="330.77" width="41.35" height="41.35" fill="#e2e8f0"/>
<path d="m1777.9 330.77a41.35 41.35 0 0 1 41.35 41.35h-41.35" fill="#475569"/>
<rect x="1736.5" y="372.12" width="41.35" height="41.35" fill="#1e293b"/>
<path d="m1736.5 372.12a41.35 41.35 0 0 0 41.35 41.35v-41.35" fill="#e2e8f0"/>
<rect x="1777.9" y="372.12" width="41.35" height="41.35" fill="#dc2626"/>
<path d="m1777.9 413.47a41.35 41.35 0 0 0 41.35-41.35h-41.35" fill="#334155"/>
<rect x="1819.2" y="330.77" width="82.692" height="82.692" fill="#f8fafc"/>
<rect x="1819.2" y="330.77" width="41.35" height="41.35" fill="#1e293b"/>
<polygon points="1860.6 330.77 1860.6 372.12 1819.2 372.12" fill="#334155"/>
<rect x="1860.6" y="330.77" width="41.35" height="41.35" fill="#334155"/>
<polygon points="1860.6 330.77 1901.9 372.12 1860.6 372.12" fill="#334155"/>
<rect x="1819.2" y="372.12" width="41.35" height="41.35" fill="#334155"/>
<polygon points="1819.2 372.12 1860.6 372.12 1819.2 413.47" fill="#1e293b"/>
<rect x="1860.6" y="372.12" width="41.35" height="41.35" fill="#334155"/>
<polygon points="1860.6 372.12 1901.9 372.12 1901.9 413.47" fill="#334155"/>
<rect x="1901.9" y="330.77" width="82.69" height="82.69" fill="#334155"/>
<path d="m1901.9 413.46a82.69 82.69 0 0 0 82.69-82.69h-82.69" fill="#1e293b"/>
<rect x="1984.6" y="330.77" width="82.69" height="82.69" fill="#475569"/>
<path d="m1984.6 413.46a82.69 82.69 0 0 1 82.69-82.69v82.69" fill="#e2e8f0"/>
<rect x="2067.3" y="330.77" width="82.69" height="82.69" fill="#334155"/>
<polygon points="2067.3 330.77 2150 413.46 2067.3 413.46" fill="#1e293b"/>
<rect y="413.46" width="82.692" height="82.692" fill="#f8fafc"/>
<rect y="413.46" width="41.35" height="41.35" fill="#475569"/>
<path d="m0 454.81a41.35 41.35 0 0 1 41.35-41.35v10.337a31.013 31.013 0 0 0-31.012 31.013" fill="#334155"/>
<rect x="41.35" y="413.46" width="41.35" height="41.35" fill="#1e293b"/>
<path d="m41.35 413.46a41.35 41.35 0 0 1 41.35 41.35h-10.337a31.013 31.013 0 0 0-31.013-31.013" fill="#334155"/>
<rect y="454.81" width="41.35" height="41.35" fill="#e2e8f0"/>
<path d="m0 454.81a41.35 41.35 0 0 0 41.35 41.35v-10.338a31.013 31.013 0 0 1-31.012-31.012" fill="#e2e8f0"/>
<rect x="41.35" y="454.81" width="41.35" height="41.35" fill="#475569"/>
<path d="m41.35 496.16a41.35 41.35 0 0 0 41.35-41.35h-10.337a31.013 31.013 0 0 1-31.013 31.012" fill="#334155"/>
<rect x="82.692" y="413.46" width="82.692" height="82.692" fill="#f8fafc"/>
<rect x="82.69" y="413.46" width="41.35" height="41.35" fill="#1e293b"/>
<circle cx="103.36" cy="434.14" r="20.675" fill="#e2e8f0"/>
<rect x="124.04" y="413.46" width="41.35" height="41.35" fill="#334155"/>
<rect x="124.04" y="413.46" width="41.35" height="41.35" fill="#1e293b"/>
<rect x="82.69" y="454.81" width="41.35" height="41.35" fill="#334155"/>
<circle cx="103.36" cy="475.48" r="20.675" fill="#334155"/>
<rect x="124.04" y="454.81" width="41.35" height="41.35" fill="#1e293b"/>
<rect x="124.04" y="454.81" width="41.35" height="41.35" fill="#1e293b"/>
<rect x="165.38" y="413.46" width="82.692" height="82.692" fill="#f8fafc"/>
<rect x="165.38" y="413.46" width="41.35" height="41.35" fill="#e2e8f0"/>
<circle cx="186.06" cy="434.14" r="20.675" fill="#dc2626"/>
<rect x="206.73" y="413.46" width="41.35" height="41.35" fill="#e2e8f0"/>
<rect x="206.73" y="413.46" width="41.35" height="41.35" fill="#334155"/>
<rect x="165.38" y="454.81" width="41.35" height="41.35" fill="#334155"/>
<circle cx="186.06" cy="475.48" r="20.675" fill="#dc2626"/>
<rect x="206.73" y="454.81" width="41.35" height="41.35" fill="#475569"/>
<rect x="206.73" y="454.81" width="41.35" height="41.35" fill="#dc2626"/>
<rect x="248.08" y="413.46" width="82.692" height="82.692" fill="#f8fafc"/>
<rect x="248.08" y="413.46" width="41.35" height="41.35" fill="#dc2626"/>
<path d="m248.08 413.46a41.35 41.35 0 0 0 41.35 41.35v-41.35" fill="#1e293b"/>
<rect x="289.42" y="413.46" width="41.35" height="41.35" fill="#475569"/>
<path d="m289.42 454.81a41.35 41.35 0 0 0 41.35-41.35h-41.35" fill="#475569"/>
<rect x="248.08" y="454.81" width="41.35" height="41.35" fill="#334155"/>
<path d="m248.08 496.16a41.35 41.35 0 0 1 41.35-41.35v41.35" fill="#e2e8f0"/>
<rect x="289.42" y="454.81" width="41.35" height="41.35" fill="#dc2626"/>
<path d="m289.42 454.81a41.35 41.35 0 0 1 41.35 41.35h-41.35" fill="#475569"/>
<rect x="330.77" y="413.46" width="82.69" height="82.69" fill="#334155"/>
<rect x="330.77" y="413.46" width="82.69" height="82.69" fill="#475569"/>
<rect x="413.46" y="413.46" width="82.692" height="82.692" fill="#f8fafc"/>
<rect x="413.46" y="413.46" width="41.35" height="41.35" fill="#dc2626"/>
<polygon points="454.81 413.46 454.81 454.81 413.46 454.81" fill="#dc2626"/>
<rect x="454.81" y="413.46" width="41.35" height="41.35" fill="#1e293b"/>
<polygon points="454.81 413.46 496.16 454.81 454.81 454.81" fill="#e2e8f0"/>
<rect x="413.46" y="454.81" width="41.35" height="41.35" fill="#dc2626"/>
<polygon points="413.46 454.81 454.81 454.81 413.46 496.16" fill="#475569"/>
<rect x="454.81" y="454.81" width="41.35" height="41.35" fill="#dc2626"/>
<polygon points="454.81 454.81 496.16 454.81 496.16 496.16" fill="#dc2626"/>
<rect x="496.15" y="413.46" width="82.69" height="82.69" fill="#334155"/>
<path d="m496.15 413.46a82.69 82.69 0 0 1 82.69 82.69h-82.69" fill="#dc2626"/>
<rect x="578.85" y="413.46" width="82.692" height="82.692" fill="#f8fafc"/>
<rect x="578.85" y="413.46" width="41.35" height="41.35" fill="#334155"/>
<path d="m578.85 454.81a41.35 41.35 0 0 1 41.35-41.35v10.337a31.013 31.013 0 0 0-31.012 31.013" fill="#1e293b"/>
<rect x="620.19" y="413.46" width="41.35" height="41.35" fill="#dc2626"/>
<path d="m620.19 413.46a41.35 41.35 0 0 1 41.35 41.35h-10.338a31.013 31.013 0 0 0-31.013-31.013" fill="#475569"/>
<rect x="578.85" y="454.81" width="41.35" height="41.35" fill="#334155"/>
<path d="m578.85 454.81a41.35 41.35 0 0 0 41.35 41.35v-10.338a31.013 31.013 0 0 1-31.012-31.012" fill="#e2e8f0"/>
<rect x="620.19" y="454.81" width="41.35" height="41.35" fill="#334155"/>
<path d="m620.19 496.16a41.35 41.35 0 0 0 41.35-41.35h-10.338a31.013 31.013 0 0 1-31.013 31.012" fill="#e2e8f0"/>
<rect x="661.54" y="413.46" width="82.69" height="82.69" fill="#334155"/>
<rect x="661.54" y="413.46" width="82.69" height="82.69" fill="#475569"/>
<rect x="744.23" y="413.46" width="82.69" height="82.69" fill="#334155"/>
<polygon points="744.23 413.46 826.92 496.15 744.23 496.15" fill="#334155"/>
<rect x="826.92" y="413.46" width="82.692" height="82.692" fill="#f8fafc"/>
<rect x="826.92" y="413.46" width="41.35" height="41.35" fill="#1e293b"/>
<path d="m826.92 454.81a41.35 41.35 0 0 1 41.35-41.35v41.35" fill="#dc2626"/>
<rect x="868.27" y="413.46" width="41.35" height="41.35" fill="#475569"/>
<path d="m868.27 413.46a41.35 41.35 0 0 1 41.35 41.35h-41.35" fill="#475569"/>
<rect x="826.92" y="454.81" width="41.35" height="41.35" fill="#1e293b"/>
<path d="m826.92 454.81a41.35 41.35 0 0 0 41.35 41.35v-41.35" fill="#1e293b"/>
<rect x="868.27" y="454.81" width="41.35" height="41.35" fill="#1e293b"/>
<path d="m868.27 496.16a41.35 41.35 0 0 0 41.35-41.35h-41.35" fill="#e2e8f0"/>
<rect x="909.62" y="413.46" width="82.69" height="82.69" fill="#475569"/>
<rect x="909.62" y="413.46" width="82.69" height="82.69" fill="#334155"/>
<rect x="992.31" y="413.46" width="82.69" height="82.69" fill="#334155"/>
<polygon points="1075 413.46 1075 496.15 992.31 496.15" fill="#dc2626"/>
<rect x="1075" y="413.46" width="82.692" height="82.692" fill="#f8fafc"/>
<rect x="1075" y="413.46" width="41.35" height="41.35" fill="#e2e8f0"/>
<path d="m1075 454.81a41.35 41.35 0 0 0 41.35-41.35h-41.35" fill="#475569"/>
<rect x="1116.4" y="413.46" width="41.35" height="41.35" fill="#334155"/>
<path d="m1116.4 413.46a41.35 41.35 0 0 0 41.35 41.35v-41.35" fill="#334155"/>
<rect x="1075" y="454.81" width="41.35" height="41.35" fill="#e2e8f0"/>
<path d="m1075 454.81a41.35 41.35 0 0 1 41.35 41.35h-41.35" fill="#334155"/>
<rect x="1116.4" y="454.81" width="41.35" height="41.35" fill="#e2e8f0"/>
<path d="m1116.4 496.16a41.35 41.35 0 0 1 41.35-41.35v41.35" fill="#dc2626"/>
<rect x="1157.7" y="413.46" width="82.69" height="82.69" fill="#334155"/>
<polygon points="1157.7 413.46 1240.4 413.46 1240.4 496.15" fill="#1e293b"/>
<rect x="1240.4" y="413.46" width="82.692" height="82.692" fill="#f8fafc"/>
<rect x="1240.4" y="413.46" width="41.35" height="41.35" fill="#dc2626"/>
<path d="m1240.4 454.81a41.35 41.35 0 0 1 41.35-41.35v10.337a31.013 31.013 0 0 0-31.012 31.013" fill="#334155"/>
<rect x="1281.7" y="413.46" width="41.35" height="41.35" fill="#e2e8f0"/>
<path d="m1281.7 413.46a41.35 41.35 0 0 1 41.35 41.35h-10.338a31.013 31.013 0 0 0-31.012-31.013" fill="#1e293b"/>
<rect x="1240.4" y="454.81" width="41.35" height="41.35" fill="#dc2626"/>
<path d="m1240.4 454.81a41.35 41.35 0 0 0 41.35 41.35v-10.338a31.013 31.013 0 0 1-31.012-31.012" fill="#475569"/>
<rect x="1281.7" y="454.81" width="41.35" height="41.35" fill="#1e293b"/>
<path d="m1281.7 496.16a41.35 41.35 0 0 0 41.35-41.35h-10.338a31.013 31.013 0 0 1-31.012 31.012" fill="#475569"/>
<rect x="1323.1" y="413.46" width="82.69" height="82.69" fill="#dc2626"/>
<polygon points="1323.1 413.46 1405.8 413.46 1323.1 496.15" fill="#475569"/>
<rect x="1405.8" y="413.46" width="82.69" height="82.69" fill="#475569"/>
<rect x="1405.8" y="413.46" width="82.69" height="82.69" fill="#e2e8f0"/>
<rect x="1488.5" y="413.46" width="82.69" height="82.69" fill="#475569"/>
<polygon points="1488.5 413.46 1571.2 413.46 1488.5 496.15" fill="#1e293b"/>
<rect x="1571.2" y="413.46" width="82.69" height="82.69" fill="#475569"/>
<polygon points="1571.2 413.46 1653.8 496.15 1571.2 496.15" fill="#e2e8f0"/>
<rect x="1653.8" y="413.46" width="82.69" height="82.69" fill="#1e293b"/>
<rect x="1653.8" y="413.46" width="82.69" height="82.69" fill="#e2e8f0"/>
<rect x="1736.5" y="413.46" width="82.69" height="82.69" fill="#dc2626"/>
<polygon points="1736.5 413.46 1819.2 413.46 1819.2 496.15" fill="#dc2626"/>
<rect x="1819.2" y="413.46" width="82.692" height="82.692" fill="#f8fafc"/>
<rect x="1819.2" y="413.46" width="41.35" height="41.35" fill="#1e293b"/>
<path d="m1819.2 454.81a41.35 41.35 0 0 0 41.35-41.35h-41.35" fill="#1e293b"/>
<rect x="1860.6" y="413.46" width="41.35" height="41.35" fill="#e2e8f0"/>
<path d="m1860.6 413.46a41.35 41.35 0 0 0 41.35 41.35v-41.35" fill="#dc2626"/>
<rect x="1819.2" y="454.81" width="41.35" height="41.35" fill="#e2e8f0"/>
<path d="m1819.2 454.81a41.35 41.35 0 0 1 41.35 41.35h-41.35" fill="#334155"/>
<rect x="1860.6" y="454.81" width="41.35" height="41.35" fill="#475569"/>
<path d="m1860.6 496.16a41.35 41.35 0 0 1 41.35-41.35v41.35" fill="#dc2626"/>
<rect x="1901.9" y="413.46" width="82.692" height="82.692" fill="#f8fafc"/>
<rect x="1901.9" y="413.46" width="41.35" height="41.35" fill="#1e293b"/>
<path d="m1901.9 454.81a41.35 41.35 0 0 0 41.35-41.35h-41.35" fill="#475569"/>
<rect x="1943.3" y="413.46" width="41.35" height="41.35" fill="#475569"/>
<path d="m1943.3 413.46a41.35 41.35 0 0 0 41.35 41.35v-41.35" fill="#dc2626"/>
<rect x="1901.9" y="454.81" width="41.35" height="41.35" fill="#e2e8f0"/>
<path d="m1901.9 454.81a41.35 41.35 0 0 1 41.35 41.35h-41.35" fill="#475569"/>
<rect x="1943.3" y="454.81" width="41.35" height="41.35" fill="#dc2626"/>
<path d="m1943.3 496.16a41.35 41.35 0 0 1 41.35-41.35v41.35" fill="#e2e8f0"/>
<rect x="1984.6" y="413.46" width="82.692" height="82.692" fill="#f8fafc"/>
<rect x="1984.6" y="413.46" width="41.35" height="41.35" fill="#dc2626"/>
<path d="m1984.6 454.81a41.35 41.35 0 0 1 41.35-41.35v41.35" fill="#1e293b"/>
<rect x="2026" y="413.46" width="41.35" height="41.35" fill="#e2e8f0"/>
<path d="m2026 413.46a41.35 41.35 0 0 1 41.35 41.35h-41.35" fill="#e2e8f0"/>
<rect x="1984.6" y="454.81" width="41.35" height="41.35" fill="#475569"/>
<path d="m1984.6 454.81a41.35 41.35 0 0 0 41.35 41.35v-41.35" fill="#e2e8f0"/>
<rect x="2026" y="454.81" width="41.35" height="41.35" fill="#334155"/>
<path d="m2026 496.16a41.35 41.35 0 0 0 41.35-41.35h-41.35" fill="#475569"/>
<rect x="2067.3" y="413.46" width="82.69" height="82.69" fill="#e2e8f0"/>
<rect x="2067.3" y="413.46" width="82.69" height="82.69" fill="#475569"/>
<rect y="496.15" width="82.692" height="82.692" fill="#f8fafc"/>
<rect y="496.15" width="41.35" height="41.35" fill="#1e293b"/>
<path d="m0 496.15a41.35 41.35 0 0 0 41.35 41.35v-41.35" fill="#334155"/>
<rect x="41.35" y="496.15" width="41.35" height="41.35" fill="#334155"/>
<path d="m41.35 537.5a41.35 41.35 0 0 0 41.35-41.35h-41.35" fill="#e2e8f0"/>
<rect y="537.5" width="41.35" height="41.35" fill="#334155"/>
<path d="m0 578.85a41.35 41.35 0 0 1 41.35-41.35v41.35" fill="#1e293b"/>
<rect x="41.35" y="537.5" width="41.35" height="41.35" fill="#334155"/>
<path d="m41.35 537.5a41.35 41.35 0 0 1 41.35 41.35h-41.35" fill="#1e293b"/>
<rect x="82.69" y="496.15" width="82.69" height="82.69" fill="#dc2626"/>
<rect x="82.69" y="496.15" width="82.69" height="82.69" fill="#334155"/>
<rect x="165.38" y="496.15" width="82.69" height="82.69" fill="#334155"/>
<polygon points="248.07 496.15 248.07 578.84 165.38 578.84" fill="#dc2626"/>
<rect x="248.08" y="496.15" width="82.69" height="82.69" fill="#475569"/>
<path d="m248.08 496.15a82.69 82.69 0 0 1 82.69 82.69l-82.69-82.69a82.69 82.69 0 0 0 82.69 82.69" fill="#1e293b"/>
<rect x="330.77" y="496.15" width="82.692" height="82.692" fill="#f8fafc"/>
<rect x="330.77" y="496.15" width="41.35" height="41.35" fill="#dc2626"/>
<polygon points="372.12 496.15 372.12 537.5 330.77 537.5" fill="#dc2626"/>
<rect x="372.12" y="496.15" width="41.35" height="41.35" fill="#e2e8f0"/>
<polygon points="372.12 496.15 413.47 537.5 372.12 537.5" fill="#e2e8f0"/>
<rect x="330.77" y="537.5" width="41.35" height="41.35" fill="#334155"/>
<polygon points="330.77 537.5 372.12 537.5 372.12 578.85" fill="#dc2626"/>
<rect x="372.12" y="537.5" width="41.35" height="41.35" fill="#e2e8f0"/>
<polygon points="372.12 537.5 413.47 537.5 372.12 578.85" fill="#e2e8f0"/>
<rect x="413.46" y="496.15" width="82.692" height="82.692" fill="#f8fafc"/>
<rect x="413.46" y="496.15" width="41.35" height="41.35" fill="#dc2626"/>
<path d="m413.46 496.15a41.35 41.35 0 0 0 41.35 41.35v-41.35" fill="#334155"/>
<rect x="454.81" y="496.15" width="41.35" height="41.35" fill="#475569"/>
<path d="m454.81 537.5a41.35 41.35 0 0 0 41.35-41.35h-41.35" fill="#dc2626"/>
<rect x="413.46" y="537.5" width="41.35" height="41.35" fill="#334155"/>
<path d="m413.46 578.85a41.35 41.35 0 0 1 41.35-41.35v41.35" fill="#dc2626"/>
<rect x="454.81" y="537.5" width="41.35" height="41.35" fill="#1e293b"/>
<path d="m454.81 537.5a41.35 41.35 0 0 1 41.35 41.35h-41.35" fill="#dc2626"/>
<rect x="496.15" y="496.15" width="82.692" height="82.692" fill="#f8fafc"/>
<rect x="496.15" y="496.15" width="41.35" height="41.35" fill="#334155"/>
<polygon points="537.5 496.15 537.5 537.5 496.15 537.5" fill="#e2e8f0"/>
<rect x="537.5" y="496.15" width="41.35" height="41.35" fill="#475569"/>
<polygon points="537.5 496.15 578.85 537.5 537.5 537.5" fill="#dc2626"/>
<rect x="496.15" y="537.5" width="41.35" height="41.35" fill="#dc2626"/>
<polygon points="496.15 537.5 537.5 537.5 537.5 578.85" fill="#334155"/>
<rect x="537.5" y="537.5" width="41.35" height="41.35" fill="#334155"/>
<polygon points="537.5 537.5 578.85 537.5 537.5 578.85" fill="#334155"/>
<rect x="578.85" y="496.15" width="82.692" height="82.692" fill="#f8fafc"/>
<rect x="578.85" y="496.15" width="41.35" height="41.35" fill="#dc2626"/>
<polygon points="620.2 496.15 620.2 537.5 578.85 537.5" fill="#334155"/>
<rect x="620.19" y="496.15" width="41.35" height="41.35" fill="#e2e8f0"/>
<polygon points="620.19 496.15 661.54 496.15 620.19 537.5" fill="#e2e8f0"/>
<rect x="578.85" y="537.5" width="41.35" height="41.35" fill="#475569"/>
<polygon points="578.85 537.5 620.2 537.5 620.2 578.85" fill="#1e293b"/>
<rect x="620.19" y="537.5" width="41.35" height="41.35" fill="#e2e8f0"/>
<polygon points="620.19 537.5 661.54 578.85 620.19 578.85" fill="#475569"/>
<rect x="661.54" y="496.15" width="82.692" height="82.692" fill="#f8fafc"/>
<rect x="661.54" y="496.15" width="41.35" height="41.35" fill="#dc2626"/>
<path d="m661.54 537.5a41.35 41.35 0 0 1 41.35-41.35v41.35" fill="#1e293b"/>
<rect x="702.88" y="496.15" width="41.35" height="41.35" fill="#e2e8f0"/>
<path d="m702.88 496.15a41.35 41.35 0 0 1 41.35 41.35h-41.35" fill="#334155"/>
<rect x="661.54" y="537.5" width="41.35" height="41.35" fill="#e2e8f0"/>
<path d="m661.54 537.5a41.35 41.35 0 0 0 41.35 41.35v-41.35" fill="#475569"/>
<rect x="702.88" y="537.5" width="41.35" height="41.35" fill="#e2e8f0"/>
<path d="m702.88 578.85a41.35 41.35 0 0 0 41.35-41.35h-41.35" fill="#e2e8f0"/>
<rect x="744.23" y="496.15" width="82.69" height="82.69" fill="#e2e8f0"/>
<polygon points="826.92 496.15 826.92 578.84 744.23 578.84" fill="#e2e8f0"/>
<rect x="826.92" y="496.15" width="82.69" height="82.69" fill="#e2e8f0"/>
<rect x="826.92" y="496.15" width="82.69" height="82.69" fill="#475569"/>
<rect x="909.62" y="496.15" width="82.692" height="82.692" fill="#f8fafc"/>
<rect x="909.62" y="496.15" width="41.35" height="41.35" fill="#475569"/>
<path d="m909.62 537.5a41.35 41.35 0 0 0 41.35-41.35h-41.35" fill="#dc2626"/>
<rect x="950.96" y="496.15" width="41.35" height="41.35" fill="#e2e8f0"/>
<path d="m950.96 496.15a41.35 41.35 0 0 0 41.35 41.35v-41.35" fill="#334155"/>
<rect x="909.62" y="537.5" width="41.35" height="41.35" fill="#dc2626"/>
<path d="m909.62 537.5a41.35 41.35 0 0 1 41.35 41.35h-41.35" fill="#475569"/>
<rect x="950.96" y="537.5" width="41.35" height="41.35" fill="#e2e8f0"/>
<path d="m950.96 578.85a41.35 41.35 0 0 1 41.35-41.35v41.35" fill="#dc2626"/>
<rect x="992.31" y="496.15" width="82.69" height="82.69" fill="#dc2626"/>
<polygon points="992.31 496.15 1075 496.15 992.31 578.84" fill="#dc2626"/>
<rect x="1075" y="496.15" width="82.692" height="82.692" fill="#f8fafc"/>
<rect x="1075" y="496.15" width="41.35" height="41.35" fill="#334155"/>
<path d="m1075 537.5a41.35 41.35 0 0 1 41.35-41.35v41.35" fill="#e2e8f0"/>
<rect x="1116.4" y="496.15" width="41.35" height="41.35" fill="#e2e8f0"/>
<path d="m1116.4 496.15a41.35 41.35 0 0 1 41.35 41.35h-41.35" fill="#dc2626"/>
<rect x="1075" y="537.5" width="41.35" height="41.35" fill="#1e293b"/>
<path d="m1075 537.5a41.35 41.35 0 0 0 41.35 41.35v-41.35" fill="#334155"/>
<rect x="1116.4" y="537.5" width="41.35" height="41.35" fill="#334155"/>
<path d="m1116.4 578.85a41.35 41.35 0 0 0 41.35-41.35h-41.35" fill="#dc2626"/>
<rect x="1157.7" y="496.15" width="82.692" height="82.692" fill="#f8fafc"/>
<rect x="1157.7" y="496.15" width="41.35" height="41.35" fill="#e2e8f0"/>
<polygon points="1199 496.15 1199 537.5 1157.7 537.5" fill="#dc2626"/>
<rect x="1199" y="496.15" width="41.35" height="41.35" fill="#1e293b"/>
<polygon points="1199 496.15 1240.4 537.5 1199 537.5" fill="#334155"/>
<rect x="1157.7" y="537.5" width="41.35" height="41.35" fill="#1e293b"/>
<polygon points="1157.7 537.5 1199 537.5 1199 578.85" fill="#334155"/>
<rect x="1199" y="537.5" width="41.35" height="41.35" fill="#475569"/>
<polygon points="1199 537.5 1240.4 537.5 1199 578.85" fill="#475569"/>
<rect x="1240.4" y="496.15" width="82.69" height="82.69" fill="#334155"/>
<polygon points="1240.4 496.15 1323.1 578.84 1240.4 578.84" fill="#e2e8f0"/>
<rect x="1323.1" y="496.15" width="82.69" height="82.69" fill="#dc2626"/>
<rect x="1323.1" y="496.15" width="82.69" height="82.69" fill="#1e293b"/>
<rect x="1405.8" y="496.15" width="82.692" height="82.692" fill="#f8fafc"/>
<rect x="1405.8" y="496.15" width="41.35" height="41.35" fill="#e2e8f0"/>
<path d="m1405.8 537.5a41.35 41.35 0 0 1 41.35-41.35v10.337a31.013 31.013 0 0 0-31.012 31.013" fill="#e2e8f0"/>
<rect x="1447.1" y="496.15" width="41.35" height="41.35" fill="#e2e8f0"/>
<path d="m1447.1 496.15a41.35 41.35 0 0 1 41.35 41.35h-10.337a31.013 31.013 0 0 0-31.012-31.013" fill="#e2e8f0"/>
<rect x="1405.8" y="537.5" width="41.35" height="41.35" fill="#475569"/>
<path d="m1405.8 537.5a41.35 41.35 0 0 0 41.35 41.35v-10.338a31.013 31.013 0 0 1-31.012-31.012" fill="#1e293b"/>
<rect x="1447.1" y="537.5" width="41.35" height="41.35" fill="#1e293b"/>
<path d="m1447.1 578.85a41.35 41.35 0 0 0 41.35-41.35h-10.337a31.013 31.013 0 0 1-31.012 31.012" fill="#e2e8f0"/>
<rect x="1488.5" y="496.15" width="82.692" height="82.692" fill="#f8fafc"/>
<rect x="1488.5" y="496.15" width="41.35" height="41.35" fill="#e2e8f0"/>
<path d="m1488.5 537.5a41.35 41.35 0 0 1 41.35-41.35v10.337a31.013 31.013 0 0 0-31.012 31.013" fill="#1e293b"/>
<rect x="1529.8" y="496.15" width="41.35" height="41.35" fill="#1e293b"/>
<path d="m1529.8 496.15a41.35 41.35 0 0 1 41.35 41.35h-10.337a31.013 31.013 0 0 0-31.012-31.013" fill="#1e293b"/>
<rect x="1488.5" y="537.5" width="41.35" height="41.35" fill="#dc2626"/>
<path d="m1488.5 537.5a41.35 41.35 0 0 0 41.35 41.35v-10.338a31.013 31.013 0 0 1-31.012-31.012" fill="#334155"/>
<rect x="1529.8" y="537.5" width="41.35" height="41.35" fill="#e2e8f0"/>
<path d="m1529.8 578.85a41.35 41.35 0 0 0 41.35-41.35h-10.337a31.013 31.013 0 0 1-31.012 31.012" fill="#475569"/>
<rect x="1571.2" y="496.15" width="82.69" height="82.69" fill="#e2e8f0"/>
<polygon points="1571.2 496.15 1653.8 578.84 1571.2 578.84" fill="#e2e8f0"/>
<rect x="1653.8" y="496.15" width="82.69" height="82.69" fill="#e2e8f0"/>
<polygon points="1653.8 496.15 1736.5 496.15 1736.5 578.84" fill="#334155"/>
<rect x="1736.5" y="496.15" width="82.69" height="82.69" fill="#475569"/>
<path d="m1736.5 578.84a82.69 82.69 0 0 1 82.69-82.69l-82.69 82.69a82.69 82.69 0 0 0 82.69-82.69" fill="#475569"/>
<rect x="1819.2" y="496.15" width="82.69" height="82.69" fill="#dc2626"/>
<polygon points="1819.2 496.15 1901.9 496.15 1901.9 578.84" fill="#e2e8f0"/>
<rect x="1901.9" y="496.15" width="82.69" height="82.69" fill="#475569"/>
<rect x="1901.9" y="496.15" width="82.69" height="82.69" fill="#475569"/>
<rect x="1984.6" y="496.15" width="82.69" height="82.69" fill="#1e293b"/>
<path d="m1984.6 578.84a82.69 82.69 0 0 1 82.69-82.69v82.69" fill="#334155"/>
<rect x="2067.3" y="496.15" width="82.69" height="82.69" fill="#475569"/>
<path d="m2067.3 496.15a82.69 82.69 0 0 1 82.69 82.69h-82.69" fill="#1e293b"/>
<rect y="578.85" width="82.69" height="82.69" fill="#1e293b"/>
<rect y="578.85" width="82.69" height="82.69" fill="#e2e8f0"/>
<rect x="82.69" y="578.85" width="82.69" height="82.69" fill="#475569"/>
<polygon points="165.38 578.85 165.38 661.54 82.69 661.54" fill="#dc2626"/>
<rect x="165.38" y="578.85" width="82.69" height="82.69" fill="#334155"/>
<path d="m165.38 578.85a82.69 82.69 0 0 1 82.69 82.69h-82.69" fill="#334155"/>
<rect x="248.08" y="578.85" width="82.692" height="82.692" fill="#f8fafc"/>
<rect x="248.08" y="578.85" width="41.35" height="41.35" fill="#1e293b"/>
<path d="m248.08 578.85a41.35 41.35 0 0 1 41.35 41.35h-41.35" fill="#334155"/>
<rect x="289.42" y="578.85" width="41.35" height="41.35" fill="#475569"/>
<path d="m289.42 620.2a41.35 41.35 0 0 1 41.35-41.35v41.35" fill="#e2e8f0"/>
<rect x="248.08" y="620.19" width="41.35" height="41.35" fill="#1e293b"/>
<path d="m248.08 661.54a41.35 41.35 0 0 0 41.35-41.35h-41.35" fill="#dc2626"/>
<rect x="289.42" y="620.19" width="41.35" height="41.35" fill="#475569"/>
<path d="m289.42 620.19a41.35 41.35 0 0 0 41.35 41.35v-41.35" fill="#1e293b"/>
<rect x="330.77" y="578.85" width="82.69" height="82.69" fill="#475569"/>
<polygon points="413.46 578.85 413.46 661.54 330.77 661.54" fill="#e2e8f0"/>
<rect x="413.46" y="578.85" width="82.69" height="82.69" fill="#e2e8f0"/>
<polygon points="496.15 578.85 496.15 661.54 413.46 661.54" fill="#1e293b"/>
<rect x="496.15" y="578.85" width="82.69" height="82.69" fill="#dc2626"/>
<rect x="496.15" y="578.85" width="82.69" height="82.69" fill="#dc2626"/>
<rect x="578.85" y="578.85" width="82.692" height="82.692" fill="#f8fafc"/>
<rect x="578.85" y="578.85" width="41.35" height="41.35" fill="#e2e8f0"/>
<path d="m578.85 620.2a41.35 41.35 0 0 1 41.35-41.35v41.35" fill="#1e293b"/>
<rect x="620.19" y="578.85" width="41.35" height="41.35" fill="#dc2626"/>
<path d="m620.19 578.85a41.35 41.35 0 0 1 41.35 41.35h-41.35" fill="#e2e8f0"/>
<rect x="578.85" y="620.19" width="41.35" height="41.35" fill="#475569"/>
<path d="m578.85 620.19a41.35 41.35 0 0 0 41.35 41.35v-41.35" fill="#e2e8f0"/>
<rect x="620.19" y="620.19" width="41.35" height="41.35" fill="#dc2626"/>
<path d="m620.19 661.54a41.35 41.35 0 0 0 41.35-41.35h-41.35" fill="#334155"/>
<rect x="661.54" y="578.85" width="82.692" height="82.692" fill="#f8fafc"/>
<rect x="661.54" y="578.85" width="41.35" height="41.35" fill="#dc2626"/>
<polygon points="702.89 578.85 702.89 620.2 661.54 620.2" fill="#475569"/>
<rect x="702.88" y="578.85" width="41.35" height="41.35" fill="#1e293b"/>
<polygon points="702.88 578.85 744.23 620.2 702.88 620.2" fill="#dc2626"/>
<rect x="661.54" y="620.19" width="41.35" height="41.35" fill="#334155"/>
<polygon points="661.54 620.19 702.89 620.19 702.89 661.54" fill="#1e293b"/>
<rect x="702.88" y="620.19" width="41.35" height="41.35" fill="#475569"/>
<polygon points="702.88 620.19 744.23 620.19 702.88 661.54" fill="#1e293b"/>
<rect x="744.23" y="578.85" width="82.692" height="82.692" fill="#f8fafc"/>
<rect x="744.23" y="578.85" width="41.35" height="41.35" fill="#334155"/>
<path d="m744.23 620.2a41.35 41.35 0 0 1 41.35-41.35v10.338a31.013 31.013 0 0 0-31.012 31.012" fill="#1e293b"/>
<rect x="785.58" y="578.85" width="41.35" height="41.35" fill="#dc2626"/>
<path d="m785.58 578.85a41.35 41.35 0 0 1 41.35 41.35h-10.338a31.013 31.013 0 0 0-31.013-31.012" fill="#e2e8f0"/>
<rect x="744.23" y="620.19" width="41.35" height="41.35" fill="#334155"/>
<path d="m744.23 620.19a41.35 41.35 0 0 0 41.35 41.35v-10.338a31.013 31.013 0 0 1-31.012-31.013" fill="#1e293b"/>
<rect x="785.58" y="620.19" width="41.35" height="41.35" fill="#334155"/>
<path d="m785.58 661.54a41.35 41.35 0 0 0 41.35-41.35h-10.338a31.013 31.013 0 0 1-31.013 31.013" fill="#e2e8f0"/>
<rect x="826.92" y="578.85" width="82.69" height="82.69" fill="#1e293b"/>
<polygon points="909.61 578.85 909.61 661.54 826.92 661.54" fill="#475569"/>
<rect x="909.62" y="578.85" width="82.69" height="82.69" fill="#334155"/>
<rect x="909.62" y="578.85" width="82.69" height="82.69" fill="#dc2626"/>
<rect x="992.31" y="578.85" width="82.692" height="82.692" fill="#f8fafc"/>
<rect x="992.31" y="578.85" width="41.35" height="41.35" fill="#334155"/>
<polygon points="1033.7 578.85 1033.7 620.2 992.31 620.2" fill="#334155"/>
<rect x="1033.6" y="578.85" width="41.35" height="41.35" fill="#1e293b"/>
<polygon points="1033.6 578.85 1075 578.85 1033.6 620.2" fill="#475569"/>
<rect x="992.31" y="620.19" width="41.35" height="41.35" fill="#1e293b"/>
<polygon points="992.31 620.19 1033.7 620.19 1033.7 661.54" fill="#e2e8f0"/>
<rect x="1033.6" y="620.19" width="41.35" height="41.35" fill="#334155"/>
<polygon points="1033.6 620.19 1075 661.54 1033.6 661.54" fill="#334155"/>
<rect x="1075" y="578.85" width="82.692" height="82.692" fill="#f8fafc"/>
<rect x="1075" y="578.85" width="41.35" height="41.35" fill="#475569"/>
<path d="m1075 620.2a41.35 41.35 0 0 0 41.35-41.35h-41.35" fill="#dc2626"/>
<rect x="1116.4" y="578.85" width="41.35" height="41.35" fill="#dc2626"/>
<path d="m1116.4 578.85a41.35 41.35 0 0 0 41.35 41.35v-41.35" fill="#dc2626"/>
<rect x="1075" y="620.19" width="41.35" height="41.35" fill="#1e293b"/>
<path d="m1075 620.19a41.35 41.35 0 0 1 41.35 41.35h-41.35" fill="#dc2626"/>
<rect x="1116.4" y="620.19" width="41.35" height="41.35" fill="#475569"/>
<path d="m1116.4 661.54a41.35 41.35 0 0 1 41.35-41.35v41.35" fill="#1e293b"/>
<rect x="1157.7" y="578.85" width="82.692" height="82.692" fill="#f8fafc"/>
<rect x="1157.7" y="578.85" width="41.35" height="41.35" fill="#dc2626"/>
<polygon points="1199 578.85 1199 620.2 1157.7 620.2" fill="#dc2626"/>
<rect x="1199" y="578.85" width="41.35" height="41.35" fill="#1e293b"/>
<polygon points="1199 578.85 1240.4 578.85 1199 620.2" fill="#1e293b"/>
<rect x="1157.7" y="620.19" width="41.35" height="41.35" fill="#dc2626"/>
<polygon points="1157.7 620.19 1199 620.19 1199 661.54" fill="#e2e8f0"/>
<rect x="1199" y="620.19" width="41.35" height="41.35" fill="#475569"/>
<polygon points="1199 620.19 1240.4 661.54 1199 661.54" fill="#dc2626"/>
<rect x="1240.4" y="578.85" width="82.692" height="82.692" fill="#f8fafc"/>
<rect x="1240.4" y="578.85" width="41.35" height="41.35" fill="#e2e8f0"/>
<path d="m1240.4 578.85a41.35 41.35 0 0 1 41.35 41.35h-41.35" fill="#dc2626"/>
<rect x="1281.7" y="578.85" width="41.35" height="41.35" fill="#475569"/>
<path d="m1281.7 620.2a41.35 41.35 0 0 1 41.35-41.35v41.35" fill="#dc2626"/>
<rect x="1240.4" y="620.19" width="41.35" height="41.35" fill="#dc2626"/>
<path d="m1240.4 661.54a41.35 41.35 0 0 0 41.35-41.35h-41.35" fill="#334155"/>
<rect x="1281.7" y="620.19" width="41.35" height="41.35" fill="#e2e8f0"/>
<path d="m1281.7 620.19a41.35 41.35 0 0 0 41.35 41.35v-41.35" fill="#334155"/>
<rect x="1323.1" y="578.85" width="82.692" height="82.692" fill="#f8fafc"/>
<rect x="1323.1" y="578.85" width="41.35" height="41.35" fill="#475569"/>
<path d="m1323.1 620.2a41.35 41.35 0 0 0 41.35-41.35h-41.35" fill="#dc2626"/>
<rect x="1364.4" y="578.85" width="41.35" height="41.35" fill="#334155"/>
<path d="m1364.4 578.85a41.35 41.35 0 0 0 41.35 41.35v-41.35" fill="#dc2626"/>
<rect x="1323.1" y="620.19" width="41.35" height="41.35" fill="#475569"/>
<path d="m1323.1 620.19a41.35 41.35 0 0 1 41.35 41.35h-41.35" fill="#dc2626"/>
<rect x="1364.4" y="620.19" width="41.35" height="41.35" fill="#334155"/>
<path d="m1364.4 661.54a41.35 41.35 0 0 1 41.35-41.35v41.35" fill="#e2e8f0"/>
<rect x="1405.8" y="578.85" width="82.692" height="82.692" fill="#f8fafc"/>
<rect x="1405.8" y="578.85" width="41.35" height="41.35" fill="#dc2626"/>
<circle cx="1426.4" cy="599.52" r="20.675" fill="#dc2626"/>
<rect x="1447.1" y="578.85" width="41.35" height="41.35" fill="#dc2626"/>
<rect x="1447.1" y="578.85" width="41.35" height="41.35" fill="#dc2626"/>
<rect x="1405.8" y="620.19" width="41.35" height="41.35" fill="#dc2626"/>
<circle cx="1426.4" cy="640.86" r="20.675" fill="#334155"/>
<rect x="1447.1" y="620.19" width="41.35" height="41.35" fill="#e2e8f0"/>
<rect x="1447.1" y="620.19" width="41.35" height="41.35" fill="#dc2626"/>
<rect x="1488.5" y="578.85" width="82.692" height="82.692" fill="#f8fafc"/>
<rect x="1488.5" y="578.85" width="41.35" height="41.35" fill="#475569"/>
<path d="m1488.5 620.2a41.35 41.35 0 0 1 41.35-41.35v10.338a31.013 31.013 0 0 0-31.012 31.012" fill="#334155"/>
<rect x="1529.8" y="578.85" width="41.35" height="41.35" fill="#dc2626"/>
<path d="m1529.8 578.85a41.35 41.35 0 0 1 41.35 41.35h-10.337a31.013 31.013 0 0 0-31.012-31.012" fill="#dc2626"/>
<rect x="1488.5" y="620.19" width="41.35" height="41.35" fill="#dc2626"/>
<path d="m1488.5 620.19a41.35 41.35 0 0 0 41.35 41.35v-10.338a31.013 31.013 0 0 1-31.012-31.013" fill="#dc2626"/>
<rect x="1529.8" y="620.19" width="41.35" height="41.35" fill="#e2e8f0"/>
<path d="m1529.8 661.54a41.35 41.35 0 0 0 41.35-41.35h-10.337a31.013 31.013 0 0 1-31.012 31.013" fill="#1e293b"/>
<rect x="1571.2" y="578.85" width="82.69" height="82.69" fill="#334155"/>
<rect x="1571.2" y="578.85" width="82.69" height="82.69" fill="#e2e8f0"/>
<rect x="1653.8" y="578.85" width="82.692" height="82.692" fill="#f8fafc"/>
<rect x="1653.8" y="578.85" width="41.35" height="41.35" fill="#475569"/>
<path d="m1653.8 578.85a41.35 41.35 0 0 1 41.35 41.35h-41.35" fill="#e2e8f0"/>
<rect x="1695.2" y="578.85" width="41.35" height="41.35" fill="#475569"/>
<path d="m1695.2 620.2a41.35 41.35 0 0 1 41.35-41.35v41.35" fill="#1e293b"/>
<rect x="1653.8" y="620.19" width="41.35" height="41.35" fill="#334155"/>
<path d="m1653.8 661.54a41.35 41.35 0 0 0 41.35-41.35h-41.35" fill="#334155"/>
<rect x="1695.2" y="620.19" width="41.35" height="41.35" fill="#475569"/>
<path d="m1695.2 620.19a41.35 41.35 0 0 0 41.35 41.35v-41.35" fill="#1e293b"/>
<rect x="1736.5" y="578.85" width="82.69" height="82.69" fill="#334155"/>
<polygon points="1736.5 578.85 1819.2 661.54 1736.5 661.54" fill="#dc2626"/>
<rect x="1819.2" y="578.85" width="82.69" height="82.69" fill="#1e293b"/>
<rect x="1819.2" y="578.85" width="82.69" height="82.69" fill="#e2e8f0"/>
<rect x="1901.9" y="578.85" width="82.69" height="82.69" fill="#334155"/>
<path d="m1901.9 661.54a82.69 82.69 0 0 1 82.69-82.69v82.69" fill="#475569"/>
<rect x="1984.6" y="578.85" width="82.69" height="82.69" fill="#1e293b"/>
<path d="m1984.6 578.85a82.69 82.69 0 0 1 82.69 82.69l-82.69-82.69a82.69 82.69 0 0 0 82.69 82.69" fill="#e2e8f0"/>
<rect x="2067.3" y="578.85" width="82.692" height="82.692" fill="#f8fafc"/>
<rect x="2067.3" y="578.85" width="41.35" height="41.35" fill="#334155"/>
<polygon points="2108.7 578.85 2108.7 620.2 2067.3 620.2" fill="#475569"/>
<rect x="2108.6" y="578.85" width="41.35" height="41.35" fill="#334155"/>
<polygon points="2108.6 578.85 2150 578.85 2108.6 620.2" fill="#e2e8f0"/>
<rect x="2067.3" y="620.19" width="41.35" height="41.35" fill="#e2e8f0"/>
<polygon points="2067.3 620.19 2108.7 620.19 2108.7 661.54" fill="#334155"/>
<rect x="2108.6" y="620.19" width="41.35" height="41.35" fill="#1e293b"/>
<polygon points="2108.6 620.19 2150 661.54 2108.6 661.54" fill="#475569"/>
</g>
</svg>
